<?xml version="1.0" encoding="UTF-8"?>
<svg xmlns="http://www.w3.org/2000/svg" viewBox="0 0 1000 600" stroke="#000" stroke-width="0.3" fill="#ccc">
<path d="M563.367,170.676L563.357,170.686L563.361,170.689L563.369,170.695L563.374,170.7L563.376,170.701L563.378,170.703L563.389,170.702L563.398,170.724L563.4,170.727L563.417,170.732L563.422,170.748L563.419,170.749L563.414,170.745L563.413,170.747L563.416,170.752L563.414,170.752L563.408,170.75L563.404,170.757L563.403,170.758L563.407,170.762L563.412,170.768L563.413,170.769L563.417,170.768L563.427,170.766L563.434,170.764L563.435,170.76L563.435,170.759L563.436,170.755L563.436,170.755L563.444,170.757L563.45,170.746L563.454,170.744L563.459,170.739L563.472,170.74L563.473,170.738L563.478,170.742L563.483,170.741L563.485,170.744L563.53,170.751L563.532,170.747L563.536,170.749L563.54,170.743L563.542,170.738L563.54,170.733L563.544,170.731L563.534,170.725L563.533,170.72L563.525,170.72L563.519,170.714L563.51,170.714L563.505,170.706L563.499,170.706L563.497,170.703L563.489,170.709L563.482,170.707L563.479,170.701L563.474,170.7L563.473,170.693L563.468,170.693L563.468,170.689L563.47,170.676L563.465,170.676L563.463,170.675L563.446,170.673L563.44,170.661L563.441,170.657L563.437,170.653L563.431,170.652L563.43,170.652L563.422,170.654L563.42,170.654L563.407,170.652L563.388,170.649L563.388,170.649L563.382,170.644L563.38,170.645L563.375,170.648L563.376,170.649L563.385,170.657L563.385,170.658L563.385,170.665L563.388,170.675L563.378,170.673L563.373,170.679ZM800,0L800,12.246L800,78.668L800,145.789L800,215.835L800,261.497L800,300L800,338.503L800,384.165L800,454.211L800,600L800,600L200,600L200,600L200,454.211L200,384.165L200,338.503L200,300L200,261.497L200,215.835L200,145.789L200,78.668L200,12.246L200,0L200,0L800,0ZM562.5,67.572L562.639,67.453L562.77,67.316L562.803,67.278L562.916,67.135L563.015,66.982L563.1,66.82L563.169,66.65L563.222,66.474L563.239,66.404L563.274,66.229L563.293,66.05L563.295,65.87L563.28,65.69L563.249,65.512L563.235,65.45L563.19,65.283L563.129,65.119L563.054,64.962L562.965,64.812L562.895,64.704L562.769,64.533L562.625,64.377L562.579,64.332L562.439,64.207L562.287,64.097L562.125,64.002L561.955,63.923L561.947,63.92L561.808,63.87L561.666,63.83L561.632,63.822L561.485,63.793L561.337,63.776L561.181,63.764L560.973,63.759L560.765,63.776L560.561,63.816L560.363,63.877L560.172,63.959L560.139,63.975L559.956,64.078L559.785,64.201L559.629,64.34L559.489,64.496L559.367,64.665L559.264,64.846L559.239,64.895L559.162,65.069L559.103,65.25L559.062,65.435L559.039,65.623L559.034,65.812L559.047,66L559.059,66.093L559.091,66.28L559.141,66.463L559.208,66.64L559.293,66.809L559.393,66.969L559.508,67.118L559.636,67.255L559.721,67.337L559.742,67.356L559.832,67.436L559.95,67.527L560.108,67.639L560.27,67.742L560.44,67.828L560.619,67.897L560.803,67.949L560.991,67.981L561.181,67.995L561.372,67.991L561.561,67.967L561.642,67.953L561.825,67.912L562.004,67.853L562.177,67.777L562.341,67.684L562.496,67.576ZM800,0L800,12.246L800,78.668L800,145.789L800,215.835L800,261.497L800,300L800,338.503L800,384.165L800,454.211L800,600L800,600L200,600L200,600L200,454.211L200,384.165L200,338.503L200,300L200,261.497L200,215.835L200,145.789L200,78.668L200,12.246L200,0L200,0L800,0ZM594.253,48.889L594.249,49.081L593.982,49.139L593.567,49.323L593.19,49.589L592.943,49.823L592.736,50.089L592.571,50.382L592.407,50.897L592.223,50.807L591.808,50.708L591.464,50.687L591.281,50.697L591.073,50.726L590.862,50.776L590.492,50.915L590.152,51.117L589.995,51.253L589.84,51.279L589.652,51.326L589.175,51.532L588.877,51.738L588.618,51.99L588.403,52.279L588.238,52.599L588.124,52.954L588.072,53.322L588.081,53.692L588.152,54.054L588.281,54.398L588.36,54.533L588.431,54.723L588.545,54.937L588.383,55.221L588.266,55.536L588.197,55.875L588.18,56.131L588.195,56.424L588.269,56.862L588.35,57.126L588.416,57.282L588.557,57.538L588.235,58.029L588.118,58.267L588.021,58.559L587.975,58.774L587.953,58.942L587.833,58.798L587.539,58.542L587.379,58.386L587.252,58.219L587.027,57.953L586.953,57.836L586.91,57.726L586.903,57.609L586.842,57.244L586.796,57.114L586.876,56.986L587.006,56.716L587.125,56.313L587.162,55.977L587.158,55.687L587.11,55.293L587.058,55.076L587.002,54.9L586.864,54.576L586.773,54.416L586.665,54.256L586.531,54.088L586.349,53.9L586.266,53.823L586.019,53.634L585.828,53.521L585.366,53.28L584.971,53.156L584.588,53.11L583.978,53.116L583.598,53.191L583.165,53.37L582.781,53.636L582.536,53.886L582.334,54.171L582.293,54.256L582.205,54.384L582.015,54.71L581.883,55.064L581.819,55.392L581.804,55.713L581.833,56.078L581.877,56.259L581.85,56.41L581.558,56.635L581.328,56.88L581.13,57.18L580.851,57.116L580.481,57.093L580.41,57.099L580.264,56.993L579.921,56.81L579.634,56.713L579.334,56.658L578.902,56.655L578.479,56.741L578.222,56.837L577.994,56.871L577.632,57.011L577.302,57.215L577.016,57.476L576.784,57.783L576.613,58.127L576.557,58.32L576.471,58.359L576.178,58.559L575.984,58.739L575.84,58.921L575.586,58.957L575.391,59.007L575.012,59.122L574.719,59.244L574.589,59.263L574.302,59.345L574.03,59.468L573.793,59.618L573.599,59.773L573.433,59.929L573.186,60.225L573.044,60.466L572.976,60.607L572.875,60.899L572.816,61.236L572.806,61.496L572.823,61.725L572.888,62.03L573.017,62.368L573.175,62.637L573.392,62.9L573.648,63.122L573.823,63.229L573.957,63.33L574.271,63.517L574.336,63.606L574.602,63.859L574.941,64.082L575.592,64.562L575.916,64.755L575.932,64.882L576.031,65.22L576.16,65.49L576.277,65.675L576.334,65.981L576.437,66.296L576.613,66.634L576.734,66.812L576.874,66.975L577.04,67.131L577.071,67.156L577.202,67.26L577.34,67.342L577.97,68.021L578.085,68.161L578.309,68.373L578.564,68.547L578.669,68.604L578.984,68.731L579.316,68.802L579.655,68.812L579.991,68.764L580.432,68.66L580.602,68.839L580.828,69.012L581.076,69.149L581.31,69.239L581.552,69.297L581.879,69.345L582.03,69.352L582.278,69.34L582.54,69.52L582.796,69.64L583.044,69.716L583.2,69.741L583.242,69.766L583.489,69.855L583.773,69.914L584.012,69.935L584.163,69.94L584.357,69.931L584.429,69.956L584.647,70.007L584.934,70.054L585.465,70.071L585.721,70.059L585.97,70.018L586.161,69.969L586.473,69.854L586.78,69.673L587.088,69.44L587.28,69.236L587.44,69.007L587.564,68.756L587.584,68.69L587.622,68.682L587.713,68.767L587.995,68.946L588.302,69.072L588.614,69.144L588.823,69.172L588.993,69.178L589.148,69.171L589.433,69.125L589.814,68.991L590.158,68.78L590.385,68.575L590.576,68.337L590.727,68.072L590.835,67.785L590.895,67.483L590.899,67.381L590.982,67.357L591.227,67.249L591.292,67.394L591.45,67.636L591.674,67.883L591.86,68.036L591.936,68.087L592.085,68.175L592.25,68.25L592.367,68.441L592.561,68.672L592.774,68.859L593.01,69.012L593.289,69.137L593.584,69.216L593.872,69.248L594.162,69.236L594.564,69.159L594.803,69.073L595.025,68.957L595.366,68.688L595.402,68.774L595.541,69.011L595.683,69.193L595.836,69.349L595.83,69.531L595.838,69.671L595.892,69.974L595.988,70.251L596.117,70.496L596.28,70.718L596.384,70.83L596.502,70.939L596.614,71.026L596.765,71.125L596.912,71.202L597.056,71.263L597.295,71.335L597.556,71.377L597.729,71.385L597.924,71.376L598.125,71.345L598.43,71.255L598.632,71.161L598.771,71.082L598.928,70.972L599.125,70.802L599.317,70.578L599.496,70.267L599.736,70.298L600.159,70.256L600.422,70.191L600.617,70.125L600.847,70.015L601.096,69.849L601.421,69.522L601.59,69.265L601.715,68.984L601.801,68.646L601.823,68.511L601.839,68.29L601.825,68.021L601.795,67.841L601.684,67.473L601.696,67.353L601.88,67.166L602.08,66.888L602.256,66.502L602.321,66.25L602.35,66.008L602.459,65.976L602.79,65.805L602.954,65.677L603.218,65.54L603.582,65.315L603.829,65.12L604.004,64.936L604.147,64.744L604.268,64.531L604.399,64.188L604.463,63.846L604.467,63.498L604.455,63.44L604.619,63.348L604.842,63.179L604.983,63.029L605.195,63.04L605.514,63.016L605.825,62.943L606.129,62.818L606.298,62.723L606.431,62.634L606.673,62.599L606.823,62.563L607.287,62.394L607.482,62.363L607.633,62.324L607.994,62.199L608.157,62.134L608.422,61.993L608.797,61.738L609.157,61.445L609.449,61.236L609.658,61.046L609.828,60.852L609.945,60.694L610.055,60.522L610.129,60.387L610.14,60.349L610.329,60.106L610.51,59.812L610.594,59.657L610.703,59.385L610.803,59.192L610.871,59.013L610.925,58.824L611.011,58.351L611.037,57.984L611.001,57.639L611.041,57.456L611.074,57.087L611.034,56.523L611.006,56.339L610.959,56.177L610.952,56.01L610.876,55.611L610.776,55.253L610.64,54.929L610.544,54.745L610.473,54.631L610.387,54.503L610.173,54.219L609.901,53.902L609.683,53.697L609.486,53.551L609.287,53.435L608.952,53.27L608.945,53.284L608.734,53.171L608.449,53.081L608.106,53.011L607.735,52.967L607.467,52.962L607.27,52.977L606.932,53.045L606.621,53.156L606.397,53.262L606.175,53.392L605.863,53.625L605.744,53.734L605.57,53.927L605.329,54.125L605.108,54.382L604.931,54.669L604.8,54.98L604.715,55.35L604.655,55.194L604.42,54.833L604.116,54.524L603.728,54.267L603.626,54.223L603.572,54.184L603.27,54.019L603.154,53.976L603.12,53.717L603.325,53.739L603.497,53.743L603.658,53.736L603.893,53.705L604.165,53.638L604.509,53.504L604.808,53.338L605.122,53.103L605.374,53.139L605.577,53.149L605.939,53.127L606.158,53.087L606.345,53.037L606.516,52.986L606.765,52.884L607.105,52.707L607.279,52.589L607.559,52.368L607.641,52.294L607.875,52.041L607.998,51.881L608.146,51.651L608.281,51.374L608.419,50.988L608.484,50.754L608.553,50.381L608.557,49.995L608.52,49.692L608.442,49.383L608.34,49.063L608.223,48.796L608.091,48.56L607.915,48.313L607.656,48.014L607.421,47.791L607.155,47.585L606.862,47.407L606.714,47.329L606.441,47.224L606.134,47.134L605.744,47.066L605.448,47.052L605.17,47.061L604.8,47.105L604.495,47.096L604.275,47.114L604.027,47.161L603.847,47.213L603.541,47.255L603.248,47.336L602.996,47.433L602.724,47.571L602.436,47.755L602.22,47.933L602.103,48.047L601.914,48.279L601.658,48.478L601.431,48.714L601.295,48.893L601.203,49.04L601.107,49.223L601.03,49.412L601.096,49.113L601.131,48.759L601.167,48.625L601.187,48.45L601.203,48.046L601.198,47.858L601.172,47.63L601.132,47.435L601.073,47.232L600.824,46.56L600.587,46.199L600.287,45.885L599.901,45.612L599.478,45.425L599.033,45.305L598.553,45.255L598.164,45.286L597.757,45.303L597.396,45.367L597.07,45.476L596.787,45.609L596.439,45.669L595.954,45.813L595.594,45.974L595.403,46.092L595.217,46.224L594.925,46.472L594.722,46.685L594.59,46.853L594.385,47.199L594.242,47.574L594.162,48.002L594.162,48.436L594.243,48.862ZM800,0L800,12.246L800,78.668L800,145.789L800,215.835L800,261.497L800,300L800,338.503L800,384.165L800,454.211L800,600L800,600L200,600L200,600L200,454.211L200,384.165L200,338.503L200,300L200,261.497L200,215.835L200,145.789L200,78.668L200,12.246L200,0L200,0L800,0ZM597.013,131.618L597.54,131.145L598.085,130.657L597.554,130.327L597.214,130.116L596.876,129.907L596.512,129.681L596.205,129.486L595.83,129.248L595.536,128.914L595.188,128.52L595.045,128.322L594.85,128.055L594.719,127.874L594.624,127.744L594.479,127.544L594.452,127.433L594.413,127.277L594.362,127.117L594.307,126.995L594.242,126.83L593.901,125.964L593.679,125.063L593.647,124.949L593.657,124.871L593.631,124.619L593.605,124.547L593.59,124.452L593.572,124.376L593.539,124.274L593.512,124.209L593.515,123.889L593.683,123.349L593.696,123.295L593.712,123.186L593.718,123.075L593.716,123.019L593.69,122.759L593.762,121.947L594.008,121.406L594.23,120.917L594.574,120.185L594.629,120.045L594.635,120.02L594.674,119.954L594.724,119.853L594.765,119.745L594.796,119.634L595.123,118.757L595.312,118.291L595.554,117.728L595.769,117.449L595.83,117.358L595.857,117.328L595.897,117.272L595.944,117.221L596.095,117.007L596.263,116.733L596.308,116.639L596.384,116.539L596.729,116.012L597.003,115.592L597.316,114.988L597.551,114.534L597.797,114.02L598.15,113.285L598.595,112.584L598.848,112.112L599.102,111.91L599.245,111.796L599.41,111.665L599.539,111.561L599.68,111.449L599.946,111.237L600.007,111.185L600.117,111.069L600.212,110.939L600.253,110.869L600.307,110.759L600.446,110.404L600.65,109.979L600.828,109.607L601.13,109.234L601.437,108.853L601.489,108.783L601.771,108.369L602.014,108.013L602.412,107.37L602.705,106.899L603.155,106.293L603.508,105.817L603.667,105.644L603.917,105.372L604.055,105.222L604.202,105.062L604.316,104.938L604.406,104.84L604.551,104.764L604.621,104.718L604.716,104.645L604.785,104.586L604.85,104.522L604.958,104.392L604.974,104.387L604.992,104.38L605.015,104.372L605.033,104.366L605.059,104.357L605.193,104.294L605.306,104.226L605.312,104.221L605.323,104.213L605.331,104.207L605.361,104.184L605.383,104.168L605.411,104.146L605.509,104.057L605.544,104.017L605.703,103.98L605.736,103.966L605.787,103.946L605.823,103.932L605.882,103.909L605.917,103.895L605.959,103.879L606.091,103.818L606.742,103.623L606.973,103.522L607.183,103.38L607.377,103.193L607.411,103.148L607.48,103.104L607.637,102.968L607.72,102.874L608.107,102.771L608.28,102.704L608.489,102.579L608.565,102.517L608.61,102.498L608.615,102.496L608.621,102.494L608.628,102.491L608.635,102.488L608.645,102.484L608.648,102.483L608.652,102.481L608.654,102.481L608.692,102.465L608.7,102.461L608.708,102.457L608.72,102.45L608.731,102.445L608.742,102.439L608.75,102.435L608.966,102.403L609.265,102.282L609.527,102.094L609.727,101.861L609.788,101.816L609.884,101.729L610.024,101.636L610.047,101.615L610.137,101.587L610.239,101.548L610.342,101.498L610.47,101.428L610.726,101.241L610.823,101.16L611.102,101.114L611.346,101.022L611.567,100.886L611.703,100.765L611.749,100.738L611.962,100.659L612.045,100.621L612.171,100.555L612.235,100.513L612.394,100.44L612.605,100.328L612.7,100.269L612.729,100.245L612.863,100.171L613.022,100.053L613.215,99.864L613.231,99.843L613.309,99.807L613.389,99.758L613.526,99.659L613.688,99.552L613.721,99.536L613.918,99.397L613.937,99.378L614.035,99.371L614.219,99.333L614.396,99.271L614.563,99.186L614.718,99.079L614.857,98.951L614.977,98.807L615.078,98.647L615.278,98.279L615.507,97.857L615.766,97.382L616.014,96.926L616.175,96.63L616.241,96.49L616.291,96.344L616.316,96.244L616.377,95.952L616.428,95.709L616.485,95.438L616.525,95.245L616.566,95.048L616.58,94.97L616.595,94.812L616.593,94.654L616.574,94.496L616.421,93.847L616.409,93.803L616.402,93.776L616.394,93.747L616.332,93.585L616.022,92.904L615.588,92.13L615.502,92.007L615.404,91.893L615.351,91.84L615.273,91.771L615.039,91.592L614.896,91.501L614.782,91.443L614.601,91.363L614.147,91.162L613.891,91.048L613.538,90.892L613.407,90.84L613.272,90.801L613.134,90.775L612.994,90.762L612.853,90.763L612.713,90.776L612.575,90.803L612.485,90.828L612.296,90.893L612.199,90.931L612.105,90.975L611.965,91.057L611.628,91.299L611.105,91.673L610.841,91.862L610.719,91.969L610.559,92.134L610.255,92.388L609.781,92.804L609.093,93.401L608.974,93.517L608.868,93.646L608.672,93.934L608.64,94.003L608.59,94.082L608.544,94.175L608.46,94.376L608.099,94.763L607.62,95.038L607.395,95.118L606.883,95.299L606.535,95.423L606.4,95.477L606.363,95.496L606.33,95.513L606.271,95.543L606.217,95.571L606.194,95.583L606.044,95.691L605.507,96.165L605.119,96.283L604.783,96.385L604.498,96.471L603.992,96.396L603.408,96.309L603.147,96.27L602.946,96.24L602.826,96.23L602.664,96.232L602.154,96.271L601.773,96.312L601.513,96.349L601.38,96.375L601.314,96.393L601.187,96.437L601.044,96.504L600.691,96.713L600.138,97.041L599.568,97.379L599.249,97.497L598.563,97.75L598.272,97.857L598.025,97.948L597.917,97.997L597.901,98.006L597.885,98.014L597.868,98.024L597.856,98.03L597.843,98.037L597.704,98.13L597.571,98.24L597.401,98.41L597.284,98.551L597.185,98.7L597.13,98.806L597.1,98.875L596.92,99.371L596.755,99.826L596.514,100.249L596.318,100.472L596.012,100.823L595.823,101.039L595.677,101.206L595.395,101.528L595.038,101.935L594.473,102.579L594.203,102.886L594.078,102.966L593.995,103.026L593.896,103.111L593.754,103.244L593.71,103.295L593.667,103.345L593.62,103.399L593.579,103.447L593.48,103.58L593.463,103.608L593.446,103.636L593.432,103.66L593.408,103.699L592.922,103.962L592.814,103.996L592.706,104.041L592.602,104.095L592.537,104.136L592.403,104.236L592.289,104.344L592.097,104.563L592.035,104.648L591.945,104.793L591.881,104.934L591.853,105.014L591.847,105.024L591.838,105.04L591.828,105.057L591.822,105.067L591.82,105.071L591.741,105.292L591.664,105.676L591.63,105.888L591.623,106.048L591.627,106.127L591.638,106.224L591.682,106.419L591.707,106.482L591.777,106.759L591.738,107.551L591.564,108.148L591.337,108.928L591.121,109.671L591.006,109.945L590.898,110.202L590.783,110.477L590.65,110.795L590.491,111.18L590.416,111.281L590.293,111.447L590.117,111.682L590.027,111.804L589.924,111.942L589.884,112.032L589.639,112.312L589.251,112.604L588.896,112.87L588.576,113.112L588.52,113.191L588.471,113.275L588.429,113.362L588.381,113.493L588.299,113.815L588.285,113.9L588.275,113.987L588.27,114.099L588.27,114.12L588.271,114.149L588.271,114.175L588.272,114.198L588.397,114.729L588.417,114.765L588.427,114.785L588.441,114.811L588.452,114.833L588.517,114.931L588.652,115.092L588.684,115.124L588.722,115.161L588.776,115.205L588.825,115.246L588.717,115.419L588.495,115.776L588.237,116.191L588.051,116.489L587.783,116.919L587.526,117.333L587.393,117.546L587.281,117.725L587.251,117.773L587.217,117.828L587.19,117.871L587.167,117.908L587.136,117.957L587.083,118.043L587.04,118.112L586.943,118.268L586.849,118.418L586.764,118.556L586.655,118.73L586.403,119.39L586.161,120.025L585.91,120.682L585.667,121.319L585.481,121.809L585.291,122.305L585.129,122.73L584.988,123.099L584.819,123.776L584.647,124.459L584.651,124.924L584.654,125.244L584.66,125.986L585.071,126.739L585.417,127.373L585.539,127.596L585.702,127.895L585.906,128.269L586.101,128.627L586.551,129.135L586.929,129.562L587.223,129.894L587.604,130.324L587.934,130.697L588.293,131.102L588.569,131.414L588.826,131.703L589.29,131.867L589.7,132.011L590.443,132.274L591.191,132.538L591.579,132.675L592.148,132.876L592.555,132.913L593.252,132.978L593.915,133.039L594.398,133.083L594.882,133.144L595.348,133.203L595.816,132.744L596.157,132.412L596.474,132.102ZM800,0L800,12.246L800,78.668L800,145.789L800,215.835L800,261.497L800,300L800,338.503L800,384.165L800,454.211L800,600L800,600L200,600L200,600L200,454.211L200,384.165L200,338.503L200,300L200,261.497L200,215.835L200,145.789L200,78.668L200,12.246L200,0L200,0L800,0ZM562.41,166.635L562.411,166.637L562.415,166.644L562.417,166.651L562.418,166.656L562.421,166.66L562.426,166.663L562.429,166.663L562.435,166.658L562.438,166.656L562.442,166.656L562.449,166.66L562.452,166.662L562.454,166.661L562.456,166.66L562.456,166.659L562.456,166.657L562.458,166.653L562.461,166.649L562.465,166.644L562.468,166.64L562.471,166.636L562.475,166.634L562.478,166.632L562.48,166.63L562.481,166.627L562.485,166.624L562.489,166.623L562.493,166.62L562.495,166.62L562.497,166.62L562.499,166.619L562.5,166.619L562.507,166.618L562.509,166.619L562.512,166.619L562.514,166.618L562.516,166.615L562.518,166.613L562.52,166.612L562.522,166.612L562.523,166.611L562.523,166.61L562.524,166.609L562.525,166.609L562.525,166.608L562.525,166.608L562.525,166.607L562.526,166.606L562.528,166.604L562.529,166.604L562.53,166.603L562.53,166.601L562.531,166.6L562.533,166.6L562.535,166.601L562.537,166.598L562.539,166.597L562.54,166.596L562.54,166.595L562.539,166.596L562.538,166.595L562.54,166.593L562.541,166.593L562.541,166.594L562.542,166.595L562.543,166.596L562.543,166.595L562.546,166.594L562.544,166.593L562.545,166.592L562.546,166.593L562.546,166.592L562.548,166.591L562.549,166.592L562.55,166.592L562.551,166.591L562.551,166.592L562.552,166.591L562.553,166.59L562.555,166.591L562.556,166.591L562.554,166.59L562.555,166.589L562.556,166.588L562.558,166.588L562.561,166.589L562.561,166.59L562.562,166.592L562.563,166.591L562.563,166.591L562.563,166.592L562.563,166.593L562.564,166.593L562.564,166.594L562.566,166.593L562.567,166.595L562.568,166.594L562.567,166.593L562.568,166.593L562.569,166.593L562.569,166.595L562.569,166.596L562.569,166.597L562.571,166.597L562.572,166.597L562.573,166.596L562.574,166.595L562.575,166.596L562.576,166.596L562.577,166.595L562.576,166.595L562.576,166.593L562.575,166.593L562.576,166.592L562.578,166.593L562.578,166.595L562.579,166.595L562.58,166.596L562.581,166.596L562.581,166.595L562.581,166.595L562.581,166.594L562.581,166.592L562.583,166.591L562.584,166.591L562.585,166.592L562.585,166.593L562.586,166.593L562.587,166.591L562.588,166.591L562.59,166.591L562.591,166.593L562.591,166.595L562.59,166.596L562.59,166.596L562.591,166.597L562.591,166.598L562.59,166.598L562.59,166.598L562.59,166.598L562.59,166.597L562.589,166.597L562.587,166.598L562.587,166.598L562.587,166.599L562.589,166.601L562.647,166.578L562.728,166.614L562.788,166.612L562.836,166.604L562.866,166.653L562.86,166.685L562.931,166.744L562.895,166.769L562.955,166.87L562.956,166.888L562.936,166.903L562.925,166.934L562.929,166.937L562.932,166.941L562.931,166.945L562.932,166.946L562.934,166.947L562.936,166.946L562.941,166.942L562.947,166.936L562.95,166.936L562.953,166.938L562.954,166.939L562.974,167.03L562.961,167.073L562.997,167.154L562.987,167.176L563.004,167.233L563.04,167.228L563.025,167.283L563.035,167.305L563.02,167.335L563.061,167.424L563.095,167.43L563.148,167.425L563.202,167.445L563.24,167.459L563.236,167.497L563.242,167.502L563.244,167.51L563.225,167.525L563.226,167.541L563.227,167.552L563.218,167.575L563.207,167.625L563.225,167.683L563.203,167.748L563.214,167.766L563.189,167.812L563.187,167.859L563.178,167.864L563.168,167.887L563.172,167.899L563.159,167.926L563.172,167.955L563.169,167.96L563.168,168.016L563.159,168.054L563.131,168.083L563.124,168.125L563.115,168.134L563.128,168.17L563.119,168.178L563.099,168.226L563.1,168.244L563.12,168.262L563.128,168.262L563.139,168.308L563.14,168.321L563.141,168.343L563.131,168.352L563.133,168.374L563.116,168.41L563.095,168.416L563.076,168.442L563.071,168.462L563.068,168.474L563.046,168.488L563.011,168.479L563.001,168.487L562.968,168.564L562.976,168.576L562.959,168.619L562.974,168.663L562.933,168.718L562.958,168.863L562.939,168.898L562.96,168.934L562.953,168.954L562.977,168.992L563.028,169.018L563.034,169.037L563.061,169.117L563.012,169.29L563.083,169.358L563.055,169.449L563.04,169.469L563.072,169.556L563.135,169.589L563.134,169.647L563.122,169.852L563.255,169.933L563.253,169.975L563.256,170.063L563.364,170.079L563.347,170.367L563.435,170.37L563.539,170.302L563.629,170.402L563.665,170.478L563.628,170.514L563.686,170.635L563.783,170.621L563.794,170.654L563.786,170.655L563.779,170.671L563.749,170.68L563.677,170.724L563.647,170.766L563.649,170.841L563.701,170.886L563.695,170.938L563.636,170.906L563.697,171.092L563.755,171.148L563.847,171.143L563.876,171.182L563.945,171.15L563.946,171.195L563.954,171.197L563.954,171.203L563.972,171.207L563.987,171.222L563.983,171.228L563.98,171.238L563.979,171.243L563.98,171.251L563.988,171.262L563.995,171.27L564,171.269L564.002,171.272L564.01,171.273L564.013,171.277L564.016,171.277L564.016,171.287L564.011,171.288L564.011,171.29L564.014,171.293L564.013,171.296L564.012,171.297L564.014,171.31L564.018,171.312L564.016,171.316L564.015,171.316L564.015,171.321L564.013,171.321L564.011,171.325L564.009,171.327L564.01,171.332L564.008,171.335L564.008,171.34L564.012,171.349L564.012,171.358L564.011,171.361L564.013,171.363L564.01,171.364L564.013,171.368L564.007,171.377L564.003,171.376L564.001,171.38L564.002,171.382L564.001,171.385L564.001,171.392L564.003,171.397L564.006,171.414L564.008,171.417L564.007,171.419L564.005,171.422L564.005,171.429L564.004,171.435L564.006,171.446L564.012,171.451L564.018,171.465L564.02,171.468L564.018,171.478L564.017,171.482L564.018,171.484L564.019,171.486L564.019,171.489L564.019,171.491L564.02,171.494L564.019,171.496L564.018,171.5L564.016,171.501L564.014,171.503L564.014,171.505L564.011,171.507L564.009,171.508L564.008,171.512L564.008,171.515L564.009,171.516L564.008,171.517L564.311,171.548L564.307,171.554L564.309,171.559L564.309,171.565L564.31,171.569L564.307,171.571L564.304,171.578L564.301,171.58L564.304,171.584L564.307,171.585L564.31,171.588L564.305,171.592L564.303,171.591L564.301,171.592L564.302,171.593L564.3,171.596L564.3,171.598L564.301,171.598L564.301,171.601L564.299,171.604L564.298,171.606L564.298,171.608L564.297,171.609L564.297,171.61L564.3,171.612L564.301,171.613L564.305,171.614L564.307,171.616L564.309,171.615L564.31,171.619L564.312,171.617L564.315,171.62L564.316,171.618L564.318,171.619L564.319,171.622L564.32,171.622L564.321,171.62L564.323,171.623L564.324,171.621L564.326,171.622L564.328,171.625L564.331,171.629L564.331,171.633L564.332,171.635L564.332,171.637L564.329,171.64L564.325,171.646L564.321,171.646L564.319,171.651L564.315,171.655L564.316,171.66L564.318,171.665L564.316,171.668L564.315,171.668L564.315,171.671L564.317,171.674L564.318,171.674L564.318,171.677L564.321,171.681L564.326,171.683L564.334,171.684L564.334,171.691L564.337,171.69L564.339,171.692L564.337,171.693L564.339,171.695L564.338,171.697L564.338,171.698L564.341,171.7L564.342,171.704L564.345,171.706L564.345,171.708L564.344,171.71L564.346,171.713L564.348,171.713L564.349,171.715L564.348,171.717L564.35,171.719L564.352,171.718L564.351,171.72L564.348,171.722L564.348,171.724L564.352,171.724L564.355,171.726L564.358,171.725L564.36,171.726L564.358,171.733L564.358,171.736L564.357,171.738L564.353,171.735L564.351,171.736L564.352,171.739L564.354,171.741L564.354,171.744L564.36,171.747L564.36,171.751L564.358,171.753L564.361,171.755L564.365,171.758L564.366,171.761L564.365,171.765L564.364,171.768L564.361,171.771L564.362,171.775L564.362,171.785L564.363,171.79L564.365,171.793L564.365,171.796L564.362,171.796L564.364,171.809L564.368,171.817L564.367,171.826L564.492,171.836L564.679,171.852L564.68,171.849L564.68,171.846L564.68,171.845L564.681,171.844L564.682,171.843L564.68,171.841L564.681,171.84L564.681,171.829L564.68,171.828L564.681,171.826L564.68,171.823L564.681,171.822L564.681,171.818L564.681,171.817L564.682,171.817L564.683,171.817L564.681,171.817L564.68,171.816L564.681,171.815L564.683,171.813L564.684,171.811L564.685,171.808L564.688,171.805L564.689,171.801L564.69,171.8L564.69,171.801L564.69,171.8L564.691,171.8L564.692,171.8L564.692,171.799L564.692,171.797L564.693,171.794L564.692,171.789L564.692,171.788L564.691,171.785L564.692,171.783L564.692,171.782L564.693,171.78L564.693,171.777L564.692,171.776L564.692,171.774L564.689,171.773L564.689,171.772L564.689,171.768L564.687,171.768L564.688,171.767L564.689,171.765L564.689,171.763L564.692,171.76L564.694,171.756L564.694,171.755L564.695,171.756L564.695,171.754L564.695,171.754L564.701,171.752L564.703,171.749L564.706,171.747L564.707,171.746L564.705,171.744L564.706,171.742L564.709,171.741L564.709,171.742L564.71,171.742L564.71,171.74L564.712,171.737L564.713,171.737L564.715,171.738L564.716,171.737L564.716,171.735L564.717,171.73L564.72,171.726L564.726,171.726L564.73,171.721L564.739,171.719L564.74,171.717L564.742,171.716L564.744,171.714L564.747,171.713L564.747,171.713L564.747,171.711L564.748,171.71L564.75,171.709L564.75,171.709L564.751,171.707L564.752,171.706L564.753,171.705L564.754,171.705L564.754,171.703L564.755,171.702L564.756,171.702L564.756,171.7L564.757,171.697L564.757,171.699L564.76,171.695L564.761,171.694L564.762,171.693L564.76,171.691L564.759,171.69L564.76,171.688L564.761,171.688L564.762,171.688L564.762,171.686L564.762,171.685L564.764,171.683L564.765,171.684L564.767,171.682L564.768,171.682L564.77,171.68L564.771,171.68L564.772,171.678L564.777,171.676L564.779,171.67L564.782,171.666L564.785,171.662L564.788,171.661L564.789,171.659L564.79,171.654L564.793,171.652L564.796,171.651L564.797,171.651L564.8,171.65L564.802,171.651L564.802,171.65L564.804,171.65L564.805,171.649L564.806,171.649L564.808,171.648L564.809,171.648L564.81,171.647L564.812,171.647L564.813,171.646L564.814,171.646L564.815,171.645L564.817,171.645L564.817,171.644L564.819,171.643L564.819,171.642L564.822,171.641L564.825,171.64L564.827,171.638L564.826,171.635L564.825,171.635L564.814,171.637L564.812,171.637L564.809,171.639L564.807,171.639L564.813,171.634L564.816,171.635L564.823,171.632L564.826,171.632L564.831,171.635L564.831,171.64L564.832,171.641L564.83,171.641L564.827,171.641L564.827,171.643L564.829,171.642L564.831,171.642L564.834,171.643L564.835,171.642L564.84,171.643L564.843,171.647L564.845,171.649L564.847,171.652L564.848,171.653L564.849,171.657L564.848,171.659L564.848,171.661L564.847,171.661L564.846,171.663L564.847,171.665L564.846,171.666L564.846,171.667L564.846,171.67L564.845,171.67L564.844,171.673L564.844,171.674L564.844,171.677L564.845,171.677L564.845,171.678L564.846,171.679L564.848,171.679L564.848,171.679L564.849,171.678L564.851,171.677L564.85,171.676L564.851,171.675L564.851,171.675L564.852,171.676L564.853,171.676L564.854,171.675L564.855,171.675L564.855,171.673L564.855,171.671L564.855,171.671L564.855,171.669L564.854,171.669L564.854,171.668L564.855,171.667L564.86,171.664L564.867,171.661L564.869,171.658L564.871,171.657L564.873,171.655L564.874,171.656L564.878,171.652L564.888,171.653L564.89,171.653L564.903,171.654L564.905,171.655L564.91,171.655L564.916,171.656L564.917,171.656L564.92,171.659L564.924,171.66L564.925,171.66L564.927,171.662L564.927,171.663L564.93,171.662L564.932,171.664L564.933,171.664L564.935,171.666L564.935,171.667L564.937,171.666L564.938,171.666L564.939,171.667L564.941,171.668L564.942,171.67L564.942,171.674L564.942,171.676L564.943,171.676L564.946,171.677L564.948,171.681L564.95,171.681L564.952,171.679L564.952,171.682L564.959,171.688L564.963,171.693L564.963,171.697L564.963,171.698L564.968,171.702L564.97,171.706L564.973,171.714L564.974,171.716L564.975,171.716L564.975,171.719L564.978,171.722L564.978,171.722L564.98,171.723L564.984,171.731L564.984,171.733L564.987,171.734L564.987,171.735L564.987,171.736L564.986,171.735L564.985,171.734L564.984,171.734L564.985,171.735L564.986,171.735L564.987,171.736L564.989,171.738L564.995,171.747L564.996,171.747L565.001,171.755L565.003,171.759L565.002,171.76L565.004,171.769L565.006,171.773L565.009,171.773L565.012,171.78L565.012,171.783L565.015,171.788L565.015,171.79L565.017,171.792L565.017,171.795L565.017,171.796L565.017,171.797L565.017,171.798L565.018,171.799L565.014,171.805L565.013,171.807L565.013,171.811L565.012,171.812L565.013,171.813L565.011,171.815L565.01,171.816L565.01,171.816L565.012,171.816L565.014,171.814L565.017,171.814L565.017,171.812L565.018,171.811L565.02,171.811L565.02,171.812L565.022,171.812L565.025,171.812L565.027,171.813L565.026,171.814L565.029,171.815L565.033,171.818L565.036,171.819L565.039,171.818L565.039,171.816L565.041,171.815L565.041,171.817L565.042,171.817L565.043,171.816L565.044,171.816L565.045,171.819L565.044,171.821L565.045,171.825L565.048,171.826L565.049,171.828L565.054,171.83L565.055,171.829L565.054,171.828L565.054,171.828L565.056,171.828L565.056,171.829L565.056,171.829L565.056,171.83L565.057,171.831L565.059,171.83L565.058,171.829L565.059,171.829L565.061,171.83L565.061,171.831L565.06,171.831L565.06,171.832L565.062,171.832L565.063,171.833L565.064,171.833L565.063,171.832L565.064,171.831L565.065,171.832L565.065,171.834L565.067,171.834L565.066,171.833L565.066,171.833L565.067,171.833L565.068,171.833L565.068,171.835L565.069,171.836L565.071,171.836L565.072,171.837L565.071,171.838L565.074,171.842L565.075,171.841L565.075,171.842L565.079,171.843L565.08,171.843L565.082,171.844L565.082,171.844L565.083,171.846L565.082,171.846L565.085,171.848L565.084,171.846L565.085,171.846L565.087,171.847L565.089,171.849L565.092,171.855L565.093,171.856L565.093,171.862L565.092,171.862L565.092,171.867L565.091,171.868L565.091,171.869L565.092,171.87L565.092,171.871L565.094,171.874L565.095,171.876L565.095,171.877L565.095,171.878L565.095,171.878L565.095,171.879L565.097,171.879L565.099,171.878L565.103,171.88L565.105,171.88L565.109,171.882L565.111,171.883L565.115,171.882L565.117,171.883L565.119,171.883L565.119,171.882L565.122,171.883L565.132,171.883L565.131,171.882L565.132,171.881L565.133,171.88L565.14,171.88L565.141,171.882L565.142,171.882L565.144,171.881L565.15,171.884L565.151,171.887L565.149,171.888L565.148,171.888L565.149,171.89L565.15,171.89L565.152,171.889L565.152,171.889L565.153,171.888L565.155,171.888L565.159,171.89L565.161,171.889L565.163,171.89L565.166,171.893L565.167,171.894L565.167,171.896L565.168,171.898L565.179,171.903L565.183,171.908L565.182,171.909L565.189,171.912L565.189,171.912L565.191,171.912L565.192,171.913L565.193,171.914L565.195,171.915L565.196,171.917L565.196,171.919L565.198,171.92L565.201,171.924L565.202,171.925L565.203,171.925L565.204,171.926L565.205,171.926L565.207,171.928L565.208,171.93L565.209,171.93L565.212,171.933L565.213,171.933L565.215,171.934L565.216,171.936L565.217,171.934L565.22,171.934L565.224,171.936L565.226,171.939L565.229,171.943L565.232,171.944L565.236,171.948L565.239,171.95L565.24,171.954L565.241,171.955L565.241,171.956L565.241,171.958L565.243,171.959L565.246,171.962L565.246,171.963L565.246,171.965L565.247,171.966L565.248,171.968L565.248,171.97L565.248,171.972L565.249,171.974L565.252,171.982L565.257,171.989L565.259,171.993L565.26,171.997L565.264,172.006L565.267,172.02L565.267,172.027L565.269,172.031L565.269,172.033L565.269,172.035L565.274,172.036L565.275,172.035L565.276,172.036L565.277,172.037L565.278,172.04L565.28,172.043L565.281,172.044L565.281,172.045L565.282,172.046L565.284,172.048L565.286,172.051L565.289,172.053L565.291,172.054L565.292,172.055L565.294,172.057L565.295,172.059L565.296,172.061L565.296,172.063L565.297,172.065L565.297,172.068L565.298,172.069L565.299,172.072L565.3,172.074L565.302,172.08L565.304,172.082L565.305,172.083L565.306,172.085L565.306,172.087L565.308,172.087L565.308,172.086L565.31,172.083L565.31,172.082L565.31,172.082L565.31,172.081L565.309,172.079L565.309,172.077L565.309,172.076L565.309,172.075L565.309,172.074L565.31,172.073L565.311,172.073L565.311,172.072L565.312,172.072L565.314,172.071L565.315,172.071L565.316,172.071L565.318,172.071L565.319,172.07L565.32,172.068L565.321,172.065L565.323,172.063L565.326,172.059L565.328,172.058L565.331,172.059L565.332,172.058L565.333,172.057L565.334,172.055L565.333,172.053L565.331,172.051L565.328,172.047L565.326,172.044L565.324,172.041L565.324,172.039L565.325,172.037L565.328,172.035L565.329,172.033L565.329,172.031L565.329,172.03L565.327,172.028L565.325,172.028L565.324,172.028L565.322,172.029L565.319,172.031L565.316,172.031L565.313,172.031L565.311,172.03L565.31,172.028L565.309,172.026L565.308,172.023L565.308,172.015L565.307,172.012L565.306,172.009L565.304,172.007L565.303,172.004L565.303,172.001L565.304,171.998L565.304,171.993L565.305,171.987L565.304,171.983L565.303,171.981L565.301,171.979L565.3,171.976L565.299,171.969L565.297,171.963L565.297,171.961L565.298,171.96L565.3,171.958L565.301,171.955L565.3,171.951L565.298,171.948L565.297,171.947L565.296,171.946L565.293,171.944L565.289,171.942L565.285,171.939L565.284,171.938L565.283,171.935L565.283,171.932L565.285,171.929L565.285,171.925L565.284,171.921L565.281,171.919L565.276,171.918L565.275,171.917L565.274,171.915L565.273,171.901L565.272,171.899L565.271,171.899L565.27,171.898L565.268,171.899L565.266,171.898L565.265,171.897L565.265,171.895L565.266,171.893L565.275,171.887L565.277,171.885L565.278,171.883L565.279,171.88L565.284,171.878L565.288,171.873L565.291,171.87L565.295,171.866L565.296,171.861L565.298,171.858L565.299,171.855L565.303,171.851L565.305,171.847L565.309,171.844L565.313,171.843L565.315,171.843L565.316,171.84L565.316,171.837L565.317,171.834L565.317,171.831L565.314,171.829L565.314,171.827L565.314,171.825L565.315,171.824L565.317,171.823L565.318,171.822L565.318,171.821L565.316,171.818L565.317,171.815L565.318,171.814L565.32,171.814L565.322,171.815L565.323,171.815L565.325,171.814L565.325,171.812L565.323,171.811L565.321,171.809L565.321,171.806L565.321,171.805L565.323,171.804L565.324,171.804L565.325,171.805L565.328,171.806L565.33,171.805L565.331,171.802L565.332,171.801L565.333,171.801L565.333,171.802L565.332,171.803L565.332,171.805L565.333,171.806L565.339,171.808L565.341,171.807L565.343,171.805L565.345,171.804L565.348,171.803L565.349,171.804L565.35,171.806L565.349,171.807L565.349,171.809L565.349,171.812L565.351,171.815L565.352,171.816L565.355,171.815L565.355,171.814L565.355,171.813L565.354,171.811L565.354,171.809L565.355,171.806L565.356,171.805L565.358,171.805L565.361,171.808L565.362,171.811L565.365,171.813L565.366,171.813L565.369,171.813L565.37,171.814L565.37,171.816L565.37,171.818L565.377,171.822L565.379,171.822L565.388,171.817L565.39,171.817L565.391,171.817L565.402,171.822L565.405,171.824L565.406,171.825L565.407,171.833L565.409,171.834L565.416,171.835L565.418,171.835L565.42,171.84L565.423,171.84L565.425,171.839L565.426,171.841L565.428,171.841L565.429,171.84L565.431,171.84L565.431,171.845L565.431,171.846L565.436,171.847L565.437,171.845L565.435,171.843L565.442,171.836L565.442,171.833L565.443,171.832L565.445,171.832L565.446,171.833L565.447,171.833L565.447,171.832L565.447,171.825L565.448,171.825L565.449,171.827L565.455,171.821L565.454,171.819L565.458,171.816L565.458,171.813L565.46,171.811L565.461,171.811L565.461,171.815L565.462,171.813L565.464,171.817L565.465,171.816L565.467,171.813L565.468,171.813L565.469,171.817L565.472,171.817L565.474,171.816L565.475,171.813L565.476,171.81L565.477,171.81L565.48,171.81L565.48,171.814L565.488,171.817L565.491,171.831L565.493,171.832L565.499,171.835L565.502,171.842L565.508,171.847L565.514,171.848L565.518,171.846L565.521,171.848L565.525,171.846L565.536,171.848L565.538,171.852L565.542,171.854L565.539,171.856L565.543,171.86L565.543,171.866L565.548,171.867L565.553,171.875L565.553,171.877L565.551,171.877L565.55,171.877L565.549,171.879L565.55,171.879L565.548,171.883L565.55,171.887L565.551,171.885L565.552,171.886L565.552,171.891L565.555,171.89L565.554,171.891L565.553,171.893L565.554,171.895L565.556,171.895L565.557,171.898L565.555,171.902L565.557,171.902L565.559,171.906L565.557,171.908L565.558,171.91L565.56,171.91L565.56,171.912L565.561,171.913L565.563,171.911L565.564,171.913L565.566,171.912L565.567,171.913L565.567,171.916L565.569,171.917L565.57,171.918L565.572,171.918L565.576,171.917L565.576,171.918L565.575,171.919L565.576,171.92L565.578,171.92L565.578,171.921L565.578,171.922L565.579,171.922L565.581,171.921L565.589,171.916L565.592,171.915L565.596,171.917L565.596,171.918L565.595,171.919L565.592,171.919L565.591,171.919L565.592,171.921L565.594,171.922L565.595,171.921L565.598,171.919L565.599,171.919L565.6,171.921L565.599,171.922L565.6,171.923L565.604,171.926L565.607,171.927L565.61,171.928L565.613,171.926L565.616,171.929L565.619,171.929L565.622,171.927L565.623,171.927L565.625,171.929L565.626,171.928L565.628,171.926L565.628,171.925L565.625,171.926L565.623,171.924L565.622,171.922L565.622,171.917L565.618,171.911L565.619,171.91L565.621,171.909L565.622,171.908L565.622,171.904L565.624,171.903L565.625,171.9L565.624,171.898L565.624,171.896L565.625,171.896L565.628,171.896L565.631,171.898L565.632,171.895L565.636,171.892L565.641,171.89L565.643,171.892L565.641,171.894L565.641,171.896L565.643,171.897L565.644,171.899L565.647,171.898L565.648,171.901L565.654,171.901L565.658,171.907L565.657,171.907L565.658,171.909L565.658,171.911L565.66,171.91L565.662,171.911L565.668,171.909L565.67,171.91L565.671,171.909L565.676,171.908L565.677,171.904L565.678,171.904L565.68,171.905L565.682,171.905L565.682,171.907L565.684,171.908L565.688,171.907L565.689,171.906L565.69,171.904L565.691,171.907L565.698,171.91L565.698,171.909L565.698,171.908L565.699,171.907L565.702,171.908L565.703,171.906L565.704,171.904L565.706,171.904L565.714,171.901L565.714,171.899L565.714,171.898L565.716,171.899L565.722,171.895L565.723,171.895L565.725,171.894L565.724,171.893L565.726,171.892L565.726,171.889L565.729,171.887L565.73,171.888L565.732,171.887L565.733,171.885L565.735,171.884L565.737,171.885L565.739,171.884L565.742,171.884L565.744,171.883L565.745,171.884L565.746,171.886L565.748,171.886L565.749,171.885L565.752,171.887L565.755,171.886L565.757,171.888L565.761,171.89L565.763,171.89L565.767,171.886L565.771,171.885L565.772,171.89L565.775,171.889L565.778,171.888L565.78,171.885L565.791,171.885L565.795,171.884L565.802,171.884L565.802,171.882L565.808,171.884L565.815,171.882L565.816,171.878L565.819,171.878L565.82,171.876L565.818,171.874L565.819,171.873L565.823,171.875L565.825,171.875L565.825,171.873L565.823,171.868L565.824,171.865L565.831,171.86L565.836,171.857L565.831,171.85L565.835,171.848L565.84,171.846L565.845,171.842L565.851,171.839L565.851,171.84L565.852,171.84L565.854,171.835L565.86,171.834L565.87,171.828L565.878,171.83L565.881,171.827L565.884,171.828L565.887,171.822L565.895,171.823L565.9,171.818L565.911,171.818L565.917,171.813L565.933,171.811L565.94,171.806L565.953,171.806L565.955,171.801L565.956,171.8L565.957,171.8L565.959,171.803L565.961,171.802L565.963,171.804L565.967,171.805L565.968,171.806L565.975,171.809L565.982,171.808L565.985,171.803L565.99,171.798L566.075,171.71L566.08,171.712L566.08,171.715L566.078,171.717L566.076,171.722L566.078,171.725L566.076,171.731L566.076,171.733L566.079,171.735L566.078,171.739L566.081,171.743L566.084,171.744L566.084,171.748L566.086,171.751L566.089,171.752L566.089,171.755L566.092,171.76L566.09,171.762L566.09,171.764L566.092,171.766L566.09,171.769L566.091,171.771L566.092,171.772L566.088,171.778L566.087,171.781L566.088,171.784L566.089,171.786L566.089,171.788L566.088,171.789L566.089,171.793L566.094,171.798L566.095,171.8L566.096,171.802L566.1,171.802L566.101,171.799L566.104,171.799L566.105,171.8L566.11,171.8L566.112,171.799L566.114,171.8L566.117,171.805L566.119,171.807L566.122,171.807L566.123,171.81L566.126,171.814L566.129,171.815L566.133,171.814L566.134,171.814L566.134,171.818L566.136,171.819L566.147,171.818L566.15,171.814L566.156,171.813L566.16,171.809L566.163,171.809L566.168,171.804L566.172,171.803L566.173,171.8L566.177,171.799L566.178,171.794L566.18,171.792L566.186,171.792L566.187,171.791L566.185,171.789L566.186,171.788L566.199,171.787L566.2,171.784L566.201,171.784L566.207,171.784L566.208,171.786L566.21,171.786L566.212,171.783L566.214,171.783L566.22,171.786L566.221,171.783L566.223,171.781L566.223,171.781L566.226,171.781L566.226,171.78L566.225,171.777L566.226,171.776L566.229,171.774L566.232,171.773L566.234,171.77L566.236,171.77L566.237,171.769L566.235,171.765L566.236,171.765L566.239,171.764L566.242,171.758L566.244,171.75L566.248,171.751L566.253,171.751L566.254,171.749L566.257,171.748L566.26,171.747L566.261,171.744L566.263,171.744L566.265,171.741L566.268,171.741L566.269,171.743L566.273,171.743L566.273,171.745L566.273,171.75L566.275,171.754L566.276,171.755L566.277,171.753L566.278,171.754L566.279,171.755L566.282,171.758L566.284,171.765L566.288,171.769L566.292,171.77L566.294,171.769L566.296,171.769L566.297,171.773L566.298,171.774L566.3,171.775L566.302,171.774L566.303,171.771L566.301,171.769L566.301,171.768L566.303,171.768L566.309,171.769L566.311,171.775L566.314,171.775L566.313,171.777L566.31,171.778L566.311,171.78L566.313,171.779L566.314,171.781L566.313,171.783L566.309,171.784L566.31,171.785L566.313,171.786L566.313,171.787L566.309,171.788L566.31,171.789L566.316,171.793L566.313,171.796L566.314,171.798L566.319,171.796L566.321,171.795L566.325,171.799L566.331,171.8L566.332,171.802L566.331,171.803L566.329,171.804L566.329,171.805L566.333,171.805L566.332,171.807L566.331,171.808L566.33,171.808L566.331,171.809L566.333,171.809L566.334,171.808L566.336,171.809L566.337,171.813L566.341,171.814L566.341,171.815L566.339,171.817L566.337,171.818L566.336,171.819L566.337,171.821L566.338,171.82L566.34,171.819L566.341,171.82L566.341,171.822L566.338,171.823L566.336,171.824L566.337,171.826L566.34,171.826L566.342,171.824L566.344,171.826L566.346,171.826L566.345,171.821L566.345,171.819L566.347,171.819L566.35,171.823L566.349,171.825L566.348,171.827L566.35,171.83L566.351,171.83L566.353,171.828L566.354,171.829L566.355,171.83L566.355,171.833L566.352,171.834L566.351,171.836L566.352,171.839L566.355,171.839L566.356,171.845L566.357,171.849L566.356,171.851L566.356,171.852L566.357,171.854L566.357,171.855L566.354,171.858L566.354,171.86L566.355,171.862L566.363,171.869L566.36,171.872L566.36,171.873L566.36,171.874L566.362,171.876L566.363,171.877L566.361,171.878L566.359,171.878L566.358,171.876L566.357,171.876L566.358,171.88L566.361,171.887L566.361,171.893L566.363,171.893L566.364,171.89L566.365,171.89L566.366,171.893L566.365,171.894L566.366,171.896L566.367,171.895L566.368,171.891L566.369,171.891L566.371,171.893L566.373,171.892L566.374,171.893L566.374,171.896L566.372,171.896L566.371,171.898L566.373,171.9L566.376,171.9L566.384,171.904L566.388,171.904L566.39,171.902L566.391,171.903L566.391,171.906L566.392,171.909L566.394,171.908L566.395,171.908L566.395,171.904L566.393,171.902L566.396,171.902L566.4,171.906L566.4,171.909L566.399,171.91L566.397,171.91L566.396,171.911L566.396,171.911L566.397,171.914L566.399,171.914L566.402,171.914L566.404,171.912L566.406,171.913L566.407,171.916L566.406,171.918L566.407,171.92L566.408,171.923L566.408,171.926L566.409,171.928L566.413,171.928L566.414,171.93L566.414,171.933L566.418,171.932L566.427,171.941L566.43,171.943L566.43,171.945L566.429,171.945L566.425,171.945L566.424,171.946L566.428,171.951L566.432,171.951L566.435,171.95L566.436,171.951L566.438,171.959L566.439,171.96L566.443,171.96L566.439,171.976L566.466,171.992L566.465,172.006L566.476,172.016L566.473,172.035L566.476,172.038L566.494,172.036L566.497,172.041L566.609,172.055L566.621,172.046L566.631,172.056L566.684,172.063L566.684,172.044L566.692,172.026L566.691,172.023L566.693,172.019L566.699,172.004L566.7,171.992L566.706,171.983L566.748,171.969L566.902,171.976L566.977,171.979L566.981,171.959L566.989,171.9L567.024,171.924L567.058,171.942L567.086,171.952L567.095,171.942L567.137,171.951L567.142,171.941L567.154,171.927L567.167,171.921L567.169,171.911L567.185,171.899L567.205,171.893L567.223,171.884L567.223,171.863L567.227,171.851L567.23,171.812L567.256,171.793L567.258,171.775L567.273,171.762L567.278,171.742L567.288,171.712L567.346,171.678L567.336,171.66L567.35,171.639L567.345,171.618L567.382,171.597L567.423,171.618L567.464,171.677L567.484,171.687L567.49,171.705L567.505,171.717L567.508,171.72L567.523,171.718L567.543,171.733L567.555,171.76L567.578,171.778L567.591,171.786L567.604,171.792L567.625,171.814L567.651,171.817L567.693,171.802L567.76,171.783L567.76,171.758L567.75,171.747L567.783,171.733L567.778,171.719L567.823,171.662L567.857,171.644L567.868,171.606L567.915,171.616L567.952,171.624L567.924,171.751L567.966,171.759L567.966,171.77L567.989,171.764L567.975,171.829L568.003,171.834L567.991,171.844L567.997,171.851L568.006,171.841L568.037,171.857L568.044,171.876L568.054,171.871L568.066,171.87L568.072,171.86L568.075,171.851L568.173,171.868L568.159,171.935L568.293,171.961L568.306,171.964L568.41,171.983L568.475,171.997L568.46,172.061L568.468,172.064L568.489,172.084L568.546,172.083L568.568,172.1L568.599,172.091L568.662,172.072L568.665,172.04L568.694,172.035L568.769,172.034L568.784,171.998L568.85,171.989L568.858,172.001L568.878,172.042L568.916,172.083L568.936,172.08L568.95,172.08L568.933,171.97L568.904,171.924L568.908,171.896L568.911,171.853L568.935,171.77L568.987,171.628L569.041,171.479L568.972,171.407L568.963,171.368L568.973,171.356L568.999,171.35L569.024,171.33L569.026,171.329L569.043,171.3L569.143,171.238L569.17,171.221L569.182,171.214L569.279,171.202L569.288,171.216L569.284,171.221L569.3,171.232L569.324,171.217L569.35,171.236L569.377,171.244L569.399,171.235L569.419,171.251L569.421,171.264L569.419,171.314L569.495,171.343L569.548,171.341L569.552,171.326L569.554,171.314L569.551,171.307L569.546,171.303L569.542,171.3L569.614,171.289L569.607,171.281L569.606,171.269L569.631,171.259L569.641,171.265L569.65,171.28L569.655,171.278L569.643,171.256L569.648,171.256L569.647,171.252L569.65,171.248L569.646,171.239L569.658,171.228L569.659,171.223L569.66,171.222L569.671,171.231L569.67,171.236L569.676,171.234L569.683,171.234L569.688,171.24L569.689,171.244L569.688,171.248L569.698,171.241L569.691,171.239L569.688,171.232L569.691,171.224L569.691,171.22L569.687,171.216L569.672,171.224L569.669,171.219L569.666,171.218L569.663,171.22L569.66,171.217L569.661,171.211L569.664,171.205L569.669,171.204L569.681,171.206L569.692,171.199L569.695,171.2L569.702,171.208L569.706,171.204L569.699,171.198L569.702,171.193L569.701,171.189L569.697,171.186L569.656,171.197L569.656,171.19L569.708,171.142L569.811,171.162L569.821,171.178L569.828,171.194L569.844,171.207L569.853,171.203L569.846,171.197L569.855,171.187L569.853,171.172L569.859,171.164L569.872,171.165L569.882,171.143L569.916,171.147L569.921,171.147L569.906,171.18L569.922,171.236L569.928,171.252L569.928,171.301L569.886,171.307L569.878,171.391L569.891,171.392L569.891,171.397L569.897,171.399L569.898,171.394L569.912,171.396L569.914,171.384L569.924,171.38L569.927,171.38L569.935,171.386L569.935,171.395L569.939,171.399L569.944,171.395L569.941,171.389L569.958,171.383L569.973,171.397L569.973,171.403L569.987,171.405L569.989,171.4L570.006,171.404L570.008,171.401L570.03,171.408L570.071,171.405L570.081,171.411L570.106,171.407L570.107,171.411L570.116,171.41L570.123,171.422L570.134,171.415L570.149,171.417L570.159,171.422L570.171,171.414L570.182,171.417L570.186,171.418L570.19,171.399L570.198,171.396L570.211,171.389L570.222,171.394L570.225,171.4L570.219,171.404L570.217,171.402L570.211,171.407L570.214,171.416L570.21,171.425L570.21,171.43L570.215,171.437L570.215,171.447L570.215,171.465L570.215,171.497L570.223,171.501L570.243,171.495L570.248,171.501L570.26,171.503L570.269,171.496L570.277,171.502L570.274,171.52L570.264,171.525L570.255,171.537L570.277,171.579L570.283,171.581L570.289,171.587L570.347,171.593L570.375,171.573L570.407,171.58L570.415,171.581L570.514,171.612L570.538,171.619L570.545,171.625L570.545,171.625L570.577,171.627L570.583,171.627L570.593,171.628L570.594,171.628L570.627,171.648L570.715,171.648L570.721,171.642L570.724,171.641L570.725,171.636L570.729,171.63L570.735,171.622L570.736,171.617L570.74,171.609L570.746,171.603L570.747,171.599L570.751,171.599L570.758,171.594L570.759,171.59L570.762,171.589L570.768,171.585L570.779,171.586L570.792,171.591L570.806,171.594L570.829,171.594L570.83,171.569L570.848,171.55L570.871,171.55L570.89,171.545L570.895,171.553L570.886,171.557L570.889,171.568L570.87,171.576L570.866,171.586L570.874,171.605L570.875,171.617L570.871,171.625L570.87,171.638L570.872,171.653L570.951,171.632L570.95,171.618L570.944,171.614L570.946,171.6L570.937,171.591L570.94,171.542L570.909,171.542L570.914,171.576L570.912,171.578L570.918,171.587L570.914,171.591L570.915,171.598L570.923,171.594L570.928,171.604L570.916,171.611L570.912,171.608L570.907,171.611L570.9,171.599L570.896,171.589L570.894,171.583L570.896,171.571L570.904,171.564L570.904,171.555L570.901,171.55L570.9,171.54L570.932,171.501L570.931,171.495L570.944,171.474L570.95,171.41L570.975,171.412L570.984,171.382L570.99,171.375L570.995,171.377L571.022,171.392L571.028,171.394L571.032,171.391L571.034,171.386L571.021,171.371L571.014,171.37L571.008,171.36L571.01,171.355L571.009,171.349L571.024,171.333L571.028,171.301L571.044,171.3L571.052,171.279L571.065,171.274L571.078,171.266L571.101,171.236L571.19,171.296L571.198,171.301L571.306,171.365L571.335,171.382L571.338,171.345L571.375,171.359L571.382,171.352L571.479,171.43L571.484,171.432L571.48,171.46L571.512,171.472L571.514,171.494L571.533,171.49L571.52,171.601L571.555,171.593L571.583,171.595L571.58,171.629L571.613,171.633L571.611,171.672L571.64,171.674L571.658,171.78L571.796,171.73L571.818,171.628L571.832,171.62L571.829,171.609L571.828,171.602L571.832,171.593L571.835,171.587L571.865,171.577L571.872,171.557L571.884,171.542L571.892,171.509L571.898,171.507L571.922,171.499L571.936,171.542L571.928,171.551L571.964,171.555L571.996,171.528L571.995,171.517L572.008,171.512L572.008,171.519L572.024,171.537L572.078,171.551L572.084,171.566L572.202,171.588L572.214,171.587L572.284,171.606L572.483,171.644L572.54,171.655L572.574,171.342L572.632,171.335L572.663,171.314L572.763,171.298L572.803,171.215L572.843,171.222L572.854,171.252L572.888,171.26L572.939,171.207L572.889,171.166L572.885,171.151L572.901,171.1L572.914,171.106L572.945,171.077L572.922,171.06L572.951,170.872L572.973,170.721L573.032,170.701L573.063,170.695L573.12,170.696L573.119,170.703L573.11,170.713L573.118,170.72L573.164,170.731L573.17,170.699L573.231,170.703L573.238,170.663L573.256,170.656L573.313,170.654L573.403,170.669L573.485,170.663L573.504,170.663L573.556,170.655L573.635,170.643L573.601,170.982L573.759,171.005L573.926,171.029L574.072,171.049L574.109,171.055L574.201,171.068L574.334,171.086L574.44,171.101L574.485,171.108L574.505,171.11L574.52,171.112L574.549,171.116L574.602,171.124L574.664,171.132L574.722,171.14L574.775,171.147L574.833,171.155L574.875,171.161L574.889,171.163L574.961,171.171L575.018,171.178L575.092,171.187L575.165,171.196L575.235,171.204L575.323,171.215L575.411,171.225L575.42,171.166L575.438,171.039L575.506,170.573L575.522,170.468L575.525,170.443L575.585,170.45L575.603,170.333L575.602,170.321L575.544,170.313L575.544,170.312L575.564,170.182L575.63,170.192L575.889,170.233L576.037,170.254L576.119,170.266L576.218,170.28L576.209,170.346L576.275,170.355L576.284,170.289L576.348,170.298L576.313,170.493L576.268,170.816L576.59,170.861L577.048,170.926L577.147,170.939L577.179,170.943L577.19,170.874L577.194,170.848L577.252,170.865L577.361,170.785L577.362,170.786L577.36,170.79L577.362,170.793L577.364,170.788L577.371,170.801L577.393,170.792L577.393,170.799L577.399,170.796L577.402,170.802L577.424,170.796L577.427,170.811L577.431,170.813L577.439,170.813L577.434,170.823L577.441,170.841L577.468,170.807L577.472,170.758L577.472,170.752L577.47,170.744L577.47,170.728L577.474,170.716L577.489,170.713L577.486,170.706L577.492,170.702L577.507,170.713L577.51,170.707L577.516,170.708L577.515,170.699L577.523,170.699L577.525,170.71L577.532,170.71L577.533,170.703L577.541,170.704L577.552,170.72L577.574,170.754L577.587,170.776L577.585,170.789L577.58,170.824L577.576,170.858L577.573,170.895L577.57,170.926L577.576,170.925L577.593,170.923L577.606,170.928L577.607,170.928L577.639,170.913L577.638,170.932L577.685,170.936L577.791,170.951L578.01,170.974L577.981,171.024L577.982,171.034L577.982,171.035L577.979,171.112L578.027,171.248L578.166,171.26L578.207,171.293L578.198,171.335L578.456,171.368L578.461,171.348L578.466,171.323L578.468,171.31L578.476,171.269L578.477,171.265L578.478,171.258L578.479,171.255L578.49,171.194L578.498,171.152L578.502,171.13L578.503,171.128L578.515,171.064L578.519,171.065L578.524,171.066L578.528,171.066L578.516,171.049L578.511,171.048L578.509,171.048L578.507,171.048L578.499,171.046L578.506,171.005L578.504,170.986L578.519,170.988L578.523,170.989L578.538,170.991L578.578,170.916L578.62,170.898L578.624,170.894L578.657,170.865L578.657,170.857L578.657,170.855L578.656,170.83L578.656,170.778L578.637,170.757L578.655,170.623L578.711,170.635L578.783,170.647L578.812,170.654L578.849,170.661L578.965,170.681L579.041,170.695L579.106,170.708L579.138,170.733L579.143,170.694L579.18,170.685L579.213,170.675L579.248,170.663L579.321,170.65L579.338,170.646L579.357,170.661L579.375,170.674L579.4,170.68L579.409,170.68L579.425,170.739L579.438,170.748L579.464,170.73L579.499,170.735L579.538,170.751L579.553,170.763L579.571,170.767L579.603,170.76L579.623,170.758L579.648,170.764L579.657,170.768L579.727,170.827L579.734,170.827L579.759,170.814L579.794,170.805L579.829,170.797L579.835,170.818L579.839,170.821L579.848,170.839L579.856,170.854L579.874,170.848L579.902,170.848L579.927,170.894L579.931,171.001L579.932,171.046L579.942,171.087L579.937,171.156L579.936,171.213L579.944,171.239L579.944,171.269L579.995,171.276L580.034,171.282L580.13,171.303L580.242,171.325L580.283,171.333L580.393,171.355L580.526,171.382L580.647,171.407L580.699,171.413L580.707,171.307L580.711,171.264L580.734,171.115L580.735,171.109L580.748,171L580.778,170.849L580.78,170.839L580.783,170.822L580.792,170.779L580.794,170.777L580.934,170.704L581.142,170.589L581.178,170.57L581.377,170.466L581.384,170.462L581.396,170.462L581.4,170.458L581.402,170.456L581.405,170.456L581.412,170.459L581.421,170.459L581.426,170.458L581.433,170.454L581.441,170.447L581.443,170.436L581.551,170.377L581.599,170.491L581.701,170.406L581.764,170.35L581.818,170.302L581.831,170.298L581.848,170.284L581.878,170.261L582.009,170.291L582.061,170.304L582.135,170.317L582.201,170.328L582.243,170.08L582.261,169.998L582.296,169.797L582.32,169.671L582.345,169.552L582.365,169.459L582.368,169.444L582.376,169.405L582.376,169.405L582.398,169.3L582.402,169.277L582.466,168.949L582.492,168.82L582.504,168.755L582.269,168.708L582.025,168.66L581.734,168.602L581.754,168.494L581.839,168.062L581.844,168.035L581.848,168.015L581.851,167.998L581.852,167.994L581.905,167.737L581.919,167.671L581.922,167.651L581.927,167.626L581.943,167.545L581.946,167.535L581.954,167.493L581.961,167.455L581.964,167.439L581.965,167.434L582.005,167.218L582.013,167.179L582.031,167.088L582.041,167.035L582.044,167.014L582.047,166.999L582.076,166.991L582.08,166.99L582.08,166.99L582.085,166.99L582.122,166.996L582.145,167.008L582.15,166.995L582.175,166.977L582.162,166.953L582.159,166.947L582.154,166.944L582.133,166.942L582.137,166.919L582.138,166.918L582.147,166.862L582.291,166.885L582.293,166.872L582.315,166.754L582.331,166.666L582.372,166.465L582.382,166.399L582.419,166.218L582.422,166.207L582.449,166.057L582.496,165.783L582.519,165.659L582.562,165.427L582.577,165.331L582.611,165.13L582.626,165.133L582.679,164.869L582.734,164.589L582.208,164.483L581.929,164.431L581.727,164.391L581.455,164.338L581.236,164.295L581.185,164.572L581.136,164.84L580.848,164.781L580.691,164.746L580.587,164.725L580.556,164.872L580.528,165.02L580.479,165.269L580.481,165.281L580.444,165.451L580.423,165.545L580.454,165.585L580.497,165.655L580.519,165.955L580.532,166.122L580.534,166.157L580.536,166.225L580.538,166.266L580.467,166.252L580.329,166.243L580.253,166.237L580.076,166.228L579.806,166.214L579.539,166.196L579.432,166.189L579.418,166.453L579.404,166.736L579.179,166.723L578.982,166.716L579.005,166.168L578.735,166.158L578.72,166.158L578.727,165.893L578.735,165.615L578.74,165.223L578.742,165.07L578.736,165.06L578.718,165.029L578.475,164.451L578.435,164.388L578.814,164.076L579.038,163.916L579.071,163.88L579.015,163.881L579.117,163.714L579.218,163.568L579.237,163.329L579.266,163.335L579.279,163.219L579.065,163.191L578.983,163.176L578.717,162.933L578.6,162.847L578.507,162.837L578.418,162.816L578.387,162.673L578.255,162.493L578.238,162.461L578.238,162.415L578.239,162.362L578.241,162.338L578.242,162.328L578.243,162.259L578.235,162.128L578.232,162.074L578.292,161.954L578.312,161.909L578.353,161.833L578.362,161.61L578.326,161.571L578.319,161.569L578.333,161.527L578.297,161.463L578.281,161.43L578.271,161.407L578.247,161.36L578.136,161.138L578.076,161.031L578.016,160.937L577.837,160.791L577.749,160.727L577.499,160.53L577.402,160.471L577.347,160.437L577.292,160.41L577.224,160.379L577.032,160.314L576.999,160.301L576.919,160.229L576.7,160.2L576.572,160.181L576.388,160.052L576.341,160.019L576.15,159.899L575.991,159.799L575.921,159.709L575.885,159.659L575.768,159.495L575.666,159.349L575.776,159.278L575.872,159.219L576.031,159.126L576.062,159.109L576.071,159.103L576.19,159.033L576.42,158.954L576.573,158.978L576.727,158.992L576.944,159.025L577.105,159.051L577.102,159.062L577.202,159.069L577.25,159.009L577.281,158.995L577.285,158.993L577.322,158.997L577.332,159.021L577.549,158.901L577.717,158.804L577.923,158.777L577.992,158.768L578.271,158.724L578.519,158.701L578.661,158.689L578.724,158.684L578.908,158.66L579.071,158.666L579.144,158.669L579.26,158.671L579.406,158.679L579.674,158.693L579.815,158.697L579.933,158.7L580.194,158.694L580.269,158.695L580.261,158.748L580.276,158.961L580.315,159.136L580.618,159.205L580.775,159.236L580.847,158.819L580.874,158.655L581.165,158.71L581.357,158.745L581.367,158.749L581.394,158.749L581.473,158.767L581.484,158.757L581.489,158.757L581.497,158.749L581.498,158.741L581.494,158.727L581.486,158.715L581.476,158.705L581.5,158.61L581.535,158.464L581.602,158.185L581.734,158.215L581.964,158.27L582.1,158.299L582.322,158.354L582.472,158.388L582.501,158.236L582.555,157.972L582.561,157.946L582.587,157.804L582.824,157.849L583.176,157.914L583.188,157.874L583.432,157.932L583.717,158.001L583.934,158.058L583.99,157.79L583.993,157.772L584.018,157.636L584.072,157.357L584.137,157.088L584.157,156.99L584.157,156.99L584.165,156.959L584.145,156.95L584.132,156.945L584.103,156.934L584.027,156.899L583.947,156.863L583.905,156.852L583.877,156.846L583.722,156.809L583.702,156.772L583.697,156.762L583.691,156.751L583.634,156.646L583.548,156.489L583.488,156.379L583.466,156.339L583.455,156.316L583.433,156.276L583.415,156.245L583.345,156.125L583.288,156.011L583.274,155.984L583.206,155.86L583.146,155.754L583.103,155.685L583.073,155.634L583.038,155.574L583.005,155.509L582.961,155.433L582.814,155.162L582.736,155.019L582.726,155.002L582.664,155.018L582.621,155.028L582.534,155.039L582.448,155.069L582.118,155.158L581.754,155.251L581.744,154.88L581.733,154.413L581.733,154.373L581.729,154.079L581.71,153.355L581.693,152.711L581.668,152.135L581.668,151.822L581.667,151.658L581.203,151.638L580.69,151.622L580.676,151.622L580.503,151.602L580.397,151.597L580.141,151.594L580.121,151.66L580.106,151.846L580.092,151.902L580.091,151.907L580.093,151.911L580.093,151.917L580.092,151.92L580.084,151.937L580.049,152.07L579.852,151.992L579.749,152.194L579.708,152.2L579.582,152.507L579.739,152.716L579.662,152.787L579.564,152.856L579.496,152.841L579.421,152.826L579.119,152.762L578.783,152.815L578.575,152.854L578.466,152.773L577.951,152.389L577.811,152.315L577.597,152.215L577.465,152.121L577.378,152.052L577.245,151.968L577.179,151.969L576.899,151.911L576.891,151.883L576.621,151.821L576.414,151.774L576.21,151.841L576.163,151.813L576.172,151.783L575.859,151.651L575.446,151.392L575.307,151.336L575.3,151.325L575.168,151.273L574.982,151.198L574.858,151.189L574.758,151.176L574.316,150.898L574.201,150.632L573.75,150.323L573.749,150.322L573.349,149.872L573.029,149.513L572.735,149.183L572.42,148.854L572.044,148.461L571.851,148.26L571.591,147.988L571.351,147.367L571.164,146.882L570.958,146.347L570.761,145.838L570.575,145.354L570.355,144.785L570.101,144.126L569.842,143.453L569.633,142.913L569.46,142.464L569.275,141.985L569.093,141.513L568.854,140.894L568.975,141.321L569.087,141.719L569.18,142.051L569.273,142.382L569.356,142.676L569.448,143.001L569.525,143.277L569.616,143.599L569.722,143.98L569.853,144.448L569.97,144.865L570.091,145.299L570.185,145.634L570.3,146.046L570.397,146.393L570.524,146.844L570.674,147.383L570.746,147.639L570.843,147.986L570.526,148.532L570.158,148.842L569.969,148.993L569.621,149.295L569.273,149.599L568.883,149.965L568.603,150.217L568.295,150.513L567.884,150.9L567.607,151.157L567.448,151.304L567.325,151.415L566.933,151.788L566.579,152.122L566.216,152.473L566.176,152.499L566.15,152.521L565.74,152.666L565.25,152.845L564.851,152.992L564.406,153.154L563.965,153.316L563.818,153.38L563.739,153.362L563.19,153.3L562.768,153.25L562.216,153.187L561.743,153.136L561.282,153.083L560.902,153.046L560.484,152.998L560.146,152.958L560.032,152.982L559.448,152.584L558.881,152.197L558.866,152.596L558.849,153.046L558.833,153.461L558.815,153.939L558.795,154.486L558.783,154.811L558.906,155.19L559.012,155.518L559.028,155.617L559.112,156.144L559.268,156.315L559.324,156.492L559.465,156.872L559.607,157.253L559.65,157.292L559.986,157.599L560.234,157.866L560.48,158.13L560.937,158.621L561.09,158.785L561.413,159.131L561.204,159.582L560.993,160.038L560.921,160.193L560.922,160.201L560.923,160.204L560.922,160.274L560.914,160.284L560.923,160.345L560.922,160.363L560.922,160.367L560.922,160.372L560.925,160.398L560.938,160.519L560.937,160.522L560.913,160.62L560.931,160.793L560.97,160.808L560.984,160.969L560.859,161.212L560.822,161.267L560.759,161.427L560.496,161.458L560.485,161.447L559.892,161.506L559.821,161.615L560.05,162.029L560.069,162.037L560.11,162.058L560.144,162.075L560.215,162.093L560.247,162.124L560.273,162.138L560.32,162.178L560.392,162.518L560.436,162.717L560.41,162.972L560.493,162.947L560.532,162.926L560.636,162.929L560.652,162.919L560.675,163.032L560.593,163.152L560.54,163.157L560.512,163.197L560.522,163.336L560.458,163.45L560.456,163.467L560.412,163.563L560.43,163.709L560.496,163.818L560.813,164.342L560.881,164.509L560.918,164.538L561.37,164.862L561.563,164.909L561.65,164.93L561.699,164.971L561.711,164.977L561.724,164.99L561.735,164.995L561.784,165.034L561.968,165.019L562.086,164.929L562.125,164.949L562.207,164.928L562.282,164.928L562.463,165.021L562.522,165.023L562.524,165.028L562.531,165.033L562.532,165.035L562.532,165.037L562.533,165.04L562.532,165.041L562.532,165.047L562.531,165.054L562.532,165.056L562.534,165.058L562.536,165.058L562.537,165.057L562.538,165.056L562.539,165.056L562.542,165.057L562.543,165.058L562.543,165.063L562.542,165.064L562.541,165.066L562.54,165.067L562.539,165.068L562.537,165.069L562.537,165.07L562.538,165.072L562.54,165.073L562.545,165.073L562.549,165.073L562.551,165.073L562.551,165.075L562.55,165.076L562.548,165.077L562.548,165.078L562.55,165.079L562.553,165.081L562.555,165.081L562.556,165.082L562.556,165.084L562.557,165.086L562.56,165.086L562.56,165.087L562.56,165.088L562.559,165.089L562.558,165.091L562.557,165.095L562.557,165.096L562.559,165.098L562.561,165.099L562.562,165.099L562.562,165.101L562.561,165.105L562.559,165.108L562.559,165.109L562.559,165.111L562.56,165.113L562.562,165.114L562.564,165.114L562.566,165.114L562.567,165.114L562.567,165.114L562.569,165.114L562.569,165.116L562.569,165.116L562.569,165.117L562.57,165.117L562.572,165.116L562.573,165.115L562.574,165.115L562.574,165.117L562.576,165.117L562.575,165.118L562.573,165.118L562.574,165.12L562.573,165.121L562.575,165.123L562.577,165.124L562.578,165.126L562.578,165.127L562.581,165.127L562.582,165.127L562.583,165.129L562.582,165.13L562.582,165.132L562.582,165.134L562.581,165.136L562.579,165.137L562.579,165.139L562.58,165.141L562.581,165.145L562.58,165.147L562.578,165.147L562.578,165.148L562.578,165.149L562.579,165.149L562.58,165.148L562.581,165.148L562.58,165.152L562.58,165.154L562.579,165.155L562.578,165.155L562.577,165.157L562.577,165.159L562.578,165.159L562.579,165.159L562.58,165.16L562.579,165.162L562.58,165.163L562.581,165.163L562.582,165.164L562.582,165.165L562.581,165.166L562.581,165.168L562.582,165.168L562.583,165.167L562.583,165.168L562.582,165.17L562.583,165.172L562.583,165.174L562.581,165.173L562.58,165.174L562.582,165.176L562.581,165.178L562.58,165.179L562.578,165.181L562.578,165.183L562.578,165.185L562.578,165.186L562.578,165.189L562.579,165.191L562.58,165.193L562.581,165.195L562.58,165.196L562.579,165.196L562.577,165.195L562.576,165.195L562.575,165.195L562.575,165.197L562.577,165.199L562.578,165.201L562.58,165.203L562.582,165.205L562.584,165.207L562.585,165.209L562.588,165.21L562.589,165.212L562.59,165.214L562.589,165.219L562.59,165.221L562.591,165.223L562.592,165.224L562.591,165.227L562.59,165.227L562.587,165.228L562.586,165.228L562.586,165.229L562.588,165.23L562.588,165.23L562.588,165.233L562.587,165.235L562.584,165.237L562.581,165.237L562.58,165.237L562.579,165.235L562.579,165.232L562.579,165.232L562.577,165.232L562.576,165.234L562.576,165.237L562.576,165.238L562.572,165.24L562.57,165.242L562.569,165.243L562.568,165.243L562.569,165.246L562.57,165.248L562.574,165.252L562.574,165.254L562.573,165.255L562.572,165.256L562.571,165.257L562.571,165.258L562.571,165.259L562.573,165.26L562.576,165.261L562.577,165.262L562.577,165.263L562.577,165.264L562.578,165.266L562.58,165.267L562.581,165.267L562.583,165.267L562.584,165.269L562.586,165.269L562.587,165.27L562.587,165.271L562.588,165.274L562.588,165.276L562.587,165.277L562.586,165.278L562.586,165.28L562.587,165.28L562.587,165.284L562.586,165.286L562.584,165.286L562.583,165.287L562.582,165.289L562.582,165.293L562.582,165.295L562.582,165.297L562.581,165.298L562.58,165.299L562.579,165.301L562.579,165.302L562.582,165.303L562.584,165.307L562.585,165.309L562.586,165.311L562.588,165.312L562.588,165.314L562.59,165.315L562.591,165.314L562.593,165.315L562.594,165.316L562.594,165.32L562.595,165.322L562.596,165.325L562.598,165.327L562.599,165.33L562.6,165.331L562.602,165.331L562.603,165.332L562.603,165.334L562.604,165.335L562.604,165.337L562.603,165.339L562.605,165.343L562.606,165.344L562.608,165.347L562.608,165.348L562.606,165.349L562.605,165.348L562.604,165.348L562.604,165.347L562.603,165.347L562.599,165.35L562.598,165.351L562.597,165.354L562.598,165.356L562.6,165.359L562.603,165.361L562.604,165.361L562.605,165.36L562.606,165.359L562.606,165.358L562.605,165.358L562.605,165.357L562.607,165.357L562.61,165.358L562.611,165.36L562.611,165.361L562.61,165.362L562.609,165.362L562.605,165.367L562.604,165.368L562.603,165.37L562.603,165.372L562.602,165.373L562.602,165.374L562.602,165.378L562.606,165.385L562.607,165.385L562.608,165.384L562.609,165.383L562.609,165.382L562.609,165.38L562.609,165.378L562.609,165.376L562.61,165.375L562.611,165.375L562.611,165.377L562.612,165.379L562.613,165.381L562.615,165.382L562.617,165.384L562.618,165.386L562.618,165.391L562.62,165.395L562.62,165.397L562.622,165.399L562.622,165.401L562.621,165.402L562.621,165.403L562.62,165.402L562.617,165.403L562.616,165.404L562.617,165.406L562.618,165.408L562.619,165.409L562.619,165.411L562.618,165.412L562.618,165.413L562.617,165.413L562.615,165.414L562.614,165.416L562.613,165.416L562.613,165.418L562.614,165.419L562.614,165.419L562.615,165.418L562.616,165.419L562.616,165.422L562.617,165.422L562.62,165.422L562.62,165.421L562.62,165.419L562.621,165.419L562.622,165.42L562.621,165.422L562.62,165.424L562.618,165.425L562.618,165.427L562.617,165.427L562.616,165.427L562.616,165.429L562.616,165.429L562.617,165.429L562.617,165.43L562.617,165.431L562.615,165.432L562.615,165.433L562.612,165.433L562.612,165.435L562.612,165.435L562.613,165.435L562.614,165.436L562.612,165.437L562.612,165.438L562.613,165.438L562.615,165.438L562.615,165.438L562.616,165.439L562.616,165.442L562.618,165.443L562.618,165.445L562.622,165.447L562.623,165.449L562.624,165.453L562.624,165.454L562.623,165.456L562.622,165.459L562.619,165.461L562.618,165.464L562.618,165.468L562.618,165.469L562.619,165.471L562.619,165.473L562.619,165.476L562.62,165.479L562.621,165.481L562.621,165.483L562.621,165.486L562.622,165.489L562.622,165.492L562.623,165.494L562.623,165.495L562.623,165.496L562.62,165.497L562.62,165.498L562.62,165.499L562.622,165.502L562.623,165.504L562.623,165.507L562.623,165.508L562.622,165.51L562.622,165.513L562.623,165.516L562.623,165.519L562.622,165.52L562.622,165.522L562.623,165.524L562.626,165.526L562.629,165.528L562.631,165.529L562.631,165.53L562.631,165.531L562.63,165.532L562.629,165.534L562.631,165.535L562.632,165.542L562.632,165.545L562.632,165.545L562.631,165.546L562.631,165.547L562.632,165.547L562.632,165.548L562.632,165.549L562.633,165.551L562.633,165.553L562.633,165.554L562.63,165.554L562.629,165.556L562.629,165.558L562.629,165.56L562.629,165.562L562.631,165.564L562.631,165.565L562.629,165.568L562.629,165.569L562.63,165.569L562.631,165.571L562.632,165.574L562.632,165.576L562.633,165.578L562.636,165.58L562.638,165.582L562.641,165.584L562.643,165.585L562.644,165.587L562.646,165.587L562.648,165.586L562.649,165.586L562.65,165.586L562.653,165.59L562.653,165.591L562.653,165.592L562.654,165.593L562.657,165.593L562.659,165.593L562.659,165.592L562.66,165.591L562.663,165.591L562.665,165.59L562.667,165.589L562.669,165.588L562.67,165.589L562.672,165.591L562.674,165.593L562.676,165.595L562.677,165.595L562.679,165.594L562.681,165.594L562.682,165.595L562.683,165.596L562.687,165.598L562.687,165.599L562.688,165.599L562.688,165.603L562.689,165.605L562.69,165.606L562.691,165.608L562.694,165.611L562.695,165.613L562.697,165.617L562.698,165.618L562.699,165.619L562.701,165.619L562.705,165.62L562.706,165.62L562.706,165.622L562.705,165.624L562.705,165.625L562.706,165.626L562.708,165.626L562.71,165.624L562.711,165.624L562.712,165.625L562.715,165.626L562.717,165.63L562.718,165.633L562.72,165.635L562.723,165.641L562.727,165.643L562.727,165.644L562.728,165.647L562.728,165.65L562.729,165.653L562.728,165.655L562.727,165.658L562.726,165.659L562.724,165.659L562.724,165.658L562.722,165.658L562.718,165.663L562.717,165.665L562.716,165.666L562.716,165.668L562.718,165.668L562.719,165.67L562.718,165.673L562.718,165.677L562.718,165.677L562.718,165.678L562.718,165.678L562.718,165.68L562.717,165.681L562.714,165.684L562.71,165.685L562.705,165.687L562.702,165.691L562.7,165.692L562.699,165.694L562.697,165.696L562.697,165.699L562.698,165.701L562.697,165.703L562.696,165.704L562.695,165.704L562.695,165.704L562.693,165.703L562.691,165.703L562.69,165.703L562.689,165.705L562.69,165.708L562.69,165.709L562.69,165.711L562.689,165.713L562.689,165.716L562.688,165.72L562.687,165.725L562.687,165.729L562.686,165.731L562.686,165.735L562.684,165.738L562.683,165.74L562.68,165.743L562.679,165.744L562.678,165.746L562.678,165.747L562.679,165.748L562.68,165.747L562.681,165.748L562.682,165.749L562.685,165.753L562.685,165.756L562.683,165.759L562.681,165.76L562.679,165.761L562.678,165.762L562.677,165.763L562.676,165.764L562.675,165.765L562.676,165.766L562.678,165.767L562.68,165.769L562.68,165.77L562.679,165.772L562.678,165.772L562.678,165.771L562.677,165.771L562.675,165.772L562.675,165.773L562.674,165.775L562.673,165.778L562.673,165.781L562.674,165.784L562.674,165.785L562.673,165.787L562.672,165.788L562.67,165.789L562.668,165.792L562.669,165.794L562.67,165.795L562.671,165.795L562.672,165.795L562.672,165.796L562.673,165.797L562.674,165.8L562.675,165.803L562.675,165.805L562.676,165.807L562.677,165.807L562.681,165.814L562.682,165.816L562.684,165.818L562.686,165.821L562.688,165.827L562.688,165.83L562.686,165.833L562.685,165.834L562.684,165.834L562.683,165.835L562.682,165.838L562.684,165.84L562.684,165.841L562.684,165.843L562.684,165.843L562.683,165.843L562.681,165.844L562.68,165.847L562.678,165.851L562.677,165.855L562.677,165.858L562.676,165.86L562.677,165.861L562.676,165.865L562.675,165.869L562.675,165.871L562.674,165.872L562.671,165.872L562.67,165.873L562.669,165.875L562.668,165.876L562.669,165.878L562.67,165.878L562.671,165.877L562.673,165.877L562.674,165.878L562.674,165.88L562.674,165.881L562.672,165.884L562.668,165.888L562.664,165.891L562.66,165.893L562.658,165.895L562.655,165.898L562.652,165.902L562.65,165.905L562.65,165.907L562.649,165.907L562.649,165.907L562.648,165.91L562.648,165.912L562.648,165.914L562.647,165.916L562.646,165.918L562.647,165.92L562.644,165.928L562.644,165.934L562.643,165.939L562.643,165.944L562.644,165.947L562.647,165.955L562.651,165.962L562.651,165.963L562.652,165.964L562.652,165.966L562.653,165.967L562.653,165.969L562.654,165.972L562.653,165.972L562.653,165.975L562.654,165.977L562.656,165.979L562.657,165.982L562.658,165.984L562.659,165.987L562.659,165.99L562.658,165.992L562.658,165.993L562.658,165.997L562.659,165.999L562.66,166.003L562.66,166.005L562.66,166.006L562.659,166.007L562.658,166.008L562.659,166.009L562.658,166.011L562.656,166.013L562.653,166.015L562.653,166.017L562.652,166.017L562.653,166.019L562.652,166.021L562.65,166.023L562.649,166.025L562.648,166.028L562.647,166.031L562.645,166.033L562.644,166.034L562.643,166.036L562.643,166.039L562.644,166.043L562.646,166.046L562.646,166.048L562.649,166.054L562.649,166.058L562.651,166.061L562.656,166.069L562.659,166.072L562.661,166.073L562.663,166.077L562.665,166.081L562.665,166.082L562.663,166.084L562.66,166.086L562.654,166.086L562.651,166.086L562.65,166.086L562.648,166.088L562.646,166.09L562.645,166.092L562.646,166.094L562.645,166.096L562.644,166.099L562.644,166.101L562.644,166.102L562.643,166.102L562.642,166.103L562.641,166.108L562.64,166.109L562.635,166.111L562.633,166.111L562.632,166.112L562.63,166.114L562.627,166.117L562.624,166.119L562.622,166.121L562.622,166.122L562.622,166.123L562.623,166.124L562.623,166.125L562.621,166.127L562.62,166.127L562.619,166.127L562.617,166.125L562.617,166.124L562.615,166.124L562.614,166.124L562.611,166.127L562.609,166.129L562.606,166.13L562.605,166.13L562.604,166.132L562.605,166.134L562.606,166.135L562.607,166.137L562.607,166.138L562.606,166.14L562.606,166.141L562.607,166.143L562.608,166.144L562.609,166.143L562.613,166.143L562.615,166.143L562.616,166.144L562.616,166.144L562.616,166.145L562.614,166.146L562.612,166.147L562.611,166.15L562.61,166.153L562.608,166.156L562.605,166.159L562.605,166.161L562.605,166.162L562.606,166.164L562.607,166.167L562.608,166.169L562.608,166.172L562.607,166.175L562.606,166.176L562.604,166.178L562.603,166.18L562.599,166.189L562.599,166.191L562.6,166.193L562.6,166.195L562.599,166.196L562.598,166.197L562.597,166.198L562.595,166.197L562.594,166.197L562.592,166.198L562.591,166.2L562.59,166.201L562.585,166.204L562.582,166.205L562.581,166.205L562.58,166.205L562.579,166.203L562.579,166.202L562.578,166.201L562.577,166.2L562.576,166.2L562.574,166.201L562.573,166.203L562.572,166.205L562.574,166.207L562.576,166.208L562.577,166.209L562.577,166.211L562.576,166.212L562.575,166.214L562.574,166.214L562.572,166.212L562.57,166.211L562.568,166.212L562.567,166.212L562.567,166.213L562.567,166.215L562.569,166.218L562.57,166.219L562.572,166.22L562.574,166.221L562.575,166.223L562.576,166.225L562.576,166.228L562.575,166.23L562.574,166.232L562.568,166.24L562.566,166.242L562.565,166.245L562.564,166.251L562.564,166.254L562.563,166.257L562.564,166.259L562.564,166.261L562.564,166.264L562.564,166.265L562.563,166.266L562.561,166.266L562.56,166.266L562.559,166.267L562.559,166.269L562.559,166.271L562.56,166.272L562.562,166.275L562.56,166.278L562.559,166.279L562.559,166.281L562.557,166.284L562.556,166.287L562.556,166.288L562.556,166.291L562.556,166.293L562.556,166.295L562.555,166.298L562.554,166.299L562.552,166.303L562.55,166.306L562.549,166.306L562.548,166.309L562.547,166.312L562.544,166.313L562.543,166.316L562.542,166.319L562.54,166.322L562.538,166.324L562.537,166.328L562.534,166.331L562.533,166.334L562.533,166.337L562.533,166.338L562.532,166.34L562.53,166.342L562.528,166.344L562.527,166.346L562.524,166.348L562.521,166.352L562.517,166.355L562.508,166.357L562.506,166.358L562.505,166.36L562.503,166.363L562.502,166.365L562.501,166.366L562.5,166.366L562.498,166.364L562.495,166.363L562.491,166.363L562.488,166.365L562.486,166.366L562.483,166.372L562.483,166.374L562.481,166.376L562.478,166.377L562.477,166.379L562.475,166.385L562.472,166.391L562.47,166.393L562.466,166.393L562.461,166.396L562.459,166.398L562.457,166.401L562.456,166.405L562.456,166.408L562.457,166.409L562.458,166.409L562.459,166.407L562.46,166.407L562.461,166.407L562.462,166.407L562.462,166.408L562.461,166.41L562.46,166.412L562.459,166.414L562.457,166.416L562.455,166.418L562.452,166.421L562.45,166.425L562.45,166.427L562.45,166.431L562.449,166.434L562.448,166.436L562.447,166.437L562.445,166.436L562.444,166.436L562.44,166.439L562.438,166.441L562.437,166.443L562.437,166.446L562.439,166.448L562.44,166.448L562.442,166.448L562.444,166.448L562.445,166.449L562.446,166.45L562.448,166.452L562.448,166.454L562.448,166.459L562.447,166.461L562.444,166.461L562.442,166.463L562.441,166.464L562.439,166.466L562.439,166.469L562.438,166.471L562.436,166.475L562.434,166.478L562.43,166.481L562.429,166.483L562.429,166.486L562.429,166.489L562.426,166.495L562.424,166.499L562.424,166.501L562.424,166.502L562.425,166.503L562.426,166.503L562.429,166.501L562.43,166.501L562.435,166.504L562.442,166.507L562.443,166.506L562.444,166.506L562.449,166.505L562.451,166.505L562.456,166.507L562.46,166.51L562.462,166.512L562.462,166.513L562.463,166.513L562.465,166.517L562.465,166.518L562.465,166.521L562.464,166.523L562.463,166.526L562.462,166.527L562.459,166.528L562.456,166.527L562.454,166.529L562.451,166.533L562.449,166.536L562.449,166.54L562.45,166.543L562.451,166.548L562.451,166.55L562.451,166.552L562.449,166.556L562.446,166.56L562.44,166.564L562.438,166.566L562.437,166.569L562.435,166.573L562.433,166.575L562.431,166.577L562.43,166.585L562.427,166.589L562.421,166.594L562.417,166.597L562.416,166.599L562.417,166.604L562.418,166.605L562.418,166.607L562.418,166.608L562.417,166.61L562.415,166.613L562.413,166.616L562.411,166.618L562.411,166.619L562.411,166.622L562.41,166.625L562.411,166.628L562.41,166.631ZM800,0L800,12.246L800,78.668L800,145.789L800,215.835L800,261.497L800,300L800,338.503L800,384.165L800,454.211L800,600L800,600L200,600L200,600L200,454.211L200,384.165L200,338.503L200,300L200,261.497L200,215.835L200,145.789L200,78.668L200,12.246L200,0L200,0L800,0Z"/>
<path d="M567.562,157.931m0,4.5a4.5,4.5 0 1,1 0,-9a4.5,4.5 0 1,1 0,9z"/>
<path d="M571.87,161.68m0,4.5a4.5,4.5 0 1,1 0,-9a4.5,4.5 0 1,1 0,9z"/>
</svg>