<?xml version="1.0" encoding="UTF-8"?>
<svg xmlns="http://www.w3.org/2000/svg" viewBox="0 0 1000 600" stroke="#000" stroke-width="0.3" fill="#ccc">
<path d="M577.815,214.705L577.832,214.706L577.856,214.703L577.873,214.701L577.896,214.699L577.915,214.702L577.92,214.703L577.947,214.707L577.972,214.711L577.984,214.712L578.004,214.733L578.035,214.76L578.047,214.77L578.092,214.769L578.114,214.688L578.121,214.663L578.128,214.642L578.141,214.595L578.137,214.595L578.067,214.591L578.037,214.59L577.993,214.586L577.983,214.586L577.954,214.583L577.953,214.558L577.952,214.533L577.931,214.531L577.907,214.528L577.889,214.526L577.855,214.529L577.839,214.53L577.809,214.534L577.767,214.539L577.759,214.573L577.749,214.618L577.744,214.64L577.717,214.645L577.701,214.647L577.686,214.65L577.657,214.654L577.639,214.657L577.597,214.664L577.588,214.666L577.561,214.67L577.508,214.679L577.49,214.682L577.451,214.688L577.429,214.692L577.424,214.709L577.419,214.723L577.411,214.75L577.407,214.764L577.428,214.767L577.471,214.773L577.493,214.776L577.507,214.778L577.544,214.782L577.572,214.784L577.588,214.785L577.629,214.786L577.629,214.818L577.67,214.807L577.709,214.797L577.729,214.705L577.731,214.698L577.752,214.701L577.774,214.705L577.808,214.705ZM800,0L800,12.246L800,78.668L800,145.789L800,215.835L800,261.497L800,300L800,338.503L800,384.165L800,454.211L800,600L800,600L200,600L200,600L200,454.211L200,384.165L200,338.503L200,300L200,261.497L200,215.835L200,145.789L200,78.668L200,12.246L200,0L200,0L800,0ZM580.832,211.827L580.845,211.826L580.884,211.81L580.91,211.8L580.922,211.795L580.906,211.787L580.892,211.752L580.915,211.74L581,211.732L581.027,211.755L581.047,211.747L581.073,211.691L581.123,211.716L581.127,211.734L581.189,211.716L581.251,211.802L581.533,211.783L581.66,211.662L581.533,211.346L581.525,211.327L581.184,210.802L581,210.353L580.866,210.026L580.753,210.026L580.659,209.867L580.531,209.681L580.349,209.334L580.186,209.202L580.047,209.158L579.938,209.186L579.777,209.176L579.676,209.174L579.558,209.172L579.421,209.17L579.025,208.971L579.02,209.157L578.975,209.36L578.691,209.182L578.657,209.163L578.568,209.034L578.538,208.99L578.536,208.987L578.635,208.932L578.578,208.856L578.501,208.748L578.417,208.574L578.417,208.574L578.581,208.478L578.598,208.416L578.668,208.432L578.685,208.364L578.485,208.311L578.541,208.174L578.522,208.131L578.505,208.043L578.518,207.985L578.538,207.898L578.22,207.777L578.181,207.77L578.179,207.769L578.176,207.768L578.149,207.75L577.913,207.685L577.898,207.674L577.796,207.592L577.743,207.606L577.489,207.487L577.562,207.285L577.632,207.09L577.683,206.949L577.703,206.895L577.7,206.892L577.629,206.841L577.395,206.656L577.38,206.662L577.358,206.643L577.18,206.507L577.207,206.466L577.02,206.441L576.984,206.438L576.731,206.399L576.695,206.404L576.642,206.451L576.576,206.451L576.572,206.547L576.554,206.595L576.477,206.701L576.465,206.742L576.435,206.76L576.343,206.857L576.179,206.881L576.132,206.915L576.117,206.941L576.111,206.953L576.071,207.009L576.074,207.01L576.039,207.035L576.021,207.047L576.012,207.054L576.008,207.057L576.008,207.058L576.007,207.058L576.007,207.059L576.006,207.058L576.003,207.059L576.001,207.059L576,207.058L575.997,207.057L575.996,207.057L575.995,207.057L575.993,207.057L575.991,207.056L575.989,207.056L575.987,207.055L575.983,207.053L575.981,207.053L575.98,207.053L575.977,207.052L575.975,207.051L575.973,207.051L575.972,207.051L575.971,207.051L575.97,207.053L575.969,207.054L575.968,207.054L575.966,207.054L575.963,207.052L575.961,207.052L575.958,207.051L575.956,207.051L575.955,207.051L575.953,207.051L575.953,207.051L575.951,207.05L575.945,207.066L575.944,207.067L575.939,207.081L575.935,207.091L575.931,207.101L575.93,207.101L575.928,207.101L575.922,207.098L575.92,207.097L575.918,207.092L575.915,207.088L575.912,207.087L575.912,207.086L575.911,207.086L575.91,207.083L575.909,207.082L575.909,207.081L575.907,207.081L575.907,207.081L575.905,207.081L575.903,207.081L575.903,207.08L575.902,207.079L575.901,207.078L575.9,207.078L575.899,207.078L575.896,207.078L575.894,207.078L575.893,207.078L575.892,207.078L575.892,207.078L575.891,207.077L575.891,207.077L575.89,207.077L575.889,207.077L575.888,207.078L575.888,207.079L575.889,207.08L575.89,207.081L575.89,207.081L575.891,207.082L575.89,207.083L575.89,207.083L575.89,207.083L575.889,207.082L575.888,207.081L575.887,207.081L575.886,207.082L575.886,207.083L575.886,207.084L575.887,207.085L575.887,207.085L575.888,207.086L575.889,207.086L575.889,207.086L575.889,207.087L575.889,207.087L575.89,207.088L575.889,207.088L575.889,207.089L575.888,207.088L575.888,207.088L575.887,207.088L575.887,207.088L575.886,207.088L575.885,207.087L575.884,207.086L575.884,207.086L575.883,207.086L575.883,207.087L575.882,207.087L575.881,207.087L575.88,207.086L575.88,207.085L575.878,207.084L575.876,207.083L575.875,207.083L575.875,207.083L575.874,207.084L575.875,207.084L575.875,207.084L575.875,207.085L575.875,207.086L575.875,207.087L575.875,207.087L575.874,207.086L575.873,207.086L575.873,207.086L575.872,207.087L575.872,207.088L575.872,207.089L575.872,207.09L575.872,207.09L575.871,207.091L575.871,207.091L575.87,207.092L575.87,207.093L575.869,207.095L575.868,207.096L575.867,207.097L575.866,207.097L575.866,207.097L575.865,207.096L575.865,207.096L575.865,207.096L575.865,207.096L575.866,207.095L575.867,207.095L575.867,207.095L575.866,207.094L575.866,207.093L575.865,207.093L575.865,207.093L575.865,207.092L575.865,207.091L575.864,207.091L575.863,207.091L575.863,207.092L575.863,207.092L575.863,207.092L575.864,207.093L575.864,207.093L575.864,207.094L575.864,207.094L575.864,207.095L575.864,207.095L575.864,207.096L575.864,207.096L575.858,207.107L575.852,207.119L575.85,207.124L575.847,207.122L575.845,207.122L575.845,207.122L575.845,207.123L575.845,207.124L575.846,207.125L575.847,207.127L575.845,207.128L575.842,207.129L575.835,207.127L575.831,207.127L575.83,207.126L575.829,207.126L575.826,207.124L575.825,207.123L575.823,207.122L575.815,207.116L575.809,207.112L575.809,207.112L575.808,207.113L575.807,207.113L575.806,207.111L575.805,207.11L575.803,207.108L575.802,207.107L575.802,207.105L575.801,207.104L575.798,207.1L575.797,207.099L575.797,207.098L575.796,207.099L575.795,207.1L575.795,207.102L575.795,207.102L575.793,207.102L575.792,207.102L575.79,207.1L575.788,207.097L575.787,207.097L575.784,207.096L575.783,207.095L575.783,207.095L575.782,207.095L575.782,207.096L575.783,207.1L575.783,207.102L575.783,207.104L575.784,207.106L575.783,207.107L575.782,207.108L575.781,207.107L575.781,207.107L575.781,207.105L575.78,207.103L575.78,207.103L575.779,207.102L575.778,207.102L575.777,207.103L575.777,207.104L575.777,207.105L575.776,207.106L575.776,207.107L575.775,207.107L575.773,207.108L575.772,207.109L575.771,207.109L575.77,207.109L575.769,207.109L575.769,207.108L575.768,207.107L575.768,207.106L575.768,207.105L575.768,207.104L575.766,207.101L575.765,207.099L575.764,207.099L575.763,207.099L575.762,207.099L575.761,207.099L575.761,207.099L575.759,207.098L575.758,207.098L575.757,207.098L575.755,207.097L575.754,207.098L575.754,207.098L575.753,207.099L575.754,207.099L575.754,207.1L575.756,207.101L575.757,207.101L575.757,207.102L575.757,207.102L575.758,207.103L575.758,207.104L575.755,207.105L575.751,207.108L575.749,207.109L575.748,207.11L575.748,207.111L575.748,207.111L575.749,207.111L575.751,207.111L575.752,207.111L575.752,207.11L575.753,207.111L575.753,207.112L575.754,207.113L575.753,207.113L575.752,207.113L575.752,207.113L575.752,207.114L575.752,207.115L575.752,207.115L575.752,207.116L575.751,207.116L575.751,207.117L575.75,207.118L575.75,207.119L575.75,207.119L575.75,207.119L575.75,207.12L575.749,207.12L575.749,207.119L575.748,207.119L575.748,207.118L575.747,207.117L575.746,207.118L575.745,207.118L575.744,207.118L575.744,207.117L575.743,207.117L575.743,207.116L575.743,207.116L575.743,207.115L575.744,207.114L575.744,207.113L575.744,207.113L575.743,207.112L575.742,207.111L575.741,207.11L575.741,207.109L575.741,207.109L575.742,207.109L575.743,207.11L575.744,207.11L575.745,207.11L575.745,207.109L575.745,207.109L575.746,207.109L575.745,207.108L575.745,207.108L575.744,207.108L575.743,207.108L575.742,207.107L575.742,207.106L575.743,207.104L575.743,207.103L575.743,207.102L575.742,207.101L575.742,207.101L575.741,207.101L575.741,207.102L575.742,207.104L575.742,207.104L575.741,207.104L575.739,207.104L575.738,207.103L575.738,207.102L575.737,207.102L575.738,207.1L575.738,207.099L575.738,207.098L575.737,207.097L575.737,207.097L575.736,207.097L575.735,207.097L575.735,207.097L575.734,207.097L575.734,207.096L575.734,207.095L575.733,207.094L575.732,207.092L575.73,207.09L575.729,207.089L575.728,207.09L575.727,207.089L575.726,207.09L575.725,207.09L575.724,207.09L575.723,207.091L575.723,207.091L575.722,207.092L575.722,207.094L575.721,207.096L575.721,207.098L575.72,207.099L575.721,207.101L575.721,207.102L575.721,207.103L575.721,207.104L575.722,207.105L575.721,207.106L575.721,207.107L575.72,207.108L575.721,207.11L575.721,207.11L575.721,207.111L575.72,207.112L575.72,207.112L575.72,207.113L575.721,207.113L575.721,207.114L575.72,207.116L575.719,207.115L575.718,207.115L575.717,207.115L575.716,207.115L575.715,207.116L575.715,207.117L575.716,207.118L575.715,207.119L575.715,207.12L575.714,207.121L575.713,207.122L575.711,207.121L575.71,207.121L575.709,207.121L575.708,207.121L575.708,207.121L575.708,207.122L575.708,207.122L575.709,207.123L575.71,207.123L575.711,207.124L575.712,207.125L575.711,207.127L575.71,207.129L575.71,207.129L575.71,207.129L575.708,207.129L575.708,207.129L575.706,207.13L575.706,207.13L575.703,207.131L575.703,207.132L575.704,207.133L575.705,207.133L575.705,207.133L575.707,207.136L575.707,207.137L575.707,207.137L575.705,207.138L575.704,207.139L575.702,207.138L575.702,207.136L575.701,207.136L575.7,207.134L575.7,207.134L575.699,207.134L575.698,207.135L575.698,207.135L575.698,207.137L575.697,207.141L575.696,207.141L575.695,207.143L575.694,207.144L575.693,207.145L575.693,207.144L575.692,207.144L575.69,207.142L575.689,207.142L575.687,207.143L575.685,207.144L575.684,207.144L575.684,207.144L575.681,207.144L575.68,207.144L575.678,207.144L575.675,207.145L575.675,207.145L575.674,207.144L575.675,207.143L575.674,207.142L575.673,207.142L575.671,207.141L575.67,207.141L575.668,207.141L575.666,207.141L575.665,207.141L575.665,207.142L575.664,207.143L575.663,207.144L575.663,207.145L575.662,207.146L575.661,207.146L575.661,207.146L575.659,207.146L575.658,207.146L575.658,207.146L575.657,207.147L575.657,207.147L575.658,207.149L575.657,207.149L575.656,207.149L575.655,207.149L575.655,207.148L575.655,207.148L575.655,207.147L575.653,207.146L575.653,207.145L575.653,207.145L575.652,207.144L575.651,207.142L575.65,207.142L575.649,207.141L575.649,207.14L575.649,207.139L575.65,207.138L575.652,207.138L575.652,207.137L575.652,207.137L575.652,207.136L575.652,207.135L575.653,207.135L575.654,207.135L575.654,207.135L575.654,207.135L575.656,207.134L575.655,207.132L575.655,207.132L575.655,207.131L575.653,207.128L575.652,207.127L575.651,207.126L575.649,207.125L575.648,207.126L575.648,207.127L575.648,207.128L575.649,207.128L575.651,207.129L575.651,207.129L575.652,207.13L575.652,207.131L575.651,207.135L575.651,207.135L575.65,207.135L575.649,207.135L575.649,207.135L575.649,207.133L575.648,207.133L575.647,207.132L575.645,207.131L575.644,207.131L575.642,207.132L575.641,207.133L575.639,207.135L575.638,207.139L575.636,207.142L575.636,207.149L575.635,207.154L575.636,207.155L575.637,207.157L575.638,207.157L575.639,207.156L575.64,207.156L575.642,207.156L575.643,207.157L575.643,207.158L575.641,207.161L575.641,207.161L575.64,207.162L575.639,207.163L575.638,207.163L575.635,207.164L575.634,207.165L575.632,207.166L575.629,207.167L575.625,207.167L575.623,207.167L575.621,207.168L575.617,207.169L575.614,207.17L575.613,207.173L575.611,207.174L575.611,207.175L575.61,207.177L575.61,207.178L575.609,207.179L575.608,207.18L575.608,207.18L575.608,207.182L575.607,207.182L575.607,207.182L575.605,207.182L575.604,207.181L575.604,207.182L575.604,207.182L575.604,207.183L575.603,207.184L575.602,207.184L575.602,207.186L575.601,207.188L575.602,207.189L575.602,207.19L575.603,207.191L575.604,207.192L575.604,207.192L575.603,207.194L575.6,207.192L575.6,207.192L575.596,207.19L575.597,207.188L575.595,207.188L575.593,207.186L575.593,207.185L575.593,207.185L575.593,207.185L575.593,207.184L575.594,207.183L575.595,207.182L575.595,207.181L575.594,207.181L575.592,207.181L575.59,207.182L575.59,207.181L575.591,207.18L575.591,207.178L575.59,207.177L575.586,207.178L575.584,207.178L575.583,207.179L575.585,207.18L575.586,207.179L575.587,207.179L575.587,207.181L575.587,207.182L575.586,207.184L575.584,207.184L575.584,207.183L575.583,207.182L575.583,207.183L575.582,207.184L575.58,207.185L575.579,207.185L575.579,207.183L575.58,207.182L575.578,207.181L575.576,207.181L575.576,207.18L575.577,207.178L575.578,207.176L575.578,207.175L575.579,207.174L575.58,207.172L575.58,207.17L575.579,207.17L575.578,207.169L575.577,207.167L575.575,207.165L575.574,207.166L575.573,207.167L575.574,207.17L575.574,207.172L575.574,207.175L575.574,207.176L575.573,207.176L575.572,207.175L575.572,207.172L575.572,207.169L575.571,207.166L575.57,207.163L575.568,207.163L575.566,207.165L575.566,207.168L575.565,207.168L575.561,207.166L575.558,207.166L575.556,207.167L575.556,207.169L575.562,207.17L575.563,207.17L575.563,207.17L575.563,207.171L575.562,207.171L575.56,207.171L575.559,207.172L575.559,207.173L575.56,207.175L575.562,207.176L575.563,207.178L575.565,207.18L575.565,207.181L575.565,207.181L575.563,207.182L575.559,207.182L575.559,207.183L575.559,207.184L575.557,207.186L575.558,207.188L575.555,207.189L575.551,207.191L575.547,207.192L575.546,207.192L575.546,207.192L575.546,207.192L575.546,207.19L575.546,207.189L575.546,207.186L575.547,207.185L575.547,207.183L575.546,207.181L575.543,207.179L575.542,207.18L575.542,207.181L575.544,207.182L575.544,207.183L575.543,207.183L575.541,207.182L575.539,207.183L575.538,207.183L575.537,207.182L575.536,207.181L575.535,207.18L575.535,207.179L575.536,207.178L575.537,207.177L575.536,207.175L575.534,207.173L575.532,207.172L575.53,207.173L575.528,207.173L575.526,207.171L575.525,207.171L575.524,207.173L575.524,207.175L575.522,207.177L575.521,207.179L575.52,207.179L575.519,207.178L575.519,207.176L575.518,207.174L575.519,207.172L575.519,207.169L575.518,207.169L575.516,207.169L575.514,207.171L575.513,207.172L575.509,207.173L575.507,207.173L575.507,207.173L575.506,207.173L575.505,207.172L575.505,207.17L575.507,207.17L575.508,207.171L575.508,207.171L575.509,207.17L575.509,207.169L575.509,207.169L575.509,207.167L575.51,207.165L575.51,207.163L575.508,207.163L575.506,207.164L575.506,207.163L575.506,207.16L575.505,207.159L575.504,207.158L575.504,207.156L575.505,207.155L575.506,207.154L575.505,207.153L575.502,207.152L575.502,207.152L575.501,207.15L575.5,207.147L575.501,207.144L575.503,207.14L575.505,207.136L575.506,207.135L575.505,207.134L575.505,207.133L575.505,207.133L575.499,207.134L575.492,207.139L575.487,207.143L575.482,207.147L575.478,207.148L575.472,207.15L575.468,207.151L575.466,207.151L575.465,207.15L575.462,207.151L575.455,207.154L575.451,207.156L575.446,207.158L575.444,207.156L575.439,207.153L575.436,207.151L575.435,207.15L575.425,207.151L575.423,207.151L575.423,207.151L575.42,207.151L575.419,207.149L575.418,207.148L575.415,207.148L575.413,207.149L575.41,207.148L575.408,207.152L575.409,207.153L575.409,207.156L575.409,207.161L575.407,207.163L575.409,207.164L575.412,207.167L575.415,207.17L575.418,207.17L575.42,207.17L575.42,207.171L575.418,207.172L575.416,207.174L575.414,207.177L575.413,207.18L575.413,207.182L575.41,207.181L575.404,207.179L575.404,207.179L575.404,207.178L575.403,207.178L575.402,207.177L575.4,207.176L575.398,207.175L575.396,207.176L575.393,207.178L575.391,207.178L575.391,207.179L575.39,207.18L575.389,207.18L575.387,207.179L575.387,207.179L575.385,207.178L575.385,207.177L575.383,207.176L575.381,207.176L575.38,207.175L575.379,207.174L575.377,207.173L575.376,207.173L575.376,207.172L575.374,207.171L575.372,207.171L575.371,207.173L575.369,207.175L575.363,207.176L575.36,207.176L575.356,207.179L575.355,207.18L575.355,207.182L575.355,207.184L575.355,207.185L575.356,207.184L575.357,207.183L575.358,207.182L575.359,207.182L575.359,207.183L575.358,207.183L575.358,207.184L575.359,207.185L575.36,207.185L575.36,207.185L575.36,207.184L575.36,207.183L575.361,207.182L575.361,207.182L575.362,207.183L575.362,207.184L575.362,207.185L575.362,207.186L575.363,207.187L575.363,207.187L575.364,207.188L575.362,207.19L575.362,207.192L575.361,207.193L575.357,207.194L575.356,207.195L575.351,207.204L575.349,207.205L575.346,207.207L575.346,207.208L575.346,207.21L575.344,207.212L575.343,207.213L575.342,207.215L575.341,207.216L575.338,207.216L575.334,207.216L575.335,207.219L575.336,207.223L575.334,207.227L575.334,207.229L575.337,207.229L575.34,207.229L575.341,207.229L575.342,207.231L575.342,207.232L575.341,207.232L575.34,207.233L575.339,207.234L575.34,207.235L575.342,207.236L575.343,207.237L575.345,207.237L575.345,207.236L575.347,207.236L575.349,207.236L575.352,207.235L575.354,207.235L575.355,207.234L575.356,207.235L575.357,207.236L575.357,207.237L575.359,207.239L575.36,207.239L575.36,207.239L575.361,207.239L575.361,207.238L575.363,207.238L575.365,207.238L575.367,207.238L575.368,207.236L575.369,207.234L575.371,207.233L575.371,207.233L575.373,207.233L575.373,207.235L575.373,207.237L575.373,207.238L575.373,207.24L575.373,207.242L575.371,207.244L575.369,207.244L575.368,207.244L575.367,207.245L575.367,207.246L575.366,207.246L575.366,207.246L575.366,207.245L575.365,207.245L575.365,207.245L575.364,207.246L575.365,207.247L575.366,207.247L575.367,207.247L575.368,207.248L575.369,207.248L575.37,207.247L575.37,207.247L575.37,207.247L575.371,207.247L575.372,207.247L575.372,207.248L575.372,207.25L575.371,207.25L575.371,207.251L575.37,207.25L575.369,207.25L575.368,207.251L575.368,207.252L575.368,207.252L575.369,207.253L575.372,207.253L575.374,207.253L575.374,207.254L575.374,207.255L575.374,207.256L575.374,207.257L575.375,207.257L575.376,207.257L575.377,207.258L575.378,207.259L575.377,207.26L575.376,207.26L575.374,207.26L575.374,207.26L575.375,207.262L575.376,207.263L575.377,207.264L575.378,207.264L575.379,207.265L575.379,207.266L575.38,207.269L575.381,207.27L575.381,207.271L575.382,207.271L575.383,207.273L575.385,207.274L575.386,207.276L575.386,207.278L575.385,207.279L575.384,207.281L575.384,207.281L575.384,207.282L575.385,207.283L575.386,207.284L575.387,207.284L575.388,207.284L575.387,207.282L575.388,207.282L575.388,207.282L575.389,207.283L575.392,207.284L575.395,207.284L575.399,207.285L575.4,207.285L575.402,207.285L575.403,207.283L575.403,207.281L575.403,207.277L575.404,207.274L575.406,207.273L575.408,207.272L575.411,207.272L575.414,207.273L575.416,207.273L575.417,207.273L575.419,207.272L575.42,207.269L575.422,207.265L575.425,207.263L575.428,207.263L575.433,207.263L575.433,207.263L575.437,207.262L575.44,207.262L575.441,207.261L575.442,207.261L575.443,207.261L575.445,207.263L575.445,207.265L575.444,207.268L575.446,207.27L575.448,207.274L575.448,207.275L575.448,207.278L575.451,207.278L575.454,207.278L575.455,207.275L575.455,207.274L575.457,207.275L575.459,207.275L575.459,207.274L575.459,207.273L575.46,207.272L575.46,207.273L575.462,207.273L575.463,207.274L575.465,207.274L575.466,207.275L575.469,207.275L575.473,207.275L575.476,207.275L575.479,207.276L575.48,207.278L575.481,207.28L575.482,207.281L575.483,207.282L575.484,207.282L575.485,207.282L575.486,207.28L575.488,207.281L575.489,207.282L575.499,207.295L575.5,207.294L575.502,207.293L575.503,207.292L575.504,207.292L575.505,207.293L575.505,207.294L575.503,207.294L575.503,207.295L575.504,207.295L575.506,207.296L575.507,207.298L575.509,207.299L575.511,207.299L575.512,207.297L575.51,207.296L575.509,207.295L575.508,207.294L575.508,207.294L575.509,207.292L575.51,207.293L575.511,207.295L575.512,207.295L575.512,207.294L575.513,207.292L575.514,207.291L575.516,207.291L575.518,207.291L575.518,207.29L575.519,207.288L575.518,207.285L575.517,207.283L575.515,207.281L575.514,207.279L575.514,207.279L575.514,207.277L575.515,207.274L575.516,207.271L575.519,207.267L575.522,207.266L575.523,207.266L575.523,207.267L575.524,207.27L575.525,207.275L575.526,207.277L575.526,207.277L575.532,207.28L575.537,207.282L575.54,207.283L575.543,207.283L575.545,207.282L575.545,207.282L575.544,207.284L575.53,207.319L575.53,207.325L575.531,207.338L575.531,207.341L575.532,207.342L575.54,207.347L575.539,207.351L575.539,207.353L575.539,207.354L575.541,207.359L575.555,207.362L575.562,207.363L575.574,207.365L575.581,207.366L575.579,207.362L575.578,207.357L575.578,207.352L575.577,207.348L575.573,207.348L575.572,207.347L575.571,207.347L575.57,207.346L575.566,207.339L575.567,207.338L575.568,207.336L575.577,207.327L575.581,207.327L575.583,207.326L575.585,207.324L575.588,207.32L575.59,207.318L575.591,207.317L575.593,207.317L575.595,207.317L575.597,207.317L575.598,207.316L575.599,207.317L575.599,207.318L575.599,207.319L575.6,207.32L575.6,207.322L575.601,207.322L575.602,207.322L575.603,207.322L575.604,207.321L575.605,207.32L575.605,207.321L575.606,207.321L575.608,207.321L575.609,207.321L575.611,207.318L575.612,207.316L575.613,207.316L575.614,207.316L575.616,207.317L575.619,207.317L575.621,207.317L575.622,207.316L575.623,207.315L575.623,207.313L575.637,207.317L575.646,207.32L575.647,207.32L575.664,207.326L575.682,207.331L575.693,207.335L575.696,207.336L575.696,207.337L575.69,207.339L575.683,207.341L575.679,207.343L575.674,207.345L575.673,207.345L575.671,207.346L575.669,207.348L575.665,207.351L575.662,207.353L575.662,207.354L575.659,207.355L575.655,207.36L575.654,207.362L575.653,207.363L575.65,207.367L575.64,207.384L575.624,207.391L575.609,207.402L575.597,207.411L575.583,207.421L575.581,207.424L575.579,207.426L575.575,207.432L575.572,207.443L575.57,207.447L575.571,207.46L575.575,207.472L575.575,207.473L575.574,207.478L575.574,207.479L575.569,207.486L575.567,207.488L575.561,207.49L575.556,207.488L575.554,207.485L575.553,207.484L575.553,207.473L575.554,207.459L575.549,207.444L575.542,207.444L575.529,207.449L575.526,207.449L575.517,207.451L575.51,207.45L575.506,207.448L575.503,207.447L575.499,207.444L575.495,207.44L575.486,207.435L575.482,207.432L575.481,207.43L575.478,207.428L575.475,207.424L575.47,207.417L575.464,207.408L575.459,207.399L575.451,207.39L575.433,207.377L575.424,207.371L575.418,207.367L575.414,207.363L575.413,207.362L575.41,207.36L575.406,207.358L575.402,207.357L575.396,207.355L575.392,207.355L575.39,207.356L575.388,207.355L575.385,207.355L575.385,207.355L575.384,207.355L575.384,207.356L575.384,207.356L575.384,207.358L575.383,207.358L575.38,207.359L575.377,207.358L575.375,207.357L575.373,207.357L575.367,207.356L575.364,207.356L575.361,207.356L575.359,207.355L575.358,207.354L575.356,207.352L575.354,207.352L575.346,207.352L575.342,207.352L575.338,207.353L575.334,207.353L575.333,207.352L575.333,207.351L575.335,207.349L575.337,207.349L575.34,207.348L575.344,207.344L575.348,207.342L575.355,207.336L575.356,207.333L575.35,207.327L575.349,207.307L575.347,207.3L575.344,207.297L575.34,207.292L575.339,207.289L575.341,207.288L575.343,207.288L575.346,207.289L575.348,207.29L575.351,207.294L575.355,207.297L575.359,207.301L575.36,207.302L575.362,207.302L575.363,207.301L575.364,207.3L575.364,207.298L575.369,207.294L575.369,207.292L575.367,207.29L575.367,207.29L575.366,207.287L575.364,207.284L575.362,207.283L575.355,207.282L575.349,207.282L575.344,207.284L575.339,207.284L575.336,207.283L575.334,207.282L575.332,207.282L575.326,207.283L575.314,207.286L575.305,207.287L575.295,207.285L575.292,207.285L575.291,207.287L575.29,207.289L575.292,207.294L575.296,207.299L575.3,207.306L575.303,207.315L575.304,207.315L575.309,207.333L575.304,207.337L575.305,207.341L575.305,207.352L575.306,207.354L575.305,207.357L575.305,207.357L575.305,207.357L575.303,207.357L575.302,207.357L575.301,207.357L575.3,207.358L575.3,207.358L575.3,207.359L575.3,207.36L575.301,207.36L575.302,207.36L575.303,207.361L575.305,207.362L575.306,207.362L575.307,207.364L575.31,207.365L575.316,207.363L575.316,207.37L575.316,207.377L575.317,207.389L575.317,207.393L575.317,207.394L575.316,207.395L575.248,207.387L575.225,207.385L575.216,207.385L575.192,207.388L575.171,207.394L575.144,207.399L575.131,207.403L575.107,207.412L575.112,207.424L575.114,207.428L575.116,207.431L575.121,207.434L575.133,207.439L575.116,207.463L575.094,207.493L575.088,207.501L575.086,207.501L575.073,207.502L575.044,207.504L575.024,207.506L575.025,207.508L575.026,207.52L575.027,207.546L575.029,207.547L575.032,207.571L575.034,207.598L575.035,207.61L575.043,207.611L575.043,207.675L575.036,207.678L574.986,207.671L574.973,207.837L574.935,207.892L575.093,207.947L575.142,207.964L575.279,208.014L575.243,208.1L575.278,208.115L575.306,208.125L575.334,208.136L575.368,208.147L575.398,208.157L575.425,208.244L575.443,208.306L575.535,208.313L575.562,208.315L575.632,208.32L575.684,208.368L575.788,208.463L575.881,208.55L575.917,208.584L575.953,208.563L575.991,208.539L576.018,208.533L576.044,208.526L576.094,208.511L576.121,208.502L576.142,208.495L576.164,208.488L576.249,208.555L576.261,208.565L576.254,208.585L576.201,208.712L576.19,208.74L576.195,208.771L576.197,208.78L576.203,208.815L576.233,208.988L576.234,208.991L576.26,209.006L576.307,209.03L576.332,209.094L576.401,209.262L576.402,209.264L576.424,209.266L576.455,209.268L576.5,209.272L576.509,209.318L576.519,209.365L576.536,209.451L576.616,209.56L576.68,209.648L576.779,209.739L576.825,209.782L576.862,209.811L576.888,209.831L576.923,209.858L576.961,209.887L576.998,209.916L577.038,209.946L577.073,209.973L577.112,210.003L577.167,210.012L577.212,210.012L577.25,210.015L577.3,210.019L577.331,210.022L577.385,209.968L577.466,209.887L577.496,209.857L577.515,209.838L577.564,209.789L577.573,209.771L577.578,209.766L577.61,209.737L577.695,209.658L577.72,209.634L577.752,209.605L577.809,209.557L577.84,209.556L577.838,209.55L577.839,209.543L577.844,209.543L577.847,209.545L577.856,209.542L577.857,209.539L577.861,209.538L577.873,209.542L577.888,209.542L577.892,209.541L577.895,209.541L577.897,209.543L577.899,209.542L577.902,209.544L577.907,209.544L577.911,209.544L577.914,209.545L577.919,209.545L577.92,209.543L577.922,209.543L577.923,209.542L577.935,209.542L577.948,209.557L577.962,209.574L577.995,209.6L578.039,209.63L578.122,209.687L578.122,209.691L578.099,209.698L578.085,209.703L578.07,209.711L578.056,209.716L578.041,209.72L578.017,209.728L578.003,209.734L577.99,209.739L577.979,209.743L577.944,209.76L577.925,209.77L577.908,209.779L577.885,209.793L577.863,209.804L577.837,209.819L577.806,209.838L577.782,209.853L577.781,209.853L577.748,209.882L577.734,209.894L577.714,209.912L577.7,209.924L577.681,209.941L577.657,209.962L577.614,209.999L577.59,210.021L577.566,210.041L577.561,210.045L577.56,210.046L577.571,210.072L577.583,210.1L577.615,210.177L577.669,210.304L577.683,210.339L577.701,210.382L577.705,210.393L577.707,210.397L577.717,210.42L577.726,210.442L577.736,210.466L577.741,210.478L577.765,210.536L577.794,210.602L577.824,210.675L577.85,210.733L577.852,210.738L577.86,210.758L577.868,210.778L577.878,210.801L577.885,210.817L577.888,210.824L577.888,210.826L577.899,210.855L577.964,210.903L578.028,211.055L578.166,211.067L578.27,211.099L578.289,211.299L578.298,211.343L578.275,211.446L578.262,211.729L578.179,211.856L578.11,211.962L578.199,212.111L578.218,212.141L578.229,212.159L578.239,212.175L578.251,212.193L578.253,212.214L578.256,212.236L578.259,212.258L578.261,212.279L578.264,212.301L578.267,212.322L578.269,212.344L578.271,212.357L578.274,212.384L578.262,212.382L578.238,212.378L578.217,212.374L578.196,212.37L578.108,212.356L578.068,212.36L578.024,212.365L578.01,212.367L577.958,212.373L577.913,212.378L577.867,212.384L577.848,212.386L577.822,212.389L577.802,212.391L577.779,212.394L577.772,212.395L577.76,212.409L577.748,212.423L577.744,212.429L577.741,212.433L577.712,212.468L577.704,212.478L577.67,212.52L577.651,212.544L577.601,212.604L577.557,212.58L577.508,212.552L577.471,212.58L577.445,212.601L577.407,212.629L577.375,212.654L577.356,212.669L577.335,212.686L577.337,212.693L577.337,212.696L577.338,212.702L577.342,212.716L577.372,212.728L577.434,212.754L577.473,212.769L577.502,212.781L577.488,212.822L577.476,212.855L577.464,212.891L577.458,212.907L577.449,212.934L577.44,212.957L577.432,212.982L577.432,212.984L577.417,213.025L577.416,213.03L577.417,213.035L577.418,213.074L577.418,213.078L577.418,213.121L577.419,213.158L577.42,213.234L577.42,213.265L577.421,213.286L577.421,213.31L577.422,213.357L577.423,213.394L577.423,213.445L577.425,213.54L577.305,213.543L577.233,213.545L577.184,213.546L577.177,213.579L577.168,213.621L577.159,213.662L577.171,213.678L577.194,213.706L577.221,213.739L577.235,213.756L577.28,213.81L577.3,213.834L577.335,213.876L577.353,213.898L577.408,213.908L577.453,213.916L577.548,213.934L577.583,213.941L577.578,213.966L577.566,214.022L577.56,214.038L577.513,214.104L577.488,214.139L577.463,214.174L577.498,214.186L577.552,214.204L577.585,214.217L577.685,214.25L577.731,214.266L577.777,214.281L577.823,214.298L577.813,214.333L577.806,214.367L577.821,214.379L577.857,214.379L577.861,214.378L577.892,214.378L577.916,214.377L577.937,214.418L577.949,214.468L578.023,214.496L578.091,214.487L578.094,214.482L578.128,214.462L578.182,214.444L578.182,214.443L578.211,214.434L578.248,214.422L578.268,214.39L578.282,214.368L578.321,214.372L578.337,214.374L578.396,214.379L578.434,214.382L578.461,214.384L578.467,214.385L578.474,214.385L578.48,214.384L578.492,214.384L578.511,214.386L578.564,214.39L578.588,214.39L578.604,214.386L578.608,214.385L578.617,214.384L578.639,214.382L578.664,214.371L578.687,214.37L578.697,214.352L578.703,214.348L578.717,214.336L578.738,214.319L578.758,214.309L578.785,214.297L578.807,214.301L578.817,214.282L578.823,214.27L578.822,214.264L578.821,214.26L578.822,214.248L578.824,214.239L578.827,214.23L578.839,214.231L578.854,214.236L578.878,214.243L578.885,214.246L578.896,214.249L578.9,214.25L578.904,214.251L578.909,214.251L578.917,214.252L578.923,214.253L578.927,214.253L578.933,214.253L578.949,214.255L578.956,214.256L578.958,214.256L578.963,214.254L578.972,214.254L578.975,214.254L578.976,214.255L578.983,214.254L578.989,214.256L578.994,214.256L578.997,214.257L579.002,214.261L579.002,214.267L579.002,214.269L579.002,214.275L579.001,214.278L579.001,214.279L579.002,214.282L579.018,214.284L579.039,214.285L579.055,214.288L579.061,214.289L579.066,214.289L579.079,214.296L579.082,214.296L579.092,214.296L579.108,214.292L579.133,214.304L579.149,214.305L579.164,214.295L579.171,214.29L579.199,214.272L579.206,214.275L579.214,214.286L579.223,214.298L579.233,214.301L579.246,214.303L579.258,214.313L579.26,214.319L579.26,214.327L579.261,214.332L579.268,214.341L579.273,214.343L579.274,214.347L579.269,214.349L579.254,214.349L579.241,214.363L579.227,214.373L579.224,214.375L579.222,214.376L579.219,214.377L579.217,214.377L579.211,214.377L579.208,214.376L579.203,214.374L579.201,214.372L579.196,214.371L579.189,214.37L579.176,214.368L579.163,214.37L579.153,214.391L579.156,214.399L579.165,214.411L579.172,214.425L579.171,214.462L579.169,214.468L579.167,214.482L579.17,214.5L579.171,214.505L579.172,214.51L579.174,214.516L579.174,214.526L579.175,214.535L579.178,214.54L579.181,214.55L579.183,214.559L579.199,214.581L579.211,214.609L579.212,214.61L579.225,214.625L579.246,214.64L579.266,214.656L579.269,214.662L579.27,214.662L579.273,214.662L579.275,214.703L579.275,214.725L579.275,214.748L579.276,214.75L579.277,214.753L579.278,214.759L579.278,214.766L579.278,214.772L579.277,214.779L579.276,214.786L579.274,214.791L579.273,214.794L579.27,214.799L579.269,214.8L579.265,214.809L579.261,214.822L579.259,214.831L579.259,214.839L579.259,214.841L579.259,214.845L579.258,214.849L579.258,214.851L579.252,214.878L579.288,214.904L579.291,214.906L579.482,215.047L579.577,215.117L579.582,215.12L579.582,215.12L579.585,215.123L579.591,215.127L579.601,215.135L579.711,215.215L579.833,215.208L579.889,215.201L579.944,215.187L579.976,215.178L580.017,215.163L580.056,215.144L580.093,215.123L580.128,215.098L580.161,215.069L580.191,215.038L580.218,215.004L580.225,214.995L580.405,214.769L580.556,214.743L580.822,214.837L580.873,214.852L580.926,214.861L581.08,214.879L581.128,214.883L581.177,214.881L581.224,214.874L581.314,214.85L581.366,214.831L581.414,214.807L581.452,214.785L581.493,214.759L581.532,214.728L581.567,214.693L581.598,214.655L581.625,214.614L581.648,214.57L581.677,214.507L581.693,214.468L581.705,214.428L581.714,214.387L581.719,214.345L581.721,214.315L581.785,214.201L581.982,214.038L582.242,213.906L582.295,213.875L582.32,213.858L582.362,213.826L582.4,213.789L582.529,213.651L582.69,213.518L582.915,213.433L583.144,213.347L583.083,213.289L583.047,213.253L582.964,213.173L582.903,213.101L582.886,213.081L582.878,213.069L582.85,213.033L582.836,213.008L582.703,213.029L582.667,213.033L582.575,213.024L582.511,212.992L582.399,212.925L582.29,212.86L582.236,212.828L582.112,212.754L582.106,212.751L582.104,212.749L582.064,212.688L582.034,212.642L582.024,212.626L581.988,212.569L581.985,212.566L581.966,212.549L581.938,212.533L581.934,212.533L581.924,212.533L581.918,212.534L581.908,212.537L581.903,212.536L581.897,212.533L581.893,212.531L581.887,212.525L581.884,212.523L581.873,212.518L581.871,212.518L581.868,212.519L581.865,212.523L581.855,212.523L581.853,212.523L581.852,212.525L581.85,212.526L581.846,212.527L581.841,212.53L581.836,212.53L581.825,212.525L581.818,212.522L581.807,212.518L581.803,212.517L581.793,212.516L581.779,212.516L581.772,212.515L581.763,212.513L581.756,212.511L581.742,212.502L581.729,212.487L581.72,212.47L581.71,212.458L581.674,212.431L581.67,212.427L581.663,212.424L581.643,212.414L581.62,212.408L581.593,212.408L581.589,212.408L581.58,212.404L581.571,212.391L581.56,212.383L581.53,212.372L581.52,212.371L581.516,212.366L581.512,212.359L581.506,212.349L581.498,212.34L581.493,212.331L581.488,212.322L581.483,212.315L581.481,212.312L581.476,212.305L581.472,212.301L581.464,212.297L581.455,212.297L581.446,212.299L581.432,212.304L581.397,212.307L581.387,212.304L581.378,212.3L581.371,212.294L581.366,212.287L581.363,212.281L581.361,212.272L581.358,212.262L581.349,212.251L581.341,212.239L581.332,212.223L581.32,212.207L581.317,212.201L581.314,212.191L581.313,212.185L581.313,212.176L581.312,212.172L581.313,212.168L581.312,212.162L581.312,212.159L581.313,212.155L581.313,212.153L581.312,212.151L581.311,212.15L581.308,212.15L581.307,212.15L581.305,212.15L581.302,212.151L581.301,212.153L581.299,212.156L581.292,212.157L581.287,212.157L581.282,212.157L581.277,212.155L581.271,212.153L581.258,212.138L581.255,212.135L581.253,212.134L581.247,212.13L581.24,212.129L581.221,212.125L581.21,212.121L581.206,212.117L581.201,212.111L581.196,212.107L581.191,212.105L581.179,212.102L581.171,212.099L581.165,212.1L581.161,212.103L581.157,212.105L581.151,212.107L581.144,212.106L581.141,212.105L581.138,212.105L581.135,212.106L581.131,212.108L581.129,212.11L581.128,212.113L581.126,212.115L581.124,212.115L581.119,212.117L581.114,212.117L581.102,212.113L581.099,212.113L581.095,212.112L581.086,212.109L581.083,212.107L581.08,212.106L581.077,212.107L581.074,212.108L581.069,212.109L581.064,212.109L581.06,212.107L581.057,212.105L581.055,212.104L581.053,212.103L581.048,212.102L581.046,212.103L581.043,212.105L581.037,212.107L581.034,212.109L581.026,212.111L581.012,212.112L581.005,212.114L580.999,212.114L580.994,212.113L580.99,212.111L580.985,212.11L580.981,212.11L580.978,212.109L580.972,212.106L580.967,212.105L580.962,212.105L580.957,212.107L580.951,212.111L580.947,212.114L580.945,212.114L580.938,212.116L580.93,212.117L580.925,212.117L580.921,212.117L580.916,212.116L580.913,212.113L580.91,212.109L580.909,212.106L580.908,212.102L580.908,212.099L580.91,212.094L580.913,212.091L580.915,212.088L580.916,212.082L580.916,212.08L580.915,212.079L580.914,212.078L580.917,212.069L580.917,212.069L580.917,212.068L580.92,212.066L580.922,212.065L580.923,212.065L580.923,212.064L580.924,212.063L580.926,212.062L580.926,212.061L580.926,212.061L580.926,212.057L580.926,212.056L580.927,212.055L580.927,212.053L580.926,212.051L580.926,212.05L580.926,212.049L580.927,212.047L580.928,212.045L580.929,212.044L580.931,212.043L580.936,212.042L580.938,212.04L580.94,212.04L580.941,212.04L580.943,212.04L580.944,212.041L580.945,212.04L580.946,212.04L580.948,212.039L580.949,212.037L580.949,212.036L580.949,212.033L580.949,212.032L580.95,212.031L580.951,212.031L580.954,212.03L580.955,212.03L580.955,212.029L580.956,212.028L580.956,212.027L580.958,212.025L580.958,212.025L580.958,212.024L580.96,212.022L580.961,212.02L580.962,212.019L580.966,212.016L580.97,212.015L580.975,212.012L580.977,212.012L580.977,212.012L580.979,212.014L580.979,212.014L580.988,212.017L580.99,212.016L580.991,212.016L580.993,212.014L580.996,212.011L580.998,212.01L581,212.009L581.002,212.009L581.011,212.009L581.019,212.009L581.023,212.009L581.025,212.009L581.027,212.009L581.034,212.005L581.037,212.004L581.038,212.001L581.034,212.003L581.029,212.005L581.026,212.005L581.023,212.005L581.021,212.004L581.017,212.003L581.014,211.999L581.011,211.995L581.009,211.993L581.002,211.99L580.994,211.988L580.985,211.988L580.976,211.989L580.971,211.991L580.967,211.994L580.961,211.995L580.956,211.994L580.952,211.992L580.944,211.987L580.936,211.982L580.928,211.973L580.92,211.966L580.918,211.962L580.917,211.958L580.916,211.956L580.916,211.95L580.918,211.942L580.92,211.938L580.923,211.935L580.934,211.927L580.937,211.92L580.937,211.916L580.936,211.912L580.934,211.908L580.925,211.901L580.911,211.895L580.899,211.89L580.889,211.889L580.879,211.89L580.864,211.889L580.853,211.885L580.846,211.881L580.839,211.874L580.831,211.869L580.827,211.867L580.797,211.838L580.799,211.836L580.803,211.835L580.806,211.833L580.81,211.833L580.812,211.833L580.815,211.831L580.816,211.83L580.816,211.829ZM578.23,214.129L578.229,214.042L578.229,214.01L578.308,213.982L578.296,214.034L578.27,214.126L578.269,214.126ZM578.405,213.214L578.437,213.215L578.441,213.215L578.444,213.215L578.462,213.215L578.471,213.207L578.479,213.2L578.481,213.198L578.493,213.195L578.501,213.192L578.514,213.194L578.518,213.193L578.519,213.191L578.525,213.183L578.533,213.183L578.541,213.182L578.541,213.182L578.543,213.183L578.544,213.184L578.545,213.184L578.547,213.187L578.548,213.187L578.55,213.198L578.553,213.222L578.555,213.231L578.552,213.257L578.551,213.268L578.548,213.292L578.528,213.328L578.506,213.33L578.479,213.329L578.456,213.329L578.411,213.328L578.372,213.327L578.358,213.325L578.347,213.323L578.346,213.316L578.346,213.306L578.344,213.278L578.35,213.261L578.352,213.254L578.354,213.248L578.359,213.234L578.391,213.213ZM800,0L800,12.246L800,78.668L800,145.789L800,215.835L800,261.497L800,300L800,338.503L800,384.165L800,454.211L800,600L800,600L200,600L200,600L200,454.211L200,384.165L200,338.503L200,300L200,261.497L200,215.835L200,145.789L200,78.668L200,12.246L200,0L200,0L800,0Z"/>
<path d="M579.348,210.576m0,4.5a4.5,4.5 0 1,1 0,-9a4.5,4.5 0 1,1 0,9z"/>
<path d="M580.054,212.615m0,4.5a4.5,4.5 0 1,1 0,-9a4.5,4.5 0 1,1 0,9z"/>
</svg>