<?xml version="1.0" encoding="UTF-8"?>
<svg xmlns="http://www.w3.org/2000/svg" viewBox="0 0 1000 600" stroke="#000" stroke-width="0.3" fill="#ccc">
<path d="M571.414,220.063L571.418,220.063L571.422,220.061L571.424,220.062L571.425,220.062L571.434,220.062L571.436,220.063L571.438,220.066L571.438,220.067L571.438,220.068L571.439,220.069L571.442,220.07L571.443,220.07L571.445,220.071L571.447,220.074L571.45,220.075L571.451,220.077L571.452,220.078L571.46,220.079L571.463,220.082L571.461,220.084L571.462,220.088L571.46,220.089L571.46,220.09L571.46,220.093L571.458,220.096L571.457,220.098L571.462,220.101L571.461,220.104L571.464,220.107L571.465,220.109L571.466,220.11L571.47,220.113L571.469,220.119L571.473,220.117L571.475,220.114L571.478,220.113L571.482,220.11L571.485,220.112L571.487,220.111L571.488,220.111L571.489,220.111L571.49,220.11L571.492,220.109L571.493,220.107L571.497,220.107L571.502,220.114L571.503,220.115L571.506,220.12L571.513,220.122L571.518,220.123L571.521,220.124L571.528,220.127L571.538,220.127L571.542,220.126L571.544,220.126L571.546,220.129L571.548,220.129L571.552,220.129L571.554,220.131L571.554,220.135L571.554,220.136L571.549,220.139L571.548,220.142L571.549,220.144L571.546,220.148L571.544,220.148L571.543,220.152L571.542,220.152L571.541,220.155L571.539,220.157L571.538,220.157L571.536,220.158L571.536,220.16L571.538,220.162L571.541,220.162L571.544,220.168L571.543,220.175L571.544,220.183L571.549,220.185L571.549,220.186L571.551,220.188L571.553,220.188L571.556,220.191L571.56,220.189L571.562,220.188L571.565,220.188L571.568,220.19L571.575,220.186L571.579,220.185L571.581,220.184L571.588,220.186L571.589,220.186L571.594,220.184L571.598,220.186L571.603,220.186L571.606,220.184L571.606,220.184L571.608,220.186L571.611,220.188L571.615,220.188L571.618,220.189L571.621,220.193L571.625,220.195L571.625,220.196L571.627,220.197L571.629,220.197L571.63,220.198L571.634,220.201L571.637,220.201L571.643,220.203L571.646,220.201L571.647,220.2L571.649,220.199L571.65,220.198L571.656,220.203L571.658,220.205L571.66,220.206L571.663,220.208L571.664,220.208L571.668,220.211L571.671,220.214L571.672,220.216L571.674,220.216L571.679,220.22L571.68,220.222L571.68,220.224L571.682,220.225L571.683,220.228L571.685,220.229L571.691,220.232L571.693,220.236L571.695,220.237L571.698,220.239L571.702,220.24L571.709,220.244L571.711,220.243L571.713,220.244L571.713,220.246L571.714,220.249L571.715,220.251L571.715,220.253L571.717,220.254L571.72,220.258L571.721,220.259L571.725,220.261L571.728,220.261L571.735,220.263L571.736,220.263L571.736,220.265L571.736,220.266L571.736,220.267L571.737,220.268L571.738,220.269L571.738,220.27L571.736,220.273L571.734,220.275L571.733,220.277L571.733,220.277L571.729,220.279L571.727,220.281L571.722,220.282L571.721,220.283L571.719,220.284L571.718,220.284L571.717,220.284L571.714,220.284L571.713,220.285L571.712,220.287L571.712,220.29L571.709,220.291L571.708,220.292L571.707,220.293L571.706,220.293L571.701,220.298L571.699,220.303L571.695,220.306L571.693,220.307L571.694,220.313L571.697,220.317L571.699,220.318L571.701,220.321L571.703,220.325L571.705,220.326L571.705,220.327L571.705,220.329L571.705,220.33L571.705,220.332L571.706,220.333L571.706,220.334L571.706,220.336L571.709,220.342L571.711,220.347L571.713,220.349L571.713,220.353L571.71,220.356L571.71,220.359L571.71,220.36L571.712,220.36L571.717,220.364L571.717,220.366L571.719,220.366L571.72,220.366L571.722,220.368L571.722,220.369L571.726,220.371L571.727,220.376L571.731,220.381L571.729,220.394L571.728,220.397L571.725,220.401L571.727,220.402L571.73,220.402L571.734,220.403L571.738,220.403L571.739,220.404L571.738,220.408L571.74,220.412L571.741,220.413L571.741,220.413L571.743,220.414L571.746,220.416L571.747,220.416L571.747,220.417L571.747,220.417L571.748,220.419L571.748,220.42L571.749,220.422L571.75,220.424L571.752,220.426L571.752,220.426L571.755,220.426L571.757,220.426L571.758,220.427L571.76,220.427L571.76,220.428L571.761,220.428L571.762,220.428L571.763,220.428L571.765,220.43L571.768,220.431L571.77,220.433L571.775,220.435L571.776,220.437L571.779,220.437L571.78,220.437L571.783,220.438L571.785,220.44L571.784,220.444L571.785,220.45L571.786,220.452L571.792,220.451L571.794,220.451L571.796,220.452L571.797,220.452L571.798,220.454L571.799,220.455L571.801,220.458L571.802,220.459L571.804,220.463L571.805,220.465L571.807,220.465L571.807,220.467L571.811,220.469L571.811,220.47L571.813,220.471L571.816,220.472L571.819,220.47L571.82,220.471L571.823,220.47L571.825,220.47L571.829,220.472L571.835,220.471L571.837,220.472L571.839,220.471L571.84,220.472L571.843,220.471L571.844,220.471L571.846,220.471L571.847,220.471L571.848,220.471L571.85,220.471L571.852,220.471L571.855,220.471L571.856,220.473L571.856,220.476L571.856,220.476L571.858,220.481L571.86,220.485L571.86,220.487L571.862,220.489L571.864,220.49L571.866,220.492L571.866,220.493L571.867,220.494L571.868,220.494L571.871,220.494L571.872,220.496L571.874,220.496L571.88,220.501L571.881,220.501L571.882,220.502L571.884,220.503L571.886,220.503L571.889,220.503L571.888,220.507L571.889,220.512L571.888,220.514L571.889,220.515L571.889,220.516L571.891,220.517L571.897,220.52L571.901,220.522L571.902,220.523L571.903,220.524L571.902,220.525L571.903,220.528L571.903,220.53L571.905,220.531L571.904,220.533L571.904,220.534L571.905,220.538L571.906,220.54L571.907,220.54L571.908,220.541L571.909,220.541L571.912,220.541L571.913,220.542L571.917,220.543L571.922,220.544L571.928,220.544L571.93,220.542L571.931,220.542L571.933,220.543L571.934,220.544L571.936,220.545L571.94,220.547L571.94,220.547L571.942,220.548L571.943,220.547L571.947,220.55L571.951,220.551L571.955,220.554L571.957,220.558L571.96,220.562L571.963,220.565L571.966,220.567L571.966,220.572L571.967,220.576L571.97,220.583L571.971,220.584L571.972,220.587L571.974,220.59L571.975,220.591L571.976,220.594L571.975,220.598L571.974,220.6L571.973,220.604L571.974,220.607L571.975,220.609L571.977,220.612L571.98,220.611L571.984,220.613L571.986,220.613L571.989,220.614L571.992,220.615L571.995,220.617L571.998,220.618L571.999,220.619L572.003,220.622L572.005,220.626L572.008,220.628L572.011,220.628L572.015,220.625L572.018,220.623L572.022,220.624L572.027,220.626L572.03,220.625L572.036,220.626L572.04,220.626L572.043,220.625L572.045,220.624L572.049,220.626L572.052,220.626L572.055,220.627L572.055,220.63L572.059,220.637L572.061,220.639L572.064,220.642L572.066,220.643L572.069,220.642L572.072,220.642L572.075,220.643L572.081,220.644L572.084,220.646L572.087,220.646L572.089,220.645L572.092,220.644L572.097,220.645L572.102,220.646L572.103,220.646L572.108,220.647L572.118,220.648L572.122,220.646L572.126,220.649L572.13,220.652L572.134,220.652L572.139,220.653L572.142,220.654L572.146,220.656L572.151,220.656L572.154,220.658L572.155,220.659L572.156,220.662L572.157,220.666L572.157,220.669L572.16,220.669L572.163,220.671L572.164,220.673L572.165,220.677L572.167,220.681L572.173,220.676L572.177,220.672L572.183,220.669L572.191,220.665L572.196,220.664L572.198,220.668L572.201,220.672L572.202,220.674L572.207,220.677L572.211,220.678L572.214,220.682L572.217,220.689L572.218,220.691L572.219,220.694L572.224,220.699L572.225,220.701L572.22,220.71L572.221,220.711L572.222,220.717L572.222,220.717L572.225,220.72L572.227,220.72L572.233,220.721L572.238,220.72L572.242,220.718L572.248,220.715L572.25,220.715L572.254,220.718L572.255,220.719L572.258,220.72L572.261,220.721L572.27,220.719L572.275,220.718L572.277,220.716L572.281,220.713L572.283,220.712L572.29,220.709L572.295,220.708L572.302,220.705L572.305,220.703L572.309,220.7L572.314,220.699L572.317,220.699L572.321,220.701L572.324,220.702L572.33,220.704L572.331,220.704L572.334,220.689L572.346,220.678L572.346,220.676L572.347,220.673L572.347,220.67L572.349,220.666L572.35,220.664L572.351,220.662L572.352,220.661L572.353,220.658L572.355,220.655L572.355,220.654L572.356,220.651L572.357,220.65L572.361,220.648L572.363,220.645L572.364,220.645L572.365,220.645L572.365,220.645L572.368,220.644L572.369,220.643L572.37,220.642L572.374,220.64L572.375,220.638L572.377,220.637L572.378,220.636L572.378,220.634L572.378,220.629L572.378,220.626L572.378,220.626L572.378,220.624L572.377,220.621L572.376,220.615L572.377,220.611L572.379,220.595L572.377,220.591L572.375,220.589L572.375,220.588L572.378,220.586L572.378,220.585L572.381,220.585L572.382,220.584L572.382,220.58L572.383,220.578L572.386,220.573L572.386,220.569L572.387,220.565L572.392,220.563L572.39,220.558L572.39,220.556L572.39,220.553L572.387,220.551L572.391,220.551L572.392,220.551L572.393,220.549L572.395,220.548L572.399,220.547L572.401,220.546L572.402,220.543L572.405,220.539L572.409,220.539L572.414,220.541L572.419,220.541L572.424,220.541L572.429,220.542L572.433,220.546L572.435,220.548L572.437,220.55L572.439,220.553L572.443,220.555L572.445,220.557L572.447,220.56L572.451,220.559L572.453,220.559L572.456,220.559L572.458,220.56L572.463,220.558L572.465,220.557L572.469,220.556L572.476,220.556L572.477,220.557L572.482,220.558L572.485,220.561L572.487,220.56L572.49,220.558L572.497,220.554L572.499,220.554L572.502,220.553L572.505,220.555L572.509,220.554L572.51,220.555L572.513,220.553L572.515,220.554L572.517,220.557L572.518,220.558L572.519,220.563L572.521,220.565L572.522,220.567L572.53,220.571L572.532,220.572L572.534,220.575L572.536,220.579L572.539,220.577L572.542,220.576L572.544,220.577L572.547,220.582L572.547,220.583L572.547,220.584L572.547,220.585L572.55,220.586L572.552,220.588L572.554,220.591L572.555,220.593L572.555,220.594L572.556,220.595L572.556,220.595L572.557,220.595L572.558,220.595L572.559,220.595L572.562,220.596L572.562,220.597L572.564,220.597L572.569,220.595L572.571,220.594L572.572,220.594L572.576,220.594L572.576,220.594L572.58,220.594L572.583,220.594L572.587,220.596L572.591,220.596L572.595,220.595L572.601,220.602L572.603,220.602L572.605,220.603L572.607,220.602L572.607,220.602L572.612,220.6L572.613,220.602L572.615,220.601L572.62,220.599L572.62,220.596L572.62,220.595L572.62,220.593L572.621,220.59L572.623,220.587L572.625,220.585L572.627,220.584L572.629,220.582L572.629,220.58L572.629,220.579L572.629,220.578L572.628,220.574L572.628,220.573L572.63,220.569L572.63,220.567L572.631,220.564L572.631,220.562L572.63,220.561L572.631,220.558L572.632,220.556L572.633,220.555L572.635,220.552L572.637,220.55L572.64,220.549L572.644,220.549L572.648,220.55L572.649,220.548L572.65,220.548L572.652,220.547L572.654,220.545L572.654,220.544L572.655,220.544L572.655,220.543L572.656,220.543L572.657,220.54L572.656,220.539L572.657,220.538L572.657,220.536L572.658,220.534L572.658,220.533L572.658,220.532L572.658,220.532L572.658,220.531L572.658,220.53L572.658,220.53L572.658,220.528L572.658,220.527L572.658,220.527L572.658,220.526L572.657,220.525L572.658,220.524L572.657,220.523L572.657,220.521L572.657,220.52L572.657,220.519L572.658,220.519L572.664,220.517L572.669,220.516L572.669,220.512L572.67,220.509L572.671,220.508L572.671,220.507L572.67,220.504L572.669,220.499L572.671,220.498L572.674,220.497L572.676,220.496L572.68,220.495L572.683,220.494L572.685,220.493L572.685,220.491L572.686,220.489L572.686,220.485L572.686,220.482L572.687,220.482L572.688,220.48L572.689,220.48L572.689,220.479L572.688,220.476L572.688,220.474L572.689,220.472L572.691,220.469L572.694,220.466L572.697,220.46L572.699,220.455L572.705,220.445L572.706,220.442L572.707,220.438L572.7,220.433L572.697,220.43L572.696,220.426L572.698,220.419L572.696,220.412L572.693,220.408L572.689,220.403L572.683,220.399L572.682,220.396L572.683,220.384L572.687,220.376L572.698,220.365L572.705,220.363L572.721,220.361L572.727,220.357L572.726,220.352L572.73,220.346L572.729,220.34L572.732,220.332L572.74,220.326L572.743,220.316L572.747,220.31L572.746,220.306L572.739,220.297L572.741,220.292L572.742,220.289L572.739,220.28L572.741,220.273L572.745,220.265L572.745,220.257L572.749,220.249L572.75,220.243L572.753,220.239L572.762,220.233L572.778,220.224L572.788,220.221L572.812,220.197L572.825,220.191L572.828,220.189L572.831,220.184L572.833,220.179L572.837,220.174L572.839,220.17L572.843,220.169L572.848,220.168L572.85,220.17L572.873,220.169L572.885,220.166L572.891,220.164L572.895,220.164L572.899,220.163L572.904,220.165L572.906,220.163L572.908,220.16L572.908,220.156L572.91,220.15L572.907,220.143L572.907,220.132L572.91,220.122L572.913,220.118L572.917,220.115L572.918,220.112L572.911,220.108L572.877,220.09L572.876,220.088L572.877,220.083L572.883,220.075L572.887,220.069L572.891,220.058L572.894,220.052L572.896,220.05L572.901,220.042L572.903,220.038L572.907,220.036L572.908,220.031L572.909,220.02L572.912,220.014L572.912,220.001L572.914,219.997L572.915,219.989L572.918,219.985L572.918,219.979L572.918,219.967L572.917,219.963L572.922,219.955L572.927,219.946L572.934,219.938L572.938,219.935L572.94,219.933L572.941,219.931L572.942,219.929L572.942,219.927L572.943,219.927L572.944,219.927L572.948,219.921L572.95,219.919L572.952,219.916L572.953,219.913L572.954,219.908L572.958,219.901L572.964,219.896L572.978,219.849L572.983,219.836L573.015,219.784L573.05,219.731L573.078,219.763L573.093,219.78L573.099,219.787L573.102,219.796L573.102,219.799L573.103,219.801L573.103,219.802L573.102,219.803L573.102,219.804L573.103,219.805L573.103,219.807L573.103,219.808L573.104,219.808L573.103,219.811L573.104,219.812L573.104,219.813L573.103,219.822L573.103,219.829L573.102,219.834L573.102,219.838L573.101,219.841L573.102,219.843L573.101,219.846L573.102,219.848L573.101,219.852L573.113,219.856L573.132,219.865L573.187,219.885L573.188,219.897L573.194,219.909L573.2,219.919L573.206,219.915L573.21,219.913L573.204,219.905L573.199,219.9L573.199,219.897L573.202,219.884L573.206,219.871L573.21,219.863L573.22,219.845L573.226,219.833L573.229,219.827L573.234,219.815L573.241,219.816L573.297,219.835L573.314,219.84L573.329,219.845L573.329,219.846L573.337,219.848L573.34,219.85L573.341,219.85L573.333,219.859L573.327,219.868L573.324,219.872L573.319,219.883L573.315,219.892L573.309,219.904L573.292,219.908L573.286,219.914L573.291,219.92L573.301,219.934L573.314,219.954L573.328,219.972L573.337,219.986L573.368,219.961L573.377,219.954L573.386,219.947L573.403,219.915L573.417,219.9L573.424,219.893L573.438,219.893L573.447,219.889L573.455,219.884L573.459,219.884L573.461,219.883L573.472,219.887L573.484,219.875L573.491,219.868L573.497,219.859L573.496,219.851L573.491,219.842L573.489,219.837L573.489,219.829L573.484,219.813L573.481,219.801L573.47,219.784L573.468,219.781L573.44,219.736L573.439,219.733L573.438,219.732L573.434,219.727L573.403,219.676L573.396,219.664L573.401,219.657L573.404,219.649L573.417,219.635L573.424,219.628L573.43,219.62L573.436,219.614L573.436,219.613L573.444,219.598L573.446,219.594L573.461,219.572L573.463,219.566L573.475,219.56L573.481,219.55L573.506,219.518L573.508,219.513L573.51,219.503L573.514,219.493L573.509,219.484L573.569,219.47L573.572,219.47L573.577,219.469L573.58,219.479L573.588,219.491L573.591,219.5L573.594,219.518L573.609,219.529L573.617,219.552L573.617,219.571L573.62,219.598L573.621,219.602L573.621,219.614L573.62,219.628L573.623,219.643L573.627,219.655L573.627,219.674L573.635,219.666L573.646,219.656L573.662,219.641L573.669,219.635L573.738,219.572L573.779,219.535L573.793,219.52L573.806,219.507L573.832,219.478L573.851,219.458L573.864,219.444L573.869,219.439L573.871,219.443L573.873,219.442L573.875,219.444L573.878,219.446L573.889,219.454L573.894,219.461L573.898,219.469L573.898,219.479L573.898,219.484L573.901,219.488L573.902,219.49L573.902,219.494L573.904,219.497L573.906,219.499L573.907,219.501L573.906,219.502L573.905,219.505L573.906,219.509L573.908,219.511L573.909,219.515L573.911,219.517L573.914,219.521L573.926,219.536L573.926,219.541L573.926,219.561L573.922,219.569L573.925,219.572L573.969,219.563L573.969,219.556L573.973,219.548L574.07,219.491L574.064,219.485L574.06,219.481L574.055,219.476L574.051,219.47L574.049,219.462L574.045,219.453L574.039,219.454L574.036,219.452L574.035,219.448L574.031,219.448L574.023,219.434L574.051,219.369L574.059,219.348L574.069,219.342L574.069,219.341L574.08,219.331L574.072,219.32L574.068,219.308L574.073,219.275L574.075,219.256L574.076,219.244L574.075,219.231L574.075,219.23L574.074,219.227L574.111,219.159L574.126,219.135L574.124,219.133L574.103,219.11L574.067,219.085L574.06,219.081L574.058,219.08L574.059,219.076L574.063,219.076L574.066,219.072L574.066,219.067L574.067,219.064L574.067,219.061L574.069,219.051L574.068,219.047L574.068,219.047L574.069,219.047L574.069,219.046L574.068,219.044L574.066,219.043L574.065,219.042L574.065,219.041L574.063,219.043L574.062,219.043L574.062,219.043L574.06,219.043L574.06,219.04L574.061,219.038L574.063,219.037L574.062,219.035L574.06,219.034L574.062,219.032L574.062,219.03L574.061,219.028L574.06,219.024L574.059,219.017L574.059,219.015L574.058,219.012L574.058,219.01L574.06,219.009L574.06,219.003L574.057,218.997L574.056,218.993L574.058,218.99L574.057,218.988L574.056,218.986L574.053,218.986L574.051,218.984L574.05,218.982L574.049,218.981L574.048,218.98L574.049,218.978L574.051,218.977L574.052,218.977L574.051,218.976L574.049,218.973L574.048,218.971L574.047,218.97L574.046,218.969L574.046,218.966L574.044,218.964L574.046,218.961L574.045,218.959L574.044,218.959L574.044,218.957L574.047,218.955L574.046,218.954L574.047,218.952L574.051,218.951L574.052,218.946L574.052,218.936L574.051,218.923L574.052,218.918L574.05,218.915L574.05,218.912L574.05,218.904L574.05,218.902L574.049,218.901L574.049,218.899L574.045,218.898L574.027,218.903L574.018,218.902L574.013,218.9L574.007,218.891L574.003,218.886L573.994,218.886L573.967,218.884L573.957,218.881L573.951,218.885L573.941,218.9L573.937,218.907L573.931,218.91L573.909,218.908L573.898,218.903L573.894,218.911L573.891,218.916L573.889,218.919L573.885,218.916L573.877,218.908L573.867,218.913L573.865,218.913L573.851,218.898L573.838,218.892L573.829,218.889L573.824,218.874L573.822,218.872L573.819,218.858L573.816,218.843L573.807,218.844L573.803,218.84L573.796,218.815L573.791,218.805L573.792,218.784L573.789,218.78L573.788,218.769L573.779,218.761L573.779,218.739L573.779,218.7L573.779,218.697L573.779,218.697L573.779,218.696L573.779,218.693L573.779,218.637L573.78,218.609L573.782,218.609L573.798,218.609L573.805,218.609L573.816,218.611L573.821,218.612L573.821,218.509L573.822,218.471L573.822,218.445L573.822,218.422L573.83,218.423L573.833,218.421L573.84,218.422L573.844,218.421L573.855,218.419L573.865,218.419L573.869,218.416L573.874,218.415L573.881,218.409L573.893,218.399L573.896,218.397L573.906,218.393L573.906,218.339L573.906,218.297L574.032,218.298L574.032,218.257L574.032,218.134L574.022,218.132L574.023,218.135L574.022,218.139L574.021,218.145L574.016,218.146L574.01,218.147L574.006,218.149L574,218.152L573.997,218.151L573.992,218.151L573.991,218.149L573.984,218.15L573.982,218.149L573.977,218.148L573.969,218.15L573.969,218.157L573.959,218.161L573.952,218.16L573.949,218.161L573.948,218.235L573.907,218.235L573.906,218.235L573.864,218.234L573.864,218.255L573.823,218.255L573.823,218.255L573.782,218.255L573.781,218.361L573.743,218.361L573.732,218.36L573.709,218.361L573.708,218.338L573.573,218.337L573.573,218.241L573.521,218.241L573.49,218.24L573.407,218.24L573.361,218.24L573.354,218.24L573.312,218.24L573.312,218.204L573.241,218.203L573.241,218.149L573.22,218.149L573.22,218.129L573.218,218.129L573.213,218.13L573.211,218.13L573.209,218.125L573.204,218.125L573.201,218.127L573.199,218.131L573.195,218.131L573.195,218.133L573.195,218.136L573.193,218.138L573.19,218.136L573.189,218.137L573.188,218.14L573.186,218.141L573.183,218.141L573.182,218.142L573.181,218.146L573.179,218.147L573.176,218.147L573.174,218.148L573.171,218.146L573.165,218.147L573.163,218.149L573.16,218.148L573.159,218.151L573.158,218.158L573.157,218.159L573.154,218.164L573.15,218.166L573.145,218.172L573.143,218.172L573.141,218.174L573.141,218.177L573.139,218.179L573.133,218.185L573.13,218.187L573.128,218.19L573.128,218.192L573.126,218.192L573.123,218.194L573.117,218.197L573.113,218.199L573.109,218.201L573.105,218.201L573.106,218.221L573.106,218.224L573.105,218.225L573.098,218.229L573.097,218.23L573.098,218.24L573.094,218.246L573.095,218.255L573.096,218.26L573.097,218.264L573.073,218.264L573.033,218.265L573.028,218.269L573.022,218.275L573.016,218.278L573.011,218.283L573.008,218.286L573.005,218.287L573.003,218.287L572.998,218.29L572.997,218.294L572.994,218.297L572.992,218.298L572.99,218.302L572.989,218.306L572.982,218.31L572.981,218.311L572.979,218.312L572.979,218.312L572.977,218.31L572.975,218.31L572.972,218.312L572.969,218.316L572.969,218.319L572.968,218.328L572.965,218.331L572.962,218.337L572.957,218.338L572.955,218.34L572.951,218.34L572.951,218.391L572.951,218.399L572.951,218.466L572.944,218.466L572.943,218.466L572.932,218.497L572.927,218.512L572.919,218.508L572.918,218.509L572.917,218.51L572.917,218.511L572.919,218.519L572.919,218.521L572.925,218.535L572.92,218.549L572.918,218.556L572.911,218.563L572.909,218.579L572.909,218.593L572.908,218.591L572.906,218.59L572.904,218.589L572.9,218.587L572.895,218.583L572.892,218.58L572.891,218.582L572.891,218.583L572.89,218.59L572.888,218.592L572.881,218.586L572.872,218.582L572.869,218.578L572.869,218.573L572.861,218.567L572.853,218.564L572.846,218.564L572.838,218.563L572.834,218.565L572.828,218.568L572.823,218.569L572.818,218.565L572.811,218.566L572.813,218.562L572.809,218.559L572.806,218.558L572.803,218.561L572.793,218.562L572.789,218.558L572.785,218.559L572.783,218.556L572.777,218.557L572.771,218.56L572.771,218.558L572.766,218.555L572.764,218.556L572.762,218.56L572.76,218.556L572.755,218.556L572.748,218.552L572.741,218.55L572.737,218.55L572.731,218.55L572.728,218.549L572.723,218.55L572.713,218.548L572.708,218.545L572.702,218.542L572.695,218.54L572.691,218.54L572.686,218.542L572.684,218.541L572.679,218.537L572.676,218.535L572.67,218.531L572.665,218.529L572.661,218.528L572.656,218.527L572.653,218.525L572.649,218.524L572.645,218.526L572.641,218.526L572.636,218.524L572.633,218.524L572.629,218.522L572.626,218.52L572.619,218.52L572.612,218.526L572.603,218.527L572.594,218.529L572.583,218.535L572.576,218.535L572.565,218.526L572.559,218.524L572.55,218.521L572.544,218.519L572.536,218.516L572.521,218.508L572.508,218.495L572.498,218.493L572.493,218.493L572.477,218.49L572.456,218.483L572.451,218.484L572.436,218.485L572.423,218.489L572.419,218.489L572.412,218.488L572.402,218.488L572.391,218.49L572.382,218.494L572.377,218.497L572.374,218.5L572.371,218.499L572.369,218.498L572.359,218.496L572.356,218.497L572.353,218.5L572.346,218.51L572.337,218.522L572.334,218.529L572.326,218.532L572.32,218.533L572.314,218.537L572.31,218.539L572.293,218.545L572.29,218.547L572.287,218.551L572.286,218.555L572.281,218.56L572.272,218.566L572.266,218.574L572.265,218.575L572.264,218.576L572.264,218.577L572.264,218.577L572.263,218.578L572.263,218.578L572.262,218.579L572.262,218.58L572.262,218.58L572.262,218.581L572.262,218.582L572.262,218.582L572.261,218.583L572.261,218.584L572.261,218.585L572.26,218.585L572.26,218.585L572.259,218.585L572.259,218.586L572.258,218.586L572.258,218.586L572.258,218.587L572.257,218.587L572.257,218.589L572.257,218.589L572.257,218.59L572.256,218.591L572.256,218.591L572.255,218.591L572.255,218.591L572.255,218.592L572.254,218.592L572.254,218.592L572.253,218.592L572.252,218.592L572.252,218.592L572.252,218.592L572.252,218.592L572.251,218.593L572.251,218.593L572.25,218.593L572.25,218.594L572.25,218.594L572.248,218.594L572.248,218.594L572.248,218.595L572.248,218.595L572.248,218.595L572.248,218.596L572.248,218.596L572.248,218.597L572.248,218.597L572.247,218.598L572.246,218.599L572.246,218.599L572.245,218.599L572.244,218.599L572.244,218.599L572.243,218.6L572.243,218.6L572.242,218.6L572.242,218.601L572.241,218.601L572.241,218.601L572.239,218.602L572.237,218.602L572.237,218.602L572.236,218.603L572.235,218.603L572.235,218.603L572.234,218.603L572.234,218.603L572.232,218.603L572.232,218.603L572.232,218.603L572.231,218.603L572.23,218.603L572.23,218.603L572.229,218.603L572.229,218.603L572.229,218.603L572.229,218.604L572.228,218.604L572.228,218.604L572.227,218.604L572.226,218.604L572.226,218.604L572.225,218.605L572.224,218.605L572.223,218.605L572.223,218.606L572.223,218.608L572.223,218.609L572.223,218.609L572.223,218.61L572.222,218.61L572.222,218.61L572.221,218.61L572.221,218.61L572.22,218.611L572.219,218.612L572.219,218.612L572.219,218.613L572.218,218.613L572.218,218.614L572.218,218.614L572.218,218.615L572.218,218.615L572.218,218.616L572.217,218.616L572.217,218.616L572.216,218.616L572.215,218.616L572.215,218.616L572.214,218.617L572.213,218.618L572.213,218.618L572.212,218.618L572.212,218.618L572.212,218.619L572.211,218.619L572.21,218.619L572.21,218.619L572.209,218.619L572.209,218.62L572.209,218.62L572.208,218.621L572.207,218.621L572.207,218.622L572.206,218.622L572.206,218.623L572.206,218.623L572.206,218.624L572.205,218.624L572.205,218.625L572.205,218.625L572.205,218.625L572.204,218.626L572.203,218.626L572.203,218.627L572.202,218.627L572.202,218.628L572.201,218.628L572.201,218.628L572.2,218.629L572.2,218.629L572.2,218.629L572.2,218.629L572.199,218.63L572.199,218.63L572.198,218.63L572.198,218.63L572.198,218.631L572.197,218.631L572.197,218.632L572.197,218.632L572.198,218.633L572.198,218.633L572.198,218.634L572.198,218.634L572.197,218.635L572.196,218.636L572.196,218.636L572.195,218.637L572.195,218.637L572.194,218.637L572.194,218.637L572.193,218.637L572.188,218.632L572.192,218.628L572.193,218.626L572.196,218.622L572.193,218.619L572.188,218.625L572.187,218.623L572.182,218.607L572.167,218.573L572.157,218.549L572.154,218.543L572.151,218.536L572.138,218.506L572.127,218.479L572.101,218.413L572.096,218.399L572.081,218.363L572.063,218.32L572.057,218.307L572.046,218.287L572.045,218.281L572.042,218.267L571.983,218.274L571.982,218.274L571.966,218.261L571.94,218.261L571.91,218.266L571.908,218.285L571.908,218.292L571.929,218.311L571.928,218.312L571.926,218.313L571.925,218.314L571.923,218.314L571.923,218.314L571.922,218.315L571.922,218.316L571.921,218.317L571.921,218.317L571.921,218.318L571.921,218.319L571.921,218.32L571.919,218.322L571.919,218.322L571.918,218.323L571.918,218.323L571.917,218.324L571.917,218.324L571.916,218.325L571.916,218.325L571.916,218.326L571.915,218.326L571.914,218.326L571.914,218.327L571.913,218.327L571.912,218.328L571.911,218.328L571.91,218.329L571.909,218.329L571.909,218.329L571.908,218.329L571.907,218.33L571.906,218.33L571.906,218.331L571.906,218.331L571.906,218.332L571.906,218.333L571.906,218.334L571.907,218.334L571.907,218.335L571.907,218.337L571.907,218.338L571.906,218.338L571.905,218.339L571.905,218.339L571.904,218.341L571.903,218.341L571.903,218.342L571.903,218.344L571.904,218.346L571.904,218.347L571.904,218.348L571.903,218.348L571.903,218.349L571.903,218.356L571.903,218.361L571.908,218.384L571.913,218.413L571.908,218.414L571.903,218.413L571.895,218.414L571.891,218.414L571.887,218.418L571.885,218.418L571.883,218.416L571.873,218.414L571.872,218.413L571.869,218.413L571.867,218.412L571.86,218.412L571.855,218.413L571.851,218.414L571.847,218.416L571.844,218.416L571.84,218.415L571.836,218.415L571.834,218.414L571.833,218.414L571.831,218.414L571.828,218.413L571.825,218.412L571.821,218.412L571.819,218.41L571.815,218.408L571.808,218.408L571.806,218.409L571.804,218.409L571.801,218.41L571.798,218.412L571.796,218.412L571.793,218.41L571.792,218.411L571.787,218.411L571.785,218.407L571.783,218.406L571.78,218.406L571.777,218.405L571.767,218.404L571.763,218.404L571.755,218.409L571.747,218.411L571.74,218.408L571.735,218.409L571.729,218.41L571.722,218.409L571.715,218.409L571.712,218.407L571.71,218.405L571.706,218.404L571.704,218.403L571.699,218.403L571.691,218.405L571.68,218.409L571.665,218.409L571.661,218.411L571.654,218.409L571.649,218.409L571.644,218.407L571.636,218.406L571.628,218.408L571.622,218.408L571.615,218.411L571.611,218.415L571.607,218.417L571.598,218.421L571.591,218.427L571.584,218.435L571.577,218.444L571.572,218.448L571.567,218.451L571.565,218.453L571.562,218.461L571.558,218.465L571.541,218.471L571.538,218.475L571.531,218.484L571.501,218.482L571.444,218.478L571.445,218.489L571.449,218.494L571.45,218.498L571.45,218.504L571.454,218.511L571.453,218.513L571.453,218.524L571.45,218.529L571.443,218.534L571.433,218.537L571.424,218.541L571.425,218.589L571.426,218.607L571.425,218.612L571.426,218.616L571.425,218.63L571.413,218.632L571.409,218.631L571.404,218.631L571.4,218.632L571.398,218.629L571.395,218.628L571.393,218.631L571.392,218.632L571.39,218.631L571.386,218.631L571.374,218.633L571.37,218.631L571.362,218.631L571.355,218.628L571.347,218.622L571.339,218.62L571.335,218.618L571.332,218.618L571.331,218.619L571.32,218.619L571.31,218.618L571.302,218.612L571.296,218.612L571.288,218.61L571.28,218.609L571.272,218.611L571.267,218.609L571.259,218.605L571.253,218.604L571.246,218.6L571.239,218.598L571.22,218.59L571.214,218.592L571.209,218.592L571.201,218.593L571.199,218.592L571.194,218.591L571.177,218.599L571.169,218.6L571.163,218.604L571.154,218.605L571.142,218.609L571.135,218.61L571.13,218.612L571.127,218.619L571.123,218.621L571.118,218.623L571.114,218.627L571.113,218.637L571.111,218.652L571.111,218.675L571.115,218.705L571.122,218.732L571.128,218.76L571.128,218.764L571.128,218.772L571.13,218.776L571.133,218.78L571.132,218.785L571.131,218.798L571.133,218.805L571.133,218.808L571.132,218.814L571.133,218.82L571.136,218.828L571.134,218.833L571.13,218.841L571.13,218.844L571.131,218.849L571.129,218.854L571.125,218.861L571.125,218.866L571.126,218.87L571.125,218.87L571.124,218.87L571.123,218.87L571.121,218.869L571.118,218.867L571.112,218.864L571.11,218.864L571.104,218.867L571.103,218.872L571.099,218.876L571.09,218.878L571.084,218.886L571.075,218.888L571.073,218.889L571.071,218.89L571.065,218.891L571.064,218.895L571.061,218.899L571.048,218.905L571.044,218.907L571.044,218.911L571.038,218.915L571.034,218.919L571.033,218.925L571.033,218.933L571.03,218.936L571.025,218.939L571.023,218.944L571.018,218.947L571.015,218.953L571.008,218.958L571.006,218.961L571.004,218.966L571.001,218.967L570.998,218.969L570.994,218.971L570.958,218.977L570.947,218.98L570.937,218.989L570.842,219.028L570.76,219.047L570.756,219.058L570.757,219.072L570.76,219.082L570.759,219.089L570.761,219.094L570.764,219.097L570.768,219.103L570.771,219.11L570.772,219.119L570.77,219.126L570.767,219.131L570.769,219.135L570.773,219.143L570.778,219.152L570.782,219.158L570.781,219.164L570.78,219.174L570.776,219.175L570.773,219.176L570.772,219.179L570.775,219.184L570.776,219.191L570.776,219.195L570.773,219.198L570.774,219.201L570.775,219.206L570.775,219.213L570.774,219.221L570.776,219.226L570.78,219.232L570.783,219.237L570.784,219.243L570.786,219.246L570.791,219.257L570.793,219.269L570.794,219.275L570.791,219.278L570.787,219.28L570.786,219.282L570.785,219.289L570.783,219.292L570.781,219.297L570.779,219.302L570.779,219.31L570.776,219.313L570.77,219.314L570.766,219.317L570.763,219.324L570.76,219.332L570.765,219.345L570.762,219.355L570.756,219.361L570.752,219.366L570.76,219.39L570.759,219.393L570.76,219.4L570.755,219.406L570.753,219.411L570.755,219.417L570.762,219.431L570.763,219.44L570.762,219.442L570.761,219.443L570.76,219.455L570.757,219.456L570.752,219.46L570.747,219.461L570.745,219.464L570.743,219.464L570.742,219.464L570.741,219.465L570.739,219.465L570.737,219.465L570.735,219.465L570.734,219.466L570.732,219.466L570.731,219.466L570.726,219.466L570.724,219.466L570.723,219.465L570.721,219.465L570.719,219.466L570.719,219.467L570.718,219.467L570.717,219.468L570.716,219.469L570.714,219.47L570.709,219.47L570.706,219.47L570.705,219.47L570.704,219.47L570.703,219.47L570.702,219.47L570.702,219.472L570.702,219.475L570.701,219.477L570.699,219.48L570.699,219.485L570.699,219.486L570.699,219.491L570.699,219.496L570.707,219.499L570.707,219.5L570.707,219.504L570.704,219.511L570.697,219.516L570.696,219.517L570.694,219.519L570.69,219.521L570.686,219.524L570.684,219.525L570.685,219.529L570.686,219.531L570.689,219.533L570.695,219.538L570.696,219.539L570.696,219.542L570.696,219.544L570.695,219.546L570.695,219.547L570.693,219.549L570.687,219.553L570.686,219.553L570.685,219.555L570.685,219.555L570.681,219.557L570.68,219.558L570.68,219.561L570.68,219.564L570.678,219.566L570.676,219.567L570.674,219.568L570.671,219.571L570.672,219.573L570.673,219.577L570.675,219.582L570.675,219.582L570.676,219.588L570.674,219.592L570.673,219.595L570.675,219.596L570.675,219.597L570.676,219.597L570.678,219.598L570.678,219.599L570.679,219.6L570.68,219.602L570.68,219.603L570.682,219.604L570.682,219.604L570.683,219.604L570.683,219.606L570.683,219.606L570.684,219.608L570.684,219.608L570.684,219.61L570.685,219.613L570.685,219.613L570.688,219.615L570.688,219.616L570.689,219.617L570.689,219.618L570.687,219.62L570.687,219.623L570.688,219.624L570.692,219.634L570.693,219.636L570.694,219.637L570.696,219.64L570.697,219.642L570.697,219.643L570.698,219.643L570.699,219.644L570.7,219.645L570.702,219.646L570.703,219.647L570.703,219.647L570.704,219.648L570.705,219.649L570.709,219.651L570.716,219.656L570.718,219.657L570.719,219.658L570.72,219.659L570.719,219.659L570.72,219.66L570.722,219.66L570.723,219.66L570.725,219.661L570.726,219.661L570.728,219.662L570.73,219.664L570.728,219.665L570.727,219.665L570.727,219.667L570.726,219.668L570.725,219.669L570.719,219.671L570.717,219.672L570.694,219.683L570.693,219.685L570.692,219.685L570.691,219.689L570.69,219.692L570.69,219.693L570.691,219.694L570.691,219.696L570.692,219.705L570.692,219.707L570.691,219.709L570.689,219.711L570.688,219.713L570.686,219.714L570.685,219.716L570.685,219.722L570.685,219.725L570.684,219.729L570.683,219.732L570.684,219.741L570.683,219.743L570.683,219.746L570.683,219.751L570.682,219.752L570.678,219.756L570.677,219.761L570.677,219.763L570.677,219.767L570.675,219.772L570.675,219.774L570.673,219.78L570.671,219.781L570.667,219.783L570.667,219.785L570.667,219.785L570.667,219.787L570.667,219.79L570.667,219.791L570.667,219.791L570.667,219.791L570.668,219.792L570.667,219.794L570.667,219.795L570.666,219.797L570.665,219.798L570.664,219.8L570.664,219.801L570.664,219.802L570.663,219.804L570.662,219.806L570.665,219.809L570.666,219.809L570.668,219.811L570.669,219.812L570.669,219.813L570.672,219.814L570.673,219.815L570.673,219.817L570.674,219.819L570.675,219.821L570.676,219.822L570.678,219.828L570.682,219.833L570.682,219.834L570.683,219.835L570.69,219.839L570.691,219.839L570.693,219.842L570.692,219.845L570.691,219.846L570.69,219.848L570.69,219.851L570.689,219.854L570.689,219.856L570.688,219.859L570.689,219.862L570.689,219.866L570.69,219.868L570.69,219.87L570.69,219.871L570.691,219.872L570.692,219.873L570.692,219.875L570.692,219.877L570.691,219.879L570.69,219.881L570.69,219.883L570.698,219.885L570.703,219.888L570.705,219.889L570.706,219.889L570.708,219.889L570.709,219.891L570.713,219.892L570.715,219.892L570.716,219.892L570.716,219.891L570.719,219.891L570.724,219.893L570.725,219.894L570.726,219.894L570.729,219.894L570.737,219.897L570.737,219.898L570.737,219.899L570.738,219.899L570.739,219.9L570.739,219.9L570.738,219.904L570.741,219.908L570.744,219.912L570.744,219.914L570.744,219.915L570.743,219.916L570.744,219.92L570.748,219.923L570.752,219.926L570.753,219.927L570.753,219.931L570.749,219.934L570.748,219.936L570.747,219.936L570.745,219.939L570.745,219.941L570.743,219.943L570.742,219.944L570.741,219.947L570.74,219.948L570.74,219.952L570.743,219.96L570.746,219.962L570.746,219.968L570.755,219.975L570.759,219.979L570.762,219.983L570.764,219.984L570.766,219.985L570.769,219.986L570.772,219.986L570.775,219.987L570.781,219.991L570.782,219.991L570.783,219.992L570.785,219.995L570.787,219.998L570.791,220L570.798,219.999L570.799,220L570.802,220.002L570.805,220.001L570.807,220.001L570.811,220L570.813,220.001L570.814,220.002L570.816,220.004L570.818,220.007L570.818,220.008L570.818,220.008L570.819,220.009L570.82,220.009L570.821,220.01L570.823,220.011L570.823,220.012L570.824,220.012L570.825,220.013L570.832,220.014L570.834,220.015L570.835,220.015L570.836,220.014L570.838,220.014L570.839,220.015L570.84,220.015L570.847,220.015L570.848,220.015L570.85,220.015L570.852,220.016L570.853,220.017L570.855,220.02L570.858,220.025L570.858,220.025L570.862,220.027L570.863,220.027L570.865,220.03L570.868,220.031L570.87,220.034L570.871,220.036L570.874,220.037L570.875,220.037L570.876,220.037L570.88,220.038L570.884,220.041L570.886,220.043L570.886,220.046L570.889,220.047L570.891,220.051L570.896,220.055L570.897,220.055L570.901,220.057L570.901,220.059L570.902,220.06L570.904,220.064L570.905,220.067L570.909,220.067L570.91,220.067L570.914,220.067L570.921,220.07L570.923,220.071L570.925,220.073L570.931,220.073L570.932,220.073L570.934,220.072L570.937,220.072L570.941,220.074L570.943,220.074L570.943,220.074L570.945,220.074L570.946,220.074L570.947,220.072L570.95,220.071L570.952,220.071L570.954,220.071L570.956,220.072L570.959,220.072L570.961,220.071L570.965,220.073L570.966,220.075L570.972,220.077L570.975,220.076L570.977,220.076L570.984,220.082L570.986,220.08L570.987,220.079L570.989,220.077L570.991,220.078L570.994,220.078L570.996,220.082L570.995,220.087L570.998,220.091L570.998,220.094L570.998,220.095L570.998,220.097L571,220.097L571.001,220.097L571.002,220.098L571.003,220.098L571.005,220.098L571.011,220.098L571.019,220.094L571.02,220.093L571.024,220.093L571.026,220.094L571.026,220.095L571.028,220.096L571.032,220.101L571.041,220.111L571.047,220.114L571.049,220.112L571.051,220.113L571.054,220.114L571.058,220.116L571.058,220.118L571.067,220.121L571.066,220.126L571.071,220.127L571.075,220.131L571.083,220.138L571.086,220.138L571.088,220.14L571.094,220.142L571.101,220.149L571.105,220.15L571.109,220.151L571.109,220.151L571.111,220.154L571.111,220.159L571.115,220.161L571.119,220.162L571.125,220.16L571.126,220.159L571.132,220.154L571.132,220.154L571.124,220.151L571.123,220.15L571.121,220.147L571.12,220.144L571.119,220.137L571.123,220.131L571.125,220.126L571.128,220.119L571.13,220.115L571.133,220.111L571.134,220.111L571.133,220.106L571.133,220.101L571.132,220.097L571.132,220.092L571.133,220.09L571.134,220.086L571.133,220.085L571.134,220.084L571.134,220.082L571.134,220.082L571.133,220.075L571.135,220.075L571.143,220.071L571.147,220.075L571.149,220.075L571.151,220.076L571.152,220.076L571.155,220.076L571.156,220.075L571.157,220.075L571.163,220.077L571.164,220.077L571.165,220.077L571.164,220.076L571.165,220.075L571.165,220.076L571.166,220.076L571.168,220.075L571.171,220.075L571.172,220.074L571.177,220.072L571.178,220.069L571.184,220.061L571.188,220.064L571.19,220.063L571.192,220.063L571.194,220.063L571.195,220.063L571.196,220.063L571.196,220.062L571.198,220.06L571.201,220.059L571.205,220.058L571.207,220.058L571.209,220.058L571.21,220.057L571.212,220.057L571.213,220.056L571.216,220.055L571.217,220.055L571.217,220.054L571.218,220.054L571.222,220.055L571.225,220.056L571.226,220.059L571.225,220.062L571.231,220.062L571.234,220.064L571.236,220.061L571.238,220.059L571.239,220.057L571.24,220.056L571.24,220.053L571.241,220.05L571.243,220.049L571.246,220.045L571.247,220.043L571.249,220.042L571.25,220.041L571.252,220.042L571.254,220.042L571.257,220.041L571.258,220.041L571.26,220.041L571.262,220.041L571.263,220.041L571.266,220.042L571.268,220.041L571.268,220.041L571.269,220.04L571.271,220.04L571.273,220.04L571.275,220.04L571.276,220.04L571.276,220.04L571.277,220.04L571.28,220.041L571.285,220.04L571.287,220.04L571.288,220.04L571.288,220.04L571.289,220.04L571.292,220.039L571.294,220.039L571.296,220.04L571.296,220.043L571.297,220.043L571.3,220.043L571.301,220.043L571.304,220.043L571.306,220.043L571.311,220.046L571.313,220.046L571.316,220.047L571.318,220.053L571.32,220.053L571.323,220.055L571.326,220.057L571.326,220.061L571.326,220.063L571.326,220.064L571.326,220.066L571.326,220.067L571.328,220.073L571.328,220.074L571.333,220.074L571.338,220.076L571.34,220.077L571.346,220.079L571.346,220.082L571.347,220.084L571.353,220.088L571.358,220.087L571.361,220.083L571.363,220.081L571.365,220.078L571.374,220.074L571.378,220.073L571.38,220.074L571.382,220.073L571.384,220.071L571.387,220.071L571.39,220.072L571.393,220.071L571.396,220.068L571.397,220.068L571.398,220.068L571.402,220.066L571.409,220.066L571.412,220.063ZM800,0L800,12.246L800,78.668L800,145.789L800,215.835L800,261.497L800,300L800,338.503L800,384.165L800,454.211L800,600L800,600L200,600L200,600L200,454.211L200,384.165L200,338.503L200,300L200,261.497L200,215.835L200,145.789L200,78.668L200,12.246L200,0L200,0L800,0Z"/>
<path d="M572.661,219.378m0,4.5a4.5,4.5 0 1,1 0,-9a4.5,4.5 0 1,1 0,9z"/>
<path d="M572.367,219.457m0,4.5a4.5,4.5 0 1,1 0,-9a4.5,4.5 0 1,1 0,9z"/>
</svg>