<?xml version="1.0" encoding="UTF-8"?>
<svg xmlns="http://www.w3.org/2000/svg" viewBox="0 0 1000 600" stroke="#000" stroke-width="0.3" fill="#ccc">
<path d="M569.42,219.936L569.421,219.934L569.421,219.932L569.426,219.93L569.426,219.93L569.427,219.93L569.429,219.928L569.431,219.926L569.431,219.926L569.432,219.926L569.433,219.928L569.435,219.929L569.436,219.931L569.439,219.933L569.44,219.935L569.441,219.935L569.442,219.936L569.443,219.938L569.447,219.938L569.45,219.944L569.452,219.945L569.456,219.95L569.461,219.95L569.463,219.952L569.465,219.955L569.465,219.956L569.466,219.958L569.467,219.962L569.467,219.964L569.469,219.965L569.471,219.966L569.471,219.968L569.474,219.974L569.478,219.972L569.48,219.972L569.482,219.972L569.484,219.972L569.487,219.97L569.49,219.97L569.492,219.969L569.498,219.97L569.5,219.969L569.504,219.968L569.506,219.966L569.509,219.959L569.511,219.956L569.511,219.954L569.515,219.951L569.518,219.951L569.521,219.951L569.523,219.949L569.522,219.947L569.525,219.943L569.525,219.94L569.525,219.938L569.526,219.936L569.528,219.935L569.528,219.933L569.529,219.932L569.53,219.931L569.531,219.93L569.532,219.928L569.534,219.926L569.535,219.924L569.537,219.922L569.539,219.922L569.542,219.919L569.543,219.913L569.547,219.918L569.548,219.918L569.549,219.919L569.55,219.92L569.551,219.92L569.553,219.919L569.557,219.921L569.562,219.923L569.566,219.925L569.574,219.927L569.576,219.928L569.58,219.935L569.584,219.938L569.586,219.942L569.588,219.944L569.598,219.954L569.6,219.956L569.608,219.961L569.614,219.964L569.619,219.967L569.622,219.971L569.625,219.971L569.627,219.969L569.63,219.968L569.631,219.966L569.635,219.965L569.639,219.965L569.641,219.967L569.643,219.97L569.646,219.969L569.646,219.97L569.646,219.975L569.648,219.979L569.649,219.981L569.651,219.98L569.651,219.981L569.653,219.984L569.655,219.987L569.656,219.989L569.655,219.99L569.657,219.992L569.658,219.995L569.659,219.996L569.661,219.996L569.662,219.998L569.667,220.004L569.67,220.005L569.673,220.008L569.678,220.007L569.684,220.005L569.685,220.003L569.688,220.002L569.69,219.998L569.692,219.995L569.694,219.993L569.696,219.992L569.699,219.99L569.702,219.986L569.705,219.983L569.711,219.984L569.714,219.982L569.718,219.979L569.723,219.98L569.726,219.981L569.728,219.984L569.732,219.986L569.734,219.987L569.735,219.987L569.737,219.985L569.738,219.984L569.739,219.984L569.741,219.984L569.741,219.985L569.742,219.986L569.744,219.987L569.745,219.987L569.745,219.987L569.747,219.987L569.747,219.987L569.749,219.985L569.75,219.983L569.751,219.981L569.753,219.978L569.754,219.978L569.755,219.978L569.757,219.977L569.757,219.976L569.757,219.974L569.758,219.974L569.759,219.972L569.759,219.969L569.759,219.967L569.76,219.966L569.761,219.964L569.762,219.962L569.763,219.961L569.762,219.959L569.762,219.957L569.763,219.955L569.764,219.954L569.765,219.953L569.766,219.952L569.766,219.951L569.765,219.95L569.765,219.949L569.765,219.948L569.766,219.947L569.769,219.946L569.77,219.944L569.771,219.941L569.771,219.94L569.774,219.938L569.776,219.936L569.776,219.933L569.774,219.93L569.772,219.926L569.771,219.923L569.769,219.92L569.77,219.918L569.772,219.915L569.775,219.914L569.778,219.912L569.781,219.912L569.786,219.911L569.789,219.91L569.791,219.909L569.793,219.909L569.795,219.909L569.797,219.908L569.798,219.907L569.799,219.906L569.8,219.905L569.8,219.904L569.8,219.903L569.801,219.9L569.803,219.897L569.806,219.894L569.81,219.894L569.813,219.896L569.816,219.898L569.819,219.901L569.82,219.903L569.819,219.906L569.819,219.907L569.821,219.909L569.822,219.91L569.823,219.91L569.824,219.911L569.823,219.913L569.823,219.914L569.824,219.915L569.826,219.915L569.826,219.917L569.827,219.919L569.831,219.921L569.832,219.922L569.834,219.926L569.835,219.928L569.835,219.928L569.836,219.93L569.837,219.93L569.837,219.93L569.837,219.932L569.836,219.934L569.835,219.934L569.833,219.936L569.832,219.937L569.831,219.938L569.832,219.939L569.832,219.942L569.832,219.942L569.832,219.943L569.835,219.944L569.839,219.948L569.843,219.948L569.844,219.95L569.847,219.951L569.849,219.953L569.855,219.954L569.857,219.954L569.859,219.954L569.862,219.954L569.865,219.953L569.873,219.954L569.877,219.955L569.879,219.955L569.882,219.957L569.886,219.958L569.889,219.957L569.891,219.958L569.895,219.959L569.897,219.958L569.898,219.957L569.899,219.957L569.9,219.955L569.903,219.955L569.905,219.958L569.909,219.962L569.909,219.963L569.908,219.964L569.908,219.966L569.908,219.97L569.908,219.973L569.909,219.975L569.91,219.98L569.912,219.982L569.914,219.983L569.916,219.984L569.918,219.987L569.916,219.987L569.916,219.989L569.918,219.99L569.92,219.992L569.92,219.994L569.919,219.994L569.922,220.003L569.923,220.003L569.931,220.007L569.931,220.006L569.932,220.004L569.933,220.003L569.936,219.997L569.939,219.996L569.94,219.995L569.939,219.994L569.941,219.991L569.943,219.991L569.947,219.988L569.948,219.987L569.95,219.984L569.956,219.984L569.962,219.982L569.967,219.979L569.971,219.979L569.976,219.978L569.985,219.982L569.99,219.982L569.995,219.984L569.997,219.982L570.001,219.982L570.004,219.981L570.014,219.975L570.018,219.972L570.02,219.973L570.022,219.975L570.027,219.975L570.032,219.974L570.033,219.976L570.037,219.979L570.04,219.983L570.041,219.989L570.043,219.991L570.046,219.994L570.046,219.996L570.048,220.002L570.049,220.004L570.05,220.005L570.051,220.006L570.056,220.008L570.06,220.012L570.06,220.015L570.062,220.016L570.062,220.019L570.059,220.026L570.062,220.029L570.064,220.035L570.063,220.04L570.067,220.043L570.07,220.041L570.071,220.041L570.076,220.043L570.08,220.042L570.086,220.035L570.088,220.031L570.088,220.028L570.091,220.028L570.092,220.026L570.095,220.023L570.096,220.022L570.098,220.022L570.106,220.022L570.109,220.024L570.113,220.02L570.115,220.019L570.118,220.019L570.121,220.014L570.123,220.011L570.125,220.007L570.127,220.004L570.129,220.003L570.134,220.002L570.137,219.999L570.139,219.996L570.14,219.995L570.143,219.992L570.144,219.991L570.15,219.985L570.155,219.985L570.157,219.983L570.159,219.981L570.163,219.983L570.17,219.987L570.174,219.993L570.18,219.993L570.181,219.994L570.183,219.994L570.194,219.99L570.198,219.985L570.203,219.99L570.208,219.988L570.21,219.989L570.212,219.989L570.212,219.989L570.213,219.989L570.215,219.989L570.219,219.988L570.22,219.984L570.226,219.974L570.229,219.972L570.233,219.974L570.235,219.973L570.237,219.972L570.239,219.973L570.243,219.972L570.246,219.971L570.248,219.969L570.25,219.969L570.257,219.966L570.261,219.965L570.264,219.965L570.267,219.964L570.269,219.963L570.27,219.961L570.272,219.96L570.275,219.96L570.279,219.962L570.283,219.964L570.287,219.965L570.287,219.968L570.291,219.971L570.293,219.973L570.294,219.974L570.299,219.976L570.301,219.979L570.304,219.978L570.305,219.975L570.307,219.974L570.311,219.974L570.312,219.972L570.319,219.972L570.322,219.969L570.322,219.967L570.324,219.965L570.324,219.962L570.324,219.958L570.328,219.952L570.332,219.949L570.335,219.949L570.336,219.949L570.339,219.948L570.343,219.949L570.35,219.947L570.351,219.946L570.355,219.946L570.357,219.944L570.36,219.942L570.366,219.946L570.366,219.947L570.368,219.948L570.375,219.948L570.386,219.95L570.392,219.948L570.396,219.946L570.399,219.946L570.402,219.948L570.404,219.948L570.407,219.949L570.41,219.948L570.411,219.949L570.411,219.951L570.416,219.953L570.417,219.96L570.42,219.965L570.422,219.968L570.423,219.973L570.423,219.974L570.423,219.978L570.421,219.985L570.429,219.985L570.434,219.987L570.438,219.987L570.44,219.989L570.442,219.989L570.447,219.987L570.449,219.986L570.453,219.986L570.456,219.985L570.461,219.986L570.464,219.984L570.467,219.984L570.474,219.984L570.476,219.985L570.479,219.986L570.481,219.988L570.482,219.989L570.487,219.989L570.492,219.988L570.491,219.985L570.491,219.983L570.492,219.979L570.493,219.977L570.494,219.975L570.495,219.974L570.498,219.973L570.504,219.97L570.508,219.967L570.508,219.965L570.51,219.963L570.511,219.96L570.511,219.962L570.512,219.964L570.513,219.965L570.515,219.967L570.52,219.97L570.524,219.971L570.529,219.968L570.531,219.967L570.532,219.966L570.535,219.965L570.537,219.967L570.54,219.968L570.543,219.968L570.544,219.967L570.546,219.967L570.549,219.967L570.55,219.966L570.553,219.966L570.561,219.969L570.564,219.968L570.568,219.966L570.569,219.964L570.569,219.963L570.569,219.959L570.57,219.957L570.573,219.956L570.578,219.953L570.58,219.95L570.581,219.946L570.582,219.945L570.584,219.944L570.584,219.943L570.584,219.941L570.584,219.935L570.586,219.931L570.587,219.928L570.589,219.927L570.589,219.92L570.589,219.917L570.59,219.913L570.593,219.909L570.596,219.908L570.597,219.906L570.602,219.908L570.606,219.909L570.61,219.909L570.615,219.91L570.621,219.908L570.624,219.907L570.627,219.905L570.629,219.907L570.631,219.908L570.632,219.909L570.634,219.912L570.638,219.911L570.642,219.911L570.645,219.913L570.647,219.913L570.649,219.911L570.65,219.911L570.653,219.908L570.655,219.908L570.657,219.907L570.661,219.907L570.665,219.907L570.668,219.905L570.669,219.905L570.674,219.905L570.677,219.903L570.678,219.902L570.684,219.898L570.685,219.892L570.686,219.884L570.688,219.884L570.689,219.883L570.69,219.883L570.69,219.881L570.691,219.879L570.692,219.877L570.692,219.875L570.692,219.873L570.691,219.872L570.69,219.871L570.69,219.87L570.69,219.868L570.689,219.866L570.689,219.862L570.688,219.859L570.689,219.856L570.689,219.854L570.69,219.851L570.69,219.848L570.691,219.846L570.692,219.845L570.693,219.842L570.691,219.839L570.69,219.839L570.683,219.835L570.682,219.834L570.682,219.833L570.678,219.828L570.676,219.822L570.675,219.821L570.674,219.819L570.673,219.817L570.673,219.815L570.672,219.814L570.669,219.813L570.669,219.812L570.668,219.811L570.666,219.809L570.665,219.809L570.662,219.806L570.663,219.804L570.664,219.802L570.664,219.801L570.664,219.8L570.665,219.798L570.666,219.797L570.667,219.795L570.667,219.794L570.668,219.792L570.667,219.791L570.667,219.791L570.667,219.791L570.667,219.79L570.667,219.787L570.667,219.785L570.667,219.785L570.667,219.783L570.671,219.781L570.673,219.78L570.675,219.774L570.675,219.772L570.677,219.767L570.677,219.763L570.677,219.761L570.678,219.756L570.682,219.752L570.683,219.751L570.683,219.746L570.683,219.743L570.684,219.741L570.683,219.732L570.684,219.729L570.685,219.725L570.685,219.722L570.685,219.716L570.686,219.714L570.688,219.713L570.689,219.711L570.691,219.709L570.692,219.707L570.692,219.705L570.691,219.696L570.691,219.694L570.69,219.693L570.69,219.692L570.691,219.689L570.692,219.685L570.693,219.685L570.694,219.683L570.717,219.672L570.719,219.671L570.725,219.669L570.726,219.668L570.727,219.667L570.727,219.665L570.728,219.665L570.73,219.664L570.728,219.662L570.726,219.661L570.725,219.661L570.723,219.66L570.722,219.66L570.72,219.66L570.719,219.659L570.72,219.659L570.719,219.658L570.718,219.657L570.716,219.656L570.709,219.651L570.705,219.649L570.704,219.648L570.703,219.647L570.703,219.647L570.702,219.646L570.7,219.645L570.699,219.644L570.698,219.643L570.697,219.643L570.697,219.642L570.696,219.64L570.694,219.637L570.693,219.636L570.692,219.634L570.688,219.624L570.687,219.623L570.687,219.62L570.689,219.618L570.689,219.617L570.688,219.616L570.688,219.615L570.685,219.613L570.685,219.613L570.684,219.61L570.684,219.608L570.684,219.608L570.683,219.606L570.683,219.606L570.683,219.604L570.682,219.604L570.682,219.604L570.68,219.603L570.68,219.602L570.679,219.6L570.678,219.599L570.678,219.598L570.676,219.597L570.675,219.597L570.675,219.596L570.673,219.595L570.674,219.592L570.676,219.588L570.675,219.582L570.675,219.582L570.673,219.577L570.672,219.573L570.671,219.571L570.674,219.568L570.676,219.567L570.678,219.566L570.68,219.564L570.68,219.561L570.68,219.558L570.681,219.557L570.685,219.555L570.685,219.555L570.686,219.553L570.687,219.553L570.693,219.549L570.695,219.547L570.695,219.546L570.696,219.544L570.696,219.542L570.696,219.539L570.695,219.538L570.689,219.533L570.686,219.531L570.685,219.529L570.684,219.525L570.686,219.524L570.69,219.521L570.694,219.519L570.696,219.517L570.697,219.516L570.704,219.511L570.707,219.504L570.707,219.5L570.707,219.499L570.699,219.496L570.699,219.491L570.699,219.486L570.699,219.485L570.699,219.48L570.701,219.477L570.702,219.475L570.702,219.472L570.702,219.47L570.703,219.47L570.704,219.47L570.705,219.47L570.706,219.47L570.709,219.47L570.714,219.47L570.716,219.469L570.717,219.468L570.718,219.467L570.719,219.467L570.719,219.466L570.721,219.465L570.723,219.465L570.724,219.466L570.726,219.466L570.731,219.466L570.732,219.466L570.734,219.466L570.735,219.465L570.737,219.465L570.739,219.465L570.741,219.465L570.742,219.464L570.743,219.464L570.745,219.464L570.747,219.461L570.752,219.46L570.757,219.456L570.76,219.455L570.761,219.443L570.762,219.442L570.763,219.44L570.762,219.431L570.755,219.417L570.753,219.411L570.755,219.406L570.76,219.4L570.759,219.393L570.76,219.39L570.752,219.366L570.756,219.361L570.762,219.355L570.765,219.345L570.76,219.332L570.763,219.324L570.766,219.317L570.77,219.314L570.776,219.313L570.779,219.31L570.779,219.302L570.781,219.297L570.783,219.292L570.785,219.289L570.786,219.282L570.787,219.28L570.791,219.278L570.794,219.275L570.793,219.269L570.791,219.257L570.786,219.246L570.784,219.243L570.783,219.237L570.78,219.232L570.776,219.226L570.774,219.221L570.775,219.213L570.775,219.206L570.774,219.201L570.773,219.198L570.776,219.195L570.776,219.191L570.775,219.184L570.772,219.179L570.773,219.176L570.776,219.175L570.78,219.174L570.781,219.164L570.782,219.158L570.778,219.152L570.773,219.143L570.769,219.135L570.767,219.131L570.77,219.126L570.772,219.119L570.771,219.11L570.768,219.103L570.764,219.097L570.761,219.094L570.759,219.089L570.76,219.082L570.757,219.072L570.756,219.058L570.76,219.047L570.842,219.028L570.937,218.989L570.947,218.98L570.958,218.977L570.994,218.971L570.998,218.969L571.001,218.967L571.004,218.966L571.006,218.961L571.008,218.958L571.015,218.953L571.018,218.947L571.023,218.944L571.025,218.939L571.03,218.936L571.033,218.933L571.033,218.925L571.034,218.919L571.038,218.915L571.044,218.911L571.044,218.907L571.048,218.905L571.061,218.899L571.064,218.895L571.065,218.891L571.071,218.89L571.073,218.889L571.075,218.888L571.084,218.886L571.09,218.878L571.099,218.876L571.103,218.872L571.104,218.867L571.11,218.864L571.112,218.864L571.118,218.867L571.121,218.869L571.123,218.87L571.124,218.87L571.125,218.87L571.126,218.87L571.125,218.866L571.125,218.861L571.129,218.854L571.131,218.849L571.13,218.844L571.13,218.841L571.134,218.833L571.136,218.828L571.133,218.82L571.132,218.814L571.133,218.808L571.133,218.805L571.131,218.798L571.132,218.785L571.133,218.78L571.13,218.776L571.128,218.772L571.128,218.764L571.128,218.76L571.122,218.732L571.115,218.705L571.111,218.675L571.111,218.652L571.113,218.637L571.114,218.627L571.118,218.623L571.123,218.621L571.127,218.619L571.13,218.612L571.128,218.608L571.125,218.604L571.123,218.6L571.12,218.597L571.118,218.597L571.111,218.598L571.109,218.597L571.106,218.597L571.105,218.597L571.104,218.599L571.101,218.599L571.099,218.597L571.094,218.591L571.088,218.584L571.082,218.579L571.079,218.575L571.078,218.572L571.076,218.567L571.076,218.563L571.077,218.558L571.075,218.554L571.069,218.545L571.07,218.543L571.071,218.541L571.07,218.537L571.068,218.533L571.066,218.528L571.067,218.527L571.069,218.525L571.071,218.522L571.073,218.522L571.076,218.521L571.078,218.519L571.087,218.509L571.089,218.507L571.092,218.505L571.085,218.488L571.081,218.483L571.047,218.422L571.054,218.424L571.058,218.423L571.065,218.42L571.067,218.363L571.072,218.364L571.079,218.366L571.086,218.341L571.089,218.337L571.095,218.332L571.101,218.327L571.102,218.324L571.102,218.32L571.1,218.317L571.096,218.316L571.091,218.316L571.087,218.315L571.083,218.314L571.08,218.312L571.077,218.31L571.076,218.309L571.073,218.31L571.071,218.309L571.067,218.305L571.064,218.304L571.056,218.304L571.052,218.303L571.044,218.301L571.041,218.3L571.038,218.3L571.03,218.299L571.032,218.292L571.031,218.291L571.033,218.28L571.045,218.283L571.042,218.233L571.016,218.238L570.974,218.238L570.968,218.235L570.965,218.234L570.964,218.231L570.964,218.22L570.964,218.178L570.964,218.167L570.968,218.136L570.967,218.128L570.968,218.125L570.972,218.116L570.974,218.111L570.899,218.111L570.895,218.111L570.873,218.111L570.838,218.111L570.836,218.114L570.834,218.117L570.829,218.122L570.826,218.124L570.813,218.129L570.809,218.131L570.806,218.133L570.803,218.135L570.801,218.138L570.799,218.145L570.799,218.151L570.8,218.157L570.8,218.171L570.8,218.175L570.797,218.184L570.795,218.189L570.795,218.192L570.796,218.196L570.798,218.201L570.799,218.205L570.8,218.211L570.802,218.215L570.802,218.217L570.81,218.219L570.825,218.22L570.826,218.222L570.826,218.226L570.824,218.232L570.82,218.239L570.82,218.243L570.819,218.246L570.818,218.248L570.816,218.248L570.81,218.246L570.806,218.246L570.802,218.248L570.8,218.25L570.799,218.249L570.798,218.248L570.797,218.246L570.798,218.242L570.798,218.238L570.798,218.236L570.791,218.233L570.782,218.227L570.779,218.227L570.778,218.228L570.777,218.23L570.779,218.239L570.779,218.242L570.777,218.244L570.775,218.245L570.772,218.246L570.771,218.246L570.769,218.244L570.769,218.243L570.769,218.24L570.77,218.238L570.768,218.236L570.766,218.233L570.762,218.228L570.758,218.226L570.757,218.227L570.756,218.229L570.756,218.231L570.756,218.235L570.757,218.239L570.757,218.241L570.756,218.242L570.755,218.242L570.754,218.241L570.749,218.233L570.746,218.23L570.743,218.23L570.741,218.23L570.739,218.232L570.739,218.233L570.739,218.234L570.74,218.236L570.74,218.237L570.739,218.238L570.738,218.238L570.736,218.237L570.732,218.232L570.731,218.231L570.73,218.232L570.728,218.233L570.727,218.234L570.725,218.235L570.721,218.235L570.718,218.235L570.713,218.235L570.709,218.234L570.708,218.233L570.708,218.232L570.709,218.231L570.713,218.229L570.714,218.228L570.714,218.226L570.714,218.225L570.712,218.224L570.709,218.224L570.706,218.224L570.704,218.226L570.702,218.229L570.701,218.23L570.701,218.23L570.7,218.23L570.699,218.227L570.697,218.224L570.696,218.224L570.695,218.224L570.692,218.224L570.69,218.224L570.689,218.223L570.688,218.221L570.687,218.221L570.685,218.221L570.68,218.221L570.678,218.222L570.674,218.223L570.672,218.225L570.67,218.227L570.668,218.23L570.667,218.231L570.663,218.234L570.661,218.235L570.655,218.235L570.651,218.235L570.648,218.235L570.646,218.235L570.639,218.236L570.634,218.236L570.63,218.236L570.629,218.236L570.627,218.236L570.623,218.233L570.621,218.23L570.618,218.227L570.617,218.223L570.617,218.222L570.618,218.218L570.618,218.215L570.617,218.213L570.616,218.211L570.614,218.211L570.613,218.21L570.613,218.209L570.613,218.208L570.614,218.206L570.617,218.204L570.618,218.203L570.618,218.202L570.618,218.201L570.617,218.199L570.616,218.198L570.616,218.197L570.616,218.196L570.617,218.195L570.622,218.193L570.625,218.192L570.629,218.189L570.63,218.188L570.631,218.186L570.631,218.183L570.631,218.183L570.634,218.182L570.636,218.181L570.636,218.179L570.635,218.178L570.633,218.177L570.63,218.176L570.626,218.176L570.622,218.175L570.618,218.174L570.614,218.173L570.613,218.171L570.613,218.169L570.614,218.168L570.616,218.165L570.617,218.164L570.617,218.162L570.607,218.12L570.597,218.084L570.59,218.084L570.584,218.086L570.584,218.089L570.585,218.094L570.584,218.1L570.581,218.106L570.576,218.113L570.572,218.116L570.564,218.117L570.558,218.114L570.55,218.109L570.55,218.109L570.547,218.11L570.542,218.112L570.537,218.111L570.535,218.11L570.533,218.108L570.531,218.103L570.528,218.101L570.526,218.1L570.518,218.102L570.509,218.104L570.506,218.104L570.504,218.104L570.504,218.103L570.5,218.099L570.494,218.09L570.489,218.081L570.488,218.079L570.489,218.076L570.492,218.061L570.497,218.057L570.498,218.054L570.498,218.051L570.498,218.049L570.498,218.047L570.499,218.045L570.502,218.043L570.511,218.036L570.526,218.028L570.531,218.024L570.534,218.021L570.539,218.004L570.54,217.999L570.538,217.993L570.537,217.986L570.537,217.981L570.538,217.97L570.54,217.964L570.541,217.959L570.539,217.954L570.539,217.952L570.539,217.95L570.54,217.949L570.543,217.948L570.544,217.947L570.546,217.946L570.548,217.946L570.548,217.945L570.547,217.944L570.546,217.943L570.548,217.943L570.552,217.938L570.553,217.938L570.558,217.934L570.562,217.929L570.565,217.924L570.581,217.912L570.587,217.907L570.558,217.861L570.597,217.836L570.602,217.835L570.631,217.819L570.63,217.793L570.631,217.785L570.633,217.782L570.657,217.778L570.735,217.777L570.735,217.74L570.735,217.703L570.742,217.707L570.748,217.714L570.76,217.715L570.776,217.719L570.786,217.723L570.783,217.72L570.783,217.718L570.783,217.716L570.783,217.715L570.782,217.714L570.781,217.712L570.78,217.711L570.78,217.707L570.78,217.705L570.779,217.702L570.779,217.7L570.779,217.698L570.78,217.695L570.781,217.694L570.787,217.691L570.788,217.689L570.791,217.684L570.793,217.678L570.794,217.675L570.796,217.673L570.8,217.671L570.802,217.671L570.805,217.671L570.81,217.672L570.814,217.672L570.832,217.673L570.839,217.673L570.839,217.651L570.848,217.651L570.88,217.651L570.884,217.652L570.92,217.652L570.921,217.6L570.922,217.547L571.017,217.546L571.016,217.507L571.016,217.498L571.014,217.447L570.968,217.429L570.967,217.424L570.967,217.393L570.968,217.385L570.969,217.377L570.97,217.374L570.968,217.373L570.963,217.371L570.957,217.366L570.949,217.361L570.933,217.356L570.923,217.354L570.922,217.316L570.85,217.316L570.845,217.317L570.842,217.318L570.835,217.319L570.833,217.32L570.831,217.323L570.828,217.323L570.824,217.325L570.824,217.327L570.824,217.332L570.823,217.335L570.822,217.339L570.823,217.343L570.824,217.346L570.825,217.348L570.825,217.352L570.826,217.358L570.825,217.364L570.825,217.365L570.822,217.366L570.821,217.368L570.822,217.37L570.822,217.372L570.82,217.373L570.814,217.379L570.81,217.386L570.808,217.394L570.808,217.397L570.809,217.399L570.809,217.4L570.806,217.401L570.806,217.402L570.806,217.403L570.806,217.404L570.805,217.404L570.805,217.406L570.805,217.41L570.804,217.414L570.798,217.417L570.726,217.417L570.68,217.416L570.68,217.447L570.681,217.456L570.652,217.451L570.649,217.452L570.646,217.454L570.641,217.453L570.588,217.451L570.579,217.45L570.575,217.45L570.574,217.448L570.573,217.447L570.57,217.45L570.569,217.45L570.569,217.448L570.568,217.444L570.566,217.442L570.557,217.438L570.547,217.435L570.537,217.43L570.518,217.418L570.508,217.414L570.504,217.411L570.502,217.408L570.496,217.407L570.49,217.408L570.483,217.409L570.481,217.411L570.478,217.411L570.464,217.408L570.451,217.405L570.442,217.403L570.437,217.4L570.429,217.397L570.424,217.395L570.417,217.393L570.414,217.393L570.408,217.391L570.404,217.388L570.402,217.387L570.399,217.388L570.398,217.386L570.39,217.38L570.381,217.374L570.371,217.367L570.367,217.362L570.338,217.363L570.268,217.362L570.245,217.362L570.226,217.36L570.203,217.361L570.204,217.352L570.195,217.352L570.158,217.351L570.136,217.351L570.106,217.351L570.079,217.351L570.05,217.352L570.046,217.348L570.045,217.346L570.039,217.345L570.036,217.339L570.035,217.334L570.034,217.328L570.035,217.325L570.035,217.324L570.036,217.32L570.034,217.317L570.029,217.312L570.025,217.306L570.02,217.306L570.014,217.306L570.009,217.304L570.007,217.3L570.004,217.297L569.997,217.291L569.994,217.291L569.99,217.29L569.987,217.289L569.982,217.288L569.98,217.283L569.977,217.28L569.975,217.279L569.972,217.276L569.972,217.275L569.971,217.275L569.969,217.274L569.966,217.271L569.964,217.269L569.96,217.267L569.949,217.262L569.944,217.262L569.938,217.263L569.935,217.262L569.932,217.259L569.927,217.257L569.922,217.255L569.92,217.254L569.918,217.253L569.917,217.251L569.915,217.25L569.915,217.249L569.911,217.246L569.909,217.246L569.904,217.244L569.899,217.242L569.894,217.242L569.893,217.242L569.891,217.241L569.89,217.239L569.888,217.238L569.882,217.234L569.879,217.231L569.877,217.228L569.874,217.225L569.871,217.221L569.868,217.216L569.867,217.212L569.868,217.207L569.868,217.206L569.873,217.194L569.874,217.185L569.873,217.179L569.875,217.173L569.877,217.167L569.878,217.16L569.877,217.152L569.875,217.143L569.874,217.14L569.871,217.136L569.87,217.132L569.872,217.13L569.873,217.129L569.874,217.126L569.873,217.124L569.871,217.121L569.87,217.119L569.873,217.113L569.875,217.105L569.875,217.101L569.874,217.099L569.872,217.097L569.871,217.093L569.874,217.09L569.875,217.083L569.879,217.076L569.882,217.071L569.882,217.07L569.877,217.065L569.874,217.061L569.873,217.052L569.869,217.039L569.872,217.034L569.876,217.032L569.878,217.028L569.88,217.025L569.88,217.022L569.874,217.018L569.83,217.016L569.828,217.016L569.776,217.014L569.774,217.038L569.771,217.039L569.727,217.042L569.673,217.046L569.673,217.049L569.674,217.052L569.67,217.058L569.666,217.06L569.662,217.06L569.657,217.064L569.653,217.071L569.654,217.076L569.647,217.073L569.623,217.073L569.615,217.076L569.613,217.073L569.609,217.073L569.606,217.073L569.6,217.075L569.588,217.076L569.575,217.074L569.571,217.074L569.56,217.07L569.559,217.1L569.542,217.103L569.536,217.113L569.527,217.114L569.51,217.113L569.496,217.167L569.49,217.218L569.445,217.218L569.383,217.225L569.38,217.225L569.389,217.293L569.33,217.302L569.32,217.327L569.33,217.331L569.345,217.338L569.374,217.35L569.436,217.376L569.465,217.389L569.468,217.39L569.484,217.397L569.506,217.434L569.527,217.469L569.532,217.478L569.555,217.517L569.57,217.544L569.573,217.549L569.571,217.552L569.571,217.554L569.571,217.556L569.57,217.559L569.567,217.56L569.565,217.56L569.563,217.563L569.563,217.566L569.566,217.573L569.567,217.575L569.565,217.578L569.561,217.582L569.558,217.583L569.552,217.585L569.551,217.586L569.548,217.589L569.546,217.593L569.546,217.596L569.547,217.6L569.548,217.605L569.548,217.607L569.547,217.611L569.547,217.613L569.548,217.615L569.547,217.617L569.547,217.622L569.548,217.626L569.547,217.629L569.547,217.632L569.546,217.633L569.544,217.634L569.542,217.636L569.542,217.64L569.541,217.643L569.532,217.654L569.531,217.656L569.533,217.662L569.532,217.663L569.53,217.665L569.527,217.666L569.525,217.668L569.522,217.671L569.521,217.673L569.52,217.675L569.521,217.677L569.521,217.681L569.521,217.684L569.521,217.687L569.52,217.689L569.518,217.692L569.517,217.695L569.515,217.698L569.515,217.703L569.518,217.706L569.519,217.712L569.516,217.716L569.516,217.722L569.517,217.725L569.519,217.728L569.518,217.732L569.516,217.735L569.515,217.738L569.499,217.747L569.499,217.756L569.496,217.764L569.499,217.765L569.5,217.769L569.499,217.772L569.498,217.775L569.488,217.776L569.484,217.778L569.481,217.778L569.477,217.78L569.475,217.781L569.474,217.782L569.472,217.783L569.471,217.785L569.469,217.789L569.468,217.79L569.466,217.794L569.464,217.796L569.462,217.798L569.464,217.803L569.463,217.808L569.461,217.809L569.458,217.812L569.458,217.815L569.451,217.819L569.449,217.82L569.447,217.821L569.441,217.828L569.442,217.832L569.441,217.833L569.438,217.837L569.438,217.84L569.436,217.843L569.432,217.846L569.427,217.85L569.424,217.855L569.425,217.856L569.425,217.858L569.424,217.859L569.418,217.864L569.417,217.877L569.415,217.88L569.414,217.881L569.413,217.883L569.407,217.883L569.393,217.87L569.392,217.87L569.385,217.878L569.385,217.878L569.392,217.88L569.388,217.886L569.395,217.898L569.396,217.899L569.391,217.902L569.388,217.901L569.376,217.906L569.365,217.908L569.358,217.908L569.353,217.909L569.349,217.908L569.347,217.909L569.333,217.911L569.332,217.912L569.312,217.919L569.297,217.927L569.293,217.928L569.292,217.928L569.283,217.932L569.276,217.937L569.275,217.936L569.271,217.94L569.258,217.943L569.251,217.949L569.254,217.955L569.259,217.962L569.261,217.97L569.254,217.993L569.256,218.023L569.252,218.031L569.243,218.037L569.243,218.049L569.243,218.052L569.243,218.065L569.242,218.075L569.24,218.074L569.238,218.073L569.231,218.068L569.228,218.068L569.224,218.067L569.22,218.068L569.216,218.067L569.213,218.067L569.21,218.066L569.207,218.066L569.205,218.063L569.203,218.063L569.203,218.062L569.194,218.065L569.191,218.066L569.185,218.066L569.181,218.066L569.178,218.066L569.176,218.066L569.175,218.066L569.173,218.066L569.171,218.065L569.168,218.065L569.165,218.064L569.161,218.065L569.16,218.065L569.158,218.064L569.157,218.065L569.156,218.065L569.156,218.067L569.151,218.065L569.148,218.064L569.147,218.065L569.145,218.065L569.143,218.063L569.141,218.063L569.14,218.062L569.139,218.06L569.137,218.057L569.139,218.057L569.139,218.055L569.14,218.054L569.141,218.053L569.142,218.05L569.142,218.047L569.142,218.045L569.14,218.045L569.139,218.047L569.139,218.047L569.136,218.051L569.133,218.054L569.133,218.056L569.133,218.058L569.133,218.06L569.132,218.062L569.131,218.066L569.13,218.069L569.131,218.073L569.13,218.073L569.13,218.076L569.13,218.078L569.131,218.081L569.132,218.083L569.133,218.084L569.133,218.085L569.134,218.089L569.134,218.09L569.134,218.094L569.133,218.101L569.131,218.101L569.131,218.103L569.131,218.104L569.133,218.106L569.134,218.109L569.133,218.112L569.133,218.115L569.134,218.117L569.133,218.119L569.132,218.123L569.132,218.125L569.13,218.126L569.129,218.128L569.129,218.13L569.129,218.133L569.13,218.135L569.13,218.138L569.131,218.14L569.133,218.142L569.135,218.144L569.135,218.148L569.137,218.151L569.137,218.153L569.136,218.155L569.136,218.158L569.135,218.161L569.136,218.166L569.135,218.167L569.133,218.167L569.133,218.17L569.105,218.169L569.102,218.168L569.088,218.162L569.074,218.163L569.058,218.169L569.054,218.171L569.043,218.185L569.04,218.189L569.034,218.197L569.029,218.204L569.028,218.206L569.025,218.213L569.024,218.212L569.009,218.216L568.989,218.205L568.985,218.19L568.982,218.18L568.977,218.174L568.974,218.179L568.968,218.174L568.967,218.173L568.967,218.163L568.964,218.16L568.96,218.165L568.948,218.161L568.954,218.152L568.955,218.149L568.951,218.15L568.949,218.148L568.945,218.151L568.945,218.152L568.942,218.15L568.942,218.148L568.94,218.146L568.937,218.15L568.93,218.145L568.927,218.149L568.924,218.15L568.927,218.155L568.931,218.163L568.938,218.172L568.934,218.171L568.93,218.17L568.929,218.175L568.929,218.179L568.921,218.181L568.917,218.187L568.92,218.192L568.92,218.199L568.925,218.21L568.927,218.211L568.934,218.223L568.883,218.22L568.87,218.219L568.858,218.219L568.859,218.21L568.856,218.2L568.848,218.177L568.851,218.173L568.85,218.172L568.849,218.171L568.845,218.172L568.842,218.174L568.841,218.174L568.839,218.175L568.838,218.174L568.837,218.172L568.836,218.171L568.838,218.17L568.84,218.168L568.842,218.167L568.843,218.166L568.846,218.163L568.855,218.157L568.855,218.154L568.854,218.156L568.853,218.157L568.847,218.158L568.845,218.158L568.843,218.159L568.842,218.16L568.838,218.163L568.834,218.165L568.832,218.168L568.829,218.172L568.826,218.171L568.821,218.17L568.832,218.159L568.838,218.155L568.84,218.154L568.848,218.145L568.855,218.136L568.855,218.134L568.857,218.128L568.859,218.126L568.862,218.124L568.862,218.121L568.865,218.118L568.87,218.108L568.869,218.108L568.867,218.106L568.863,218.113L568.86,218.11L568.86,218.114L568.856,218.118L568.851,218.125L568.849,218.12L568.846,218.121L568.845,218.125L568.849,218.137L568.845,218.141L568.844,218.143L568.842,218.143L568.838,218.143L568.842,218.138L568.843,218.137L568.842,218.131L568.842,218.129L568.841,218.128L568.84,218.129L568.837,218.136L568.834,218.144L568.833,218.144L568.831,218.143L568.83,218.142L568.832,218.136L568.837,218.123L568.835,218.122L568.832,218.125L568.829,218.132L568.825,218.133L568.826,218.136L568.826,218.139L568.826,218.141L568.827,218.148L568.827,218.152L568.824,218.153L568.823,218.15L568.822,218.148L568.817,218.146L568.814,218.145L568.814,218.141L568.814,218.139L568.81,218.14L568.81,218.141L568.809,218.146L568.808,218.146L568.807,218.159L568.809,218.162L568.81,218.162L568.811,218.164L568.812,218.165L568.807,218.167L568.801,218.164L568.796,218.162L568.796,218.15L568.796,218.139L568.794,218.137L568.789,218.13L568.764,218.145L568.762,218.147L568.759,218.142L568.751,218.148L568.747,218.148L568.744,218.149L568.75,218.14L568.754,218.134L568.753,218.13L568.75,218.121L568.752,218.119L568.755,218.121L568.757,218.12L568.761,218.119L568.761,218.117L568.761,218.113L568.763,218.104L568.767,218.104L568.769,218.103L568.771,218.097L568.774,218.092L568.776,218.088L568.779,218.087L568.786,218.087L568.79,218.083L568.792,218.078L568.793,218.076L568.793,218.075L568.794,218.075L568.794,218.074L568.795,218.072L568.796,218.07L568.797,218.067L568.799,218.062L568.802,218.056L568.803,218.053L568.801,218.051L568.801,218.05L568.798,218.046L568.798,218.041L568.798,218.039L568.796,218.037L568.793,218.029L568.795,218.025L568.794,218.023L568.794,218.019L568.793,218.017L568.79,218.017L568.788,218.016L568.793,218.013L568.797,218.011L568.797,218.008L568.798,218.006L568.795,218.004L568.795,218.004L568.797,218.001L568.803,218.003L568.804,218.008L568.806,218.008L568.806,218.009L568.804,218.01L568.801,218.015L568.804,218.017L568.805,218.02L568.809,218.031L568.813,218.036L568.824,218.043L568.826,218.04L568.836,218.029L568.827,218.001L568.819,217.975L568.819,217.974L568.812,217.977L568.806,217.976L568.786,217.958L568.773,217.952L568.764,217.953L568.761,217.956L568.747,217.953L568.74,217.953L568.738,217.952L568.737,217.951L568.73,217.947L568.723,217.943L568.72,217.945L568.72,217.953L568.72,217.964L568.72,217.965L568.716,217.965L568.699,217.966L568.692,217.965L568.681,217.966L568.667,217.966L568.654,217.966L568.651,217.965L568.638,217.966L568.627,217.966L568.617,217.966L568.615,217.958L568.616,217.943L568.617,217.935L568.617,217.93L568.616,217.93L568.612,217.933L568.612,217.932L568.613,217.93L568.611,217.93L568.611,217.929L568.61,217.928L568.61,217.928L568.61,217.925L568.608,217.921L568.606,217.921L568.605,217.919L568.602,217.919L568.593,217.919L568.593,217.919L568.589,217.919L568.588,217.917L568.593,217.912L568.589,217.911L568.587,217.909L568.585,217.908L568.587,217.899L568.552,217.882L568.547,217.881L568.543,217.88L568.542,217.88L568.541,217.879L568.539,217.879L568.538,217.879L568.537,217.88L568.536,217.88L568.534,217.886L568.533,217.893L568.53,217.906L568.529,217.91L568.538,217.925L568.534,217.927L568.533,217.927L568.533,217.928L568.53,217.93L568.526,217.934L568.52,217.936L568.51,217.936L568.504,217.938L568.499,217.94L568.495,217.942L568.487,217.945L568.48,217.949L568.475,217.952L568.458,217.936L568.436,217.911L568.397,217.892L568.393,217.891L568.39,217.895L568.39,217.9L568.389,217.901L568.388,217.902L568.387,217.904L568.385,217.911L568.364,217.902L568.359,217.899L568.335,217.885L568.312,217.873L568.291,217.862L568.273,217.852L568.258,217.845L568.245,217.842L568.24,217.84L568.234,217.839L568.207,217.836L568.2,217.836L568.19,217.835L568.176,217.838L568.163,217.845L568.157,217.848L568.157,217.84L568.152,217.84L568.152,217.846L568.152,217.859L568.152,217.874L568.152,217.907L568.152,217.931L568.159,217.934L568.18,217.946L568.191,217.952L568.21,217.963L568.184,217.978L568.189,217.984L568.186,217.988L568.186,217.99L568.186,217.997L568.186,217.998L568.187,218.001L568.189,218.002L568.191,217.998L568.193,217.998L568.195,217.999L568.196,217.999L568.197,218L568.199,218L568.2,218L568.202,218.002L568.201,218.007L568.211,218.014L568.208,218.022L568.206,218.021L568.204,218.021L568.207,218.029L568.203,218.038L568.2,218.039L568.202,218.04L568.202,218.046L568.201,218.05L568.199,218.052L568.2,218.054L568.199,218.06L568.199,218.061L568.199,218.062L568.199,218.066L568.2,218.069L568.199,218.071L568.199,218.078L568.198,218.08L568.198,218.083L568.201,218.09L568.201,218.091L568.201,218.094L568.203,218.096L568.204,218.099L568.205,218.104L568.207,218.107L568.206,218.108L568.208,218.112L568.209,218.117L568.214,218.118L568.215,218.121L568.221,218.125L568.226,218.132L568.222,218.135L568.221,218.138L568.219,218.14L568.218,218.141L568.217,218.142L568.215,218.144L568.213,218.144L568.209,218.145L568.207,218.148L568.204,218.153L568.201,218.158L568.2,218.164L568.196,218.169L568.192,218.177L568.192,218.179L568.192,218.182L568.193,218.187L568.192,218.191L568.189,218.197L568.186,218.204L568.186,218.208L568.187,218.212L568.187,218.219L568.186,218.225L568.183,218.23L568.172,218.244L568.168,218.252L568.168,218.255L568.168,218.257L568.168,218.26L568.167,218.262L568.155,218.27L568.15,218.277L568.148,218.29L568.143,218.3L568.141,218.302L568.139,218.301L568.136,218.297L568.129,218.292L568.113,218.295L568.109,218.294L568.105,218.295L568.101,218.295L568.098,218.298L568.088,218.303L568.08,218.314L568.077,218.318L568.075,218.32L568.072,218.323L568.068,218.326L568.067,218.332L568.067,218.342L568.064,218.347L568.057,218.355L568.053,218.354L568.045,218.356L568.04,218.358L568.034,218.359L568.031,218.36L568.028,218.362L568.025,218.363L568.022,218.362L568.017,218.362L568.012,218.36L568.008,218.361L568.005,218.362L568.003,218.365L568.002,218.373L568.001,218.394L567.999,218.397L567.992,218.405L567.984,218.408L567.983,218.412L567.982,218.413L567.984,218.415L567.984,218.417L567.983,218.417L567.983,218.419L567.982,218.42L567.98,218.428L567.981,218.431L567.978,218.435L567.979,218.437L567.977,218.44L567.977,218.443L567.977,218.444L567.977,218.446L567.977,218.45L567.975,218.451L567.972,218.451L567.969,218.45L567.965,218.451L567.958,218.455L567.951,218.454L567.943,218.468L567.943,218.469L567.945,218.469L567.948,218.472L567.949,218.477L567.948,218.478L567.947,218.48L567.947,218.483L567.946,218.485L567.946,218.487L567.944,218.49L567.942,218.49L567.94,218.491L567.938,218.493L567.937,218.497L567.934,218.503L567.932,218.509L567.932,218.517L567.932,218.518L567.93,218.525L567.928,218.528L567.926,218.531L567.926,218.531L567.926,218.534L567.926,218.535L567.927,218.538L567.926,218.541L567.926,218.544L567.923,218.546L567.922,218.55L567.922,218.552L567.926,218.562L567.926,218.562L567.926,218.566L567.924,218.569L567.921,218.575L567.913,218.581L567.912,218.586L567.907,218.592L567.903,218.598L567.899,218.603L567.895,218.61L567.894,218.614L567.892,218.62L567.892,218.623L567.887,218.629L567.885,218.631L567.881,218.635L567.878,218.638L567.875,218.641L567.871,218.646L567.873,218.649L567.874,218.65L567.881,218.656L567.882,218.66L567.884,218.663L567.886,218.664L567.888,218.667L567.89,218.669L567.896,218.669L567.897,218.669L567.901,218.673L567.903,218.674L567.906,218.681L567.906,218.682L567.906,218.691L567.908,218.7L567.912,218.704L567.914,218.709L567.915,218.717L567.919,218.728L567.925,218.735L567.928,218.742L567.93,218.75L567.928,218.752L567.921,218.753L567.917,218.753L567.914,218.755L567.91,218.755L567.9,218.767L567.895,218.768L567.888,218.774L567.887,218.776L567.88,218.777L567.878,218.775L567.875,218.774L567.866,218.78L567.865,218.779L567.863,218.78L567.86,218.78L567.859,218.781L567.854,218.781L567.852,218.782L567.84,218.779L567.835,218.77L567.828,218.782L567.825,218.787L567.823,218.792L567.82,218.795L567.819,218.796L567.818,218.803L567.817,218.805L567.811,218.809L567.809,218.812L567.808,218.815L567.807,218.819L567.804,218.822L567.8,218.825L567.797,218.825L567.795,218.826L567.793,218.828L567.792,218.829L567.792,218.83L567.794,218.832L567.798,218.835L567.8,218.835L567.802,218.835L567.804,218.836L567.813,218.836L567.817,218.842L567.825,218.851L567.827,218.856L567.826,218.858L567.824,218.866L567.822,218.871L567.822,218.874L567.822,218.875L567.824,218.877L567.826,218.879L567.829,218.88L567.83,218.88L567.834,218.887L567.841,218.892L567.843,218.893L567.847,218.895L567.85,218.896L567.851,218.896L567.855,218.898L567.855,218.899L567.854,218.904L567.855,218.906L567.86,218.912L567.861,218.914L567.86,218.916L567.857,218.919L567.856,218.92L567.856,218.925L567.856,218.927L567.846,218.933L567.845,218.934L567.845,218.939L567.845,218.942L567.846,218.948L567.846,218.95L567.846,218.953L567.847,218.954L567.848,218.956L567.843,218.963L567.841,218.966L567.84,218.968L567.837,218.969L567.834,218.971L567.831,218.972L567.836,218.978L567.837,218.98L567.845,218.983L567.847,218.985L567.854,218.99L567.853,218.993L567.854,218.995L567.854,218.996L567.856,218.997L567.859,219.001L567.859,219.011L567.861,219.017L567.861,219.021L567.862,219.024L567.869,219.027L567.871,219.032L567.871,219.037L567.87,219.045L567.872,219.047L567.875,219.051L567.876,219.055L567.879,219.058L567.879,219.06L567.881,219.06L567.885,219.065L567.889,219.069L567.892,219.07L567.893,219.072L567.899,219.075L567.904,219.083L567.904,219.088L567.903,219.091L567.897,219.095L567.897,219.102L567.897,219.103L567.902,219.109L567.902,219.112L567.899,219.119L567.895,219.121L567.89,219.121L567.887,219.121L567.886,219.121L567.886,219.123L567.886,219.126L567.885,219.128L567.884,219.13L567.881,219.13L567.878,219.132L567.876,219.133L567.876,219.136L567.877,219.138L567.877,219.14L567.876,219.141L567.875,219.142L567.875,219.144L567.876,219.15L567.878,219.152L567.88,219.155L567.883,219.156L567.884,219.158L567.884,219.161L567.88,219.166L567.88,219.167L567.88,219.169L567.882,219.173L567.882,219.173L567.88,219.178L567.88,219.18L567.878,219.183L567.88,219.188L567.881,219.19L567.877,219.194L567.878,219.199L567.878,219.2L567.877,219.201L567.875,219.202L567.876,219.206L567.876,219.209L567.877,219.212L567.876,219.215L567.873,219.219L567.87,219.223L567.868,219.224L567.867,219.223L567.861,219.229L567.86,219.235L567.859,219.24L567.858,219.241L567.857,219.243L567.858,219.249L567.856,219.251L567.858,219.253L567.859,219.254L567.861,219.255L567.864,219.256L567.868,219.257L567.871,219.258L567.875,219.258L567.88,219.259L567.887,219.26L567.889,219.26L567.894,219.262L567.899,219.264L567.901,219.265L567.902,219.267L567.903,219.27L567.906,219.274L567.908,219.277L567.909,219.277L567.913,219.278L567.916,219.278L567.917,219.279L567.92,219.279L567.925,219.279L567.927,219.28L567.928,219.284L567.929,219.286L567.928,219.291L567.929,219.293L567.931,219.294L567.935,219.296L567.936,219.297L567.943,219.295L567.945,219.295L567.946,219.297L567.946,219.298L567.949,219.303L567.957,219.309L567.961,219.312L567.962,219.313L567.972,219.317L567.976,219.319L567.977,219.32L567.981,219.319L567.992,219.324L567.996,219.326L568.005,219.329L568.013,219.333L568.019,219.334L568.027,219.337L568.028,219.338L568.034,219.343L568.039,219.348L568.042,219.35L568.046,219.353L568.049,219.353L568.052,219.352L568.057,219.352L568.064,219.351L568.07,219.353L568.071,219.354L568.075,219.354L568.076,219.355L568.078,219.355L568.082,219.355L568.086,219.355L568.086,219.355L568.087,219.355L568.087,219.355L568.088,219.355L568.088,219.356L568.088,219.357L568.089,219.357L568.091,219.357L568.093,219.356L568.094,219.356L568.095,219.356L568.097,219.356L568.098,219.357L568.099,219.357L568.1,219.357L568.101,219.357L568.102,219.357L568.103,219.357L568.104,219.356L568.105,219.356L568.106,219.357L568.108,219.357L568.109,219.356L568.117,219.355L568.122,219.356L568.126,219.359L568.128,219.36L568.131,219.36L568.132,219.36L568.134,219.359L568.136,219.358L568.137,219.357L568.136,219.357L568.137,219.357L568.138,219.357L568.139,219.356L568.141,219.356L568.142,219.356L568.142,219.355L568.142,219.355L568.143,219.355L568.143,219.355L568.144,219.355L568.146,219.354L568.148,219.353L568.148,219.352L568.149,219.351L568.151,219.35L568.152,219.35L568.153,219.35L568.156,219.353L568.157,219.355L568.156,219.356L568.156,219.357L568.155,219.359L568.153,219.361L568.151,219.363L568.152,219.364L568.152,219.367L568.156,219.371L568.162,219.376L568.164,219.381L568.162,219.387L568.162,219.389L568.163,219.39L568.163,219.392L568.164,219.393L568.165,219.394L568.166,219.396L568.166,219.397L568.166,219.401L568.165,219.402L568.165,219.404L568.165,219.404L568.164,219.404L568.164,219.404L568.164,219.404L568.163,219.404L568.163,219.405L568.162,219.406L568.161,219.407L568.161,219.409L568.161,219.411L568.16,219.412L568.158,219.416L568.157,219.417L568.155,219.418L568.154,219.419L568.154,219.42L568.154,219.42L568.154,219.421L568.155,219.423L568.156,219.424L568.157,219.425L568.158,219.426L568.159,219.428L568.161,219.428L568.161,219.429L568.164,219.429L568.168,219.43L568.173,219.43L568.175,219.431L568.176,219.431L568.177,219.434L568.179,219.435L568.182,219.436L568.185,219.438L568.194,219.442L568.199,219.445L568.203,219.445L568.206,219.444L568.208,219.447L568.211,219.451L568.215,219.454L568.215,219.456L568.215,219.458L568.214,219.462L568.213,219.465L568.21,219.477L568.212,219.482L568.215,219.489L568.216,219.49L568.221,219.496L568.227,219.498L568.234,219.499L568.239,219.5L568.244,219.503L568.25,219.51L568.253,219.511L568.254,219.511L568.259,219.51L568.263,219.51L568.266,219.506L568.27,219.503L568.276,219.501L568.28,219.5L568.286,219.499L568.292,219.498L568.297,219.497L568.299,219.497L568.3,219.495L568.303,219.493L568.304,219.492L568.305,219.49L568.305,219.488L568.306,219.485L568.308,219.485L568.31,219.484L568.311,219.485L568.316,219.485L568.321,219.484L568.326,219.482L568.328,219.481L568.33,219.481L568.332,219.481L568.334,219.482L568.337,219.481L568.338,219.482L568.34,219.481L568.343,219.483L568.343,219.486L568.346,219.488L568.348,219.489L568.349,219.491L568.351,219.492L568.351,219.493L568.353,219.496L568.355,219.496L568.357,219.508L568.358,219.511L568.365,219.514L568.37,219.519L568.382,219.533L568.385,219.535L568.387,219.536L568.393,219.538L568.395,219.539L568.395,219.543L568.397,219.551L568.398,219.555L568.399,219.556L568.406,219.558L568.407,219.56L568.409,219.564L568.411,219.566L568.414,219.566L568.419,219.562L568.421,219.561L568.423,219.562L568.43,219.568L568.436,219.571L568.437,219.572L568.44,219.573L568.443,219.575L568.449,219.58L568.454,219.582L568.456,219.584L568.458,219.583L568.46,219.582L568.463,219.579L568.465,219.577L568.466,219.577L568.468,219.577L568.469,219.578L568.478,219.583L568.487,219.587L568.494,219.589L568.495,219.589L568.496,219.589L568.496,219.587L568.496,219.586L568.497,219.584L568.497,219.583L568.497,219.581L568.498,219.581L568.5,219.579L568.502,219.578L568.505,219.575L568.505,219.572L568.505,219.57L568.505,219.568L568.502,219.565L568.5,219.561L568.499,219.559L568.498,219.558L568.499,219.555L568.501,219.553L568.503,219.55L568.505,219.549L568.507,219.548L568.508,219.546L568.509,219.546L568.51,219.546L568.514,219.549L568.515,219.551L568.521,219.555L568.523,219.556L568.525,219.558L568.526,219.558L568.528,219.558L568.53,219.558L568.539,219.559L568.548,219.559L568.552,219.558L568.558,219.554L568.563,219.551L568.57,219.548L568.574,219.547L568.581,219.547L568.583,219.545L568.585,219.544L568.586,219.544L568.586,219.545L568.586,219.546L568.587,219.547L568.588,219.547L568.589,219.548L568.589,219.548L568.591,219.551L568.591,219.555L568.592,219.558L568.592,219.562L568.59,219.568L568.591,219.576L568.593,219.58L568.595,219.581L568.597,219.579L568.598,219.578L568.6,219.579L568.601,219.583L568.601,219.585L568.603,219.585L568.607,219.586L568.609,219.587L568.612,219.591L568.613,219.593L568.616,219.594L568.621,219.594L568.624,219.593L568.627,219.593L568.629,219.59L568.629,219.59L568.631,219.589L568.635,219.587L568.638,219.587L568.648,219.592L568.649,219.592L568.655,219.597L568.658,219.599L568.661,219.597L568.663,219.596L568.67,219.597L568.672,219.597L568.673,219.597L568.675,219.598L568.677,219.6L568.688,219.6L568.696,219.599L568.702,219.599L568.702,219.6L568.704,219.602L568.704,219.602L568.704,219.604L568.705,219.606L568.71,219.612L568.711,219.613L568.713,219.618L568.714,219.621L568.719,219.625L568.724,219.626L568.727,219.628L568.731,219.63L568.732,219.631L568.731,219.634L568.731,219.638L568.732,219.639L568.731,219.643L568.734,219.645L568.736,219.647L568.737,219.648L568.739,219.649L568.742,219.65L568.746,219.651L568.748,219.651L568.752,219.65L568.754,219.648L568.754,219.647L568.757,219.643L568.761,219.638L568.763,219.636L568.764,219.636L568.766,219.637L568.77,219.639L568.777,219.642L568.779,219.642L568.78,219.642L568.788,219.643L568.791,219.645L568.793,219.647L568.795,219.649L568.795,219.652L568.794,219.655L568.794,219.658L568.795,219.659L568.797,219.66L568.799,219.661L568.8,219.664L568.8,219.664L568.799,219.666L568.796,219.67L568.793,219.672L568.792,219.675L568.799,219.679L568.801,219.682L568.807,219.688L568.812,219.698L568.813,219.699L568.818,219.699L568.82,219.699L568.825,219.698L568.83,219.696L568.832,219.695L568.834,219.694L568.836,219.694L568.836,219.693L568.837,219.691L568.839,219.691L568.844,219.693L568.851,219.693L568.856,219.693L568.861,219.694L568.864,219.692L568.867,219.688L568.87,219.682L568.871,219.677L568.871,219.674L568.875,219.674L568.878,219.675L568.882,219.676L568.887,219.677L568.893,219.678L568.898,219.678L568.9,219.676L568.901,219.675L568.903,219.673L568.903,219.668L568.909,219.662L568.912,219.659L568.916,219.656L568.922,219.654L568.927,219.652L568.931,219.649L568.932,219.644L568.936,219.64L568.937,219.635L568.938,219.628L568.94,219.626L568.94,219.625L568.943,219.624L568.945,219.623L568.945,219.624L568.948,219.627L568.951,219.63L568.953,219.63L568.956,219.632L568.96,219.632L568.961,219.632L568.967,219.633L568.971,219.633L568.973,219.633L568.981,219.634L568.984,219.633L568.987,219.632L568.989,219.632L568.996,219.638L568.999,219.643L569.001,219.645L569.007,219.647L569.011,219.649L569.013,219.65L569.015,219.65L569.016,219.651L569.019,219.653L569.022,219.657L569.022,219.659L569.025,219.666L569.027,219.669L569.026,219.675L569.024,219.676L569.021,219.677L569.019,219.678L569.018,219.682L569.018,219.686L569.018,219.688L569.02,219.691L569.02,219.693L569.019,219.694L569.017,219.695L569.016,219.695L569.015,219.698L569.015,219.701L569.015,219.702L569.015,219.703L569.016,219.707L569.015,219.709L569.016,219.71L569.018,219.711L569.021,219.713L569.025,219.714L569.027,219.716L569.027,219.722L569.023,219.727L569.022,219.729L569.022,219.729L569.024,219.732L569.026,219.734L569.031,219.737L569.033,219.743L569.038,219.749L569.041,219.751L569.045,219.753L569.048,219.756L569.055,219.762L569.057,219.765L569.059,219.767L569.063,219.769L569.066,219.77L569.071,219.771L569.075,219.77L569.08,219.768L569.086,219.765L569.092,219.764L569.098,219.762L569.103,219.765L569.106,219.767L569.109,219.77L569.11,219.771L569.112,219.772L569.114,219.776L569.114,219.778L569.114,219.781L569.116,219.784L569.119,219.786L569.12,219.788L569.126,219.793L569.128,219.795L569.129,219.796L569.132,219.798L569.137,219.802L569.138,219.805L569.143,219.808L569.146,219.81L569.146,219.812L569.146,219.815L569.147,219.816L569.152,219.818L569.156,219.82L569.16,219.824L569.164,219.826L569.167,219.829L569.17,219.827L569.176,219.826L569.175,219.834L569.176,219.835L569.18,219.838L569.186,219.839L569.193,219.844L569.197,219.844L569.202,219.847L569.203,219.848L569.207,219.848L569.209,219.849L569.21,219.85L569.211,219.851L569.213,219.85L569.214,219.849L569.218,219.849L569.223,219.849L569.225,219.85L569.231,219.851L569.232,219.851L569.234,219.852L569.24,219.852L569.241,219.854L569.243,219.856L569.246,219.867L569.251,219.872L569.252,219.877L569.255,219.882L569.255,219.884L569.259,219.887L569.265,219.892L569.268,219.897L569.27,219.9L569.272,219.9L569.274,219.9L569.283,219.897L569.287,219.894L569.291,219.892L569.294,219.891L569.295,219.893L569.296,219.894L569.301,219.9L569.301,219.909L569.305,219.917L569.306,219.919L569.306,219.927L569.313,219.934L569.316,219.933L569.317,219.932L569.319,219.93L569.321,219.93L569.329,219.937L569.331,219.939L569.335,219.942L569.341,219.942L569.346,219.947L569.352,219.951L569.357,219.955L569.361,219.96L569.361,219.964L569.362,219.966L569.366,219.964L569.369,219.963L569.371,219.963L569.374,219.965L569.377,219.964L569.378,219.964L569.379,219.963L569.381,219.964L569.381,219.963L569.388,219.963L569.392,219.964L569.394,219.963L569.4,219.958L569.402,219.955L569.404,219.952L569.403,219.951L569.404,219.944L569.409,219.942L569.412,219.942L569.415,219.939L569.417,219.938ZM800,0L800,12.246L800,78.668L800,145.789L800,215.835L800,261.497L800,300L800,338.503L800,384.165L800,454.211L800,600L800,600L200,600L200,600L200,454.211L200,384.165L200,338.503L200,300L200,261.497L200,215.835L200,145.789L200,78.668L200,12.246L200,0L200,0L800,0Z"/>
<path d="M570.08,217.641m0,4.5a4.5,4.5 0 1,1 0,-9a4.5,4.5 0 1,1 0,9z"/>
<path d="M569.545,218.78m0,4.5a4.5,4.5 0 1,1 0,-9a4.5,4.5 0 1,1 0,9z"/>
</svg>