<?xml version="1.0" encoding="UTF-8"?>
<svg xmlns="http://www.w3.org/2000/svg" viewBox="0 0 1000 600" stroke="#000" stroke-width="0.3" fill="#ccc">
<path d="M603.806,189.466L603.803,189.469L603.797,189.471L603.802,189.49L603.785,189.497L603.773,189.532L603.79,189.532L603.804,189.547L603.808,189.551L603.8,189.562L603.792,189.554L603.764,189.564L603.755,189.592L603.707,189.587L603.703,189.608L603.7,189.632L603.702,189.633L603.699,189.649L603.695,189.677L603.69,189.711L603.688,189.715L603.682,189.758L603.677,189.773L603.67,189.8L603.656,189.807L603.641,189.777L603.612,189.726L603.61,189.722L603.597,189.7L603.579,189.667L603.567,189.676L603.563,189.677L603.537,189.675L603.506,189.675L603.48,189.68L603.469,189.684L603.449,189.716L603.438,189.716L603.427,189.713L603.422,189.714L603.411,189.717L603.401,189.711L603.381,189.699L603.361,189.692L603.358,189.691L603.339,189.691L603.332,189.692L603.317,189.692L603.277,189.691L603.286,189.72L603.306,189.777L603.313,189.796L603.326,189.831L603.326,189.835L603.321,189.845L603.313,189.864L603.314,189.866L603.32,189.882L603.324,189.891L603.332,189.918L603.336,189.926L603.347,189.943L603.343,189.952L603.34,189.96L603.338,189.967L603.335,189.977L603.341,190.004L603.351,190.051L603.392,190.047L603.425,190.069L603.435,190.089L603.452,190.124L603.471,190.134L603.47,190.136L603.457,190.164L603.481,190.199L603.515,190.244L603.523,190.243L603.526,190.269L603.527,190.281L603.531,190.318L603.525,190.323L603.52,190.364L603.502,190.361L603.497,190.364L603.493,190.368L603.481,190.377L603.457,190.394L603.454,190.397L603.439,190.415L603.431,190.427L603.423,190.44L603.417,190.445L603.411,190.451L603.395,190.462L603.385,190.492L603.381,190.528L603.371,190.546L603.358,190.561L603.362,190.578L603.383,190.581L603.424,190.569L603.44,190.588L603.475,190.59L603.47,190.619L603.462,190.672L603.463,190.693L603.463,190.718L603.468,190.719L603.53,190.737L603.551,190.737L603.592,190.738L603.593,190.706L603.594,190.704L603.595,190.704L603.609,190.706L603.634,190.713L603.647,190.714L603.652,190.711L603.662,190.698L603.67,190.686L603.671,190.678L603.684,190.675L603.73,190.672L603.732,190.725L603.793,190.736L603.865,190.731L603.903,190.722L603.993,190.688L603.999,190.625L603.988,190.606L604.006,190.584L604.01,190.581L604.052,190.586L604.069,190.602L604.079,190.599L604.164,190.588L604.173,190.584L604.19,190.594L604.251,190.563L604.261,190.564L604.271,190.565L604.283,190.583L604.297,190.604L604.23,190.642L604.2,190.681L604.207,190.71L604.248,190.712L604.252,190.742L604.25,190.785L604.334,190.836L604.37,190.833L604.374,190.79L604.383,190.751L604.385,190.746L604.386,190.733L604.388,190.733L604.398,190.734L604.404,190.737L604.413,190.742L604.433,190.752L604.438,190.781L604.449,190.81L604.441,190.821L604.453,190.866L604.474,190.86L604.498,190.85L604.515,190.841L604.522,190.836L604.553,190.818L604.583,190.801L604.647,190.78L604.654,190.778L604.657,190.777L604.712,190.76L604.736,190.746L604.743,190.739L604.755,190.733L604.772,190.726L604.783,190.718L604.809,190.692L604.834,190.668L604.851,190.658L604.872,190.651L604.931,190.637L604.964,190.631L604.969,190.648L604.999,190.659L605.024,190.668L605.066,190.656L605.102,190.646L605.185,190.655L605.333,190.65L605.335,190.654L605.34,190.668L605.354,190.699L605.373,190.74L605.376,190.749L605.387,190.777L605.395,190.8L605.39,190.833L605.386,190.858L605.382,190.884L605.378,190.903L605.377,190.909L605.383,190.925L605.405,190.989L605.475,190.989L605.472,191.023L605.467,191.048L605.454,191.087L605.491,191.097L605.483,191.111L605.467,191.138L605.461,191.142L605.441,191.152L605.419,191.157L605.407,191.158L605.404,191.164L605.4,191.193L605.39,191.259L605.388,191.26L605.37,191.255L605.352,191.265L605.347,191.269L605.364,191.305L605.344,191.308L605.342,191.315L605.34,191.317L605.334,191.32L605.326,191.322L605.278,191.301L605.281,191.249L605.256,191.24L605.237,191.269L605.229,191.297L605.228,191.298L605.216,191.314L605.221,191.348L605.24,191.399L605.29,191.411L605.303,191.418L605.304,191.438L605.305,191.483L605.304,191.503L605.303,191.507L605.302,191.524L605.272,191.524L605.271,191.52L605.247,191.52L605.234,191.5L605.233,191.5L605.228,191.508L605.219,191.527L605.212,191.544L605.209,191.559L605.209,191.564L605.219,191.591L605.238,191.636L605.256,191.638L605.258,191.643L605.27,191.673L605.276,191.692L605.266,191.694L605.258,191.696L605.245,191.697L605.239,191.701L605.237,191.702L605.236,191.702L605.234,191.7L605.232,191.697L605.229,191.696L605.225,191.697L605.216,191.701L605.201,191.703L605.194,191.703L605.189,191.7L605.188,191.695L605.183,191.692L605.165,191.697L605.163,191.7L605.167,191.707L605.172,191.722L605.196,191.714L605.213,191.753L605.251,191.738L605.259,191.735L605.286,191.772L605.348,191.757L605.357,191.752L605.359,191.812L605.439,191.813L605.435,191.819L605.429,191.828L605.419,191.837L605.426,191.858L605.443,191.921L605.458,191.974L605.47,191.953L605.515,191.904L605.573,191.934L605.587,191.964L605.576,191.977L605.565,191.991L605.572,192.007L605.579,192.038L605.584,192.076L605.585,192.095L605.586,192.097L605.586,192.097L605.587,192.098L605.588,192.098L605.588,192.099L605.588,192.1L605.587,192.1L605.587,192.1L605.586,192.101L605.587,192.102L605.587,192.103L605.588,192.103L605.587,192.105L605.587,192.105L605.586,192.106L605.586,192.106L605.585,192.105L605.584,192.105L605.584,192.105L605.584,192.105L605.584,192.106L605.584,192.107L605.585,192.107L605.587,192.107L605.588,192.107L605.589,192.106L605.589,192.106L605.59,192.105L605.59,192.105L605.59,192.105L605.591,192.106L605.591,192.106L605.591,192.107L605.592,192.108L605.592,192.108L605.592,192.109L605.592,192.11L605.592,192.111L605.591,192.111L605.591,192.111L605.59,192.111L605.59,192.112L605.591,192.112L605.592,192.113L605.592,192.113L605.593,192.113L605.593,192.112L605.593,192.112L605.593,192.111L605.594,192.11L605.594,192.109L605.594,192.109L605.594,192.108L605.594,192.107L605.595,192.107L605.595,192.107L605.595,192.108L605.595,192.108L605.596,192.108L605.597,192.109L605.597,192.109L605.597,192.11L605.596,192.11L605.596,192.11L605.595,192.11L605.595,192.11L605.594,192.111L605.594,192.112L605.595,192.113L605.595,192.113L605.596,192.114L605.596,192.113L605.597,192.113L605.597,192.113L605.598,192.112L605.599,192.112L605.6,192.112L605.6,192.113L605.602,192.113L605.603,192.113L605.604,192.114L605.605,192.114L605.605,192.113L605.604,192.112L605.604,192.11L605.603,192.109L605.603,192.108L605.604,192.108L605.604,192.107L605.605,192.107L605.606,192.108L605.606,192.109L605.606,192.109L605.606,192.11L605.607,192.11L605.608,192.11L605.609,192.109L605.609,192.109L605.61,192.109L605.611,192.11L605.611,192.11L605.611,192.111L605.61,192.112L605.609,192.112L605.609,192.113L605.61,192.113L605.61,192.114L605.611,192.114L605.611,192.115L605.612,192.115L605.613,192.115L605.614,192.114L605.616,192.113L605.616,192.113L605.617,192.113L605.617,192.114L605.617,192.114L605.618,192.114L605.619,192.114L605.619,192.114L605.62,192.113L605.62,192.112L605.622,192.111L605.622,192.11L605.623,192.109L605.623,192.109L605.623,192.108L605.623,192.105L605.623,192.105L605.624,192.105L605.624,192.105L605.625,192.106L605.625,192.106L605.625,192.107L605.626,192.107L605.627,192.107L605.627,192.108L605.628,192.108L605.628,192.108L605.629,192.106L605.63,192.105L605.63,192.104L605.629,192.103L605.628,192.103L605.627,192.102L605.627,192.102L605.627,192.101L605.627,192.1L605.628,192.1L605.629,192.1L605.63,192.101L605.631,192.102L605.631,192.102L605.632,192.102L605.632,192.102L605.632,192.101L605.632,192.1L605.631,192.099L605.63,192.098L605.63,192.097L605.631,192.097L605.632,192.097L605.632,192.097L605.633,192.097L605.634,192.097L605.634,192.096L605.634,192.096L605.635,192.096L605.635,192.096L605.636,192.097L605.636,192.098L605.636,192.098L605.636,192.099L605.636,192.099L605.635,192.099L605.634,192.099L605.633,192.1L605.633,192.101L605.633,192.102L605.634,192.103L605.635,192.103L605.635,192.104L605.635,192.105L605.635,192.105L605.634,192.105L605.633,192.105L605.633,192.106L605.633,192.106L605.634,192.106L605.635,192.107L605.636,192.106L605.638,192.106L605.638,192.106L605.639,192.105L605.64,192.104L605.641,192.104L605.642,192.104L605.642,192.105L605.642,192.105L605.642,192.106L605.662,192.114L605.664,192.114L605.666,192.113L605.67,192.112L605.673,192.112L605.678,192.11L605.679,192.109L605.681,192.108L605.682,192.107L605.684,192.106L605.686,192.105L605.687,192.102L605.688,192.101L605.689,192.1L605.691,192.1L605.692,192.099L605.693,192.099L605.691,192.098L605.689,192.098L605.687,192.097L605.686,192.097L605.685,192.096L605.687,192.095L605.688,192.095L605.689,192.095L605.69,192.092L605.692,192.092L605.694,192.093L605.697,192.093L605.699,192.092L605.702,192.093L605.703,192.093L605.704,192.091L605.705,192.092L605.705,192.093L605.705,192.095L605.705,192.096L605.706,192.097L605.708,192.097L605.71,192.096L605.711,192.096L605.711,192.095L605.708,192.093L605.707,192.092L605.708,192.091L605.708,192.091L605.71,192.091L605.71,192.092L605.71,192.093L605.711,192.094L605.712,192.094L605.713,192.093L605.713,192.092L605.713,192.091L605.714,192.091L605.715,192.092L605.716,192.092L605.716,192.091L605.716,192.09L605.715,192.09L605.714,192.089L605.715,192.089L605.716,192.089L605.717,192.09L605.719,192.09L605.721,192.089L605.723,192.09L605.724,192.091L605.725,192.091L605.726,192.09L605.726,192.088L605.727,192.088L605.727,192.089L605.728,192.09L605.731,192.089L605.732,192.088L605.732,192.086L605.732,192.086L605.735,192.087L605.736,192.088L605.736,192.088L605.737,192.089L605.74,192.088L605.741,192.087L605.741,192.086L605.74,192.084L605.74,192.083L605.741,192.083L605.742,192.084L605.743,192.086L605.745,192.086L605.746,192.088L605.749,192.089L605.751,192.089L605.753,192.088L605.755,192.089L605.757,192.089L605.758,192.089L605.759,192.092L605.76,192.092L605.76,192.092L605.761,192.091L605.762,192.09L605.763,192.089L605.764,192.089L605.767,192.088L605.77,192.085L605.773,192.082L605.776,192.08L605.779,192.078L605.784,192.075L605.786,192.073L605.787,192.072L605.789,192.072L605.791,192.073L605.793,192.072L605.801,192.069L605.803,192.068L605.805,192.065L605.806,192.064L605.808,192.063L605.809,192.062L605.81,192.061L605.812,192.061L605.813,192.061L605.813,192.061L605.813,192.06L605.813,192.059L605.811,192.059L605.811,192.059L605.81,192.058L605.81,192.057L605.811,192.056L605.812,192.056L605.813,192.054L605.814,192.053L605.813,192.052L605.813,192.051L605.811,192.051L605.811,192.05L605.811,192.049L605.812,192.049L605.813,192.049L605.814,192.049L605.814,192.049L605.814,192.05L605.814,192.05L605.814,192.051L605.815,192.052L605.816,192.052L605.816,192.053L605.817,192.054L605.817,192.055L605.817,192.056L605.817,192.057L605.818,192.057L605.818,192.057L605.819,192.056L605.819,192.055L605.819,192.053L605.82,192.052L605.821,192.051L605.821,192.05L605.82,192.049L605.82,192.049L605.82,192.048L605.82,192.048L605.82,192.047L605.82,192.046L605.82,192.046L605.82,192.045L605.821,192.045L605.822,192.044L605.821,192.043L605.821,192.043L605.82,192.043L605.819,192.043L605.818,192.043L605.818,192.043L605.818,192.044L605.818,192.044L605.817,192.044L605.817,192.044L605.817,192.044L605.817,192.043L605.818,192.042L605.819,192.042L605.82,192.042L605.821,192.042L605.822,192.041L605.822,192.04L605.821,192.04L605.82,192.039L605.819,192.039L605.819,192.039L605.82,192.037L605.821,192.036L605.821,192.036L605.822,192.035L605.822,192.036L605.823,192.037L605.823,192.038L605.823,192.039L605.823,192.039L605.822,192.04L605.823,192.04L605.823,192.04L605.824,192.04L605.825,192.039L605.825,192.038L605.825,192.037L605.826,192.037L605.827,192.037L605.828,192.038L605.828,192.038L605.828,192.039L605.829,192.039L605.829,192.038L605.83,192.038L605.83,192.038L605.831,192.038L605.831,192.038L605.832,192.038L605.833,192.036L605.833,192.036L605.834,192.036L605.834,192.037L605.835,192.038L605.836,192.038L605.836,192.04L605.836,192.04L605.836,192.041L605.836,192.042L605.837,192.044L605.838,192.044L605.838,192.045L605.839,192.046L605.839,192.047L605.84,192.047L605.841,192.046L605.841,192.046L605.842,192.047L605.843,192.047L605.847,192.048L605.847,192.048L605.848,192.049L605.848,192.05L605.847,192.051L605.846,192.052L605.846,192.052L605.846,192.054L605.847,192.054L605.848,192.054L605.849,192.054L605.849,192.055L605.849,192.056L605.85,192.057L605.851,192.059L605.85,192.06L605.85,192.061L605.848,192.061L605.848,192.062L605.849,192.063L605.851,192.063L605.852,192.063L605.853,192.062L605.854,192.062L605.857,192.062L605.858,192.063L605.858,192.063L605.86,192.063L605.862,192.063L605.864,192.062L605.864,192.061L605.865,192.06L605.864,192.058L605.864,192.057L605.865,192.056L605.866,192.055L605.866,192.056L605.867,192.056L605.868,192.057L605.869,192.057L605.869,192.056L605.869,192.055L605.868,192.054L605.868,192.052L605.866,192.05L605.866,192.049L605.867,192.048L605.868,192.047L605.869,192.046L605.87,192.046L605.871,192.044L605.872,192.043L605.872,192.04L605.873,192.039L605.874,192.038L605.875,192.036L605.878,192.035L605.88,192.034L605.881,192.035L605.884,192.036L605.885,192.038L605.885,192.04L605.886,192.041L605.887,192.042L605.887,192.043L605.886,192.044L605.886,192.045L605.886,192.046L605.887,192.047L605.889,192.048L605.89,192.048L605.891,192.05L605.89,192.05L605.891,192.051L605.891,192.052L605.893,192.052L605.894,192.052L605.895,192.053L605.897,192.053L605.898,192.053L605.9,192.052L605.909,192.048L605.911,192.047L605.914,192.046L605.914,192.045L605.915,192.044L605.916,192.044L605.917,192.044L605.918,192.043L605.919,192.041L605.921,192.038L605.922,192.037L605.922,192.036L605.923,192.035L605.924,192.034L605.926,192.034L605.928,192.034L605.931,192.035L605.934,192.036L605.934,192.037L605.935,192.037L605.938,192.037L605.939,192.037L605.939,192.037L605.94,192.036L605.941,192.035L605.942,192.035L605.942,192.033L605.942,192.032L605.942,192.03L605.942,192.03L605.944,192.029L605.944,192.029L605.946,192.029L605.947,192.03L605.948,192.03L605.949,192.03L605.95,192.029L605.952,192.029L605.952,192.029L605.953,192.028L605.954,192.028L605.956,192.028L605.957,192.028L605.958,192.027L605.959,192.026L605.96,192.025L605.961,192.025L605.961,192.026L605.962,192.027L605.963,192.028L605.964,192.029L605.964,192.03L605.965,192.03L605.968,192.029L605.973,192.027L605.974,192.027L605.974,192.026L605.975,192.025L605.975,192.024L605.976,192.023L605.977,192.023L605.977,192.024L605.978,192.024L605.978,192.023L605.979,192.023L605.98,192.023L605.98,192.024L605.98,192.024L605.981,192.024L605.983,192.023L605.985,192.021L605.993,192.018L605.994,192.017L605.997,192.016L605.999,192.015L606,192.014L606.001,192.013L606.003,192.012L606.005,192.011L606.006,192.011L606.007,192.01L606.012,192.007L606.012,192.006L606.014,192.004L606.015,192.003L606.015,192.002L606.015,192.001L606.015,192L606.015,192L606.016,191.999L606.017,191.999L606.017,191.999L606.018,191.999L606.019,191.999L606.019,191.998L606.02,191.997L606.022,191.997L606.024,191.997L606.025,191.998L606.028,191.998L606.029,191.999L606.031,191.998L606.032,191.998L606.033,191.998L606.035,191.998L606.036,191.997L606.037,191.997L606.038,191.998L606.038,191.998L606.037,191.999L606.038,192L606.038,192L606.039,192L606.041,191.999L606.046,191.994L606.048,191.993L606.049,191.992L606.051,191.991L606.053,191.99L606.055,191.989L606.055,191.988L606.057,191.987L606.058,191.986L606.059,191.985L606.059,191.984L606.06,191.983L606.061,191.981L606.063,191.981L606.065,191.981L606.066,191.98L606.071,191.976L606.073,191.975L606.075,191.972L606.078,191.969L606.078,191.968L606.078,191.966L606.078,191.964L606.076,191.964L606.076,191.963L606.075,191.963L606.075,191.963L606.074,191.962L606.074,191.962L606.074,191.96L606.075,191.959L606.076,191.959L606.077,191.959L606.078,191.959L606.079,191.96L606.08,191.961L606.08,191.962L606.081,191.963L606.082,191.963L606.083,191.962L606.085,191.962L606.086,191.963L606.087,191.964L606.088,191.964L606.09,191.964L606.092,191.963L606.093,191.962L606.094,191.961L606.095,191.958L606.095,191.957L606.096,191.956L606.098,191.955L606.1,191.955L606.103,191.954L606.105,191.954L606.106,191.955L606.106,191.956L606.106,191.956L606.106,191.957L606.105,191.958L606.105,191.958L606.106,191.959L606.106,191.959L606.107,191.958L606.107,191.958L606.107,191.957L606.108,191.957L606.109,191.956L606.11,191.956L606.111,191.956L606.113,191.955L606.114,191.955L606.116,191.954L606.117,191.953L606.117,191.952L606.118,191.952L606.119,191.952L606.12,191.953L606.121,191.953L606.121,191.954L606.122,191.954L606.122,191.953L606.123,191.953L606.124,191.952L606.125,191.951L606.126,191.95L606.127,191.949L606.128,191.948L606.129,191.947L606.131,191.948L606.134,191.948L606.136,191.947L606.138,191.946L606.138,191.945L606.14,191.944L606.141,191.944L606.141,191.944L606.142,191.944L606.142,191.945L606.143,191.945L606.144,191.944L606.145,191.944L606.146,191.943L606.148,191.944L606.15,191.943L606.152,191.943L606.155,191.942L606.157,191.942L606.161,191.94L606.164,191.939L606.167,191.938L606.169,191.938L606.17,191.938L606.172,191.938L606.174,191.936L606.174,191.935L606.174,191.935L606.174,191.933L606.173,191.932L606.172,191.931L606.172,191.93L606.172,191.929L606.173,191.927L606.174,191.926L606.175,191.926L606.176,191.926L606.178,191.926L606.179,191.928L606.179,191.928L606.18,191.929L606.182,191.929L606.182,191.929L606.183,191.93L606.183,191.931L606.183,191.931L606.182,191.932L606.183,191.932L606.184,191.933L606.185,191.933L606.185,191.932L606.186,191.932L606.186,191.932L606.188,191.932L606.19,191.932L606.191,191.932L606.192,191.931L606.193,191.93L606.194,191.929L606.194,191.928L606.194,191.927L606.195,191.927L606.195,191.927L606.195,191.928L606.195,191.929L606.196,191.929L606.196,191.929L606.197,191.928L606.198,191.927L606.201,191.926L606.202,191.925L606.203,191.925L606.203,191.925L606.204,191.925L606.206,191.923L606.207,191.922L606.208,191.921L606.208,191.92L606.208,191.919L606.209,191.918L606.209,191.918L606.21,191.918L606.211,191.917L606.212,191.917L606.214,191.916L606.215,191.916L606.216,191.916L606.217,191.917L606.217,191.917L606.217,191.917L606.218,191.916L606.218,191.915L606.217,191.915L606.216,191.914L606.215,191.915L606.215,191.915L606.214,191.915L606.213,191.915L606.212,191.915L606.212,191.915L606.211,191.914L606.211,191.913L606.211,191.912L606.211,191.912L606.211,191.911L606.212,191.91L606.213,191.91L606.214,191.909L606.214,191.908L606.214,191.907L606.214,191.907L606.215,191.906L606.215,191.906L606.216,191.906L606.217,191.906L606.217,191.905L606.218,191.905L606.219,191.904L606.22,191.902L606.221,191.901L606.222,191.9L606.223,191.901L606.224,191.902L606.224,191.903L606.224,191.904L606.224,191.905L606.224,191.906L606.224,191.907L606.225,191.908L606.225,191.908L606.226,191.908L606.227,191.907L606.227,191.906L606.228,191.906L606.229,191.906L606.229,191.906L606.229,191.906L606.23,191.904L606.23,191.904L606.231,191.903L606.232,191.904L606.232,191.904L606.234,191.906L606.235,191.907L606.235,191.908L606.234,191.908L606.234,191.909L606.234,191.91L606.234,191.91L606.235,191.91L606.236,191.91L606.238,191.909L606.239,191.909L606.24,191.909L606.241,191.909L606.242,191.909L606.243,191.909L606.244,191.908L606.245,191.908L606.246,191.907L606.246,191.906L606.247,191.905L606.247,191.905L606.248,191.905L606.248,191.906L606.25,191.907L606.253,191.907L606.254,191.907L606.255,191.906L606.256,191.906L606.257,191.904L606.259,191.902L606.26,191.901L606.261,191.9L606.262,191.899L606.263,191.899L606.264,191.897L606.264,191.895L606.264,191.894L606.264,191.893L606.263,191.893L606.263,191.892L606.263,191.891L606.263,191.89L606.264,191.889L606.266,191.889L606.267,191.89L606.268,191.89L606.269,191.891L606.274,191.893L606.275,191.893L606.276,191.893L606.277,191.892L606.278,191.892L606.278,191.891L606.278,191.892L606.279,191.892L606.279,191.893L606.278,191.894L606.278,191.894L606.277,191.895L606.277,191.895L606.278,191.896L606.278,191.896L606.279,191.895L606.279,191.894L606.28,191.894L606.281,191.893L606.282,191.893L606.283,191.892L606.284,191.891L606.285,191.891L606.285,191.891L606.286,191.891L606.286,191.892L606.286,191.893L606.287,191.893L606.287,191.893L606.288,191.893L606.289,191.892L606.29,191.89L606.291,191.89L606.292,191.89L606.294,191.891L606.295,191.89L606.297,191.89L606.298,191.889L606.302,191.889L606.303,191.889L606.303,191.89L606.306,191.892L606.307,191.892L606.308,191.892L606.309,191.891L606.312,191.89L606.313,191.889L606.314,191.889L606.318,191.887L606.32,191.887L606.32,191.886L606.321,191.886L606.322,191.885L606.323,191.884L606.324,191.883L606.324,191.882L606.324,191.881L606.323,191.88L606.323,191.88L606.322,191.88L606.321,191.88L606.321,191.879L606.321,191.878L606.321,191.877L606.322,191.876L606.323,191.876L606.324,191.876L606.324,191.876L606.325,191.877L606.326,191.877L606.328,191.877L606.329,191.878L606.33,191.878L606.331,191.879L606.331,191.88L606.331,191.881L606.33,191.882L606.329,191.883L606.33,191.883L606.33,191.883L606.331,191.884L606.332,191.883L606.334,191.882L606.337,191.881L606.339,191.88L606.339,191.878L606.358,191.892L606.367,191.906L606.376,191.916L606.404,191.946L606.455,191.998L606.457,192.002L606.461,192.004L606.466,192.009L606.496,192.034L606.515,192.075L606.518,192.078L606.52,192.085L606.523,192.086L606.53,192.079L606.552,192.067L606.553,192.069L606.546,192.077L606.546,192.08L606.556,192.082L606.565,192.077L606.567,192.068L606.57,192.064L606.573,192.064L606.574,192.069L606.579,192.069L606.585,192.066L606.585,192.075L606.595,192.078L606.598,192.075L606.599,192.072L606.596,192.07L606.597,192.064L606.6,192.064L606.601,192.066L606.601,192.071L606.603,192.072L606.6,192.076L606.602,192.08L606.616,192.075L606.625,192.074L606.66,192.057L606.674,192.048L606.677,192.036L606.687,192.027L606.696,192.017L606.702,191.994L606.7,191.982L606.686,191.943L606.655,191.898L606.64,191.876L606.63,191.856L606.63,191.847L606.626,191.826L606.627,191.818L606.631,191.817L606.636,191.821L606.642,191.822L606.644,191.819L606.642,191.815L606.637,191.811L606.636,191.798L606.639,191.795L606.645,191.792L606.654,191.793L606.665,191.794L606.672,191.789L606.688,191.783L606.7,191.776L606.705,191.777L606.708,191.779L606.697,191.787L606.696,191.791L606.698,191.794L606.707,191.793L606.71,191.794L606.71,191.796L606.7,191.799L606.693,191.807L606.689,191.816L606.686,191.819L606.687,191.824L606.694,191.823L606.696,191.824L606.696,191.83L606.698,191.834L606.704,191.839L606.715,191.843L606.738,191.84L606.77,191.811L606.78,191.799L606.786,191.787L606.783,191.772L606.778,191.77L606.777,191.767L606.781,191.764L606.792,191.761L606.795,191.761L606.798,191.758L606.794,191.753L606.787,191.749L606.785,191.747L606.785,191.744L606.793,191.743L606.805,191.746L606.816,191.756L606.829,191.754L606.831,191.764L606.889,191.766L606.945,191.771L606.949,191.772L606.952,191.775L606.957,191.772L606.96,191.77L606.962,191.77L606.964,191.772L606.966,191.772L606.966,191.769L606.968,191.769L606.971,191.768L606.974,191.77L606.98,191.766L606.982,191.764L606.984,191.764L606.984,191.766L606.985,191.767L606.987,191.767L606.988,191.766L606.987,191.763L606.983,191.761L606.983,191.757L606.985,191.755L606.987,191.755L606.989,191.753L606.991,191.753L606.994,191.754L606.997,191.755L606.997,191.756L606.996,191.758L606.996,191.76L606.997,191.76L606.999,191.758L607,191.755L607.001,191.754L607.003,191.755L607.005,191.755L607.006,191.754L607.007,191.751L607.01,191.75L607.013,191.75L607.014,191.749L607.013,191.746L607.014,191.745L607.015,191.745L607.018,191.746L607.019,191.745L607.019,191.743L607.017,191.739L607.017,191.734L607.016,191.733L607.017,191.732L607.018,191.732L607.019,191.733L607.021,191.733L607.022,191.732L607.023,191.728L607.024,191.727L607.027,191.73L607.029,191.731L607.03,191.73L607.031,191.729L607.031,191.727L607.033,191.727L607.037,191.729L607.038,191.731L607.04,191.733L607.043,191.733L607.043,191.732L607.04,191.729L607.04,191.727L607.042,191.726L607.045,191.728L607.046,191.729L607.044,191.73L607.046,191.731L607.048,191.731L607.049,191.73L607.048,191.727L607.049,191.726L607.051,191.727L607.053,191.729L607.052,191.731L607.05,191.731L607.048,191.735L607.049,191.735L607.052,191.735L607.053,191.737L607.052,191.738L607.051,191.738L607.049,191.74L607.047,191.739L607.048,191.737L607.046,191.737L607.046,191.74L607.049,191.742L607.051,191.742L607.053,191.74L607.055,191.741L607.056,191.742L607.056,191.744L607.054,191.742L607.052,191.743L607.051,191.745L607.052,191.747L607.056,191.746L607.058,191.746L607.06,191.744L607.065,191.74L607.068,191.74L607.075,191.735L607.082,191.733L607.085,191.73L607.087,191.733L607.091,191.734L607.097,191.73L607.111,191.718L607.12,191.717L607.127,191.711L607.129,191.712L607.13,191.714L607.133,191.716L607.135,191.716L607.137,191.717L607.139,191.716L607.141,191.715L607.143,191.715L607.145,191.717L607.148,191.716L607.148,191.714L607.146,191.712L607.145,191.709L607.146,191.707L607.147,191.707L607.15,191.71L607.152,191.711L607.156,191.712L607.162,191.708L607.164,191.707L607.17,191.709L607.173,191.708L607.178,191.708L607.18,191.707L607.181,191.704L607.182,191.703L607.184,191.703L607.185,191.706L607.187,191.708L607.189,191.709L607.191,191.707L607.193,191.707L607.205,191.71L607.211,191.707L607.218,191.709L607.222,191.708L607.222,191.706L607.22,191.704L607.221,191.701L607.223,191.701L607.225,191.703L607.229,191.703L607.234,191.701L607.237,191.697L607.251,191.696L607.26,191.69L607.265,191.69L607.271,191.693L607.283,191.698L607.293,191.698L607.3,191.699L607.313,191.704L607.333,191.714L607.35,191.718L607.366,191.72L607.391,191.709L607.404,191.702L607.413,191.7L607.423,191.702L607.428,191.702L607.428,191.698L607.42,191.691L607.42,191.687L607.423,191.685L607.429,191.673L607.434,191.669L607.438,191.673L607.442,191.672L607.439,191.667L607.439,191.664L607.44,191.66L607.44,191.651L607.444,191.646L607.445,191.643L607.443,191.643L607.439,191.645L607.435,191.646L607.433,191.644L607.433,191.641L607.438,191.636L607.439,191.633L607.439,191.628L607.437,191.626L607.439,191.624L607.443,191.625L607.445,191.624L607.446,191.62L607.451,191.62L607.462,191.621L607.466,191.618L607.467,191.616L607.464,191.61L607.466,191.606L607.47,191.605L607.482,191.61L607.486,191.612L607.495,191.612L607.501,191.613L607.506,191.616L607.507,191.624L607.511,191.628L607.512,191.631L607.515,191.633L607.523,191.63L607.534,191.636L607.538,191.64L607.546,191.637L607.551,191.638L607.553,191.637L607.551,191.635L607.547,191.634L607.544,191.635L607.543,191.632L607.544,191.63L607.551,191.627L607.554,191.628L607.558,191.632L607.563,191.632L607.567,191.63L607.568,191.627L607.565,191.625L607.56,191.625L607.558,191.624L607.558,191.622L607.562,191.621L607.564,191.619L607.566,191.614L607.569,191.614L607.57,191.616L607.571,191.616L607.572,191.615L607.574,191.611L607.576,191.61L607.579,191.612L607.582,191.611L607.585,191.613L607.584,191.616L607.579,191.619L607.579,191.622L607.583,191.622L607.589,191.617L607.598,191.617L607.6,191.615L607.61,191.614L607.611,191.618L607.613,191.618L607.617,191.614L607.617,191.611L607.614,191.606L607.615,191.604L607.613,191.602L607.612,191.604L607.612,191.608L607.61,191.608L607.607,191.604L607.607,191.602L607.609,191.601L607.611,191.599L607.613,191.598L607.616,191.597L607.617,191.596L607.618,191.593L607.621,191.592L607.624,191.593L607.625,191.591L607.629,191.589L607.629,191.587L607.627,191.585L607.628,191.583L607.631,191.583L607.634,191.58L607.636,191.58L607.637,191.581L607.638,191.583L607.637,191.588L607.637,191.592L607.639,191.594L607.642,191.595L607.644,191.593L607.645,191.592L607.645,191.586L607.643,191.582L607.644,191.58L607.646,191.579L607.648,191.58L607.652,191.587L607.654,191.587L607.658,191.583L607.659,191.583L607.661,191.586L607.662,191.586L607.663,191.585L607.665,191.583L607.666,191.581L607.665,191.578L607.662,191.575L607.661,191.573L607.661,191.571L607.659,191.57L607.658,191.572L607.657,191.572L607.656,191.571L607.656,191.567L607.654,191.565L607.651,191.565L607.651,191.564L607.652,191.563L607.654,191.563L607.659,191.562L607.661,191.561L607.664,191.562L607.665,191.561L607.665,191.559L607.664,191.559L607.662,191.559L607.661,191.557L607.662,191.556L607.664,191.555L607.667,191.556L607.669,191.554L607.668,191.553L607.666,191.552L607.665,191.551L607.666,191.55L607.668,191.549L607.671,191.549L607.675,191.547L607.678,191.547L607.682,191.548L607.685,191.549L607.687,191.546L607.686,191.544L607.684,191.543L607.676,191.543L607.674,191.543L607.674,191.541L607.675,191.539L607.674,191.535L607.676,191.534L607.68,191.534L607.682,191.533L607.683,191.531L607.683,191.528L607.685,191.527L607.688,191.529L607.691,191.529L607.694,191.526L607.695,191.521L607.693,191.517L607.692,191.515L607.694,191.514L607.696,191.514L607.698,191.516L607.698,191.521L607.699,191.524L607.705,191.531L607.707,191.532L607.709,191.531L607.71,191.53L607.711,191.53L607.716,191.531L607.718,191.559L607.726,191.583L607.75,191.607L607.765,191.622L607.792,191.617L607.808,191.614L607.824,191.611L607.831,191.61L607.85,191.619L607.898,191.641L607.972,191.614L608.003,191.6L608.074,191.554L608.089,191.548L608.178,191.507L608.218,191.473L608.26,191.46L608.291,191.44L608.305,191.466L608.314,191.475L608.323,191.48L608.332,191.489L608.393,191.546L608.426,191.579L608.45,191.608L608.478,191.657L608.507,191.697L608.535,191.708L608.583,191.689L608.652,191.673L608.703,191.697L608.724,191.675L608.771,191.617L608.732,191.579L608.715,191.467L608.703,191.403L608.668,191.36L608.669,191.321L608.697,191.308L608.691,191.288L608.706,191.251L608.687,191.131L608.691,191.104L608.73,191.081L608.773,191.089L608.843,191.026L608.881,191.022L608.93,191L608.955,191.004L608.966,191.012L609.043,190.989L609.108,191.032L609.135,191.034L609.173,191.019L609.16,190.997L609.158,190.945L609.094,190.865L609.108,190.814L609.149,190.775L609.218,190.793L609.25,190.829L609.256,190.831L609.284,190.829L609.324,190.828L609.356,190.819L609.379,190.823L609.388,190.818L609.458,190.854L609.523,190.887L609.579,190.914L609.633,190.9L609.637,190.864L609.666,190.866L609.718,190.782L609.742,190.655L609.783,190.645L609.843,190.629L609.97,190.598L609.94,190.826L609.998,190.863L610.126,190.819L610.586,190.654L610.636,190.636L611.09,190.521L611.132,190.524L611.17,190.541L611.23,190.522L611.26,190.492L611.304,190.449L611.459,190.417L611.554,190.401L611.571,190.398L611.657,190.388L611.739,190.424L611.782,190.383L611.791,190.349L611.834,190.321L611.877,190.338L612.034,190.318L612.065,190.305L612.137,190.284L612.15,190.178L612.185,190.162L612.221,190.146L612.242,190.163L612.255,190.173L612.33,190.198L612.435,190.173L612.46,190.19L612.492,190.182L612.528,190.179L612.553,190.192L612.554,190.203L612.605,190.23L612.738,190.17L612.819,190.176L612.83,190.154L612.864,190.142L612.956,190.11L612.997,189.995L613.002,189.95L613.023,189.889L613.032,189.862L613.184,189.826L613.26,189.862L613.387,189.923L613.432,189.916L613.506,189.905L613.677,189.878L613.725,189.869L613.723,189.845L613.71,189.845L613.694,189.828L613.661,189.807L613.673,189.788L613.697,189.766L613.73,189.736L613.729,189.621L613.769,189.605L613.854,189.584L613.86,189.569L613.859,189.556L613.825,189.542L613.812,189.547L613.785,189.532L613.76,189.487L613.76,189.437L613.734,189.451L613.649,189.338L613.698,189.328L613.683,189.261L613.628,189.261L613.629,189.2L613.733,189.234L613.776,189.202L613.803,189.181L613.84,189.186L613.863,189.236L613.889,189.254L613.923,189.252L613.931,189.177L613.967,189.184L614.074,189.206L614.154,189.195L614.204,189.181L614.265,189.17L614.261,189.152L614.325,189.139L614.333,189.194L614.366,189.201L614.393,189.185L614.43,189.092L614.394,189.073L614.392,189.005L614.457,188.97L614.489,188.942L614.495,188.936L614.517,188.882L614.504,188.86L614.504,188.828L614.537,188.829L614.537,188.787L614.515,188.763L614.509,188.762L614.489,188.741L614.483,188.736L614.481,188.734L614.478,188.733L614.458,188.725L614.47,188.646L614.426,188.624L614.344,188.583L614.336,188.579L614.333,188.53L614.332,188.527L614.332,188.521L614.295,188.521L614.259,188.52L614.165,188.552L614.144,188.56L614.123,188.513L614.102,188.492L614.079,188.468L614.055,188.385L614.046,188.384L614.032,188.38L614.015,188.374L614.012,188.374L613.995,188.366L613.986,188.361L613.979,188.357L613.977,188.356L613.966,188.348L613.96,188.343L613.955,188.347L613.887,188.297L613.87,188.295L613.865,188.276L613.859,188.257L613.868,188.257L613.87,188.25L613.862,188.244L613.859,188.237L613.857,188.224L613.867,188.209L613.857,188.202L613.862,188.185L613.863,188.18L613.863,188.174L613.858,188.16L613.852,188.149L613.851,188.147L613.861,188.143L613.862,188.138L613.864,188.126L613.86,188.124L613.861,188.12L613.862,188.112L613.838,188.101L613.837,188.103L613.821,188.091L613.77,188.09L613.751,188.1L613.722,188.101L613.718,188.095L613.692,188.08L613.648,188.054L613.639,188.019L613.634,188.008L613.633,188L613.632,187.99L613.629,187.966L613.63,187.939L613.63,187.919L613.632,187.888L613.632,187.866L613.632,187.852L613.634,187.836L613.637,187.82L613.654,187.795L613.622,187.775L613.62,187.772L613.627,187.743L613.623,187.671L613.604,187.655L613.565,187.641L613.557,187.645L613.491,187.67L613.487,187.695L613.459,187.701L613.414,187.726L613.403,187.737L613.366,187.749L613.352,187.745L613.316,187.8L613.287,187.833L613.271,187.841L613.266,187.838L613.244,187.839L613.236,187.841L613.202,187.86L613.167,187.822L613.159,187.805L613.089,187.79L613.073,187.77L613.07,187.719L613.081,187.683L613.037,187.641L612.99,187.642L612.914,187.669L612.911,187.669L612.886,187.699L612.865,187.684L612.77,187.685L612.723,187.685L612.691,187.663L612.653,187.747L612.626,187.763L612.608,187.697L612.589,187.674L612.513,187.667L612.496,187.667L612.47,187.669L612.456,187.67L612.438,187.671L612.417,187.622L612.339,187.646L612.306,187.558L612.249,187.397L612.234,187.36L612.199,187.265L612.222,187.224L612.175,187.178L612.166,187.167L612.14,187.09L612.131,187.018L612.172,186.947L611.973,186.948L611.955,186.951L611.923,186.955L611.833,186.961L611.832,186.928L611.805,186.915L611.791,186.915L611.763,186.922L611.735,186.923L611.7,186.923L611.679,186.921L611.64,186.921L611.65,186.859L611.542,186.858L611.541,186.915L611.381,186.912L611.372,186.912L611.273,186.909L611.272,186.841L611.271,186.83L611.272,186.821L611.272,186.814L611.272,186.811L611.272,186.809L611.273,186.808L611.254,186.794L611.203,186.756L611.206,186.709L611.156,186.712L611.15,186.712L611.135,186.714L611.128,186.714L611.12,186.716L611.117,186.716L611.11,186.721L611.097,186.744L611.092,186.751L611.088,186.762L611.084,186.768L611.08,186.779L611.071,186.796L611.064,186.808L611.062,186.813L611.06,186.818L611.048,186.827L611.043,186.829L611.021,186.83L611.014,186.83L611.011,186.831L611.01,186.833L611.009,186.836L611.008,186.838L610.977,186.84L610.899,186.892L610.867,186.913L610.864,186.916L610.834,186.928L610.83,186.928L610.802,186.936L610.789,186.967L610.768,186.961L610.753,186.956L610.741,186.93L610.736,186.921L610.727,186.899L610.725,186.893L610.721,186.89L610.714,186.874L610.708,186.862L610.704,186.854L610.653,186.836L610.621,186.815L610.607,186.807L610.593,186.797L610.587,186.789L610.583,186.784L610.573,186.765L610.564,186.752L610.532,186.716L610.527,186.708L610.524,186.701L610.517,186.693L610.514,186.688L610.487,186.665L610.463,186.657L610.432,186.649L610.405,186.645L610.386,186.643L610.366,186.642L610.357,186.64L610.319,186.638L610.286,186.639L610.28,186.636L610.269,186.631L610.268,186.636L610.254,186.659L610.223,186.703L610.203,186.727L610.176,186.754L610.147,186.78L610.138,186.786L610.12,186.802L610.099,186.816L610.035,186.855L609.994,186.832L609.943,186.796L609.928,186.785L609.915,186.775L609.888,186.756L609.871,186.74L609.839,186.716L609.813,186.694L609.776,186.664L609.751,186.642L609.744,186.637L609.736,186.63L609.724,186.619L609.721,186.614L609.722,186.612L609.724,186.602L609.713,186.581L609.706,186.571L609.7,186.563L609.694,186.551L609.684,186.535L609.671,186.515L609.658,186.493L609.644,186.467L609.632,186.447L609.63,186.444L609.633,186.44L609.653,186.427L609.654,186.423L609.65,186.413L609.647,186.408L609.63,186.396L609.63,186.365L609.625,186.361L609.616,186.349L609.596,186.324L609.575,186.291L609.559,186.276L609.555,186.272L609.544,186.267L609.533,186.266L609.522,186.267L609.513,186.271L609.501,186.264L609.491,186.256L609.48,186.244L609.482,186.196L609.469,186.188L609.456,186.197L609.441,186.176L609.452,186.17L609.455,186.169L609.466,186.079L609.471,186.038L609.472,186.029L609.426,186.024L609.167,185.993L609.09,185.982L608.923,185.981L608.749,186.009L608.724,186.008L608.68,185.974L608.633,185.972L608.557,185.927L608.545,185.919L608.537,185.916L608.533,185.904L608.529,185.894L608.525,185.884L608.521,185.873L608.51,185.857L608.49,185.833L608.543,185.8L608.622,185.816L608.627,185.816L608.648,185.827L608.654,185.823L608.678,185.823L608.698,185.803L608.689,185.745L608.688,185.745L608.676,185.742L608.622,185.743L608.605,185.743L608.6,185.745L608.561,185.721L608.552,185.647L608.543,185.615L608.541,185.606L608.527,185.601L608.517,185.597L608.511,185.606L608.508,185.614L608.507,185.614L608.501,185.606L608.487,185.596L608.487,185.593L608.492,185.588L608.501,185.586L608.503,185.584L608.502,185.577L608.495,185.572L608.481,185.567L608.479,185.566L608.479,185.565L608.482,185.563L608.486,185.559L608.487,185.557L608.486,185.556L608.484,185.554L608.48,185.553L608.475,185.553L608.475,185.553L608.475,185.551L608.479,185.547L608.479,185.545L608.478,185.541L608.473,185.537L608.472,185.535L608.473,185.532L608.487,185.529L608.49,185.528L608.491,185.522L608.491,185.518L608.489,185.514L608.472,185.501L608.463,185.492L608.434,185.475L608.434,185.468L608.413,185.465L608.404,185.454L608.395,185.445L608.39,185.439L608.386,185.436L608.367,185.398L608.338,185.34L608.328,185.322L608.324,185.31L608.316,185.286L608.316,185.281L608.332,185.253L608.337,185.249L608.345,185.235L608.357,185.216L608.359,185.209L608.334,185.195L608.324,185.192L608.323,185.178L608.335,185.161L608.335,185.159L608.334,185.157L608.33,185.157L608.326,185.153L608.325,185.142L608.325,185.132L608.327,185.128L608.331,185.121L608.344,185.114L608.354,185.106L608.353,185.073L608.351,185.07L608.341,185.059L608.348,185.051L608.339,185.037L608.33,185.036L608.309,185.033L608.31,185.004L608.331,184.999L608.34,185.002L608.347,184.983L608.355,184.967L608.367,184.967L608.379,184.976L608.386,184.986L608.388,184.988L608.389,184.989L608.391,184.989L608.391,184.987L608.391,184.984L608.384,184.946L608.382,184.933L608.381,184.908L608.377,184.906L608.37,184.902L608.366,184.902L608.342,184.914L608.332,184.914L608.299,184.922L608.287,184.903L608.289,184.887L608.296,184.882L608.303,184.872L608.314,184.855L608.318,184.849L608.319,184.846L608.319,184.83L608.321,184.825L608.322,184.82L608.327,184.81L608.33,184.801L608.335,184.786L608.318,184.776L608.31,184.772L608.298,184.771L608.306,184.75L608.314,184.723L608.32,184.706L608.323,184.697L608.324,184.688L608.319,184.677L608.304,184.666L608.271,184.642L608.242,184.62L608.238,184.601L608.238,184.596L608.24,184.581L608.241,184.567L608.244,184.543L608.22,184.529L608.212,184.51L608.204,184.507L608.187,184.464L608.161,184.451L608.135,184.449L608.125,184.452L608.12,184.451L608.109,184.445L608.115,184.435L608.118,184.43L608.129,184.418L608.139,184.404L608.142,184.384L608.145,184.362L608.145,184.353L608.131,184.337L608.106,184.337L608.098,184.334L608.082,184.322L608.065,184.311L608.051,184.298L608.043,184.301L608.043,184.309L608.048,184.316L608.048,184.319L608.045,184.326L608.041,184.333L608.039,184.339L608.037,184.342L608.037,184.345L608.035,184.345L608.034,184.346L608.034,184.35L608.028,184.356L608.022,184.358L608.02,184.356L608.015,184.355L608.008,184.357L608.004,184.353L608.005,184.353L608.004,184.351L608.002,184.351L607.997,184.355L607.995,184.358L607.993,184.357L607.99,184.354L607.988,184.352L607.985,184.351L607.982,184.351L607.977,184.354L607.973,184.358L607.972,184.36L607.974,184.366L607.97,184.37L607.963,184.379L607.957,184.382L607.952,184.384L607.949,184.384L607.947,184.386L607.943,184.388L607.941,184.389L607.939,184.387L607.937,184.383L607.934,184.383L607.932,184.384L607.93,184.384L607.929,184.384L607.928,184.385L607.927,184.385L607.925,184.387L607.919,184.386L607.914,184.384L607.91,184.383L607.905,184.383L607.904,184.383L607.902,184.382L607.9,184.381L607.898,184.382L607.896,184.383L607.894,184.384L607.893,184.384L607.891,184.381L607.889,184.38L607.886,184.38L607.885,184.381L607.879,184.385L607.874,184.385L607.87,184.384L607.866,184.383L607.865,184.381L607.863,184.38L607.86,184.38L607.858,184.38L607.855,184.38L607.854,184.38L607.852,184.38L607.85,184.381L607.848,184.382L607.847,184.384L607.845,184.384L607.844,184.384L607.842,184.384L607.839,184.384L607.837,184.383L607.833,184.38L607.83,184.379L607.828,184.38L607.826,184.381L607.825,184.382L607.822,184.382L607.82,184.382L607.819,184.383L607.817,184.384L607.813,184.384L607.808,184.384L607.806,184.384L607.803,184.384L607.801,184.386L607.799,184.387L607.797,184.387L607.794,184.387L607.793,184.388L607.793,184.388L607.793,184.388L607.793,184.388L607.793,184.388L607.793,184.387L607.792,184.387L607.792,184.388L607.791,184.388L607.791,184.389L607.79,184.389L607.785,184.389L607.782,184.391L607.781,184.395L607.777,184.397L607.772,184.397L607.77,184.398L607.77,184.398L607.769,184.398L607.769,184.398L607.769,184.399L607.769,184.399L607.768,184.399L607.768,184.399L607.767,184.399L607.767,184.399L607.767,184.4L607.767,184.4L607.764,184.402L607.764,184.403L607.763,184.403L607.764,184.403L607.764,184.404L607.764,184.404L607.763,184.404L607.763,184.404L607.761,184.405L607.759,184.405L607.757,184.407L607.738,184.411L607.723,184.415L607.716,184.419L607.712,184.423L607.708,184.426L607.704,184.428L607.696,184.43L607.692,184.431L607.688,184.437L607.685,184.439L607.682,184.442L607.677,184.447L607.67,184.446L607.664,184.442L607.66,184.435L607.659,184.431L607.657,184.428L607.652,184.426L607.643,184.424L607.636,184.423L607.628,184.422L607.622,184.424L607.616,184.425L607.6,184.424L607.582,184.416L607.567,184.43L607.571,184.443L607.576,184.461L607.573,184.469L607.562,184.483L607.554,184.501L607.541,184.524L607.529,184.544L607.507,184.564L607.494,184.572L607.492,184.577L607.49,184.583L607.49,184.592L607.413,184.583L607.354,184.576L607.294,184.569L607.272,184.566L607.228,184.56L607.215,184.559L607.213,184.559L607.188,184.58L607.171,184.595L607.178,184.607L607.154,184.616L607.153,184.625L607.159,184.637L607.153,184.645L607.155,184.648L607.167,184.659L607.186,184.677L607.196,184.673L607.214,184.682L607.203,184.683L607.184,184.704L607.16,184.732L607.166,184.736L607.197,184.753L607.251,184.783L607.25,184.789L607.245,184.831L607.239,184.879L607.238,184.9L607.216,184.898L607.163,184.893L607.162,184.896L607.16,184.923L607.161,184.93L607.164,184.94L607.167,184.944L607.174,184.959L607.185,184.975L607.184,184.977L607.161,185L607.145,185.016L607.107,185.023L607.077,185.029L607.067,185.031L607.029,185.039L607.018,185.041L606.996,185.05L606.976,185.068L606.973,185.071L606.968,185.09L606.964,185.102L606.961,185.115L606.952,185.142L606.948,185.157L606.948,185.158L606.976,185.172L606.987,185.177L607.036,185.221L607.032,185.271L607.026,185.325L607.024,185.362L607.01,185.386L606.997,185.404L606.979,185.433L606.965,185.455L606.94,185.451L606.926,185.447L606.909,185.444L606.893,185.441L606.876,185.439L606.843,185.432L606.814,185.427L606.804,185.424L606.791,185.422L606.77,185.418L606.759,185.415L606.756,185.414L606.736,185.407L606.759,185.375L606.727,185.371L606.699,185.369L606.701,185.378L606.688,185.398L606.67,185.42L606.664,185.428L606.661,185.43L606.643,185.411L606.615,185.412L606.575,185.413L606.569,185.414L606.526,185.414L606.494,185.4L606.491,185.403L606.484,185.389L606.458,185.39L606.422,185.383L606.382,185.393L606.334,185.348L606.322,185.335L606.303,185.317L606.289,185.305L606.271,185.317L606.268,185.312L606.263,185.304L606.245,185.297L606.237,185.293L606.231,185.256L606.246,185.249L606.245,185.223L606.21,185.218L606.175,185.256L606.168,185.262L606.144,185.236L606.096,185.219L606.09,185.218L606.074,185.194L606.068,185.197L606.021,185.174L606.004,185.166L606,185.163L605.992,185.16L605.996,185.117L605.996,185.114L605.999,185.071L605.988,185.067L605.947,185.059L605.935,185.034L605.92,185.029L605.868,185.004L605.862,185.002L605.836,185L605.83,184.999L605.822,184.994L605.804,184.998L605.79,184.998L605.79,185L605.788,185.013L605.787,185.021L605.785,185.039L605.783,185.049L605.775,185.047L605.769,185.046L605.757,185.044L605.738,185.041L605.718,185.038L605.712,185.03L605.704,185.015L605.696,185.003L605.667,185.002L605.666,185.043L605.665,185.082L605.664,185.091L605.651,185.117L605.64,185.135L605.632,185.151L605.626,185.162L605.619,185.175L605.617,185.18L605.615,185.186L605.613,185.193L605.614,185.198L605.617,185.212L605.607,185.224L605.605,185.229L605.61,185.238L605.618,185.246L605.621,185.273L605.624,185.306L605.627,185.329L605.629,185.345L605.626,185.35L605.617,185.352L605.597,185.363L605.596,185.36L605.596,185.355L605.594,185.347L605.59,185.329L605.593,185.32L605.601,185.299L605.585,185.291L605.571,185.283L605.559,185.278L605.53,185.262L605.529,185.259L605.528,185.245L605.524,185.221L605.523,185.212L605.519,185.186L605.52,185.169L605.522,185.157L605.524,185.143L605.525,185.131L605.515,185.129L605.484,185.123L605.463,185.13L605.455,185.133L605.437,185.14L605.421,185.134L605.415,185.132L605.401,185.125L605.394,185.123L605.392,185.126L605.387,185.148L605.386,185.152L605.384,185.153L605.379,185.15L605.362,185.144L605.342,185.137L605.331,185.134L605.315,185.128L605.319,185.12L605.336,185.088L605.327,185.084L605.322,185.082L605.307,185.074L605.297,185.09L605.294,185.098L605.283,185.113L605.281,185.116L605.273,185.131L605.271,185.133L605.262,185.134L605.258,185.134L605.256,185.103L605.255,185.079L605.249,185.079L605.246,185.077L605.242,185.078L605.232,185.097L605.217,185.125L605.207,185.142L605.18,185.13L605.175,185.128L605.152,185.119L605.123,185.106L605.08,185.088L605.051,185.075L605.008,185.055L604.999,185.051L604.976,185.04L604.959,185.052L604.963,185.068L604.961,185.075L604.929,185.068L604.908,185.064L604.907,185.063L604.909,185.061L604.908,185.06L604.886,185.059L604.87,185.057L604.868,185.059L604.867,185.071L604.863,185.07L604.842,185.066L604.829,185.064L604.818,185.061L604.816,185.062L604.815,185.063L604.815,185.067L604.814,185.084L604.812,185.093L604.806,185.093L604.805,185.095L604.804,185.107L604.803,185.115L604.8,185.136L604.796,185.15L604.795,185.156L604.794,185.16L604.793,185.164L604.79,185.176L604.789,185.183L604.787,185.188L604.785,185.194L604.767,185.194L604.72,185.19L604.698,185.186L604.675,185.181L604.65,185.176L604.63,185.173L604.613,185.17L604.608,185.166L604.572,185.16L604.57,185.162L604.568,185.175L604.566,185.185L604.563,185.201L604.559,185.218L604.557,185.231L604.554,185.246L604.552,185.257L604.549,185.271L604.545,185.29L604.544,185.298L604.541,185.313L604.525,185.309L604.517,185.312L604.506,185.317L604.497,185.318L604.496,185.319L604.495,185.329L604.48,185.327L604.481,185.316L604.466,185.304L604.452,185.3L604.437,185.295L604.427,185.293L604.422,185.291L604.421,185.292L604.42,185.317L604.419,185.346L604.419,185.355L604.419,185.377L604.403,185.377L604.38,185.352L604.376,185.349L604.373,185.345L604.353,185.346L604.346,185.356L604.338,185.364L604.332,185.343L604.329,185.331L604.323,185.306L604.318,185.29L604.313,185.268L604.308,185.252L604.306,185.243L604.306,185.239L604.312,185.231L604.324,185.217L604.332,185.21L604.34,185.195L604.341,185.19L604.329,185.179L604.297,185.151L604.282,185.137L604.248,185.14L604.217,185.142L604.198,185.144L604.193,185.146L604.183,185.154L604.179,185.158L604.164,185.169L604.146,185.181L604.113,185.206L604.084,185.226L604.079,185.23L604.073,185.235L604.065,185.242L604.047,185.255L604.06,185.273L604.026,185.294L603.999,185.309L604.011,185.328L604.005,185.332L604.008,185.335L604.007,185.345L604.002,185.373L603.964,185.372L603.964,185.411L603.956,185.448L603.95,185.464L603.933,185.455L603.914,185.445L603.897,185.435L603.894,185.435L603.884,185.467L603.878,185.484L603.875,185.496L603.859,185.512L603.849,185.523L603.85,185.542L603.823,185.545L603.785,185.578L603.788,185.588L603.778,185.599L603.767,185.611L603.763,185.617L603.757,185.64L603.76,185.667L603.762,185.695L603.762,185.698L603.756,185.705L603.757,185.779L603.757,185.782L603.752,185.786L603.758,185.792L603.758,185.796L603.753,185.796L603.751,185.795L603.747,185.801L603.756,185.811L603.761,185.816L603.772,185.819L603.78,185.819L603.774,185.825L603.758,185.834L603.748,185.84L603.734,185.851L603.707,185.868L603.687,185.88L603.673,185.905L603.667,185.914L603.666,185.917L603.661,185.924L603.659,185.922L603.658,185.918L603.657,185.915L603.654,185.915L603.652,185.916L603.646,185.92L603.631,185.928L603.631,185.941L603.623,185.967L603.619,185.981L603.602,185.976L603.601,185.979L603.594,186.001L603.591,186.014L603.59,186.016L603.588,186.016L603.578,186.013L603.571,186.007L603.56,185.997L603.549,185.991L603.54,185.986L603.533,185.979L603.523,185.976L603.511,185.971L603.498,185.969L603.484,185.964L603.466,185.954L603.452,185.947L603.45,185.949L603.436,185.99L603.432,186.02L603.43,186.038L603.428,186.049L603.426,186.071L603.423,186.093L603.423,186.102L603.424,186.104L603.436,186.115L603.447,186.122L603.45,186.128L603.461,186.138L603.462,186.141L603.463,186.157L603.465,186.175L603.463,186.181L603.463,186.184L603.456,186.185L603.453,186.182L603.447,186.187L603.445,186.198L603.445,186.221L603.445,186.229L603.446,186.231L603.457,186.238L603.463,186.241L603.463,186.242L603.459,186.262L603.458,186.268L603.457,186.281L603.455,186.301L603.452,186.323L603.449,186.345L603.445,186.374L603.441,186.397L603.439,186.413L603.436,186.436L603.435,186.445L603.45,186.45L603.461,186.453L603.476,186.456L603.502,186.465L603.517,186.47L603.54,186.477L603.555,186.483L603.562,186.487L603.571,186.488L603.581,186.489L603.583,186.491L603.586,186.496L603.586,186.502L603.576,186.512L603.563,186.525L603.541,186.547L603.523,186.565L603.533,186.58L603.542,186.592L603.563,186.611L603.612,186.655L603.654,186.694L603.684,186.72L603.703,186.723L603.704,186.729L603.706,186.738L603.711,186.746L603.717,186.753L603.713,186.773L603.708,186.797L603.705,186.814L603.701,186.832L603.698,186.847L603.698,186.855L603.7,186.866L603.701,186.893L603.704,186.926L603.704,186.934L603.708,186.941L603.713,186.976L603.717,187.016L603.731,187.033L603.736,187.032L603.809,187.009L603.863,186.992L603.877,187.006L603.885,187.005L603.941,187.034L603.946,187.052L603.95,187.064L603.946,187.068L603.931,187.084L603.925,187.094L603.912,187.117L603.908,187.129L603.856,187.132L603.854,187.168L603.85,187.232L603.82,187.233L603.82,187.235L603.823,187.251L603.832,187.286L603.837,187.303L603.84,187.318L603.842,187.318L603.861,187.339L603.888,187.366L603.906,187.385L603.93,187.409L603.935,187.414L603.985,187.391L604.003,187.365L604.027,187.327L604.037,187.328L604.067,187.349L604.065,187.352L604.056,187.369L604.044,187.388L604.037,187.401L604.033,187.412L604.09,187.428L604.115,187.428L604.117,187.436L604.135,187.452L604.145,187.466L604.165,187.488L604.172,187.492L604.21,187.52L604.208,187.548L604.208,187.551L604.207,187.565L604.206,187.572L604.203,187.585L604.2,187.6L604.206,187.604L604.208,187.609L604.208,187.614L604.208,187.616L604.201,187.622L604.2,187.626L604.198,187.632L604.195,187.643L604.193,187.65L604.194,187.652L604.224,187.679L604.24,187.698L604.24,187.704L604.241,187.709L604.239,187.715L604.23,187.725L604.215,187.741L604.208,187.753L604.2,187.773L604.196,187.784L604.196,187.788L604.22,187.801L604.224,187.821L604.228,187.832L604.253,187.837L604.254,187.84L604.254,187.846L604.254,187.871L604.257,187.883L604.257,187.886L604.253,187.908L604.251,187.918L604.246,187.939L604.244,187.951L604.22,187.948L604.209,187.945L604.208,187.948L604.203,187.985L604.199,187.998L604.199,188.01L604.206,188.051L604.166,188.064L604.121,188.063L604.118,188.096L604.115,188.129L604.116,188.13L604.119,188.129L604.132,188.124L604.163,188.116L604.169,188.114L604.224,188.096L604.253,188.118L604.275,188.149L604.292,188.173L604.322,188.214L604.33,188.225L604.329,188.226L604.33,188.241L604.333,188.257L604.337,188.277L604.343,188.292L604.353,188.318L604.367,188.344L604.362,188.347L604.339,188.354L604.308,188.362L604.237,188.364L604.221,188.37L604.18,188.389L604.166,188.399L604.125,188.399L604.092,188.413L604.096,188.427L604.109,188.461L604.115,188.478L604.126,188.507L604.127,188.511L604.087,188.53L604.079,188.53L604.045,188.53L603.972,188.531L603.969,188.533L603.963,188.558L603.942,188.563L603.894,188.564L603.888,188.567L603.877,188.575L603.866,188.57L603.847,188.586L603.833,188.599L603.824,188.569L603.814,188.53L603.806,188.521L603.772,188.513L603.772,188.499L603.708,188.482L603.681,188.475L603.647,188.477L603.642,188.496L603.636,188.513L603.633,188.523L603.626,188.545L603.619,188.563L603.611,188.583L603.611,188.591L603.615,188.606L603.628,188.613L603.634,188.619L603.665,188.653L603.7,188.692L603.736,188.731L603.737,188.742L603.74,188.776L603.741,188.795L603.732,188.799L603.73,188.795L603.726,188.792L603.722,188.792L603.72,188.792L603.719,188.79L603.719,188.789L603.721,188.788L603.722,188.788L603.724,188.788L603.725,188.786L603.725,188.785L603.723,188.784L603.72,188.784L603.717,188.784L603.714,188.785L603.708,188.796L603.707,188.797L603.706,188.796L603.706,188.794L603.706,188.791L603.705,188.789L603.704,188.789L603.701,188.789L603.7,188.791L603.699,188.792L603.697,188.794L603.695,188.793L603.691,188.791L603.688,188.788L603.688,188.786L603.688,188.786L603.69,188.784L603.691,188.783L603.687,188.779L603.685,188.775L603.684,188.775L603.684,188.776L603.684,188.778L603.681,188.779L603.68,188.78L603.679,188.78L603.677,188.78L603.677,188.779L603.677,188.777L603.676,188.774L603.674,188.773L603.673,188.773L603.672,188.773L603.672,188.774L603.671,188.776L603.669,188.778L603.665,188.78L603.66,188.78L603.658,188.778L603.654,188.776L603.653,188.772L603.65,188.763L603.644,188.76L603.64,188.759L603.632,188.765L603.63,188.765L603.622,188.757L603.621,188.757L603.62,188.758L603.619,188.761L603.613,188.793L603.605,188.846L603.602,188.867L603.568,188.87L603.527,188.883L603.51,188.891L603.505,188.91L603.444,188.893L603.435,188.923L603.424,188.959L603.415,188.988L603.405,189.019L603.407,189.021L603.446,189.021L603.453,189.023L603.499,189.047L603.532,189.063L603.555,189.076L603.601,189.105L603.602,189.134L603.607,189.141L603.614,189.153L603.627,189.179L603.624,189.189L603.691,189.186L603.71,189.187L603.712,189.192L603.712,189.201L603.709,189.209L603.696,189.231L603.68,189.261L603.669,189.282L603.677,189.314L603.681,189.341L603.707,189.34L603.712,189.369L603.716,189.388L603.729,189.463L603.762,189.456L603.79,189.449L603.801,189.458ZM800,0L800,12.246L800,78.668L800,145.789L800,215.835L800,261.497L800,300L800,338.503L800,384.165L800,454.211L800,600L800,600L200,600L200,600L200,454.211L200,384.165L200,338.503L200,300L200,261.497L200,215.835L200,145.789L200,78.668L200,12.246L200,0L200,0L800,0Z"/>
<path d="M608.904,188.49m0,4.5a4.5,4.5 0 1,1 0,-9a4.5,4.5 0 1,1 0,9z"/>
<path d="M606.287,187.276m0,4.5a4.5,4.5 0 1,1 0,-9a4.5,4.5 0 1,1 0,9z"/>
</svg>