<?xml version="1.0" encoding="UTF-8"?>
<svg xmlns="http://www.w3.org/2000/svg" viewBox="0 0 1000 600" stroke="#000" stroke-width="0.3" fill="#ccc">
<path d="M563.094,195.517L563.095,195.517L563.096,195.517L563.097,195.519L563.097,195.523L563.094,195.531L563.092,195.533L563.091,195.535L563.088,195.539L563.086,195.539L563.085,195.54L563.086,195.55L563.085,195.552L563.085,195.552L563.084,195.553L563.082,195.555L563.08,195.558L563.077,195.561L563.074,195.561L563.073,195.566L563.072,195.569L563.073,195.569L563.074,195.57L563.076,195.576L563.076,195.58L563.072,195.584L563.072,195.585L563.07,195.585L563.068,195.584L563.066,195.585L563.066,195.587L563.065,195.587L563.065,195.586L563.063,195.587L563.061,195.587L563.06,195.587L563.058,195.588L563.058,195.589L563.058,195.59L563.058,195.59L563.057,195.59L563.056,195.59L563.055,195.59L563.054,195.59L563.054,195.592L563.054,195.592L563.055,195.594L563.056,195.593L563.057,195.594L563.057,195.594L563.056,195.594L563.056,195.595L563.065,195.607L563.073,195.618L563.083,195.629L563.08,195.647L563.074,195.664L563.072,195.668L563.065,195.665L563.061,195.664L563.059,195.666L563.068,195.68L563.078,195.695L563.064,195.71L563.069,195.715L563.074,195.719L563.076,195.73L563.081,195.738L563.094,195.75L563.098,195.75L563.106,195.746L563.118,195.75L563.127,195.765L563.115,195.777L563.097,195.785L563.08,195.785L563.065,195.787L563.057,195.788L563.057,195.795L563.062,195.803L563.071,195.814L563.059,195.822L563.05,195.827L563.037,195.833L563.026,195.838L563.023,195.839L563.023,195.839L563.006,195.846L563.003,195.857L563.006,195.861L563.043,195.903L563.046,195.906L563.048,195.909L563.055,195.918L563.059,195.92L563.064,195.925L563.061,195.938L563.075,195.946L563.085,195.952L563.106,195.958L563.108,195.959L563.127,195.968L563.133,195.966L563.141,195.964L563.141,195.969L563.141,195.97L563.141,195.987L563.141,195.993L563.149,196.001L563.155,196.01L563.16,196.025L563.161,196.045L563.167,196.056L563.165,196.063L563.163,196.073L563.159,196.078L563.152,196.083L563.152,196.086L563.153,196.09L563.156,196.101L563.161,196.103L563.163,196.111L563.15,196.118L563.148,196.124L563.149,196.143L563.149,196.143L563.151,196.163L563.152,196.168L563.15,196.169L563.122,196.179L563.12,196.179L563.118,196.18L563.117,196.18L563.102,196.186L563.101,196.186L563.1,196.187L563.099,196.187L563.098,196.188L563.097,196.189L563.096,196.19L563.085,196.202L563.084,196.203L563.073,196.215L563.067,196.217L563.059,196.22L563.058,196.221L563.054,196.224L563.053,196.226L563.043,196.236L563.043,196.237L563.017,196.257L563.015,196.26L563.015,196.269L563.024,196.288L563.034,196.309L563.019,196.321L563.028,196.331L563.032,196.336L563.035,196.34L563.035,196.353L563.016,196.371L563.009,196.373L563.009,196.378L563,196.377L562.991,196.38L562.989,196.386L562.99,196.398L563.014,196.398L563.044,196.397L563.038,196.43L563.037,196.431L563.032,196.436L563.032,196.438L563.036,196.452L563.04,196.466L563.023,196.478L563.008,196.493L562.997,196.481L562.99,196.487L562.977,196.473L562.956,196.495L562.955,196.496L562.95,196.502L562.948,196.509L562.951,196.518L562.912,196.546L562.905,196.551L562.894,196.543L562.884,196.526L562.877,196.53L562.87,196.554L562.87,196.56L562.87,196.567L562.87,196.568L562.886,196.571L562.887,196.571L562.959,196.582L562.962,196.591L562.978,196.635L562.985,196.632L562.996,196.628L562.998,196.628L562.998,196.628L563.003,196.626L563.007,196.625L563.017,196.622L563.035,196.658L563.027,196.663L563.028,196.676L563.036,196.698L563.038,196.702L563.038,196.703L563.076,196.681L563.08,196.71L563.086,196.712L563.096,196.724L563.1,196.729L563.089,196.74L563.063,196.751L563.054,196.75L563.051,196.746L563.045,196.744L563.041,196.745L563.034,196.749L563.038,196.764L563.04,196.77L563.041,196.774L563.041,196.774L563.041,196.775L563.034,196.777L563.029,196.778L563.026,196.778L563.025,196.779L563.024,196.782L563.021,196.785L563.017,196.786L563.004,196.786L563.005,196.79L563.005,196.791L563.003,196.8L563.001,196.812L562.999,196.822L562.993,196.822L562.987,196.821L562.987,196.822L562.984,196.834L562.983,196.835L563.022,196.837L563.021,196.845L563.019,196.848L563.02,196.852L563.021,196.852L563.042,196.852L563.045,196.852L563.058,196.852L563.058,196.848L563.061,196.843L563.084,196.847L563.095,196.853L563.096,196.854L563.097,196.855L563.099,196.856L563.108,196.862L563.117,196.867L563.123,196.87L563.131,196.865L563.134,196.866L563.139,196.867L563.144,196.869L563.153,196.871L563.159,196.878L563.159,196.88L563.155,196.881L563.155,196.889L563.161,196.896L563.162,196.904L563.165,196.905L563.166,196.901L563.166,196.9L563.166,196.899L563.166,196.894L563.169,196.89L563.172,196.888L563.206,196.899L563.215,196.902L563.218,196.904L563.222,196.909L563.221,196.913L563.223,196.916L563.22,196.922L563.219,196.931L563.224,196.933L563.221,196.959L563.222,196.975L563.172,196.98L563.17,196.995L563.168,196.992L563.169,196.982L563.164,196.981L563.159,196.982L563.155,196.985L563.155,196.997L563.155,196.999L563.15,196.998L563.138,197.002L563.138,197.004L563.139,197.006L563.144,197.017L563.148,197.024L563.149,197.026L563.151,197.024L563.187,197.064L563.192,197.068L563.193,197.069L563.193,197.07L563.2,197.078L563.201,197.078L563.211,197.09L563.214,197.093L563.217,197.092L563.218,197.092L563.223,197.101L563.242,197.118L563.254,197.124L563.262,197.127L563.265,197.129L563.265,197.126L563.263,197.122L563.263,197.119L563.259,197.111L563.259,197.106L563.259,197.104L563.259,197.103L563.261,197.102L563.261,197.102L563.262,197.101L563.27,197.097L563.276,197.095L563.283,197.094L563.291,197.093L563.301,197.094L563.312,197.094L563.316,197.092L563.317,197.09L563.318,197.091L563.323,197.093L563.322,197.097L563.321,197.1L563.315,197.14L563.313,197.147L563.32,197.181L563.323,197.194L563.327,197.208L563.35,197.237L563.367,197.249L563.377,197.254L563.404,197.262L563.41,197.263L563.412,197.263L563.427,197.267L563.43,197.268L563.435,197.277L563.44,197.285L563.443,197.288L563.445,197.292L563.436,197.295L563.436,197.296L563.43,197.299L563.426,197.302L563.421,197.305L563.418,197.306L563.411,197.308L563.408,197.31L563.407,197.312L563.408,197.319L563.408,197.322L563.408,197.324L563.408,197.327L563.408,197.329L563.408,197.332L563.409,197.334L563.411,197.336L563.411,197.338L563.411,197.342L563.413,197.348L563.416,197.353L563.418,197.357L563.42,197.359L563.422,197.359L563.423,197.361L563.427,197.365L563.429,197.369L563.431,197.373L563.431,197.377L563.431,197.379L563.431,197.38L563.43,197.381L563.427,197.382L563.424,197.383L563.422,197.384L563.42,197.385L563.413,197.389L563.412,197.39L563.411,197.39L563.41,197.391L563.408,197.391L563.408,197.392L563.405,197.394L563.401,197.396L563.399,197.398L563.396,197.402L563.393,197.404L563.389,197.407L563.383,197.409L563.379,197.41L563.376,197.413L563.374,197.414L563.371,197.415L563.37,197.414L563.368,197.415L563.365,197.416L563.363,197.415L563.358,197.419L563.354,197.423L563.354,197.425L563.356,197.429L563.359,197.43L563.359,197.431L563.365,197.436L563.368,197.436L563.371,197.439L563.373,197.44L563.374,197.44L563.378,197.441L563.385,197.444L563.386,197.445L563.394,197.45L563.401,197.452L563.402,197.451L563.411,197.452L563.417,197.453L563.42,197.454L563.42,197.456L563.42,197.456L563.42,197.457L563.418,197.462L563.418,197.464L563.418,197.466L563.416,197.469L563.415,197.472L563.414,197.474L563.411,197.476L563.408,197.478L563.405,197.479L563.402,197.48L563.399,197.48L563.396,197.481L563.395,197.481L563.394,197.482L563.393,197.484L563.392,197.484L563.392,197.485L563.391,197.49L563.391,197.491L563.391,197.492L563.392,197.493L563.398,197.494L563.4,197.495L563.402,197.496L563.409,197.496L563.399,197.524L563.385,197.52L563.38,197.518L563.354,197.546L563.335,197.534L563.307,197.503L563.261,197.512L563.25,197.519L563.242,197.529L563.233,197.534L563.196,197.547L563.176,197.556L563.145,197.571L563.138,197.628L563.109,197.612L563.085,197.61L563.066,197.622L563.06,197.633L563.063,197.645L563.062,197.645L563.049,197.645L563.046,197.67L563.039,197.676L563.001,197.729L562.98,197.714L562.978,197.724L562.974,197.731L562.97,197.733L562.966,197.734L562.962,197.733L562.96,197.734L562.959,197.735L562.957,197.737L562.954,197.738L562.951,197.738L562.949,197.738L562.949,197.739L562.947,197.74L562.946,197.74L562.945,197.74L562.942,197.741L562.938,197.743L562.934,197.747L562.933,197.751L562.933,197.753L562.934,197.754L562.934,197.756L562.934,197.758L562.935,197.759L562.934,197.761L562.935,197.763L562.936,197.766L562.939,197.77L562.94,197.772L562.939,197.773L562.942,197.777L562.946,197.781L562.947,197.782L562.949,197.783L562.95,197.784L562.949,197.785L562.95,197.786L562.949,197.787L562.95,197.788L562.951,197.789L562.951,197.79L562.952,197.79L562.953,197.79L562.954,197.789L562.955,197.789L562.956,197.786L562.959,197.784L562.963,197.783L562.971,197.781L562.976,197.781L562.98,197.782L562.985,197.786L562.986,197.788L562.987,197.791L562.988,197.792L562.988,197.793L562.985,197.797L562.985,197.799L562.985,197.8L562.987,197.802L562.987,197.806L562.984,197.812L562.983,197.819L562.983,197.822L562.983,197.825L562.983,197.833L562.984,197.835L562.985,197.837L562.987,197.84L562.988,197.842L562.991,197.845L562.992,197.845L562.993,197.845L562.995,197.847L562.997,197.85L562.998,197.85L562.999,197.851L562.998,197.854L562.998,197.854L562.998,197.856L562.998,197.856L562.994,197.862L562.992,197.862L562.989,197.862L562.986,197.862L562.984,197.862L562.983,197.862L562.982,197.862L562.976,197.862L562.974,197.863L562.971,197.865L562.969,197.868L562.966,197.872L562.965,197.874L562.966,197.879L562.967,197.881L562.969,197.883L562.971,197.887L562.972,197.889L562.972,197.891L562.973,197.892L562.975,197.894L562.976,197.898L562.976,197.9L562.978,197.905L562.978,197.906L562.98,197.917L562.98,197.919L562.98,197.921L562.98,197.922L562.98,197.922L562.98,197.923L562.98,197.924L562.979,197.925L562.979,197.925L562.978,197.927L562.977,197.929L562.977,197.93L562.975,197.93L562.972,197.929L562.968,197.929L562.964,197.929L562.96,197.928L562.956,197.925L562.955,197.922L562.954,197.922L562.952,197.919L562.95,197.919L562.949,197.92L562.949,197.922L562.948,197.924L562.944,197.926L562.942,197.928L562.941,197.931L562.941,197.932L562.943,197.933L562.945,197.933L562.947,197.932L562.948,197.931L562.949,197.93L562.95,197.931L562.951,197.932L562.952,197.935L562.949,197.941L562.949,197.946L562.949,197.948L562.949,197.949L562.95,197.95L562.95,197.952L562.95,197.956L562.95,197.961L562.951,197.962L562.951,197.963L562.951,197.965L562.949,197.968L562.947,197.968L562.947,197.968L562.942,197.97L562.938,197.975L562.935,197.981L562.934,197.984L562.934,197.985L562.933,197.985L562.932,197.987L562.931,197.992L562.931,198.003L562.932,198.005L562.933,198.006L562.934,198.007L562.933,198.009L562.933,198.01L562.934,198.012L562.935,198.014L562.94,198.015L562.94,198.015L562.941,198.016L562.941,198.016L562.942,198.017L562.942,198.017L562.943,198.017L562.943,198.017L562.944,198.017L562.944,198.018L562.944,198.018L562.945,198.018L562.945,198.018L562.945,198.018L562.945,198.018L562.945,198.018L562.945,198.018L562.946,198.018L562.946,198.019L562.948,198.02L562.95,198.022L562.95,198.022L562.953,198.029L562.952,198.032L562.951,198.035L562.95,198.036L562.948,198.038L562.947,198.041L562.947,198.043L562.946,198.044L562.945,198.045L562.941,198.047L562.937,198.045L562.936,198.042L562.934,198.041L562.933,198.039L562.932,198.037L562.931,198.036L562.929,198.037L562.929,198.036L562.927,198.033L562.924,198.031L562.92,198.03L562.917,198.032L562.916,198.034L562.917,198.04L562.915,198.047L562.916,198.055L562.919,198.058L562.922,198.06L562.926,198.061L562.927,198.064L562.927,198.064L562.928,198.067L562.928,198.069L562.926,198.071L562.924,198.07L562.92,198.071L562.919,198.073L562.919,198.073L562.919,198.074L562.919,198.074L562.919,198.076L562.92,198.077L562.922,198.079L562.922,198.081L562.919,198.09L562.919,198.094L562.921,198.096L562.924,198.1L562.925,198.102L562.929,198.107L562.93,198.111L562.93,198.116L562.929,198.118L562.928,198.119L562.924,198.125L562.924,198.127L562.923,198.128L562.92,198.128L562.913,198.124L562.908,198.124L562.905,198.123L562.904,198.121L562.903,198.12L562.903,198.119L562.902,198.119L562.902,198.118L562.902,198.118L562.9,198.118L562.9,198.118L562.899,198.119L562.898,198.122L562.899,198.124L562.897,198.127L562.897,198.132L562.897,198.137L562.897,198.137L562.897,198.137L562.897,198.137L562.899,198.138L562.904,198.141L562.905,198.145L562.918,198.148L562.918,198.148L562.922,198.149L562.926,198.15L562.924,198.156L562.925,198.158L562.927,198.161L562.935,198.165L562.945,198.164L562.948,198.166L562.947,198.169L562.947,198.17L562.946,198.171L562.954,198.172L562.958,198.173L562.972,198.177L562.972,198.177L562.972,198.178L562.972,198.178L562.976,198.185L562.977,198.188L562.978,198.19L562.98,198.195L562.987,198.21L562.987,198.21L562.988,198.213L562.988,198.213L562.989,198.219L562.992,198.23L562.995,198.24L562.995,198.241L563.012,198.246L563.024,198.25L563.036,198.255L563.034,198.274L563.036,198.274L563.043,198.273L563.044,198.274L563.044,198.275L563.046,198.29L563.046,198.291L563.046,198.292L563.05,198.318L563.053,198.34L563.058,198.34L563.07,198.359L563.083,198.379L563.089,198.389L563.094,198.395L563.093,198.439L563.115,198.446L563.114,198.457L563.162,198.456L563.167,198.424L563.2,198.422L563.2,198.425L563.2,198.427L563.201,198.43L563.202,198.438L563.203,198.442L563.203,198.455L563.205,198.482L563.242,198.479L563.245,198.479L563.259,198.478L563.261,198.478L563.27,198.477L563.299,198.476L563.305,198.475L563.306,198.475L563.31,198.475L563.323,198.474L563.334,198.469L563.342,198.476L563.348,198.477L563.352,198.478L563.357,198.481L563.37,198.484L563.376,198.484L563.382,198.489L563.386,198.494L563.39,198.492L563.395,198.493L563.401,198.492L563.411,198.491L563.417,198.493L563.417,198.488L563.415,198.478L563.415,198.473L563.414,198.467L563.413,198.463L563.413,198.46L563.412,198.453L563.426,198.449L563.465,198.447L563.471,198.445L563.477,198.443L563.499,198.436L563.503,198.435L563.507,198.433L563.508,198.432L563.508,198.432L563.51,198.432L563.518,198.428L563.518,198.428L563.536,198.42L563.535,198.419L563.535,198.418L563.533,198.415L563.531,198.413L563.531,198.413L563.531,198.41L563.53,198.41L563.529,198.409L563.527,198.408L563.527,198.407L563.527,198.402L563.527,198.4L563.525,198.398L563.523,198.397L563.521,198.398L563.521,198.397L563.519,198.392L563.521,198.389L563.523,198.387L563.524,198.388L563.526,198.388L563.528,198.389L563.529,198.389L563.53,198.388L563.531,198.387L563.531,198.385L563.53,198.385L563.529,198.384L563.528,198.384L563.527,198.383L563.527,198.382L563.526,198.381L563.527,198.38L563.531,198.377L563.533,198.374L563.535,198.373L563.537,198.371L563.541,198.366L563.544,198.365L563.545,198.364L563.546,198.363L563.55,198.365L563.552,198.367L563.553,198.368L563.552,198.37L563.554,198.371L563.555,198.371L563.556,198.373L563.557,198.375L563.558,198.376L563.56,198.376L563.562,198.378L563.563,198.378L563.564,198.377L563.565,198.375L563.567,198.375L563.568,198.377L563.569,198.377L563.571,198.377L563.572,198.377L563.573,198.378L563.576,198.378L563.577,198.378L563.577,198.377L563.578,198.377L563.581,198.376L563.583,198.376L563.584,198.376L563.584,198.375L563.583,198.375L563.583,198.375L563.582,198.374L563.583,198.374L563.583,198.374L563.585,198.374L563.586,198.374L563.587,198.375L563.59,198.375L563.592,198.374L563.593,198.374L563.596,198.374L563.598,198.374L563.601,198.372L563.603,198.373L563.605,198.373L563.607,198.372L563.61,198.371L563.612,198.371L563.614,198.37L563.616,198.367L563.618,198.368L563.619,198.368L563.619,198.368L563.62,198.37L563.62,198.374L563.626,198.39L563.631,198.4L563.639,198.41L563.64,198.407L563.643,198.395L563.645,198.388L563.653,198.378L563.671,198.384L563.696,198.392L563.711,198.395L563.737,198.396L563.743,198.351L563.745,198.346L563.748,198.341L563.763,198.323L563.774,198.312L563.799,198.282L563.802,198.278L563.82,198.281L563.821,198.281L563.825,198.272L563.831,198.258L563.868,198.233L563.897,198.231L563.902,198.231L563.927,198.229L563.979,198.227L563.999,198.223L563.991,198.185L564.023,198.179L564.03,198.177L564.034,198.177L564.04,198.177L564.048,198.178L564.056,198.177L564.06,198.176L564.06,198.175L564.066,198.173L564.069,198.172L564.071,198.168L564.071,198.165L564.075,198.164L564.086,198.157L564.088,198.156L564.096,198.153L564.111,198.149L564.118,198.147L564.13,198.143L564.131,198.142L564.135,198.141L564.135,198.141L564.136,198.14L564.146,198.134L564.147,198.133L564.156,198.126L564.161,198.121L564.163,198.115L564.163,198.111L564.168,198.099L564.197,198.081L564.201,198.076L564.209,198.073L564.212,198.069L564.227,198.063L564.234,198.06L564.246,198.059L564.259,198.039L564.28,198.049L564.289,198.05L564.309,198.047L564.334,198.043L564.374,198.083L564.389,198.084L564.392,198.084L564.391,198.079L564.388,198.077L564.388,198.074L564.39,198.074L564.392,198.071L564.39,198.069L564.388,198.068L564.387,198.067L564.387,198.065L564.388,198.065L564.393,198.062L564.398,198.063L564.404,198.065L564.411,198.056L564.464,198.015L564.45,197.964L564.451,197.964L564.453,197.965L564.454,197.966L564.455,197.966L564.456,197.965L564.456,197.965L564.457,197.962L564.459,197.96L564.462,197.962L564.465,197.961L564.468,197.963L564.467,197.956L564.467,197.948L564.483,197.936L564.488,197.933L564.504,197.925L564.511,197.923L564.524,197.941L564.527,197.947L564.533,197.955L564.54,197.975L564.539,198.014L564.553,198.04L564.552,198.043L564.57,198.076L564.576,198.074L564.587,198.078L564.589,198.082L564.591,198.084L564.597,198.088L564.611,198.093L564.645,198.11L564.65,198.108L564.654,198.107L564.657,198.103L564.661,198.1L564.665,198.096L564.67,198.093L564.673,198.086L564.678,198.082L564.683,198.072L564.684,198.065L564.683,198.064L564.67,198.057L564.64,198.047L564.641,198.042L564.642,198.036L564.644,198.033L564.651,198.019L564.667,197.986L564.678,197.973L564.685,197.961L564.688,197.959L564.692,197.957L564.699,197.95L564.703,197.946L564.706,197.94L564.712,197.937L564.748,197.931L564.777,197.936L564.789,197.93L564.795,197.927L564.797,197.928L564.836,197.953L564.848,197.983L564.876,198.014L564.888,198.026L564.898,198.038L564.91,198.053L564.917,198.068L564.954,198.111L564.962,198.12L564.966,198.125L564.982,198.147L564.993,198.162L564.993,198.163L565.001,198.173L565.013,198.196L565.024,198.222L565.025,198.23L565.054,198.234L565.066,198.233L565.078,198.233L565.08,198.232L565.091,198.232L565.101,198.232L565.123,198.235L565.137,198.224L565.137,198.224L565.144,198.219L565.173,198.207L565.165,198.169L565.159,198.157L565.161,198.154L565.159,198.151L565.153,198.126L565.146,198.106L565.145,198.096L565.146,198.089L565.147,198.083L565.151,198.074L565.155,198.067L565.161,198.061L565.166,198.056L565.173,198.052L565.179,198.05L565.193,198.05L565.227,198.049L565.251,198.045L565.256,198.045L565.256,198.04L565.263,198.041L565.277,198.038L565.279,198.032L565.277,198.02L565.293,198.013L565.283,198.001L565.271,197.992L565.261,197.986L565.243,197.966L565.242,197.965L565.298,197.945L565.301,197.946L565.359,197.965L565.359,197.983L565.386,197.99L565.402,197.986L565.403,197.984L565.394,197.981L565.389,197.974L565.417,197.952L565.44,197.93L565.443,197.912L565.477,197.913L565.475,197.927L565.479,197.921L565.48,197.913L565.488,197.914L565.49,197.91L565.499,197.91L565.52,197.913L565.572,197.922L565.572,197.922L565.57,197.923L565.568,197.924L565.566,197.926L565.565,197.927L565.564,197.929L565.562,197.931L565.561,197.933L565.56,197.935L565.56,197.936L565.56,197.938L565.561,197.94L565.562,197.943L565.562,197.945L565.562,197.946L565.562,197.948L565.561,197.95L565.56,197.952L565.56,197.953L565.56,197.955L565.561,197.955L565.564,197.958L565.567,197.96L565.57,197.963L565.572,197.966L565.576,197.972L565.578,197.97L565.578,197.969L565.578,197.968L565.58,197.967L565.581,197.968L565.583,197.967L565.584,197.964L565.581,197.961L565.58,197.951L565.581,197.944L565.584,197.941L565.588,197.942L565.588,197.944L565.587,197.947L565.585,197.949L565.584,197.951L565.585,197.955L565.587,197.958L565.59,197.961L565.59,197.967L565.592,197.971L565.593,197.972L565.592,197.972L565.592,197.973L565.592,197.974L565.594,197.975L565.595,197.975L565.595,197.973L565.597,197.969L565.595,197.966L565.593,197.96L565.595,197.958L565.597,197.958L565.608,197.965L565.61,197.966L565.612,197.966L565.614,197.964L565.616,197.963L565.618,197.963L565.618,197.963L565.619,197.962L565.619,197.962L565.619,197.962L565.619,197.962L565.619,197.962L565.62,197.962L565.621,197.962L565.621,197.962L565.621,197.963L565.621,197.963L565.622,197.962L565.622,197.962L565.622,197.962L565.622,197.962L565.623,197.962L565.623,197.962L565.623,197.961L565.623,197.961L565.623,197.961L565.623,197.96L565.623,197.959L565.624,197.958L565.624,197.958L565.624,197.957L565.625,197.957L565.626,197.956L565.626,197.956L565.626,197.956L565.627,197.955L565.627,197.955L565.628,197.955L565.628,197.955L565.628,197.955L565.629,197.953L565.63,197.952L565.631,197.952L565.633,197.952L565.635,197.953L565.636,197.952L565.637,197.951L565.637,197.949L565.638,197.947L565.639,197.947L565.64,197.95L565.641,197.952L565.642,197.961L565.679,197.976L565.698,197.988L565.748,197.974L565.77,198.003L565.789,197.99L565.836,198.066L565.825,198.074L565.838,198.094L565.859,198.128L565.86,198.129L565.86,198.131L565.862,198.133L565.862,198.133L565.861,198.134L565.86,198.138L565.858,198.138L565.856,198.138L565.853,198.136L565.85,198.137L565.848,198.139L565.846,198.138L565.841,198.139L565.84,198.141L565.84,198.144L565.837,198.143L565.834,198.144L565.829,198.155L565.83,198.157L565.831,198.162L565.83,198.165L565.827,198.17L565.827,198.171L565.829,198.173L565.83,198.174L565.83,198.177L565.83,198.181L565.828,198.182L565.827,198.186L565.825,198.188L565.82,198.189L565.82,198.195L565.822,198.198L565.82,198.204L565.822,198.214L565.821,198.215L565.821,198.217L565.82,198.219L565.819,198.219L565.818,198.221L565.813,198.225L565.812,198.231L565.812,198.235L565.812,198.242L565.813,198.249L565.815,198.249L565.839,198.259L565.841,198.26L565.875,198.269L565.944,198.289L565.946,198.29L565.954,198.292L565.955,198.293L565.956,198.293L565.959,198.294L565.96,198.294L565.96,198.294L566.036,198.317L566.078,198.329L566.081,198.33L566.109,198.338L566.11,198.338L566.216,198.369L566.236,198.375L566.257,198.381L566.274,198.386L566.277,198.378L566.288,198.363L566.296,198.347L566.297,198.344L566.299,198.349L566.301,198.351L566.308,198.357L566.315,198.366L566.331,198.39L566.342,198.383L566.36,198.405L566.372,198.399L566.381,198.391L566.388,198.384L566.401,198.403L566.424,198.385L566.426,198.391L566.428,198.391L566.43,198.391L566.431,198.39L566.432,198.389L566.432,198.387L566.432,198.385L566.432,198.383L566.432,198.381L566.434,198.379L566.435,198.378L566.436,198.377L566.435,198.375L566.436,198.374L566.437,198.372L566.439,198.371L566.441,198.371L566.443,198.372L566.444,198.372L566.446,198.371L566.447,198.369L566.448,198.368L566.45,198.368L566.451,198.368L566.454,198.37L566.455,198.37L566.457,198.369L566.458,198.367L566.459,198.367L566.459,198.366L566.455,198.354L566.466,198.351L566.463,198.339L566.496,198.322L566.478,198.302L566.485,198.298L566.487,198.295L566.522,198.236L566.545,198.277L566.548,198.269L566.563,198.265L566.564,198.265L566.567,198.264L566.569,198.264L566.572,198.263L566.572,198.261L566.575,198.262L566.576,198.264L566.577,198.265L566.577,198.266L566.579,198.268L566.583,198.27L566.584,198.271L566.59,198.273L566.596,198.276L566.595,198.28L566.663,198.298L566.698,198.315L566.704,198.316L566.737,198.318L566.764,198.296L566.784,198.28L566.802,198.265L566.799,198.238L566.793,198.211L566.887,198.19L566.89,198.206L566.879,198.228L566.902,198.273L566.926,198.293L566.931,198.296L566.937,198.298L566.955,198.28L566.961,198.275L566.972,198.267L566.986,198.263L567.014,198.259L567.031,198.255L567.036,198.254L567.065,198.264L567.075,198.27L567.082,198.274L567.101,198.306L567.106,198.311L567.113,198.318L567.119,198.324L567.123,198.327L567.127,198.327L567.132,198.329L567.168,198.331L567.182,198.339L567.183,198.341L567.183,198.343L567.182,198.345L567.182,198.346L567.183,198.348L567.184,198.35L567.183,198.351L567.182,198.352L567.181,198.353L567.18,198.354L567.179,198.356L567.176,198.357L567.174,198.358L567.173,198.359L567.173,198.36L567.172,198.361L567.172,198.362L567.169,198.363L567.167,198.364L567.186,198.358L567.208,198.322L567.211,198.317L567.214,198.292L567.257,198.282L567.285,198.294L567.291,198.296L567.31,198.304L567.327,198.331L567.332,198.33L567.335,198.329L567.337,198.329L567.341,198.328L567.343,198.327L567.343,198.327L567.346,198.326L567.348,198.326L567.352,198.326L567.355,198.326L567.358,198.326L567.359,198.327L567.363,198.326L567.371,198.325L567.372,198.325L567.375,198.325L567.377,198.325L567.379,198.325L567.381,198.325L567.384,198.325L567.385,198.325L567.389,198.326L567.393,198.325L567.395,198.322L567.397,198.32L567.399,198.319L567.401,198.317L567.402,198.316L567.401,198.315L567.4,198.314L567.4,198.311L567.399,198.309L567.398,198.308L567.396,198.308L567.396,198.305L567.397,198.304L567.397,198.303L567.398,198.303L567.399,198.301L567.4,198.3L567.402,198.299L567.402,198.297L567.435,198.296L567.436,198.322L567.483,198.346L567.498,198.353L567.514,198.364L567.515,198.364L567.515,198.364L567.516,198.363L567.516,198.362L567.517,198.362L567.517,198.36L567.517,198.359L567.517,198.358L567.518,198.357L567.519,198.356L567.52,198.356L567.521,198.357L567.523,198.357L567.524,198.357L567.524,198.358L567.524,198.359L567.525,198.36L567.526,198.36L567.527,198.36L567.528,198.36L567.529,198.359L567.528,198.357L567.529,198.354L567.53,198.353L567.531,198.352L567.532,198.352L567.533,198.351L567.534,198.351L567.535,198.348L567.536,198.346L567.538,198.345L567.54,198.344L567.542,198.343L567.545,198.341L567.547,198.341L567.549,198.339L567.551,198.338L567.555,198.337L567.557,198.336L567.563,198.325L567.565,198.312L567.561,198.295L567.569,198.293L567.568,198.285L567.562,198.284L567.56,198.281L567.555,198.281L567.553,198.278L567.558,198.269L567.561,198.268L567.563,198.266L567.561,198.263L567.56,198.265L567.558,198.264L567.558,198.262L567.556,198.26L567.556,198.255L567.557,198.254L567.557,198.253L567.556,198.25L567.557,198.249L567.559,198.247L567.56,198.239L567.563,198.234L567.566,198.231L567.567,198.227L567.569,198.221L567.574,198.22L567.576,198.213L567.576,198.21L567.574,198.208L567.575,198.2L567.574,198.199L567.575,198.197L567.574,198.196L567.573,198.194L567.572,198.189L567.569,198.185L567.564,198.185L567.565,198.181L567.563,198.179L567.564,198.176L567.56,198.171L567.562,198.168L567.561,198.165L567.571,198.167L567.581,198.17L567.594,198.152L567.616,198.143L567.629,198.137L567.644,198.13L567.654,198.126L567.655,198.124L567.657,198.123L567.665,198.115L567.666,198.114L567.666,198.114L567.667,198.114L567.668,198.114L567.669,198.113L567.67,198.113L567.671,198.113L567.671,198.114L567.673,198.113L567.674,198.112L567.675,198.111L567.675,198.11L567.675,198.108L567.674,198.107L567.674,198.106L567.675,198.106L567.677,198.105L567.678,198.104L567.677,198.103L567.677,198.102L567.678,198.101L567.678,198.1L567.678,198.099L567.678,198.099L567.679,198.098L567.679,198.098L567.681,198.098L567.683,198.098L567.683,198.099L567.685,198.1L567.686,198.101L567.687,198.1L567.688,198.1L567.689,198.1L567.69,198.1L567.692,198.1L567.692,198.099L567.693,198.099L567.693,198.1L567.695,198.099L567.698,198.098L567.699,198.097L567.701,198.098L567.704,198.099L567.706,198.102L567.706,198.104L567.708,198.105L567.711,198.105L567.713,198.105L567.715,198.104L567.717,198.103L567.718,198.101L567.719,198.098L567.718,198.095L567.719,198.092L567.721,198.09L567.722,198.089L567.722,198.089L567.725,198.09L567.725,198.092L567.727,198.093L567.729,198.094L567.731,198.094L567.733,198.093L567.734,198.092L567.736,198.091L567.739,198.064L567.74,198.045L567.732,198.043L567.726,198.042L567.69,198.048L567.689,198.041L567.689,198.039L567.688,198.034L567.689,198.03L567.698,198.009L567.708,197.971L567.704,197.968L567.702,197.965L567.705,197.96L567.712,197.947L567.707,197.944L567.702,197.94L567.696,197.944L567.69,197.949L567.685,197.948L567.68,197.947L567.673,197.945L567.661,197.943L567.651,197.94L567.658,197.935L567.659,197.933L567.658,197.926L567.663,197.923L567.669,197.922L567.67,197.926L567.672,197.927L567.675,197.926L567.677,197.924L567.681,197.916L567.682,197.916L567.684,197.916L567.686,197.915L567.687,197.913L567.687,197.909L567.685,197.907L567.684,197.906L567.681,197.905L567.681,197.904L567.679,197.902L567.677,197.901L567.675,197.9L567.674,197.897L567.673,197.895L567.67,197.893L567.666,197.893L567.665,197.893L567.658,197.896L567.656,197.896L567.655,197.893L567.655,197.889L567.651,197.886L567.651,197.884L567.653,197.881L567.655,197.88L567.658,197.88L567.661,197.882L567.666,197.882L567.669,197.883L567.673,197.887L567.678,197.89L567.68,197.891L567.683,197.891L567.684,197.889L567.682,197.884L567.681,197.877L567.682,197.872L567.684,197.87L567.69,197.869L567.693,197.867L567.696,197.862L567.695,197.858L567.692,197.855L567.687,197.852L567.684,197.85L567.683,197.848L567.683,197.846L567.686,197.846L567.688,197.846L567.692,197.845L567.697,197.843L567.7,197.843L567.704,197.843L567.705,197.834L567.707,197.826L567.708,197.818L567.709,197.808L567.71,197.803L567.71,197.797L567.713,197.794L567.717,197.796L567.726,197.796L567.745,197.821L567.751,197.812L567.746,197.804L567.751,197.795L567.735,197.788L567.738,197.782L567.739,197.779L567.742,197.779L567.747,197.773L567.749,197.771L567.749,197.769L567.748,197.767L567.745,197.767L567.74,197.764L567.738,197.759L567.742,197.755L567.746,197.755L567.75,197.756L567.754,197.753L567.755,197.753L567.756,197.751L567.759,197.746L567.759,197.743L567.756,197.741L567.749,197.737L567.743,197.736L567.741,197.738L567.738,197.738L567.734,197.736L567.732,197.732L567.733,197.73L567.731,197.721L567.728,197.717L567.728,197.715L567.73,197.714L567.734,197.712L567.736,197.71L567.736,197.708L567.735,197.706L567.736,197.703L567.763,197.679L567.77,197.673L567.775,197.672L567.782,197.672L567.785,197.671L567.789,197.67L567.792,197.67L567.796,197.667L567.797,197.668L567.799,197.669L567.803,197.67L567.813,197.671L567.818,197.674L567.822,197.677L567.824,197.68L567.826,197.684L567.836,197.677L567.834,197.671L567.825,197.645L567.822,197.646L567.819,197.645L567.815,197.644L567.811,197.645L567.809,197.644L567.808,197.638L567.815,197.612L567.827,197.566L567.83,197.566L567.834,197.566L567.853,197.568L567.851,197.575L567.851,197.578L567.85,197.584L567.853,197.588L567.854,197.592L567.858,197.596L567.863,197.599L567.862,197.601L567.907,197.664L567.921,197.654L567.941,197.642L567.921,197.618L567.915,197.613L567.889,197.581L567.893,197.578L567.897,197.577L567.898,197.578L567.902,197.578L567.899,197.557L567.89,197.509L567.884,197.504L567.872,197.495L567.841,197.471L567.832,197.464L567.829,197.462L567.814,197.451L567.796,197.437L567.794,197.434L567.784,197.417L567.772,197.414L567.767,197.413L567.762,197.416L567.758,197.417L567.754,197.415L567.745,197.415L567.734,197.416L567.721,197.417L567.704,197.418L567.693,197.421L567.685,197.426L567.674,197.456L567.67,197.477L567.666,197.481L567.663,197.485L567.651,197.49L567.63,197.454L567.62,197.435L567.62,197.381L567.62,197.381L567.62,197.378L567.62,197.332L567.613,197.306L567.612,197.306L567.611,197.306L567.604,197.301L567.602,197.298L567.602,197.293L567.606,197.287L567.606,197.286L567.584,197.277L567.575,197.273L567.572,197.273L567.566,197.272L567.558,197.272L567.552,197.272L567.548,197.274L567.531,197.283L567.509,197.296L567.502,197.285L567.506,197.255L567.506,197.252L567.506,197.249L567.51,197.238L567.513,197.235L567.521,197.224L567.519,197.224L567.478,197.216L567.474,197.215L567.473,197.215L567.47,197.214L567.459,197.212L567.459,197.212L567.457,197.211L567.455,197.211L567.454,197.211L567.453,197.211L567.411,197.203L567.385,197.203L567.385,197.203L567.385,197.203L567.379,197.203L567.372,197.201L567.365,197.199L567.358,197.198L567.35,197.197L567.341,197.194L567.333,197.191L567.332,197.191L567.325,197.195L567.321,197.197L567.32,197.195L567.318,197.192L567.311,197.198L567.309,197.2L567.306,197.202L567.304,197.203L567.303,197.204L567.302,197.204L567.297,197.206L567.293,197.208L567.293,197.208L567.291,197.207L567.286,197.202L567.276,197.195L567.258,197.194L567.259,197.145L567.182,197.139L567.156,197.123L567.155,197.123L567.151,197.108L567.151,197.107L567.151,197.106L567.147,197.094L567.137,197.058L567.157,197.032L567.157,197.021L567.158,197.013L567.159,197.001L567.161,196.988L567.217,196.986L567.211,196.962L567.21,196.951L567.21,196.941L567.159,196.942L567.16,196.952L567.12,196.956L567.09,196.94L567.082,196.936L567.082,196.935L567.085,196.924L567.024,196.918L567.035,196.863L567.044,196.825L566.983,196.823L566.955,196.822L566.925,196.78L566.925,196.777L566.925,196.77L566.926,196.761L566.915,196.758L566.908,196.76L566.902,196.754L566.9,196.751L566.897,196.743L566.91,196.733L566.909,196.732L566.874,196.687L566.874,196.687L566.871,196.695L566.862,196.708L566.86,196.712L566.86,196.715L566.859,196.717L566.858,196.718L566.858,196.718L566.854,196.715L566.846,196.709L566.841,196.705L566.834,196.7L566.825,196.694L566.82,196.691L566.808,196.678L566.807,196.677L566.807,196.676L566.8,196.67L566.779,196.66L566.776,196.659L566.772,196.657L566.772,196.657L566.771,196.658L566.771,196.659L566.771,196.66L566.771,196.661L566.77,196.662L566.769,196.663L566.768,196.664L566.768,196.664L566.769,196.665L566.769,196.665L566.769,196.666L566.768,196.667L566.767,196.667L566.766,196.667L566.766,196.668L566.766,196.668L566.766,196.671L566.766,196.671L566.766,196.671L566.764,196.672L566.763,196.672L566.762,196.673L566.762,196.676L566.762,196.678L566.761,196.678L566.759,196.678L566.758,196.679L566.757,196.681L566.755,196.682L566.755,196.683L566.755,196.685L566.755,196.687L566.755,196.689L566.756,196.69L566.757,196.691L566.756,196.692L566.755,196.693L566.754,196.694L566.753,196.696L566.752,196.697L566.751,196.698L566.751,196.699L566.75,196.7L566.749,196.7L566.748,196.7L566.748,196.699L566.747,196.699L566.747,196.699L566.746,196.7L566.744,196.701L566.744,196.702L566.699,196.65L566.7,196.647L566.712,196.632L566.718,196.623L566.723,196.617L566.734,196.593L566.738,196.585L566.739,196.584L566.742,196.584L566.742,196.583L566.741,196.582L566.741,196.582L566.739,196.581L566.66,196.566L566.648,196.564L566.628,196.563L566.626,196.545L566.624,196.533L566.624,196.525L566.623,196.525L566.619,196.487L566.605,196.48L566.608,196.473L566.583,196.462L566.593,196.416L566.589,196.414L566.588,196.413L566.587,196.412L566.587,196.411L566.586,196.411L566.586,196.41L566.586,196.409L566.585,196.408L566.585,196.406L566.585,196.405L566.584,196.405L566.583,196.404L566.581,196.403L566.58,196.402L566.58,196.401L566.579,196.399L566.578,196.398L566.577,196.397L566.576,196.397L566.576,196.396L566.576,196.394L566.577,196.391L566.578,196.39L566.583,196.384L566.584,196.382L566.584,196.381L566.586,196.38L566.586,196.379L566.586,196.378L566.587,196.376L566.589,196.375L566.591,196.373L566.593,196.371L566.597,196.368L566.6,196.365L566.611,196.373L566.637,196.4L566.638,196.393L566.638,196.384L566.64,196.374L566.653,196.37L566.652,196.365L566.646,196.342L566.612,196.331L566.604,196.308L566.579,196.297L566.569,196.289L566.568,196.29L566.552,196.281L566.556,196.274L566.565,196.256L566.536,196.256L566.526,196.255L566.531,196.249L566.541,196.231L566.549,196.223L566.571,196.211L566.567,196.198L566.573,196.189L566.595,196.201L566.601,196.204L566.61,196.201L566.612,196.199L566.616,196.198L566.622,196.195L566.62,196.19L566.617,196.178L566.603,196.148L566.634,196.134L566.639,196.147L566.643,196.164L566.646,196.169L566.651,196.175L566.653,196.167L566.657,196.166L566.664,196.168L566.671,196.168L566.676,196.164L566.69,196.172L566.694,196.174L566.7,196.179L566.707,196.175L566.75,196.138L566.724,196.102L566.715,196.092L566.706,196.08L566.721,196.07L566.752,196.084L566.761,196.127L566.763,196.129L566.763,196.134L566.805,196.129L566.804,196.096L566.79,196.096L566.774,196.045L566.804,196.043L566.812,196.049L566.817,196.05L566.818,196.042L566.819,196.015L566.819,196.004L566.83,196.003L566.83,195.998L566.832,195.972L566.831,195.966L566.824,195.963L566.825,195.918L566.823,195.886L566.823,195.861L566.821,195.851L566.82,195.842L566.825,195.833L566.827,195.831L566.826,195.829L566.828,195.825L566.823,195.823L566.824,195.819L566.816,195.819L566.815,195.811L566.816,195.811L566.816,195.806L566.823,195.803L566.824,195.8L566.823,195.795L566.827,195.789L566.826,195.784L566.82,195.781L566.801,195.772L566.794,195.769L566.783,195.763L566.781,195.763L566.768,195.758L566.754,195.753L566.741,195.749L566.732,195.745L566.729,195.744L566.727,195.727L566.727,195.719L566.729,195.7L566.729,195.692L566.736,195.69L566.74,195.689L566.752,195.685L566.753,195.685L566.765,195.675L566.767,195.674L566.771,195.67L566.779,195.664L566.785,195.659L566.785,195.655L566.785,195.648L566.786,195.647L566.789,195.637L566.793,195.626L566.79,195.62L566.784,195.609L566.799,195.596L566.806,195.598L566.807,195.599L566.819,195.602L566.827,195.605L566.829,195.605L566.833,195.607L566.839,195.61L566.84,195.61L566.846,195.613L566.85,195.615L566.853,195.615L566.857,195.615L566.86,195.616L566.866,195.616L566.869,195.616L566.873,195.596L566.874,195.591L566.875,195.583L566.875,195.575L566.875,195.57L566.871,195.566L566.858,195.562L566.857,195.559L566.855,195.552L566.854,195.545L566.856,195.539L566.859,195.532L566.859,195.527L566.867,195.52L566.869,195.518L566.871,195.514L566.875,195.505L566.874,195.504L566.872,195.501L566.869,195.496L566.866,195.492L566.86,195.479L566.86,195.478L566.855,195.475L566.847,195.47L566.829,195.459L566.825,195.456L566.82,195.453L566.818,195.452L566.817,195.451L566.803,195.444L566.791,195.439L566.796,195.431L566.799,195.428L566.812,195.426L566.816,195.424L566.817,195.422L566.827,195.412L566.828,195.411L566.84,195.406L566.852,195.4L566.853,195.4L566.864,195.395L566.865,195.394L566.874,195.39L566.881,195.381L566.889,195.372L566.89,195.372L566.892,195.37L566.902,195.355L566.903,195.354L566.905,195.351L566.909,195.346L566.911,195.343L566.913,195.34L566.914,195.339L566.914,195.339L566.917,195.334L566.922,195.328L566.925,195.324L566.926,195.323L566.926,195.322L566.926,195.318L566.927,195.312L566.929,195.303L566.919,195.29L566.918,195.289L566.92,195.287L566.92,195.286L566.924,195.282L566.914,195.265L566.911,195.26L566.91,195.257L566.911,195.253L566.911,195.252L566.912,195.25L566.914,195.247L566.908,195.234L566.906,195.23L566.904,195.227L566.904,195.221L566.903,195.212L566.901,195.206L566.901,195.205L566.898,195.191L566.898,195.19L566.896,195.182L566.895,195.178L566.894,195.171L566.893,195.164L566.892,195.163L566.891,195.157L566.892,195.137L566.894,195.127L566.901,195.114L566.9,195.1L566.9,195.091L566.9,195.09L566.9,195.069L566.887,195.071L566.886,195.055L566.868,195.05L566.884,195.029L566.88,195.027L566.865,195.007L566.864,195L566.862,194.973L566.883,194.983L566.877,194.969L566.868,194.936L566.861,194.913L566.86,194.907L566.857,194.885L566.848,194.884L566.847,194.865L566.817,194.867L566.812,194.858L566.839,194.835L566.838,194.789L566.836,194.773L566.828,194.685L566.832,194.681L566.836,194.682L566.838,194.681L566.84,194.68L566.841,194.681L566.842,194.681L566.842,194.682L566.841,194.683L566.843,194.684L566.846,194.683L566.852,194.685L566.855,194.688L566.859,194.681L566.864,194.664L566.873,194.632L566.898,194.626L566.916,194.631L566.92,194.63L566.93,194.582L566.951,194.582L566.95,194.576L566.949,194.576L566.949,194.576L566.949,194.576L566.948,194.573L566.948,194.571L566.951,194.567L566.955,194.56L566.957,194.556L566.959,194.551L566.963,194.542L566.963,194.539L566.964,194.533L566.964,194.516L566.965,194.511L566.965,194.508L566.964,194.499L566.963,194.499L566.961,194.489L566.96,194.481L566.96,194.48L566.959,194.479L566.959,194.479L566.959,194.479L566.959,194.478L566.959,194.478L566.959,194.475L566.956,194.466L566.951,194.457L566.95,194.456L566.948,194.453L566.943,194.445L566.936,194.435L566.93,194.426L566.93,194.426L566.93,194.426L566.927,194.422L566.927,194.421L566.927,194.421L566.927,194.422L566.925,194.423L566.924,194.424L566.924,194.427L566.924,194.427L566.924,194.428L566.924,194.428L566.922,194.43L566.921,194.431L566.921,194.431L566.92,194.433L566.92,194.434L566.919,194.435L566.918,194.435L566.918,194.436L566.918,194.436L566.918,194.437L566.917,194.437L566.916,194.438L566.916,194.438L566.916,194.439L566.915,194.44L566.914,194.441L566.913,194.441L566.913,194.442L566.913,194.444L566.913,194.444L566.912,194.445L566.912,194.446L566.911,194.446L566.911,194.447L566.911,194.447L566.911,194.448L566.911,194.448L566.911,194.449L566.911,194.449L566.911,194.45L566.91,194.45L566.91,194.451L566.91,194.452L566.909,194.453L566.909,194.453L566.909,194.454L566.908,194.454L566.908,194.455L566.908,194.456L566.907,194.457L566.906,194.458L566.906,194.459L566.905,194.459L566.904,194.46L566.904,194.461L566.904,194.461L566.904,194.461L566.903,194.461L566.903,194.462L566.903,194.462L566.903,194.463L566.903,194.463L566.903,194.463L566.903,194.464L566.902,194.463L566.902,194.463L566.901,194.463L566.9,194.463L566.9,194.463L566.899,194.463L566.898,194.463L566.898,194.464L566.898,194.464L566.898,194.464L566.898,194.465L566.897,194.465L566.896,194.465L566.896,194.465L566.896,194.464L566.895,194.463L566.894,194.461L566.892,194.46L566.887,194.455L566.875,194.444L566.875,194.444L566.874,194.444L566.867,194.437L566.869,194.432L566.869,194.422L566.87,194.409L566.885,194.398L566.898,194.394L566.905,194.391L566.897,194.376L566.892,194.364L566.892,194.363L566.892,194.363L566.878,194.357L566.868,194.363L566.866,194.366L566.86,194.369L566.859,194.37L566.859,194.37L566.859,194.371L566.859,194.372L566.859,194.372L566.858,194.373L566.858,194.374L566.858,194.375L566.858,194.377L566.858,194.378L566.857,194.378L566.857,194.379L566.857,194.38L566.857,194.38L566.857,194.382L566.856,194.383L566.856,194.384L566.855,194.385L566.855,194.386L566.854,194.387L566.854,194.387L566.854,194.388L566.853,194.389L566.853,194.39L566.852,194.391L566.852,194.391L566.852,194.392L566.852,194.392L566.852,194.392L566.851,194.392L566.851,194.391L566.851,194.39L566.851,194.39L566.85,194.39L566.849,194.389L566.849,194.389L566.848,194.389L566.848,194.389L566.847,194.389L566.847,194.388L566.846,194.388L566.844,194.388L566.844,194.387L566.844,194.387L566.843,194.387L566.843,194.386L566.842,194.387L566.841,194.387L566.841,194.387L566.841,194.387L566.84,194.386L566.839,194.386L566.839,194.386L566.838,194.386L566.837,194.386L566.836,194.386L566.836,194.386L566.835,194.387L566.834,194.387L566.834,194.387L566.833,194.387L566.833,194.387L566.833,194.386L566.831,194.385L566.831,194.385L566.831,194.385L566.83,194.385L566.829,194.385L566.829,194.385L566.828,194.384L566.828,194.384L566.828,194.384L566.827,194.384L566.826,194.384L566.824,194.383L566.814,194.381L566.813,194.381L566.813,194.381L566.811,194.38L566.807,194.379L566.806,194.379L566.805,194.38L566.804,194.38L566.803,194.38L566.802,194.38L566.801,194.38L566.8,194.38L566.799,194.38L566.798,194.381L566.782,194.379L566.77,194.378L566.767,194.386L566.766,194.389L566.752,194.384L566.754,194.379L566.756,194.375L566.755,194.372L566.749,194.36L566.742,194.349L566.735,194.337L566.731,194.33L566.73,194.33L566.709,194.337L566.694,194.342L566.674,194.341L566.66,194.333L566.659,194.332L566.65,194.327L566.648,194.321L566.644,194.312L566.643,194.306L566.641,194.298L566.64,194.294L566.639,194.288L566.638,194.284L566.638,194.275L566.637,194.262L566.64,194.251L566.642,194.245L566.647,194.231L566.645,194.231L566.599,194.235L566.58,194.236L566.56,194.238L566.539,194.239L566.54,194.228L566.541,194.221L566.541,194.216L566.538,194.21L566.55,194.196L566.558,194.187L566.561,194.183L566.566,194.177L566.575,194.166L566.589,194.149L566.59,194.148L566.582,194.134L566.576,194.122L566.572,194.115L566.572,194.113L566.572,194.111L566.572,194.109L566.572,194.095L566.572,194.095L566.572,194.089L566.572,194.087L566.572,194.074L566.572,194.074L566.572,194.074L566.572,194.074L566.572,194.074L566.572,194.063L566.572,194.063L566.559,194.063L566.555,194.02L566.523,194.006L566.509,193.999L566.488,193.989L566.487,193.989L566.486,193.989L566.485,193.988L566.485,193.988L566.485,193.988L566.486,193.986L566.486,193.985L566.487,193.984L566.487,193.984L566.487,193.983L566.487,193.982L566.487,193.981L566.487,193.98L566.487,193.979L566.487,193.977L566.487,193.976L566.487,193.975L566.487,193.973L566.487,193.97L566.486,193.967L566.486,193.967L566.486,193.966L566.487,193.965L566.487,193.965L566.487,193.964L566.486,193.963L566.486,193.962L566.487,193.961L566.488,193.96L566.488,193.959L566.487,193.958L566.487,193.957L566.487,193.956L566.489,193.955L566.489,193.955L566.491,193.951L566.491,193.95L566.491,193.949L566.491,193.947L566.491,193.945L566.491,193.943L566.491,193.942L566.489,193.941L566.489,193.941L566.489,193.941L566.477,193.941L566.477,193.933L566.477,193.927L566.477,193.917L566.465,193.913L566.455,193.909L566.433,193.923L566.431,193.924L566.427,193.916L566.426,193.915L566.422,193.909L566.41,193.891L566.4,193.876L566.396,193.87L566.395,193.868L566.373,193.881L566.369,193.875L566.366,193.876L566.362,193.877L566.357,193.868L566.348,193.873L566.355,193.887L566.358,193.895L566.36,193.898L566.362,193.901L566.346,193.91L566.344,193.91L566.338,193.909L566.336,193.909L566.329,193.905L566.326,193.904L566.321,193.9L566.317,193.901L566.313,193.902L566.312,193.903L566.307,193.905L566.305,193.896L566.299,193.895L566.295,193.894L566.294,193.892L566.291,193.878L566.293,193.875L566.293,193.874L566.29,193.861L566.289,193.856L566.284,193.85L566.281,193.844L566.278,193.845L566.274,193.845L566.268,193.843L566.268,193.843L566.265,193.845L566.264,193.842L566.263,193.842L566.263,193.842L566.263,193.841L566.264,193.84L566.264,193.839L566.263,193.838L566.261,193.838L566.26,193.837L566.259,193.835L566.258,193.835L566.256,193.835L566.254,193.836L566.253,193.836L566.253,193.837L566.252,193.836L566.251,193.836L566.251,193.835L566.251,193.834L566.251,193.833L566.251,193.832L566.251,193.831L566.251,193.83L566.252,193.829L566.253,193.828L566.254,193.827L566.254,193.827L566.256,193.827L566.256,193.827L566.257,193.828L566.258,193.829L566.258,193.829L566.259,193.829L566.259,193.829L566.26,193.829L566.26,193.828L566.26,193.828L566.261,193.827L566.261,193.826L566.261,193.826L566.262,193.826L566.263,193.826L566.263,193.827L566.264,193.826L566.264,193.826L566.265,193.825L566.265,193.825L566.265,193.824L566.265,193.823L566.265,193.822L566.265,193.821L566.265,193.82L566.266,193.82L566.267,193.82L566.266,193.819L566.263,193.815L566.257,193.818L566.254,193.819L566.242,193.826L566.229,193.835L566.227,193.837L566.218,193.844L566.206,193.852L566.196,193.86L566.191,193.863L566.19,193.864L566.188,193.865L566.188,193.865L566.187,193.864L566.184,193.86L566.16,193.878L566.14,193.891L566.134,193.895L566.139,193.901L566.133,193.908L566.124,193.917L566.122,193.918L566.106,193.928L566.097,193.93L566.091,193.93L566.088,193.931L566.083,193.934L566.081,193.935L566.077,193.937L566.07,193.944L566.068,193.945L566.062,193.945L566.057,193.946L566.052,193.949L566.049,193.949L566.047,193.95L566.036,193.953L566.025,193.96L566.016,193.962L566.014,193.962L566.013,193.962L566.004,193.966L565.999,193.964L565.997,193.965L565.992,193.972L565.994,193.978L565.997,193.984L566,193.989L565.999,193.989L565.997,193.99L565.995,193.992L565.994,193.992L565.994,193.992L565.993,193.993L565.993,193.994L565.992,193.994L565.992,193.993L565.992,193.993L565.991,193.992L565.991,193.992L565.99,193.992L565.99,193.992L565.988,193.992L565.987,193.992L565.986,193.992L565.985,193.992L565.985,193.992L565.984,193.991L565.984,193.991L565.982,193.991L565.981,193.991L565.98,193.99L565.979,193.99L565.979,193.99L565.978,193.99L565.976,193.989L565.973,193.988L565.97,193.989L565.966,193.988L565.966,193.988L565.964,193.987L565.963,193.987L565.963,193.987L565.962,193.986L565.962,193.986L565.96,193.986L565.959,193.986L565.957,193.986L565.956,193.986L565.956,193.985L565.955,193.984L565.954,193.984L565.954,193.984L565.953,193.983L565.949,193.981L565.949,193.982L565.947,193.982L565.945,193.982L565.944,193.981L565.944,193.98L565.943,193.98L565.942,193.98L565.941,193.98L565.939,193.98L565.938,193.98L565.938,193.98L565.937,193.98L565.937,193.98L565.936,193.98L565.934,193.979L565.933,193.979L565.931,193.979L565.93,193.979L565.93,193.979L565.929,193.979L565.928,193.978L565.927,193.978L565.926,193.978L565.925,193.979L565.921,193.986L565.922,193.988L565.923,193.992L565.926,193.998L565.932,194.01L565.932,194.011L565.933,194.015L565.936,194.025L565.944,194.036L565.946,194.04L565.947,194.041L565.947,194.042L565.947,194.042L565.947,194.044L565.947,194.045L565.947,194.045L565.945,194.047L565.944,194.048L565.944,194.049L565.943,194.05L565.943,194.05L565.943,194.051L565.943,194.052L565.944,194.052L565.944,194.053L565.944,194.053L565.944,194.054L565.943,194.054L565.943,194.055L565.943,194.056L565.942,194.057L565.942,194.058L565.942,194.059L565.939,194.06L565.939,194.061L565.938,194.061L565.937,194.061L565.937,194.061L565.936,194.062L565.935,194.062L565.935,194.062L565.934,194.063L565.934,194.063L565.934,194.064L565.934,194.065L565.933,194.066L565.933,194.066L565.933,194.066L565.933,194.067L565.933,194.067L565.933,194.067L565.933,194.068L565.933,194.069L565.933,194.069L565.935,194.071L565.938,194.076L565.935,194.081L565.932,194.085L565.928,194.089L565.928,194.092L565.927,194.094L565.926,194.096L565.926,194.098L565.926,194.1L565.927,194.103L565.928,194.118L565.928,194.125L565.928,194.139L565.928,194.143L565.929,194.149L565.929,194.151L565.93,194.16L565.931,194.165L565.931,194.169L565.932,194.171L565.933,194.172L565.933,194.176L565.934,194.18L565.933,194.187L565.933,194.194L565.935,194.197L565.934,194.199L565.933,194.21L565.933,194.213L565.932,194.221L565.931,194.226L565.926,194.233L565.92,194.243L565.919,194.245L565.918,194.253L565.914,194.263L565.911,194.267L565.907,194.275L565.904,194.278L565.897,194.286L565.895,194.289L565.892,194.288L565.887,194.276L565.883,194.27L565.884,194.263L565.884,194.26L565.884,194.259L565.883,194.259L565.882,194.258L565.88,194.258L565.877,194.256L565.876,194.256L565.873,194.256L565.872,194.255L565.871,194.253L565.871,194.252L565.871,194.252L565.871,194.251L565.87,194.25L565.87,194.249L565.869,194.247L565.868,194.247L565.867,194.246L565.867,194.246L565.866,194.246L565.866,194.246L565.864,194.246L565.863,194.245L565.861,194.245L565.857,194.243L565.856,194.243L565.855,194.244L565.848,194.244L565.848,194.244L565.847,194.251L565.836,194.251L565.83,194.251L565.823,194.252L565.817,194.252L565.815,194.252L565.802,194.25L565.797,194.248L565.79,194.244L565.786,194.254L565.785,194.256L565.782,194.266L565.781,194.267L565.783,194.276L565.783,194.281L565.783,194.294L565.784,194.3L565.772,194.301L565.761,194.3L565.761,194.309L565.761,194.335L565.755,194.334L565.744,194.332L565.736,194.323L565.73,194.318L565.728,194.315L565.728,194.314L565.727,194.314L565.727,194.316L565.727,194.317L565.725,194.318L565.724,194.317L565.723,194.317L565.723,194.317L565.722,194.318L565.722,194.318L565.723,194.319L565.724,194.32L565.724,194.321L565.724,194.322L565.723,194.322L565.723,194.323L565.722,194.322L565.72,194.321L565.72,194.321L565.719,194.322L565.719,194.323L565.719,194.323L565.719,194.324L565.72,194.325L565.72,194.326L565.72,194.326L565.719,194.328L565.719,194.328L565.718,194.329L565.717,194.328L565.716,194.329L565.716,194.33L565.714,194.33L565.714,194.33L565.711,194.328L565.702,194.323L565.698,194.32L565.692,194.322L565.67,194.328L565.661,194.331L565.658,194.332L565.65,194.334L565.65,194.336L565.65,194.343L565.642,194.347L565.641,194.344L565.636,194.342L565.63,194.34L565.626,194.338L565.607,194.33L565.601,194.341L565.598,194.348L565.597,194.348L565.594,194.354L565.576,194.357L565.561,194.36L565.547,194.362L565.545,194.363L565.545,194.363L565.545,194.362L565.545,194.361L565.545,194.359L565.546,194.359L565.546,194.358L565.546,194.357L565.546,194.357L565.546,194.356L565.546,194.356L565.546,194.355L565.547,194.354L565.547,194.354L565.547,194.353L565.547,194.352L565.547,194.352L565.547,194.351L565.547,194.351L565.548,194.35L565.548,194.35L565.549,194.35L565.549,194.349L565.549,194.349L565.549,194.348L565.548,194.348L565.548,194.347L565.548,194.347L565.549,194.347L565.549,194.347L565.549,194.346L565.549,194.345L565.549,194.344L565.549,194.344L565.55,194.342L565.55,194.341L565.55,194.341L565.551,194.341L565.552,194.341L565.552,194.34L565.552,194.34L565.552,194.339L565.552,194.338L565.551,194.337L565.551,194.336L565.551,194.336L565.551,194.336L565.55,194.335L565.547,194.33L565.544,194.328L565.529,194.319L565.521,194.312L565.522,194.305L565.521,194.299L565.518,194.303L565.517,194.304L565.514,194.308L565.512,194.31L565.51,194.312L565.503,194.315L565.498,194.317L565.495,194.32L565.494,194.322L565.492,194.328L565.491,194.328L565.485,194.33L565.479,194.331L565.45,194.325L565.442,194.324L565.436,194.327L565.421,194.335L565.417,194.338L565.393,194.35L565.392,194.351L565.391,194.35L565.388,194.347L565.37,194.339L565.356,194.334L565.349,194.33L565.346,194.328L565.347,194.338L565.348,194.352L565.349,194.367L565.335,194.366L565.322,194.365L565.315,194.356L565.312,194.342L565.308,194.318L565.297,194.316L565.291,194.316L565.293,194.298L565.296,194.272L565.286,194.268L565.286,194.268L565.286,194.268L565.272,194.261L565.272,194.261L565.271,194.26L565.271,194.259L565.271,194.257L565.271,194.257L565.27,194.256L565.27,194.256L565.27,194.256L565.27,194.255L565.27,194.253L565.271,194.253L565.272,194.253L565.275,194.253L565.275,194.252L565.277,194.252L565.279,194.252L565.279,194.252L565.28,194.253L565.281,194.253L565.282,194.252L565.283,194.249L565.284,194.243L565.283,194.24L565.283,194.234L565.283,194.226L565.283,194.225L565.283,194.225L565.282,194.224L565.261,194.218L565.249,194.215L565.243,194.213L565.242,194.213L565.241,194.213L565.24,194.212L565.239,194.212L565.232,194.21L565.238,194.2L565.241,194.195L565.248,194.184L565.253,194.175L565.255,194.172L565.25,194.159L565.245,194.145L565.243,194.141L565.239,194.135L565.226,194.115L565.226,194.115L565.218,194.103L565.22,194.097L565.221,194.094L565.224,194.085L565.225,194.08L565.226,194.076L565.223,194.07L565.218,194.061L565.215,194.056L565.209,194.047L565.207,194.043L565.204,194.036L565.204,194.036L565.196,194.036L565.184,194.036L565.172,194.036L565.17,194.032L565.165,194.024L565.163,194.01L565.162,194.002L565.161,193.997L565.154,193.977L565.151,193.968L565.153,193.955L565.151,193.941L565.151,193.94L565.15,193.936L565.148,193.919L565.148,193.917L565.14,193.907L565.133,193.897L565.122,193.883L565.112,193.869L565.11,193.866L565.109,193.865L565.106,193.866L565.106,193.866L565.105,193.864L565.099,193.852L565.097,193.849L565.09,193.836L565.084,193.841L565.066,193.85L565.043,193.862L565.041,193.863L565.035,193.867L565.028,193.871L565.028,193.872L565.024,193.874L565.023,193.874L565.021,193.876L565.02,193.877L565.016,193.873L565.014,193.872L565.003,193.865L565.001,193.864L564.998,193.862L564.997,193.861L564.994,193.861L564.986,193.862L564.982,193.863L564.979,193.865L564.975,193.869L564.972,193.87L564.964,193.874L564.96,193.875L564.956,193.876L564.953,193.877L564.949,193.878L564.943,193.882L564.942,193.882L564.941,193.883L564.939,193.883L564.932,193.884L564.926,193.883L564.923,193.882L564.922,193.882L564.92,193.88L564.918,193.873L564.911,193.872L564.909,193.869L564.907,193.868L564.907,193.867L564.907,193.866L564.907,193.864L564.909,193.86L564.909,193.859L564.909,193.858L564.908,193.855L564.906,193.852L564.904,193.851L564.902,193.85L564.898,193.85L564.896,193.85L564.882,193.851L564.875,193.851L564.869,193.85L564.849,193.845L564.847,193.845L564.844,193.846L564.841,193.851L564.842,193.856L564.842,193.857L564.841,193.857L564.841,193.858L564.83,193.858L564.83,193.859L564.83,193.86L564.83,193.861L564.83,193.862L564.83,193.862L564.83,193.863L564.829,193.863L564.829,193.864L564.829,193.865L564.83,193.865L564.83,193.865L564.831,193.865L564.831,193.865L564.832,193.865L564.833,193.865L564.835,193.865L564.835,193.865L564.837,193.865L564.838,193.866L564.838,193.867L564.839,193.867L564.84,193.869L564.84,193.87L564.841,193.869L564.841,193.868L564.841,193.869L564.841,193.871L564.842,193.873L564.843,193.875L564.844,193.877L564.845,193.879L564.845,193.88L564.845,193.882L564.844,193.883L564.844,193.883L564.844,193.889L564.844,193.89L564.843,193.893L564.844,193.896L564.842,193.899L564.842,193.9L564.841,193.901L564.841,193.902L564.841,193.904L564.84,193.905L564.839,193.906L564.838,193.906L564.839,193.907L564.839,193.909L564.838,193.912L564.838,193.913L564.838,193.915L564.837,193.917L564.837,193.917L564.838,193.919L564.839,193.92L564.84,193.922L564.835,193.933L564.833,193.937L564.832,193.952L564.834,193.958L564.81,193.974L564.784,193.924L564.778,193.905L564.773,193.903L564.763,193.904L564.762,193.904L564.76,193.901L564.757,193.901L564.756,193.903L564.754,193.903L564.753,193.901L564.751,193.9L564.75,193.902L564.749,193.903L564.747,193.902L564.742,193.903L564.737,193.905L564.737,193.906L564.738,193.908L564.738,193.91L564.739,193.914L564.738,193.915L564.737,193.914L564.735,193.913L564.733,193.913L564.731,193.914L564.731,193.915L564.727,193.917L564.718,193.914L564.714,193.91L564.711,193.91L564.704,193.911L564.696,193.914L564.689,193.915L564.687,193.918L564.686,193.919L564.684,193.919L564.682,193.919L564.681,193.918L564.676,193.917L564.675,193.917L564.675,193.916L564.677,193.913L564.677,193.911L564.675,193.911L564.674,193.912L564.67,193.913L564.669,193.912L564.668,193.91L564.667,193.91L564.666,193.911L564.666,193.911L564.665,193.91L564.664,193.91L564.663,193.911L564.661,193.913L564.66,193.913L564.658,193.913L564.657,193.912L564.656,193.912L564.655,193.912L564.654,193.914L564.649,193.914L564.647,193.914L564.644,193.917L564.642,193.917L564.641,193.917L564.639,193.919L564.638,193.92L564.638,193.921L564.638,193.922L564.637,193.922L564.637,193.924L564.635,193.926L564.634,193.927L564.633,193.926L564.63,193.927L564.626,193.93L564.622,193.933L564.62,193.934L564.619,193.937L564.617,193.939L564.616,193.94L564.614,193.94L564.611,193.941L564.61,193.941L564.609,193.941L564.606,193.941L564.604,193.941L564.602,193.941L564.601,193.943L564.6,193.944L564.6,193.947L564.599,193.948L564.597,193.95L564.595,193.95L564.595,193.952L564.594,193.953L564.593,193.953L564.592,193.953L564.591,193.952L564.589,193.952L564.587,193.951L564.586,193.951L564.585,193.954L564.584,193.954L564.583,193.954L564.582,193.953L564.581,193.953L564.579,193.953L564.577,193.953L564.577,193.954L564.577,193.955L564.577,193.956L564.578,193.957L564.579,193.957L564.579,193.958L564.579,193.958L564.577,193.96L564.577,193.96L564.576,193.961L564.574,193.961L564.573,193.961L564.572,193.963L564.571,193.965L564.571,193.965L564.569,193.963L564.566,193.963L564.564,193.963L564.564,193.964L564.565,193.965L564.566,193.966L564.567,193.966L564.567,193.967L564.566,193.968L564.565,193.968L564.563,193.968L564.563,193.967L564.563,193.966L564.563,193.965L564.561,193.965L564.56,193.966L564.56,193.967L564.56,193.968L564.56,193.969L564.559,193.97L564.558,193.97L564.557,193.969L564.557,193.969L564.556,193.968L564.554,193.969L564.553,193.969L564.552,193.969L564.552,193.97L564.551,193.97L564.551,193.971L564.549,193.971L564.548,193.971L564.546,193.971L564.545,193.973L564.544,193.974L564.543,193.974L564.542,193.976L564.542,193.978L564.541,193.978L564.541,193.978L564.54,193.977L564.539,193.976L564.538,193.977L564.538,193.977L564.538,193.978L564.538,193.979L564.532,194.011L564.536,194.025L564.532,194.03L564.533,194.043L564.526,194.048L564.537,194.066L564.546,194.071L564.548,194.071L564.549,194.07L564.552,194.07L564.554,194.071L564.557,194.077L564.56,194.078L564.563,194.079L564.567,194.08L564.571,194.082L564.573,194.083L564.573,194.086L564.575,194.086L564.575,194.087L564.576,194.088L564.578,194.091L564.578,194.092L564.577,194.095L564.577,194.097L564.579,194.101L564.581,194.104L564.583,194.108L564.585,194.11L564.587,194.111L564.59,194.113L564.593,194.113L564.597,194.113L564.598,194.114L564.598,194.115L564.598,194.117L564.598,194.119L564.597,194.123L564.597,194.126L564.595,194.132L564.576,194.148L564.572,194.144L564.563,194.142L564.55,194.15L564.543,194.159L564.542,194.169L564.543,194.184L564.543,194.197L564.543,194.201L564.543,194.207L564.544,194.211L564.544,194.213L564.545,194.221L564.548,194.231L564.549,194.236L564.55,194.237L564.553,194.245L564.558,194.254L564.564,194.265L564.565,194.267L564.566,194.271L564.588,194.29L564.594,194.306L564.604,194.32L564.604,194.326L564.61,194.343L564.612,194.358L564.614,194.371L564.614,194.39L564.613,194.406L564.618,194.439L564.606,194.456L564.582,194.458L564.571,194.458L564.557,194.456L564.555,194.455L564.55,194.452L564.548,194.451L564.542,194.449L564.538,194.451L564.535,194.449L564.53,194.451L564.517,194.451L564.483,194.453L564.467,194.487L564.463,194.487L564.434,194.502L564.433,194.492L564.417,194.49L564.404,194.46L564.385,194.466L564.373,194.468L564.345,194.493L564.319,194.502L564.311,194.509L564.304,194.517L564.308,194.52L564.3,194.525L564.272,194.528L564.258,194.537L564.253,194.537L564.247,194.54L564.247,194.55L564.243,194.552L564.225,194.598L564.219,194.596L564.215,194.611L564.28,194.634L564.25,194.674L564.274,194.676L564.274,194.725L564.283,194.74L564.304,194.72L564.329,194.74L564.325,194.743L564.341,194.754L564.361,194.759L564.376,194.758L564.369,194.794L564.352,194.804L564.406,194.852L564.395,194.864L564.377,194.865L564.373,194.899L564.364,194.893L564.355,194.896L564.348,194.902L564.347,194.924L564.296,194.928L564.302,194.948L564.301,194.961L564.299,194.967L564.303,194.982L564.306,194.997L564.306,195.006L564.315,195.003L564.343,195L564.355,194.997L564.363,195.003L564.379,195.009L564.382,195.02L564.39,195.032L564.392,195.044L564.396,195.049L564.396,195.061L564.399,195.065L564.425,195.056L564.436,195.059L564.442,195.063L564.448,195.069L564.451,195.086L564.452,195.092L564.446,195.099L564.426,195.122L564.426,195.127L564.431,195.138L564.427,195.153L564.418,195.168L564.418,195.185L564.411,195.194L564.411,195.205L564.41,195.21L564.402,195.222L564.4,195.234L564.391,195.242L564.391,195.242L564.373,195.251L564.361,195.259L564.372,195.278L564.373,195.296L564.381,195.302L564.394,195.308L564.397,195.314L564.397,195.329L564.39,195.338L564.376,195.328L564.367,195.329L564.351,195.334L564.34,195.334L564.338,195.332L564.314,195.352L564.317,195.358L564.318,195.367L564.316,195.373L564.31,195.377L564.298,195.378L564.286,195.374L564.281,195.367L564.27,195.36L564.26,195.356L564.266,195.422L564.271,195.463L564.276,195.476L564.258,195.474L564.256,195.473L564.244,195.469L564.244,195.478L564.225,195.481L564.226,195.48L564.228,195.475L564.225,195.473L564.216,195.473L564.217,195.465L564.216,195.458L564.219,195.443L564.225,195.438L564.22,195.435L564.22,195.428L564.215,195.421L564.216,195.417L564.2,195.397L564.176,195.409L564.169,195.397L564.164,195.381L564.166,195.379L564.158,195.363L564.154,195.359L564.154,195.35L564.138,195.342L564.118,195.363L564.113,195.372L564.107,195.41L564.107,195.422L564.097,195.427L564.069,195.45L564.02,195.469L564.025,195.475L563.988,195.479L563.973,195.476L563.956,195.477L563.951,195.479L563.954,195.492L563.953,195.506L563.936,195.567L563.935,195.567L563.907,195.571L563.878,195.6L563.878,195.589L563.872,195.558L563.867,195.517L563.847,195.511L563.846,195.451L563.846,195.444L563.84,195.442L563.836,195.44L563.828,195.438L563.815,195.432L563.808,195.429L563.795,195.421L563.791,195.419L563.777,195.396L563.763,195.415L563.748,195.431L563.744,195.434L563.744,195.445L563.718,195.466L563.71,195.446L563.703,195.446L563.696,195.429L563.672,195.422L563.672,195.41L563.666,195.4L563.655,195.392L563.649,195.397L563.643,195.397L563.635,195.389L563.627,195.386L563.618,195.379L563.613,195.374L563.608,195.367L563.594,195.338L563.579,195.337L563.563,195.361L563.554,195.374L563.545,195.373L563.543,195.368L563.541,195.366L563.553,195.348L563.553,195.341L563.545,195.323L563.543,195.32L563.541,195.316L563.537,195.307L563.537,195.304L563.537,195.3L563.512,195.311L563.494,195.316L563.469,195.322L563.436,195.325L563.404,195.33L563.37,195.329L563.352,195.326L563.341,195.327L563.344,195.306L563.309,195.298L563.307,195.311L563.233,195.299L563.208,195.297L563.186,195.362L563.167,195.384L563.149,195.413L563.116,195.417L563.111,195.417L563.111,195.426L563.112,195.435L563.116,195.446L563.12,195.455L563.121,195.466L563.125,195.469L563.125,195.475L563.122,195.481L563.116,195.485L563.115,195.485L563.113,195.486L563.109,195.487L563.109,195.488L563.108,195.489L563.105,195.49L563.102,195.493L563.101,195.494L563.1,195.494L563.099,195.495L563.098,195.497L563.097,195.498L563.097,195.501L563.095,195.503L563.095,195.503L563.095,195.504L563.093,195.505L563.092,195.506L563.092,195.511L563.092,195.513L563.094,195.517ZM800,0L800,12.246L800,78.668L800,145.789L800,215.835L800,261.497L800,300L800,338.503L800,384.165L800,454.211L800,600L800,600L200,600L200,600L200,454.211L200,384.165L200,338.503L200,300L200,261.497L200,215.835L200,145.789L200,78.668L200,12.246L200,0L200,0L800,0Z"/>
<path d="M565.994,196.54m0,4.5a4.5,4.5 0 1,1 0,-9a4.5,4.5 0 1,1 0,9z"/>
<path d="M565.187,196.297m0,4.5a4.5,4.5 0 1,1 0,-9a4.5,4.5 0 1,1 0,9z"/>
</svg>