<?xml version="1.0" encoding="UTF-8"?>
<svg xmlns="http://www.w3.org/2000/svg" viewBox="0 0 1000 600" stroke="#000" stroke-width="0.3" fill="#ccc">
<path d="M564.764,215.756L564.762,215.758L564.758,215.765L564.756,215.773L564.756,215.776L564.757,215.78L564.758,215.783L564.759,215.785L564.761,215.789L564.764,215.791L564.766,215.795L564.772,215.8L564.775,215.804L564.777,215.807L564.777,215.811L564.777,215.817L564.776,215.819L564.775,215.823L564.772,215.826L564.767,215.831L564.765,215.833L564.763,215.833L564.76,215.832L564.758,215.83L564.757,215.828L564.754,215.823L564.75,215.819L564.747,215.817L564.744,215.816L564.741,215.816L564.739,215.816L564.735,215.818L564.732,215.819L564.729,215.821L564.724,215.822L564.721,215.822L564.718,215.821L564.716,215.82L564.712,215.816L564.71,215.814L564.708,215.811L564.705,215.809L564.702,215.807L564.702,215.806L564.699,215.805L564.696,215.806L564.693,215.807L564.691,215.809L564.689,215.812L564.689,215.827L564.688,215.832L564.687,215.836L564.686,215.839L564.685,215.842L564.682,215.845L564.68,215.845L564.677,215.845L564.671,215.843L564.665,215.839L564.659,215.835L564.651,215.83L564.643,215.824L564.637,215.817L564.635,215.813L564.632,215.807L564.631,215.807L564.63,215.806L564.625,215.797L564.623,215.793L564.622,215.789L564.621,215.783L564.62,215.777L564.619,215.774L564.617,215.77L564.614,215.768L564.61,215.765L564.605,215.762L564.598,215.761L564.594,215.757L564.592,215.752L564.592,215.748L564.593,215.743L564.598,215.735L564.602,215.731L564.61,215.724L564.615,215.72L564.616,215.715L564.617,215.711L564.617,215.708L564.616,215.705L564.613,215.701L564.607,215.697L564.603,215.694L564.6,215.693L564.597,215.693L564.591,215.693L564.583,215.693L564.58,215.695L564.577,215.699L564.574,215.702L564.571,215.705L564.568,215.709L564.565,215.715L564.564,215.721L564.562,215.724L564.559,215.728L564.555,215.733L564.551,215.736L564.546,215.739L564.542,215.74L564.539,215.74L564.536,215.739L564.534,215.737L564.532,215.734L564.531,215.725L564.531,215.717L564.531,215.707L564.53,215.704L564.526,215.695L564.522,215.691L564.516,215.686L564.513,215.683L564.509,215.681L564.505,215.679L564.499,215.679L564.497,215.683L564.489,215.683L564.489,215.684L564.488,215.692L564.486,215.694L564.483,215.694L564.482,215.743L564.477,215.743L564.474,215.834L564.474,215.856L564.473,215.949L564.535,215.951L564.538,215.952L564.542,215.952L564.562,215.953L564.578,215.954L564.59,215.954L564.592,215.955L564.592,215.955L564.592,215.956L564.592,215.957L564.594,215.958L564.595,215.957L564.596,215.957L564.595,215.956L564.594,215.955L564.594,215.953L564.594,215.952L564.592,215.952L564.59,215.952L564.59,215.95L564.591,215.949L564.593,215.949L564.594,215.95L564.596,215.948L564.596,215.947L564.596,215.946L564.595,215.945L564.595,215.944L564.597,215.944L564.598,215.942L564.597,215.941L564.599,215.94L564.601,215.941L564.601,215.943L564.603,215.943L564.603,215.941L564.604,215.941L564.605,215.941L564.607,215.941L564.61,215.938L564.611,215.937L564.616,215.934L564.619,215.932L564.621,215.931L564.621,215.93L564.623,215.93L564.624,215.929L564.625,215.929L564.626,215.928L564.627,215.925L564.627,215.923L564.625,215.921L564.625,215.92L564.627,215.919L564.629,215.917L564.629,215.915L564.635,215.913L564.636,215.911L564.637,215.913L564.638,215.913L564.64,215.914L564.642,215.914L564.643,215.915L564.645,215.917L564.646,215.919L564.646,215.923L564.644,215.927L564.644,215.931L564.646,215.935L564.646,215.937L564.643,215.94L564.64,215.941L564.638,215.944L564.638,215.944L564.638,215.945L564.637,215.947L564.638,215.95L564.638,215.951L564.639,215.953L564.639,215.957L564.639,215.96L564.64,215.963L564.642,215.965L564.644,215.967L564.647,215.969L564.649,215.97L564.652,215.97L564.656,215.97L564.657,215.97L564.659,215.97L564.662,215.971L564.672,215.976L564.676,215.978L564.678,215.979L564.681,215.978L564.683,215.977L564.683,215.975L564.684,215.972L564.685,215.971L564.685,215.97L564.686,215.969L564.687,215.968L564.689,215.967L564.691,215.967L564.693,215.967L564.694,215.968L564.697,215.97L564.699,215.973L564.701,215.975L564.704,215.977L564.705,215.978L564.706,215.98L564.707,215.981L564.708,215.982L564.713,215.982L564.714,215.983L564.715,215.984L564.715,215.985L564.715,215.988L564.715,215.99L564.716,215.992L564.718,215.993L564.72,215.994L564.722,215.994L564.724,215.994L564.725,215.995L564.724,215.998L564.724,216.001L564.725,216.006L564.727,216.008L564.729,216.01L564.732,216.01L564.739,216.01L564.741,216.011L564.742,216.013L564.743,216.016L564.744,216.018L564.744,216.02L564.743,216.021L564.741,216.025L564.74,216.026L564.739,216.028L564.74,216.03L564.741,216.031L564.742,216.032L564.744,216.032L564.746,216.031L564.75,216.031L564.751,216.031L564.753,216.032L564.754,216.032L564.754,216.033L564.755,216.034L564.755,216.035L564.754,216.037L564.752,216.04L564.75,216.041L564.75,216.043L564.75,216.046L564.751,216.048L564.754,216.051L564.756,216.052L564.758,216.053L564.76,216.052L564.763,216.052L564.766,216.052L564.767,216.053L564.768,216.054L564.769,216.057L564.769,216.059L564.77,216.062L564.77,216.063L564.77,216.066L564.77,216.069L564.77,216.071L564.77,216.073L564.77,216.074L564.769,216.076L564.767,216.076L564.766,216.076L564.764,216.076L564.762,216.075L564.761,216.075L564.761,216.075L564.759,216.077L564.758,216.077L564.758,216.078L564.758,216.079L564.758,216.082L564.757,216.083L564.758,216.084L564.758,216.085L564.759,216.084L564.763,216.086L564.766,216.086L564.768,216.087L564.768,216.086L564.768,216.086L564.771,216.087L564.779,216.089L564.793,216.094L564.793,216.093L564.798,216.095L564.803,216.097L564.805,216.097L564.818,216.101L564.818,216.102L564.826,216.104L564.834,216.108L564.844,216.112L564.865,216.12L564.87,216.124L564.883,216.129L564.904,216.139L564.913,216.144L564.921,216.149L564.928,216.153L564.934,216.158L564.946,216.165L564.956,216.165L564.965,216.168L564.977,216.176L564.978,216.197L564.98,216.202L565.009,216.204L565.038,216.209L565.044,216.211L565.062,216.219L565.07,216.222L565.079,216.227L565.112,216.245L565.126,216.251L565.137,216.248L565.142,216.248L565.144,216.249L565.145,216.248L565.149,216.251L565.15,216.255L565.151,216.261L565.151,216.265L565.186,216.247L565.243,216.221L565.255,216.221L565.261,216.222L565.275,216.226L565.281,216.228L565.297,216.231L565.31,216.233L565.343,216.241L565.352,216.243L565.36,216.246L565.374,216.246L565.375,216.247L565.375,216.247L565.376,216.247L565.385,216.249L565.397,216.252L565.398,216.251L565.399,216.251L565.402,216.251L565.414,216.258L565.422,216.254L565.424,216.253L565.425,216.252L565.426,216.25L565.427,216.247L565.446,216.246L565.448,216.246L565.479,216.246L565.487,216.246L565.493,216.246L565.501,216.245L565.508,216.246L565.512,216.246L565.538,216.252L565.559,216.256L565.589,216.268L565.589,216.284L565.595,216.285L565.603,216.285L565.6,216.279L565.603,216.279L565.614,216.283L565.616,216.271L565.63,216.271L565.631,216.271L565.645,216.275L565.65,216.275L565.654,216.274L565.676,216.27L565.689,216.267L565.741,216.265L565.76,216.264L565.766,216.29L565.783,216.278L565.789,216.283L565.803,216.295L565.805,216.293L565.807,216.295L565.808,216.294L565.806,216.29L565.809,216.289L565.809,216.288L565.811,216.285L565.811,216.283L565.808,216.28L565.804,216.281L565.802,216.28L565.802,216.279L565.805,216.276L565.805,216.273L565.804,216.272L565.803,216.272L565.801,216.273L565.8,216.27L565.798,216.27L565.797,216.27L565.799,216.267L565.801,216.266L565.801,216.263L565.804,216.263L565.805,216.265L565.806,216.264L565.805,216.262L565.806,216.26L565.804,216.259L565.805,216.258L565.816,216.261L565.83,216.265L565.838,216.267L565.881,216.278L565.927,216.289L565.933,216.289L565.936,216.286L565.938,216.284L565.94,216.281L565.942,216.279L565.943,216.276L565.941,216.273L565.941,216.27L565.942,216.267L565.945,216.263L565.944,216.26L565.944,216.256L565.944,216.255L565.945,216.251L565.945,216.249L565.946,216.247L565.948,216.241L565.947,216.237L565.946,216.235L565.944,216.234L565.941,216.234L565.936,216.23L565.935,216.228L565.933,216.229L565.933,216.227L565.932,216.227L565.932,216.226L565.931,216.225L565.932,216.224L565.932,216.223L565.93,216.222L565.929,216.221L565.93,216.22L565.949,216.214L565.957,216.211L565.96,216.21L565.99,216.201L565.991,216.2L565.991,216.199L565.993,216.199L565.995,216.198L565.996,216.197L565.997,216.196L565.999,216.195L566.001,216.193L566.003,216.193L566.004,216.192L566.005,216.192L566.006,216.195L566.013,216.197L566.014,216.196L566.013,216.193L566.013,216.192L566.012,216.19L566.011,216.19L566.011,216.187L566.012,216.186L566.012,216.184L566.015,216.181L566.019,216.181L566.02,216.18L566.022,216.179L566.024,216.177L566.024,216.176L566.026,216.173L566.028,216.172L566.029,216.171L566.028,216.17L566.028,216.168L566.029,216.167L566.031,216.164L566.034,216.164L566.036,216.162L566.039,216.161L566.044,216.159L566.053,216.156L566.053,216.156L566.061,216.154L566.07,216.151L566.07,216.151L566.069,216.149L566.069,216.148L566.072,216.148L566.075,216.147L566.075,216.145L566.073,216.145L566.07,216.143L566.069,216.141L566.073,216.138L566.074,216.14L566.077,216.14L566.078,216.139L566.08,216.137L566.082,216.137L566.082,216.14L566.082,216.143L566.085,216.144L566.087,216.143L566.088,216.139L566.087,216.136L566.087,216.134L566.088,216.131L566.087,216.13L566.084,216.13L566.078,216.132L566.077,216.132L566.074,216.13L566.07,216.13L566.07,216.127L566.068,216.124L566.064,216.123L566.062,216.121L566.062,216.12L566.064,216.119L566.064,216.117L566.063,216.116L566.063,216.114L566.065,216.112L566.066,216.109L566.068,216.108L566.072,216.105L566.075,216.105L566.076,216.103L566.076,216.099L566.074,216.095L566.072,216.086L566.07,216.083L566.068,216.081L566.067,216.08L566.064,216.08L566.061,216.083L566.06,216.084L566.058,216.083L566.058,216.08L566.057,216.079L566.055,216.08L566.05,216.081L566.047,216.081L566.044,216.08L566.045,216.078L566.047,216.077L566.051,216.077L566.051,216.075L566.048,216.071L566.047,216.071L566.047,216.074L566.046,216.075L566.044,216.075L566.04,216.073L566.04,216.071L566.042,216.069L566.043,216.068L566.044,216.066L566.043,216.065L566.041,216.063L566.036,216.062L566.03,216.058L566.027,216.057L566.027,216.056L566.03,216.053L566.03,216.051L566.029,216.049L566.027,216.048L566.025,216.049L566.024,216.053L566.023,216.054L566.015,216.049L566.01,216.049L566.009,216.049L566.008,216.047L566.006,216.045L566.003,216.045L566.001,216.046L565.998,216.046L565.996,216.044L565.996,216.041L565.997,216.039L566.001,216.039L566.001,216.037L565.998,216.034L565.996,216.034L565.995,216.035L565.993,216.035L565.993,216.033L565.992,216.032L565.991,216.03L565.988,216.028L565.988,216.028L565.986,216.027L565.986,216.024L565.989,216.021L565.99,216.017L565.99,216.016L565.987,216.016L565.983,216.014L565.98,216.014L565.976,216.016L565.974,216.015L565.975,216.01L565.974,216.008L565.971,216.006L565.971,216.006L565.97,216.006L565.968,216.005L565.966,216.006L565.966,216.008L565.965,216.011L565.967,216.015L565.967,216.017L565.966,216.018L565.96,216.015L565.955,216.01L565.955,216.007L565.959,216.003L565.959,215.999L565.956,215.997L565.956,215.996L565.962,215.99L565.961,215.986L565.963,215.983L565.963,215.98L565.96,215.978L565.958,215.973L565.956,215.971L565.954,215.974L565.954,215.974L565.953,215.978L565.954,215.98L565.954,215.984L565.953,215.986L565.95,215.991L565.948,215.991L565.948,215.991L565.944,215.99L565.942,215.985L565.941,215.985L565.939,215.982L565.936,215.981L565.936,215.981L565.933,215.978L565.934,215.976L565.938,215.972L565.942,215.972L565.942,215.971L565.942,215.969L565.941,215.968L565.939,215.967L565.937,215.967L565.937,215.967L565.933,215.966L565.93,215.966L565.929,215.965L565.926,215.966L565.922,215.966L565.921,215.966L565.919,215.965L565.919,215.963L565.919,215.959L565.914,215.953L565.914,215.951L565.913,215.948L565.91,215.947L565.906,215.945L565.902,215.941L565.9,215.94L565.899,215.94L565.898,215.94L565.895,215.939L565.894,215.935L565.892,215.924L565.883,215.925L565.881,215.926L565.874,215.926L565.872,215.925L565.871,215.921L565.869,215.918L565.867,215.916L565.864,215.916L565.863,215.912L565.861,215.911L565.855,215.911L565.855,215.912L565.851,215.914L565.849,215.914L565.847,215.911L565.843,215.911L565.841,215.91L565.841,215.91L565.841,215.909L565.841,215.909L565.842,215.907L565.842,215.907L565.845,215.906L565.85,215.903L565.853,215.903L565.853,215.9L565.851,215.9L565.849,215.898L565.849,215.897L565.849,215.895L565.853,215.89L565.854,215.891L565.855,215.892L565.858,215.89L565.86,215.889L565.86,215.889L565.862,215.89L565.863,215.889L565.863,215.886L565.864,215.885L565.866,215.886L565.869,215.885L565.87,215.885L565.871,215.882L565.871,215.88L565.87,215.878L565.868,215.877L565.866,215.877L565.863,215.876L565.859,215.876L565.855,215.876L565.853,215.875L565.852,215.874L565.853,215.873L565.854,215.873L565.855,215.872L565.859,215.874L565.86,215.874L565.863,215.874L565.865,215.872L565.867,215.869L565.867,215.868L565.866,215.866L565.865,215.865L565.862,215.864L565.855,215.863L565.851,215.864L565.849,215.865L565.849,215.866L565.847,215.87L565.846,215.872L565.846,215.873L565.844,215.873L565.843,215.873L565.841,215.873L565.84,215.876L565.84,215.877L565.84,215.878L565.842,215.88L565.844,215.881L565.844,215.883L565.844,215.883L565.844,215.884L565.843,215.884L565.841,215.884L565.839,215.882L565.838,215.881L565.837,215.882L565.836,215.882L565.835,215.885L565.833,215.887L565.831,215.888L565.829,215.889L565.824,215.893L565.822,215.891L565.818,215.887L565.816,215.886L565.812,215.881L565.813,215.879L565.815,215.877L565.818,215.878L565.819,215.878L565.819,215.872L565.818,215.87L565.818,215.869L565.817,215.868L565.816,215.868L565.811,215.861L565.81,215.858L565.808,215.857L565.807,215.859L565.807,215.86L565.807,215.863L565.805,215.865L565.801,215.867L565.797,215.867L565.795,215.865L565.793,215.864L565.792,215.864L565.79,215.86L565.789,215.856L565.791,215.855L565.794,215.856L565.795,215.854L565.794,215.852L565.789,215.851L565.785,215.85L565.784,215.847L565.786,215.845L565.789,215.846L565.791,215.846L565.793,215.845L565.794,215.841L565.794,215.837L565.793,215.835L565.79,215.835L565.79,215.833L565.79,215.83L565.79,215.826L565.789,215.812L565.788,215.799L565.787,215.766L565.785,215.751L565.8,215.75L565.802,215.755L565.808,215.758L565.812,215.759L565.814,215.757L565.814,215.754L565.812,215.75L565.812,215.746L565.814,215.739L565.818,215.73L565.823,215.729L565.826,215.73L565.827,215.732L565.824,215.737L565.824,215.739L565.825,215.741L565.832,215.741L565.836,215.742L565.839,215.747L565.843,215.749L565.848,215.749L565.852,215.747L565.854,215.745L565.855,215.742L565.853,215.739L565.848,215.738L565.844,215.736L565.843,215.732L565.844,215.729L565.847,215.727L565.851,215.728L565.856,215.731L565.86,215.734L565.864,215.734L565.867,215.731L565.866,215.728L565.863,215.727L565.858,215.724L565.856,215.72L565.858,215.717L565.86,215.716L565.863,215.717L565.869,215.721L565.873,215.722L565.877,215.719L565.876,215.715L565.872,215.711L565.872,215.706L565.901,215.705L565.907,215.705L565.907,215.708L565.904,215.712L565.897,215.713L565.895,215.711L565.891,215.71L565.887,215.713L565.885,215.718L565.883,215.726L565.883,215.733L565.886,215.736L565.891,215.737L565.895,215.733L565.9,215.729L565.902,215.733L565.906,215.735L565.912,215.734L565.916,215.731L565.916,215.729L565.917,215.726L565.92,215.723L565.924,215.725L565.925,215.729L565.923,215.731L565.917,215.734L565.918,215.738L565.922,215.74L565.921,215.742L565.915,215.749L565.911,215.75L565.91,215.752L565.909,215.753L565.909,215.756L565.911,215.757L565.916,215.756L565.92,215.758L565.928,215.765L565.931,215.762L565.93,215.76L565.931,215.756L565.93,215.751L565.929,215.748L565.928,215.742L565.931,215.74L565.934,215.742L565.935,215.747L565.935,215.753L565.934,215.756L565.937,215.758L565.948,215.757L565.953,215.75L565.953,215.745L565.95,215.737L565.946,215.735L565.944,215.733L565.943,215.727L565.943,215.724L565.945,215.722L565.947,215.721L565.95,215.72L565.953,215.721L565.955,215.724L565.962,215.726L565.965,215.726L565.968,215.724L565.968,215.72L565.966,215.715L565.966,215.709L565.968,215.707L565.972,215.705L565.976,215.706L565.979,215.708L565.98,215.713L565.98,215.717L565.978,215.72L565.972,215.722L565.97,215.723L565.97,215.724L565.976,215.725L565.981,215.729L565.989,215.73L565.994,215.732L566,215.729L566.005,215.723L566.008,215.723L566.009,215.725L566.01,215.729L566.013,215.735L566.019,215.732L566.026,215.728L566.026,215.723L566.027,215.723L566.031,215.724L566.035,215.719L566.037,215.719L566.046,215.727L566.05,215.728L566.053,215.731L566.055,215.735L566.06,215.738L566.068,215.741L566.076,215.75L566.085,215.753L566.087,215.756L566.088,215.76L566.088,215.764L566.089,215.771L566.088,215.776L566.085,215.78L566.081,215.783L566.077,215.783L566.071,215.782L566.068,215.782L566.065,215.785L566.064,215.788L566.061,215.79L566.059,215.794L566.062,215.797L566.067,215.798L566.071,215.799L566.073,215.799L566.077,215.795L566.082,215.792L566.089,215.792L566.092,215.795L566.095,215.797L566.095,215.801L566.093,215.804L566.082,215.803L566.078,215.8L566.074,215.801L566.073,215.805L566.075,215.808L566.075,215.812L566.073,215.815L566.069,215.816L566.067,215.818L566.069,215.822L566.074,215.824L566.069,215.828L566.055,215.838L566.05,215.843L566.046,215.846L566.043,215.847L565.998,215.875L565.998,215.876L565.998,215.876L566.012,215.897L566.019,215.907L566.033,215.929L566.086,215.892L566.074,215.875L566.103,215.856L566.111,215.851L566.112,215.854L566.115,215.856L566.117,215.856L566.122,215.853L566.126,215.851L566.129,215.85L566.131,215.853L566.131,215.859L566.129,215.863L566.129,215.871L566.126,215.874L566.121,215.876L566.119,215.878L566.119,215.882L566.122,215.885L566.124,215.886L566.126,215.885L566.128,215.884L566.129,215.882L566.135,215.878L566.141,215.878L566.146,215.874L566.147,215.874L566.149,215.876L566.152,215.879L566.152,215.881L566.152,215.885L566.151,215.887L566.149,215.889L566.144,215.89L566.142,215.891L566.14,215.891L566.138,215.892L566.137,215.894L566.134,215.894L566.132,215.895L566.131,215.898L566.131,215.901L566.131,215.901L566.133,215.903L566.136,215.903L566.139,215.9L566.145,215.9L566.149,215.901L566.154,215.904L566.157,215.906L566.16,215.909L566.16,215.912L566.159,215.913L566.157,215.913L566.154,215.915L566.152,215.915L566.149,215.915L566.149,215.919L566.149,215.921L566.148,215.923L566.147,215.924L566.145,215.923L566.142,215.921L566.138,215.92L566.136,215.921L566.136,215.922L566.14,215.93L566.142,215.934L566.144,215.934L566.147,215.933L566.147,215.931L566.148,215.93L566.15,215.93L566.153,215.932L566.153,215.933L566.152,215.935L566.151,215.937L566.152,215.938L566.153,215.94L566.152,215.941L566.15,215.94L566.148,215.941L566.147,215.943L566.148,215.946L566.152,215.948L566.154,215.95L566.157,215.948L566.159,215.947L566.159,215.945L566.16,215.944L566.162,215.944L566.164,215.946L566.163,215.947L566.161,215.947L566.16,215.949L566.178,215.942L566.186,215.939L566.191,215.937L566.213,215.928L566.29,215.897L566.273,215.858L566.322,215.838L566.352,215.826L566.371,215.818L566.416,215.8L566.417,215.804L566.42,215.803L566.427,215.8L566.434,215.797L566.435,215.788L566.475,215.781L566.485,215.834L566.506,215.83L566.518,215.891L566.538,215.993L566.541,216.007L566.558,216.003L566.57,216L566.606,216.088L566.594,216.093L566.581,216.099L566.566,216.105L566.557,216.109L566.596,216.206L566.626,216.194L566.642,216.234L566.62,216.243L566.592,216.254L566.585,216.234L566.565,216.242L566.581,216.281L566.576,216.283L566.582,216.298L566.587,216.296L566.587,216.299L566.596,216.321L566.636,216.305L566.651,216.343L566.657,216.341L566.664,216.357L566.672,216.379L566.681,216.4L566.69,216.406L566.699,216.417L566.706,216.423L566.715,216.43L566.688,216.458L566.676,216.469L566.671,216.474L566.666,216.479L566.646,216.499L566.616,216.47L566.601,216.485L566.571,216.455L566.568,216.458L566.555,216.472L566.551,216.476L566.541,216.485L566.533,216.494L566.522,216.505L566.517,216.51L566.518,216.511L566.518,216.512L566.52,216.516L566.521,216.521L566.52,216.524L566.517,216.528L566.515,216.532L566.515,216.533L566.514,216.536L566.513,216.539L566.514,216.542L566.515,216.543L566.516,216.544L566.517,216.544L566.518,216.543L566.519,216.542L566.52,216.54L566.52,216.539L566.521,216.537L566.522,216.537L566.523,216.537L566.524,216.537L566.524,216.537L566.526,216.538L566.528,216.54L566.53,216.543L566.53,216.545L566.53,216.547L566.529,216.549L566.528,216.555L566.526,216.561L566.526,216.562L566.527,216.565L566.527,216.565L566.528,216.566L566.53,216.567L566.531,216.566L566.532,216.565L566.532,216.564L566.534,216.562L566.536,216.56L566.537,216.56L566.539,216.559L566.542,216.56L566.544,216.561L566.546,216.565L566.546,216.57L566.543,216.577L566.538,216.581L566.525,216.599L566.521,216.596L566.494,216.63L566.507,216.64L566.512,216.644L566.515,216.646L566.517,216.647L566.527,216.655L566.507,216.677L566.534,216.713L566.519,216.725L566.519,216.726L566.52,216.727L566.519,216.728L566.519,216.728L566.518,216.73L566.519,216.73L566.52,216.731L566.519,216.731L566.521,216.734L566.521,216.735L566.521,216.736L566.521,216.737L566.522,216.738L566.523,216.74L566.523,216.743L566.524,216.744L566.523,216.746L566.524,216.747L566.524,216.75L566.524,216.751L566.524,216.752L566.525,216.755L566.526,216.755L566.54,216.749L566.551,216.76L566.555,216.768L566.553,216.775L566.551,216.784L566.55,216.79L566.549,216.797L566.494,216.798L566.49,216.798L566.486,216.798L566.473,216.798L566.472,216.795L566.467,216.795L566.457,216.795L566.456,216.809L566.456,216.821L566.454,216.879L566.475,216.88L566.474,216.898L566.474,216.9L566.472,216.942L566.47,217.022L566.47,217.032L566.468,217.077L566.468,217.095L566.467,217.117L566.466,217.165L566.461,217.169L566.454,217.167L566.453,217.167L566.451,217.168L566.448,217.177L566.448,217.179L566.443,217.195L566.441,217.196L566.438,217.205L566.438,217.209L566.438,217.226L566.449,217.235L566.465,217.25L566.437,217.294L566.431,217.308L566.415,217.342L566.412,217.341L566.407,217.351L566.41,217.351L566.42,217.361L566.427,217.367L566.435,217.375L566.436,217.374L566.437,217.376L566.438,217.378L566.441,217.381L566.45,217.386L566.45,217.385L566.45,217.382L566.451,217.38L566.453,217.379L566.455,217.378L566.457,217.377L566.458,217.375L566.461,217.372L566.462,217.368L566.464,217.366L566.472,217.362L566.492,217.355L566.512,217.356L566.537,217.388L566.553,217.386L566.555,217.382L566.559,217.382L566.559,217.382L566.568,217.38L566.574,217.363L566.577,217.362L566.582,217.362L566.586,217.363L566.588,217.362L566.6,217.362L566.603,217.363L566.611,217.37L566.616,217.378L566.624,217.385L566.625,217.387L566.624,217.389L566.624,217.392L566.624,217.394L566.629,217.413L566.62,217.423L566.619,217.428L566.611,217.46L566.613,217.479L566.614,217.49L566.617,217.491L566.619,217.492L566.62,217.494L566.624,217.495L566.624,217.496L566.624,217.498L566.623,217.499L566.624,217.502L566.623,217.505L566.623,217.508L566.623,217.515L566.622,217.523L566.624,217.529L566.623,217.532L566.624,217.534L566.629,217.534L566.63,217.536L566.632,217.539L566.634,217.543L566.65,217.565L566.653,217.565L566.657,217.56L566.666,217.557L566.669,217.556L566.672,217.557L566.676,217.555L566.678,217.553L566.684,217.552L566.699,217.55L566.711,217.55L566.72,217.55L566.733,217.548L566.738,217.545L566.743,217.545L566.748,217.547L566.749,217.547L566.751,217.546L566.757,217.546L566.768,217.548L566.77,217.548L566.775,217.552L566.78,217.564L566.781,217.565L566.784,217.566L566.786,217.568L566.787,217.572L566.794,217.58L566.796,217.582L566.795,217.587L566.799,217.589L566.804,217.591L566.811,217.594L566.817,217.596L566.823,217.599L566.815,217.604L566.807,217.623L566.799,217.628L566.794,217.638L566.795,217.638L566.799,217.639L566.801,217.658L566.8,217.658L566.793,217.673L566.793,217.678L566.795,217.684L566.796,217.699L566.793,217.711L566.795,217.714L566.796,217.714L566.798,217.714L566.799,217.714L566.799,217.715L566.8,217.719L566.799,217.72L566.798,217.723L566.8,217.726L566.804,217.731L566.813,217.757L566.811,217.758L566.808,217.762L566.803,217.763L566.799,217.765L566.796,217.767L566.795,217.769L566.792,217.771L566.79,217.772L566.789,217.775L566.787,217.778L566.787,217.782L566.788,217.786L566.788,217.788L566.789,217.791L566.788,217.793L566.784,217.797L566.784,217.798L566.786,217.801L566.786,217.802L566.786,217.802L566.789,217.805L566.793,217.81L566.794,217.812L566.794,217.814L566.793,217.817L566.79,217.821L566.79,217.822L566.788,217.824L566.785,217.828L566.785,217.83L566.784,217.832L566.783,217.834L566.781,217.834L566.782,217.835L566.784,217.836L566.785,217.837L566.79,217.84L566.793,217.842L566.796,217.842L566.797,217.844L566.798,217.844L566.8,217.845L566.801,217.847L566.8,217.849L566.801,217.85L566.804,217.85L566.806,217.849L566.81,217.848L566.812,217.849L566.813,217.851L566.813,217.853L566.811,217.853L566.811,217.854L566.81,217.855L566.81,217.857L566.811,217.858L566.811,217.859L566.812,217.86L566.815,217.858L566.816,217.859L566.816,217.86L566.82,217.864L566.821,217.865L566.821,217.867L566.822,217.868L566.822,217.871L566.821,217.875L566.82,217.876L566.82,217.877L566.819,217.878L566.819,217.879L566.817,217.88L566.814,217.882L566.812,217.883L566.812,217.885L566.811,217.885L566.809,217.885L566.81,217.883L566.81,217.881L566.809,217.879L566.808,217.879L566.808,217.879L566.807,217.879L566.805,217.88L566.803,217.881L566.801,217.882L566.8,217.881L566.799,217.882L566.798,217.881L566.798,217.882L566.798,217.883L566.796,217.889L566.792,217.888L566.792,217.889L566.791,217.889L566.789,217.886L566.789,217.885L566.786,217.884L566.785,217.884L566.783,217.882L566.78,217.878L566.779,217.876L566.778,217.876L566.777,217.877L566.777,217.878L566.775,217.877L566.775,217.876L566.774,217.875L566.772,217.874L566.771,217.872L566.77,217.87L566.769,217.87L566.769,217.869L566.769,217.868L566.77,217.867L566.768,217.865L566.767,217.866L566.765,217.862L566.763,217.857L566.762,217.853L566.761,217.853L566.76,217.854L566.758,217.855L566.756,217.858L566.755,217.86L566.752,217.863L566.75,217.865L566.749,217.867L566.748,217.868L566.746,217.869L566.745,217.87L566.743,217.872L566.741,217.875L566.74,217.876L566.737,217.877L566.734,217.88L566.732,217.882L566.731,217.883L566.73,217.886L566.728,217.887L566.727,217.89L566.723,217.893L566.723,217.894L566.721,217.897L566.719,217.901L566.718,217.903L566.718,217.904L566.716,217.905L566.714,217.905L566.711,217.908L566.708,217.911L566.704,217.915L566.702,217.918L566.699,217.922L566.699,217.922L566.697,217.923L566.694,217.925L566.694,217.929L566.694,217.933L566.695,217.935L566.695,217.939L566.695,217.941L566.695,217.943L566.694,217.945L566.695,217.95L566.697,217.95L566.698,217.952L566.699,217.953L566.699,217.954L566.698,217.955L566.695,217.957L566.696,217.957L566.695,217.96L566.696,217.962L566.696,217.968L566.69,217.974L566.685,217.976L566.684,217.974L566.681,217.977L566.678,217.982L566.672,217.985L566.665,217.989L566.656,217.995L566.652,217.996L566.65,217.996L566.646,217.995L566.643,217.993L566.639,217.99L566.637,217.988L566.634,217.988L566.633,217.987L566.636,217.982L566.632,217.976L566.629,217.978L566.628,217.973L566.623,217.973L566.621,217.975L566.618,217.973L566.616,217.971L566.614,217.968L566.612,217.968L566.61,217.964L566.609,217.96L566.612,217.954L566.615,217.95L566.618,217.951L566.618,217.945L566.616,217.945L566.615,217.94L566.611,217.932L566.608,217.929L566.606,217.93L566.607,217.932L566.605,217.935L566.595,217.937L566.591,217.938L566.584,217.941L566.577,217.938L566.572,217.935L566.565,217.931L566.559,217.928L566.555,217.919L566.55,217.913L566.543,217.907L566.535,217.9L566.526,217.896L566.521,217.893L566.516,217.892L566.512,217.891L566.505,217.888L566.502,217.887L566.5,217.886L566.494,217.884L566.492,217.882L566.488,217.874L566.484,217.866L566.479,217.847L566.476,217.841L566.472,217.836L566.463,217.828L566.464,217.823L566.465,217.819L566.466,217.817L566.467,217.815L566.468,217.812L566.467,217.807L566.467,217.804L566.466,217.802L566.462,217.799L566.461,217.796L566.459,217.794L566.461,217.79L566.462,217.788L566.462,217.784L566.462,217.781L566.46,217.777L566.458,217.772L566.454,217.768L566.452,217.764L566.448,217.757L566.442,217.746L566.425,217.746L566.408,217.748L566.389,217.751L566.376,217.752L566.37,217.753L566.362,217.753L566.346,217.752L566.281,217.743L566.281,217.759L566.282,217.761L566.292,217.773L566.294,217.774L566.294,217.776L566.294,217.778L566.289,217.782L566.288,217.783L566.283,217.784L566.28,217.786L566.277,217.789L566.274,217.793L566.275,217.798L566.274,217.811L566.27,217.827L566.279,217.839L566.28,217.844L566.287,217.85L566.29,217.854L566.291,217.864L566.293,217.869L566.294,217.871L566.294,217.872L566.297,217.873L566.307,217.874L566.316,217.875L566.323,217.877L566.332,217.884L566.335,217.888L566.342,217.9L566.345,217.907L566.351,217.919L566.355,217.931L566.359,217.94L566.377,217.967L566.382,217.975L566.384,217.981L566.385,217.989L566.385,217.996L566.382,218.009L566.381,218.016L566.381,218.02L566.37,218.035L566.365,218.042L566.36,218.049L566.357,218.054L566.348,218.072L566.342,218.085L566.336,218.101L566.335,218.104L566.333,218.112L566.331,218.12L566.328,218.131L566.328,218.137L566.331,218.144L566.332,218.148L566.331,218.153L566.328,218.169L566.328,218.176L566.328,218.178L566.329,218.18L566.333,218.183L566.339,218.19L566.351,218.2L566.354,218.202L566.358,218.203L566.36,218.203L566.363,218.204L566.365,218.21L566.361,218.215L566.345,218.226L566.329,218.236L566.311,218.248L566.296,218.26L566.303,218.267L566.314,218.273L566.318,218.277L566.321,218.287L566.323,218.291L566.326,218.295L566.329,218.297L566.331,218.304L566.336,218.31L566.341,218.314L566.343,218.322L566.346,218.326L566.352,218.328L566.36,218.329L566.367,218.33L566.374,218.332L566.381,218.336L566.384,218.336L566.389,218.34L566.393,218.34L566.395,218.342L566.399,218.343L566.407,218.347L566.411,218.348L566.419,218.347L566.419,218.347L566.432,218.341L566.44,218.338L566.445,218.333L566.45,218.331L566.453,218.332L566.457,218.334L566.461,218.333L566.466,218.331L566.468,218.329L566.469,218.327L566.473,218.322L566.476,218.323L566.477,218.323L566.477,218.324L566.478,218.325L566.479,218.325L566.48,218.325L566.521,218.312L566.505,218.279L566.509,218.257L566.515,218.232L566.538,218.235L566.54,218.239L566.542,218.24L566.543,218.241L566.544,218.242L566.545,218.243L566.545,218.246L566.545,218.247L566.544,218.248L566.544,218.249L566.544,218.25L566.543,218.251L566.543,218.253L566.542,218.254L566.543,218.256L566.544,218.257L566.545,218.259L566.547,218.261L566.548,218.262L566.551,218.265L566.552,218.266L566.553,218.266L566.554,218.267L566.556,218.267L566.559,218.268L566.563,218.268L566.567,218.269L566.569,218.272L566.57,218.273L566.572,218.279L566.573,218.284L566.573,218.288L566.572,218.29L566.571,218.291L566.571,218.292L566.573,218.293L566.573,218.294L566.574,218.296L566.575,218.297L566.576,218.298L566.576,218.299L566.578,218.301L566.581,218.304L566.582,218.307L566.584,218.312L566.584,218.315L566.585,218.318L566.587,218.318L566.588,218.32L566.588,218.323L566.588,218.324L566.588,218.325L566.589,218.326L566.591,218.329L566.593,218.331L566.596,218.333L566.597,218.334L566.598,218.338L566.6,218.339L566.602,218.342L566.604,218.344L566.61,218.348L566.611,218.349L566.612,218.353L566.613,218.355L566.616,218.357L566.619,218.358L566.625,218.367L566.628,218.368L566.629,218.37L566.629,218.372L566.63,218.374L566.631,218.375L566.633,218.376L566.635,218.377L566.637,218.379L566.638,218.38L566.64,218.381L566.644,218.384L566.645,218.385L566.647,218.386L566.65,218.385L566.651,218.385L566.652,218.386L566.652,218.387L566.652,218.388L566.652,218.39L566.655,218.391L566.655,218.391L566.656,218.393L566.658,218.394L566.659,218.395L566.66,218.396L566.662,218.398L566.665,218.4L566.666,218.402L566.668,218.404L566.669,218.404L566.67,218.405L566.671,218.406L566.672,218.408L566.672,218.41L566.672,218.413L566.673,218.414L566.674,218.416L566.676,218.418L566.676,218.419L566.676,218.421L566.677,218.421L566.678,218.421L566.679,218.42L566.681,218.42L566.681,218.421L566.682,218.425L566.683,218.427L566.684,218.428L566.686,218.43L566.686,218.432L566.687,218.434L566.689,218.436L566.689,218.437L566.687,218.438L566.687,218.439L566.689,218.439L566.691,218.439L566.693,218.439L566.695,218.44L566.697,218.441L566.7,218.442L566.703,218.444L566.705,218.447L566.706,218.448L566.707,218.448L566.709,218.448L566.71,218.45L566.712,218.45L566.716,218.449L566.719,218.449L566.721,218.448L566.723,218.447L566.726,218.447L566.727,218.447L566.73,218.448L566.732,218.447L566.734,218.447L566.736,218.447L566.737,218.447L566.739,218.448L566.74,218.449L566.742,218.453L566.747,218.456L566.749,218.456L566.754,218.46L566.756,218.46L566.757,218.461L566.759,218.463L566.759,218.465L566.762,218.467L566.764,218.467L566.766,218.471L566.769,218.473L566.772,218.474L566.773,218.476L566.776,218.478L566.78,218.478L566.782,218.48L566.783,218.482L566.782,218.488L566.785,218.49L566.788,218.494L566.789,218.496L566.789,218.498L566.791,218.5L566.793,218.505L566.797,218.508L566.799,218.509L566.8,218.51L566.801,218.513L566.802,218.514L566.802,218.515L566.805,218.515L566.807,218.516L566.808,218.518L566.81,218.519L566.812,218.521L566.813,218.528L566.816,218.528L566.819,218.53L566.822,218.53L566.825,218.528L566.827,218.525L566.83,218.522L566.832,218.52L566.832,218.517L566.83,218.513L566.83,218.511L566.83,218.509L566.831,218.508L566.836,218.504L566.837,218.502L566.836,218.499L566.837,218.497L566.84,218.493L566.841,218.491L566.84,218.489L566.842,218.488L566.842,218.484L566.841,218.48L566.842,218.48L566.844,218.48L566.845,218.48L566.846,218.479L566.847,218.478L566.85,218.478L566.851,218.477L566.854,218.477L566.859,218.48L566.866,218.483L566.874,218.485L566.879,218.486L566.886,218.488L566.887,218.488L566.889,218.488L566.891,218.49L566.894,218.491L566.896,218.491L566.897,218.491L566.898,218.494L566.899,218.495L566.901,218.495L566.903,218.495L566.905,218.497L566.907,218.498L566.909,218.499L566.912,218.5L566.914,218.5L566.916,218.501L566.918,218.501L566.921,218.501L566.924,218.497L566.926,218.497L566.931,218.494L566.932,218.492L566.934,218.49L566.934,218.487L566.935,218.485L566.935,218.482L566.936,218.481L566.936,218.48L566.937,218.479L566.94,218.478L566.941,218.476L566.942,218.475L566.944,218.475L566.946,218.473L566.947,218.471L566.947,218.469L566.949,218.469L566.951,218.47L566.953,218.469L566.955,218.469L566.956,218.469L566.957,218.468L566.959,218.468L566.96,218.467L566.961,218.467L566.965,218.468L566.967,218.467L566.971,218.465L566.973,218.464L566.974,218.464L566.975,218.464L566.977,218.464L566.979,218.465L566.98,218.465L566.982,218.466L566.983,218.467L566.985,218.47L566.985,218.472L566.987,218.476L566.989,218.477L566.991,218.478L566.995,218.494L566.995,218.498L566.993,218.5L566.992,218.502L566.991,218.503L566.989,218.505L566.988,218.507L566.987,218.508L566.985,218.509L566.985,218.512L566.984,218.515L566.984,218.517L566.984,218.519L566.984,218.52L566.983,218.522L566.983,218.525L566.982,218.526L566.981,218.528L566.981,218.529L566.982,218.53L566.982,218.532L566.987,218.536L566.988,218.538L566.988,218.539L566.989,218.541L566.99,218.542L566.993,218.545L566.994,218.546L566.994,218.546L566.994,218.548L566.995,218.55L566.997,218.551L566.999,218.554L567,218.555L566.999,218.557L567,218.559L567,218.562L567,218.564L567.001,218.566L567.002,218.568L567.002,218.57L567.001,218.573L566.999,218.576L567.001,218.58L567.002,218.581L567.002,218.582L567.004,218.583L567.005,218.584L567.005,218.587L567.006,218.587L567.008,218.587L567.008,218.587L567.011,218.589L567.014,218.591L567.013,218.598L567.013,218.601L567.013,218.604L567.012,218.61L567.011,218.612L567.011,218.616L567.012,218.623L567.011,218.623L567.011,218.626L567.01,218.628L567.009,218.631L567.01,218.634L567.012,218.637L567.013,218.638L567.015,218.64L567.017,218.641L567.017,218.643L567.018,218.644L567.019,218.647L567.023,218.65L567.024,218.652L567.024,218.655L567.023,218.658L567.025,218.66L567.025,218.661L567.025,218.664L567.026,218.666L567.028,218.668L567.028,218.67L567.028,218.671L567.028,218.673L567.027,218.675L567.026,218.675L567.027,218.677L567.027,218.678L567.028,218.679L567.029,218.681L567.028,218.683L567.032,218.684L567.036,218.684L567.037,218.684L567.04,218.687L567.041,218.687L567.042,218.687L567.044,218.687L567.048,218.687L567.051,218.689L567.052,218.69L567.053,218.691L567.055,218.691L567.056,218.694L567.061,218.699L567.062,218.704L567.067,218.711L567.07,218.712L567.072,218.711L567.073,218.711L567.074,218.711L567.078,218.717L567.081,218.72L567.082,218.722L567.085,218.723L567.087,218.723L567.089,218.723L567.09,218.723L567.093,218.723L567.097,218.725L567.099,218.725L567.103,218.726L567.106,218.724L567.11,218.723L567.112,218.723L567.115,218.723L567.119,218.723L567.123,218.725L567.124,218.726L567.126,218.726L567.129,218.722L567.134,218.72L567.14,218.717L567.146,218.712L567.149,218.707L567.152,218.706L567.153,218.705L567.154,218.704L567.155,218.704L567.157,218.702L567.159,218.701L567.159,218.697L567.16,218.695L567.161,218.694L567.163,218.69L567.164,218.686L567.164,218.683L567.166,218.681L567.171,218.678L567.172,218.677L567.177,218.675L567.179,218.675L567.181,218.675L567.183,218.675L567.187,218.675L567.192,218.676L567.195,218.676L567.197,218.676L567.199,218.676L567.201,218.679L567.202,218.682L567.203,218.683L567.206,218.686L567.208,218.686L567.213,218.687L567.219,218.689L567.223,218.692L567.226,218.694L567.23,218.693L567.233,218.695L567.235,218.695L567.237,218.695L567.237,218.695L567.238,218.695L567.239,218.696L567.24,218.696L567.242,218.696L567.245,218.698L567.246,218.699L567.248,218.698L567.252,218.698L567.253,218.697L567.254,218.697L567.261,218.694L567.267,218.694L567.268,218.695L567.27,218.695L567.273,218.696L567.276,218.696L567.279,218.693L567.281,218.69L567.286,218.687L567.288,218.68L567.289,218.679L567.288,218.664L567.289,218.659L567.289,218.655L567.294,218.65L567.297,218.64L567.301,218.635L567.303,218.63L567.304,218.625L567.301,218.611L567.3,218.588L567.305,218.584L567.308,218.58L567.312,218.579L567.321,218.573L567.323,218.57L567.322,218.562L567.323,218.559L567.324,218.556L567.324,218.553L567.327,218.543L567.327,218.537L567.335,218.508L567.34,218.503L567.338,218.493L567.34,218.489L567.34,218.485L567.346,218.476L567.359,218.467L567.362,218.458L567.362,218.453L567.367,218.449L567.367,218.444L567.361,218.438L567.358,218.434L567.354,218.432L567.349,218.43L567.349,218.427L567.338,218.414L567.339,218.406L567.338,218.4L567.338,218.398L567.34,218.389L567.34,218.388L567.338,218.384L567.339,218.377L567.341,218.372L567.344,218.365L567.344,218.353L567.346,218.337L567.347,218.323L567.349,218.314L567.355,218.306L567.366,218.304L567.373,218.304L567.379,218.304L567.4,218.297L567.409,218.296L567.417,218.291L567.422,218.282L567.421,218.273L567.421,218.272L567.424,218.271L567.425,218.269L567.426,218.269L567.432,218.269L567.438,218.267L567.443,218.269L567.452,218.27L567.461,218.267L567.462,218.261L567.462,218.257L567.467,218.254L567.467,218.25L567.466,218.248L567.463,218.246L567.454,218.243L567.453,218.238L567.452,218.231L567.448,218.22L567.449,218.212L567.447,218.205L567.441,218.192L567.438,218.186L567.438,218.185L567.434,218.181L567.431,218.178L567.429,218.174L567.428,218.172L567.429,218.17L567.428,218.165L567.425,218.163L567.422,218.161L567.419,218.159L567.418,218.158L567.417,218.156L567.417,218.154L567.416,218.146L567.415,218.141L567.413,218.133L567.41,218.129L567.408,218.126L567.406,218.122L567.403,218.119L567.401,218.115L567.399,218.111L567.398,218.102L567.397,218.099L567.394,218.096L567.391,218.093L567.388,218.09L567.386,218.087L567.386,218.086L567.386,218.082L567.386,218.078L567.386,218.075L567.386,218.073L567.385,218.069L567.385,218.065L567.385,218.061L567.385,218.056L567.384,218.052L567.381,218.049L567.378,218.046L567.375,218.043L567.372,218.04L567.369,218.037L567.366,218.034L567.362,218.031L567.36,218.028L567.357,218.025L567.356,218.024L567.358,218.021L567.36,218.018L567.362,218.014L567.362,218.013L567.364,218.01L567.366,218.007L567.365,218.004L567.366,218.003L567.368,218.002L567.369,217.999L567.369,217.995L567.37,217.992L567.369,217.988L567.373,217.97L567.374,217.959L567.377,217.95L567.377,217.948L567.376,217.925L567.378,217.923L567.379,217.92L567.381,217.914L567.388,217.907L567.382,217.907L567.379,217.898L567.373,217.89L567.37,217.885L567.367,217.881L567.364,217.876L567.36,217.872L567.356,217.87L567.343,217.864L567.343,217.846L567.346,217.837L567.35,217.825L567.349,217.824L567.344,217.824L567.343,217.822L567.338,217.819L567.339,217.815L567.336,217.811L567.336,217.808L567.333,217.802L567.334,217.797L567.338,217.797L567.343,217.791L567.344,217.786L567.343,217.784L567.339,217.779L567.338,217.774L567.335,217.768L567.331,217.761L567.331,217.757L567.328,217.751L567.325,217.744L567.327,217.728L567.313,217.699L567.283,217.631L567.272,217.608L567.271,217.606L567.27,217.605L567.27,217.604L567.266,217.599L567.296,217.576L567.303,217.572L567.307,217.569L567.316,217.562L567.325,217.554L567.331,217.549L567.338,217.544L567.359,217.529L567.364,217.526L567.366,217.524L567.374,217.519L567.382,217.516L567.393,217.515L567.398,217.514L567.401,217.511L567.404,217.509L567.406,217.503L567.412,217.495L567.414,217.494L567.419,217.487L567.423,217.475L567.424,217.462L567.432,217.456L567.434,217.455L567.435,217.455L567.444,217.453L567.45,217.452L567.452,217.452L567.454,217.449L567.472,217.439L567.446,217.378L567.438,217.363L567.427,217.322L567.426,217.316L567.425,217.313L567.419,217.291L567.418,217.284L567.404,217.238L567.392,217.192L567.358,217.19L567.353,217.188L567.354,217.187L567.358,217.188L567.359,217.184L567.358,217.182L567.358,217.18L567.357,217.177L567.354,217.174L567.353,217.172L567.353,217.171L567.355,217.169L567.354,217.167L567.352,217.167L567.352,217.165L567.349,217.164L567.35,217.162L567.347,217.159L567.348,217.157L567.35,217.155L567.348,217.154L567.351,217.152L567.35,217.15L567.345,217.149L567.345,217.148L567.347,217.147L567.348,217.146L567.346,217.145L567.343,217.146L567.344,217.143L567.345,217.142L567.343,217.141L567.339,217.14L567.342,217.137L567.347,217.135L567.349,217.133L567.348,217.13L567.346,217.128L567.346,217.122L567.343,217.118L567.339,217.118L567.338,217.116L567.34,217.114L567.341,217.112L567.339,217.111L567.337,217.112L567.335,217.113L567.333,217.11L567.334,217.107L567.333,217.105L567.328,217.105L567.328,217.103L567.33,217.102L567.333,217.102L567.334,217.1L567.331,217.098L567.329,217.098L567.328,217.095L567.328,217.093L567.329,217.091L567.327,217.09L567.325,217.089L567.326,217.086L567.323,217.084L567.323,217.082L567.321,217.08L567.322,217.077L567.319,217.075L567.314,217.075L567.315,217.069L567.319,217.064L567.318,217.062L567.316,217.062L567.315,217.063L567.312,217.06L567.31,217.06L567.307,217.063L567.306,217.062L567.306,217.057L567.307,217.055L567.31,217.054L567.31,217.052L567.308,217.052L567.306,217.05L567.307,217.049L567.309,217.049L567.31,217.046L567.315,217.046L567.316,217.046L567.316,217.043L567.317,217.042L567.321,217.044L567.321,217.037L567.325,217.037L567.33,217.037L567.331,217.034L567.329,217.03L567.329,217.027L567.332,217.024L567.335,217.022L567.338,217.021L567.337,217.019L567.335,217.017L567.338,217.012L567.338,217.01L567.34,217.008L567.344,217.008L567.346,217.003L567.35,217.003L567.35,217L567.347,216.998L567.345,216.999L567.345,216.996L567.349,216.994L567.351,216.994L567.353,216.996L567.355,216.994L567.354,216.991L567.354,216.988L567.358,216.985L567.359,216.989L567.362,216.987L567.363,216.985L567.362,216.981L567.364,216.981L567.365,216.982L567.367,216.982L567.367,216.979L567.369,216.978L567.372,216.98L567.374,216.976L567.373,216.974L567.371,216.975L567.369,216.977L567.367,216.974L567.363,216.975L567.363,216.971L567.362,216.967L567.363,216.965L567.364,216.962L567.362,216.961L567.362,216.96L567.365,216.957L567.366,216.954L567.363,216.952L567.36,216.953L567.355,216.946L567.351,216.944L567.352,216.94L567.351,216.934L567.355,216.933L567.357,216.929L567.358,216.927L567.355,216.925L567.35,216.928L567.346,216.929L567.342,216.928L567.338,216.927L567.334,216.929L567.332,216.931L567.328,216.932L567.312,216.894L567.249,216.896L567.249,216.873L567.237,216.873L567.238,216.861L567.236,216.851L567.228,216.85L567.228,216.837L567.234,216.838L567.236,216.822L567.238,216.819L567.239,216.815L567.257,216.781L567.247,216.767L567.253,216.753L567.253,216.749L567.252,216.748L567.253,216.744L567.251,216.742L567.251,216.74L567.248,216.74L567.247,216.736L567.248,216.734L567.248,216.731L567.245,216.731L567.245,216.73L567.244,216.729L567.241,216.73L567.239,216.728L567.239,216.723L567.238,216.721L567.237,216.719L567.236,216.717L567.235,216.714L567.234,216.711L567.233,216.706L567.233,216.701L567.236,216.7L567.236,216.691L567.235,216.689L567.236,216.687L567.235,216.685L567.238,216.68L567.237,216.674L567.238,216.673L567.238,216.669L567.245,216.661L567.248,216.662L567.251,216.659L567.263,216.67L567.271,216.677L567.292,216.69L567.294,216.692L567.296,216.692L567.298,216.69L567.3,216.688L567.301,216.687L567.303,216.685L567.304,216.684L567.306,216.682L567.307,216.681L567.307,216.681L567.309,216.68L567.31,216.677L567.312,216.675L567.313,216.674L567.313,216.674L567.311,216.674L567.311,216.673L567.313,216.673L567.313,216.672L567.313,216.671L567.312,216.67L567.312,216.668L567.312,216.667L567.311,216.666L567.311,216.665L567.311,216.664L567.311,216.663L567.313,216.663L567.314,216.662L567.315,216.662L567.316,216.663L567.318,216.663L567.319,216.663L567.32,216.662L567.32,216.661L567.32,216.661L567.321,216.662L567.322,216.662L567.322,216.661L567.323,216.66L567.324,216.66L567.324,216.66L567.324,216.659L567.325,216.659L567.326,216.659L567.327,216.659L567.327,216.657L567.328,216.656L567.328,216.656L567.327,216.655L567.328,216.655L567.328,216.654L567.328,216.653L567.327,216.651L567.327,216.65L567.327,216.649L567.327,216.649L567.327,216.648L567.328,216.648L567.328,216.648L567.328,216.647L567.329,216.647L567.329,216.646L567.33,216.646L567.33,216.646L567.33,216.646L567.331,216.646L567.331,216.647L567.331,216.647L567.332,216.647L567.333,216.647L567.334,216.647L567.334,216.647L567.335,216.646L567.335,216.647L567.335,216.646L567.335,216.646L567.336,216.646L567.336,216.646L567.336,216.646L567.336,216.645L567.336,216.643L567.336,216.643L567.336,216.643L567.334,216.643L567.333,216.642L567.333,216.642L567.333,216.642L567.334,216.641L567.334,216.641L567.336,216.64L567.336,216.64L567.336,216.64L567.336,216.639L567.336,216.638L567.336,216.638L567.336,216.637L567.335,216.636L567.336,216.635L567.335,216.635L567.335,216.635L567.335,216.635L567.335,216.635L567.335,216.635L567.334,216.635L567.334,216.635L567.334,216.635L567.334,216.635L567.333,216.636L567.332,216.637L567.332,216.637L567.331,216.637L567.332,216.636L567.332,216.635L567.332,216.635L567.331,216.635L567.33,216.635L567.33,216.635L567.33,216.635L567.329,216.635L567.329,216.634L567.33,216.633L567.331,216.633L567.331,216.632L567.331,216.632L567.331,216.632L567.331,216.629L567.331,216.629L567.331,216.628L567.332,216.627L567.332,216.626L567.332,216.625L567.331,216.625L567.332,216.621L567.335,216.619L567.336,216.617L567.335,216.615L567.335,216.614L567.337,216.613L567.339,216.611L567.341,216.61L567.341,216.608L567.34,216.603L567.338,216.601L567.336,216.603L567.335,216.602L567.332,216.6L567.331,216.597L567.329,216.597L567.326,216.598L567.322,216.598L567.323,216.6L567.324,216.601L567.326,216.6L567.327,216.6L567.327,216.603L567.325,216.606L567.321,216.608L567.32,216.605L567.317,216.604L567.317,216.602L567.318,216.599L567.314,216.591L567.313,216.592L567.313,216.594L567.309,216.596L567.305,216.596L567.303,216.595L567.306,216.591L567.306,216.59L567.307,216.588L567.307,216.586L567.303,216.585L567.3,216.585L567.294,216.585L567.295,216.581L567.295,216.577L567.292,216.575L567.292,216.573L567.29,216.572L567.289,216.569L567.288,216.569L567.284,216.569L567.283,216.571L567.279,216.567L567.277,216.566L567.278,216.564L567.279,216.561L567.276,216.558L567.277,216.555L567.28,216.557L567.281,216.555L567.281,216.553L567.282,216.552L567.284,216.551L567.284,216.547L567.284,216.545L567.283,216.545L567.278,216.549L567.275,216.548L567.274,216.547L567.277,216.546L567.278,216.543L567.279,216.539L567.282,216.534L567.286,216.533L567.289,216.531L567.288,216.528L567.285,216.526L567.28,216.525L567.278,216.522L567.279,216.515L567.279,216.513L567.281,216.506L567.281,216.504L567.28,216.502L567.28,216.501L567.282,216.5L567.289,216.499L567.311,216.499L567.34,216.499L567.34,216.47L567.343,216.458L567.36,216.457L567.383,216.457L567.383,216.415L567.383,216.394L567.443,216.394L567.444,216.394L567.446,216.394L567.45,216.394L567.497,216.396L567.546,216.393L567.541,216.41L567.535,216.417L567.533,216.426L567.533,216.427L567.532,216.429L567.533,216.432L567.532,216.437L567.531,216.443L567.531,216.444L567.532,216.444L567.536,216.443L567.542,216.44L567.554,216.437L567.607,216.437L567.61,216.442L567.61,216.442L567.608,216.443L567.609,216.444L567.609,216.445L567.612,216.445L567.613,216.446L567.613,216.448L567.614,216.449L567.614,216.458L567.614,216.5L567.614,216.523L567.614,216.619L567.614,216.638L567.614,216.647L567.698,216.649L567.697,216.691L567.73,216.691L567.74,216.691L567.74,216.713L567.739,216.811L567.747,216.825L567.761,216.853L567.778,216.886L567.784,216.901L567.781,216.916L567.78,216.918L567.772,216.931L567.765,216.937L567.768,216.964L567.77,217.012L567.769,217.049L567.761,217.049L567.7,217.048L567.697,217.06L567.697,217.064L567.699,217.085L567.699,217.09L567.715,217.09L567.727,217.092L567.735,217.091L567.751,217.091L567.805,217.091L567.841,217.092L567.915,217.091L567.96,217.09L567.961,217.087L567.959,217.082L567.961,217.079L567.961,217.074L567.96,217.071L567.959,217.068L567.96,217.065L567.963,217.062L567.959,217.059L567.958,217.055L567.957,217.054L567.96,217.046L567.959,217.044L567.957,217.042L567.953,217.038L567.948,217.04L567.945,217.04L567.942,217.035L567.938,217.036L567.937,217.034L567.936,217.031L567.931,217.028L567.929,217.022L567.927,217.011L567.926,217.009L567.923,217.007L567.919,216.997L567.915,216.994L567.914,216.991L567.916,216.984L567.914,216.98L567.915,216.977L567.911,216.969L567.905,216.963L567.904,216.96L567.905,216.958L567.908,216.956L567.909,216.952L567.91,216.95L567.909,216.948L567.906,216.949L567.902,216.945L567.895,216.941L567.893,216.939L567.894,216.936L567.894,216.934L567.89,216.931L567.89,216.927L567.89,216.924L567.887,216.917L567.891,216.912L567.889,216.908L567.888,216.903L567.886,216.899L567.884,216.895L567.883,216.893L567.885,216.89L567.885,216.886L567.881,216.882L567.879,216.878L567.874,216.874L567.874,216.869L567.873,216.867L567.874,216.865L567.877,216.865L567.878,216.863L567.876,216.857L567.873,216.853L567.876,216.851L567.881,216.85L567.881,216.847L567.879,216.843L567.88,216.84L567.881,216.837L567.883,216.835L567.885,216.832L567.882,216.828L567.882,216.823L567.882,216.821L567.883,216.819L567.884,216.816L567.885,216.813L567.884,216.81L567.884,216.806L567.885,216.804L567.886,216.802L567.886,216.801L567.886,216.8L567.886,216.799L567.886,216.798L567.886,216.796L567.886,216.792L567.886,216.79L567.884,216.787L567.884,216.785L567.886,216.781L567.886,216.78L567.887,216.779L567.889,216.777L567.889,216.774L567.889,216.773L567.89,216.771L567.891,216.77L567.892,216.77L567.892,216.769L567.891,216.767L567.89,216.766L567.89,216.763L567.89,216.761L567.89,216.759L567.889,216.757L567.889,216.755L567.886,216.754L567.885,216.752L567.883,216.75L567.882,216.748L567.881,216.747L567.88,216.745L567.88,216.744L567.88,216.743L567.879,216.742L567.879,216.741L567.878,216.74L567.878,216.74L567.876,216.738L567.876,216.737L567.875,216.735L567.874,216.732L567.874,216.731L567.873,216.73L567.871,216.73L567.87,216.729L567.869,216.728L567.867,216.726L567.866,216.725L567.865,216.725L567.865,216.724L567.864,216.723L567.864,216.722L567.864,216.721L567.864,216.72L567.864,216.718L567.862,216.717L567.859,216.713L567.858,216.711L567.857,216.71L567.856,216.71L567.856,216.71L567.855,216.709L567.854,216.709L567.852,216.708L567.852,216.708L567.85,216.707L567.849,216.706L567.847,216.706L567.846,216.705L567.845,216.705L567.845,216.704L567.844,216.703L567.843,216.702L567.843,216.701L567.839,216.699L567.835,216.697L567.835,216.697L567.834,216.696L567.831,216.696L567.831,216.696L567.83,216.695L567.828,216.694L567.827,216.694L567.827,216.694L567.826,216.693L567.826,216.692L567.826,216.692L567.826,216.691L567.825,216.689L567.824,216.688L567.823,216.688L567.821,216.686L567.821,216.686L567.82,216.684L567.819,216.68L567.818,216.679L567.817,216.675L567.816,216.674L567.815,216.672L567.815,216.67L567.814,216.668L567.812,216.666L567.811,216.666L567.81,216.665L567.81,216.665L567.809,216.664L567.808,216.664L567.807,216.663L567.806,216.661L567.806,216.66L567.805,216.658L567.805,216.657L567.805,216.657L567.804,216.656L567.804,216.654L567.804,216.653L567.804,216.652L567.804,216.651L567.804,216.651L567.805,216.649L567.805,216.648L567.805,216.646L567.805,216.643L567.804,216.641L567.804,216.638L567.805,216.637L567.804,216.635L567.803,216.634L567.803,216.633L567.802,216.632L567.8,216.63L567.8,216.629L567.801,216.628L567.8,216.627L567.8,216.627L567.8,216.627L567.8,216.626L567.8,216.626L567.8,216.625L567.8,216.625L567.8,216.625L567.8,216.624L567.8,216.624L567.8,216.623L567.799,216.623L567.799,216.623L567.799,216.622L567.799,216.622L567.799,216.622L567.799,216.622L567.798,216.622L567.798,216.622L567.798,216.622L567.798,216.622L567.797,216.622L567.797,216.622L567.797,216.622L567.797,216.622L567.797,216.621L567.797,216.621L567.796,216.621L567.797,216.62L567.796,216.618L567.793,216.616L567.791,216.616L567.788,216.617L567.788,216.617L567.786,216.614L567.784,216.612L567.783,216.609L567.783,216.607L567.784,216.604L567.785,216.601L567.788,216.597L567.788,216.594L567.783,216.591L567.781,216.589L567.776,216.588L567.774,216.586L567.774,216.585L567.774,216.583L567.774,216.582L567.774,216.581L567.774,216.58L567.775,216.579L567.776,216.578L567.774,216.576L567.774,216.575L567.773,216.574L567.771,216.574L567.769,216.574L567.765,216.573L567.764,216.572L567.763,216.572L567.763,216.572L567.762,216.572L567.761,216.572L567.76,216.572L567.759,216.571L567.759,216.571L567.758,216.572L567.758,216.571L567.756,216.571L567.756,216.57L567.755,216.57L567.754,216.569L567.754,216.568L567.754,216.567L567.754,216.566L567.755,216.564L567.754,216.563L567.754,216.562L567.754,216.561L567.753,216.559L567.753,216.559L567.753,216.558L567.752,216.556L567.751,216.555L567.751,216.554L567.75,216.554L567.75,216.554L567.749,216.552L567.749,216.552L567.748,216.552L567.749,216.551L567.748,216.55L567.748,216.549L567.748,216.549L567.748,216.548L567.749,216.548L567.75,216.547L567.751,216.547L567.751,216.546L567.752,216.546L567.752,216.545L567.753,216.545L567.754,216.541L567.755,216.539L567.755,216.537L567.754,216.536L567.752,216.534L567.751,216.533L567.75,216.532L567.749,216.529L567.749,216.526L567.749,216.521L567.748,216.517L567.748,216.515L567.748,216.512L567.751,216.508L567.751,216.507L567.749,216.504L567.749,216.5L567.746,216.493L567.742,216.492L567.737,216.486L567.737,216.483L567.736,216.481L567.735,216.48L567.734,216.478L567.734,216.475L567.735,216.474L567.734,216.46L567.733,216.456L567.732,216.451L567.728,216.447L567.729,216.443L567.73,216.441L567.73,216.439L567.732,216.435L567.732,216.431L567.73,216.429L567.728,216.428L567.727,216.426L567.727,216.424L567.726,216.422L567.723,216.419L567.722,216.416L567.719,216.411L567.718,216.408L567.717,216.405L567.714,216.401L567.713,216.399L567.711,216.396L567.711,216.391L567.712,216.39L567.713,216.39L567.714,216.388L567.714,216.385L567.716,216.383L567.717,216.379L567.717,216.377L567.717,216.376L567.719,216.373L567.719,216.372L567.718,216.369L567.722,216.364L567.722,216.362L567.716,216.358L567.715,216.356L567.715,216.354L567.711,216.347L567.71,216.344L567.709,216.342L567.709,216.339L567.709,216.336L567.707,216.329L567.703,216.324L567.703,216.322L567.704,216.317L567.7,216.31L567.696,216.309L567.695,216.309L567.693,216.307L567.691,216.306L567.689,216.301L567.689,216.297L567.687,216.295L567.686,216.295L567.684,216.292L567.683,216.291L567.68,216.291L567.678,216.29L567.677,216.29L567.675,216.29L567.674,216.288L567.671,216.287L567.668,216.287L567.667,216.286L567.665,216.28L567.665,216.276L567.666,216.273L567.665,216.271L567.662,216.267L567.662,216.263L567.663,216.262L567.663,216.259L567.662,216.258L567.659,216.258L567.659,216.257L567.658,216.255L567.658,216.253L567.661,216.251L567.661,216.249L567.659,216.248L567.657,216.248L567.655,216.248L567.652,216.243L567.651,216.241L567.65,216.239L567.648,216.239L567.645,216.239L567.644,216.238L567.644,216.235L567.644,216.233L567.643,216.231L567.644,216.222L567.642,216.219L567.642,216.217L567.641,216.215L567.641,216.213L567.642,216.21L567.64,216.209L567.64,216.208L567.639,216.204L567.637,216.201L567.635,216.2L567.632,216.176L567.643,216.166L567.646,216.162L567.647,216.158L567.647,216.156L567.645,216.155L567.642,216.153L567.64,216.153L567.635,216.151L567.634,216.15L567.633,216.148L567.633,216.147L567.631,216.147L567.629,216.147L567.625,216.149L567.62,216.149L567.613,216.147L567.612,216.144L567.612,216.142L567.591,216.114L567.587,216.108L567.582,216.104L567.579,216.096L567.578,216.094L567.573,216.086L567.572,216.085L567.57,216.085L567.569,216.084L567.568,216.081L567.567,216.08L567.563,216.079L567.559,216.075L567.555,216.07L567.555,216.067L567.557,216.066L567.556,216.064L567.566,216.056L567.565,216.053L567.562,216.044L567.561,216.041L567.552,216.031L567.551,216.024L567.547,216.002L567.546,215.992L567.523,215.966L567.515,215.96L567.51,215.957L567.501,215.95L567.497,215.943L567.488,215.939L567.482,215.935L567.471,215.927L567.462,215.92L567.436,215.898L567.417,215.882L567.413,215.877L567.414,215.874L567.41,215.868L567.407,215.866L567.403,215.863L567.39,215.844L567.39,215.84L567.39,215.837L567.389,215.833L567.389,215.832L567.385,215.831L567.383,215.832L567.382,215.833L567.377,215.826L567.374,215.827L567.354,215.805L567.334,215.778L567.315,215.755L567.285,215.727L567.268,215.713L567.266,215.712L567.256,215.723L567.252,215.728L567.251,215.729L567.25,215.723L567.248,215.723L567.245,215.723L567.242,215.726L567.236,215.73L567.232,215.73L567.229,215.728L567.229,215.727L567.229,215.724L567.234,215.722L567.238,215.716L567.243,215.714L567.246,215.709L567.246,215.706L567.245,215.703L567.241,215.702L567.238,215.704L567.235,215.705L567.235,215.711L567.232,215.714L567.228,215.714L567.223,215.708L567.22,215.701L567.216,215.699L567.214,215.7L567.213,215.703L567.214,215.709L567.207,215.712L567.203,215.712L567.2,215.709L567.2,215.706L567.203,215.703L567.204,215.7L567.206,215.695L567.204,215.692L567.2,215.69L567.196,215.69L567.188,215.694L567.185,215.694L567.181,215.693L567.178,215.689L567.174,215.69L567.168,215.686L567.161,215.688L567.159,215.687L567.158,215.687L567.155,215.688L567.151,215.689L567.149,215.689L567.148,215.689L567.146,215.689L567.144,215.688L567.143,215.688L567.142,215.687L567.141,215.686L567.141,215.686L567.14,215.685L567.14,215.684L567.14,215.684L567.14,215.683L567.141,215.683L567.141,215.682L567.142,215.682L567.143,215.682L567.146,215.681L567.148,215.681L567.152,215.68L567.155,215.679L567.155,215.676L567.154,215.672L567.152,215.671L567.15,215.67L567.147,215.671L567.145,215.671L567.142,215.67L567.14,215.668L567.139,215.666L567.14,215.663L567.141,215.662L567.142,215.661L567.147,215.66L567.155,215.658L567.156,215.657L567.157,215.656L567.157,215.654L567.156,215.653L567.152,215.652L567.148,215.649L567.148,215.646L567.149,215.645L567.149,215.644L567.149,215.643L567.15,215.64L567.143,215.637L567.141,215.636L567.14,215.632L567.142,215.63L567.149,215.63L567.154,215.636L567.157,215.635L567.158,215.632L567.154,215.627L567.146,215.622L567.143,215.617L567.143,215.61L567.141,215.604L567.138,215.602L567.135,215.601L567.133,215.599L567.132,215.596L567.135,215.592L567.135,215.59L567.128,215.586L567.117,215.586L567.113,215.587L567.109,215.592L567.107,215.594L567.105,215.597L567.102,215.599L567.102,215.599L567.098,215.599L567.093,215.599L567.088,215.596L567.086,215.598L567.084,215.604L567.081,215.605L567.08,215.604L567.08,215.602L567.081,215.597L567.081,215.596L567.081,215.595L567.083,215.594L567.083,215.593L567.082,215.591L567.081,215.59L567.077,215.589L567.075,215.587L567.073,215.583L567.066,215.58L567.065,215.578L567.065,215.576L567.067,215.575L567.07,215.574L567.071,215.573L567.072,215.57L567.072,215.568L567.071,215.567L567.069,215.567L567.067,215.568L567.066,215.568L567.065,215.568L567.062,215.565L567.058,215.563L567.053,215.56L567.049,215.559L567.048,215.558L567.045,215.557L567.043,215.558L567.034,215.558L567.034,215.559L567.033,215.563L567.03,215.566L567.027,215.566L567.026,215.565L567.024,215.564L567.022,215.56L567.021,215.56L567.018,215.562L567.016,215.565L567.014,215.567L567.012,215.568L567.008,215.57L567.006,215.569L567.006,215.569L567.005,215.568L567.003,215.563L567.001,215.56L566.999,215.561L566.997,215.562L566.993,215.564L566.989,215.566L566.986,215.562L566.985,215.557L566.983,215.556L566.981,215.556L566.978,215.557L566.978,215.558L566.977,215.56L566.977,215.561L566.976,215.561L566.973,215.559L566.966,215.56L566.964,215.561L566.963,215.563L566.963,215.566L566.962,215.567L566.964,215.572L566.966,215.573L566.966,215.574L566.965,215.575L566.957,215.574L566.956,215.572L566.957,215.564L566.957,215.562L566.955,215.561L566.952,215.56L566.948,215.56L566.946,215.559L566.946,215.557L566.948,215.555L566.948,215.553L566.947,215.551L566.944,215.547L566.942,215.548L566.941,215.55L566.94,215.552L566.939,215.556L566.939,215.558L566.94,215.56L566.94,215.562L566.94,215.563L566.939,215.564L566.939,215.565L566.937,215.565L566.936,215.564L566.936,215.564L566.936,215.562L566.936,215.561L566.936,215.559L566.935,215.558L566.934,215.557L566.933,215.556L566.931,215.554L566.929,215.553L566.928,215.552L566.927,215.551L566.925,215.55L566.923,215.548L566.916,215.547L566.912,215.547L566.908,215.547L566.905,215.547L566.902,215.547L566.9,215.548L566.893,215.551L566.891,215.553L566.89,215.554L566.889,215.558L566.888,215.566L566.887,215.568L566.885,215.569L566.882,215.569L566.879,215.569L566.877,215.569L566.875,215.567L566.872,215.562L566.87,215.56L566.868,215.56L566.866,215.56L566.861,215.56L566.855,215.561L566.852,215.562L566.849,215.564L566.847,215.566L566.842,215.573L566.839,215.576L566.837,215.577L566.833,215.577L566.828,215.576L566.823,215.575L566.818,215.575L566.815,215.575L566.814,215.577L566.814,215.578L566.813,215.579L566.812,215.58L566.811,215.581L566.812,215.582L566.813,215.583L566.815,215.584L566.816,215.586L566.817,215.588L566.818,215.591L566.818,215.594L566.818,215.598L566.817,215.6L566.816,215.601L566.813,215.602L566.81,215.601L566.806,215.597L566.803,215.592L566.801,215.588L566.801,215.581L566.801,215.579L566.798,215.576L566.794,215.575L566.79,215.576L566.786,215.578L566.785,215.581L566.786,215.584L566.793,215.585L566.794,215.587L566.794,215.591L566.791,215.594L566.787,215.597L566.785,215.602L566.782,215.607L566.779,215.61L566.775,215.611L566.772,215.609L566.771,215.606L566.769,215.603L566.765,215.601L566.761,215.601L566.758,215.602L566.756,215.601L566.752,215.599L566.751,215.598L566.749,215.598L566.746,215.6L566.746,215.603L566.748,215.607L566.749,215.609L566.748,215.611L566.745,215.612L566.743,215.611L566.74,215.607L566.741,215.604L566.741,215.601L566.738,215.598L566.737,215.595L566.735,215.592L566.734,215.592L566.733,215.593L566.732,215.594L566.731,215.595L566.722,215.6L566.716,215.605L566.713,215.613L566.711,215.616L566.707,215.617L566.705,215.617L566.703,215.615L566.701,215.611L566.692,215.608L566.69,215.608L566.689,215.61L566.689,215.612L566.683,215.62L566.681,215.621L566.677,215.623L566.675,215.623L566.667,215.614L566.662,215.611L566.657,215.61L566.653,215.612L566.651,215.616L566.652,215.619L566.653,215.622L566.651,215.626L566.646,215.629L566.641,215.63L566.639,215.63L566.636,215.628L566.634,215.623L566.631,215.62L566.627,215.619L566.624,215.625L566.622,215.628L566.622,215.631L566.621,215.635L566.621,215.638L566.619,215.641L566.618,215.643L566.616,215.644L566.612,215.643L566.611,215.64L566.61,215.636L566.608,215.634L566.606,215.633L566.604,215.633L566.602,215.633L566.599,215.633L566.598,215.637L566.595,215.638L566.592,215.638L566.585,215.635L566.583,215.634L566.583,215.633L566.581,215.632L566.581,215.629L566.581,215.626L566.582,215.624L566.585,215.623L566.586,215.623L566.588,215.622L566.589,215.619L566.587,215.618L566.585,215.618L566.583,215.615L566.581,215.612L566.577,215.611L566.574,215.611L566.571,215.612L566.568,215.614L566.567,215.615L566.564,215.616L566.561,215.618L566.558,215.617L566.557,215.613L566.557,215.611L566.556,215.609L566.552,215.609L566.548,215.611L566.545,215.612L566.541,215.612L566.538,215.611L566.534,215.609L566.527,215.611L566.519,215.612L566.512,215.614L566.502,215.618L566.5,215.62L566.499,215.622L566.499,215.624L566.502,215.627L566.501,215.63L566.5,215.631L566.496,215.633L566.492,215.635L566.49,215.635L566.488,215.634L566.488,215.632L566.49,215.627L566.491,215.624L566.492,215.621L566.495,215.619L566.499,215.614L566.501,215.61L566.5,215.607L566.498,215.605L566.492,215.6L566.481,215.595L566.474,215.59L566.469,215.588L566.461,215.588L566.457,215.587L566.456,215.586L566.455,215.584L566.453,215.581L566.454,215.579L566.456,215.574L566.454,215.571L566.451,215.569L566.446,215.569L566.44,215.569L566.436,215.57L566.431,215.57L566.429,215.569L566.427,215.565L566.424,215.56L566.422,215.557L566.42,215.557L566.418,215.558L566.416,215.561L566.416,215.565L566.417,215.572L566.416,215.577L566.414,215.58L566.411,215.582L566.407,215.583L566.403,215.58L566.401,215.575L566.402,215.57L566.406,215.565L566.407,215.562L566.407,215.562L566.407,215.559L566.405,215.558L566.403,215.557L566.401,215.557L566.398,215.558L566.394,215.564L566.39,215.567L566.388,215.568L566.385,215.568L566.382,215.566L566.381,215.563L566.382,215.559L566.383,215.552L566.382,215.549L566.38,215.548L566.379,215.548L566.378,215.549L566.377,215.552L566.377,215.557L566.375,215.56L566.373,215.562L566.371,215.563L566.369,215.562L566.367,215.559L566.367,215.554L566.367,215.553L566.365,215.547L566.363,215.546L566.359,215.546L566.357,215.548L566.356,215.55L566.356,215.554L566.358,215.56L566.359,215.564L566.355,215.566L566.351,215.566L566.349,215.563L566.348,215.551L566.347,215.546L566.345,215.544L566.341,215.541L566.339,215.538L566.339,215.535L566.338,215.531L566.337,215.528L566.334,215.527L566.332,215.526L566.328,215.526L566.325,215.527L566.323,215.528L566.322,215.53L566.319,215.534L566.317,215.535L566.316,215.535L566.315,215.535L566.311,215.533L566.309,215.532L566.308,215.533L566.306,215.541L566.304,215.543L566.301,215.543L566.299,215.542L566.298,215.538L566.299,215.535L566.3,215.531L566.302,215.526L566.302,215.522L566.302,215.521L566.293,215.519L566.29,215.518L566.285,215.518L566.282,215.517L566.277,215.513L566.274,215.511L566.268,215.511L566.265,215.513L566.261,215.519L566.256,215.523L566.25,215.524L566.246,215.523L566.242,215.52L566.24,215.518L566.234,215.514L566.233,215.51L566.233,215.51L566.231,215.507L566.231,215.506L566.229,215.505L566.228,215.503L566.226,215.501L566.225,215.499L566.224,215.495L566.223,215.493L566.221,215.491L566.218,215.482L566.216,215.479L566.212,215.477L566.21,215.476L566.204,215.478L566.201,215.479L566.199,215.479L566.196,215.482L566.195,215.484L566.195,215.487L566.195,215.492L566.194,215.495L566.192,215.496L566.19,215.497L566.188,215.496L566.186,215.493L566.185,215.49L566.185,215.488L566.187,215.486L566.189,215.483L566.19,215.478L566.188,215.475L566.186,215.474L566.183,215.473L566.18,215.474L566.177,215.478L566.175,215.483L566.173,215.486L566.17,215.489L566.166,215.488L566.165,215.486L566.163,215.483L566.164,215.478L566.167,215.476L566.171,215.469L566.17,215.466L566.167,215.465L566.164,215.467L566.161,215.469L566.153,215.472L566.149,215.471L566.147,215.47L566.145,215.467L566.146,215.465L566.147,215.459L566.147,215.456L566.146,215.454L566.143,215.453L566.133,215.443L566.133,215.441L566.133,215.439L566.134,215.436L566.142,215.437L566.143,215.435L566.144,215.432L566.146,215.426L566.146,215.422L566.144,215.409L566.142,215.405L566.139,215.401L566.138,215.399L566.13,215.397L566.129,215.396L566.129,215.393L566.131,215.392L566.135,215.392L566.14,215.393L566.145,215.396L566.149,215.396L566.151,215.395L566.153,215.393L566.151,215.388L566.147,215.38L566.143,215.376L566.139,215.372L566.134,215.368L566.122,215.356L566.117,215.353L566.103,215.35L566.066,215.334L566.048,215.324L566.042,215.323L566.034,215.322L566.027,215.323L566.017,215.329L566.011,215.332L566.009,215.333L565.992,215.338L565.986,215.342L565.976,215.357L565.971,215.361L565.968,215.362L565.963,215.362L565.956,215.361L565.951,215.362L565.934,215.371L565.93,215.374L565.927,215.38L565.924,215.383L565.92,215.385L565.913,215.387L565.909,215.39L565.907,215.393L565.906,215.405L565.903,215.416L565.903,215.429L565.903,215.445L565.9,215.451L565.898,215.454L565.895,215.456L565.891,215.456L565.883,215.454L565.878,215.452L565.871,215.452L565.859,215.453L565.856,215.455L565.84,215.478L565.83,215.504L565.828,215.506L565.819,215.507L565.815,215.508L565.809,215.509L565.806,215.51L565.803,215.511L565.801,215.513L565.799,215.514L565.795,215.519L565.793,215.519L565.789,215.519L565.788,215.52L565.787,215.52L565.786,215.521L565.782,215.525L565.78,215.528L565.779,215.531L565.78,215.532L565.78,215.534L565.781,215.536L565.782,215.538L565.785,215.541L565.787,215.544L565.787,215.547L565.786,215.549L565.782,215.552L565.779,215.553L565.777,215.552L565.772,215.55L565.768,215.549L565.766,215.548L565.762,215.546L565.761,215.547L565.758,215.548L565.758,215.549L565.757,215.551L565.757,215.553L565.758,215.555L565.761,215.557L565.763,215.557L565.766,215.559L565.768,215.561L565.77,215.564L565.773,215.567L565.777,215.571L565.779,215.574L565.78,215.577L565.779,215.58L565.775,215.587L565.773,215.592L565.772,215.594L565.77,215.595L565.767,215.594L565.765,215.592L565.763,215.59L565.761,215.59L565.758,215.588L565.754,215.585L565.748,215.582L565.743,215.579L565.742,215.577L565.74,215.576L565.738,215.574L565.735,215.574L565.733,215.573L565.731,215.574L565.728,215.578L565.723,215.582L565.718,215.586L565.716,215.589L565.715,215.596L565.715,215.605L565.712,215.617L565.707,215.623L565.703,215.626L565.698,215.625L565.696,215.623L565.692,215.621L565.688,215.619L565.684,215.616L565.679,215.613L565.677,215.613L565.675,215.613L565.672,215.614L565.669,215.617L565.667,215.621L565.666,215.624L565.666,215.628L565.666,215.633L565.667,215.636L565.671,215.64L565.672,215.643L565.672,215.644L565.672,215.646L565.671,215.648L565.668,215.652L565.665,215.654L565.654,215.652L565.649,215.652L565.644,215.651L565.642,215.652L565.639,215.653L565.637,215.656L565.636,215.657L565.634,215.663L565.631,215.678L565.63,215.682L565.629,215.688L565.629,215.692L565.629,215.698L565.627,215.702L565.622,215.705L565.596,215.722L565.591,215.726L565.588,215.729L565.586,215.731L565.583,215.732L565.575,215.735L565.569,215.736L565.564,215.736L565.555,215.733L565.548,215.73L565.545,215.729L565.543,215.729L565.542,215.732L565.542,215.737L565.543,215.746L565.544,215.749L565.545,215.751L565.545,215.755L565.544,215.758L565.539,215.762L565.537,215.764L565.532,215.765L565.528,215.766L565.523,215.766L565.513,215.765L565.509,215.764L565.505,215.764L565.503,215.764L565.501,215.765L565.496,215.772L565.488,215.785L565.484,215.79L565.482,215.793L565.478,215.795L565.471,215.797L565.466,215.797L565.461,215.796L565.458,215.794L565.455,215.791L565.455,215.79L565.454,215.786L565.455,215.778L565.457,215.773L565.459,215.769L565.461,215.766L565.462,215.765L565.462,215.763L565.461,215.763L565.459,215.763L565.457,215.763L565.455,215.764L565.453,215.765L565.45,215.767L565.448,215.769L565.445,215.776L565.444,215.78L565.443,215.785L565.441,215.788L565.441,215.79L565.441,215.792L565.44,215.794L565.439,215.796L565.439,215.8L565.44,215.803L565.441,215.805L565.441,215.812L565.441,215.819L565.441,215.822L565.439,215.825L565.437,215.827L565.429,215.83L565.426,215.83L565.388,215.811L565.388,215.811L565.389,215.808L565.393,215.806L565.395,215.805L565.398,215.801L565.399,215.799L565.399,215.797L565.398,215.796L565.395,215.794L565.392,215.793L565.389,215.792L565.386,215.792L565.384,215.793L565.382,215.795L565.379,215.799L565.376,215.804L565.373,215.813L565.371,215.821L565.371,215.827L565.371,215.832L565.371,215.839L565.371,215.848L565.371,215.85L565.372,215.858L565.371,215.86L565.369,215.861L565.366,215.861L565.362,215.861L565.358,215.858L565.355,215.854L565.351,215.848L565.344,215.839L565.34,215.835L565.337,215.834L565.335,215.834L565.331,215.835L565.327,215.837L565.323,215.84L565.321,215.842L565.318,215.847L565.315,215.849L565.31,215.851L565.306,215.855L565.304,215.857L565.299,215.859L565.297,215.859L565.293,215.858L565.274,215.85L565.271,215.849L565.253,215.85L565.248,215.849L565.247,215.848L565.244,215.846L565.236,215.839L565.233,215.837L565.231,215.837L565.227,215.838L565.225,215.839L565.218,215.845L565.217,215.846L565.213,215.847L565.21,215.846L565.206,215.845L565.205,215.843L565.204,215.841L565.202,215.84L565.198,215.839L565.195,215.839L565.193,215.84L565.192,215.84L565.192,215.84L565.192,215.84L565.192,215.84L565.185,215.844L565.181,215.846L565.177,215.85L565.172,215.855L565.17,215.858L565.168,215.861L565.165,215.863L565.155,215.865L565.148,215.866L565.145,215.866L565.143,215.866L565.139,215.864L565.135,215.862L565.133,215.861L565.131,215.862L565.129,215.863L565.129,215.867L565.128,215.868L565.127,215.874L565.127,215.881L565.127,215.882L565.127,215.882L565.127,215.885L565.125,215.887L565.123,215.888L565.119,215.891L565.117,215.893L565.102,215.895L565.1,215.896L565.093,215.892L565.09,215.887L565.086,215.88L565.084,215.877L565.082,215.874L565.078,215.872L565.076,215.871L565.074,215.871L565.072,215.871L565.069,215.871L565.067,215.872L565.062,215.876L565.058,215.88L565.056,215.882L565.055,215.883L565.053,215.893L565.052,215.898L565.049,215.903L565.048,215.905L565.046,215.907L565.042,215.909L565.039,215.911L565.037,215.911L565.036,215.91L565.034,215.908L565.033,215.905L565.032,215.902L565.031,215.899L565.031,215.895L565.032,215.892L565.033,215.883L565.033,215.878L565.033,215.875L565.032,215.87L565.031,215.867L565.031,215.865L565.031,215.863L565.03,215.861L565.028,215.856L565.027,215.854L565.027,215.85L565.026,215.847L565.025,215.845L565.025,215.844L565.026,215.843L565.03,215.839L565.031,215.838L565.032,215.837L565.032,215.835L565.032,215.833L565.03,215.831L565.028,215.828L565.025,215.827L565.024,215.826L565.022,215.825L565.021,215.826L565.018,215.827L565.016,215.828L565.013,215.826L565.01,215.825L565.005,215.826L564.998,215.827L564.996,215.827L564.994,215.827L564.989,215.824L564.987,215.823L564.985,215.822L564.982,215.819L564.977,215.813L564.974,215.811L564.972,215.811L564.965,215.811L564.964,215.811L564.961,215.812L564.958,215.814L564.957,215.815L564.956,215.818L564.953,215.826L564.952,215.832L564.952,215.837L564.952,215.84L564.953,215.843L564.953,215.849L564.952,215.852L564.949,215.854L564.947,215.855L564.945,215.855L564.941,215.855L564.938,215.854L564.933,215.85L564.93,215.846L564.928,215.845L564.926,215.843L564.924,215.841L564.922,215.839L564.921,215.836L564.92,215.833L564.92,215.829L564.92,215.827L564.92,215.825L564.92,215.822L564.918,215.817L564.917,215.815L564.915,215.811L564.914,215.808L564.914,215.804L564.912,215.799L564.912,215.796L564.912,215.794L564.912,215.791L564.914,215.786L564.916,215.784L564.918,215.781L564.923,215.777L564.927,215.773L564.929,215.771L564.929,215.77L564.93,215.768L564.93,215.767L564.93,215.765L564.93,215.761L564.929,215.759L564.927,215.756L564.925,215.753L564.922,215.751L564.922,215.751L564.92,215.75L564.917,215.75L564.913,215.75L564.913,215.75L564.91,215.75L564.906,215.749L564.901,215.75L564.897,215.751L564.893,215.753L564.886,215.756L564.884,215.757L564.882,215.759L564.88,215.761L564.878,215.763L564.875,215.765L564.872,215.767L564.866,215.77L564.864,215.771L564.856,215.775L564.85,215.779L564.845,215.783L564.84,215.784L564.836,215.784L564.833,215.782L564.832,215.779L564.832,215.777L564.832,215.771L564.832,215.77L564.833,215.766L564.833,215.762L564.834,215.76L564.835,215.757L564.837,215.755L564.839,215.752L564.84,215.749L564.842,215.748L564.846,215.74L564.848,215.736L564.849,215.73L564.849,215.73L564.849,215.729L564.849,215.728L564.849,215.727L564.849,215.722L564.848,215.719L564.848,215.716L564.847,215.713L564.846,215.712L564.843,215.71L564.84,215.709L564.836,215.708L564.833,215.708L564.831,215.708L564.83,215.708L564.824,215.712L564.819,215.716L564.816,215.718L564.814,215.72L564.811,215.723L564.808,215.73L564.805,215.735L564.801,215.741L564.797,215.745L564.794,215.747L564.79,215.75L564.788,215.75L564.779,215.753L564.776,215.752L564.772,215.754L564.768,215.754ZM800,0L800,12.246L800,78.668L800,145.789L800,215.835L800,261.497L800,300L800,338.503L800,384.165L800,454.211L800,600L800,600L200,600L200,600L200,454.211L200,384.165L200,338.503L200,300L200,261.497L200,215.835L200,145.789L200,78.668L200,12.246L200,0L200,0L800,0Z"/>
<path d="M566.84,216.76m0,4.5a4.5,4.5 0 1,1 0,-9a4.5,4.5 0 1,1 0,9z"/>
<path d="M566.92,216.555m0,4.5a4.5,4.5 0 1,1 0,-9a4.5,4.5 0 1,1 0,9z"/>
</svg>