<?xml version="1.0" encoding="UTF-8"?>
<svg xmlns="http://www.w3.org/2000/svg" viewBox="0 0 1000 600" stroke="#000" stroke-width="0.3" fill="#ccc">
<path d="M576.591,184.881L576.585,184.884L576.549,184.885L576.497,184.887L576.477,184.889L576.477,184.89L576.477,184.894L576.476,184.894L576.479,184.956L576.399,184.959L576.251,184.963L576.248,184.99L576.242,185.01L576.241,185.018L576.237,185.019L576.238,185.018L576.238,185.018L576.237,185.017L576.236,185.018L576.236,185.017L576.235,185.017L576.235,185.016L576.235,185.014L576.236,185.013L576.238,185.013L576.238,185.012L576.238,185.011L576.238,185.009L576.238,185.008L576.237,185.008L576.236,185.009L576.237,185.01L576.236,185.011L576.235,185.011L576.235,185.011L576.234,185.01L576.234,185.009L576.233,185.008L576.232,185.009L576.231,185.009L576.23,185.008L576.229,185.008L576.229,185.008L576.228,185.009L576.228,185.011L576.229,185.013L576.228,185.013L576.227,185.013L576.227,185.012L576.227,185.012L576.227,185.011L576.227,185.01L576.226,185.009L576.226,185.008L576.227,185.007L576.226,185.006L576.225,185.005L576.224,185.004L576.223,185.003L576.223,185.002L576.224,185.001L576.225,185.001L576.225,185L576.225,185L576.224,184.999L576.223,185L576.222,185.001L576.22,185L576.22,185L576.219,184.998L576.219,184.997L576.22,184.997L576.22,184.996L576.219,184.996L576.218,184.995L576.217,184.995L576.216,184.995L576.216,184.996L576.215,184.997L576.215,184.997L576.214,184.997L576.213,184.994L576.211,184.992L576.21,184.991L576.209,184.992L576.207,184.993L576.206,184.993L576.205,184.992L576.203,184.992L576.202,184.992L576.201,184.992L576.2,184.992L576.199,184.991L576.199,184.989L576.198,184.988L576.197,184.987L576.196,184.987L576.195,184.988L576.195,184.988L576.195,184.989L576.194,184.99L576.193,184.991L576.192,184.992L576.192,184.993L576.193,184.994L576.194,184.994L576.195,184.995L576.195,184.996L576.194,184.997L576.193,184.998L576.191,184.997L576.19,184.996L576.19,184.995L576.189,184.994L576.188,184.993L576.187,184.993L576.186,184.993L576.186,184.992L576.186,184.991L576.187,184.99L576.188,184.989L576.187,184.988L576.187,184.986L576.186,184.985L576.185,184.986L576.184,184.987L576.183,184.987L576.183,184.987L576.182,184.987L576.182,184.987L576.182,184.988L576.182,184.99L576.183,184.991L576.182,184.992L576.182,184.992L576.181,184.992L576.18,184.99L576.179,184.99L576.178,184.989L576.178,184.988L576.177,184.987L576.176,184.987L576.175,184.987L576.173,184.988L576.172,184.989L576.171,184.989L576.17,184.989L576.169,184.987L576.169,184.987L576.167,184.986L576.165,184.986L576.164,184.986L576.163,184.987L576.163,184.988L576.163,184.989L576.164,184.989L576.164,184.99L576.164,184.991L576.163,184.991L576.162,184.99L576.161,184.99L576.161,184.99L576.16,184.991L576.159,184.991L576.158,184.991L576.158,184.99L576.158,184.988L576.157,184.987L576.156,184.987L576.155,184.986L576.154,184.987L576.153,184.988L576.15,184.989L576.149,184.99L576.148,184.99L576.147,184.991L576.147,184.992L576.147,184.994L576.147,184.995L576.148,184.996L576.148,184.997L576.147,184.997L576.146,184.998L576.145,184.998L576.145,184.997L576.144,184.996L576.143,184.996L576.142,184.997L576.142,184.997L576.142,184.998L576.144,185L576.144,185.001L576.144,185.002L576.143,185.002L576.142,185.001L576.141,185.001L576.139,185L576.138,184.998L576.138,184.997L576.138,184.997L576.137,184.996L576.136,184.996L576.135,184.997L576.135,184.999L576.136,185L576.137,185.002L576.137,185.003L576.137,185.003L576.136,185.003L576.134,185.002L576.134,185.002L576.133,185.002L576.132,185.002L576.131,185.001L576.13,185.001L576.129,185L576.13,184.999L576.131,184.998L576.132,184.997L576.132,184.997L576.132,184.996L576.131,184.995L576.13,184.994L576.129,184.994L576.128,184.995L576.128,184.996L576.127,184.997L576.126,184.998L576.126,184.999L576.125,184.999L576.124,184.999L576.124,184.999L576.125,184.997L576.125,184.997L576.124,184.996L576.123,184.995L576.122,184.994L576.121,184.994L576.12,184.993L576.12,184.994L576.119,184.994L576.119,184.995L576.12,184.995L576.12,184.996L576.12,184.996L576.119,184.998L576.119,184.999L576.119,184.999L576.118,184.999L576.118,184.999L576.118,184.998L576.118,184.997L576.117,184.996L576.116,184.996L576.116,184.995L576.116,184.995L576.117,184.994L576.117,184.994L576.117,184.993L576.117,184.992L576.118,184.992L576.118,184.991L576.118,184.99L576.117,184.99L576.117,184.99L576.116,184.99L576.116,184.992L576.115,184.995L576.114,184.996L576.114,184.999L576.1,185.031L576.092,185.04L576.091,185.048L576.083,185.07L576.082,185.077L576.076,185.085L576.077,185.09L576.045,185.13L576.043,185.151L576.063,185.151L576.062,185.16L576.043,185.178L576.043,185.183L576.048,185.189L576.048,185.206L576.074,185.233L576.089,185.222L576.095,185.227L576.087,185.284L576.048,185.282L576.04,185.294L576.045,185.313L576.051,185.32L576.081,185.363L576.103,185.454L576.146,185.478L576.153,185.478L576.197,185.467L576.213,185.475L576.252,185.471L576.281,185.498L576.278,185.56L576.273,185.567L576.253,185.578L576.255,185.593L576.255,185.594L576.255,185.599L576.259,185.6L576.266,185.599L576.338,185.551L576.44,185.542L576.458,185.542L576.493,185.534L576.527,185.56L576.606,185.551L576.624,185.601L576.588,185.627L576.563,185.689L576.556,185.718L576.563,185.727L576.578,185.749L576.585,185.779L576.585,185.781L576.588,185.794L576.589,185.798L576.597,185.839L576.609,185.866L576.617,185.883L576.614,185.886L576.614,185.885L576.612,185.885L576.611,185.886L576.608,185.886L576.605,185.885L576.602,185.887L576.602,185.888L576.601,185.887L576.601,185.887L576.6,185.886L576.6,185.886L576.599,185.886L576.598,185.886L576.598,185.887L576.597,185.887L576.596,185.887L576.595,185.886L576.595,185.886L576.596,185.886L576.597,185.885L576.598,185.885L576.598,185.884L576.598,185.883L576.597,185.882L576.596,185.882L576.596,185.882L576.595,185.882L576.594,185.882L576.594,185.881L576.594,185.881L576.593,185.881L576.592,185.881L576.592,185.881L576.591,185.881L576.592,185.882L576.593,185.883L576.593,185.885L576.592,185.885L576.592,185.886L576.59,185.886L576.589,185.886L576.588,185.887L576.588,185.887L576.588,185.888L576.587,185.888L576.587,185.888L576.586,185.888L576.585,185.887L576.584,185.887L576.582,185.887L576.581,185.888L576.581,185.888L576.58,185.888L576.579,185.888L576.579,185.889L576.578,185.889L576.578,185.889L576.577,185.889L576.576,185.889L576.575,185.888L576.575,185.888L576.576,185.886L576.577,185.886L576.577,185.886L576.578,185.885L576.578,185.885L576.577,185.884L576.576,185.884L576.575,185.884L576.575,185.883L576.575,185.882L576.574,185.882L576.573,185.883L576.573,185.884L576.572,185.885L576.572,185.886L576.571,185.887L576.571,185.888L576.572,185.889L576.573,185.889L576.574,185.889L576.574,185.89L576.574,185.89L576.574,185.891L576.574,185.891L576.573,185.892L576.572,185.892L576.572,185.892L576.571,185.893L576.571,185.894L576.572,185.895L576.572,185.895L576.572,185.895L576.572,185.896L576.572,185.896L576.571,185.897L576.57,185.897L576.569,185.896L576.568,185.896L576.567,185.897L576.567,185.897L576.566,185.898L576.565,185.898L576.565,185.898L576.565,185.898L576.565,185.897L576.566,185.896L576.566,185.895L576.566,185.894L576.565,185.894L576.564,185.895L576.564,185.895L576.563,185.895L576.563,185.894L576.564,185.892L576.564,185.892L576.564,185.891L576.564,185.89L576.563,185.89L576.562,185.89L576.561,185.89L576.56,185.891L576.559,185.891L576.558,185.891L576.558,185.89L576.557,185.89L576.556,185.89L576.554,185.891L576.553,185.891L576.551,185.892L576.548,185.893L576.547,185.894L576.547,185.895L576.547,185.895L576.546,185.896L576.545,185.896L576.544,185.896L576.543,185.896L576.542,185.897L576.542,185.898L576.541,185.899L576.54,185.899L576.54,185.899L576.539,185.901L576.539,185.913L576.539,185.914L576.542,185.947L576.543,185.948L576.544,185.949L576.543,185.957L576.541,185.983L576.538,186.012L576.538,186.014L576.538,186.018L576.534,186.061L576.534,186.069L576.444,186.061L576.444,186.074L576.469,186.128L576.478,186.137L576.482,186.134L576.483,186.128L576.492,186.127L576.497,186.132L576.489,186.137L576.49,186.156L576.493,186.16L576.495,186.163L576.496,186.179L576.499,186.178L576.504,186.178L576.508,186.177L576.511,186.177L576.514,186.177L576.518,186.177L576.523,186.178L576.529,186.181L576.534,186.183L576.539,186.187L576.546,186.192L576.55,186.196L576.553,186.201L576.557,186.207L576.56,186.214L576.562,186.219L576.564,186.226L576.564,186.229L576.564,186.232L576.564,186.234L576.564,186.236L576.565,186.238L576.565,186.24L576.565,186.243L576.565,186.246L576.565,186.251L576.564,186.255L576.563,186.262L576.563,186.267L576.562,186.272L576.561,186.275L576.561,186.276L576.561,186.276L576.561,186.276L576.562,186.276L576.562,186.276L576.562,186.276L576.562,186.275L576.563,186.275L576.563,186.276L576.565,186.278L576.567,186.281L576.57,186.284L576.572,186.287L576.574,186.29L576.575,186.293L576.576,186.297L576.577,186.301L576.577,186.303L576.578,186.305L576.578,186.306L576.579,186.307L576.579,186.308L576.58,186.31L576.581,186.311L576.582,186.313L576.583,186.315L576.584,186.318L576.585,186.319L576.586,186.321L576.587,186.323L576.589,186.324L576.591,186.326L576.591,186.328L576.594,186.332L576.599,186.336L576.6,186.337L576.601,186.338L576.602,186.339L576.602,186.34L576.602,186.341L576.602,186.342L576.602,186.343L576.603,186.344L576.605,186.344L576.606,186.345L576.629,186.339L576.652,186.318L576.666,186.314L576.69,186.319L576.705,186.333L576.714,186.332L576.713,186.338L576.715,186.343L576.718,186.341L576.718,186.341L576.719,186.342L576.724,186.338L576.733,186.344L576.734,186.351L576.744,186.356L576.752,186.347L576.757,186.338L576.768,186.329L576.778,186.319L576.791,186.313L576.802,186.309L576.82,186.309L576.828,186.307L576.831,186.314L576.831,186.316L576.831,186.321L576.826,186.338L576.819,186.351L576.81,186.368L576.812,186.369L576.83,186.376L576.851,186.388L576.851,186.388L576.851,186.405L576.801,186.435L576.796,186.447L576.791,186.457L576.782,186.466L576.769,186.468L576.763,186.457L576.76,186.459L576.745,186.473L576.754,186.487L576.753,186.49L576.754,186.493L576.751,186.5L576.749,186.503L576.742,186.515L576.74,186.53L576.793,186.617L576.811,186.654L576.811,186.692L576.806,186.705L576.807,186.715L576.812,186.723L576.822,186.726L576.849,186.715L576.866,186.714L576.881,186.706L576.893,186.698L576.901,186.684L576.907,186.679L576.914,186.679L576.922,186.682L576.927,186.69L576.92,186.708L576.907,186.732L576.908,186.735L576.915,186.735L576.923,186.733L576.933,186.733L576.949,186.739L576.972,186.742L576.975,186.742L577.001,186.739L577.004,186.732L577.006,186.728L577.005,186.727L577.004,186.726L577.003,186.726L577.004,186.725L577.004,186.725L577.005,186.725L577.005,186.724L577.005,186.724L577.006,186.723L577.006,186.722L577.005,186.722L577.006,186.721L577.006,186.721L577.005,186.72L577.005,186.719L577.005,186.719L577.005,186.719L577.004,186.718L577.004,186.717L577.004,186.717L577.005,186.717L577.005,186.716L577.005,186.715L577.005,186.715L577.004,186.715L577,186.709L577.002,186.704L577.002,186.704L577.003,186.704L577.003,186.704L577.004,186.703L577.005,186.702L577.005,186.702L577.006,186.702L577.005,186.701L577.005,186.7L577.005,186.7L577.006,186.7L577.006,186.7L577.006,186.699L577.006,186.699L577.007,186.699L577.008,186.699L577.009,186.699L577.009,186.698L577.01,186.698L577.009,186.696L577.009,186.695L577.009,186.695L577.009,186.693L577.009,186.692L577.009,186.691L577.01,186.691L577.01,186.691L577.01,186.691L577.011,186.691L577.011,186.691L577.011,186.692L577.011,186.692L577.011,186.693L577.012,186.693L577.012,186.692L577.012,186.692L577.013,186.692L577.013,186.692L577.013,186.691L577.013,186.69L577.013,186.69L577.014,186.69L577.014,186.689L577.015,186.688L577.014,186.688L577.013,186.687L577.013,186.687L577.013,186.687L577.013,186.686L577.014,186.686L577.015,186.686L577.015,186.686L577.015,186.686L577.015,186.685L577.014,186.684L577.014,186.684L577.014,186.684L577.015,186.684L577.016,186.684L577.015,186.683L577.016,186.682L577.017,186.681L577.017,186.681L577.017,186.68L577.017,186.679L577.017,186.679L577.018,186.679L577.019,186.679L577.019,186.679L577.02,186.679L577.02,186.677L577.02,186.677L577.021,186.677L577.022,186.676L577.022,186.674L577.022,186.673L577.022,186.673L577.022,186.672L577.023,186.671L577.023,186.671L577.023,186.67L577.023,186.671L577.024,186.671L577.024,186.671L577.025,186.671L577.025,186.671L577.026,186.671L577.026,186.671L577.027,186.671L577.027,186.672L577.027,186.672L577.027,186.671L577.028,186.671L577.028,186.671L577.029,186.671L577.029,186.671L577.029,186.67L577.029,186.67L577.03,186.67L577.03,186.669L577.03,186.669L577.031,186.669L577.031,186.669L577.031,186.669L577.031,186.668L577.031,186.668L577.032,186.668L577.032,186.668L577.032,186.668L577.032,186.668L577.033,186.668L577.033,186.667L577.034,186.667L577.034,186.666L577.035,186.666L577.035,186.666L577.037,186.667L577.037,186.667L577.037,186.667L577.037,186.667L577.037,186.666L577.038,186.666L577.038,186.666L577.038,186.666L577.038,186.666L577.039,186.665L577.039,186.664L577.039,186.664L577.04,186.663L577.04,186.663L577.04,186.662L577.041,186.663L577.042,186.662L577.042,186.662L577.043,186.663L577.043,186.664L577.043,186.664L577.043,186.663L577.044,186.663L577.044,186.663L577.045,186.662L577.045,186.662L577.045,186.662L577.045,186.661L577.045,186.661L577.046,186.661L577.046,186.662L577.046,186.663L577.047,186.662L577.047,186.662L577.047,186.663L577.048,186.663L577.057,186.658L577.06,186.656L577.07,186.65L577.066,186.643L577.064,186.641L577.071,186.639L577.074,186.639L577.078,186.638L577.081,186.637L577.084,186.637L577.088,186.636L577.094,186.635L577.096,186.634L577.099,186.633L577.134,186.626L577.141,186.624L577.138,186.633L577.13,186.633L577.133,186.638L577.141,186.644L577.154,186.631L577.155,186.629L577.158,186.627L577.162,186.625L577.166,186.623L577.171,186.62L577.176,186.62L577.181,186.613L577.191,186.598L577.198,186.584L577.202,186.582L577.202,186.576L577.211,186.575L577.222,186.576L577.224,186.572L577.227,186.567L577.245,186.563L577.253,186.549L577.266,186.54L577.283,186.535L577.291,186.533L577.298,186.53L577.3,186.529L577.301,186.529L577.303,186.528L577.304,186.528L577.306,186.528L577.321,186.522L577.325,186.518L577.329,186.514L577.337,186.508L577.342,186.506L577.347,186.508L577.348,186.505L577.338,186.502L577.333,186.501L577.33,186.5L577.326,186.503L577.326,186.512L577.324,186.514L577.321,186.515L577.32,186.516L577.314,186.511L577.313,186.509L577.316,186.505L577.326,186.494L577.323,186.492L577.325,186.487L577.326,186.485L577.327,186.485L577.328,186.484L577.328,186.483L577.329,186.483L577.336,186.477L577.342,186.471L577.345,186.467L577.349,186.464L577.353,186.461L577.355,186.459L577.356,186.454L577.356,186.452L577.357,186.45L577.359,186.449L577.367,186.459L577.368,186.46L577.373,186.466L577.379,186.473L577.381,186.476L577.386,186.481L577.388,186.484L577.39,186.486L577.39,186.486L577.392,186.482L577.394,186.483L577.394,186.482L577.396,186.483L577.401,186.491L577.405,186.497L577.405,186.498L577.406,186.498L577.407,186.498L577.408,186.498L577.408,186.497L577.409,186.497L577.41,186.497L577.412,186.497L577.418,186.493L577.419,186.492L577.422,186.493L577.429,186.493L577.429,186.492L577.431,186.491L577.431,186.49L577.431,186.489L577.431,186.489L577.432,186.488L577.432,186.487L577.435,186.487L577.436,186.487L577.436,186.487L577.436,186.486L577.436,186.486L577.437,186.486L577.438,186.486L577.438,186.485L577.438,186.485L577.438,186.484L577.438,186.484L577.438,186.483L577.438,186.483L577.439,186.482L577.439,186.482L577.44,186.482L577.442,186.482L577.442,186.482L577.443,186.482L577.443,186.481L577.443,186.481L577.444,186.481L577.444,186.481L577.445,186.48L577.445,186.48L577.446,186.479L577.448,186.477L577.449,186.476L577.45,186.475L577.451,186.474L577.451,186.473L577.452,186.473L577.452,186.473L577.453,186.472L577.454,186.47L577.454,186.469L577.455,186.469L577.475,186.464L577.479,186.463L577.485,186.475L577.488,186.48L577.507,186.47L577.508,186.469L577.509,186.469L577.509,186.468L577.51,186.468L577.51,186.468L577.511,186.467L577.511,186.466L577.511,186.466L577.512,186.466L577.512,186.466L577.512,186.466L577.513,186.466L577.514,186.466L577.515,186.466L577.517,186.466L577.517,186.466L577.517,186.467L577.518,186.467L577.518,186.468L577.519,186.468L577.52,186.468L577.52,186.468L577.521,186.468L577.521,186.468L577.521,186.467L577.521,186.466L577.522,186.465L577.522,186.465L577.522,186.465L577.523,186.465L577.523,186.465L577.523,186.465L577.523,186.465L577.524,186.465L577.524,186.465L577.525,186.465L577.525,186.466L577.526,186.466L577.527,186.468L577.527,186.469L577.528,186.469L577.528,186.47L577.527,186.475L577.524,186.487L577.528,186.492L577.527,186.497L577.532,186.496L577.536,186.494L577.538,186.493L577.539,186.493L577.54,186.495L577.551,186.49L577.554,186.488L577.568,186.484L577.579,186.481L577.582,186.479L577.585,186.477L577.594,186.471L577.6,186.467L577.602,186.466L577.606,186.464L577.609,186.462L577.63,186.448L577.631,186.445L577.636,186.441L577.631,186.439L577.633,186.438L577.639,186.432L577.644,186.44L577.671,186.442L577.674,186.45L577.685,186.456L577.699,186.456L577.707,186.467L577.713,186.475L577.714,186.478L577.731,186.491L577.74,186.5L577.745,186.516L577.753,186.53L577.76,186.541L577.769,186.536L577.774,186.534L577.774,186.533L577.776,186.531L577.781,186.526L577.782,186.526L577.782,186.526L577.783,186.526L577.784,186.525L577.784,186.525L577.784,186.525L577.784,186.525L577.784,186.525L577.785,186.524L577.785,186.524L577.785,186.524L577.785,186.524L577.785,186.524L577.785,186.524L577.785,186.524L577.786,186.525L577.787,186.524L577.787,186.524L577.787,186.524L577.787,186.524L577.787,186.524L577.788,186.524L577.788,186.523L577.788,186.523L577.789,186.523L577.789,186.523L577.789,186.522L577.789,186.522L577.789,186.522L577.789,186.522L577.789,186.522L577.79,186.522L577.79,186.522L577.79,186.522L577.79,186.522L577.79,186.522L577.79,186.522L577.79,186.521L577.79,186.521L577.791,186.521L577.791,186.521L577.791,186.521L577.792,186.521L577.792,186.521L577.792,186.521L577.792,186.521L577.792,186.521L577.792,186.521L577.792,186.521L577.793,186.521L577.793,186.52L577.793,186.52L577.793,186.52L577.793,186.52L577.793,186.52L577.793,186.52L577.793,186.52L577.794,186.519L577.794,186.519L577.794,186.519L577.794,186.519L577.794,186.519L577.795,186.519L577.795,186.519L577.795,186.519L577.796,186.519L577.795,186.518L577.795,186.518L577.796,186.518L577.796,186.518L577.796,186.518L577.796,186.518L577.796,186.518L577.797,186.518L577.797,186.517L577.798,186.517L577.798,186.517L577.798,186.517L577.798,186.517L577.798,186.516L577.799,186.516L577.8,186.515L577.801,186.515L577.801,186.514L577.802,186.514L577.803,186.513L577.804,186.513L577.804,186.512L577.804,186.512L577.804,186.513L577.805,186.513L577.806,186.512L577.806,186.511L577.807,186.511L577.808,186.51L577.809,186.51L577.809,186.509L577.81,186.509L577.81,186.509L577.812,186.508L577.812,186.508L577.813,186.507L577.813,186.507L577.814,186.506L577.814,186.505L577.815,186.505L577.815,186.504L577.815,186.503L577.815,186.503L577.815,186.502L577.815,186.502L577.815,186.501L577.815,186.499L577.816,186.499L577.816,186.498L577.816,186.498L577.82,186.495L577.822,186.493L577.822,186.492L577.822,186.491L577.823,186.49L577.823,186.49L577.822,186.49L577.822,186.49L577.822,186.489L577.823,186.488L577.823,186.487L577.824,186.487L577.824,186.487L577.825,186.487L577.824,186.486L577.824,186.485L577.825,186.485L577.827,186.485L577.828,186.485L577.828,186.484L577.829,186.484L577.829,186.484L577.829,186.484L577.83,186.484L577.83,186.483L577.83,186.483L577.83,186.482L577.831,186.483L577.833,186.482L577.833,186.48L577.833,186.48L577.834,186.48L577.835,186.48L577.835,186.479L577.835,186.479L577.835,186.478L577.835,186.478L577.836,186.479L577.838,186.476L577.839,186.475L577.839,186.476L577.841,186.475L577.841,186.474L577.841,186.473L577.843,186.474L577.844,186.473L577.844,186.472L577.847,186.471L577.845,186.469L577.844,186.467L577.845,186.467L577.846,186.467L577.846,186.468L577.846,186.467L577.847,186.467L577.848,186.467L577.849,186.466L577.85,186.467L577.85,186.466L577.85,186.466L577.851,186.465L577.851,186.466L577.852,186.465L577.852,186.465L577.853,186.465L577.854,186.464L577.854,186.464L577.854,186.464L577.854,186.463L577.854,186.463L577.855,186.463L577.856,186.462L577.855,186.462L577.856,186.461L577.856,186.461L577.857,186.461L577.858,186.46L577.858,186.459L577.858,186.458L577.859,186.457L577.859,186.457L577.86,186.457L577.86,186.457L577.86,186.457L577.861,186.458L577.862,186.458L577.862,186.456L577.863,186.456L577.865,186.457L577.868,186.456L577.868,186.455L577.869,186.455L577.869,186.454L577.869,186.454L577.87,186.454L577.871,186.455L577.872,186.455L577.874,186.455L577.877,186.454L577.878,186.454L577.879,186.453L577.879,186.452L577.88,186.452L577.88,186.452L577.88,186.452L577.881,186.452L577.881,186.453L577.882,186.453L577.883,186.453L577.883,186.452L577.883,186.452L577.884,186.452L577.885,186.452L577.885,186.452L577.885,186.452L577.885,186.452L577.886,186.452L577.887,186.452L577.887,186.453L577.887,186.453L577.889,186.453L577.89,186.451L577.89,186.451L577.89,186.45L577.89,186.45L577.89,186.45L577.89,186.449L577.89,186.449L577.89,186.449L577.89,186.449L577.891,186.449L577.891,186.449L577.892,186.449L577.892,186.449L577.893,186.449L577.893,186.449L577.893,186.448L577.894,186.448L577.894,186.447L577.894,186.445L577.894,186.445L577.894,186.444L577.895,186.444L577.895,186.444L577.895,186.444L577.896,186.445L577.896,186.445L577.896,186.444L577.896,186.444L577.897,186.443L577.897,186.443L577.897,186.443L577.898,186.444L577.898,186.444L577.898,186.444L577.899,186.444L577.899,186.444L577.9,186.444L577.9,186.444L577.901,186.444L577.901,186.443L577.901,186.443L577.901,186.442L577.901,186.442L577.901,186.441L577.901,186.44L577.901,186.44L577.901,186.439L577.901,186.438L577.901,186.438L577.901,186.437L577.901,186.436L577.901,186.435L577.901,186.435L577.901,186.434L577.903,186.434L577.904,186.433L577.904,186.433L577.905,186.433L577.905,186.432L577.905,186.43L577.904,186.429L577.904,186.428L577.903,186.428L577.903,186.427L577.904,186.426L577.904,186.426L577.904,186.426L577.905,186.426L577.905,186.426L577.906,186.427L577.906,186.427L577.907,186.428L577.907,186.428L577.908,186.427L577.909,186.427L577.909,186.426L577.909,186.425L577.908,186.424L577.909,186.423L577.909,186.423L577.909,186.422L577.91,186.422L577.91,186.423L577.911,186.423L577.911,186.422L577.912,186.421L577.912,186.421L577.911,186.42L577.911,186.42L577.912,186.419L577.912,186.419L577.913,186.419L577.913,186.419L577.914,186.42L577.916,186.419L577.917,186.419L577.918,186.418L577.919,186.417L577.919,186.416L577.919,186.415L577.919,186.414L577.919,186.414L577.919,186.414L577.919,186.413L577.919,186.413L577.919,186.412L577.92,186.412L577.92,186.412L577.92,186.411L577.921,186.411L577.921,186.411L577.921,186.411L577.922,186.411L577.922,186.41L577.923,186.41L577.923,186.409L577.923,186.409L577.924,186.409L577.924,186.408L577.924,186.408L577.923,186.407L577.923,186.407L577.923,186.407L577.922,186.407L577.922,186.407L577.922,186.406L577.921,186.406L577.921,186.406L577.921,186.405L577.921,186.405L577.921,186.404L577.922,186.404L577.922,186.404L577.923,186.404L577.923,186.404L577.924,186.404L577.924,186.404L577.925,186.404L577.926,186.403L577.927,186.403L577.927,186.403L577.927,186.403L577.928,186.403L577.929,186.403L577.929,186.403L577.929,186.402L577.929,186.401L577.929,186.401L577.929,186.4L577.93,186.4L577.929,186.399L577.929,186.399L577.929,186.399L577.928,186.4L577.928,186.4L577.927,186.399L577.927,186.399L577.926,186.398L577.925,186.397L577.924,186.396L577.924,186.395L577.924,186.394L577.926,186.394L577.926,186.394L577.927,186.394L577.927,186.393L577.928,186.393L577.928,186.392L577.928,186.391L577.927,186.39L577.927,186.39L577.927,186.389L577.926,186.388L577.926,186.387L577.927,186.387L577.926,186.386L577.926,186.385L577.925,186.383L577.925,186.383L577.926,186.382L577.926,186.382L577.926,186.383L577.927,186.383L577.927,186.383L577.929,186.382L577.93,186.383L577.931,186.383L577.934,186.381L577.934,186.379L577.933,186.379L577.933,186.378L577.933,186.378L577.932,186.377L577.932,186.377L577.933,186.376L577.934,186.375L577.934,186.375L577.933,186.374L577.933,186.375L577.932,186.375L577.931,186.375L577.931,186.375L577.93,186.374L577.93,186.373L577.93,186.373L577.93,186.372L577.93,186.371L577.93,186.371L577.931,186.371L577.932,186.37L577.932,186.369L577.933,186.369L577.934,186.369L577.935,186.369L577.936,186.369L577.937,186.369L577.937,186.368L577.937,186.368L577.937,186.367L577.936,186.367L577.936,186.367L577.935,186.367L577.934,186.367L577.932,186.367L577.931,186.367L577.931,186.367L577.931,186.366L577.93,186.366L577.93,186.365L577.93,186.365L577.931,186.365L577.931,186.364L577.932,186.364L577.932,186.361L577.932,186.36L577.932,186.36L577.932,186.359L577.931,186.359L577.93,186.359L577.929,186.358L577.929,186.358L577.928,186.359L577.928,186.359L577.927,186.359L577.927,186.359L577.926,186.359L577.926,186.359L577.925,186.359L577.925,186.359L577.925,186.358L577.925,186.358L577.925,186.357L577.926,186.356L577.925,186.356L577.925,186.355L577.925,186.355L577.924,186.354L577.924,186.354L577.925,186.353L577.925,186.352L577.925,186.351L577.924,186.35L577.924,186.348L577.936,186.341L577.949,186.329L577.96,186.314L577.961,186.302L577.965,186.291L577.973,186.281L577.984,186.274L577.999,186.264L577.999,186.262L577.998,186.26L577.998,186.26L577.997,186.256L577.996,186.254L577.996,186.252L577.997,186.251L577.997,186.25L577.998,186.246L577.999,186.245L577.999,186.242L577.997,186.24L577.989,186.24L577.986,186.239L577.984,186.237L577.984,186.235L577.987,186.231L577.982,186.227L577.977,186.227L577.975,186.228L577.973,186.23L577.972,186.231L577.963,186.236L577.957,186.238L577.947,186.241L577.946,186.24L577.945,186.239L577.945,186.238L577.943,186.236L577.943,186.235L577.944,186.232L577.946,186.226L577.945,186.226L577.942,186.228L577.942,186.228L577.941,186.229L577.94,186.231L577.94,186.232L577.931,186.224L577.925,186.219L577.923,186.217L577.923,186.216L577.924,186.214L577.927,186.211L577.929,186.209L577.931,186.211L577.932,186.209L577.932,186.209L577.935,186.207L577.935,186.206L577.936,186.206L577.938,186.208L577.938,186.208L577.94,186.223L577.941,186.223L577.943,186.221L577.941,186.212L577.94,186.203L577.948,186.202L577.949,186.205L577.956,186.209L577.96,186.202L577.962,186.203L577.965,186.205L577.972,186.209L577.981,186.213L577.985,186.215L577.987,186.217L577.992,186.219L577.997,186.223L578.001,186.225L578.006,186.229L578.01,186.232L578.014,186.236L578.025,186.245L578.028,186.248L578.031,186.251L578.032,186.252L578.033,186.253L578.034,186.253L578.034,186.254L578.034,186.254L578.034,186.255L578.035,186.256L578.035,186.256L578.047,186.25L578.087,186.238L578.185,186.207L578.235,186.153L578.237,186.151L578.238,186.15L578.238,186.148L578.238,186.147L578.239,186.147L578.239,186.148L578.239,186.148L578.239,186.148L578.24,186.148L578.24,186.148L578.24,186.148L578.24,186.147L578.24,186.146L578.241,186.147L578.241,186.147L578.242,186.147L578.242,186.148L578.242,186.147L578.242,186.147L578.242,186.146L578.242,186.146L578.243,186.145L578.243,186.145L578.244,186.145L578.244,186.144L578.244,186.144L578.245,186.144L578.246,186.144L578.246,186.144L578.246,186.145L578.246,186.145L578.247,186.145L578.247,186.145L578.247,186.145L578.247,186.144L578.247,186.144L578.247,186.144L578.247,186.143L578.247,186.143L578.248,186.142L578.248,186.142L578.248,186.142L578.249,186.142L578.25,186.143L578.25,186.143L578.25,186.142L578.25,186.142L578.249,186.141L578.249,186.141L578.249,186.141L578.248,186.141L578.248,186.141L578.248,186.141L578.248,186.14L578.248,186.14L578.248,186.14L578.248,186.14L578.249,186.14L578.249,186.14L578.249,186.141L578.25,186.141L578.25,186.141L578.251,186.141L578.251,186.141L578.251,186.141L578.251,186.141L578.251,186.141L578.251,186.141L578.25,186.14L578.25,186.14L578.25,186.139L578.25,186.138L578.25,186.138L578.251,186.139L578.251,186.139L578.251,186.139L578.251,186.14L578.251,186.14L578.252,186.139L578.252,186.139L578.252,186.139L578.252,186.138L578.252,186.138L578.252,186.138L578.253,186.137L578.253,186.137L578.253,186.138L578.253,186.138L578.253,186.138L578.253,186.138L578.253,186.139L578.253,186.139L578.254,186.139L578.254,186.14L578.254,186.14L578.254,186.14L578.255,186.139L578.255,186.139L578.255,186.14L578.256,186.14L578.256,186.141L578.256,186.141L578.255,186.141L578.255,186.142L578.255,186.142L578.255,186.142L578.256,186.142L578.256,186.142L578.257,186.141L578.257,186.141L578.257,186.141L578.258,186.141L578.258,186.141L578.258,186.14L578.259,186.14L578.259,186.14L578.259,186.14L578.259,186.139L578.259,186.139L578.259,186.138L578.259,186.138L578.259,186.138L578.259,186.138L578.26,186.138L578.26,186.138L578.26,186.138L578.26,186.137L578.26,186.137L578.26,186.136L578.26,186.136L578.26,186.136L578.261,186.136L578.261,186.136L578.261,186.136L578.262,186.136L578.262,186.136L578.262,186.136L578.263,186.136L578.263,186.136L578.263,186.136L578.265,186.135L578.266,186.135L578.266,186.134L578.265,186.132L578.265,186.132L578.265,186.132L578.265,186.131L578.265,186.131L578.265,186.131L578.265,186.131L578.266,186.131L578.267,186.131L578.267,186.131L578.268,186.131L578.268,186.131L578.269,186.131L578.269,186.132L578.269,186.132L578.268,186.132L578.268,186.132L578.268,186.133L578.268,186.133L578.269,186.133L578.269,186.133L578.269,186.133L578.27,186.133L578.27,186.133L578.271,186.132L578.272,186.134L578.273,186.133L578.273,186.133L578.272,186.132L578.271,186.132L578.272,186.131L578.274,186.132L578.275,186.132L578.275,186.132L578.275,186.133L578.276,186.133L578.276,186.133L578.276,186.133L578.276,186.134L578.276,186.134L578.276,186.134L578.276,186.135L578.276,186.134L578.277,186.134L578.277,186.133L578.277,186.133L578.277,186.132L578.278,186.132L578.278,186.132L578.278,186.131L578.278,186.131L578.278,186.13L578.278,186.13L578.277,186.13L578.277,186.131L578.277,186.131L578.277,186.131L578.277,186.131L578.277,186.131L578.276,186.131L578.277,186.131L578.277,186.13L578.277,186.13L578.276,186.129L578.276,186.129L578.276,186.129L578.277,186.129L578.277,186.129L578.277,186.129L578.278,186.129L578.278,186.129L578.278,186.129L578.278,186.129L578.278,186.128L578.278,186.128L578.279,186.128L578.279,186.128L578.279,186.129L578.279,186.129L578.279,186.129L578.279,186.129L578.28,186.129L578.28,186.128L578.281,186.128L578.281,186.127L578.28,186.127L578.28,186.127L578.28,186.126L578.28,186.126L578.281,186.125L578.282,186.125L578.282,186.124L578.282,186.124L578.282,186.124L578.282,186.124L578.282,186.124L578.282,186.124L578.283,186.124L578.283,186.124L578.283,186.124L578.284,186.124L578.284,186.124L578.284,186.123L578.284,186.123L578.284,186.123L578.285,186.123L578.285,186.123L578.285,186.123L578.286,186.123L578.286,186.123L578.286,186.124L578.287,186.124L578.287,186.124L578.288,186.123L578.288,186.122L578.288,186.122L578.288,186.121L578.288,186.121L578.288,186.121L578.288,186.121L578.288,186.121L578.289,186.121L578.289,186.121L578.29,186.121L578.289,186.12L578.289,186.119L578.289,186.119L578.288,186.119L578.288,186.118L578.288,186.118L578.289,186.118L578.289,186.118L578.29,186.119L578.29,186.119L578.29,186.119L578.291,186.118L578.291,186.118L578.291,186.117L578.291,186.117L578.291,186.117L578.291,186.117L578.292,186.117L578.292,186.118L578.292,186.118L578.292,186.118L578.292,186.118L578.292,186.119L578.292,186.119L578.292,186.119L578.293,186.119L578.293,186.119L578.293,186.119L578.294,186.119L578.294,186.119L578.294,186.119L578.294,186.119L578.294,186.119L578.294,186.12L578.294,186.12L578.294,186.12L578.295,186.12L578.295,186.12L578.295,186.119L578.295,186.119L578.296,186.118L578.296,186.118L578.296,186.118L578.295,186.117L578.295,186.117L578.295,186.117L578.296,186.117L578.296,186.117L578.296,186.117L578.297,186.117L578.297,186.117L578.298,186.116L578.298,186.116L578.298,186.116L578.299,186.116L578.299,186.116L578.299,186.116L578.299,186.115L578.298,186.115L578.298,186.115L578.298,186.115L578.298,186.114L578.298,186.114L578.298,186.113L578.299,186.112L578.299,186.112L578.299,186.112L578.3,186.113L578.3,186.113L578.299,186.113L578.299,186.114L578.299,186.114L578.299,186.114L578.299,186.115L578.299,186.115L578.299,186.115L578.3,186.114L578.3,186.114L578.301,186.114L578.301,186.113L578.301,186.113L578.301,186.113L578.301,186.113L578.301,186.112L578.301,186.112L578.301,186.112L578.302,186.112L578.302,186.112L578.302,186.112L578.302,186.112L578.302,186.113L578.302,186.113L578.302,186.113L578.302,186.113L578.301,186.114L578.301,186.114L578.302,186.114L578.302,186.114L578.303,186.115L578.303,186.115L578.304,186.114L578.304,186.114L578.304,186.114L578.305,186.113L578.305,186.113L578.305,186.113L578.305,186.113L578.305,186.113L578.305,186.112L578.306,186.113L578.306,186.113L578.306,186.113L578.306,186.112L578.306,186.112L578.306,186.111L578.306,186.111L578.305,186.111L578.305,186.11L578.306,186.11L578.306,186.11L578.307,186.111L578.308,186.111L578.308,186.11L578.308,186.11L578.308,186.109L578.308,186.109L578.309,186.109L578.309,186.11L578.309,186.111L578.309,186.111L578.31,186.112L578.31,186.112L578.31,186.112L578.31,186.112L578.31,186.111L578.31,186.111L578.31,186.11L578.31,186.11L578.311,186.11L578.311,186.11L578.312,186.109L578.313,186.108L578.313,186.107L578.312,186.107L578.31,186.106L578.31,186.106L578.31,186.104L578.309,186.104L578.309,186.103L578.309,186.103L578.309,186.102L578.31,186.102L578.31,186.102L578.31,186.102L578.31,186.102L578.311,186.102L578.311,186.101L578.311,186.101L578.31,186.101L578.31,186.101L578.31,186.101L578.309,186.101L578.309,186.1L578.309,186.1L578.309,186.1L578.309,186.1L578.309,186.1L578.309,186.1L578.308,186.1L578.308,186.099L578.308,186.099L578.309,186.098L578.309,186.097L578.31,186.097L578.31,186.097L578.31,186.096L578.309,186.095L578.309,186.095L578.309,186.095L578.309,186.094L578.309,186.094L578.31,186.094L578.311,186.094L578.312,186.094L578.312,186.094L578.312,186.093L578.311,186.093L578.311,186.093L578.311,186.093L578.31,186.093L578.309,186.093L578.308,186.093L578.308,186.093L578.308,186.093L578.309,186.092L578.309,186.092L578.309,186.092L578.31,186.092L578.31,186.092L578.31,186.091L578.311,186.091L578.31,186.091L578.31,186.091L578.31,186.091L578.309,186.091L578.309,186.091L578.309,186.091L578.309,186.091L578.309,186.091L578.309,186.091L578.309,186.091L578.308,186.091L578.308,186.09L578.308,186.09L578.309,186.09L578.309,186.09L578.309,186.089L578.309,186.089L578.309,186.089L578.309,186.089L578.31,186.088L578.31,186.088L578.311,186.088L578.311,186.088L578.311,186.089L578.311,186.089L578.311,186.089L578.311,186.089L578.312,186.089L578.312,186.089L578.312,186.088L578.313,186.088L578.313,186.087L578.313,186.087L578.314,186.088L578.315,186.087L578.315,186.087L578.315,186.087L578.316,186.087L578.316,186.086L578.316,186.086L578.317,186.086L578.317,186.086L578.317,186.085L578.317,186.085L578.317,186.085L578.317,186.084L578.317,186.084L578.317,186.084L578.318,186.084L578.319,186.085L578.319,186.084L578.32,186.084L578.32,186.084L578.32,186.084L578.32,186.083L578.32,186.083L578.32,186.082L578.32,186.082L578.32,186.082L578.32,186.081L578.32,186.081L578.321,186.081L578.321,186.081L578.321,186.082L578.321,186.082L578.321,186.082L578.322,186.082L578.322,186.081L578.322,186.081L578.322,186.081L578.322,186.08L578.322,186.08L578.322,186.079L578.322,186.079L578.322,186.079L578.322,186.079L578.322,186.079L578.323,186.079L578.323,186.079L578.323,186.079L578.324,186.079L578.324,186.078L578.324,186.078L578.324,186.077L578.324,186.077L578.324,186.077L578.324,186.078L578.324,186.078L578.325,186.078L578.325,186.077L578.325,186.077L578.323,186.072L578.324,186.069L578.326,186.068L578.326,186.068L578.326,186.068L578.326,186.067L578.327,186.067L578.327,186.067L578.328,186.067L578.328,186.066L578.329,186.066L578.329,186.066L578.33,186.066L578.33,186.066L578.331,186.066L578.331,186.066L578.331,186.066L578.331,186.067L578.331,186.067L578.331,186.068L578.33,186.068L578.33,186.069L578.331,186.069L578.331,186.068L578.332,186.069L578.332,186.07L578.332,186.07L578.332,186.071L578.332,186.071L578.333,186.07L578.333,186.069L578.333,186.068L578.333,186.068L578.333,186.069L578.333,186.07L578.334,186.071L578.334,186.071L578.334,186.07L578.336,186.07L578.339,186.069L578.341,186.068L578.342,186.069L578.342,186.064L578.346,186.064L578.348,186.06L578.352,186.059L578.355,186.053L578.357,186.051L578.36,186.051L578.363,186.052L578.366,186.053L578.372,186.049L578.371,186.046L578.374,186.045L578.373,186.042L578.377,186.041L578.379,186.039L578.379,186.04L578.383,186.042L578.385,186.04L578.385,186.038L578.386,186.04L578.39,186.036L578.393,186.037L578.394,186.032L578.396,186.032L578.398,186.029L578.401,186.031L578.401,186.029L578.404,186.029L578.405,186.025L578.409,186.024L578.412,186.025L578.415,186.021L578.418,186.022L578.42,186.021L578.422,186.016L578.428,186.018L578.429,186.014L578.432,186.013L578.434,186.01L578.437,186.01L578.439,186.012L578.442,186.011L578.443,186.006L578.446,186.007L578.448,186.005L578.45,186.006L578.452,186.003L578.458,186.004L578.46,186.002L578.463,186.004L578.474,186.004L578.475,186.001L578.477,186L578.481,186.002L578.482,185.999L578.486,185.999L578.501,186.001L578.518,186.002L578.528,186.003L578.547,186.004L578.577,186.007L578.579,185.977L578.579,185.977L578.581,185.95L578.582,185.934L578.582,185.921L578.583,185.907L578.584,185.892L578.6,185.893L578.616,185.895L578.617,185.895L578.643,185.897L578.652,185.897L578.718,185.902L578.73,185.903L578.746,185.904L578.749,185.879L578.75,185.874L578.751,185.862L578.753,185.853L578.784,185.855L578.839,185.858L578.843,185.859L578.851,185.859L578.918,185.864L578.955,185.867L578.961,185.868L578.966,185.868L578.983,185.869L578.988,185.869L578.983,185.928L578.981,185.948L578.98,185.96L578.978,185.985L578.978,185.986L578.976,186.013L578.976,186.015L578.974,186.042L578.973,186.052L578.972,186.071L578.972,186.078L578.97,186.1L578.968,186.128L578.967,186.146L578.967,186.152L578.966,186.157L578.972,186.157L578.982,186.158L578.989,186.159L578.995,186.159L578.998,186.159L579.005,186.16L579.008,186.16L579.021,186.161L579.024,186.161L579.026,186.161L579.03,186.162L579.039,186.162L579.049,186.163L579.051,186.163L579.052,186.163L579.052,186.164L579.052,186.164L579.052,186.164L579.048,186.22L579.046,186.248L579.044,186.277L579.043,186.29L579.046,186.294L579.048,186.297L579.047,186.304L579.045,186.319L579.045,186.322L579.045,186.327L579.045,186.328L579.043,186.341L579.043,186.354L579.041,186.367L579.1,186.372L579.107,186.377L579.111,186.377L579.112,186.377L579.113,186.378L579.114,186.379L579.116,186.38L579.116,186.379L579.118,186.379L579.123,186.382L579.13,186.386L579.131,186.387L579.169,186.363L579.173,186.391L579.179,186.407L579.188,186.406L579.202,186.407L579.207,186.408L579.218,186.409L579.235,186.412L579.243,186.415L579.271,186.415L579.326,186.412L579.335,186.412L579.354,186.421L579.371,186.429L579.386,186.435L579.39,186.434L579.391,186.429L579.393,186.422L579.395,186.405L579.398,186.409L579.401,186.411L579.404,186.414L579.416,186.424L579.424,186.419L579.448,186.416L579.452,186.418L579.456,186.425L579.462,186.428L579.475,186.432L579.478,186.434L579.479,186.438L579.488,186.437L579.498,186.439L579.507,186.44L579.542,186.446L579.57,186.448L579.585,186.451L579.617,186.456L579.653,186.458L579.702,186.46L579.724,186.465L579.761,186.476L579.794,186.488L579.806,186.473L579.815,186.478L579.821,186.484L579.829,186.493L579.854,186.524L579.861,186.537L579.866,186.552L579.875,186.569L579.879,186.582L579.889,186.608L579.856,186.62L579.881,186.665L579.886,186.722L579.884,186.755L579.881,186.789L579.911,186.772L579.912,186.766L579.915,186.765L579.916,186.771L579.918,186.772L579.918,186.778L579.921,186.783L579.928,186.794L579.933,186.787L579.937,186.794L579.94,186.794L579.94,186.797L579.944,186.798L579.951,186.804L579.954,186.805L579.958,186.807L579.961,186.812L579.967,186.815L579.966,186.818L579.974,186.832L579.978,186.829L579.983,186.838L579.996,186.83L579.999,186.837L580.004,186.851L580.006,186.86L580.006,186.87L579.998,186.879L579.972,186.901L579.95,186.926L579.946,186.934L579.947,186.938L579.956,186.946L579.985,186.965L580.023,186.99L580.058,187.007L580.067,187.004L580.072,186.997L580.074,186.983L580.073,186.974L580.076,186.973L580.084,186.976L580.09,186.981L580.092,186.983L580.092,186.986L580.093,186.986L580.094,186.984L580.095,186.983L580.097,186.983L580.103,186.986L580.111,186.991L580.115,186.995L580.122,186.995L580.131,187.003L580.143,187.005L580.155,187.011L580.163,187.015L580.174,187.02L580.181,187.019L580.183,187.016L580.185,187.009L580.195,187.007L580.198,187.008L580.209,187.009L580.224,187.012L580.24,187.012L580.264,187.018L580.289,187.027L580.305,187.027L580.332,187.041L580.328,187.046L580.341,187.055L580.344,187.055L580.348,187.058L580.351,187.062L580.354,187.062L580.361,187.07L580.364,187.076L580.37,187.092L580.396,187.109L580.397,187.113L580.4,187.113L580.403,187.114L580.404,187.116L580.401,187.118L580.399,187.119L580.397,187.116L580.4,187.125L580.399,187.129L580.391,187.142L580.386,187.147L580.38,187.152L580.379,187.156L580.378,187.161L580.374,187.169L580.371,187.179L580.367,187.181L580.363,187.183L580.351,187.182L580.35,187.185L580.354,187.191L580.355,187.195L580.366,187.208L580.38,187.213L580.418,187.243L580.43,187.254L580.437,187.261L580.46,187.285L580.471,187.297L580.479,187.298L580.5,187.289L580.505,187.292L580.509,187.299L580.516,187.302L580.522,187.308L580.527,187.31L580.552,187.323L580.601,187.336L580.636,187.343L580.659,187.342L580.699,187.343L580.75,187.341L580.752,187.335L580.752,187.334L580.752,187.333L580.752,187.332L580.752,187.332L580.751,187.331L580.751,187.331L580.75,187.33L580.731,187.331L580.718,187.329L580.705,187.327L580.693,187.316L580.678,187.302L580.681,187.286L580.676,187.28L580.677,187.262L580.674,187.261L580.663,187.259L580.665,187.248L580.666,187.246L580.666,187.246L580.663,187.245L580.66,187.245L580.657,187.245L580.652,187.244L580.65,187.243L580.649,187.243L580.644,187.24L580.64,187.24L580.64,187.228L580.642,187.22L580.643,187.217L580.644,187.216L580.644,187.215L580.645,187.213L580.648,187.206L580.651,187.197L580.657,187.182L580.657,187.18L580.658,187.18L580.667,187.156L580.667,187.155L580.667,187.154L580.668,187.152L580.669,187.15L580.682,187.116L580.692,187.089L580.729,187.067L580.744,187.057L580.756,187.05L580.759,187.048L580.79,187.026L580.798,187.028L580.808,187.031L580.815,187.033L580.818,187.034L580.838,187.039L580.849,187.039L580.865,187.039L580.87,187.04L580.892,187.034L580.893,187.033L580.898,187.031L580.911,187.021L580.916,187.018L580.932,187.01L580.952,187.001L580.953,187.004L580.954,187.006L580.956,187.006L580.957,187.006L580.957,187.007L580.955,187.008L580.956,187.012L580.96,187.013L580.963,186.999L580.989,186.998L581.003,186.998L581.011,187.002L581.018,187.001L581.024,187.003L581.023,187.008L581.03,187.009L581.033,187.001L581.045,187.001L581.093,187.018L581.094,187.022L581.102,187.022L581.11,187.019L581.112,187.008L581.114,186.996L581.158,186.971L581.161,186.963L581.163,186.951L581.165,186.943L581.169,186.928L581.171,186.921L581.172,186.914L581.173,186.912L581.169,186.904L581.171,186.896L581.171,186.889L581.176,186.879L581.172,186.853L581.177,186.851L581.186,186.848L581.191,186.842L581.198,186.833L581.202,186.824L581.202,186.82L581.205,186.813L581.208,186.812L581.21,186.795L581.205,186.795L581.187,186.795L581.184,186.793L581.178,186.789L581.172,186.784L581.166,186.78L581.168,186.777L581.145,186.758L581.169,186.721L581.186,186.715L581.188,186.703L581.19,186.692L581.176,186.67L581.176,186.669L581.167,186.667L581.158,186.663L581.153,186.66L581.156,186.656L581.173,186.64L581.18,186.634L581.196,186.624L581.209,186.634L581.194,186.659L581.209,186.665L581.224,186.672L581.23,186.678L581.23,186.682L581.23,186.69L581.235,186.702L581.235,186.713L581.247,186.713L581.26,186.696L581.268,186.692L581.295,186.664L581.303,186.666L581.311,186.667L581.312,186.668L581.331,186.669L581.354,186.67L581.361,186.672L581.363,186.672L581.369,186.687L581.377,186.687L581.383,186.686L581.382,186.676L581.382,186.672L581.384,186.665L581.384,186.66L581.386,186.649L581.393,186.638L581.393,186.636L581.393,186.636L581.394,186.629L581.393,186.622L581.393,186.621L581.393,186.621L581.393,186.621L581.393,186.621L581.393,186.617L581.393,186.614L581.392,186.611L581.392,186.608L581.392,186.607L581.389,186.604L581.386,186.6L581.385,186.598L581.383,186.594L581.383,186.594L581.385,186.588L581.388,186.577L581.388,186.573L581.394,186.558L581.403,186.556L581.409,186.555L581.41,186.548L581.409,186.54L581.409,186.535L581.41,186.524L581.41,186.519L581.412,186.51L581.414,186.498L581.414,186.494L581.414,186.49L581.423,186.486L581.434,186.482L581.438,186.48L581.44,186.479L581.45,186.471L581.453,186.46L581.458,186.459L581.463,186.457L581.467,186.453L581.475,186.448L581.483,186.444L581.491,186.439L581.506,186.447L581.514,186.447L581.525,186.444L581.532,186.442L581.535,186.441L581.539,186.442L581.546,186.442L581.549,186.442L581.551,186.439L581.557,186.432L581.565,186.429L581.57,186.425L581.573,186.424L581.576,186.423L581.579,186.421L581.584,186.389L581.584,186.389L581.584,186.385L581.584,186.385L581.585,186.381L581.585,186.381L581.585,186.381L581.585,186.381L581.586,186.372L581.588,186.363L581.59,186.356L581.598,186.349L581.605,186.349L581.609,186.35L581.635,186.351L581.638,186.314L581.64,186.297L581.641,186.284L581.639,186.274L581.638,186.263L581.641,186.237L581.647,186.235L581.647,186.239L581.648,186.24L581.65,186.242L581.658,186.24L581.659,186.234L581.665,186.236L581.671,186.235L581.676,186.236L581.682,186.234L581.678,186.229L581.678,186.229L581.678,186.228L581.683,186.225L581.699,186.241L581.712,186.243L581.72,186.252L581.729,186.262L581.729,186.263L581.729,186.263L581.736,186.272L581.74,186.274L581.748,186.268L581.749,186.268L581.753,186.268L581.754,186.257L581.755,186.253L581.751,186.249L581.766,186.238L581.769,186.235L581.769,186.235L581.769,186.234L581.769,186.234L581.769,186.229L581.769,186.218L581.772,186.218L581.774,186.218L581.783,186.219L581.777,186.215L581.775,186.213L581.769,186.209L581.769,186.209L581.763,186.205L581.759,186.202L581.757,186.201L581.751,186.196L581.747,186.194L581.747,186.194L581.747,186.194L581.743,186.192L581.743,186.191L581.734,186.174L581.734,186.167L581.734,186.167L581.733,186.166L581.733,186.166L581.727,186.163L581.719,186.158L581.714,186.155L581.71,186.141L581.71,186.141L581.71,186.14L581.71,186.14L581.709,186.138L581.709,186.138L581.707,186.132L581.703,186.138L581.7,186.143L581.696,186.15L581.693,186.154L581.693,186.154L581.691,186.158L581.69,186.159L581.69,186.159L581.688,186.163L581.686,186.166L581.684,186.171L581.683,186.171L581.683,186.172L581.676,186.175L581.668,186.178L581.668,186.174L581.643,186.171L581.619,186.169L581.597,186.167L581.567,186.163L581.564,186.162L581.563,186.162L581.561,186.156L581.558,186.146L581.556,186.139L581.552,186.126L581.547,186.107L581.54,186.081L581.539,186.077L581.537,186.07L581.539,186.068L581.551,186.056L581.558,186.051L581.573,186.042L581.583,186.036L581.586,186.035L581.622,186.013L581.626,186.011L581.634,186.009L581.645,186.006L581.676,185.997L581.712,185.986L581.72,185.984L581.727,185.969L581.73,185.961L581.72,185.946L581.716,185.93L581.72,185.913L581.721,185.911L581.748,185.887L581.759,185.873L581.735,185.863L581.744,185.831L581.746,185.825L581.753,185.804L581.783,185.803L581.781,185.814L581.788,185.813L581.789,185.807L581.796,185.799L581.799,185.8L581.8,185.833L581.807,185.825L581.829,185.82L581.84,185.808L581.849,185.798L581.85,185.782L581.849,185.773L581.847,185.766L581.849,185.763L581.85,185.762L581.859,185.746L581.859,185.743L581.859,185.743L581.858,185.739L581.857,185.73L581.88,185.733L581.887,185.747L581.889,185.762L581.89,185.769L581.889,185.769L581.903,185.769L581.908,185.769L581.914,185.766L581.935,185.756L581.942,185.755L581.951,185.755L581.952,185.76L581.952,185.764L581.963,185.774L581.987,185.741L581.951,185.73L581.947,185.716L581.945,185.666L581.947,185.666L581.97,185.667L581.997,185.667L582.026,185.667L582.029,185.661L582.039,185.655L582.043,185.675L582.042,185.682L582.044,185.688L582.043,185.696L582.049,185.703L582.052,185.715L582.054,185.718L582.061,185.726L582.065,185.732L582.071,185.741L582.078,185.747L582.086,185.755L582.089,185.76L582.089,185.766L582.088,185.78L582.088,185.788L582.089,185.788L582.092,185.789L582.096,185.79L582.099,185.792L582.102,185.795L582.104,185.796L582.108,185.793L582.111,185.794L582.114,185.794L582.117,185.794L582.12,185.794L582.123,185.794L582.125,185.794L582.129,185.795L582.131,185.795L582.134,185.797L582.136,185.798L582.139,185.8L582.143,185.8L582.145,185.802L582.147,185.802L582.149,185.803L582.151,185.804L582.152,185.805L582.154,185.808L582.156,185.81L582.159,185.812L582.161,185.814L582.164,185.817L582.166,185.82L582.168,185.822L582.169,185.822L582.169,185.822L582.17,185.821L582.17,185.822L582.17,185.823L582.17,185.823L582.17,185.824L582.171,185.824L582.172,185.824L582.173,185.824L582.174,185.826L582.174,185.827L582.175,185.828L582.175,185.829L582.176,185.831L582.176,185.831L582.177,185.832L582.177,185.832L582.178,185.832L582.178,185.832L582.178,185.832L582.179,185.833L582.179,185.834L582.179,185.834L582.18,185.835L582.18,185.836L582.181,185.836L582.182,185.836L582.182,185.836L582.183,185.836L582.183,185.836L582.183,185.836L582.184,185.838L582.186,185.84L582.187,185.84L582.187,185.841L582.188,185.841L582.189,185.841L582.19,185.841L582.19,185.841L582.19,185.84L582.191,185.84L582.191,185.841L582.191,185.841L582.191,185.841L582.191,185.841L582.192,185.841L582.192,185.841L582.193,185.841L582.193,185.84L582.193,185.84L582.193,185.84L582.193,185.84L582.193,185.84L582.193,185.84L582.194,185.84L582.194,185.841L582.194,185.841L582.195,185.841L582.196,185.841L582.197,185.841L582.197,185.841L582.198,185.841L582.199,185.841L582.199,185.841L582.2,185.842L582.2,185.841L582.2,185.841L582.2,185.841L582.201,185.841L582.201,185.841L582.201,185.841L582.202,185.841L582.202,185.841L582.202,185.841L582.202,185.841L582.203,185.841L582.203,185.841L582.203,185.84L582.203,185.84L582.204,185.84L582.204,185.841L582.203,185.841L582.203,185.841L582.203,185.842L582.204,185.842L582.204,185.842L582.204,185.843L582.204,185.843L582.204,185.844L582.204,185.844L582.205,185.844L582.205,185.844L582.206,185.845L582.206,185.845L582.206,185.845L582.206,185.845L582.207,185.845L582.207,185.845L582.207,185.845L582.207,185.845L582.208,185.845L582.208,185.845L582.208,185.845L582.209,185.845L582.209,185.845L582.21,185.845L582.21,185.845L582.211,185.845L582.211,185.845L582.212,185.845L582.212,185.845L582.213,185.845L582.214,185.845L582.214,185.845L582.215,185.845L582.215,185.844L582.215,185.844L582.215,185.844L582.215,185.844L582.215,185.844L582.216,185.844L582.216,185.844L582.216,185.844L582.216,185.844L582.217,185.844L582.216,185.845L582.217,185.845L582.217,185.845L582.218,185.845L582.218,185.844L582.218,185.844L582.218,185.844L582.219,185.845L582.219,185.846L582.22,185.846L582.22,185.846L582.22,185.847L582.22,185.847L582.221,185.848L582.221,185.848L582.222,185.848L582.222,185.848L582.223,185.848L582.224,185.848L582.224,185.848L582.225,185.848L582.225,185.847L582.224,185.847L582.224,185.846L582.224,185.846L582.224,185.845L582.224,185.844L582.224,185.844L582.224,185.843L582.224,185.842L582.225,185.841L582.227,185.839L582.228,185.839L582.228,185.838L582.229,185.837L582.229,185.837L582.228,185.836L582.229,185.836L582.23,185.834L582.23,185.833L582.23,185.833L582.23,185.831L582.232,185.83L582.232,185.829L582.231,185.828L582.232,185.826L582.232,185.825L582.233,185.823L582.232,185.822L582.233,185.82L582.234,185.819L582.235,185.818L582.234,185.817L582.234,185.816L582.234,185.816L582.235,185.816L582.235,185.815L582.235,185.814L582.235,185.814L582.234,185.813L582.234,185.813L582.234,185.812L582.234,185.812L582.234,185.811L582.234,185.811L582.234,185.811L582.235,185.81L582.235,185.81L582.235,185.81L582.235,185.81L582.236,185.81L582.236,185.81L582.236,185.809L582.237,185.809L582.237,185.809L582.238,185.809L582.233,185.79L582.23,185.787L582.227,185.786L582.223,185.782L582.221,185.779L582.22,185.778L582.22,185.776L582.219,185.775L582.219,185.76L582.22,185.751L582.225,185.743L582.232,185.738L582.238,185.741L582.243,185.745L582.266,185.746L582.27,185.751L582.271,185.752L582.272,185.753L582.272,185.755L582.272,185.755L582.27,185.757L582.275,185.76L582.278,185.763L582.283,185.767L582.283,185.768L582.279,185.777L582.29,185.781L582.302,185.79L582.324,185.77L582.334,185.744L582.333,185.738L582.332,185.715L582.336,185.702L582.339,185.689L582.341,185.682L582.349,185.645L582.348,185.632L582.344,185.622L582.342,185.618L582.337,185.613L582.334,185.607L582.334,185.595L582.334,185.587L582.333,185.574L582.336,185.568L582.339,185.561L582.343,185.547L582.339,185.528L582.343,185.511L582.346,185.499L582.349,185.486L582.364,185.489L582.392,185.494L582.402,185.43L582.4,185.43L582.394,185.436L582.39,185.443L582.369,185.448L582.365,185.426L582.363,185.416L582.368,185.409L582.373,185.402L582.382,185.405L582.387,185.406L582.393,185.405L582.399,185.423L582.397,185.424L582.397,185.43L582.421,185.42L582.437,185.414L582.447,185.41L582.459,185.405L582.459,185.407L582.448,185.418L582.443,185.422L582.434,185.429L582.418,185.432L582.406,185.486L582.402,185.49L582.406,185.5L582.406,185.507L582.4,185.515L582.403,185.52L582.407,185.526L582.416,185.54L582.419,185.547L582.426,185.561L582.437,185.569L582.442,185.574L582.454,185.565L582.457,185.562L582.473,185.57L582.488,185.57L582.501,185.572L582.51,185.573L582.511,185.574L582.525,185.57L582.535,185.558L582.545,185.552L582.561,185.55L582.574,185.551L582.577,185.549L582.582,185.542L582.589,185.521L582.589,185.518L582.592,185.509L582.597,185.487L582.601,185.48L582.606,185.475L582.607,185.465L582.609,185.459L582.637,185.459L582.638,185.447L582.639,185.441L582.634,185.421L582.634,185.418L582.633,185.403L582.627,185.396L582.625,185.394L582.613,185.376L582.613,185.374L582.602,185.365L582.615,185.36L582.616,185.357L582.617,185.354L582.618,185.351L582.618,185.348L582.618,185.346L582.616,185.327L582.686,185.329L582.698,185.29L582.725,185.282L582.727,185.283L582.751,185.256L582.761,185.255L582.774,185.253L582.779,185.258L582.808,185.289L582.846,185.283L582.846,185.283L582.858,185.271L582.871,185.258L582.888,185.241L582.907,185.243L582.927,185.224L582.934,185.227L582.962,185.241L582.969,185.252L582.973,185.256L582.975,185.26L582.976,185.262L582.977,185.264L583.023,185.332L583.01,185.36L583.01,185.368L582.986,185.387L582.964,185.404L582.952,185.416L582.947,185.42L582.944,185.423L582.918,185.448L582.919,185.454L582.923,185.474L582.953,185.485L582.976,185.492L582.98,185.497L582.982,185.5L582.985,185.501L583.006,185.525L583.083,185.554L583.102,185.561L583.113,185.53L583.143,185.494L583.163,185.493L583.165,185.483L583.169,185.477L583.171,185.472L583.181,185.449L583.199,185.435L583.181,185.418L583.173,185.407L583.183,185.388L583.185,185.386L583.193,185.379L583.202,185.372L583.207,185.369L583.216,185.361L583.222,185.345L583.297,185.351L583.312,185.352L583.311,185.365L583.315,185.366L583.314,185.37L583.313,185.375L583.311,185.383L583.302,185.411L583.3,185.417L583.298,185.422L583.295,185.421L583.295,185.426L583.291,185.435L583.279,185.446L583.261,185.449L583.256,185.454L583.246,185.456L583.214,185.461L583.228,185.484L583.244,185.55L583.284,185.543L583.291,185.537L583.295,185.53L583.308,185.524L583.323,185.512L583.346,185.492L583.353,185.486L583.356,185.479L583.36,185.476L583.364,185.47L583.372,185.467L583.381,185.464L583.388,185.463L583.397,185.463L583.396,185.45L583.396,185.44L583.395,185.424L583.395,185.418L583.4,185.381L583.423,185.376L583.428,185.345L583.465,185.323L583.472,185.319L583.463,185.297L583.466,185.296L583.474,185.292L583.483,185.286L583.492,185.286L583.526,185.284L583.532,185.284L583.536,185.277L583.54,185.271L583.546,185.268L583.558,185.263L583.6,185.244L583.601,185.234L583.61,185.231L583.614,185.223L583.614,185.223L583.616,185.223L583.618,185.221L583.62,185.221L583.621,185.22L583.626,185.214L583.629,185.209L583.63,185.208L583.631,185.206L583.632,185.205L583.639,185.197L583.64,185.195L583.641,185.194L583.642,185.193L583.642,185.192L583.643,185.191L583.644,185.189L583.645,185.189L583.645,185.187L583.646,185.186L583.647,185.185L583.648,185.184L583.648,185.181L583.649,185.179L583.648,185.177L583.651,185.174L583.656,185.17L583.658,185.163L583.669,185.163L583.669,185.147L583.669,185.135L583.655,185.116L583.67,185.098L583.671,185.091L583.672,185.084L583.664,185.079L583.659,185.074L583.645,185.064L583.622,185.048L583.616,185.055L583.6,185.053L583.591,185.052L583.584,185.052L583.56,185.049L583.541,185.047L583.471,185.04L583.457,185.038L583.447,185.037L583.431,185.035L583.423,185.035L583.436,184.994L583.466,184.999L583.469,185L583.473,184.96L583.474,184.953L583.454,184.936L583.449,184.931L583.444,184.924L583.44,184.919L583.439,184.918L583.434,184.917L583.427,184.919L583.425,184.916L583.42,184.916L583.418,184.915L583.418,184.91L583.416,184.905L583.426,184.899L583.418,184.896L583.423,184.888L583.421,184.886L583.419,184.883L583.416,184.885L583.413,184.887L583.411,184.888L583.406,184.882L583.401,184.881L583.397,184.881L583.395,184.879L583.393,184.879L583.389,184.883L583.386,184.878L583.38,184.869L583.383,184.866L583.377,184.859L583.435,184.854L583.436,184.842L583.438,184.818L583.445,184.765L583.458,184.666L583.466,184.648L583.493,184.637L583.494,184.614L583.505,184.49L583.498,184.477L583.507,184.45L583.479,184.447L583.405,184.439L583.411,184.366L583.412,184.345L583.419,184.348L583.42,184.344L583.421,184.342L583.451,184.331L583.443,184.319L583.429,184.322L583.425,184.31L583.421,184.299L583.415,184.288L583.402,184.267L583.386,184.267L583.382,184.266L583.374,184.263L583.368,184.261L583.365,184.261L583.367,184.255L583.368,184.246L583.367,184.219L583.368,184.215L583.355,184.213L583.328,184.232L583.32,184.24L583.317,184.243L583.315,184.244L583.312,184.245L583.311,184.246L583.31,184.246L583.309,184.246L583.308,184.245L583.306,184.246L583.305,184.246L583.304,184.248L583.304,184.248L583.303,184.248L583.303,184.248L583.302,184.248L583.301,184.247L583.299,184.247L583.299,184.247L583.298,184.247L583.298,184.248L583.297,184.248L583.297,184.248L583.297,184.248L583.297,184.248L583.297,184.249L583.297,184.249L583.297,184.248L583.297,184.248L583.296,184.248L583.296,184.248L583.296,184.249L583.296,184.249L583.295,184.249L583.295,184.248L583.295,184.248L583.295,184.248L583.295,184.249L583.294,184.248L583.293,184.249L583.292,184.25L583.291,184.251L583.291,184.251L583.29,184.252L583.29,184.252L583.289,184.252L583.289,184.252L583.288,184.252L583.287,184.252L583.287,184.252L583.286,184.252L583.286,184.252L583.285,184.252L583.285,184.252L583.285,184.252L583.284,184.252L583.284,184.252L583.283,184.252L583.282,184.253L583.282,184.253L583.281,184.253L583.28,184.253L583.28,184.254L583.28,184.254L583.28,184.254L583.279,184.254L583.279,184.254L583.279,184.254L583.279,184.254L583.278,184.254L583.279,184.254L583.279,184.253L583.278,184.253L583.278,184.253L583.278,184.253L583.277,184.253L583.277,184.253L583.277,184.253L583.276,184.252L583.276,184.252L583.276,184.252L583.276,184.252L583.275,184.252L583.275,184.252L583.275,184.251L583.274,184.251L583.274,184.25L583.274,184.25L583.274,184.25L583.274,184.251L583.273,184.251L583.273,184.25L583.273,184.25L583.272,184.25L583.272,184.25L583.272,184.25L583.271,184.25L583.271,184.251L583.27,184.251L583.269,184.252L583.269,184.252L583.269,184.253L583.269,184.253L583.269,184.253L583.269,184.253L583.269,184.254L583.269,184.254L583.269,184.254L583.269,184.255L583.269,184.255L583.27,184.255L583.27,184.255L583.27,184.255L583.27,184.256L583.27,184.256L583.269,184.256L583.268,184.256L583.268,184.256L583.267,184.256L583.267,184.256L583.267,184.257L583.266,184.257L583.266,184.257L583.266,184.257L583.265,184.257L583.265,184.257L583.264,184.257L583.264,184.257L583.264,184.256L583.264,184.256L583.263,184.256L583.263,184.256L583.262,184.257L583.262,184.257L583.262,184.256L583.261,184.256L583.262,184.256L583.261,184.255L583.261,184.255L583.261,184.255L583.261,184.255L583.261,184.254L583.261,184.254L583.261,184.254L583.261,184.254L583.261,184.254L583.26,184.254L583.26,184.254L583.26,184.253L583.259,184.253L583.26,184.253L583.26,184.253L583.26,184.253L583.261,184.253L583.261,184.253L583.261,184.252L583.261,184.252L583.261,184.252L583.261,184.252L583.26,184.252L583.26,184.252L583.258,184.252L583.258,184.252L583.258,184.252L583.258,184.251L583.258,184.251L583.257,184.251L583.257,184.251L583.257,184.251L583.256,184.251L583.256,184.251L583.256,184.251L583.256,184.251L583.256,184.251L583.256,184.25L583.256,184.25L583.257,184.25L583.257,184.25L583.257,184.25L583.256,184.249L583.256,184.249L583.256,184.25L583.256,184.25L583.255,184.25L583.255,184.25L583.255,184.249L583.255,184.249L583.255,184.249L583.255,184.249L583.255,184.249L583.254,184.249L583.254,184.249L583.254,184.249L583.253,184.249L583.253,184.249L583.253,184.249L583.253,184.249L583.253,184.249L583.253,184.25L583.253,184.25L583.253,184.25L583.252,184.25L583.252,184.25L583.251,184.25L583.251,184.25L583.251,184.25L583.251,184.249L583.251,184.249L583.251,184.249L583.25,184.249L583.25,184.249L583.25,184.249L583.249,184.249L583.249,184.249L583.249,184.249L583.249,184.249L583.249,184.249L583.249,184.249L583.249,184.248L583.25,184.248L583.25,184.248L583.25,184.248L583.249,184.248L583.249,184.248L583.249,184.248L583.249,184.248L583.249,184.248L583.249,184.248L583.248,184.248L583.248,184.249L583.248,184.249L583.248,184.249L583.248,184.25L583.248,184.25L583.248,184.25L583.248,184.25L583.248,184.251L583.248,184.251L583.247,184.251L583.247,184.25L583.247,184.25L583.246,184.249L583.246,184.249L583.246,184.248L583.246,184.247L583.246,184.247L583.245,184.247L583.244,184.247L583.244,184.247L583.244,184.247L583.244,184.246L583.244,184.246L583.244,184.246L583.245,184.245L583.245,184.245L583.244,184.245L583.243,184.245L583.243,184.245L583.242,184.245L583.242,184.245L583.243,184.245L583.242,184.244L583.242,184.243L583.241,184.243L583.24,184.242L583.241,184.242L583.241,184.241L583.241,184.241L583.241,184.24L583.242,184.241L583.243,184.241L583.243,184.24L583.244,184.24L583.244,184.24L583.244,184.24L583.244,184.239L583.244,184.238L583.244,184.237L583.245,184.237L583.245,184.237L583.245,184.236L583.245,184.235L583.244,184.234L583.243,184.234L583.243,184.233L583.242,184.233L583.242,184.233L583.242,184.232L583.242,184.232L583.242,184.232L583.241,184.231L583.241,184.232L583.241,184.232L583.241,184.232L583.241,184.232L583.241,184.232L583.241,184.232L583.237,184.229L583.236,184.228L583.236,184.228L583.23,184.222L583.225,184.223L583.224,184.222L583.224,184.222L583.224,184.221L583.224,184.221L583.224,184.219L583.224,184.218L583.224,184.217L583.223,184.216L583.223,184.216L583.223,184.215L583.223,184.215L583.223,184.214L583.224,184.214L583.225,184.214L583.225,184.214L583.226,184.214L583.226,184.214L583.226,184.213L583.225,184.213L583.224,184.212L583.223,184.212L583.222,184.212L583.222,184.211L583.223,184.211L583.223,184.211L583.223,184.21L583.223,184.21L583.223,184.21L583.223,184.209L583.223,184.209L583.222,184.209L583.222,184.209L583.221,184.21L583.221,184.21L583.22,184.211L583.22,184.211L583.22,184.21L583.22,184.21L583.207,184.207L583.203,184.216L583.194,184.21L583.193,184.208L583.182,184.206L583.183,184.203L583.183,184.2L583.181,184.195L583.178,184.193L583.168,184.181L583.155,184.181L583.151,184.178L583.146,184.174L583.139,184.174L583.136,184.175L583.131,184.176L583.129,184.177L583.13,184.172L583.126,184.17L583.122,184.168L583.119,184.166L583.116,184.166L583.11,184.167L583.1,184.168L583.087,184.169L583.087,184.172L583.075,184.173L583.076,184.165L583.076,184.161L583.045,184.158L583.045,184.169L583.046,184.174L583.046,184.183L583.039,184.183L583.033,184.18L583.024,184.174L583.024,184.171L583.019,184.171L583.014,184.169L583.012,184.176L583.009,184.178L583.008,184.182L583.005,184.182L583.004,184.182L583.003,184.182L583,184.183L582.999,184.184L582.999,184.184L582.997,184.184L582.997,184.184L582.99,184.185L582.987,184.187L582.976,184.191L582.955,184.199L582.946,184.202L582.933,184.181L582.909,184.165L582.903,184.16L582.901,184.161L582.897,184.164L582.893,184.158L582.885,184.149L582.895,184.137L582.9,184.13L582.925,184.113L582.924,184.113L582.923,184.112L582.922,184.112L582.92,184.11L582.916,184.108L582.916,184.108L582.916,184.107L582.918,184.099L582.918,184.098L582.917,184.096L582.916,184.091L582.915,184.089L582.915,184.087L582.913,184.083L582.91,184.078L582.902,184.085L582.899,184.086L582.895,184.086L582.891,184.082L582.89,184.076L582.893,184.073L582.894,184.073L582.89,184.067L582.877,184.069L582.879,184.064L582.878,184.061L582.874,184.061L582.868,184.06L582.865,184.061L582.864,184.062L582.858,184.064L582.852,184.067L582.849,184.055L582.843,184.03L582.842,184.023L582.863,184.01L582.877,184.002L582.884,183.998L582.901,183.998L582.935,183.962L582.926,183.949L582.918,183.939L582.913,183.932L582.907,183.903L582.905,183.891L582.899,183.864L582.862,183.859L582.858,183.84L582.852,183.814L582.844,183.794L582.839,183.783L582.819,183.777L582.818,183.773L582.838,183.756L582.838,183.756L582.838,183.755L582.816,183.742L582.813,183.736L582.81,183.727L582.807,183.72L582.806,183.718L582.799,183.696L582.79,183.671L582.791,183.665L582.797,183.666L582.812,183.658L582.823,183.646L582.826,183.639L582.814,183.64L582.809,183.631L582.806,183.626L582.798,183.637L582.797,183.638L582.796,183.638L582.795,183.638L582.795,183.638L582.794,183.638L582.793,183.639L582.793,183.64L582.792,183.641L582.791,183.642L582.79,183.644L582.79,183.645L582.789,183.646L582.789,183.647L582.789,183.649L582.789,183.65L582.789,183.652L582.788,183.653L582.788,183.653L582.787,183.653L582.786,183.653L582.786,183.652L582.785,183.653L582.784,183.653L582.784,183.653L582.783,183.654L582.782,183.656L582.781,183.656L582.78,183.657L582.78,183.657L582.78,183.659L582.779,183.66L582.778,183.661L582.778,183.662L582.778,183.664L582.778,183.664L582.778,183.665L582.776,183.668L582.761,183.662L582.746,183.661L582.742,183.655L582.759,183.632L582.752,183.621L582.75,183.618L582.75,183.614L582.746,183.611L582.741,183.608L582.73,183.604L582.723,183.603L582.695,183.596L582.686,183.588L582.67,183.577L582.66,183.6L582.652,183.617L582.65,183.622L582.648,183.626L582.643,183.638L582.64,183.641L582.632,183.638L582.625,183.636L582.622,183.622L582.598,183.623L582.596,183.639L582.595,183.64L582.572,183.647L582.562,183.65L582.555,183.638L582.537,183.636L582.534,183.665L582.505,183.662L582.501,183.661L582.476,183.659L582.474,183.68L582.473,183.678L582.469,183.672L582.459,183.655L582.452,183.643L582.447,183.639L582.437,183.652L582.422,183.661L582.412,183.668L582.389,183.682L582.388,183.693L582.364,183.688L582.338,183.679L582.329,183.695L582.335,183.711L582.371,183.707L582.371,183.716L582.386,183.718L582.383,183.742L582.372,183.742L582.368,183.763L582.36,183.79L582.359,183.79L582.357,183.789L582.354,183.788L582.352,183.787L582.351,183.787L582.349,183.786L582.347,183.785L582.345,183.785L582.342,183.784L582.34,183.783L582.337,183.782L582.335,183.782L582.334,183.782L582.333,183.782L582.332,183.783L582.332,183.783L582.331,183.784L582.331,183.785L582.331,183.785L582.326,183.79L582.326,183.79L582.324,183.792L582.324,183.792L582.323,183.793L582.322,183.795L582.317,183.8L582.317,183.797L582.317,183.797L582.317,183.795L582.318,183.785L582.319,183.757L582.268,183.739L582.242,183.748L582.234,183.741L582.227,183.745L582.217,183.73L582.214,183.695L582.2,183.7L582.191,183.704L582.188,183.697L582.181,183.701L582.175,183.701L582.159,183.704L582.153,183.706L582.136,183.708L582.13,183.712L582.13,183.712L582.129,183.712L582.129,183.711L582.128,183.711L582.127,183.711L582.127,183.711L582.127,183.711L582.126,183.71L582.126,183.709L582.126,183.709L582.125,183.708L582.125,183.708L582.126,183.707L582.126,183.707L582.126,183.707L582.126,183.706L582.127,183.706L582.127,183.706L582.127,183.706L582.127,183.706L582.126,183.706L582.126,183.705L582.126,183.705L582.125,183.705L582.125,183.705L582.124,183.705L582.124,183.705L582.124,183.705L582.124,183.704L582.124,183.704L582.124,183.703L582.124,183.703L582.124,183.703L582.124,183.703L582.124,183.703L582.124,183.703L582.124,183.703L582.123,183.703L582.123,183.703L582.122,183.703L582.122,183.704L582.121,183.704L582.121,183.704L582.121,183.704L582.121,183.704L582.12,183.704L582.12,183.704L582.12,183.703L582.12,183.702L582.12,183.702L582.12,183.702L582.119,183.702L582.119,183.702L582.119,183.702L582.119,183.702L582.119,183.702L582.119,183.702L582.119,183.702L582.119,183.703L582.119,183.703L582.119,183.703L582.119,183.704L582.119,183.704L582.119,183.704L582.119,183.704L582.118,183.705L582.118,183.705L582.117,183.705L582.117,183.705L582.116,183.704L582.115,183.704L582.115,183.703L582.114,183.702L582.113,183.7L582.113,183.7L582.112,183.7L582.112,183.7L582.112,183.7L582.111,183.701L582.11,183.701L582.11,183.701L582.11,183.701L582.109,183.701L582.109,183.701L582.109,183.701L582.109,183.7L582.108,183.699L582.108,183.699L582.108,183.698L582.108,183.698L582.108,183.698L582.109,183.698L582.11,183.698L582.111,183.698L582.111,183.698L582.111,183.698L582.112,183.697L582.112,183.697L582.112,183.696L582.111,183.696L582.111,183.696L582.11,183.695L582.108,183.695L582.108,183.695L582.107,183.695L582.107,183.695L582.106,183.695L582.106,183.696L582.106,183.696L582.105,183.696L582.105,183.696L582.105,183.696L582.104,183.696L582.104,183.696L582.104,183.695L582.105,183.695L582.105,183.695L582.105,183.695L582.105,183.694L582.105,183.694L582.105,183.694L582.105,183.693L582.105,183.693L582.105,183.693L582.103,183.693L582.101,183.693L582.1,183.693L582.099,183.694L582.098,183.694L582.097,183.694L582.096,183.694L582.095,183.694L582.095,183.694L582.095,183.694L582.094,183.693L582.094,183.692L582.093,183.692L582.093,183.691L582.092,183.691L582.092,183.691L582.091,183.692L582.091,183.692L582.091,183.692L582.09,183.692L582.09,183.692L582.09,183.691L582.09,183.691L582.09,183.69L582.091,183.69L582.091,183.69L582.091,183.689L582.091,183.689L582.091,183.689L582.09,183.689L582.089,183.689L582.089,183.688L582.088,183.688L582.088,183.688L582.088,183.688L582.088,183.687L582.089,183.687L582.089,183.687L582.089,183.686L582.089,183.686L582.089,183.686L582.086,183.684L582.086,183.684L582.085,183.684L582.085,183.684L582.085,183.685L582.084,183.685L582.084,183.684L582.083,183.684L582.082,183.683L582.082,183.683L582.081,183.683L582.081,183.683L582.08,183.683L582.08,183.684L582.08,183.684L582.081,183.685L582.081,183.686L582.08,183.687L582.08,183.687L582.08,183.687L582.079,183.687L582.079,183.687L582.079,183.687L582.079,183.686L582.078,183.686L582.078,183.685L582.079,183.684L582.078,183.683L582.078,183.682L582.077,183.682L582.076,183.681L582.069,183.676L582.07,183.676L582.07,183.676L582.07,183.676L582.07,183.676L582.07,183.676L582.07,183.676L582.07,183.675L582.07,183.675L582.07,183.675L582.071,183.675L582.071,183.675L582.071,183.675L582.071,183.675L582.071,183.675L582.071,183.675L582.071,183.675L582.071,183.675L582.071,183.675L582.072,183.674L582.072,183.674L582.072,183.674L582.072,183.674L582.072,183.674L582.072,183.674L582.072,183.674L582.072,183.674L582.072,183.674L582.072,183.674L582.072,183.674L582.072,183.674L582.072,183.674L582.072,183.674L582.073,183.674L582.073,183.674L582.073,183.673L582.073,183.673L582.073,183.673L582.073,183.673L582.073,183.673L582.073,183.673L582.073,183.673L582.073,183.672L582.073,183.672L582.073,183.672L582.073,183.672L582.073,183.672L582.073,183.672L582.073,183.671L582.073,183.671L582.073,183.671L582.073,183.671L582.073,183.67L582.072,183.67L582.072,183.67L582.072,183.67L582.072,183.67L582.072,183.669L582.072,183.669L582.072,183.669L582.072,183.669L582.072,183.669L582.072,183.669L582.072,183.669L582.072,183.668L582.071,183.668L582.071,183.668L582.071,183.668L582.071,183.668L582.071,183.667L582.071,183.667L582.07,183.667L582.07,183.667L582.07,183.667L582.07,183.666L582.07,183.666L582.07,183.666L582.07,183.665L582.07,183.665L582.07,183.665L582.07,183.665L582.07,183.664L582.07,183.664L582.07,183.664L582.07,183.663L582.07,183.663L582.07,183.662L582.07,183.662L582.07,183.662L582.07,183.662L582.07,183.662L582.07,183.662L582.07,183.661L582.07,183.661L582.07,183.66L582.07,183.66L582.07,183.66L582.07,183.66L582.07,183.659L582.07,183.659L582.07,183.659L582.07,183.658L582.076,183.661L582.08,183.66L582.08,183.659L582.08,183.659L582.08,183.658L582.08,183.657L582.079,183.657L582.079,183.656L582.078,183.656L582.078,183.656L582.078,183.655L582.077,183.654L582.077,183.654L582.077,183.653L582.077,183.653L582.078,183.653L582.078,183.652L582.078,183.651L582.078,183.65L582.078,183.65L582.078,183.65L582.078,183.65L582.079,183.649L582.079,183.65L582.08,183.65L582.081,183.65L582.081,183.65L582.081,183.649L582.081,183.649L582.081,183.649L582.081,183.648L582.081,183.648L582.08,183.648L582.08,183.648L582.08,183.647L582.08,183.646L582.079,183.646L582.079,183.645L582.079,183.645L582.079,183.645L582.08,183.645L582.08,183.645L582.08,183.645L582.08,183.645L582.081,183.645L582.081,183.644L582.081,183.644L582.082,183.643L582.082,183.643L582.082,183.643L582.082,183.642L582.082,183.642L582.082,183.641L582.081,183.641L582.081,183.641L582.081,183.641L582.081,183.641L582.08,183.642L582.08,183.642L582.079,183.642L582.079,183.642L582.079,183.642L582.078,183.642L582.078,183.642L582.078,183.642L582.078,183.643L582.078,183.643L582.078,183.644L582.078,183.644L582.078,183.644L582.077,183.644L582.077,183.643L582.077,183.643L582.077,183.642L582.077,183.641L582.077,183.641L582.077,183.641L582.078,183.64L582.078,183.64L582.078,183.64L582.078,183.64L582.079,183.64L582.079,183.641L582.079,183.641L582.079,183.64L582.079,183.64L582.079,183.64L582.079,183.64L582.079,183.639L582.079,183.639L582.078,183.639L582.077,183.639L582.076,183.64L582.075,183.64L582.075,183.64L582.075,183.64L582.075,183.64L582.074,183.638L582.073,183.636L582.074,183.636L582.074,183.635L582.073,183.635L582.073,183.635L582.073,183.635L582.073,183.635L582.072,183.635L582.072,183.636L582.072,183.637L582.071,183.638L582.071,183.638L582.07,183.638L582.07,183.639L582.07,183.639L582.071,183.639L582.072,183.639L582.072,183.639L582.073,183.639L582.073,183.639L582.074,183.639L582.074,183.64L582.074,183.64L582.074,183.64L582.073,183.641L582.073,183.641L582.072,183.642L582.072,183.642L582.071,183.643L582.07,183.643L582.07,183.643L582.069,183.642L582.068,183.641L582.068,183.641L582.067,183.64L582.067,183.64L582.066,183.641L582.066,183.641L582.066,183.64L582.066,183.64L582.066,183.64L582.066,183.639L582.065,183.638L582.065,183.637L582.065,183.637L582.065,183.636L582.065,183.636L582.065,183.636L582.065,183.635L582.066,183.635L582.066,183.635L582.065,183.634L582.065,183.634L582.064,183.633L582.063,183.633L582.063,183.632L582.063,183.632L582.063,183.632L582.063,183.632L582.063,183.631L582.064,183.631L582.065,183.631L582.066,183.631L582.067,183.631L582.068,183.631L582.069,183.631L582.069,183.631L582.069,183.631L582.07,183.631L582.07,183.631L582.07,183.632L582.07,183.632L582.071,183.632L582.071,183.632L582.072,183.632L582.072,183.632L582.072,183.632L582.072,183.632L582.072,183.631L582.072,183.631L582.072,183.631L582.072,183.63L582.071,183.63L582.071,183.629L582.07,183.629L582.07,183.629L582.069,183.629L582.069,183.629L582.068,183.629L582.067,183.629L582.067,183.629L582.067,183.629L582.066,183.629L582.066,183.628L582.067,183.628L582.067,183.627L582.068,183.627L582.068,183.626L582.068,183.626L582.068,183.626L582.068,183.625L582.067,183.625L582.067,183.625L582.067,183.625L582.067,183.625L582.067,183.624L582.067,183.624L582.068,183.624L582.068,183.624L582.069,183.623L582.069,183.623L582.07,183.623L582.07,183.623L582.07,183.624L582.071,183.624L582.071,183.624L582.071,183.624L582.071,183.623L582.071,183.623L582.071,183.623L582.071,183.623L582.071,183.622L582.07,183.621L582.068,183.62L582.066,183.619L582.066,183.619L582.065,183.619L582.065,183.619L582.065,183.619L582.065,183.618L582.065,183.618L582.065,183.618L582.066,183.618L582.067,183.617L582.067,183.617L582.067,183.617L582.067,183.617L582.067,183.617L582.067,183.616L582.066,183.616L582.065,183.616L582.065,183.616L582.064,183.616L582.064,183.616L582.063,183.616L582.063,183.616L582.063,183.615L582.063,183.615L582.063,183.614L582.064,183.613L582.064,183.612L582.064,183.612L582.064,183.611L582.063,183.611L582.063,183.611L582.063,183.611L582.062,183.611L582.062,183.611L582.062,183.611L582.061,183.611L582.061,183.611L582.061,183.611L582.062,183.61L582.062,183.609L582.062,183.609L582.062,183.608L582.062,183.608L582.061,183.608L582.061,183.608L582.06,183.608L582.06,183.608L582.06,183.608L582.06,183.608L582.06,183.607L582.059,183.606L582.059,183.606L582.059,183.606L582.059,183.606L582.058,183.606L582.057,183.606L582.056,183.607L582.056,183.607L582.055,183.606L582.055,183.606L582.055,183.605L582.055,183.605L582.054,183.605L582.053,183.604L582.052,183.604L582.052,183.604L582.052,183.603L582.052,183.603L582.052,183.602L582.052,183.602L582.052,183.601L582.053,183.601L582.055,183.6L582.055,183.599L582.055,183.599L582.055,183.598L582.055,183.598L582.055,183.597L582.054,183.596L582.054,183.595L582.053,183.595L582.052,183.595L582.052,183.595L582.051,183.594L582.051,183.594L582.051,183.593L582.052,183.592L582.053,183.592L582.053,183.591L582.053,183.591L582.054,183.589L582.054,183.588L582.054,183.588L582.055,183.587L582.056,183.587L582.056,183.585L582.056,183.585L582.056,183.585L582.057,183.584L582.057,183.584L582.057,183.584L582.058,183.585L582.058,183.584L582.058,183.584L582.058,183.584L582.058,183.584L582.058,183.583L582.058,183.582L582.057,183.582L582.056,183.581L582.056,183.581L582.055,183.581L582.055,183.581L582.055,183.581L582.055,183.58L582.055,183.58L582.055,183.58L582.055,183.58L582.057,183.58L582.06,183.58L582.06,183.58L582.061,183.579L582.061,183.579L582.061,183.579L582.061,183.578L582.061,183.578L582.061,183.578L582.061,183.578L582.061,183.577L582.06,183.577L582.06,183.577L582.059,183.577L582.059,183.577L582.059,183.577L582.059,183.578L582.058,183.578L582.058,183.578L582.058,183.578L582.058,183.577L582.045,183.578L582.044,183.571L582.042,183.568L582.039,183.567L582.039,183.564L582.039,183.556L582.036,183.553L582.031,183.549L582.034,183.547L582.034,183.545L582.03,183.545L582.03,183.527L582.02,183.527L582.018,183.517L582.017,183.501L582.013,183.501L582.012,183.5L582.011,183.495L582.013,183.493L582.014,183.492L582.015,183.49L582.014,183.488L582.013,183.486L582.012,183.484L582.012,183.476L582.015,183.475L582.019,183.475L582.019,183.47L582.017,183.468L582.017,183.463L582.021,183.46L582.025,183.461L582.027,183.462L582.032,183.463L582.032,183.458L582.036,183.454L582.033,183.45L582.032,183.444L582.03,183.432L582.023,183.432L582.017,183.43L582.014,183.427L582.012,183.423L582.008,183.421L581.999,183.421L581.964,183.422L581.953,183.407L581.963,183.397L581.978,183.39L581.989,183.374L582.007,183.347L582.015,183.337L582.014,183.332L582.013,183.329L582.005,183.323L581.999,183.328L581.998,183.328L581.997,183.328L581.997,183.328L581.996,183.328L581.996,183.329L581.996,183.329L581.997,183.33L581.996,183.33L581.996,183.33L581.995,183.331L581.994,183.331L581.994,183.331L581.993,183.331L581.993,183.332L581.993,183.333L581.992,183.333L581.992,183.333L581.991,183.333L581.991,183.332L581.99,183.332L581.989,183.331L581.989,183.331L581.988,183.331L581.988,183.331L581.988,183.332L581.986,183.332L581.986,183.333L581.985,183.333L581.984,183.333L581.984,183.333L581.983,183.333L581.983,183.333L581.983,183.333L581.982,183.332L581.981,183.332L581.981,183.331L581.98,183.332L581.98,183.332L581.98,183.332L581.98,183.333L581.979,183.333L581.979,183.333L581.979,183.333L581.979,183.333L581.979,183.332L581.979,183.332L581.979,183.332L581.979,183.332L581.979,183.331L581.978,183.332L581.978,183.332L581.978,183.332L581.978,183.333L581.978,183.333L581.978,183.333L581.977,183.333L581.977,183.333L581.976,183.333L581.975,183.333L581.975,183.333L581.975,183.333L581.975,183.334L581.975,183.334L581.974,183.334L581.973,183.334L581.973,183.333L581.972,183.333L581.972,183.333L581.971,183.333L581.971,183.333L581.971,183.333L581.97,183.333L581.97,183.333L581.97,183.333L581.969,183.334L581.969,183.334L581.969,183.334L581.969,183.335L581.968,183.335L581.968,183.336L581.968,183.336L581.967,183.336L581.967,183.336L581.967,183.336L581.967,183.336L581.966,183.336L581.966,183.336L581.966,183.337L581.965,183.337L581.965,183.337L581.965,183.338L581.964,183.338L581.964,183.338L581.963,183.339L581.95,183.361L581.948,183.366L581.946,183.369L581.941,183.381L581.934,183.38L581.932,183.345L581.938,183.343L581.932,183.342L581.923,183.328L581.927,183.302L581.914,183.301L581.913,183.301L581.902,183.275L581.898,183.263L581.905,183.248L581.915,183.249L581.918,183.248L581.942,183.232L581.966,183.224L581.972,183.216L581.97,183.209L581.975,183.197L581.975,183.192L581.973,183.183L581.972,183.181L581.972,183.167L581.974,183.159L581.976,183.157L581.976,183.155L581.977,183.153L581.978,183.152L581.985,183.151L581.988,183.147L581.988,183.146L581.987,183.145L581.987,183.144L581.987,183.143L581.989,183.142L581.991,183.141L581.994,183.14L581.996,183.14L581.997,183.139L581.998,183.139L581.998,183.138L581.998,183.136L581.999,183.135L582,183.134L582,183.133L582,183.132L581.999,183.131L581.998,183.131L581.998,183.13L581.998,183.129L581.998,183.127L581.978,183.132L581.968,183.09L581.977,183.085L581.981,183.085L581.982,183.084L581.983,183.082L581.983,183.081L581.984,183.079L581.986,183.078L581.987,183.077L581.99,183.077L581.991,183.077L581.992,183.076L581.992,183.074L581.992,183.073L581.991,183.073L581.991,183.073L581.99,183.073L581.99,183.073L581.983,183.073L581.973,183.059L581.973,183.054L581.965,183.054L581.964,183.053L581.985,183.025L581.984,183.022L581.984,183.021L581.983,183.019L581.982,183.017L581.982,183.017L581.982,183.016L581.983,183.014L581.985,183.01L581.985,183.006L581.984,183.004L581.983,183.002L581.983,183L581.983,182.997L581.984,182.995L581.985,182.993L581.986,182.989L581.985,182.983L581.985,182.98L581.985,182.978L581.985,182.977L581.986,182.974L581.985,182.972L581.984,182.971L581.983,182.97L581.982,182.969L581.981,182.968L581.977,182.966L581.974,182.964L581.973,182.962L581.972,182.96L581.973,182.959L581.974,182.957L581.975,182.956L581.976,182.955L581.977,182.955L581.98,182.955L581.982,182.954L581.982,182.952L581.982,182.95L581.985,182.946L581.986,182.944L581.988,182.943L581.991,182.943L581.993,182.943L581.995,182.945L582,182.947L582.004,182.95L582.007,182.949L582.009,182.949L582.01,182.948L582.011,182.948L582.012,182.948L582.013,182.948L582.014,182.947L582.017,182.945L582.017,182.944L582.018,182.942L582.018,182.941L582.018,182.938L582.019,182.934L582.021,182.931L582.022,182.929L582.022,182.928L582.021,182.927L582.021,182.927L582.022,182.926L582.022,182.926L582.023,182.925L582.024,182.923L582.023,182.919L582.024,182.911L582.023,182.908L582.021,182.903L582.019,182.9L582.019,182.898L582.019,182.897L582.019,182.894L582.019,182.892L582.022,182.891L582.024,182.891L582.025,182.889L582.024,182.888L582.023,182.887L582.022,182.887L582.019,182.888L582.017,182.889L582.017,182.887L582.017,182.885L582.019,182.883L582.02,182.882L582.022,182.882L582.026,182.882L582.027,182.881L582.028,182.878L582.027,182.875L582.025,182.873L582.023,182.872L582.023,182.871L582.025,182.868L582.024,182.865L582.019,182.86L582.016,182.859L582.013,182.856L582.011,182.855L582.007,182.856L582.003,182.856L582,182.857L581.998,182.857L581.989,182.853L581.981,182.848L581.977,182.844L581.973,182.843L581.968,182.839L581.967,182.837L581.967,182.826L581.966,182.824L581.965,182.823L581.963,182.822L581.961,182.821L581.96,182.82L581.96,182.818L581.96,182.817L581.961,182.815L581.961,182.813L581.961,182.811L581.96,182.81L581.955,182.807L581.955,182.805L581.955,182.803L581.956,182.801L581.955,182.799L581.954,182.797L581.952,182.796L581.951,182.795L581.951,182.794L581.951,182.792L581.952,182.792L581.954,182.79L581.955,182.79L581.957,182.789L581.957,182.789L581.957,182.787L581.955,182.784L581.955,182.782L581.956,182.781L581.957,182.779L581.959,182.779L581.96,182.778L581.962,182.776L581.961,182.773L581.962,182.769L581.962,182.766L581.962,182.764L581.961,182.763L581.959,182.763L581.957,182.763L581.956,182.762L581.953,182.763L581.952,182.763L581.948,182.762L581.946,182.763L581.944,182.765L581.941,182.767L581.94,182.768L581.938,182.772L581.936,182.775L581.934,182.777L581.934,182.779L581.931,182.782L581.93,182.784L581.928,182.784L581.926,182.785L581.924,182.785L581.923,182.785L581.922,182.786L581.921,182.788L581.92,182.79L581.92,182.792L581.92,182.795L581.92,182.796L581.92,182.799L581.919,182.801L581.918,182.802L581.917,182.802L581.915,182.802L581.914,182.803L581.914,182.803L581.913,182.804L581.907,182.807L581.904,182.808L581.9,182.809L581.894,182.809L581.886,182.809L581.879,182.807L581.879,182.808L581.873,182.814L581.868,182.821L581.863,182.826L581.855,182.836L581.848,182.847L581.847,182.849L581.843,182.85L581.843,182.852L581.832,182.859L581.827,182.862L581.815,182.869L581.812,182.87L581.812,182.877L581.81,182.877L581.806,182.877L581.804,182.879L581.804,182.881L581.804,182.884L581.803,182.886L581.803,182.887L581.804,182.887L581.804,182.889L581.805,182.892L581.805,182.893L581.804,182.895L581.806,182.901L581.81,182.909L581.809,182.909L581.809,182.909L581.808,182.909L581.808,182.909L581.807,182.91L581.806,182.91L581.805,182.91L581.804,182.911L581.803,182.911L581.802,182.91L581.802,182.91L581.8,182.91L581.799,182.91L581.798,182.91L581.798,182.91L581.798,182.909L581.798,182.909L581.798,182.908L581.798,182.907L581.797,182.907L581.797,182.909L581.796,182.909L581.795,182.908L581.795,182.907L581.795,182.907L581.795,182.907L581.795,182.908L581.794,182.908L581.793,182.908L581.792,182.908L581.792,182.907L581.791,182.907L581.79,182.908L581.787,182.909L581.787,182.909L581.786,182.908L581.785,182.907L581.785,182.906L581.783,182.906L581.783,182.906L581.782,182.906L581.781,182.906L581.78,182.906L581.779,182.905L581.779,182.903L581.778,182.902L581.778,182.902L581.777,182.903L581.777,182.903L581.776,182.903L581.775,182.903L581.775,182.903L581.774,182.904L581.773,182.904L581.773,182.904L581.772,182.904L581.771,182.904L581.77,182.903L581.77,182.903L581.769,182.902L581.769,182.903L581.768,182.903L581.768,182.902L581.767,182.902L581.767,182.9L581.766,182.9L581.766,182.9L581.766,182.901L581.766,182.901L581.765,182.901L581.764,182.901L581.764,182.901L581.763,182.901L581.763,182.901L581.762,182.901L581.761,182.901L581.761,182.901L581.76,182.901L581.759,182.901L581.758,182.901L581.757,182.9L581.756,182.9L581.756,182.9L581.756,182.9L581.756,182.899L581.756,182.899L581.755,182.898L581.754,182.898L581.754,182.898L581.753,182.898L581.753,182.897L581.753,182.897L581.75,182.896L581.748,182.895L581.747,182.895L581.747,182.894L581.746,182.892L581.744,182.892L581.743,182.891L581.742,182.891L581.742,182.898L581.742,182.899L581.742,182.9L581.742,182.901L581.742,182.901L581.742,182.902L581.742,182.903L581.727,182.904L581.726,182.905L581.713,182.91L581.698,182.922L581.691,182.928L581.679,182.928L581.675,182.94L581.672,182.945L581.672,182.953L581.672,182.957L581.688,182.958L581.687,182.96L581.686,182.963L581.68,182.969L581.677,182.973L581.681,182.982L581.684,182.99L581.686,182.996L581.683,183.004L581.677,183.008L581.676,183.023L581.683,183.041L581.681,183.044L581.681,183.051L581.682,183.064L581.681,183.072L581.679,183.083L581.685,183.085L581.684,183.094L581.682,183.103L581.684,183.108L581.687,183.118L581.687,183.119L581.687,183.12L581.679,183.141L581.692,183.157L581.697,183.159L581.7,183.157L581.705,183.156L581.707,183.158L581.712,183.156L581.715,183.165L581.721,183.172L581.729,183.173L581.745,183.161L581.757,183.18L581.751,183.184L581.749,183.179L581.731,183.181L581.73,183.179L581.725,183.178L581.725,183.182L581.723,183.184L581.724,183.188L581.727,183.191L581.727,183.195L581.723,183.2L581.724,183.205L581.733,183.204L581.731,183.212L581.741,183.232L581.731,183.235L581.729,183.239L581.703,183.244L581.693,183.245L581.691,183.24L581.688,183.238L581.68,183.241L581.668,183.245L581.649,183.245L581.642,183.26L581.622,183.262L581.622,183.264L581.63,183.271L581.634,183.277L581.644,183.278L581.647,183.279L581.653,183.284L581.654,183.291L581.657,183.3L581.656,183.314L581.661,183.337L581.661,183.34L581.659,183.343L581.639,183.37L581.645,183.384L581.67,183.419L581.671,183.429L581.672,183.434L581.662,183.439L581.641,183.459L581.617,183.515L581.615,183.521L581.608,183.521L581.596,183.544L581.59,183.553L581.582,183.563L581.566,183.565L581.55,183.562L581.539,183.562L581.537,183.56L581.531,183.562L581.53,183.565L581.524,183.564L581.517,183.566L581.501,183.558L581.471,183.543L581.463,183.542L581.461,183.538L581.46,183.537L581.459,183.534L581.423,183.536L581.416,183.534L581.403,183.529L581.397,183.525L581.39,183.518L581.398,183.507L581.412,183.489L581.418,183.489L581.418,183.488L581.419,183.488L581.42,183.488L581.42,183.488L581.421,183.488L581.422,183.488L581.422,183.487L581.423,183.487L581.423,183.487L581.426,183.487L581.428,183.488L581.43,183.489L581.431,183.49L581.433,183.49L581.434,183.49L581.435,183.49L581.435,183.489L581.436,183.488L581.436,183.487L581.436,183.486L581.435,183.485L581.435,183.484L581.435,183.483L581.435,183.48L581.435,183.478L581.434,183.475L581.433,183.474L581.433,183.472L581.433,183.47L581.433,183.468L581.431,183.466L581.431,183.465L581.431,183.465L581.431,183.464L581.431,183.463L581.432,183.462L581.433,183.462L581.433,183.462L581.434,183.462L581.434,183.463L581.434,183.463L581.435,183.464L581.435,183.465L581.435,183.466L581.436,183.467L581.437,183.467L581.437,183.468L581.438,183.468L581.438,183.468L581.439,183.467L581.441,183.465L581.442,183.464L581.441,183.461L581.435,183.451L581.428,183.439L581.424,183.435L581.421,183.434L581.416,183.436L581.413,183.436L581.409,183.434L581.404,183.43L581.403,183.429L581.408,183.414L581.407,183.412L581.394,183.399L581.391,183.394L581.383,183.384L581.369,183.392L581.366,183.395L581.358,183.389L581.358,183.381L581.358,183.377L581.357,183.375L581.359,183.367L581.362,183.361L581.364,183.355L581.365,183.33L581.369,183.319L581.376,183.308L581.367,183.307L581.357,183.3L581.352,183.297L581.322,183.307L581.309,183.3L581.302,183.295L581.294,183.289L581.276,183.292L581.265,183.296L581.257,183.299L581.254,183.3L581.249,183.3L581.245,183.3L581.24,183.297L581.236,183.297L581.233,183.297L581.228,183.3L581.221,183.302L581.216,183.302L581.199,183.291L581.196,183.284L581.194,183.283L581.191,183.284L581.18,183.302L581.166,183.301L581.123,183.298L581.121,183.319L581.108,183.346L581.105,183.351L581.097,183.354L581.091,183.356L581.054,183.355L581.048,183.35L581.045,183.348L581.041,183.34L581.034,183.335L581.03,183.333L581.024,183.331L581.014,183.329L581.005,183.33L580.993,183.334L580.988,183.324L580.978,183.312L580.976,183.299L580.971,183.294L580.968,183.288L580.926,183.289L580.925,183.29L580.918,183.298L580.919,183.302L580.922,183.309L580.924,183.318L580.922,183.325L580.921,183.327L580.917,183.333L580.911,183.334L580.896,183.342L580.879,183.353L580.835,183.384L580.822,183.393L580.713,183.469L580.707,183.477L580.695,183.478L580.696,183.471L580.699,183.464L580.699,183.454L580.7,183.45L580.701,183.438L580.7,183.431L580.683,183.422L580.68,183.417L580.68,183.417L580.679,183.416L580.674,183.417L580.671,183.415L580.631,183.428L580.629,183.418L580.603,183.407L580.619,183.389L580.613,183.384L580.613,183.377L580.616,183.368L580.623,183.365L580.622,183.359L580.63,183.347L580.624,183.345L580.61,183.337L580.617,183.318L580.618,183.318L580.62,183.317L580.622,183.317L580.606,183.305L580.574,183.306L580.561,183.306L580.548,183.307L580.542,183.318L580.551,183.33L580.539,183.343L580.527,183.34L580.519,183.351L580.517,183.353L580.5,183.357L580.491,183.352L580.466,183.362L580.469,183.389L580.449,183.406L580.461,183.437L580.438,183.439L580.409,183.416L580.383,183.418L580.374,183.446L580.374,183.458L580.379,183.471L580.39,183.491L580.396,183.499L580.413,183.521L580.35,183.589L580.337,183.599L580.256,183.596L580.229,183.603L580.232,183.617L580.235,183.62L580.24,183.621L580.244,183.624L580.274,183.626L580.274,183.631L580.272,183.641L580.274,183.645L580.271,183.649L580.268,183.651L580.269,183.654L580.276,183.66L580.279,183.664L580.293,183.663L580.309,183.671L580.322,183.673L580.346,183.686L580.339,183.697L580.338,183.705L580.343,183.713L580.341,183.734L580.341,183.746L580.352,183.75L580.343,183.775L580.309,183.768L580.295,183.776L580.275,183.763L580.265,183.761L580.264,183.779L580.253,183.78L580.248,183.795L580.234,183.794L580.235,183.816L580.237,183.829L580.223,183.835L580.223,183.839L580.201,183.843L580.184,183.844L580.181,183.844L580.178,183.851L580.153,183.853L580.155,183.847L580.155,183.842L580.148,183.821L580.142,183.81L580.128,183.806L580.118,183.8L580.087,183.8L580.084,183.819L580.083,183.836L580.041,183.834L580.041,183.829L580.042,183.819L580.044,183.802L580.034,183.801L580.023,183.819L580.006,183.819L580.006,183.812L579.981,183.81L579.972,183.826L579.98,183.869L579.996,183.883L579.977,183.912L579.975,183.923L579.968,183.914L579.923,183.945L579.92,183.93L579.918,183.927L579.909,183.924L579.915,183.857L579.866,183.849L579.863,183.848L579.86,183.853L579.857,183.862L579.858,183.919L579.848,183.923L579.847,183.924L579.84,183.908L579.842,183.902L579.827,183.867L579.825,183.863L579.813,183.855L579.788,183.855L579.787,183.86L579.785,183.859L579.783,183.852L579.775,183.845L579.729,183.849L579.724,183.847L579.723,183.838L579.724,183.829L579.723,183.822L579.721,183.815L579.714,183.807L579.71,183.798L579.706,183.785L579.668,183.726L579.648,183.716L579.607,183.696L579.573,183.737L579.615,183.811L579.638,183.82L579.475,183.811L579.476,183.818L579.509,183.838L579.488,183.874L579.479,183.889L579.439,183.866L579.432,183.87L579.421,183.887L579.413,183.894L579.405,183.911L579.392,183.916L579.388,183.923L579.383,183.925L579.378,183.933L579.373,183.937L579.363,183.941L579.361,183.945L579.373,183.952L579.364,183.984L579.354,183.982L579.349,183.994L579.343,183.996L579.343,183.999L579.338,184.005L579.336,184.007L579.335,184.013L579.337,184.017L579.335,184.022L579.335,184.03L579.344,184.034L579.341,184.039L579.337,184.046L579.305,184.045L579.275,184.045L579.245,184.045L579.244,184.089L579.242,184.119L579.232,184.12L579.22,184.12L579.22,184.141L579.189,184.139L579.181,184.153L579.188,184.173L579.155,184.195L579.148,184.209L579.156,184.222L579.164,184.236L579.181,184.265L579.181,184.268L579.157,184.26L579.158,184.255L579.151,184.252L579.143,184.243L579.133,184.248L579.129,184.245L579.128,184.24L579.078,184.205L579.068,184.194L579.07,184.19L579.058,184.174L579.047,184.194L579.031,184.19L579.005,184.207L578.973,184.223L578.98,184.239L578.983,184.245L578.933,184.281L578.915,184.278L578.897,184.277L578.894,184.284L578.857,184.304L578.857,184.31L578.853,184.32L578.836,184.339L578.817,184.345L578.797,184.362L578.794,184.364L578.789,184.369L578.778,184.377L578.779,184.386L578.78,184.391L578.781,184.394L578.781,184.395L578.78,184.396L578.78,184.401L578.779,184.402L578.779,184.402L578.778,184.403L578.778,184.404L578.777,184.404L578.776,184.405L578.776,184.405L578.775,184.405L578.774,184.405L578.773,184.404L578.771,184.402L578.768,184.4L578.765,184.397L578.764,184.396L578.763,184.395L578.761,184.393L578.758,184.39L578.757,184.389L578.755,184.388L578.754,184.387L578.753,184.387L578.752,184.387L578.752,184.387L578.751,184.387L578.75,184.388L578.749,184.388L578.749,184.388L578.748,184.389L578.747,184.39L578.746,184.392L578.746,184.393L578.745,184.393L578.745,184.393L578.741,184.391L578.736,184.389L578.732,184.387L578.727,184.384L578.718,184.379L578.712,184.376L578.708,184.374L578.679,184.36L578.665,184.352L578.631,184.423L578.625,184.429L578.598,184.437L578.593,184.437L578.588,184.425L578.579,184.419L578.557,184.404L578.552,184.385L578.547,184.367L578.545,184.361L578.53,184.354L578.526,184.355L578.519,184.355L578.519,184.351L578.514,184.349L578.511,184.347L578.52,184.347L578.524,184.336L578.528,184.331L578.534,184.328L578.538,184.318L578.549,184.308L578.542,184.248L578.54,184.215L578.533,184.213L578.544,184.172L578.558,184.181L578.568,184.169L578.576,184.172L578.601,184.182L578.601,184.169L578.598,184.168L578.599,184.153L578.596,184.143L578.594,184.145L578.589,184.135L578.592,184.133L578.58,184.123L578.575,184.114L578.573,184.114L578.568,184.116L578.532,184.076L578.503,184.051L578.488,184.044L578.48,184.04L578.464,184.034L578.438,184.023L578.43,184.047L578.412,184.052L578.406,184.044L578.394,184.051L578.386,184.052L578.377,184.039L578.323,184.041L578.32,183.996L578.279,183.992L578.278,183.993L578.275,184L578.262,184.002L578.226,184.005L578.219,184.018L578.218,184.019L578.213,184.016L578.212,184.018L578.211,184.02L578.2,184.038L578.199,184.04L578.183,184.067L578.163,184.043L578.179,184.026L578.167,183.992L578.184,183.982L578.157,183.963L578.14,183.973L578.134,183.979L578.124,183.983L578.119,183.987L578.122,183.989L578.119,184.005L578.121,184.012L578.112,184.017L578.09,184.005L578.08,184.029L578.067,184.037L578.065,184.066L578.043,184.065L578.032,184.057L578.017,184.027L577.984,184.011L577.959,184.009L577.923,184.003L577.839,183.997L577.881,183.975L577.869,183.928L577.86,183.899L577.808,183.898L577.783,183.904L577.802,183.964L577.787,183.964L577.788,183.975L577.789,183.993L577.769,183.995L577.764,183.988L577.741,183.994L577.739,183.994L577.717,183.999L577.707,184.002L577.679,184.051L577.657,184.05L577.655,184.044L577.657,184.042L577.657,184.029L577.578,184.022L577.578,184.052L577.565,184.081L577.543,184.081L577.512,184.081L577.508,184.081L577.525,184.013L577.512,184.011L577.507,184.014L577.505,184.009L577.498,184.008L577.493,184.005L577.489,184.006L577.488,184.005L577.487,184.001L577.486,184.002L577.485,184.004L577.483,184.003L577.477,184.002L577.477,184L577.473,183.998L577.472,183.999L577.473,184.003L577.44,184.028L577.429,184.017L577.418,184.007L577.414,184.003L577.4,184.002L577.191,183.984L577.173,184.16L577.131,184.124L577.119,184.113L577.066,184.123L577.012,184.174L576.915,184.185L576.831,184.234L576.811,184.234L576.79,184.231L576.618,184.211L576.615,184.248L576.569,184.246L576.568,184.256L576.567,184.266L576.563,184.321L576.558,184.379L576.554,184.403L576.551,184.429L576.544,184.531L576.544,184.538L576.544,184.541L576.542,184.562L576.54,184.592L576.538,184.622L576.537,184.646L576.531,184.662L576.491,184.65L576.487,184.634L576.48,184.629L576.475,184.625L576.464,184.616L576.453,184.616L576.443,184.622L576.44,184.628L576.439,184.64L576.442,184.645L576.445,184.647L576.447,184.644L576.447,184.638L576.449,184.636L576.456,184.636L576.461,184.641L576.465,184.648L576.466,184.658L576.47,184.664L576.47,184.672L576.465,184.675L576.466,184.682L576.461,184.692L576.444,184.705L576.437,184.711L576.434,184.718L576.431,184.737L576.431,184.74L576.431,184.747L576.435,184.754L576.442,184.76L576.451,184.759L576.458,184.756L576.485,184.74L576.492,184.726L576.497,184.715L576.503,184.71L576.514,184.709L576.523,184.712L576.532,184.718L576.534,184.725L576.534,184.734L576.524,184.745L576.501,184.75L576.497,184.752L576.491,184.761L576.487,184.766L576.486,184.77L576.487,184.777L576.488,184.783L576.492,184.788L576.498,184.793L576.5,184.795L576.511,184.798L576.52,184.797L576.54,184.794L576.547,184.795L576.551,184.797L576.553,184.799L576.556,184.803L576.558,184.809L576.559,184.815L576.557,184.832L576.557,184.837L576.56,184.843L576.564,184.847L576.569,184.851L576.576,184.855L576.584,184.859L576.589,184.864L576.59,184.866L576.592,184.869L576.592,184.875ZM800,0L800,12.246L800,78.668L800,145.789L800,215.835L800,261.497L800,300L800,338.503L800,384.165L800,454.211L800,600L800,600L200,600L200,600L200,454.211L200,384.165L200,338.503L200,300L200,261.497L200,215.835L200,145.789L200,78.668L200,12.246L200,0L200,0L800,0Z"/>
<path d="M579.811,184.938m0,4.5a4.5,4.5 0 1,1 0,-9a4.5,4.5 0 1,1 0,9z"/>
<path d="M579.803,185.104m0,4.5a4.5,4.5 0 1,1 0,-9a4.5,4.5 0 1,1 0,9z"/>
</svg>