<?xml version="1.0" encoding="UTF-8"?>
<svg xmlns="http://www.w3.org/2000/svg" viewBox="0 0 1000 600" stroke="#000" stroke-width="0.3" fill="#ccc">
<path d="M574.376,219.161L574.37,219.217L574.38,219.215L574.386,219.217L574.39,219.218L574.396,219.222L574.401,219.225L574.405,219.227L574.415,219.23L574.42,219.23L574.424,219.229L574.439,219.214L574.448,219.208L574.459,219.209L574.474,219.215L574.481,219.216L574.487,219.216L574.498,219.215L574.51,219.207L574.504,219.188L574.503,219.164L574.493,219.107L574.499,219.107L574.508,219.107L574.511,219.107L574.527,219.106L574.576,219.105L574.579,219.105L574.586,219.105L574.588,219.105L574.659,219.103L574.665,219.112L574.666,219.118L574.664,219.125L574.671,219.125L574.671,219.137L574.669,219.137L574.663,219.139L574.665,219.165L574.649,219.194L574.655,219.197L574.669,219.197L574.667,219.192L574.687,219.191L574.693,219.2L574.697,219.2L574.712,219.203L574.713,219.203L574.746,219.177L574.746,219.165L574.743,219.16L574.741,219.159L574.74,219.156L574.747,219.144L574.746,219.138L574.743,219.114L574.742,219.11L574.741,219.098L574.74,219.09L574.739,219.079L574.738,219.07L574.737,219.062L574.737,219.056L574.736,219.055L574.734,219.037L574.732,219.02L574.731,219.006L574.73,218.992L574.728,218.975L574.727,218.971L574.727,218.967L574.726,218.961L574.725,218.951L574.724,218.939L574.72,218.906L574.712,218.903L574.708,218.898L574.709,218.894L574.713,218.893L574.727,218.886L574.731,218.879L574.731,218.871L574.734,218.866L574.741,218.86L574.746,218.854L574.748,218.848L574.746,218.842L574.743,218.837L574.741,218.834L574.737,218.832L574.732,218.832L574.726,218.834L574.722,218.841L574.718,218.849L574.714,218.85L574.713,218.85L574.71,218.85L574.707,218.848L574.704,218.846L574.701,218.845L574.696,218.837L574.693,218.835L574.685,218.832L574.672,218.82L574.672,218.793L574.672,218.766L574.672,218.764L574.673,218.694L574.672,218.618L574.667,218.616L574.661,218.614L574.657,218.607L574.656,218.595L574.514,218.594L574.504,218.594L574.504,218.577L574.505,218.57L574.505,218.561L574.505,218.56L574.505,218.555L574.444,218.553L574.444,218.56L574.444,218.561L574.444,218.573L574.432,218.573L574.361,218.571L574.361,218.571L574.361,218.575L574.36,218.577L574.35,218.577L574.339,218.577L574.339,218.571L574.335,218.571L574.331,218.57L574.329,218.569L574.328,218.568L574.318,218.574L574.307,218.583L574.303,218.585L574.293,218.586L574.285,218.588L574.283,218.589L574.279,218.59L574.278,218.59L574.277,218.59L574.276,218.59L574.267,218.589L574.256,218.589L574.256,218.59L574.256,218.602L574.234,218.602L574.233,218.602L574.21,218.601L574.174,218.601L574.174,218.601L574.174,218.618L574.159,218.618L574.152,218.617L574.152,218.617L574.121,218.617L574.121,218.627L574.121,218.632L574.016,218.631L574.003,218.631L573.966,218.631L573.966,218.603L573.932,218.607L573.932,218.608L573.932,218.608L573.924,218.61L573.923,218.61L573.922,218.61L573.925,218.615L573.925,218.615L573.919,218.616L573.914,218.616L573.905,218.617L573.888,218.618L573.872,218.618L573.872,218.618L573.868,218.618L573.858,218.619L573.852,218.618L573.851,218.618L573.843,218.618L573.842,218.618L573.841,218.618L573.835,218.616L573.831,218.615L573.828,218.614L573.823,218.613L573.821,218.612L573.816,218.611L573.805,218.609L573.798,218.609L573.782,218.609L573.78,218.609L573.779,218.637L573.779,218.693L573.779,218.696L573.779,218.697L573.779,218.697L573.779,218.7L573.779,218.739L573.779,218.761L573.788,218.769L573.789,218.78L573.792,218.784L573.791,218.805L573.796,218.815L573.803,218.84L573.807,218.844L573.816,218.843L573.819,218.858L573.822,218.872L573.824,218.874L573.829,218.889L573.838,218.892L573.851,218.898L573.865,218.913L573.867,218.913L573.877,218.908L573.885,218.916L573.889,218.919L573.891,218.916L573.894,218.911L573.898,218.903L573.909,218.908L573.931,218.91L573.937,218.907L573.941,218.9L573.951,218.885L573.957,218.881L573.967,218.884L573.994,218.886L574.003,218.886L574.007,218.891L574.013,218.9L574.018,218.902L574.027,218.903L574.045,218.898L574.049,218.899L574.049,218.901L574.05,218.902L574.05,218.904L574.05,218.912L574.05,218.915L574.052,218.918L574.051,218.923L574.052,218.936L574.052,218.946L574.051,218.951L574.047,218.952L574.046,218.954L574.047,218.955L574.044,218.957L574.044,218.959L574.045,218.959L574.046,218.961L574.044,218.964L574.046,218.966L574.046,218.969L574.047,218.97L574.048,218.971L574.049,218.973L574.051,218.976L574.052,218.977L574.051,218.977L574.049,218.978L574.048,218.98L574.049,218.981L574.05,218.982L574.051,218.984L574.053,218.986L574.056,218.986L574.057,218.988L574.058,218.99L574.056,218.993L574.057,218.997L574.06,219.003L574.06,219.009L574.058,219.01L574.058,219.012L574.059,219.015L574.059,219.017L574.06,219.024L574.061,219.028L574.062,219.03L574.062,219.032L574.06,219.034L574.062,219.035L574.063,219.037L574.061,219.038L574.06,219.04L574.06,219.043L574.062,219.043L574.062,219.043L574.063,219.043L574.065,219.041L574.065,219.042L574.066,219.043L574.068,219.044L574.069,219.046L574.069,219.047L574.068,219.047L574.068,219.047L574.069,219.051L574.067,219.061L574.067,219.064L574.066,219.067L574.066,219.072L574.063,219.076L574.059,219.076L574.058,219.08L574.06,219.081L574.067,219.085L574.103,219.11L574.124,219.133L574.126,219.135L574.111,219.159L574.074,219.227L574.075,219.23L574.075,219.231L574.076,219.244L574.075,219.256L574.073,219.275L574.068,219.308L574.072,219.32L574.08,219.331L574.069,219.341L574.069,219.342L574.059,219.348L574.051,219.369L574.023,219.434L574.031,219.448L574.035,219.448L574.036,219.452L574.039,219.454L574.045,219.453L574.049,219.462L574.051,219.47L574.055,219.476L574.06,219.481L574.064,219.485L574.07,219.491L573.973,219.548L573.969,219.556L573.969,219.563L573.925,219.572L573.922,219.569L573.926,219.561L573.926,219.541L573.926,219.536L573.914,219.521L573.911,219.517L573.909,219.515L573.908,219.511L573.906,219.509L573.905,219.505L573.906,219.502L573.907,219.501L573.906,219.499L573.904,219.497L573.902,219.494L573.902,219.49L573.901,219.488L573.898,219.484L573.898,219.479L573.898,219.469L573.894,219.461L573.889,219.454L573.878,219.446L573.875,219.444L573.873,219.442L573.871,219.443L573.869,219.439L573.864,219.444L573.851,219.458L573.832,219.478L573.806,219.507L573.793,219.52L573.779,219.535L573.738,219.572L573.669,219.635L573.662,219.641L573.646,219.656L573.635,219.666L573.627,219.674L573.627,219.655L573.623,219.643L573.62,219.628L573.621,219.614L573.621,219.602L573.62,219.598L573.617,219.571L573.617,219.552L573.609,219.529L573.594,219.518L573.591,219.5L573.588,219.491L573.58,219.479L573.577,219.469L573.572,219.47L573.569,219.47L573.509,219.484L573.514,219.493L573.51,219.503L573.508,219.513L573.506,219.518L573.481,219.55L573.475,219.56L573.463,219.566L573.461,219.572L573.446,219.594L573.444,219.598L573.436,219.613L573.436,219.614L573.43,219.62L573.424,219.628L573.417,219.635L573.404,219.649L573.401,219.657L573.396,219.664L573.403,219.676L573.434,219.727L573.438,219.732L573.439,219.733L573.44,219.736L573.468,219.781L573.47,219.784L573.481,219.801L573.484,219.813L573.489,219.829L573.489,219.837L573.491,219.842L573.496,219.851L573.497,219.859L573.491,219.868L573.484,219.875L573.472,219.887L573.461,219.883L573.459,219.884L573.455,219.884L573.447,219.889L573.438,219.893L573.424,219.893L573.417,219.9L573.403,219.915L573.386,219.947L573.377,219.954L573.368,219.961L573.337,219.986L573.328,219.972L573.314,219.954L573.301,219.934L573.291,219.92L573.286,219.914L573.292,219.908L573.309,219.904L573.315,219.892L573.319,219.883L573.324,219.872L573.327,219.868L573.333,219.859L573.341,219.85L573.34,219.85L573.337,219.848L573.329,219.846L573.329,219.845L573.314,219.84L573.297,219.835L573.241,219.816L573.234,219.815L573.229,219.827L573.226,219.833L573.22,219.845L573.21,219.863L573.206,219.871L573.202,219.884L573.199,219.897L573.199,219.9L573.204,219.905L573.21,219.913L573.206,219.915L573.2,219.919L573.194,219.909L573.188,219.897L573.187,219.885L573.132,219.865L573.113,219.856L573.101,219.852L573.102,219.848L573.101,219.846L573.102,219.843L573.101,219.841L573.102,219.838L573.102,219.834L573.103,219.829L573.103,219.822L573.104,219.813L573.104,219.812L573.103,219.811L573.104,219.808L573.103,219.808L573.103,219.807L573.103,219.805L573.102,219.804L573.102,219.803L573.103,219.802L573.103,219.801L573.102,219.799L573.102,219.796L573.099,219.787L573.093,219.78L573.078,219.763L573.05,219.731L573.015,219.784L572.983,219.836L572.978,219.849L572.964,219.896L572.958,219.901L572.954,219.908L572.953,219.913L572.952,219.916L572.95,219.919L572.948,219.921L572.944,219.927L572.943,219.927L572.942,219.927L572.942,219.929L572.941,219.931L572.94,219.933L572.938,219.935L572.934,219.938L572.927,219.946L572.922,219.955L572.917,219.963L572.918,219.967L572.918,219.979L572.918,219.985L572.915,219.989L572.914,219.997L572.912,220.001L572.912,220.014L572.909,220.02L572.908,220.031L572.907,220.036L572.903,220.038L572.901,220.042L572.896,220.05L572.894,220.052L572.891,220.058L572.887,220.069L572.883,220.075L572.877,220.083L572.876,220.088L572.877,220.09L572.911,220.108L572.918,220.112L572.917,220.115L572.913,220.118L572.91,220.122L572.907,220.132L572.907,220.143L572.91,220.15L572.908,220.156L572.908,220.16L572.906,220.163L572.904,220.165L572.899,220.163L572.895,220.164L572.891,220.164L572.885,220.166L572.873,220.169L572.85,220.17L572.848,220.168L572.843,220.169L572.839,220.17L572.837,220.174L572.833,220.179L572.831,220.184L572.828,220.189L572.825,220.191L572.812,220.197L572.788,220.221L572.778,220.224L572.762,220.233L572.753,220.239L572.75,220.243L572.749,220.249L572.745,220.257L572.745,220.265L572.741,220.273L572.739,220.28L572.742,220.289L572.741,220.292L572.739,220.297L572.746,220.306L572.747,220.31L572.743,220.316L572.74,220.326L572.732,220.332L572.729,220.34L572.73,220.346L572.726,220.352L572.727,220.357L572.721,220.361L572.705,220.363L572.698,220.365L572.687,220.376L572.683,220.384L572.682,220.396L572.683,220.399L572.689,220.403L572.693,220.408L572.696,220.412L572.698,220.419L572.696,220.426L572.697,220.43L572.7,220.433L572.707,220.438L572.706,220.442L572.705,220.445L572.699,220.455L572.697,220.46L572.694,220.466L572.691,220.469L572.689,220.472L572.688,220.474L572.688,220.476L572.689,220.479L572.689,220.48L572.688,220.48L572.687,220.482L572.686,220.482L572.686,220.485L572.686,220.489L572.685,220.491L572.685,220.493L572.683,220.494L572.68,220.495L572.676,220.496L572.674,220.497L572.671,220.498L572.669,220.499L572.67,220.504L572.671,220.507L572.671,220.508L572.67,220.509L572.669,220.512L572.669,220.516L572.664,220.517L572.658,220.519L572.657,220.519L572.657,220.52L572.657,220.521L572.657,220.523L572.658,220.524L572.657,220.525L572.658,220.526L572.658,220.527L572.658,220.527L572.658,220.528L572.658,220.53L572.658,220.53L572.658,220.531L572.658,220.532L572.658,220.532L572.658,220.533L572.658,220.534L572.657,220.536L572.657,220.538L572.656,220.539L572.657,220.54L572.656,220.543L572.655,220.543L572.655,220.544L572.654,220.544L572.654,220.545L572.652,220.547L572.65,220.548L572.649,220.548L572.648,220.55L572.644,220.549L572.64,220.549L572.637,220.55L572.635,220.552L572.633,220.555L572.632,220.556L572.631,220.558L572.63,220.561L572.631,220.562L572.631,220.564L572.63,220.567L572.63,220.569L572.628,220.573L572.628,220.574L572.629,220.578L572.629,220.579L572.629,220.58L572.629,220.582L572.627,220.584L572.625,220.585L572.623,220.587L572.621,220.59L572.62,220.593L572.62,220.595L572.62,220.596L572.62,220.599L572.615,220.601L572.613,220.602L572.612,220.6L572.607,220.602L572.607,220.602L572.605,220.603L572.603,220.602L572.601,220.602L572.595,220.595L572.591,220.596L572.587,220.596L572.583,220.594L572.58,220.594L572.576,220.594L572.576,220.594L572.572,220.594L572.571,220.594L572.569,220.595L572.564,220.597L572.562,220.597L572.562,220.596L572.559,220.595L572.558,220.595L572.557,220.595L572.556,220.595L572.556,220.595L572.555,220.594L572.555,220.593L572.554,220.591L572.552,220.588L572.55,220.586L572.547,220.585L572.547,220.584L572.547,220.583L572.547,220.582L572.544,220.577L572.542,220.576L572.539,220.577L572.536,220.579L572.534,220.575L572.532,220.572L572.53,220.571L572.522,220.567L572.521,220.565L572.519,220.563L572.518,220.558L572.517,220.557L572.515,220.554L572.513,220.553L572.51,220.555L572.509,220.554L572.505,220.555L572.502,220.553L572.499,220.554L572.497,220.554L572.49,220.558L572.487,220.56L572.485,220.561L572.482,220.558L572.477,220.557L572.476,220.556L572.469,220.556L572.465,220.557L572.463,220.558L572.458,220.56L572.456,220.559L572.453,220.559L572.451,220.559L572.447,220.56L572.445,220.557L572.443,220.555L572.439,220.553L572.437,220.55L572.435,220.548L572.433,220.546L572.429,220.542L572.424,220.541L572.419,220.541L572.414,220.541L572.409,220.539L572.405,220.539L572.402,220.543L572.401,220.546L572.399,220.547L572.395,220.548L572.393,220.549L572.392,220.551L572.391,220.551L572.387,220.551L572.39,220.553L572.39,220.556L572.39,220.558L572.392,220.563L572.387,220.565L572.386,220.569L572.386,220.573L572.383,220.578L572.382,220.58L572.382,220.584L572.381,220.585L572.378,220.585L572.378,220.586L572.375,220.588L572.375,220.589L572.377,220.591L572.379,220.595L572.377,220.611L572.376,220.615L572.377,220.621L572.378,220.624L572.378,220.626L572.378,220.626L572.378,220.629L572.378,220.634L572.378,220.636L572.377,220.637L572.375,220.638L572.374,220.64L572.37,220.642L572.369,220.643L572.368,220.644L572.365,220.645L572.365,220.645L572.364,220.645L572.363,220.645L572.361,220.648L572.357,220.65L572.356,220.651L572.355,220.654L572.355,220.655L572.353,220.658L572.352,220.661L572.351,220.662L572.35,220.664L572.349,220.666L572.347,220.67L572.347,220.673L572.346,220.676L572.346,220.678L572.334,220.689L572.331,220.704L572.333,220.705L572.335,220.706L572.337,220.707L572.337,220.708L572.338,220.708L572.341,220.709L572.342,220.711L572.344,220.712L572.345,220.716L572.348,220.714L572.349,220.714L572.356,220.716L572.359,220.716L572.364,220.715L572.369,220.715L572.376,220.715L572.379,220.715L572.385,220.714L572.392,220.713L572.396,220.713L572.404,220.712L572.412,220.712L572.416,220.714L572.42,220.715L572.424,220.717L572.428,220.72L572.431,220.726L572.434,220.727L572.436,220.726L572.438,220.725L572.44,220.724L572.45,220.722L572.455,220.72L572.458,220.719L572.46,220.719L572.463,220.719L572.463,220.728L572.464,220.73L572.466,220.732L572.47,220.737L572.471,220.738L572.471,220.739L572.476,220.743L572.478,220.746L572.48,220.748L572.478,220.749L572.478,220.752L572.478,220.754L572.481,220.753L572.486,220.755L572.487,220.755L572.491,220.757L572.492,220.758L572.495,220.761L572.496,220.763L572.497,220.764L572.499,220.765L572.504,220.765L572.508,220.768L572.51,220.767L572.512,220.767L572.516,220.769L572.517,220.77L572.525,220.773L572.533,220.775L572.538,220.776L572.542,220.775L572.548,220.774L572.553,220.775L572.554,220.774L572.561,220.774L572.567,220.776L572.571,220.776L572.58,220.776L572.585,220.776L572.592,220.774L572.598,220.772L572.602,220.771L572.605,220.774L572.606,220.778L572.609,220.78L572.612,220.781L572.617,220.781L572.619,220.781L572.62,220.782L572.623,220.786L572.623,220.788L572.627,220.793L572.635,220.8L572.638,220.802L572.638,220.802L572.642,220.805L572.646,220.809L572.648,220.814L572.649,220.817L572.649,220.821L572.65,220.823L572.653,220.826L572.661,220.83L572.663,220.831L572.667,220.834L572.67,220.837L572.674,220.838L572.677,220.839L572.678,220.84L572.68,220.842L572.682,220.844L572.684,220.848L572.685,220.85L572.685,220.851L572.686,220.853L572.686,220.857L572.685,220.859L572.685,220.862L572.684,220.867L572.682,220.874L572.68,220.882L572.681,220.89L572.681,220.893L572.682,220.894L572.684,220.894L572.689,220.895L572.695,220.895L572.696,220.896L572.698,220.896L572.699,220.897L572.701,220.899L572.703,220.9L572.706,220.896L572.708,220.897L572.709,220.898L572.71,220.897L572.712,220.897L572.713,220.895L572.716,220.895L572.719,220.895L572.727,220.895L572.729,220.896L572.731,220.896L572.73,220.899L572.732,220.903L572.733,220.904L572.732,220.91L572.736,220.915L572.74,220.918L572.74,220.92L572.739,220.927L572.741,220.93L572.743,220.931L572.751,220.934L572.754,220.936L572.756,220.935L572.759,220.934L572.764,220.932L572.769,220.931L572.774,220.931L572.779,220.929L572.781,220.929L572.782,220.93L572.784,220.928L572.786,220.929L572.787,220.928L572.788,220.927L572.79,220.924L572.792,220.924L572.793,220.922L572.794,220.922L572.795,220.922L572.796,220.921L572.796,220.92L572.799,220.92L572.804,220.919L572.808,220.92L572.809,220.923L572.81,220.924L572.812,220.923L572.815,220.925L572.817,220.93L572.818,220.932L572.819,220.935L572.819,220.937L572.818,220.939L572.818,220.94L572.817,220.941L572.817,220.943L572.816,220.945L572.816,220.951L572.816,220.951L572.816,220.955L572.818,220.956L572.819,220.956L572.82,220.957L572.821,220.957L572.823,220.957L572.824,220.958L572.824,220.958L572.825,220.959L572.826,220.958L572.828,220.96L572.83,220.96L572.831,220.962L572.83,220.965L572.838,220.969L572.84,220.972L572.845,220.975L572.847,220.976L572.849,220.979L572.852,220.979L572.854,220.98L572.857,220.981L572.863,220.985L572.866,220.987L572.872,220.99L572.881,220.993L572.893,220.994L572.897,220.994L572.9,220.996L572.901,220.996L572.902,220.999L572.903,221L572.906,221.002L572.908,221.002L572.912,221.001L572.912,221.001L572.913,221.001L572.913,221.001L572.914,221.001L572.915,221.001L572.916,221L572.917,221L572.918,221.001L572.919,221.002L572.92,221.002L572.921,221.002L572.924,221.001L572.933,221.005L572.933,221.005L572.934,221.006L572.937,221.008L572.938,221.01L572.936,221.012L572.937,221.015L572.939,221.015L572.942,221.015L572.943,221.015L572.946,221.015L572.949,221.016L572.952,221.014L572.956,221.016L572.96,221.018L572.961,221.019L572.961,221.02L572.962,221.02L572.962,221.019L572.962,221.019L572.963,221.019L572.963,221.019L572.964,221.019L572.965,221.023L572.966,221.028L572.969,221.032L572.971,221.033L572.976,221.034L572.98,221.036L572.982,221.037L572.983,221.039L572.984,221.041L572.986,221.045L572.988,221.046L572.988,221.049L572.989,221.049L572.989,221.05L572.992,221.05L572.995,221.05L572.998,221.051L572.999,221.052L573,221.052L573.002,221.053L573.003,221.053L573.005,221.054L573.006,221.053L573.008,221.053L573.009,221.057L573.012,221.062L573.013,221.065L573.014,221.067L573.014,221.071L573.012,221.077L573.012,221.08L573.011,221.083L573.011,221.088L573.01,221.089L573.009,221.091L573.009,221.093L573.009,221.096L573.011,221.099L573.013,221.102L573.013,221.103L573.012,221.105L573.009,221.111L573.008,221.115L573.006,221.118L573.004,221.122L573.001,221.125L572.998,221.127L572.996,221.13L572.993,221.135L572.99,221.137L572.99,221.139L572.99,221.14L572.988,221.142L572.988,221.144L572.987,221.147L572.986,221.148L572.985,221.148L572.983,221.149L572.982,221.151L572.98,221.152L572.979,221.153L572.979,221.155L572.978,221.156L572.979,221.157L572.979,221.157L572.979,221.159L572.979,221.16L572.979,221.16L572.979,221.162L572.978,221.163L572.978,221.164L572.977,221.166L572.977,221.167L572.977,221.167L572.976,221.168L572.976,221.168L572.976,221.169L572.977,221.17L572.976,221.171L572.976,221.172L572.975,221.173L572.973,221.175L572.972,221.176L572.971,221.177L572.971,221.178L572.971,221.178L572.97,221.179L572.97,221.181L572.97,221.184L572.97,221.186L572.97,221.188L572.967,221.19L572.967,221.192L572.966,221.193L572.966,221.197L572.965,221.198L572.964,221.201L572.964,221.202L572.964,221.202L572.964,221.203L572.963,221.204L572.96,221.205L572.959,221.205L572.958,221.206L572.957,221.206L572.956,221.207L572.956,221.207L572.955,221.208L572.955,221.209L572.954,221.21L572.954,221.21L572.953,221.211L572.952,221.211L572.952,221.211L572.952,221.211L572.952,221.212L572.952,221.212L572.951,221.213L572.95,221.215L572.95,221.216L572.949,221.218L572.949,221.22L572.948,221.221L572.948,221.221L572.948,221.222L572.947,221.222L572.947,221.224L572.945,221.229L572.943,221.231L572.942,221.233L572.941,221.234L572.94,221.235L572.94,221.236L572.939,221.236L572.939,221.237L572.939,221.237L572.939,221.239L572.939,221.239L572.939,221.239L572.938,221.24L572.938,221.24L572.938,221.241L572.938,221.241L572.937,221.242L572.936,221.243L572.936,221.244L572.935,221.244L572.935,221.245L572.934,221.247L572.933,221.25L572.932,221.251L572.932,221.252L572.932,221.252L572.932,221.253L572.932,221.254L572.932,221.254L572.93,221.256L572.93,221.256L572.926,221.259L572.924,221.26L572.923,221.261L572.92,221.262L572.919,221.263L572.918,221.263L572.916,221.263L572.915,221.263L572.914,221.264L572.913,221.265L572.912,221.265L572.911,221.265L572.91,221.265L572.908,221.266L572.908,221.267L572.906,221.267L572.906,221.267L572.905,221.267L572.905,221.267L572.904,221.267L572.903,221.267L572.899,221.267L572.899,221.266L572.898,221.266L572.898,221.266L572.896,221.267L572.895,221.267L572.894,221.269L572.892,221.27L572.891,221.271L572.89,221.272L572.889,221.274L572.889,221.275L572.889,221.276L572.888,221.276L572.888,221.277L572.888,221.277L572.888,221.277L572.888,221.277L572.888,221.278L572.888,221.278L572.887,221.279L572.887,221.279L572.887,221.279L572.886,221.279L572.886,221.279L572.886,221.279L572.885,221.279L572.885,221.279L572.884,221.279L572.883,221.279L572.883,221.279L572.883,221.279L572.882,221.279L572.882,221.279L572.881,221.28L572.881,221.28L572.88,221.281L572.879,221.281L572.878,221.281L572.878,221.281L572.877,221.281L572.877,221.281L572.877,221.282L572.875,221.282L572.875,221.283L572.875,221.283L572.874,221.283L572.873,221.283L572.873,221.283L572.872,221.283L572.872,221.284L572.871,221.285L572.87,221.286L572.869,221.286L572.868,221.287L572.867,221.287L572.866,221.287L572.865,221.288L572.865,221.29L572.864,221.292L572.864,221.293L572.863,221.293L572.86,221.293L572.859,221.293L572.858,221.294L572.857,221.294L572.857,221.295L572.858,221.296L572.858,221.299L572.857,221.301L572.858,221.303L572.858,221.305L572.86,221.307L572.861,221.308L572.866,221.309L572.869,221.311L572.869,221.311L572.87,221.311L572.871,221.312L572.871,221.312L572.873,221.312L572.874,221.312L572.875,221.311L572.876,221.311L572.877,221.311L572.877,221.311L572.88,221.311L572.883,221.314L572.887,221.317L572.89,221.32L572.893,221.323L572.893,221.324L572.895,221.326L572.897,221.327L572.898,221.328L572.899,221.33L572.904,221.333L572.906,221.336L572.908,221.337L572.91,221.337L572.911,221.338L572.912,221.337L572.913,221.337L572.914,221.337L572.915,221.338L572.916,221.338L572.917,221.339L572.922,221.339L572.924,221.341L572.925,221.343L572.925,221.344L572.925,221.344L572.925,221.345L572.925,221.345L572.925,221.346L572.925,221.347L572.925,221.347L572.925,221.348L572.925,221.349L572.925,221.349L572.926,221.35L572.926,221.35L572.926,221.351L572.925,221.353L572.925,221.354L572.926,221.355L572.926,221.355L572.926,221.356L572.925,221.357L572.924,221.358L572.923,221.36L572.922,221.361L572.921,221.362L572.921,221.363L572.922,221.364L572.922,221.365L572.923,221.366L572.924,221.367L572.923,221.369L572.923,221.37L572.923,221.371L572.923,221.371L572.923,221.372L572.922,221.373L572.922,221.374L572.922,221.374L572.921,221.375L572.92,221.376L572.92,221.377L572.921,221.377L572.922,221.379L572.925,221.381L572.927,221.383L572.932,221.388L572.935,221.389L572.937,221.39L572.94,221.393L572.942,221.396L572.943,221.399L572.945,221.4L572.949,221.403L572.953,221.404L572.956,221.404L572.959,221.404L572.965,221.403L572.97,221.401L572.972,221.4L572.976,221.399L572.978,221.396L572.98,221.392L572.981,221.387L572.982,221.386L572.984,221.385L572.988,221.386L572.989,221.385L572.991,221.384L572.993,221.383L572.995,221.382L572.998,221.381L573.001,221.381L573.007,221.382L573.009,221.381L573.012,221.38L573.015,221.38L573.016,221.38L573.017,221.381L573.019,221.384L573.02,221.385L573.022,221.387L573.025,221.391L573.025,221.393L573.028,221.392L573.032,221.393L573.035,221.393L573.039,221.393L573.043,221.393L573.044,221.393L573.047,221.392L573.051,221.39L573.052,221.388L573.054,221.386L573.057,221.383L573.058,221.382L573.058,221.382L573.061,221.381L573.063,221.381L573.065,221.382L573.069,221.383L573.074,221.387L573.081,221.391L573.085,221.393L573.087,221.394L573.089,221.395L573.091,221.396L573.097,221.397L573.101,221.398L573.105,221.399L573.11,221.401L573.113,221.403L573.114,221.404L573.117,221.406L573.119,221.409L573.121,221.412L573.122,221.414L573.123,221.419L573.125,221.421L573.126,221.422L573.129,221.424L573.133,221.423L573.137,221.422L573.137,221.424L573.138,221.427L573.14,221.429L573.143,221.429L573.148,221.429L573.151,221.429L573.154,221.431L573.157,221.431L573.16,221.43L573.164,221.428L573.168,221.43L573.171,221.433L573.174,221.433L573.178,221.434L573.181,221.434L573.183,221.434L573.185,221.439L573.187,221.446L573.189,221.448L573.192,221.45L573.196,221.452L573.198,221.454L573.2,221.455L573.203,221.457L573.204,221.457L573.207,221.457L573.211,221.458L573.216,221.46L573.219,221.462L573.223,221.463L573.224,221.464L573.227,221.465L573.229,221.466L573.231,221.466L573.233,221.465L573.235,221.464L573.238,221.46L573.242,221.456L573.244,221.466L573.243,221.468L573.244,221.471L573.244,221.474L573.245,221.476L573.244,221.478L573.243,221.479L573.241,221.481L573.24,221.482L573.238,221.483L573.238,221.485L573.239,221.487L573.24,221.49L573.24,221.491L573.244,221.491L573.246,221.49L573.248,221.489L573.252,221.486L573.254,221.485L573.257,221.487L573.26,221.487L573.262,221.487L573.263,221.487L573.263,221.487L573.264,221.488L573.266,221.489L573.268,221.494L573.271,221.497L573.273,221.498L573.275,221.497L573.277,221.494L573.278,221.493L573.279,221.492L573.281,221.491L573.283,221.49L573.285,221.489L573.287,221.488L573.289,221.486L573.289,221.483L573.289,221.481L573.288,221.479L573.288,221.478L573.289,221.477L573.289,221.477L573.289,221.476L573.29,221.474L573.29,221.473L573.29,221.472L573.29,221.472L573.29,221.471L573.29,221.471L573.29,221.47L573.29,221.47L573.29,221.47L573.29,221.47L573.291,221.47L573.292,221.469L573.292,221.468L573.293,221.466L573.293,221.466L573.294,221.465L573.296,221.464L573.297,221.464L573.298,221.463L573.298,221.462L573.299,221.461L573.302,221.461L573.302,221.461L573.304,221.461L573.304,221.461L573.305,221.461L573.306,221.46L573.307,221.459L573.308,221.459L573.307,221.458L573.307,221.458L573.307,221.458L573.307,221.458L573.308,221.457L573.308,221.457L573.308,221.456L573.309,221.456L573.309,221.455L573.309,221.455L573.31,221.454L573.311,221.453L573.311,221.453L573.312,221.453L573.312,221.453L573.313,221.452L573.313,221.452L573.314,221.453L573.315,221.453L573.316,221.453L573.316,221.453L573.317,221.452L573.318,221.452L573.319,221.453L573.319,221.451L573.319,221.447L573.321,221.443L573.321,221.441L573.323,221.438L573.325,221.437L573.328,221.435L573.332,221.432L573.332,221.429L573.333,221.425L573.337,221.42L573.338,221.418L573.34,221.413L573.344,221.409L573.345,221.405L573.347,221.404L573.35,221.4L573.359,221.395L573.362,221.393L573.367,221.392L573.368,221.39L573.369,221.388L573.37,221.385L573.375,221.384L573.379,221.384L573.381,221.383L573.383,221.382L573.384,221.382L573.385,221.381L573.387,221.38L573.389,221.38L573.391,221.38L573.392,221.38L573.393,221.38L573.394,221.38L573.395,221.38L573.398,221.38L573.399,221.379L573.4,221.377L573.402,221.374L573.404,221.373L573.407,221.372L573.412,221.371L573.416,221.371L573.421,221.37L573.425,221.37L573.429,221.371L573.434,221.373L573.437,221.376L573.439,221.376L573.442,221.376L573.443,221.376L573.446,221.375L573.45,221.373L573.452,221.373L573.456,221.372L573.461,221.372L573.464,221.371L573.472,221.368L573.476,221.367L573.48,221.366L573.483,221.367L573.484,221.364L573.484,221.362L573.485,221.358L573.486,221.357L573.491,221.355L573.494,221.355L573.496,221.353L573.498,221.352L573.5,221.352L573.502,221.35L573.503,221.349L573.505,221.348L573.506,221.347L573.507,221.345L573.508,221.344L573.508,221.343L573.512,221.342L573.513,221.341L573.514,221.341L573.516,221.342L573.517,221.342L573.519,221.341L573.522,221.34L573.523,221.34L573.525,221.339L573.527,221.337L573.529,221.339L573.532,221.341L573.533,221.341L573.535,221.342L573.537,221.343L573.539,221.346L573.544,221.349L573.546,221.349L573.548,221.35L573.551,221.35L573.553,221.348L573.555,221.349L573.558,221.352L573.558,221.352L573.56,221.353L573.564,221.354L573.568,221.361L573.571,221.362L573.573,221.361L573.577,221.363L573.582,221.369L573.584,221.368L573.587,221.366L573.589,221.365L573.59,221.363L573.592,221.362L573.596,221.362L573.599,221.364L573.605,221.364L573.605,221.363L573.606,221.363L573.607,221.362L573.61,221.359L573.611,221.357L573.611,221.354L573.611,221.353L573.612,221.351L573.613,221.351L573.615,221.351L573.617,221.351L573.618,221.35L573.619,221.349L573.621,221.348L573.622,221.348L573.623,221.346L573.625,221.344L573.625,221.343L573.626,221.342L573.628,221.341L573.629,221.34L573.63,221.339L573.633,221.335L573.634,221.333L573.635,221.332L573.636,221.331L573.638,221.331L573.64,221.33L573.641,221.329L573.642,221.328L573.642,221.326L573.642,221.323L573.642,221.321L573.642,221.319L573.642,221.317L573.642,221.316L573.643,221.314L573.644,221.312L573.646,221.309L573.648,221.307L573.649,221.305L573.651,221.304L573.654,221.303L573.654,221.301L573.654,221.298L573.656,221.299L573.659,221.302L573.661,221.305L573.664,221.308L573.667,221.306L573.67,221.305L573.671,221.308L573.672,221.309L573.676,221.31L573.677,221.31L573.679,221.311L573.681,221.309L573.683,221.309L573.684,221.309L573.686,221.308L573.688,221.307L573.692,221.307L573.694,221.308L573.696,221.308L573.7,221.31L573.703,221.31L573.706,221.309L573.708,221.309L573.71,221.309L573.715,221.311L573.717,221.311L573.718,221.313L573.719,221.316L573.72,221.318L573.72,221.317L573.721,221.317L573.721,221.316L573.722,221.316L573.722,221.315L573.721,221.313L573.721,221.312L573.721,221.31L573.722,221.308L573.722,221.306L573.722,221.304L573.723,221.302L573.722,221.301L573.722,221.299L573.723,221.297L573.722,221.294L573.721,221.293L573.719,221.291L573.718,221.291L573.718,221.289L573.718,221.288L573.718,221.286L573.718,221.285L573.719,221.283L573.72,221.282L573.721,221.28L573.722,221.279L573.722,221.278L573.723,221.277L573.724,221.277L573.726,221.276L573.728,221.275L573.729,221.272L573.731,221.27L573.732,221.267L573.733,221.263L573.733,221.262L573.733,221.26L573.734,221.259L573.734,221.258L573.734,221.255L573.734,221.254L573.734,221.252L573.734,221.25L573.733,221.247L573.733,221.246L573.734,221.243L573.734,221.24L573.735,221.238L573.735,221.236L573.735,221.235L573.735,221.233L573.735,221.232L573.734,221.231L573.735,221.23L573.735,221.229L573.735,221.228L573.735,221.227L573.735,221.227L573.735,221.226L573.736,221.225L573.738,221.224L573.739,221.223L573.74,221.222L573.74,221.221L573.74,221.221L573.741,221.219L573.742,221.217L573.742,221.215L573.742,221.214L573.743,221.212L573.743,221.211L573.744,221.211L573.744,221.21L573.744,221.21L573.744,221.209L573.744,221.209L573.745,221.207L573.745,221.206L573.746,221.205L573.746,221.203L573.747,221.202L573.747,221.201L573.748,221.2L573.748,221.199L573.749,221.198L573.749,221.196L573.749,221.195L573.75,221.194L573.753,221.193L573.754,221.192L573.758,221.19L573.759,221.189L573.76,221.188L573.761,221.188L573.762,221.187L573.763,221.187L573.764,221.186L573.766,221.184L573.769,221.181L573.771,221.18L573.774,221.177L573.774,221.177L573.777,221.175L573.779,221.174L573.78,221.174L573.784,221.172L573.785,221.171L573.786,221.17L573.787,221.17L573.788,221.169L573.788,221.168L573.789,221.167L573.789,221.166L573.789,221.165L573.789,221.164L573.789,221.163L573.789,221.162L573.789,221.161L573.79,221.161L573.791,221.16L573.792,221.16L573.793,221.159L573.794,221.159L573.795,221.159L573.796,221.159L573.797,221.159L573.798,221.159L573.799,221.159L573.8,221.159L573.801,221.159L573.802,221.158L573.803,221.158L573.803,221.157L573.805,221.156L573.805,221.155L573.806,221.155L573.807,221.155L573.808,221.154L573.808,221.154L573.81,221.154L573.812,221.153L573.814,221.153L573.815,221.153L573.815,221.152L573.816,221.151L573.818,221.149L573.822,221.147L573.822,221.147L573.823,221.146L573.825,221.145L573.826,221.144L573.827,221.143L573.828,221.142L573.829,221.142L573.83,221.141L573.831,221.14L573.832,221.139L573.834,221.138L573.836,221.136L573.837,221.135L573.842,221.128L573.843,221.126L573.843,221.124L573.843,221.121L573.844,221.118L573.846,221.115L573.846,221.113L573.848,221.11L573.849,221.108L573.851,221.106L573.853,221.104L573.857,221.102L573.861,221.1L573.866,221.1L573.866,221.101L573.867,221.103L573.868,221.106L573.874,221.106L573.875,221.106L573.879,221.105L573.88,221.106L573.882,221.106L573.886,221.107L573.892,221.109L573.894,221.112L573.895,221.115L573.899,221.117L573.908,221.119L573.918,221.126L573.919,221.127L573.921,221.127L573.924,221.125L573.927,221.122L573.929,221.12L573.933,221.118L573.937,221.116L573.938,221.116L573.939,221.115L573.941,221.116L573.944,221.115L573.951,221.116L573.953,221.115L573.957,221.116L573.961,221.117L573.966,221.116L573.973,221.118L573.978,221.122L573.979,221.124L573.982,221.13L573.982,221.131L573.985,221.136L573.988,221.142L573.988,221.14L573.989,221.139L573.989,221.138L573.99,221.137L573.991,221.137L573.991,221.137L573.992,221.137L573.994,221.135L573.996,221.134L573.996,221.134L573.998,221.133L574,221.133L574.002,221.132L574.003,221.132L574.005,221.132L574.012,221.134L574.016,221.132L574.018,221.131L574.019,221.13L574.02,221.128L574.02,221.126L574.021,221.123L574.022,221.123L574.022,221.12L574.023,221.118L574.024,221.116L574.024,221.113L574.025,221.111L574.028,221.11L574.031,221.11L574.046,221.112L574.067,221.118L574.101,221.128L574.116,221.132L574.125,221.135L574.129,221.137L574.156,221.147L574.162,221.148L574.165,221.149L574.168,221.149L574.169,221.149L574.182,221.157L574.19,221.159L574.197,221.159L574.2,221.155L574.202,221.152L574.201,221.147L574.199,221.14L574.194,221.132L574.191,221.125L574.185,221.116L574.186,221.109L574.188,221.107L574.188,221.105L574.187,221.101L574.185,221.1L574.181,221.092L574.174,221.083L574.167,221.075L574.166,221.072L574.167,221.069L574.167,221.069L574.167,221.068L574.168,221.068L574.169,221.067L574.169,221.066L574.17,221.065L574.171,221.065L574.172,221.065L574.172,221.064L574.173,221.064L574.173,221.063L574.174,221.063L574.175,221.062L574.175,221.061L574.175,221.06L574.176,221.059L574.177,221.059L574.177,221.059L574.178,221.059L574.179,221.059L574.18,221.059L574.18,221.058L574.18,221.056L574.18,221.055L574.18,221.055L574.18,221.055L574.18,221.054L574.18,221.054L574.18,221.052L574.18,221.051L574.18,221.051L574.18,221.049L574.181,221.048L574.181,221.048L574.181,221.047L574.181,221.047L574.182,221.045L574.182,221.045L574.181,221.044L574.182,221.042L574.182,221.039L574.182,221.037L574.183,221.035L574.183,221.034L574.183,221.033L574.183,221.033L574.183,221.032L574.184,221.032L574.185,221.031L574.185,221.031L574.186,221.03L574.187,221.03L574.187,221.03L574.188,221.029L574.189,221.029L574.189,221.029L574.19,221.029L574.191,221.029L574.191,221.029L574.192,221.029L574.193,221.029L574.193,221.03L574.194,221.029L574.195,221.03L574.196,221.03L574.197,221.031L574.198,221.03L574.199,221.03L574.202,221.029L574.203,221.029L574.205,221.028L574.205,221.028L574.206,221.028L574.206,221.028L574.207,221.029L574.208,221.029L574.209,221.029L574.209,221.029L574.21,221.029L574.211,221.029L574.212,221.03L574.213,221.031L574.214,221.031L574.215,221.031L574.215,221.031L574.216,221.031L574.216,221.032L574.217,221.032L574.217,221.031L574.218,221.031L574.219,221.03L574.22,221.03L574.221,221.03L574.222,221.031L574.224,221.03L574.224,221.03L574.225,221.027L574.225,221.027L574.226,221.026L574.226,221.026L574.227,221.025L574.229,221.024L574.229,221.024L574.23,221.023L574.231,221.023L574.232,221.023L574.234,221.023L574.235,221.022L574.238,221.021L574.24,221.021L574.24,221.02L574.242,221.019L574.244,221.018L574.244,221.017L574.244,221.016L574.245,221.015L574.245,221.014L574.246,221.013L574.246,221.012L574.246,221.012L574.246,221.011L574.247,221.01L574.246,221.01L574.247,221.009L574.247,221.009L574.246,221.008L574.245,221.007L574.245,221.006L574.246,221.006L574.246,221.005L574.248,221.004L574.249,221.003L574.25,221.002L574.251,221.002L574.252,221.001L574.253,221.001L574.254,221.001L574.259,221.005L574.261,221.01L574.272,221.026L574.282,221.036L574.294,221.044L574.3,221.05L574.304,221.049L574.309,221.049L574.312,221.048L574.315,221.047L574.318,221.045L574.329,221.041L574.337,221.041L574.347,221.043L574.356,221.043L574.362,221.043L574.369,221.044L574.37,221.045L574.37,221.045L574.371,221.045L574.372,221.045L574.372,221.045L574.373,221.046L574.382,221.047L574.383,221.047L574.384,221.047L574.391,221.047L574.396,221.048L574.4,221.048L574.411,221.046L574.417,221.046L574.421,221.045L574.428,221.043L574.443,221.04L574.451,221.037L574.458,221.028L574.467,221.025L574.467,221.023L574.467,221.021L574.464,221.003L574.452,220.992L574.447,220.987L574.444,220.985L574.447,220.981L574.448,220.973L574.446,220.961L574.447,220.93L574.439,220.917L574.437,220.909L574.431,220.899L574.431,220.898L574.434,220.887L574.44,220.869L574.441,220.859L574.442,220.856L574.444,220.852L574.44,220.85L574.439,220.847L574.438,220.845L574.436,220.843L574.433,220.839L574.429,220.835L574.426,220.831L574.424,220.83L574.42,220.829L574.416,220.828L574.413,220.827L574.413,220.827L574.411,220.823L574.413,220.816L574.413,220.81L574.413,220.807L574.412,220.803L574.414,220.793L574.413,220.791L574.407,220.78L574.403,220.775L574.4,220.769L574.396,220.762L574.389,220.749L574.386,220.733L574.387,220.729L574.386,220.72L574.386,220.718L574.386,220.715L574.39,220.716L574.391,220.716L574.395,220.718L574.4,220.725L574.401,220.731L574.412,220.74L574.415,220.739L574.421,220.74L574.427,220.741L574.44,220.746L574.456,220.759L574.458,220.765L574.465,220.768L574.469,220.767L574.479,220.771L574.49,220.774L574.495,220.77L574.503,220.77L574.506,220.774L574.505,220.776L574.507,220.778L574.506,220.78L574.503,220.781L574.503,220.781L574.502,220.784L574.501,220.789L574.502,220.793L574.503,220.795L574.505,220.796L574.508,220.795L574.512,220.795L574.528,220.799L574.54,220.805L574.556,220.806L574.562,220.812L574.565,220.814L574.568,220.819L574.575,220.823L574.585,220.828L574.589,220.826L574.591,220.811L574.601,220.81L574.609,220.809L574.611,220.809L574.618,220.802L574.622,220.799L574.625,220.796L574.628,220.789L574.64,220.789L574.644,220.79L574.65,220.792L574.655,220.791L574.657,220.789L574.66,220.787L574.664,220.789L574.667,220.792L574.672,220.795L574.676,220.796L574.68,220.799L574.683,220.8L574.688,220.808L574.694,220.815L574.707,220.823L574.713,220.828L574.717,220.834L574.726,220.837L574.734,220.838L574.747,220.842L574.756,220.844L574.758,220.841L574.758,220.838L574.758,220.835L574.766,220.823L574.766,220.818L574.765,220.812L574.763,220.806L574.766,220.797L574.761,220.796L574.768,220.788L574.772,220.789L574.776,220.787L574.781,220.791L574.783,220.786L574.781,220.783L574.775,220.779L574.774,220.77L574.773,220.761L574.773,220.755L574.771,220.748L574.766,220.742L574.767,220.735L574.772,220.732L574.776,220.733L574.794,220.737L574.798,220.737L574.801,220.693L574.802,220.685L574.802,220.669L574.803,220.663L574.824,220.652L574.838,220.647L574.842,220.642L574.842,220.613L574.873,220.626L574.876,220.627L574.879,220.626L574.893,220.615L574.905,220.607L574.905,220.604L574.903,220.6L574.903,220.596L574.904,220.591L574.903,220.589L574.901,220.589L574.901,220.588L574.902,220.586L574.905,220.588L574.91,220.592L574.912,220.593L574.913,220.593L574.914,220.59L574.916,220.59L574.918,220.591L574.923,220.591L574.922,220.581L574.919,220.566L574.916,220.555L574.913,220.532L574.91,220.517L574.906,220.517L574.903,220.517L574.903,220.514L574.901,220.513L574.891,220.513L574.884,220.516L574.88,220.52L574.877,220.521L574.876,220.516L574.896,220.504L574.906,220.504L574.899,220.489L574.896,220.482L574.896,220.478L574.893,220.477L574.891,220.47L574.89,220.466L574.892,220.445L574.887,220.433L574.889,220.425L574.89,220.418L574.896,220.409L574.903,220.406L574.911,220.403L574.923,220.399L574.927,220.396L574.927,220.388L574.929,220.384L574.934,220.384L574.933,220.376L574.931,220.371L574.931,220.366L574.929,220.358L574.926,220.355L574.923,220.35L574.913,220.345L574.91,220.338L574.901,220.334L574.896,220.33L574.887,220.325L574.888,220.322L574.885,220.31L574.885,220.307L574.88,220.306L574.878,220.305L574.87,220.3L574.869,220.297L574.869,220.293L574.864,220.289L574.858,220.29L574.854,220.285L574.85,220.28L574.849,220.276L574.849,220.272L574.848,220.269L574.845,220.266L574.843,220.263L574.838,220.255L574.836,220.25L574.834,220.249L574.831,220.247L574.828,220.246L574.824,220.25L574.814,220.248L574.784,220.246L574.777,220.23L574.759,220.224L574.753,220.221L574.745,220.215L574.74,220.212L574.724,220.199L574.726,220.195L574.734,220.198L574.745,220.197L574.741,220.184L574.737,220.173L574.737,220.17L574.742,220.167L574.739,220.164L574.732,220.159L574.727,220.156L574.725,220.154L574.723,220.153L574.719,220.15L574.702,220.145L574.697,220.143L574.691,220.141L574.679,220.137L574.664,220.136L574.666,220.129L574.668,220.127L574.668,220.123L574.665,220.123L574.663,220.122L574.663,220.12L574.664,220.12L574.667,220.116L574.666,220.112L574.664,220.11L574.662,220.107L574.662,220.103L574.663,220.102L574.664,220.097L574.66,220.092L574.629,220.107L574.622,220.11L574.62,220.105L574.619,220.102L574.614,220.093L574.605,220.073L574.605,220.072L574.603,220.069L574.6,220.066L574.6,220.065L574.582,220.037L574.581,220.037L574.583,220.034L574.584,220.031L574.576,220.017L574.575,220.015L574.571,220.013L574.571,220.008L574.565,220.007L574.569,220.002L574.55,219.963L574.546,219.956L574.537,219.937L574.536,219.936L574.529,219.92L574.512,219.886L574.495,219.851L574.471,219.839L574.47,219.836L574.467,219.834L574.449,219.834L574.448,219.934L574.458,219.935L574.47,219.936L574.469,219.988L574.463,219.991L574.462,219.99L574.46,219.99L574.458,219.988L574.457,219.985L574.457,219.982L574.455,219.983L574.453,219.984L574.451,219.983L574.452,219.979L574.446,219.98L574.444,219.977L574.442,219.977L574.442,219.979L574.44,219.981L574.438,219.982L574.438,219.98L574.437,219.976L574.435,219.978L574.432,219.979L574.432,219.978L574.433,219.975L574.429,219.973L574.427,219.972L574.424,219.972L574.423,219.969L574.416,219.968L574.409,219.97L574.409,219.973L574.407,219.974L574.405,219.973L574.405,219.969L574.408,219.965L574.396,219.967L574.395,219.969L574.393,219.971L574.391,219.97L574.391,219.967L574.392,219.965L574.389,219.965L574.387,219.963L574.384,219.966L574.381,219.965L574.379,219.965L574.377,219.967L574.376,219.967L574.373,219.966L574.373,219.963L574.374,219.96L574.37,219.962L574.368,219.966L574.366,219.964L574.366,219.961L574.362,219.962L574.358,219.96L574.349,219.952L574.345,219.953L574.328,219.948L574.323,219.945L574.314,219.94L574.298,219.936L574.285,219.93L574.289,219.848L574.289,219.764L574.292,219.689L574.294,219.606L574.296,219.524L574.294,219.523L574.288,219.522L574.286,219.517L574.283,219.515L574.279,219.515L574.277,219.514L574.274,219.513L574.273,219.512L574.272,219.511L574.27,219.511L574.268,219.511L574.266,219.512L574.263,219.513L574.262,219.515L574.262,219.516L574.263,219.517L574.262,219.518L574.261,219.519L574.259,219.52L574.258,219.52L574.255,219.519L574.255,219.518L574.254,219.518L574.253,219.517L574.25,219.515L574.245,219.516L574.244,219.516L574.24,219.516L574.232,219.516L574.223,219.516L574.217,219.526L574.209,219.521L574.2,219.527L574.192,219.53L574.187,219.542L574.156,219.485L574.149,219.476L574.148,219.472L574.154,219.468L574.152,219.466L574.153,219.462L574.156,219.457L574.151,219.453L574.15,219.452L574.153,219.444L574.144,219.444L574.139,219.436L574.136,219.434L574.138,219.432L574.137,219.426L574.136,219.422L574.137,219.417L574.141,219.414L574.137,219.413L574.134,219.409L574.135,219.404L574.132,219.406L574.131,219.4L574.136,219.393L574.137,219.382L574.14,219.382L574.146,219.384L574.158,219.387L574.162,219.381L574.153,219.377L574.157,219.372L574.154,219.369L574.152,219.366L574.15,219.365L574.148,219.362L574.147,219.36L574.148,219.358L574.151,219.356L574.152,219.352L574.154,219.35L574.153,219.344L574.151,219.339L574.149,219.336L574.15,219.334L574.151,219.33L574.149,219.327L574.143,219.327L574.141,219.325L574.139,219.322L574.14,219.319L574.142,219.315L574.142,219.315L574.14,219.311L574.139,219.308L574.138,219.304L574.138,219.302L574.138,219.301L574.137,219.3L574.137,219.299L574.136,219.297L574.135,219.296L574.135,219.292L574.135,219.289L574.138,219.285L574.158,219.268L574.167,219.259L574.168,219.257L574.17,219.251L574.17,219.251L574.171,219.25L574.174,219.242L574.179,219.228L574.167,219.184L574.172,219.123L574.21,219.113L574.216,219.111L574.229,219.108L574.242,219.104L574.245,219.103L574.247,219.103L574.247,219.102L574.262,219.099L574.262,219.099L574.277,219.094L574.281,219.093L574.282,219.093L574.286,219.091L574.287,219.091L574.288,219.091L574.29,219.09L574.305,219.086L574.306,219.085L574.307,219.085L574.314,219.083L574.317,219.082L574.323,219.08L574.328,219.079L574.345,219.074L574.346,219.074L574.349,219.073L574.356,219.071L574.375,219.066L574.385,219.063L574.385,219.064L574.385,219.078L574.384,219.086L574.384,219.088L574.384,219.092L574.38,219.125L574.38,219.126L574.38,219.126L574.379,219.133ZM800,0L800,12.246L800,78.668L800,145.789L800,215.835L800,261.497L800,300L800,338.503L800,384.165L800,454.211L800,600L800,600L200,600L200,600L200,454.211L200,384.165L200,338.503L200,300L200,261.497L200,215.835L200,145.789L200,78.668L200,12.246L200,0L200,0L800,0Z"/>
<path d="M573.773,220.488m0,4.5a4.5,4.5 0 1,1 0,-9a4.5,4.5 0 1,1 0,9z"/>
<path d="M574.47,220.414m0,4.5a4.5,4.5 0 1,1 0,-9a4.5,4.5 0 1,1 0,9z"/>
</svg>