<?xml version="1.0" encoding="UTF-8"?>
<svg xmlns="http://www.w3.org/2000/svg" viewBox="0 0 1000 600" stroke="#000" stroke-width="0.3" fill="#ccc">
<path d="M552.064,163.033L552.067,163.048L552.07,163.05L552.071,163.051L552.072,163.052L552.072,163.054L552.073,163.056L552.072,163.057L552.072,163.059L552.071,163.059L552.071,163.061L552.076,163.082L552.08,163.086L552.083,163.087L552.087,163.089L552.091,163.094L552.092,163.214L552.092,163.222L552.092,163.23L552.097,163.257L552.109,163.328L552.12,163.356L552.129,163.366L552.13,163.373L552.138,163.381L552.145,163.385L552.148,163.39L552.153,163.395L552.153,163.4L552.157,163.406L552.268,163.486L552.273,163.492L552.278,163.502L552.279,163.503L552.281,163.505L552.282,163.507L552.285,163.51L552.287,163.514L552.289,163.516L552.293,163.518L552.294,163.52L552.296,163.522L552.298,163.526L552.3,163.528L552.301,163.531L552.303,163.537L552.302,163.538L552.303,163.541L552.304,163.542L552.304,163.543L552.303,163.546L552.302,163.549L552.303,163.553L552.305,163.556L552.309,163.559L552.309,163.561L552.309,163.562L552.313,163.563L552.312,163.57L552.316,163.574L552.321,163.575L552.332,163.58L552.34,163.587L552.351,163.598L552.375,163.593L552.398,163.619L552.438,163.663L552.415,163.73L552.504,163.766L552.534,163.841L552.57,163.928L552.606,164.018L552.621,164.048L552.621,164.048L552.62,164.049L552.62,164.05L552.62,164.051L552.619,164.051L552.62,164.051L552.62,164.052L552.62,164.052L552.62,164.053L552.62,164.053L552.621,164.053L552.622,164.053L552.622,164.053L552.623,164.053L552.623,164.054L552.623,164.054L552.623,164.054L552.622,164.054L552.622,164.054L552.622,164.055L552.623,164.055L552.623,164.055L552.623,164.055L552.624,164.054L552.624,164.054L552.625,164.055L552.626,164.054L552.626,164.055L552.626,164.055L552.626,164.056L552.627,164.056L552.627,164.056L552.628,164.057L552.636,164.066L552.636,164.066L552.635,164.067L552.635,164.068L552.634,164.069L552.634,164.069L552.634,164.07L552.635,164.071L552.637,164.074L552.637,164.075L552.638,164.076L552.638,164.076L552.645,164.086L552.641,164.092L552.617,164.141L552.569,164.234L552.567,164.238L552.486,164.386L552.426,164.495L552.431,164.507L552.44,164.532L552.444,164.542L552.427,164.541L552.425,164.541L552.416,164.54L552.399,164.539L552.391,164.564L552.383,164.588L552.375,164.615L552.374,164.619L552.368,164.64L552.366,164.649L552.356,164.682L552.341,164.737L552.338,164.748L552.334,164.763L552.328,164.786L552.301,164.884L552.309,164.911L552.309,164.938L552.306,164.939L552.302,164.938L552.299,164.949L552.298,164.95L552.295,164.95L552.294,164.951L552.294,164.952L552.295,164.953L552.296,164.954L552.297,164.954L552.295,164.956L552.293,164.96L552.293,164.963L552.294,164.965L552.294,164.967L552.294,164.969L552.294,164.972L552.295,164.974L552.295,164.976L552.295,164.978L552.294,164.979L552.293,164.982L552.294,164.989L552.295,164.99L552.295,164.993L552.294,164.996L552.294,165L552.294,165.002L552.294,165.008L552.291,165.017L552.289,165.027L552.288,165.03L552.287,165.033L552.285,165.035L552.283,165.035L552.28,165.036L552.277,165.041L552.273,165.046L552.272,165.047L552.269,165.048L552.268,165.048L552.264,165.047L552.263,165.047L552.262,165.047L552.26,165.05L552.258,165.052L552.256,165.053L552.254,165.053L552.253,165.053L552.251,165.052L552.249,165.052L552.247,165.051L552.246,165.051L552.244,165.052L552.243,165.053L552.243,165.054L552.245,165.057L552.247,165.059L552.248,165.06L552.248,165.061L552.249,165.062L552.249,165.063L552.249,165.064L552.248,165.065L552.246,165.065L552.245,165.064L552.242,165.064L552.242,165.065L552.22,165.121L552.193,165.19L552.187,165.203L552.141,165.322L552.122,165.369L552.09,165.451L552.074,165.479L552.076,165.484L552.076,165.488L552.059,165.524L552.057,165.53L552.036,165.577L551.997,165.587L551.975,165.594L551.977,165.617L551.956,165.637L551.942,165.706L551.938,165.734L551.938,165.766L551.914,165.77L551.897,165.78L551.823,165.872L551.795,165.906L551.786,165.914L551.629,166.103L551.572,166.172L551.571,166.172L551.572,166.173L551.573,166.174L551.574,166.175L551.574,166.175L551.575,166.175L551.575,166.174L551.575,166.174L551.576,166.176L551.578,166.176L551.578,166.176L551.578,166.175L551.578,166.174L551.579,166.174L551.579,166.174L551.58,166.174L551.58,166.175L551.581,166.175L551.583,166.176L551.583,166.176L551.584,166.177L551.585,166.177L551.585,166.179L551.584,166.179L551.584,166.18L551.585,166.181L551.586,166.181L551.588,166.181L551.59,166.183L551.59,166.184L551.592,166.184L551.593,166.185L551.592,166.186L551.593,166.187L551.593,166.187L551.594,166.187L551.595,166.187L551.596,166.188L551.596,166.188L551.599,166.189L551.601,166.19L551.603,166.191L551.603,166.191L551.603,166.192L551.603,166.192L551.603,166.193L551.603,166.194L551.591,166.246L551.572,166.27L551.551,166.266L551.534,166.259L551.507,166.254L551.478,166.285L551.478,166.285L551.434,166.332L551.412,166.356L551.411,166.357L551.402,166.367L551.39,166.379L551.351,166.396L551.349,166.4L551.348,166.431L551.315,166.468L551.303,166.486L551.289,166.504L551.275,166.524L551.244,166.554L551.241,166.554L551.239,166.558L551.201,166.618L551.148,166.612L551.141,166.612L551.123,166.614L551.095,166.617L551.086,166.635L551.061,166.677L551.059,166.679L551.057,166.68L551.055,166.681L551.053,166.682L551.051,166.683L551.05,166.686L551.049,166.688L551.048,166.69L551.047,166.693L551.047,166.695L551.048,166.697L551.048,166.699L551.048,166.701L551.049,166.705L551.049,166.706L551.049,166.708L551.05,166.713L551.052,166.716L551.053,166.718L551.054,166.721L551.056,166.723L551.057,166.725L551.057,166.727L551.057,166.729L551.057,166.733L551.057,166.735L551.057,166.737L551.057,166.738L551.058,166.739L551.059,166.742L551.059,166.743L551.06,166.743L551.059,166.745L551.055,166.754L551.054,166.755L551.054,166.756L551.05,166.762L551.046,166.771L551.005,166.857L550.982,166.887L550.943,166.937L550.901,166.996L550.891,167.009L550.826,167.106L550.804,167.137L550.75,167.216L550.74,167.231L550.745,167.238L550.74,167.246L550.732,167.243L550.706,167.281L550.68,167.304L550.628,167.363L550.586,167.433L550.574,167.445L550.563,167.457L550.547,167.457L550.546,167.457L550.546,167.458L550.545,167.459L550.544,167.46L550.544,167.46L550.544,167.461L550.543,167.461L550.542,167.462L550.541,167.463L550.541,167.464L550.541,167.465L550.541,167.466L550.54,167.466L550.539,167.466L550.538,167.467L550.537,167.468L550.536,167.468L550.534,167.469L550.534,167.469L550.533,167.469L550.533,167.47L550.532,167.47L550.531,167.47L550.53,167.47L550.53,167.471L550.529,167.471L550.529,167.472L550.528,167.473L550.527,167.473L550.525,167.474L550.524,167.475L550.524,167.476L550.524,167.477L550.523,167.478L550.522,167.478L550.522,167.478L550.521,167.479L550.52,167.479L550.52,167.479L550.519,167.478L550.519,167.478L550.518,167.478L550.517,167.479L550.517,167.479L550.517,167.479L550.517,167.479L550.516,167.48L550.516,167.48L550.515,167.481L550.515,167.482L550.514,167.483L550.513,167.483L550.513,167.484L550.513,167.484L550.512,167.485L550.512,167.486L550.512,167.487L550.512,167.487L550.511,167.487L550.511,167.487L550.51,167.487L550.509,167.49L550.509,167.49L550.507,167.493L550.507,167.494L550.507,167.494L550.508,167.495L550.51,167.497L550.51,167.498L550.51,167.499L550.51,167.5L550.511,167.501L550.511,167.502L550.514,167.519L550.521,167.557L550.518,167.567L550.501,167.592L550.474,167.595L550.457,167.597L550.439,167.623L550.424,167.645L550.404,167.674L550.404,167.675L550.382,167.703L550.368,167.721L550.352,167.742L550.335,167.745L550.323,167.747L550.325,167.763L550.327,167.779L550.296,167.819L550.276,167.844L550.259,167.865L550.246,167.879L550.24,167.885L550.125,168.003L550.123,168.004L550.121,168.003L550.12,168.003L550.118,168.004L550.118,168.006L550.118,168.008L550.079,168.164L550.064,168.191L550.046,168.211L550.046,168.212L550.046,168.213L550.045,168.214L550.044,168.215L550.043,168.215L550.033,168.225L550.023,168.235L549.986,168.272L549.977,168.281L549.927,168.332L549.918,168.341L549.918,168.342L549.917,168.344L549.916,168.345L549.914,168.346L549.913,168.346L549.896,168.362L549.82,168.443L549.798,168.466L549.795,168.469L549.791,168.473L549.788,168.476L549.786,168.478L549.782,168.482L549.78,168.484L549.778,168.49L549.778,168.491L549.776,168.492L549.775,168.495L549.774,168.498L549.773,168.502L549.772,168.502L549.769,168.502L549.769,168.525L549.742,168.525L549.731,168.538L549.715,168.558L549.706,168.569L549.702,168.573L549.701,168.575L549.7,168.576L549.699,168.576L549.699,168.578L549.698,168.578L549.696,168.584L549.695,168.593L549.695,168.593L549.695,168.594L549.694,168.598L549.692,168.601L549.69,168.606L549.69,168.607L549.688,168.611L549.689,168.614L549.688,168.617L549.689,168.618L549.689,168.621L549.689,168.622L549.688,168.625L549.687,168.628L549.687,168.631L549.687,168.633L549.687,168.634L549.686,168.636L549.686,168.636L549.685,168.637L549.685,168.638L549.685,168.639L549.685,168.639L549.685,168.64L549.685,168.641L549.685,168.641L549.685,168.642L549.685,168.642L549.684,168.642L549.684,168.643L549.685,168.644L549.685,168.644L549.684,168.645L549.684,168.645L549.684,168.647L549.684,168.647L549.683,168.647L549.683,168.647L549.683,168.647L549.682,168.647L549.681,168.647L549.681,168.646L549.681,168.646L549.68,168.646L549.68,168.646L549.679,168.647L549.679,168.646L549.678,168.647L549.677,168.646L549.677,168.646L549.676,168.647L549.676,168.647L549.675,168.647L549.674,168.648L549.673,168.65L549.672,168.65L549.672,168.65L549.656,168.678L549.649,168.683L549.641,168.694L549.627,168.716L549.622,168.722L549.619,168.726L549.616,168.73L549.61,168.737L549.603,168.746L549.591,168.762L549.583,168.802L549.581,168.807L549.58,168.81L549.58,168.831L549.568,168.857L549.55,168.877L549.518,168.911L549.491,168.932L549.489,168.934L549.481,168.94L549.475,168.948L549.459,168.967L549.405,169.031L549.405,169.032L549.409,169.051L549.409,169.052L549.35,169.111L549.349,169.111L549.348,169.112L549.345,169.116L549.344,169.118L549.346,169.121L549.342,169.12L549.341,169.12L549.335,169.122L549.334,169.122L549.334,169.125L549.333,169.127L549.33,169.129L549.329,169.13L549.328,169.13L549.325,169.132L549.324,169.134L549.324,169.135L549.321,169.137L549.32,169.138L549.298,169.137L549.263,169.149L549.16,169.151L549.172,169.257L549.074,169.386L549.023,169.453L548.891,169.627L548.89,169.63L548.888,169.634L548.884,169.636L548.88,169.638L548.876,169.645L548.875,169.649L548.873,169.652L548.87,169.656L548.87,169.662L548.87,169.666L548.858,169.69L548.85,169.705L548.844,169.717L548.86,169.739L548.868,169.756L548.873,169.769L548.875,169.775L548.881,169.782L548.892,169.788L548.897,169.804L548.902,169.813L548.908,169.827L548.93,169.864L548.945,169.895L548.948,169.894L548.951,169.892L548.954,169.893L548.98,169.912L549.008,169.937L549.01,169.945L549.013,169.948L549.016,169.949L549.019,169.951L549.024,169.95L549.028,169.952L549.03,169.957L549.041,169.97L549.061,169.97L549.077,169.971L549.09,169.975L549.09,169.975L549.1,169.976L549.148,169.973L549.168,169.977L549.178,169.981L549.192,169.994L549.195,170.004L549.195,170.015L549.196,170.025L549.198,170.028L549.202,170.03L549.206,170.031L549.218,170.031L549.228,170.023L549.233,170.024L549.237,170.028L549.241,170.032L549.244,170.032L549.244,170.027L549.246,170.023L549.249,170.023L549.252,170.024L549.252,170.028L549.251,170.039L549.251,170.048L549.268,170.072L549.273,170.079L549.275,170.086L549.275,170.089L549.272,170.091L549.265,170.091L549.263,170.094L549.262,170.098L549.256,170.108L549.253,170.109L549.252,170.11L549.253,170.113L549.264,170.122L549.265,170.124L549.264,170.128L549.264,170.136L549.262,170.14L549.261,170.143L549.262,170.145L549.268,170.157L549.269,170.165L549.279,170.171L549.284,170.18L549.27,170.193L549.272,170.208L549.274,170.222L549.283,170.224L549.284,170.227L549.287,170.228L549.289,170.23L549.295,170.233L549.305,170.241L549.324,170.239L549.352,170.24L549.365,170.241L549.364,170.226L549.373,170.225L549.383,170.226L549.393,170.229L549.403,170.236L549.412,170.243L549.417,170.249L549.432,170.237L549.451,170.247L549.46,170.252L549.48,170.253L549.494,170.243L549.495,170.243L549.513,170.243L549.524,170.251L549.529,170.255L549.534,170.259L549.55,170.259L549.554,170.259L549.555,170.259L549.561,170.259L549.562,170.261L549.578,170.263L549.585,170.261L549.586,170.261L549.591,170.261L549.601,170.262L549.607,170.266L549.613,170.268L549.625,170.268L549.63,170.266L549.659,170.265L549.661,170.268L549.67,170.277L549.682,170.29L549.686,170.293L549.687,170.295L549.689,170.295L549.69,170.294L549.701,170.294L549.705,170.291L549.713,170.282L549.723,170.279L549.725,170.279L549.727,170.28L549.728,170.28L549.736,170.286L549.738,170.287L549.742,170.283L549.752,170.266L549.756,170.261L549.758,170.261L549.768,170.267L549.775,170.271L549.777,170.272L549.797,170.285L549.818,170.288L549.837,170.296L549.864,170.304L549.89,170.312L549.909,170.313L549.921,170.319L549.935,170.326L549.953,170.33L549.979,170.34L549.995,170.348L550.027,170.351L550.076,170.357L550.089,170.36L550.602,170.495L550.662,170.512L551.066,170.627L551.572,170.765L552.011,170.925L552.315,171.035L552.71,171.196L553.05,171.336L553.281,171.433L553.475,171.496L554.031,171.672L554.447,171.812L554.856,171.945L554.867,171.845L554.935,171.832L555.044,171.808L555.108,171.817L555.123,171.807L555.263,171.745L555.262,171.736L555.257,171.694L555.26,171.674L555.275,171.617L555.288,171.586L555.303,171.585L555.323,171.585L555.44,171.557L555.445,171.556L555.439,171.541L555.432,171.545L555.408,171.517L555.352,171.519L555.308,171.494L555.299,171.469L555.335,171.454L555.341,171.453L555.346,171.448L555.349,171.443L555.349,171.435L555.329,171.425L555.341,171.38L555.343,171.353L555.352,171.356L555.355,171.362L555.354,171.37L555.367,171.392L555.374,171.388L555.376,171.391L555.379,171.392L555.383,171.39L555.391,171.389L555.394,171.385L555.394,171.38L555.399,171.376L555.4,171.37L555.398,171.355L555.433,171.306L555.418,171.286L555.49,171.239L555.503,171.241L555.551,171.2L555.584,171.205L555.605,171.196L555.643,171.165L555.71,171.15L555.74,171.116L555.75,171.113L555.778,171.103L555.777,171.022L555.719,170.937L555.703,170.913L555.748,170.844L555.811,170.842L555.835,170.841L555.842,170.845L555.846,170.845L555.864,170.836L555.869,170.831L555.872,170.83L555.904,170.84L555.905,170.872L555.909,170.91L555.98,170.945L556.013,170.997L556.152,171.004L556.199,171.062L556.239,171.057L556.243,171.062L556.309,171.071L556.306,171.037L556.355,171.037L556.353,170.999L556.358,170.988L556.366,170.953L556.384,170.93L556.395,170.889L556.398,170.884L556.42,170.87L556.426,170.858L556.436,170.844L556.432,170.833L556.443,170.812L556.439,170.8L556.465,170.713L556.476,170.692L556.508,170.664L556.514,170.638L556.533,170.603L556.534,170.549L556.52,170.529L556.481,170.525L556.475,170.513L556.468,170.505L556.447,170.512L556.406,170.523L556.392,170.493L556.293,170.437L556.23,170.403L556.23,170.424L556.214,170.417L556.209,170.464L556.142,170.463L556.139,170.468L556.108,170.521L556.102,170.524L556.104,170.598L556.088,170.608L556.072,170.61L556.057,170.624L556,170.628L555.985,170.635L555.982,170.63L555.96,170.62L555.943,170.606L555.942,170.606L555.913,170.581L555.909,170.539L555.908,170.526L555.873,170.477L555.845,170.474L555.839,170.464L555.817,170.459L555.805,170.435L555.789,170.402L555.75,170.322L555.763,170.303L555.808,170.286L555.808,170.281L555.839,170.216L555.857,170.208L555.92,170.118L555.96,170.1L555.982,170.106L556,170.111L556,170.111L556.001,170.111L556.001,170.112L556.001,170.112L556.001,170.113L556.001,170.113L556.002,170.113L556.002,170.113L556.003,170.113L556.004,170.113L556.004,170.113L556.004,170.112L556.004,170.112L556.004,170.112L556.004,170.113L556.005,170.113L556.005,170.113L556.006,170.113L556.006,170.113L556.006,170.113L556.007,170.113L556.007,170.112L556.008,170.112L556.008,170.112L556.008,170.112L556.009,170.112L556.009,170.111L556.009,170.111L556.009,170.111L556.009,170.11L556.009,170.11L556.01,170.109L556.01,170.108L556.011,170.108L556.011,170.107L556.011,170.107L556.012,170.107L556.012,170.104L556.013,170.103L556.013,170.102L556.013,170.102L556.013,170.101L556.014,170.099L556.014,170.099L556.015,170.098L556.015,170.097L556.015,170.096L556.015,170.095L556.117,170.112L556.116,170.05L556.241,170.05L556.369,170.05L556.454,170.049L556.469,170.049L556.58,170.049L556.629,170.048L556.676,170.048L556.72,170.048L556.737,170.048L556.754,170.047L556.794,170.047L556.803,170.047L556.818,170.046L556.827,170.046L556.841,170.046L556.874,170.045L556.901,170.045L556.936,170.044L556.982,170.043L556.979,170.013L557.007,170.013L557.021,170.013L557.024,170.013L557.063,170.013L557.074,170.036L557.09,170.032L557.096,170.044L557.138,170.066L557.179,170.087L557.228,170.095L557.266,170.183L557.291,170.186L557.303,170.209L557.311,170.227L557.314,170.235L557.318,170.244L557.343,170.3L557.347,170.305L557.347,170.32L557.347,170.324L557.347,170.326L557.348,170.329L557.348,170.331L557.349,170.335L557.349,170.342L557.349,170.345L557.375,170.361L557.407,170.36L557.415,170.332L557.416,170.331L557.416,170.331L557.416,170.33L557.416,170.329L557.417,170.329L557.417,170.328L557.417,170.327L557.417,170.326L557.417,170.326L557.417,170.326L557.417,170.326L557.417,170.325L557.417,170.325L557.417,170.325L557.418,170.324L557.418,170.324L557.418,170.323L557.418,170.323L557.418,170.323L557.418,170.322L557.418,170.322L557.418,170.322L557.418,170.321L557.418,170.321L557.418,170.321L557.418,170.32L557.418,170.32L557.418,170.319L557.418,170.319L557.418,170.319L557.418,170.319L557.418,170.319L557.418,170.318L557.418,170.318L557.418,170.318L557.418,170.318L557.419,170.317L557.419,170.317L557.419,170.317L557.419,170.317L557.419,170.316L557.419,170.316L557.419,170.316L557.419,170.316L557.419,170.315L557.419,170.315L557.419,170.315L557.419,170.315L557.419,170.315L557.419,170.315L557.419,170.315L557.419,170.315L557.419,170.315L557.419,170.315L557.419,170.314L557.419,170.314L557.419,170.314L557.419,170.314L557.419,170.314L557.419,170.314L557.419,170.314L557.42,170.313L557.42,170.313L557.42,170.313L557.42,170.313L557.42,170.313L557.421,170.313L557.421,170.313L557.421,170.313L557.421,170.313L557.421,170.313L557.421,170.313L557.421,170.313L557.421,170.312L557.421,170.312L557.421,170.312L557.421,170.312L557.421,170.312L557.421,170.312L557.421,170.311L557.421,170.311L557.421,170.311L557.421,170.311L557.422,170.311L557.422,170.311L557.422,170.311L557.422,170.311L557.422,170.311L557.423,170.311L557.423,170.311L557.423,170.311L557.424,170.31L557.424,170.31L557.425,170.31L557.426,170.309L557.427,170.308L557.427,170.308L557.428,170.308L557.428,170.307L557.429,170.307L557.429,170.307L557.43,170.307L557.43,170.307L557.43,170.307L557.448,170.299L557.455,170.219L557.485,170.167L557.472,170.139L557.441,170.137L557.451,170.117L557.464,170.1L557.457,170.086L557.457,170.086L557.457,170.086L557.457,170.086L557.456,170.086L557.456,170.086L557.456,170.086L557.456,170.085L557.456,170.085L557.456,170.085L557.456,170.085L557.456,170.086L557.456,170.085L557.456,170.085L557.456,170.085L557.456,170.085L557.455,170.085L557.455,170.085L557.455,170.085L557.455,170.085L557.455,170.085L557.455,170.085L557.456,170.085L557.456,170.085L557.456,170.084L557.456,170.084L557.456,170.084L557.456,170.084L557.456,170.084L557.456,170.084L557.456,170.083L557.456,170.083L557.456,170.083L557.456,170.083L557.456,170.083L557.456,170.082L557.456,170.082L557.456,170.082L557.457,170.082L557.457,170.082L557.457,170.082L557.457,170.082L557.456,170.081L557.456,170.081L557.456,170.081L557.456,170.081L557.456,170.081L557.456,170.081L557.456,170.081L557.456,170.081L557.456,170.081L557.456,170.081L557.456,170.081L557.456,170.081L557.456,170.081L557.456,170.08L557.457,170.08L557.457,170.08L557.457,170.08L557.457,170.08L557.457,170.08L557.457,170.079L557.457,170.079L557.457,170.079L557.457,170.079L557.457,170.079L557.457,170.079L557.457,170.079L557.457,170.078L557.457,170.078L557.457,170.078L557.457,170.078L557.456,170.077L557.456,170.077L557.456,170.076L557.455,170.076L557.455,170.075L557.455,170.075L557.456,170.074L557.456,170.074L557.456,170.073L557.456,170.073L557.456,170.072L557.456,170.072L557.457,170.052L557.458,170.052L557.458,170.052L557.458,170.052L557.458,170.051L557.458,170.051L557.458,170.051L557.458,170.051L557.458,170.051L557.458,170.051L557.458,170.051L557.458,170.05L557.458,170.05L557.458,170.05L557.458,170.05L557.458,170.05L557.459,170.05L557.459,170.05L557.459,170.05L557.459,170.05L557.458,170.05L557.458,170.05L557.458,170.05L557.458,170.05L557.458,170.05L557.458,170.05L557.458,170.05L557.458,170.05L557.457,170.049L557.457,170.049L557.457,170.049L557.457,170.048L557.458,170.048L557.458,170.048L557.458,170.047L557.458,170.047L557.458,170.047L557.459,170.046L557.46,170.046L557.46,170.045L557.461,170.044L557.461,170.043L557.462,170.042L557.462,170.041L557.462,170.041L557.463,170.04L557.463,170.04L557.463,170.04L557.464,170.039L557.464,170.039L557.465,170.038L557.465,170.037L557.465,170.037L557.465,170.037L557.466,170.037L557.466,170.037L557.466,170.038L557.467,170.038L557.468,170.038L557.469,170.038L557.47,170.038L557.47,170.038L557.47,170.038L557.47,170.037L557.47,170.037L557.471,170.036L557.471,170.035L557.471,170.034L557.471,170.033L557.472,170.033L557.473,170.033L557.473,170.033L557.473,170.034L557.473,170.034L557.473,170.035L557.473,170.036L557.473,170.036L557.473,170.036L557.474,170.036L557.474,170.036L557.474,170.036L557.474,170.036L557.475,170.036L557.475,170.036L557.475,170.036L557.476,170.036L557.477,170.036L557.477,170.035L557.479,170.035L557.479,170.035L557.479,170.035L557.479,170.035L557.48,170.035L557.48,170.036L557.48,170.035L557.481,170.035L557.481,170.035L557.481,170.035L557.481,170.035L557.481,170.035L557.481,170.035L557.482,170.035L557.482,170.035L557.482,170.035L557.483,170.034L557.484,170.034L557.484,170.034L557.484,170.034L557.484,170.034L557.485,170.034L557.485,170.034L557.485,170.034L557.486,170.034L557.486,170.034L557.486,170.034L557.486,170.034L557.487,170.033L557.487,170.032L557.488,170.032L557.488,170.031L557.487,170.031L557.487,170.03L557.486,170.03L557.486,170.029L557.485,170.029L557.485,170.029L557.485,170.029L557.485,170.028L557.486,170.028L557.487,170.028L557.488,170.028L557.488,170.028L557.489,170.028L557.489,170.028L557.49,170.027L557.49,170.027L557.491,170.026L557.491,170.026L557.491,170.025L557.491,170.025L557.492,170.024L557.492,170.024L557.492,170.024L557.493,170.024L557.493,170.023L557.493,170.023L557.493,170.023L557.492,170.022L557.492,170.022L557.492,170.022L557.493,170.022L557.494,170.022L557.495,170.022L557.495,170.022L557.496,170.021L557.496,170.021L557.496,170.021L557.496,170.02L557.496,170.02L557.496,170.02L557.497,170.02L557.499,170.019L557.499,170.019L557.501,170.019L557.502,170.019L557.502,170.018L557.503,170.018L557.503,170.018L557.503,170.017L557.51,170.017L557.523,170.011L557.555,169.956L557.568,169.952L557.576,169.903L557.639,169.904L557.76,169.907L557.882,169.833L557.915,169.828L557.908,169.812L557.894,169.802L557.894,169.775L557.948,169.776L557.95,169.788L557.967,169.822L557.971,169.821L557.972,169.826L557.973,169.827L557.973,169.828L557.975,169.829L557.978,169.829L557.98,169.829L557.981,169.829L557.982,169.83L557.982,169.831L557.983,169.835L557.983,169.836L557.983,169.842L557.984,169.843L557.984,169.845L557.987,169.849L557.989,169.855L557.989,169.856L558.123,169.864L558.123,169.861L558.174,169.88L558.236,169.935L558.254,169.936L558.291,169.938L558.387,169.943L558.419,169.945L558.452,169.946L558.463,169.947L558.463,169.949L558.464,169.95L558.464,169.95L558.464,169.95L558.464,169.951L558.464,169.951L558.464,169.951L558.465,169.951L558.465,169.951L558.465,169.951L558.466,169.951L558.466,169.951L558.466,169.952L558.466,169.952L558.466,169.952L558.466,169.952L558.465,169.953L558.465,169.953L558.464,169.953L558.464,169.953L558.464,169.954L558.464,169.954L558.463,169.954L558.463,169.955L558.463,169.955L558.463,169.955L558.463,169.955L558.463,169.956L558.464,169.957L558.464,169.958L558.465,169.958L558.465,169.958L558.466,169.958L558.466,169.959L558.466,169.959L558.466,169.96L558.467,169.96L558.467,169.961L558.465,169.963L558.465,169.963L558.465,169.964L558.465,169.964L558.466,169.965L558.467,169.966L558.467,169.967L558.468,169.968L558.469,169.969L558.47,169.97L558.471,169.971L558.471,169.972L558.471,169.973L558.472,169.975L558.472,169.976L558.473,169.977L558.473,169.978L558.474,169.979L558.475,169.98L558.476,169.98L558.477,169.981L558.477,169.981L558.478,169.981L558.479,169.982L558.479,169.982L558.48,169.983L558.48,169.983L558.48,169.983L558.481,169.983L558.481,169.982L558.481,169.982L558.481,169.983L558.482,169.983L558.482,169.984L558.482,169.984L558.483,169.985L558.483,169.986L558.483,169.987L558.483,169.987L558.483,169.988L558.483,169.988L558.482,169.989L558.482,169.989L558.482,169.989L558.482,169.989L558.481,169.988L558.481,169.988L558.481,169.988L558.48,169.989L558.48,169.989L558.479,169.989L558.479,169.989L558.479,169.988L558.479,169.988L558.478,169.989L558.478,169.989L558.478,169.99L558.477,169.991L558.477,169.992L558.477,169.992L558.478,169.993L558.478,169.993L558.478,169.994L558.478,169.994L558.478,169.994L558.478,169.995L558.478,169.995L558.478,169.995L558.478,169.996L558.478,169.996L558.477,169.996L558.476,169.995L558.475,169.995L558.475,169.995L558.474,169.995L558.473,169.995L558.473,169.995L558.472,169.997L558.472,169.998L558.471,169.999L558.471,170L558.47,170.001L558.469,170.002L558.469,170.004L558.469,170.005L558.468,170.005L558.468,170.006L558.469,170.007L558.469,170.007L558.47,170.008L558.47,170.008L558.47,170.009L558.47,170.009L558.47,170.01L558.471,170.01L558.473,170.01L558.474,170.01L558.475,170.011L558.476,170.011L558.477,170.012L558.477,170.013L558.478,170.013L558.478,170.012L558.478,170.012L558.479,170.012L558.48,170.013L558.48,170.014L558.48,170.015L558.479,170.016L558.478,170.017L558.477,170.017L558.476,170.018L558.476,170.019L558.477,170.019L558.478,170.02L558.479,170.02L558.48,170.019L558.481,170.019L558.482,170.018L558.482,170.018L558.483,170.017L558.484,170.017L558.485,170.016L558.486,170.015L558.487,170.014L558.488,170.013L558.488,170.013L558.488,170.012L558.489,170.011L558.489,170.01L558.489,170.01L558.488,170.009L558.488,170.008L558.488,170.008L558.488,170.008L558.489,170.007L558.488,170.007L558.488,170.006L558.488,170.006L558.489,170.006L558.489,170.006L558.49,170.006L558.491,170.005L558.491,170.004L558.492,170.004L558.493,170.004L558.494,170.004L558.494,170.003L558.495,170.003L558.495,170.002L558.495,170.001L558.495,170L558.496,170L558.497,169.999L558.498,169.998L558.498,169.998L558.499,169.998L558.499,169.998L558.5,169.999L558.5,170.001L558.501,170.001L558.501,170L558.503,169.999L558.503,169.998L558.503,169.997L558.502,169.996L558.502,169.995L558.502,169.995L558.503,169.994L558.504,169.994L558.504,169.994L558.504,169.993L558.504,169.992L558.504,169.991L558.504,169.99L558.504,169.989L558.503,169.987L558.503,169.986L558.503,169.985L558.502,169.985L558.502,169.985L558.501,169.983L558.5,169.982L558.5,169.982L558.5,169.981L558.499,169.98L558.499,169.979L558.5,169.979L558.5,169.978L558.499,169.978L558.499,169.978L558.499,169.977L558.5,169.977L558.5,169.978L558.501,169.979L558.501,169.979L558.501,169.98L558.502,169.98L558.503,169.979L558.504,169.979L558.504,169.98L558.504,169.981L558.504,169.981L558.505,169.981L558.506,169.98L558.509,169.976L558.509,169.974L558.51,169.972L558.51,169.971L558.51,169.971L558.51,169.971L558.511,169.971L558.512,169.973L558.513,169.975L558.516,169.977L558.517,169.978L558.519,169.978L558.521,169.977L558.521,169.978L558.522,169.978L558.523,169.978L558.524,169.978L558.525,169.978L558.525,169.978L558.525,169.979L558.526,169.979L558.526,169.98L558.527,169.981L558.528,169.98L558.528,169.98L558.529,169.981L558.53,169.982L558.531,169.982L558.532,169.982L558.532,169.982L558.532,169.981L558.533,169.981L558.536,169.981L558.537,169.981L558.537,169.982L558.538,169.982L558.539,169.982L558.539,169.982L558.54,169.982L558.54,169.981L558.541,169.981L558.542,169.981L558.543,169.981L558.544,169.982L558.544,169.982L558.545,169.981L558.545,169.98L558.545,169.98L558.546,169.98L558.546,169.981L558.548,169.982L558.549,169.982L558.55,169.983L558.551,169.983L558.55,169.984L558.551,169.984L558.551,169.985L558.551,169.986L558.552,169.986L558.553,169.986L558.554,169.987L558.555,169.987L558.555,169.987L558.555,169.988L558.554,169.988L558.554,169.989L558.554,169.989L558.555,169.989L558.556,169.989L558.557,169.988L558.558,169.988L558.559,169.988L558.559,169.988L558.559,169.989L558.559,169.989L558.56,169.99L558.561,169.991L558.561,169.99L558.562,169.99L558.563,169.99L558.564,169.989L558.564,169.989L558.565,169.989L558.566,169.989L558.567,169.989L558.568,169.989L558.57,169.99L558.571,169.991L558.572,169.992L558.573,169.992L558.573,169.993L558.573,169.993L558.572,169.993L558.572,169.994L558.572,169.994L558.573,169.994L558.573,169.994L558.573,169.995L558.573,169.996L558.574,169.996L558.574,169.996L558.575,169.996L558.576,169.997L558.576,169.998L558.577,169.998L558.578,169.998L558.578,169.998L558.579,169.997L558.58,169.998L558.58,169.999L558.582,170.001L558.582,170.001L558.581,170.002L558.578,170.005L558.578,170.006L558.578,170.007L558.578,170.007L558.579,170.007L558.58,170.008L558.58,170.009L558.581,170.01L558.585,170.014L558.586,170.015L558.588,170.015L558.59,170.015L558.591,170.016L558.592,170.017L558.593,170.018L558.594,170.018L558.597,170.018L558.598,170.018L558.599,170.019L558.602,170.02L558.603,170.021L558.604,170.022L558.605,170.023L558.607,170.024L558.608,170.025L558.61,170.027L558.611,170.028L558.612,170.028L558.613,170.03L558.614,170.029L558.615,170.031L558.616,170.031L558.617,170.031L558.619,170.032L558.621,170.03L558.625,170.029L558.628,170.027L558.631,170.023L558.634,170.019L558.637,170.014L558.64,170.009L558.642,170.007L558.643,170.005L558.644,170.004L558.645,170.002L558.646,170.001L558.646,169.999L558.647,169.997L558.647,169.996L558.648,169.995L558.649,169.994L558.649,169.993L558.649,169.992L558.649,169.991L558.65,169.99L558.651,169.989L558.651,169.988L558.652,169.986L558.652,169.985L558.652,169.984L558.653,169.984L558.654,169.981L558.656,169.977L558.657,169.975L558.658,169.972L558.66,169.971L558.661,169.97L558.662,169.967L558.662,169.966L558.663,169.966L558.664,169.965L558.664,169.964L558.663,169.962L558.668,169.959L558.681,169.965L558.692,169.972L558.695,169.971L558.711,169.999L558.785,169.991L558.83,169.985L558.889,169.92L558.885,169.896L558.923,169.868L558.93,169.879L558.936,169.887L558.943,169.893L558.95,169.896L558.956,169.897L558.963,169.895L558.973,169.889L558.989,169.88L558.992,169.896L558.97,169.926L558.963,169.953L558.962,169.962L558.964,169.978L558.945,170.022L558.951,170.054L558.933,170.076L558.92,170.247L559.005,170.25L559.009,170.265L559.005,170.27L559.003,170.274L558.998,170.28L558.994,170.28L558.993,170.28L558.993,170.28L558.992,170.28L558.992,170.281L558.992,170.282L558.991,170.282L558.991,170.283L558.99,170.283L558.989,170.283L558.987,170.284L558.985,170.284L558.985,170.285L558.985,170.285L558.985,170.286L558.984,170.286L558.997,170.284L558.994,170.372L559.003,170.377L559.035,170.364L559.039,170.352L559.05,170.347L559.087,170.302L559.107,170.314L559.167,170.281L559.166,170.272L559.186,170.258L559.209,170.231L559.236,170.236L559.249,170.237L559.25,170.239L559.251,170.241L559.25,170.242L559.25,170.244L559.251,170.245L559.252,170.244L559.252,170.243L559.253,170.243L559.254,170.242L559.254,170.241L559.256,170.241L559.256,170.242L559.257,170.242L559.257,170.243L559.258,170.244L559.257,170.245L559.258,170.245L559.258,170.244L559.259,170.245L559.259,170.245L559.26,170.246L559.261,170.246L559.262,170.246L559.263,170.245L559.265,170.244L559.266,170.244L559.267,170.244L559.269,170.245L559.269,170.246L559.269,170.246L559.27,170.246L559.271,170.246L559.271,170.246L559.271,170.246L559.271,170.245L559.271,170.245L559.271,170.246L559.272,170.246L559.272,170.245L559.272,170.244L559.272,170.244L559.271,170.244L559.272,170.243L559.272,170.243L559.272,170.244L559.273,170.244L559.273,170.244L559.274,170.244L559.274,170.246L559.274,170.246L559.275,170.246L559.275,170.246L559.275,170.246L559.276,170.246L559.276,170.246L559.276,170.246L559.277,170.246L559.277,170.247L559.277,170.247L559.278,170.247L559.278,170.247L559.279,170.245L559.279,170.245L559.279,170.244L559.28,170.244L559.28,170.243L559.28,170.243L559.28,170.243L559.28,170.244L559.281,170.245L559.281,170.246L559.282,170.246L559.282,170.245L559.284,170.243L559.284,170.243L559.284,170.242L559.284,170.242L559.284,170.241L559.284,170.241L559.284,170.24L559.285,170.239L559.285,170.239L559.285,170.238L559.285,170.237L559.285,170.235L559.286,170.235L559.288,170.236L559.289,170.235L559.289,170.234L559.289,170.234L559.288,170.234L559.287,170.234L559.287,170.232L559.288,170.231L559.29,170.23L559.291,170.23L559.291,170.228L559.291,170.227L559.293,170.227L559.293,170.227L559.294,170.228L559.295,170.227L559.296,170.228L559.296,170.227L559.297,170.227L559.298,170.227L559.298,170.227L559.298,170.227L559.299,170.226L559.3,170.226L559.301,170.227L559.301,170.226L559.302,170.226L559.302,170.225L559.301,170.224L559.301,170.224L559.3,170.224L559.3,170.223L559.3,170.222L559.3,170.222L559.301,170.222L559.301,170.222L559.302,170.222L559.302,170.221L559.302,170.221L559.302,170.221L559.302,170.221L559.303,170.221L559.303,170.221L559.303,170.221L559.303,170.221L559.303,170.221L559.303,170.22L559.304,170.22L559.304,170.22L559.305,170.22L559.305,170.22L559.305,170.221L559.305,170.221L559.305,170.222L559.305,170.222L559.306,170.222L559.307,170.222L559.307,170.222L559.307,170.221L559.307,170.22L559.308,170.22L559.308,170.219L559.309,170.219L559.309,170.219L559.309,170.22L559.309,170.221L559.31,170.222L559.311,170.222L559.311,170.222L559.312,170.222L559.312,170.222L559.312,170.222L559.312,170.222L559.312,170.221L559.313,170.221L559.314,170.221L559.314,170.221L559.314,170.22L559.315,170.22L559.315,170.22L559.316,170.22L559.316,170.22L559.316,170.22L559.316,170.22L559.316,170.219L559.317,170.219L559.318,170.219L559.318,170.219L559.318,170.22L559.318,170.22L559.317,170.221L559.317,170.222L559.317,170.223L559.317,170.224L559.317,170.225L559.317,170.225L559.317,170.225L559.317,170.225L559.317,170.225L559.316,170.225L559.316,170.226L559.316,170.226L559.317,170.226L559.318,170.226L559.318,170.225L559.319,170.224L559.319,170.224L559.32,170.225L559.32,170.225L559.321,170.225L559.32,170.225L559.32,170.224L559.32,170.224L559.321,170.224L559.321,170.224L559.322,170.224L559.322,170.225L559.321,170.226L559.321,170.226L559.322,170.226L559.322,170.227L559.322,170.227L559.322,170.227L559.322,170.227L559.322,170.227L559.323,170.227L559.323,170.226L559.323,170.227L559.323,170.227L559.323,170.228L559.324,170.228L559.324,170.227L559.324,170.227L559.325,170.227L559.325,170.227L559.325,170.227L559.324,170.229L559.323,170.23L559.323,170.23L559.323,170.23L559.324,170.231L559.324,170.232L559.324,170.232L559.323,170.232L559.323,170.233L559.324,170.233L559.324,170.233L559.325,170.234L559.325,170.234L559.326,170.234L559.326,170.234L559.327,170.233L559.327,170.233L559.328,170.233L559.329,170.234L559.329,170.234L559.33,170.234L559.33,170.233L559.33,170.233L559.329,170.232L559.329,170.231L559.329,170.231L559.331,170.232L559.332,170.232L559.332,170.233L559.332,170.235L559.332,170.235L559.333,170.235L559.333,170.236L559.334,170.236L559.335,170.238L559.337,170.239L559.337,170.239L559.338,170.239L559.342,170.236L559.502,170.115L559.717,170.007L559.753,169.988L559.961,169.877L560.313,169.688L560.551,169.561L560.766,169.446L560.832,169.414L560.861,169.377L560.826,169.328L560.905,169.176L560.961,169.069L560.974,168.984L561.16,168.912L561.203,168.946L561.457,168.985L561.473,168.904L561.717,168.723L561.72,168.775L561.762,168.774L561.951,168.922L562.074,168.934L562.154,168.946L562.152,169.023L562.174,169.087L562.219,169.09L562.246,169.082L562.445,169.084L562.538,169.018L562.574,169.027L562.616,169.038L562.801,168.993L562.843,168.983L562.885,168.997L562.931,169.013L563.028,169.018L562.977,168.992L562.953,168.954L562.96,168.934L562.939,168.898L562.958,168.863L562.933,168.718L562.974,168.663L562.959,168.619L562.976,168.576L562.968,168.564L563.001,168.487L563.011,168.479L563.046,168.488L563.068,168.474L563.071,168.462L563.076,168.442L563.095,168.416L563.116,168.41L563.133,168.374L563.131,168.352L563.141,168.343L563.14,168.321L563.139,168.308L563.128,168.262L563.12,168.262L563.1,168.244L563.099,168.226L563.119,168.178L563.128,168.17L563.115,168.134L563.124,168.125L563.131,168.083L563.159,168.054L563.168,168.016L563.169,167.96L563.172,167.955L563.159,167.926L563.172,167.899L563.168,167.887L563.178,167.864L563.187,167.859L563.189,167.812L563.214,167.766L563.203,167.748L563.225,167.683L563.207,167.625L563.218,167.575L563.227,167.552L563.226,167.541L563.225,167.525L563.244,167.51L563.242,167.502L563.236,167.497L563.24,167.459L563.202,167.445L563.148,167.425L563.095,167.43L563.061,167.424L563.02,167.335L563.035,167.305L563.025,167.283L563.04,167.228L563.004,167.233L562.987,167.176L562.997,167.154L562.961,167.073L562.974,167.03L562.954,166.939L562.953,166.938L562.95,166.936L562.947,166.936L562.941,166.942L562.936,166.946L562.934,166.947L562.932,166.946L562.931,166.945L562.932,166.941L562.929,166.937L562.925,166.934L562.936,166.903L562.956,166.888L562.955,166.87L562.895,166.769L562.931,166.744L562.86,166.685L562.866,166.653L562.836,166.604L562.788,166.612L562.728,166.614L562.647,166.578L562.589,166.601L562.587,166.599L562.587,166.598L562.587,166.598L562.589,166.597L562.59,166.597L562.59,166.598L562.59,166.598L562.59,166.598L562.591,166.598L562.591,166.597L562.59,166.596L562.59,166.596L562.591,166.595L562.591,166.593L562.59,166.591L562.588,166.591L562.587,166.591L562.586,166.593L562.585,166.593L562.585,166.592L562.584,166.591L562.583,166.591L562.581,166.592L562.581,166.594L562.581,166.595L562.581,166.595L562.581,166.596L562.58,166.596L562.579,166.595L562.578,166.595L562.578,166.593L562.576,166.592L562.575,166.593L562.576,166.593L562.576,166.595L562.577,166.595L562.576,166.596L562.575,166.596L562.574,166.595L562.573,166.596L562.572,166.597L562.571,166.597L562.569,166.597L562.569,166.596L562.569,166.595L562.569,166.593L562.568,166.593L562.567,166.593L562.568,166.594L562.567,166.595L562.566,166.593L562.564,166.594L562.564,166.593L562.563,166.593L562.563,166.592L562.563,166.591L562.563,166.591L562.562,166.592L562.561,166.59L562.561,166.589L562.558,166.588L562.556,166.588L562.555,166.589L562.554,166.59L562.556,166.591L562.555,166.591L562.553,166.59L562.552,166.591L562.551,166.592L562.551,166.591L562.55,166.592L562.549,166.592L562.548,166.591L562.546,166.592L562.546,166.593L562.545,166.592L562.544,166.593L562.546,166.594L562.543,166.595L562.543,166.596L562.542,166.595L562.541,166.594L562.541,166.593L562.54,166.593L562.538,166.595L562.539,166.596L562.54,166.595L562.54,166.596L562.539,166.597L562.537,166.598L562.535,166.601L562.533,166.6L562.531,166.6L562.53,166.601L562.53,166.603L562.529,166.604L562.528,166.604L562.526,166.606L562.525,166.607L562.525,166.608L562.525,166.608L562.525,166.609L562.524,166.609L562.523,166.61L562.523,166.611L562.522,166.612L562.52,166.612L562.518,166.613L562.516,166.615L562.514,166.618L562.512,166.619L562.509,166.619L562.507,166.618L562.5,166.619L562.499,166.619L562.497,166.62L562.495,166.62L562.493,166.62L562.489,166.623L562.485,166.624L562.481,166.627L562.48,166.63L562.478,166.632L562.475,166.634L562.471,166.636L562.468,166.64L562.465,166.644L562.461,166.649L562.458,166.653L562.456,166.657L562.456,166.659L562.456,166.66L562.454,166.661L562.452,166.662L562.449,166.66L562.442,166.656L562.438,166.656L562.435,166.658L562.429,166.663L562.426,166.663L562.421,166.66L562.418,166.656L562.417,166.651L562.415,166.644L562.411,166.637L562.41,166.635L562.41,166.631L562.411,166.628L562.41,166.625L562.411,166.622L562.411,166.619L562.411,166.618L562.413,166.616L562.415,166.613L562.417,166.61L562.418,166.608L562.418,166.607L562.418,166.605L562.417,166.604L562.416,166.599L562.417,166.597L562.421,166.594L562.427,166.589L562.43,166.585L562.431,166.577L562.433,166.575L562.435,166.573L562.437,166.569L562.438,166.566L562.44,166.564L562.446,166.56L562.449,166.556L562.451,166.552L562.451,166.55L562.451,166.548L562.45,166.543L562.449,166.54L562.449,166.536L562.451,166.533L562.454,166.529L562.456,166.527L562.459,166.528L562.462,166.527L562.463,166.526L562.464,166.523L562.465,166.521L562.465,166.518L562.465,166.517L562.463,166.513L562.462,166.513L562.462,166.512L562.46,166.51L562.456,166.507L562.451,166.505L562.449,166.505L562.444,166.506L562.443,166.506L562.442,166.507L562.435,166.504L562.43,166.501L562.429,166.501L562.426,166.503L562.425,166.503L562.424,166.502L562.424,166.501L562.424,166.499L562.426,166.495L562.429,166.489L562.429,166.486L562.429,166.483L562.43,166.481L562.434,166.478L562.436,166.475L562.438,166.471L562.439,166.469L562.439,166.466L562.441,166.464L562.442,166.463L562.444,166.461L562.447,166.461L562.448,166.459L562.448,166.454L562.448,166.452L562.446,166.45L562.445,166.449L562.444,166.448L562.442,166.448L562.44,166.448L562.439,166.448L562.437,166.446L562.437,166.443L562.438,166.441L562.44,166.439L562.444,166.436L562.445,166.436L562.447,166.437L562.448,166.436L562.449,166.434L562.45,166.431L562.45,166.427L562.45,166.425L562.452,166.421L562.455,166.418L562.457,166.416L562.459,166.414L562.46,166.412L562.461,166.41L562.462,166.408L562.462,166.407L562.461,166.407L562.46,166.407L562.459,166.407L562.458,166.409L562.457,166.409L562.456,166.408L562.456,166.405L562.457,166.401L562.459,166.398L562.461,166.396L562.466,166.393L562.47,166.393L562.472,166.391L562.475,166.385L562.477,166.379L562.478,166.377L562.481,166.376L562.483,166.374L562.483,166.372L562.486,166.366L562.488,166.365L562.491,166.363L562.495,166.363L562.498,166.364L562.5,166.366L562.501,166.366L562.502,166.365L562.503,166.363L562.505,166.36L562.506,166.358L562.508,166.357L562.517,166.355L562.521,166.352L562.524,166.348L562.527,166.346L562.528,166.344L562.53,166.342L562.532,166.34L562.533,166.338L562.533,166.337L562.533,166.334L562.534,166.331L562.537,166.328L562.538,166.324L562.54,166.322L562.542,166.319L562.543,166.316L562.544,166.313L562.547,166.312L562.548,166.309L562.549,166.306L562.55,166.306L562.552,166.303L562.554,166.299L562.555,166.298L562.556,166.295L562.556,166.293L562.556,166.291L562.556,166.288L562.556,166.287L562.557,166.284L562.559,166.281L562.559,166.279L562.56,166.278L562.562,166.275L562.56,166.272L562.559,166.271L562.559,166.269L562.559,166.267L562.56,166.266L562.561,166.266L562.563,166.266L562.564,166.265L562.564,166.264L562.564,166.261L562.564,166.259L562.563,166.257L562.564,166.254L562.564,166.251L562.565,166.245L562.566,166.242L562.568,166.24L562.574,166.232L562.575,166.23L562.576,166.228L562.576,166.225L562.575,166.223L562.574,166.221L562.572,166.22L562.57,166.219L562.569,166.218L562.567,166.215L562.567,166.213L562.567,166.212L562.568,166.212L562.57,166.211L562.572,166.212L562.574,166.214L562.575,166.214L562.576,166.212L562.577,166.211L562.577,166.209L562.576,166.208L562.574,166.207L562.572,166.205L562.573,166.203L562.574,166.201L562.576,166.2L562.577,166.2L562.578,166.201L562.579,166.202L562.579,166.203L562.58,166.205L562.581,166.205L562.582,166.205L562.585,166.204L562.59,166.201L562.591,166.2L562.592,166.198L562.594,166.197L562.595,166.197L562.597,166.198L562.598,166.197L562.599,166.196L562.6,166.195L562.6,166.193L562.599,166.191L562.599,166.189L562.603,166.18L562.604,166.178L562.606,166.176L562.607,166.175L562.608,166.172L562.608,166.169L562.607,166.167L562.606,166.164L562.605,166.162L562.605,166.161L562.605,166.159L562.608,166.156L562.61,166.153L562.611,166.15L562.612,166.147L562.614,166.146L562.616,166.145L562.616,166.144L562.616,166.144L562.615,166.143L562.613,166.143L562.609,166.143L562.608,166.144L562.607,166.143L562.606,166.141L562.606,166.14L562.607,166.138L562.607,166.137L562.606,166.135L562.605,166.134L562.604,166.132L562.605,166.13L562.606,166.13L562.609,166.129L562.611,166.127L562.614,166.124L562.615,166.124L562.617,166.124L562.617,166.125L562.619,166.127L562.62,166.127L562.621,166.127L562.623,166.125L562.623,166.124L562.622,166.123L562.622,166.122L562.622,166.121L562.624,166.119L562.627,166.117L562.63,166.114L562.632,166.112L562.633,166.111L562.635,166.111L562.64,166.109L562.641,166.108L562.642,166.103L562.643,166.102L562.644,166.102L562.644,166.101L562.644,166.099L562.645,166.096L562.646,166.094L562.645,166.092L562.646,166.09L562.648,166.088L562.65,166.086L562.651,166.086L562.654,166.086L562.66,166.086L562.663,166.084L562.665,166.082L562.665,166.081L562.663,166.077L562.661,166.073L562.659,166.072L562.656,166.069L562.651,166.061L562.649,166.058L562.649,166.054L562.646,166.048L562.646,166.046L562.644,166.043L562.643,166.039L562.643,166.036L562.644,166.034L562.645,166.033L562.647,166.031L562.648,166.028L562.649,166.025L562.65,166.023L562.652,166.021L562.653,166.019L562.652,166.017L562.653,166.017L562.653,166.015L562.656,166.013L562.658,166.011L562.659,166.009L562.658,166.008L562.659,166.007L562.66,166.006L562.66,166.005L562.66,166.003L562.659,165.999L562.658,165.997L562.658,165.993L562.658,165.992L562.659,165.99L562.659,165.987L562.658,165.984L562.657,165.982L562.656,165.979L562.654,165.977L562.653,165.975L562.653,165.972L562.654,165.972L562.653,165.969L562.653,165.967L562.652,165.966L562.652,165.964L562.651,165.963L562.651,165.962L562.647,165.955L562.644,165.947L562.643,165.944L562.643,165.939L562.644,165.934L562.644,165.928L562.647,165.92L562.646,165.918L562.647,165.916L562.648,165.914L562.648,165.912L562.648,165.91L562.649,165.907L562.649,165.907L562.65,165.907L562.65,165.905L562.652,165.902L562.655,165.898L562.658,165.895L562.66,165.893L562.664,165.891L562.668,165.888L562.672,165.884L562.674,165.881L562.674,165.88L562.674,165.878L562.673,165.877L562.671,165.877L562.67,165.878L562.669,165.878L562.668,165.876L562.669,165.875L562.67,165.873L562.671,165.872L562.674,165.872L562.675,165.871L562.675,165.869L562.676,165.865L562.677,165.861L562.676,165.86L562.677,165.858L562.677,165.855L562.678,165.851L562.68,165.847L562.681,165.844L562.683,165.843L562.684,165.843L562.684,165.843L562.684,165.841L562.684,165.84L562.682,165.838L562.683,165.835L562.684,165.834L562.685,165.834L562.686,165.833L562.688,165.83L562.688,165.827L562.686,165.821L562.684,165.818L562.682,165.816L562.681,165.814L562.677,165.807L562.676,165.807L562.675,165.805L562.675,165.803L562.674,165.8L562.673,165.797L562.672,165.796L562.672,165.795L562.671,165.795L562.67,165.795L562.669,165.794L562.668,165.792L562.67,165.789L562.672,165.788L562.673,165.787L562.674,165.785L562.674,165.784L562.673,165.781L562.673,165.778L562.674,165.775L562.675,165.773L562.675,165.772L562.677,165.771L562.678,165.771L562.678,165.772L562.679,165.772L562.68,165.77L562.68,165.769L562.678,165.767L562.676,165.766L562.675,165.765L562.676,165.764L562.677,165.763L562.678,165.762L562.679,165.761L562.681,165.76L562.683,165.759L562.685,165.756L562.685,165.753L562.682,165.749L562.681,165.748L562.68,165.747L562.679,165.748L562.678,165.747L562.678,165.746L562.679,165.744L562.68,165.743L562.683,165.74L562.684,165.738L562.686,165.735L562.686,165.731L562.687,165.729L562.687,165.725L562.688,165.72L562.689,165.716L562.689,165.713L562.69,165.711L562.69,165.709L562.69,165.708L562.689,165.705L562.69,165.703L562.691,165.703L562.693,165.703L562.695,165.704L562.695,165.704L562.696,165.704L562.697,165.703L562.698,165.701L562.697,165.699L562.697,165.696L562.699,165.694L562.7,165.692L562.702,165.691L562.705,165.687L562.71,165.685L562.714,165.684L562.717,165.681L562.718,165.68L562.718,165.678L562.718,165.678L562.718,165.677L562.718,165.677L562.718,165.673L562.719,165.67L562.718,165.668L562.716,165.668L562.716,165.666L562.717,165.665L562.718,165.663L562.722,165.658L562.724,165.658L562.724,165.659L562.726,165.659L562.727,165.658L562.728,165.655L562.729,165.653L562.728,165.65L562.728,165.647L562.727,165.644L562.727,165.643L562.723,165.641L562.72,165.635L562.718,165.633L562.717,165.63L562.715,165.626L562.712,165.625L562.711,165.624L562.71,165.624L562.708,165.626L562.706,165.626L562.705,165.625L562.705,165.624L562.706,165.622L562.706,165.62L562.705,165.62L562.701,165.619L562.699,165.619L562.698,165.618L562.697,165.617L562.695,165.613L562.694,165.611L562.691,165.608L562.69,165.606L562.689,165.605L562.688,165.603L562.688,165.599L562.687,165.599L562.687,165.598L562.683,165.596L562.682,165.595L562.681,165.594L562.679,165.594L562.677,165.595L562.676,165.595L562.674,165.593L562.672,165.591L562.67,165.589L562.669,165.588L562.667,165.589L562.665,165.59L562.663,165.591L562.66,165.591L562.659,165.592L562.659,165.593L562.657,165.593L562.654,165.593L562.653,165.592L562.653,165.591L562.653,165.59L562.65,165.586L562.649,165.586L562.648,165.586L562.646,165.587L562.644,165.587L562.643,165.585L562.641,165.584L562.638,165.582L562.636,165.58L562.633,165.578L562.632,165.576L562.632,165.574L562.631,165.571L562.63,165.569L562.629,165.569L562.629,165.568L562.631,165.565L562.631,165.564L562.629,165.562L562.629,165.56L562.629,165.558L562.629,165.556L562.63,165.554L562.633,165.554L562.633,165.553L562.633,165.551L562.632,165.549L562.632,165.548L562.632,165.547L562.631,165.547L562.631,165.546L562.632,165.545L562.632,165.545L562.632,165.542L562.631,165.535L562.629,165.534L562.63,165.532L562.631,165.531L562.631,165.53L562.631,165.529L562.629,165.528L562.626,165.526L562.623,165.524L562.622,165.522L562.622,165.52L562.623,165.519L562.623,165.516L562.622,165.513L562.622,165.51L562.623,165.508L562.623,165.507L562.623,165.504L562.622,165.502L562.62,165.499L562.62,165.498L562.62,165.497L562.623,165.496L562.623,165.495L562.623,165.494L562.622,165.492L562.622,165.489L562.621,165.486L562.621,165.483L562.621,165.481L562.62,165.479L562.619,165.476L562.619,165.473L562.619,165.471L562.618,165.469L562.618,165.468L562.618,165.464L562.619,165.461L562.622,165.459L562.623,165.456L562.624,165.454L562.624,165.453L562.623,165.449L562.622,165.447L562.618,165.445L562.618,165.443L562.616,165.442L562.616,165.439L562.615,165.438L562.615,165.438L562.613,165.438L562.612,165.438L562.612,165.437L562.614,165.436L562.613,165.435L562.612,165.435L562.612,165.435L562.612,165.433L562.615,165.433L562.615,165.432L562.617,165.431L562.617,165.43L562.617,165.429L562.616,165.429L562.616,165.429L562.616,165.427L562.617,165.427L562.618,165.427L562.618,165.425L562.62,165.424L562.621,165.422L562.622,165.42L562.621,165.419L562.62,165.419L562.62,165.421L562.62,165.422L562.617,165.422L562.616,165.422L562.616,165.419L562.615,165.418L562.614,165.419L562.614,165.419L562.613,165.418L562.613,165.416L562.614,165.416L562.615,165.414L562.617,165.413L562.618,165.413L562.618,165.412L562.619,165.411L562.619,165.409L562.618,165.408L562.617,165.406L562.616,165.404L562.617,165.403L562.62,165.402L562.621,165.403L562.621,165.402L562.622,165.401L562.622,165.399L562.62,165.397L562.62,165.395L562.618,165.391L562.618,165.386L562.617,165.384L562.615,165.382L562.613,165.381L562.612,165.379L562.611,165.377L562.611,165.375L562.61,165.375L562.609,165.376L562.609,165.378L562.609,165.38L562.609,165.382L562.609,165.383L562.608,165.384L562.607,165.385L562.606,165.385L562.602,165.378L562.602,165.374L562.602,165.373L562.603,165.372L562.603,165.37L562.604,165.368L562.605,165.367L562.609,165.362L562.61,165.362L562.611,165.361L562.611,165.36L562.61,165.358L562.607,165.357L562.605,165.357L562.605,165.358L562.606,165.358L562.606,165.359L562.605,165.36L562.604,165.361L562.603,165.361L562.6,165.359L562.598,165.356L562.597,165.354L562.598,165.351L562.599,165.35L562.603,165.347L562.604,165.347L562.604,165.348L562.605,165.348L562.606,165.349L562.608,165.348L562.608,165.347L562.606,165.344L562.605,165.343L562.603,165.339L562.604,165.337L562.604,165.335L562.603,165.334L562.603,165.332L562.602,165.331L562.6,165.331L562.599,165.33L562.598,165.327L562.596,165.325L562.595,165.322L562.594,165.32L562.594,165.316L562.593,165.315L562.591,165.314L562.59,165.315L562.588,165.314L562.588,165.312L562.586,165.311L562.585,165.309L562.584,165.307L562.582,165.303L562.579,165.302L562.579,165.301L562.58,165.299L562.581,165.298L562.582,165.297L562.582,165.295L562.582,165.293L562.582,165.289L562.583,165.287L562.584,165.286L562.586,165.286L562.587,165.284L562.587,165.28L562.586,165.28L562.586,165.278L562.587,165.277L562.588,165.276L562.588,165.274L562.587,165.271L562.587,165.27L562.586,165.269L562.584,165.269L562.583,165.267L562.581,165.267L562.58,165.267L562.578,165.266L562.577,165.264L562.577,165.263L562.577,165.262L562.576,165.261L562.573,165.26L562.571,165.259L562.571,165.258L562.571,165.257L562.572,165.256L562.573,165.255L562.574,165.254L562.574,165.252L562.57,165.248L562.569,165.246L562.568,165.243L562.569,165.243L562.57,165.242L562.572,165.24L562.576,165.238L562.576,165.237L562.576,165.234L562.577,165.232L562.579,165.232L562.579,165.232L562.579,165.235L562.58,165.237L562.581,165.237L562.584,165.237L562.587,165.235L562.588,165.233L562.588,165.23L562.588,165.23L562.586,165.229L562.586,165.228L562.587,165.228L562.59,165.227L562.591,165.227L562.592,165.224L562.591,165.223L562.59,165.221L562.589,165.219L562.59,165.214L562.589,165.212L562.588,165.21L562.585,165.209L562.584,165.207L562.582,165.205L562.58,165.203L562.578,165.201L562.577,165.199L562.575,165.197L562.575,165.195L562.576,165.195L562.577,165.195L562.579,165.196L562.58,165.196L562.581,165.195L562.58,165.193L562.579,165.191L562.578,165.189L562.578,165.186L562.578,165.185L562.578,165.183L562.578,165.181L562.58,165.179L562.581,165.178L562.582,165.176L562.58,165.174L562.581,165.173L562.583,165.174L562.583,165.172L562.582,165.17L562.583,165.168L562.583,165.167L562.582,165.168L562.581,165.168L562.581,165.166L562.582,165.165L562.582,165.164L562.581,165.163L562.58,165.163L562.579,165.162L562.58,165.16L562.579,165.159L562.578,165.159L562.577,165.159L562.577,165.157L562.578,165.155L562.579,165.155L562.58,165.154L562.58,165.152L562.581,165.148L562.58,165.148L562.579,165.149L562.578,165.149L562.578,165.148L562.578,165.147L562.58,165.147L562.581,165.145L562.58,165.141L562.579,165.139L562.579,165.137L562.581,165.136L562.582,165.134L562.582,165.132L562.582,165.13L562.583,165.129L562.582,165.127L562.581,165.127L562.578,165.127L562.578,165.126L562.577,165.124L562.575,165.123L562.573,165.121L562.574,165.12L562.573,165.118L562.575,165.118L562.576,165.117L562.574,165.117L562.574,165.115L562.573,165.115L562.572,165.116L562.57,165.117L562.569,165.117L562.569,165.116L562.569,165.116L562.569,165.114L562.567,165.114L562.567,165.114L562.566,165.114L562.564,165.114L562.562,165.114L562.56,165.113L562.559,165.111L562.559,165.109L562.559,165.108L562.561,165.105L562.562,165.101L562.562,165.099L562.561,165.099L562.559,165.098L562.557,165.096L562.557,165.095L562.558,165.091L562.559,165.089L562.56,165.088L562.56,165.087L562.56,165.086L562.557,165.086L562.556,165.084L562.556,165.082L562.555,165.081L562.553,165.081L562.55,165.079L562.548,165.078L562.548,165.077L562.55,165.076L562.551,165.075L562.551,165.073L562.549,165.073L562.545,165.073L562.54,165.073L562.538,165.072L562.537,165.07L562.537,165.069L562.539,165.068L562.54,165.067L562.541,165.066L562.542,165.064L562.543,165.063L562.543,165.058L562.542,165.057L562.539,165.056L562.538,165.056L562.537,165.057L562.536,165.058L562.534,165.058L562.532,165.056L562.531,165.054L562.532,165.047L562.532,165.041L562.533,165.04L562.532,165.037L562.532,165.035L562.531,165.033L562.524,165.028L562.522,165.023L562.463,165.021L562.282,164.928L562.207,164.928L562.125,164.949L562.086,164.929L561.968,165.019L561.784,165.034L561.735,164.995L561.724,164.99L561.711,164.977L561.699,164.971L561.65,164.93L561.563,164.909L561.37,164.862L560.918,164.538L560.881,164.509L560.813,164.342L560.496,163.818L560.43,163.709L560.412,163.563L560.456,163.467L560.458,163.45L560.522,163.336L560.512,163.197L560.54,163.157L560.593,163.152L560.675,163.032L560.652,162.919L560.636,162.929L560.532,162.926L560.493,162.947L560.41,162.972L560.436,162.717L560.392,162.518L560.32,162.178L560.273,162.138L560.247,162.124L560.215,162.093L560.144,162.075L560.11,162.058L560.069,162.037L560.05,162.029L559.821,161.615L559.892,161.506L560.485,161.447L560.496,161.458L560.759,161.427L560.822,161.267L560.859,161.212L560.984,160.969L560.97,160.808L560.931,160.793L560.913,160.62L560.937,160.522L560.938,160.519L560.925,160.398L560.922,160.372L560.922,160.367L560.922,160.363L560.923,160.345L560.914,160.284L560.922,160.274L560.923,160.204L560.922,160.201L560.921,160.193L560.993,160.038L561.204,159.582L561.413,159.131L561.09,158.785L560.937,158.621L560.48,158.13L560.234,157.866L559.986,157.599L559.65,157.292L559.607,157.253L559.465,156.872L559.324,156.492L559.268,156.315L559.112,156.144L559.028,155.617L559.012,155.518L558.906,155.19L558.783,154.811L558.795,154.486L558.815,153.939L558.833,153.461L558.849,153.046L558.866,152.596L558.881,152.197L558.468,151.839L558.071,151.494L557.703,151.214L557.4,150.991L557.004,150.688L556.667,150.43L556.315,150.245L556,150.078L555.995,150.076L555.912,150.037L555.893,150.029L555.846,150.007L555.663,149.934L555.389,149.849L555.215,149.821L555.092,149.797L555.001,149.749L554.858,149.729L554.776,149.707L554.758,149.707L554.757,149.707L554.754,149.707L554.682,149.707L554.425,149.709L554.312,149.711L554.304,149.724L554.262,149.737L554.25,149.987L554.249,150.106L554.247,150.141L554.243,150.146L554.235,150.146L554.23,150.145L554.222,150.142L554.216,150.142L554.209,150.143L554.198,150.145L554.19,150.143L554.184,150.14L554.18,150.141L554.172,150.143L554.167,150.143L554.161,150.14L554.15,150.139L554.14,150.14L554.137,150.144L553.934,150.159L553.923,150.195L553.912,150.589L553.904,150.7L553.741,150.694L553.559,150.69L553.506,150.688L553.228,150.676L553.214,150.672L553.09,150.624L553.05,150.592L553.026,150.388L553.005,150.256L552.987,150.075L552.702,150.045L552.677,149.795L552.626,149.41L552.505,149.395L552.496,149.39L552.269,149.394L551.823,149.39L551.811,149.354L551.714,149.355L551.709,149.359L551.63,149.36L551.551,149.364L551.306,149.377L551.237,149.381L551.231,149.381L551.224,149.382L551.207,149.383L551.181,149.384L551.158,149.386L551.136,149.387L551.066,149.391L550.982,149.393L550.866,149.395L550.821,149.396L550.733,149.4L550.66,149.401L550.578,149.404L550.495,149.406L550.414,149.409L550.266,149.415L550.283,149.382L550.14,149.381L550.033,149.38L549.765,149.378L549.663,149.378L549.653,149.378L549.561,149.376L549.546,149.375L549.437,149.375L549.406,149.374L549.385,149.374L549.355,149.373L549.276,149.375L548.872,149.376L548.918,149.452L548.924,149.463L548.926,149.461L548.929,149.464L548.93,149.47L548.928,149.475L548.925,149.477L548.934,149.514L548.934,149.529L548.944,149.545L548.977,149.605L548.973,149.613L548.961,149.621L548.971,149.643L548.994,149.65L549.002,149.648L549.01,149.653L549.013,149.665L549.015,149.665L549.016,149.665L549.017,149.666L549.017,149.668L549.017,149.669L549.019,149.67L549.021,149.67L549.024,149.669L549.028,149.668L549.028,149.681L549.025,149.689L549.019,149.698L549.019,149.703L549.018,149.706L549.02,149.709L549.023,149.711L549.024,149.716L549.024,149.719L549.028,149.721L549.035,149.721L549.038,149.727L549.12,149.872L549.132,149.903L549.199,150.071L549.209,150.101L549.217,150.123L549.234,150.176L549.248,150.215L549.261,150.256L549.274,150.293L549.287,150.333L549.315,150.417L549.324,150.442L549.341,150.49L549.356,150.532L549.369,150.567L549.372,150.575L549.386,150.613L549.388,150.623L549.402,150.673L549.408,150.696L549.418,150.734L549.429,150.774L549.437,150.806L549.452,150.851L549.473,150.915L549.483,150.946L549.487,150.957L549.491,150.97L549.495,150.98L549.496,150.98L549.495,150.98L549.495,150.981L549.495,150.982L549.495,150.982L549.495,150.983L549.496,150.983L549.496,150.983L549.497,150.982L549.498,150.982L549.498,150.983L549.499,150.983L549.499,150.982L549.5,150.982L549.501,150.983L549.502,150.983L549.502,150.984L549.502,150.984L549.503,150.985L549.503,150.985L549.503,150.986L549.504,150.986L549.504,150.986L549.505,150.988L549.508,150.99L549.509,150.991L549.511,150.993L549.512,150.995L549.512,150.997L549.512,150.998L549.511,151L549.509,151.002L549.507,151.003L549.505,151.004L549.503,151.005L549.499,151.004L549.495,151.004L549.493,151.005L549.492,151.006L549.491,151.008L549.491,151.009L549.491,151.01L549.493,151.013L549.494,151.019L549.495,151.02L549.496,151.021L549.498,151.023L549.501,151.025L549.504,151.026L549.506,151.026L549.509,151.025L549.511,151.024L549.512,151.023L549.514,151.017L549.516,151.02L549.517,151.021L549.535,151.052L549.565,151.101L549.578,151.122L549.609,151.174L549.614,151.181L549.627,151.202L549.65,151.239L549.661,151.255L549.669,151.268L549.681,151.288L549.697,151.313L549.705,151.326L549.716,151.343L549.734,151.372L549.753,151.403L549.767,151.425L549.778,151.443L549.802,151.483L549.822,151.518L549.847,151.559L549.864,151.589L549.872,151.602L549.875,151.613L549.884,151.652L549.892,151.684L549.903,151.727L549.911,151.764L549.927,151.828L549.934,151.855L549.943,151.893L549.952,151.935L549.953,151.937L549.969,151.944L549.962,151.952L549.956,151.957L549.958,151.964L549.962,151.979L549.967,151.999L549.974,152.023L549.988,152.033L549.988,152.04L549.982,152.043L549.984,152.072L549.988,152.115L549.991,152.152L549.994,152.191L549.995,152.211L550.003,152.22L550.013,152.231L550.04,152.261L550.04,152.275L550.04,152.282L550.041,152.294L550.044,152.304L550.058,152.353L550.064,152.372L550.08,152.426L550.086,152.449L550.091,152.464L550.099,152.492L550.108,152.53L550.114,152.554L550.121,152.592L550.125,152.618L550.135,152.674L550.14,152.703L550.142,152.713L550.145,152.735L550.15,152.774L550.158,152.831L550.16,152.849L550.164,152.881L550.17,152.926L550.172,152.948L550.173,152.952L550.175,152.969L550.179,152.988L550.181,153.002L550.187,153.044L550.188,153.054L550.19,153.071L550.195,153.106L550.199,153.135L550.201,153.15L550.204,153.183L550.205,153.189L550.207,153.204L550.214,153.261L550.216,153.284L550.217,153.29L550.22,153.319L550.22,153.322L550.222,153.333L550.223,153.348L550.231,153.474L550.099,153.413L550.066,153.398L550.029,153.361L550.026,153.362L550.013,153.369L550.002,153.374L549.96,153.398L549.901,153.425L549.885,153.433L549.849,153.449L549.835,153.456L549.752,153.496L549.648,153.546L549.584,153.577L549.536,153.601L549.59,153.713L549.645,153.77L549.692,153.817L549.718,153.845L549.739,153.869L549.773,153.91L549.689,154.017L549.668,154.044L549.664,154.048L549.654,154.064L549.65,154.07L549.636,154.092L549.606,154.14L549.599,154.151L549.591,154.164L549.589,154.181L549.585,154.202L549.582,154.224L549.568,154.244L549.555,154.264L549.555,154.276L549.552,154.365L549.55,154.421L549.548,154.485L549.547,154.526L549.546,154.553L549.548,154.582L549.551,154.638L549.552,154.659L549.558,154.684L549.572,154.74L549.578,154.765L549.54,154.817L549.519,154.848L549.41,154.998L549.349,155.051L549.336,155.114L549.367,155.178L549.372,155.188L549.39,155.227L549.446,155.228L549.446,155.228L549.501,155.23L549.547,155.243L549.574,155.25L549.607,155.238L549.694,155.262L549.766,155.292L549.809,155.327L549.823,155.38L549.713,155.551L549.699,155.574L549.75,155.636L549.752,155.635L549.753,155.633L549.756,155.632L549.76,155.63L549.763,155.63L549.766,155.625L549.768,155.624L549.771,155.623L549.774,155.623L549.775,155.625L549.775,155.627L549.771,155.628L549.77,155.629L549.768,155.63L549.767,155.632L549.766,155.633L549.765,155.634L549.761,155.636L549.755,155.641L549.78,155.672L549.828,155.729L549.786,155.734L549.718,155.781L549.554,155.784L549.519,155.813L549.472,155.843L549.427,155.872L549.424,155.875L549.378,155.905L549.373,155.956L549.368,155.996L549.364,156.031L549.361,156.064L549.357,156.094L549.341,156.141L549.332,156.164L549.353,156.251L549.36,156.284L549.365,156.303L549.362,156.331L549.359,156.365L549.354,156.402L549.352,156.43L549.359,156.469L549.392,156.605L549.408,156.669L549.469,156.738L549.477,156.75L549.481,156.755L549.499,156.784L549.479,156.856L549.48,156.857L549.508,156.894L549.513,156.901L549.529,156.922L549.566,156.97L549.617,156.97L549.781,156.97L549.799,156.96L549.829,156.955L549.993,156.95L550.012,156.963L550.072,156.958L550.096,156.983L550.144,157.032L550.152,157.067L550.143,157.07L550.069,157.16L550.09,157.27L550.174,157.424L550.2,157.471L550.21,157.489L550.214,157.496L550.223,157.513L550.226,157.519L550.217,157.575L550.198,157.609L550.091,157.651L550.001,157.74L549.982,157.758L549.983,157.76L549.996,157.798L549.988,157.871L549.987,157.886L549.983,157.922L549.982,157.927L549.982,157.927L549.981,157.939L549.98,157.953L549.978,157.967L549.99,157.994L550.024,158.081L550.05,158.095L550.041,158.164L550.077,158.206L550.096,158.281L550.097,158.288L550.083,158.324L550.095,158.352L550.075,158.477L550.087,158.493L550.183,158.619L550.201,158.63L550.229,158.646L550.35,158.675L550.438,158.73L550.476,158.755L550.504,158.793L550.612,158.871L550.601,158.941L550.647,158.988L550.804,159.014L550.849,159.17L550.777,159.236L550.822,159.338L550.86,159.425L550.922,159.512L550.923,159.629L550.88,159.83L550.871,159.849L550.821,159.949L550.82,159.952L550.778,160.024L550.745,160.082L550.608,160.251L550.589,160.274L550.535,160.359L550.535,160.36L550.533,160.364L550.523,160.397L550.434,160.691L550.251,160.77L550.24,160.775L550.222,160.785L550.166,160.817L549.972,160.925L549.953,160.935L549.965,160.95L550.032,161.028L550.098,161.107L550.104,161.116L550.107,161.119L550.108,161.121L550.108,161.121L550.107,161.123L550.106,161.125L550.105,161.128L550.105,161.129L550.106,161.13L550.106,161.132L550.104,161.132L550.103,161.133L550.101,161.134L550.101,161.135L550.101,161.137L550.102,161.138L550.107,161.14L550.112,161.144L550.114,161.146L550.115,161.148L550.116,161.153L550.118,161.158L550.122,161.162L550.123,161.163L550.123,161.165L550.123,161.167L550.121,161.17L550.121,161.171L550.123,161.172L550.125,161.172L550.127,161.174L550.128,161.175L550.132,161.179L550.136,161.183L550.137,161.184L550.142,161.188L550.143,161.189L550.144,161.192L550.146,161.195L550.15,161.197L550.152,161.198L550.155,161.2L550.157,161.203L550.158,161.206L550.159,161.207L550.161,161.208L550.163,161.209L550.165,161.21L550.166,161.212L550.167,161.215L550.168,161.217L550.171,161.219L550.178,161.223L550.181,161.225L550.182,161.227L550.183,161.231L550.183,161.232L550.189,161.238L550.19,161.239L550.19,161.242L550.191,161.243L550.195,161.247L550.197,161.25L550.201,161.26L550.206,161.266L550.207,161.268L550.206,161.27L550.207,161.271L550.308,161.384L550.344,161.426L550.407,161.499L550.412,161.52L550.425,161.576L550.43,161.585L550.43,161.585L550.43,161.586L550.43,161.586L550.431,161.586L550.431,161.586L550.432,161.587L550.434,161.589L550.435,161.589L550.436,161.589L550.437,161.59L550.438,161.591L550.439,161.593L550.439,161.594L550.44,161.594L550.444,161.597L550.445,161.598L550.445,161.599L550.446,161.599L550.447,161.6L550.448,161.6L550.449,161.6L550.453,161.603L550.453,161.603L550.454,161.603L550.454,161.603L550.455,161.603L550.455,161.603L550.454,161.604L550.455,161.605L550.455,161.605L550.456,161.605L550.456,161.605L550.456,161.606L550.456,161.606L550.457,161.605L550.457,161.605L550.458,161.605L550.458,161.605L550.459,161.605L550.459,161.605L550.459,161.605L550.459,161.605L550.46,161.605L550.46,161.606L550.46,161.606L550.46,161.605L550.461,161.605L550.641,161.73L550.701,161.839L550.764,161.955L550.806,162.023L550.807,162.025L550.845,162.046L551.115,162.173L551.268,162.235L551.313,162.254L551.404,162.359L551.404,162.36L551.404,162.362L551.404,162.363L551.404,162.363L551.404,162.364L551.404,162.365L551.405,162.366L551.406,162.368L551.405,162.369L551.406,162.37L551.408,162.37L551.409,162.37L551.41,162.371L551.41,162.372L551.409,162.372L551.408,162.372L551.408,162.373L551.409,162.373L551.411,162.374L551.412,162.376L551.412,162.378L551.411,162.38L551.41,162.382L551.41,162.383L551.411,162.384L551.412,162.384L551.414,162.383L551.414,162.384L551.414,162.385L551.415,162.387L551.416,162.388L551.417,162.39L551.418,162.39L551.42,162.391L551.42,162.392L551.422,162.393L551.423,162.393L551.428,162.396L551.43,162.397L551.431,162.396L551.432,162.395L551.433,162.397L551.436,162.398L551.437,162.399L551.438,162.4L551.44,162.401L551.441,162.401L551.442,162.401L551.443,162.403L551.443,162.404L551.445,162.405L551.446,162.405L551.448,162.404L551.45,162.403L551.452,162.403L551.453,162.403L551.455,162.405L551.456,162.406L551.457,162.408L551.459,162.408L551.462,162.41L551.462,162.41L551.462,162.412L551.464,162.412L551.467,162.412L551.469,162.412L551.473,162.413L551.473,162.412L551.474,162.41L551.476,162.412L551.48,162.413L551.484,162.416L551.487,162.416L551.49,162.416L551.494,162.417L551.496,162.418L551.499,162.42L551.502,162.42L551.505,162.42L551.507,162.421L551.511,162.422L551.512,162.424L551.514,162.424L551.517,162.425L551.521,162.424L551.526,162.427L551.529,162.427L551.531,162.427L551.534,162.43L551.541,162.43L551.543,162.433L551.546,162.434L551.548,162.434L551.551,162.435L551.557,162.439L551.573,162.509L551.591,162.54L551.632,162.615L551.632,162.616L551.635,162.616L551.637,162.617L551.639,162.617L551.639,162.618L551.641,162.619L551.642,162.621L551.643,162.621L551.643,162.619L551.643,162.619L551.644,162.618L551.644,162.618L551.654,162.63L551.66,162.629L551.665,162.629L551.667,162.629L551.701,162.633L551.76,162.677L551.809,162.714L551.813,162.721L551.814,162.724L551.815,162.726L551.818,162.727L551.818,162.729L551.818,162.731L551.82,162.732L551.821,162.734L551.822,162.736L551.823,162.737L551.825,162.737L551.827,162.74L551.829,162.742L551.829,162.745L551.83,162.746L551.833,162.747L551.833,162.748L551.835,162.748L551.836,162.749L551.836,162.75L551.837,162.753L551.859,162.753L551.862,162.753L551.864,162.754L551.868,162.755L551.871,162.757L551.872,162.759L551.872,162.761L551.873,162.761L551.876,162.761L551.877,162.76L551.88,162.762L551.882,162.765L551.883,162.767L551.884,162.769L551.886,162.772L551.886,162.773L551.884,162.773L551.882,162.772L551.881,162.772L551.881,162.772L551.881,162.774L551.882,162.776L551.882,162.776L551.883,162.777L551.884,162.779L551.885,162.78L551.888,162.782L551.888,162.783L551.889,162.783L551.892,162.782L551.893,162.782L551.894,162.781L551.894,162.779L551.893,162.777L551.894,162.775L551.894,162.775L551.895,162.774L551.896,162.774L551.897,162.774L551.898,162.775L551.899,162.776L551.9,162.777L551.901,162.778L551.902,162.779L551.904,162.781L551.905,162.783L551.907,162.783L551.907,162.784L551.908,162.786L551.91,162.786L551.911,162.786L551.913,162.786L551.914,162.787L551.915,162.789L551.915,162.791L551.916,162.793L551.918,162.796L551.92,162.799L551.923,162.803L551.924,162.806L551.926,162.808L551.926,162.81L551.925,162.811L551.924,162.813L551.924,162.815L551.925,162.818L551.927,162.82L551.928,162.82L551.928,162.822L551.928,162.824L551.929,162.824L551.93,162.824L551.93,162.825L551.933,162.828L551.934,162.831L551.934,162.833L551.934,162.835L551.934,162.836L551.935,162.838L551.936,162.838L551.937,162.84L551.937,162.842L551.939,162.847L551.942,162.851L551.944,162.852L551.946,162.853L551.947,162.854L551.948,162.855L551.95,162.856L551.952,162.859L551.954,162.862L551.957,162.863L551.96,162.865L551.96,162.866L551.962,162.866L551.963,162.867L551.964,162.867L551.965,162.868L551.964,162.869L551.965,162.87L551.966,162.871L551.968,162.872L551.967,162.874L551.967,162.875L551.968,162.875L551.97,162.875L551.971,162.876L551.973,162.877L551.973,162.878L551.973,162.881L551.974,162.882L551.974,162.883L551.976,162.884L551.978,162.886L551.98,162.887L551.982,162.887L551.984,162.888L551.986,162.889L551.987,162.889L551.99,162.89L551.991,162.891L551.992,162.892L551.993,162.894L551.994,162.895L551.996,162.896L551.998,162.895L552,162.897L552.002,162.898L552.003,162.898L552.005,162.898L552.006,162.899L552.008,162.9L552.009,162.901L552.01,162.903L552.011,162.903L552.012,162.904L552.015,162.905L552.018,162.906L552.021,162.907L552.021,162.908L552.022,162.909L552.023,162.91L552.023,162.912L552.024,162.914L552.028,162.918L552.032,162.921L552.033,162.923L552.035,162.925L552.036,162.927L552.038,162.927L552.041,162.929L552.043,162.931L552.044,162.931L552.044,162.932L552.045,162.934L552.047,162.935L552.05,162.936L552.051,162.937L552.052,162.939L552.057,162.943L552.057,162.944L552.06,162.943L552.063,162.944L552.066,162.949L552.067,162.951L552.068,162.964ZM800,0L800,12.246L800,78.668L800,145.789L800,215.835L800,261.497L800,300L800,338.503L800,384.165L800,454.211L800,600L800,600L200,600L200,600L200,454.211L200,384.165L200,338.503L200,300L200,261.497L200,215.835L200,145.789L200,78.668L200,12.246L200,0L200,0L800,0Z"/>
<path d="M557.281,168.107m0,4.5a4.5,4.5 0 1,1 0,-9a4.5,4.5 0 1,1 0,9z"/>
<path d="M555.82,165.14m0,4.5a4.5,4.5 0 1,1 0,-9a4.5,4.5 0 1,1 0,9z"/>
</svg>