<?xml version="1.0" encoding="UTF-8"?>
<svg xmlns="http://www.w3.org/2000/svg" viewBox="0 0 1000 600" stroke="#000" stroke-width="0.3" fill="#ccc">
<path d="M578.23,214.129L578.269,214.126L578.27,214.126L578.296,214.034L578.308,213.982L578.229,214.01L578.229,214.042ZM800,0L800,12.246L800,78.668L800,145.789L800,215.835L800,261.497L800,300L800,338.503L800,384.165L800,454.211L800,600L800,600L200,600L200,600L200,454.211L200,384.165L200,338.503L200,300L200,261.497L200,215.835L200,145.789L200,78.668L200,12.246L200,0L200,0L800,0ZM578.405,213.214L578.391,213.213L578.359,213.234L578.354,213.248L578.352,213.254L578.35,213.261L578.344,213.278L578.346,213.306L578.346,213.316L578.347,213.323L578.358,213.325L578.372,213.327L578.411,213.328L578.456,213.329L578.479,213.329L578.506,213.33L578.528,213.328L578.548,213.292L578.551,213.268L578.552,213.257L578.555,213.231L578.553,213.222L578.55,213.198L578.548,213.187L578.547,213.187L578.545,213.184L578.544,213.184L578.543,213.183L578.541,213.182L578.541,213.182L578.533,213.183L578.525,213.183L578.519,213.191L578.518,213.193L578.514,213.194L578.501,213.192L578.493,213.195L578.481,213.198L578.479,213.2L578.471,213.207L578.462,213.215L578.444,213.215L578.441,213.215L578.437,213.215ZM800,0L800,12.246L800,78.668L800,145.789L800,215.835L800,261.497L800,300L800,338.503L800,384.165L800,454.211L800,600L800,600L200,600L200,600L200,454.211L200,384.165L200,338.503L200,300L200,261.497L200,215.835L200,145.789L200,78.668L200,12.246L200,0L200,0L800,0ZM574.04,208.463L574.04,208.487L574.04,208.507L574.04,208.529L574.04,208.652L574.039,208.679L574.032,208.692L574.029,208.697L574.025,208.705L573.988,208.772L573.988,208.781L573.988,208.787L573.989,208.79L573.987,208.844L573.932,208.938L573.897,208.927L573.847,208.918L573.786,208.899L573.75,208.89L573.644,208.862L573.619,208.857L573.613,208.88L573.588,208.881L573.595,208.849L573.587,208.846L573.553,208.838L573.543,208.836L573.537,208.836L573.471,208.819L573.457,208.837L573.447,208.85L573.447,208.851L573.408,208.899L573.404,208.9L573.356,208.967L573.375,208.995L573.384,209.008L573.37,209.022L573.326,209.08L573.288,209.129L573.243,209.182L573.203,209.175L573.196,209.174L573.119,209.163L573.01,209.2L573.002,209.209L572.993,209.214L572.99,209.218L572.985,209.224L572.978,209.227L572.968,209.232L572.952,209.233L572.942,209.231L572.936,209.233L572.927,209.235L572.92,209.232L572.918,209.233L572.91,209.236L572.905,209.239L572.9,209.241L572.898,209.247L572.885,209.256L572.87,209.265L572.861,209.267L572.859,209.27L572.858,209.271L572.844,209.349L572.842,209.362L572.837,209.39L572.83,209.424L572.826,209.444L572.811,209.518L572.8,209.577L572.795,209.601L572.795,209.602L572.779,209.687L572.801,209.748L572.852,209.872L572.973,210.149L572.98,210.164L572.984,210.234L572.985,210.259L572.986,210.268L572.993,210.377L573.01,210.379L573.123,210.392L573.192,210.4L573.233,210.402L573.231,210.388L573.209,210.23L573.213,210.218L573.274,210.054L573.296,210.051L573.331,210.047L573.411,210.035L573.466,210.027L573.516,210.02L573.554,210.021L573.555,209.878L573.557,209.793L573.559,209.776L573.558,209.751L573.56,209.746L573.56,209.739L573.56,209.715L573.559,209.707L573.559,209.697L573.646,209.719L573.646,209.681L573.651,209.682L573.692,209.683L573.698,209.684L573.724,209.687L573.724,209.69L573.723,209.731L573.723,209.735L573.723,209.783L573.722,209.82L573.721,209.861L573.854,209.863L573.852,209.934L573.852,209.999L573.852,210.022L573.853,210.022L573.864,210.022L573.867,210.155L573.869,210.244L573.87,210.288L573.87,210.308L573.871,210.353L573.872,210.385L573.873,210.411L573.873,210.412L573.873,210.45L573.873,210.449L573.873,210.512L573.873,210.521L573.873,210.638L573.874,210.687L573.859,210.745L573.848,210.791L573.836,210.842L573.832,210.866L573.809,210.971L573.808,210.978L573.805,210.992L573.801,211.013L573.797,211.03L573.787,211.077L573.784,211.086L573.783,211.091L573.779,211.122L573.778,211.131L573.778,211.142L573.777,211.16L573.775,211.178L573.769,211.231L573.769,211.252L573.777,211.257L573.776,211.258L573.763,211.276L573.752,211.29L573.747,211.305L573.747,211.306L573.726,211.328L573.595,211.467L573.478,211.437L573.414,211.523L573.412,211.529L573.407,211.547L573.39,211.609L573.304,211.655L573.269,211.683L573.244,211.692L573.219,211.706L573.214,211.71L573.188,211.728L573.168,211.799L573.188,211.826L573.137,211.953L573.106,211.975L573.056,212.01L573.045,212.018L573.021,212.078L573.121,212.127L573.129,212.13L573.218,212.167L573.218,212.245L573.217,212.266L573.216,212.287L573.21,212.314L573.192,212.38L573.193,212.445L573.22,212.449L573.207,212.525L573.207,212.525L573.219,212.534L573.219,212.534L573.235,212.545L573.235,212.558L573.246,212.558L573.265,212.565L573.28,212.579L573.287,212.595L573.265,212.689L573.212,212.711L573.159,212.734L573.104,212.806L573.101,212.807L573.101,212.807L573.1,212.808L573.099,212.808L573.099,212.808L573.099,212.808L573.099,212.807L573.099,212.807L573.1,212.807L573.1,212.806L573.1,212.805L573.1,212.805L573.1,212.805L573.099,212.805L573.099,212.805L573.098,212.805L573.097,212.805L573.097,212.805L573.097,212.804L573.097,212.803L573.098,212.802L573.098,212.801L573.098,212.801L573.097,212.801L573.097,212.8L573.097,212.799L573.096,212.799L573.096,212.799L573.095,212.798L573.095,212.797L573.096,212.797L573.097,212.796L573.097,212.793L573.097,212.793L573.097,212.792L573.096,212.792L573.096,212.793L573.096,212.793L573.096,212.794L573.096,212.795L573.095,212.795L573.095,212.795L573.094,212.795L573.094,212.795L573.094,212.796L573.094,212.796L573.093,212.796L573.092,212.794L573.092,212.793L573.092,212.792L573.092,212.792L573.091,212.792L573.09,212.792L573.088,212.792L573.088,212.791L573.088,212.791L573.089,212.791L573.09,212.791L573.09,212.791L573.089,212.79L573.089,212.789L573.089,212.788L573.09,212.787L573.09,212.787L573.092,212.787L573.092,212.787L573.093,212.785L573.093,212.784L573.093,212.783L573.093,212.783L573.092,212.783L573.091,212.783L573.09,212.784L573.089,212.783L573.089,212.783L573.089,212.782L573.091,212.78L573.091,212.78L573.091,212.778L573.091,212.777L573.09,212.777L573.089,212.778L573.088,212.779L573.086,212.779L573.086,212.779L573.086,212.778L573.087,212.777L573.087,212.776L573.086,212.776L573.084,212.775L573.083,212.775L573.083,212.775L573.082,212.776L573.082,212.775L573.082,212.774L573.082,212.774L573.081,212.773L573.08,212.773L573.08,212.772L573.08,212.772L573.081,212.771L573.08,212.768L573.08,212.767L573.081,212.767L573.082,212.767L573.083,212.766L573.083,212.765L573.083,212.764L573.081,212.764L573.149,212.702L573.079,212.657L573.049,212.615L573.049,212.614L573.046,212.6L573.046,212.6L573.04,212.578L573.034,212.555L573.034,212.553L573.031,212.537L573.02,212.539L573.016,212.54L573.011,212.537L573.011,212.536L572.999,212.53L572.999,212.53L572.987,212.523L572.987,212.523L572.987,212.523L572.977,212.518L572.96,212.508L572.959,212.508L572.954,212.505L572.953,212.505L572.952,212.504L572.949,212.502L572.945,212.5L572.942,212.498L572.941,212.498L572.935,212.494L572.935,212.494L572.929,212.491L572.922,212.487L572.912,212.482L572.898,212.474L572.894,212.485L572.892,212.489L572.882,212.512L572.882,212.512L572.891,212.532L572.893,212.536L572.895,212.539L572.895,212.54L572.909,212.569L572.91,212.569L572.914,212.579L572.914,212.579L572.916,212.584L572.918,212.588L572.916,212.592L572.906,212.609L572.882,212.65L572.834,212.734L572.82,212.758L572.818,212.761L572.812,212.774L572.805,212.791L572.797,212.812L572.783,212.852L572.78,212.858L572.78,212.859L572.77,212.885L572.717,213.036L572.668,213.042L572.638,213.053L572.564,213.079L572.38,213.069L572.356,213.067L572.26,213.058L572.232,213.055L572.226,213.053L572.222,213.051L572.185,213.013L572.169,212.996L572.075,212.904L572.064,212.893L572.02,212.849L571.955,212.78L571.943,212.768L571.942,212.767L571.933,212.758L571.925,212.75L571.924,212.749L571.902,212.727L571.893,212.719L571.893,212.719L571.877,212.703L571.877,212.702L571.874,212.699L571.751,212.576L571.732,212.557L571.663,212.49L571.653,212.479L571.626,212.452L571.611,212.437L571.608,212.435L571.608,212.435L571.59,212.417L571.555,212.383L571.554,212.381L571.553,212.38L571.431,212.432L571.302,212.487L571.318,212.536L571.282,212.57L571.252,212.57L571.154,212.572L571.133,212.57L571.089,212.56L571.047,212.548L570.997,212.533L570.978,212.525L570.963,212.516L570.957,212.512L570.934,212.495L570.929,212.485L570.919,212.461L570.901,212.438L570.872,212.41L570.859,212.395L570.843,212.368L570.839,212.357L570.815,212.339L570.785,212.342L570.739,212.332L570.722,212.324L570.707,212.312L570.693,212.295L570.693,212.285L570.694,212.273L570.696,212.259L570.695,212.255L570.684,212.247L570.662,212.225L570.623,212.218L570.607,212.21L570.599,212.207L570.554,212.186L570.538,212.183L570.512,212.181L570.465,212.177L570.435,212.158L570.421,212.147L570.358,212.115L570.334,212.11L570.288,212.111L570.217,212.115L570.203,212.118L570.173,212.126L570.105,212.145L570.098,212.143L570.083,212.14L570.083,212.155L570.082,212.158L570.081,212.159L570.079,212.16L570.077,212.161L570.076,212.162L570.076,212.163L570.075,212.164L570.074,212.165L570.074,212.166L570.074,212.168L570.074,212.169L570.075,212.17L570.076,212.171L570.077,212.172L570.078,212.173L570.078,212.174L570.078,212.174L570.079,212.175L570.08,212.177L570.082,212.179L570.082,212.18L570.083,212.182L570.083,212.184L570.085,212.185L570.087,212.186L570.088,212.186L570.089,212.186L570.091,212.188L570.092,212.188L570.092,212.189L570.094,212.191L570.094,212.193L570.094,212.194L570.093,212.195L570.093,212.197L570.091,212.199L570.089,212.202L570.088,212.204L570.087,212.205L570.085,212.208L570.083,212.21L570.083,212.211L570.084,212.213L570.085,212.218L570.085,212.231L570.111,212.292L570.13,212.381L570.136,212.408L570.144,212.446L570.149,212.471L570.161,212.525L570.166,212.547L570.168,212.556L570.223,212.545L570.225,212.546L570.251,212.54L570.252,212.541L570.274,212.536L570.276,212.541L570.29,212.582L570.292,212.588L570.289,212.646L570.284,212.741L570.264,212.741L570.253,212.741L570.253,212.741L570.215,212.741L570.209,212.741L570.205,212.741L570.199,212.741L570.189,212.741L570.178,212.741L570.177,212.741L570.167,212.741L570.159,212.741L570.155,212.741L570.139,212.741L570.138,212.741L570.123,212.741L570.122,212.741L570.112,212.741L570.111,212.741L570.111,212.741L570.102,212.741L570.101,212.741L570.101,212.741L570.091,212.741L570.09,212.741L570.081,212.741L570.08,212.741L570.07,212.741L570.038,212.741L570.002,212.74L569.937,212.74L569.938,212.79L569.938,212.791L569.938,212.814L569.938,212.815L569.938,212.841L569.938,212.842L569.938,212.844L569.937,212.844L569.852,212.844L569.851,212.968L569.852,212.968L569.862,212.968L569.863,212.968L569.873,212.968L569.937,212.969L569.938,212.998L569.938,213.033L569.873,213.033L569.87,213.034L569.869,213.034L569.821,213.034L569.811,213.035L569.802,213.05L569.797,213.061L569.79,213.074L569.771,213.111L569.771,213.11L569.748,213.1L569.748,213.1L569.729,213.09L569.718,213.085L569.71,213.082L569.683,213.068L569.634,213.044L569.626,213.04L569.623,213.039L569.564,213.011L569.573,212.991L569.566,212.987L569.548,212.98L569.544,212.977L569.54,212.972L569.536,212.968L569.531,212.964L569.521,212.955L569.521,212.955L569.52,212.954L569.515,212.95L569.515,212.95L569.519,212.945L569.516,212.943L569.513,212.939L569.513,212.938L569.51,212.938L569.508,212.937L569.507,212.936L569.505,212.936L569.503,212.935L569.501,212.936L569.498,212.938L569.496,212.94L569.494,212.943L569.492,212.947L569.491,212.951L569.491,212.954L569.491,212.958L569.49,212.962L569.49,212.964L569.488,212.966L569.485,212.967L569.482,212.967L569.479,212.967L569.476,212.969L569.474,212.971L569.471,212.973L569.469,212.975L569.467,212.976L569.465,212.977L569.464,212.978L569.463,212.979L569.462,212.981L569.462,212.983L569.462,212.985L569.463,212.988L569.464,212.991L569.465,212.992L569.466,212.993L569.467,212.994L569.468,212.994L569.469,212.994L569.471,212.993L569.471,212.993L569.472,212.993L569.473,212.994L569.475,212.995L569.476,212.996L569.478,212.999L569.48,213.002L569.481,213.004L569.481,213.005L569.482,213.007L569.482,213.008L569.481,213.009L569.479,213.011L569.477,213.011L569.475,213.011L569.472,213.012L569.47,213.012L569.467,213.012L569.463,213.014L569.46,213.016L569.455,213.017L569.452,213.018L569.449,213.019L569.447,213.021L569.445,213.022L569.442,213.023L569.441,213.024L569.44,213.025L569.437,213.028L569.435,213.03L569.433,213.03L569.431,213.03L569.429,213.029L569.428,213.027L569.427,213.025L569.427,213.023L569.427,213.021L569.426,213.019L569.427,213.018L569.428,213.016L569.428,213.013L569.427,213.011L569.426,213.009L569.425,213.007L569.424,213.005L569.422,213.003L569.42,213.001L569.418,213L569.416,212.999L569.413,212.999L569.409,212.999L569.405,213L569.402,213.001L569.399,213.003L569.397,213.005L569.395,213.007L569.393,213.009L569.392,213.012L569.391,213.016L569.391,213.019L569.391,213.021L569.391,213.023L569.391,213.025L569.392,213.028L569.394,213.031L569.395,213.033L569.396,213.034L569.398,213.034L569.401,213.035L569.406,213.036L569.413,213.04L569.417,213.044L569.421,213.048L569.423,213.051L569.424,213.053L569.424,213.056L569.423,213.058L569.42,213.06L569.416,213.063L569.414,213.063L569.413,213.064L569.413,213.065L569.413,213.067L569.411,213.069L569.409,213.071L569.406,213.073L569.404,213.076L569.402,213.079L569.401,213.081L569.401,213.083L569.401,213.086L569.404,213.088L569.408,213.09L569.409,213.09L569.41,213.089L569.411,213.089L569.413,213.09L569.415,213.091L569.416,213.093L569.417,213.094L569.418,213.096L569.417,213.098L569.417,213.1L569.416,213.101L569.414,213.104L569.412,213.107L569.411,213.11L569.409,213.114L569.408,213.116L569.411,213.119L569.412,213.12L569.414,213.124L569.421,213.138L569.435,213.171L569.436,213.174L569.455,213.219L569.468,213.251L569.475,213.266L569.486,213.291L569.503,213.332L569.503,213.333L569.507,213.353L569.512,213.399L569.517,213.442L569.519,213.454L569.523,213.493L569.524,213.496L569.524,213.499L569.527,213.498L569.53,213.499L569.536,213.5L569.54,213.5L569.543,213.499L569.547,213.5L569.55,213.501L569.555,213.503L569.555,213.503L569.559,213.501L569.56,213.501L569.561,213.501L569.562,213.502L569.563,213.503L569.564,213.504L569.565,213.503L569.566,213.502L569.568,213.501L569.573,213.502L569.579,213.502L569.584,213.501L569.591,213.503L569.608,213.507L569.612,213.508L569.617,213.509L569.624,213.507L569.629,213.507L569.635,213.508L569.64,213.509L569.642,213.51L569.646,213.511L569.648,213.511L569.65,213.511L569.654,213.512L569.658,213.513L569.659,213.512L569.659,213.512L569.661,213.512L569.663,213.51L569.665,213.51L569.672,213.509L569.676,213.507L569.677,213.507L569.678,213.509L569.679,213.509L569.683,213.508L569.684,213.508L569.685,213.509L569.686,213.51L569.687,213.511L569.689,213.513L569.692,213.513L569.697,213.512L569.699,213.513L569.699,213.514L569.699,213.516L569.712,213.516L569.724,213.518L569.736,213.519L569.75,213.523L569.756,213.524L569.761,213.522L569.777,213.525L569.793,213.526L569.803,213.528L569.808,213.528L569.823,213.529L569.825,213.529L569.826,213.529L569.838,213.534L569.841,213.534L569.866,213.522L569.875,213.519L569.879,213.518L569.902,213.519L569.934,213.523L570.003,213.527L570.07,213.533L570.076,213.533L570.122,213.537L570.138,213.538L570.137,213.555L570.137,213.562L570.133,213.616L570.139,213.62L570.172,213.613L570.253,213.594L570.254,213.575L570.261,213.503L570.264,213.47L570.272,213.373L570.272,213.372L570.273,213.364L570.294,213.36L570.295,213.345L570.3,213.286L570.287,213.29L570.279,213.289L570.284,213.189L570.323,213.179L570.337,213.175L570.347,213.173L570.367,213.169L570.377,213.167L570.42,213.157L570.458,213.148L570.526,213.132L570.535,213.13L570.553,213.132L570.543,213.244L570.542,213.253L570.534,213.344L570.533,213.357L570.532,213.379L570.532,213.4L570.533,213.439L570.533,213.441L570.533,213.458L570.53,213.53L570.583,213.517L570.635,213.505L570.645,213.503L570.662,213.499L570.693,213.492L570.747,213.481L570.811,213.465L570.821,213.462L570.837,213.459L570.874,213.45L570.882,213.448L570.884,213.448L570.886,213.448L570.915,213.441L570.92,213.439L570.922,213.439L570.924,213.439L570.928,213.438L570.929,213.437L570.953,213.413L570.969,213.396L570.97,213.396L570.992,213.373L570.995,213.37L571.001,213.364L571.01,213.355L571.071,213.291L571.112,213.249L571.12,213.241L571.182,213.24L571.213,213.24L571.228,213.239L571.228,213.239L571.23,213.238L571.231,213.237L571.246,213.221L571.252,213.216L571.286,213.18L571.308,213.156L571.334,213.13L571.342,213.122L571.348,213.115L571.37,213.093L571.422,213.045L571.438,213.03L571.438,213.03L571.434,213.029L571.431,213.03L571.43,213.031L571.43,213.031L571.429,213.03L571.429,213.029L571.429,213.028L571.429,213.028L571.428,213.028L571.427,213.029L571.426,213.029L571.425,213.029L571.425,213.028L571.424,213.026L571.423,213.025L571.423,213.025L571.423,213.024L571.424,213.023L571.424,213.023L571.425,213.024L571.425,213.024L571.425,213.023L571.427,213.022L571.427,213.021L571.429,213.021L571.43,213.021L571.43,213.02L571.428,213.018L571.429,213.015L571.428,213.014L571.428,213.014L571.426,213.014L571.426,213.014L571.425,213.012L571.422,213.009L571.42,213.006L571.417,213.006L571.415,213.006L571.414,213.004L571.414,213.003L571.412,213.004L571.405,213.001L571.403,213L571.402,212.999L571.401,212.999L571.4,212.999L571.399,212.999L571.399,212.998L571.4,212.997L571.401,212.997L571.401,212.997L571.404,212.996L571.405,212.997L571.407,212.997L571.408,212.995L571.409,212.994L571.41,212.993L571.41,212.992L571.409,212.99L571.408,212.989L571.408,212.988L571.409,212.986L571.409,212.986L571.411,212.986L571.412,212.986L571.412,212.985L571.413,212.985L571.412,212.985L571.411,212.983L571.411,212.982L571.411,212.982L571.412,212.981L571.414,212.979L571.416,212.978L571.415,212.977L571.415,212.977L571.414,212.975L571.415,212.974L571.416,212.972L571.418,212.971L571.419,212.971L571.42,212.971L571.421,212.972L571.422,212.973L571.422,212.974L571.422,212.974L571.424,212.974L571.425,212.975L571.427,212.978L571.428,212.978L571.428,212.978L571.429,212.977L571.429,212.976L571.429,212.975L571.43,212.973L571.431,212.973L571.432,212.972L571.434,212.973L571.435,212.972L571.436,212.972L571.437,212.97L571.44,212.967L571.444,212.964L571.444,212.964L571.445,212.964L571.446,212.963L571.446,212.964L571.446,212.964L571.446,212.966L571.446,212.967L571.447,212.967L571.448,212.966L571.448,212.966L571.448,212.965L571.448,212.963L571.448,212.96L571.449,212.958L571.451,212.957L571.453,212.957L571.454,212.957L571.455,212.958L571.456,212.96L571.456,212.96L571.458,212.964L571.459,212.965L571.459,212.965L571.46,212.964L571.461,212.963L571.461,212.962L571.459,212.959L571.458,212.956L571.459,212.955L571.46,212.954L571.463,212.953L571.466,212.954L571.469,212.956L571.523,212.889L571.545,212.888L571.553,212.889L571.553,212.889L571.571,212.924L571.579,212.94L571.603,212.985L571.613,212.996L571.631,213.018L571.67,213.05L571.684,213.051L571.722,213.064L571.783,213.093L571.859,213.121L571.915,213.14L571.941,213.148L571.958,213.156L571.963,213.158L571.988,213.175L572.008,213.177L572.019,213.184L572.031,213.188L572.096,213.192L572.105,213.194L572.136,213.207L572.165,213.224L572.184,213.241L572.216,213.285L572.249,213.337L572.306,213.391L572.319,213.408L572.328,213.417L572.336,213.43L572.342,213.436L572.348,213.439L572.356,213.442L572.364,213.445L572.37,213.448L572.378,213.447L572.381,213.449L572.383,213.451L572.387,213.452L572.389,213.454L572.389,213.457L572.392,213.456L572.394,213.456L572.398,213.456L572.4,213.454L572.403,213.453L572.408,213.454L572.417,213.46L572.42,213.464L572.422,213.472L572.425,213.474L572.437,213.475L572.456,213.474L572.469,213.472L572.477,213.468L572.488,213.465L572.498,213.468L572.507,213.472L572.509,213.472L572.52,213.47L572.522,213.469L572.561,213.482L572.568,213.49L572.58,213.489L572.607,213.495L572.619,213.497L572.631,213.498L572.641,213.5L572.648,213.499L572.65,213.496L572.649,213.489L572.652,213.484L572.657,213.484L572.664,213.489L572.666,213.496L572.673,213.508L572.678,213.508L572.678,213.503L572.678,213.501L572.691,213.499L572.692,213.492L572.695,213.491L572.696,213.486L572.699,213.48L572.704,213.478L572.708,213.481L572.706,213.483L572.703,213.488L572.705,213.491L572.711,213.495L572.715,213.495L572.717,213.49L572.721,213.489L572.727,213.486L572.726,213.493L572.725,213.5L572.728,213.499L572.732,213.496L572.731,213.503L572.736,213.503L572.742,213.506L572.742,213.505L572.742,213.503L572.745,213.503L572.748,213.504L572.758,213.504L572.763,213.502L572.77,213.499L572.776,213.498L572.78,213.498L572.784,213.501L572.788,213.501L572.792,213.498L572.795,213.497L572.801,213.502L572.809,213.502L572.814,213.504L572.82,213.507L572.825,213.503L572.832,213.503L572.842,213.5L572.853,213.499L572.863,213.499L572.872,213.499L572.881,213.506L572.888,213.509L572.897,213.506L572.904,213.508L572.91,213.508L572.914,213.508L572.926,213.514L572.936,213.522L572.944,213.526L572.95,213.523L572.952,213.52L572.953,213.52L572.954,213.52L572.955,213.521L572.956,213.521L572.96,213.522L572.961,213.522L572.963,213.525L572.965,213.525L572.966,213.526L572.966,213.527L572.967,213.529L572.966,213.53L572.965,213.53L572.965,213.531L572.965,213.532L572.966,213.533L572.968,213.532L572.97,213.533L572.972,213.534L572.973,213.534L572.974,213.534L572.975,213.534L572.976,213.534L572.976,213.535L572.976,213.536L572.976,213.537L572.974,213.537L572.973,213.537L572.973,213.538L572.974,213.538L572.975,213.54L572.976,213.542L572.978,213.545L572.979,213.546L572.979,213.546L572.98,213.546L572.982,213.544L572.984,213.544L572.985,213.544L572.986,213.545L572.986,213.545L572.987,213.548L572.987,213.549L572.989,213.55L572.998,213.552L573.005,213.557L573.014,213.557L573.017,213.562L573.019,213.559L573.024,213.555L573.03,213.561L573.037,213.561L573.038,213.557L573.041,213.555L573.043,213.557L573.044,213.559L573.048,213.559L573.055,213.559L573.058,213.56L573.06,213.56L573.063,213.56L573.065,213.559L573.066,213.558L573.067,213.558L573.077,213.561L573.078,213.559L573.09,213.563L573.106,213.568L573.117,213.574L573.122,213.579L573.124,213.58L573.13,213.579L573.137,213.579L573.141,213.581L573.144,213.586L573.15,213.587L573.155,213.591L573.158,213.588L573.161,213.586L573.165,213.585L573.168,213.583L573.172,213.581L573.178,213.584L573.181,213.585L573.192,213.585L573.197,213.589L573.199,213.591L573.198,213.595L573.197,213.598L573.197,213.606L573.2,213.612L573.201,213.622L573.208,213.629L573.212,213.636L573.215,213.657L573.219,213.671L573.219,213.677L573.212,213.683L573.205,213.69L573.215,213.695L573.224,213.703L573.23,213.705L573.242,213.709L573.251,213.712L573.263,213.714L573.274,213.717L573.283,213.72L573.289,213.723L573.301,213.72L573.305,213.72L573.313,213.729L573.322,213.733L573.336,213.743L573.361,213.767L573.377,213.788L573.38,213.795L573.382,213.805L573.387,213.812L573.393,213.818L573.389,213.831L573.388,213.839L573.391,213.851L573.395,213.868L573.4,213.879L573.404,213.889L573.412,213.897L573.416,213.905L573.421,213.912L573.429,213.922L573.432,213.925L573.434,213.923L573.434,213.917L573.435,213.912L573.44,213.911L573.444,213.914L573.445,213.92L573.448,213.93L573.453,213.934L573.469,213.936L573.482,213.941L573.485,213.945L573.486,213.952L573.484,213.958L573.482,213.961L573.481,213.966L573.481,213.969L573.485,213.977L573.487,213.987L573.489,213.995L573.489,214.014L573.491,214.022L573.493,214.032L573.498,214.046L573.497,214.05L573.502,214.055L573.506,214.059L573.51,214.084L573.514,214.089L573.525,214.094L573.532,214.092L573.534,214.095L573.536,214.101L573.538,214.131L573.537,214.154L573.537,214.162L573.537,214.164L573.538,214.169L573.541,214.198L573.557,214.223L573.565,214.237L573.574,214.25L573.582,214.262L573.594,214.271L573.604,214.278L573.619,214.299L573.62,214.302L573.619,214.308L573.635,214.329L573.643,214.333L573.647,214.338L573.664,214.355L573.668,214.358L573.668,214.364L573.679,214.375L573.684,214.375L573.69,214.378L573.697,214.385L573.699,214.388L573.705,214.397L573.716,214.405L573.724,214.415L573.749,214.427L573.754,214.437L573.783,214.447L573.798,214.459L573.798,214.462L573.796,214.468L573.796,214.469L573.797,214.473L573.803,214.479L573.812,214.479L573.829,214.486L573.835,214.493L573.841,214.502L573.85,214.511L573.858,214.519L573.86,214.526L573.865,214.529L573.869,214.527L573.873,214.526L573.874,214.526L573.879,214.528L573.891,214.533L573.899,214.531L573.907,214.532L573.914,214.53L573.922,214.525L573.927,214.525L573.932,214.525L573.94,214.528L573.943,214.531L573.943,214.538L573.943,214.545L573.948,214.549L573.954,214.551L573.965,214.557L573.97,214.557L573.972,214.562L573.991,214.575L574.016,214.594L574.016,214.594L574.022,214.597L574.035,214.605L574.043,214.611L574.047,214.612L574.05,214.611L574.057,214.617L574.064,214.618L574.064,214.618L574.068,214.622L574.068,214.622L574.076,214.626L574.086,214.634L574.094,214.635L574.104,214.638L574.114,214.641L574.118,214.643L574.126,214.644L574.138,214.647L574.146,214.646L574.156,214.646L574.156,214.646L574.163,214.647L574.163,214.647L574.185,214.631L574.188,214.627L574.191,214.626L574.195,214.63L574.199,214.632L574.215,214.637L574.223,214.64L574.227,214.644L574.227,214.644L574.226,214.648L574.223,214.654L574.228,214.654L574.228,214.654L574.235,214.651L574.236,214.651L574.241,214.651L574.246,214.649L574.246,214.644L574.247,214.644L574.249,214.645L574.251,214.649L574.254,214.653L574.257,214.653L574.26,214.648L574.264,214.647L574.273,214.644L574.286,214.636L574.292,214.637L574.295,214.639L574.304,214.651L574.311,214.663L574.315,214.671L574.317,214.682L574.323,214.693L574.331,214.703L574.331,214.703L574.337,214.704L574.348,214.711L574.353,214.713L574.358,214.716L574.377,214.73L574.388,214.737L574.403,214.74L574.418,214.746L574.43,214.75L574.439,214.754L574.452,214.759L574.487,214.766L574.5,214.769L574.501,214.772L574.519,214.772L574.525,214.773L574.53,214.777L574.534,214.78L574.539,214.782L574.544,214.787L574.551,214.789L574.554,214.794L574.56,214.797L574.565,214.801L574.571,214.806L574.584,214.81L574.594,214.81L574.602,214.816L574.609,214.816L574.622,214.815L574.626,214.814L574.632,214.817L574.647,214.817L574.656,214.819L574.659,214.825L574.662,214.828L574.666,214.826L574.669,214.819L574.676,214.815L574.687,214.813L574.698,214.808L574.708,214.803L574.716,214.8L574.718,214.8L574.721,214.811L574.729,214.822L574.742,214.831L574.779,214.859L574.786,214.861L574.787,214.866L574.794,214.871L574.796,214.876L574.799,214.878L574.81,214.875L574.822,214.881L574.825,214.919L574.891,214.951L574.903,214.957L574.945,214.977L575.094,215.046L575.227,215.112L575.323,215.164L575.545,215.291L575.587,215.317L575.757,215.414L575.773,215.423L575.9,215.49L575.983,215.538L575.977,215.549L575.99,215.567L576.099,215.719L576.193,215.845L576.181,215.87L576.175,215.888L576.183,215.888L576.19,215.896L576.203,215.894L576.212,215.897L576.225,215.899L576.248,215.893L576.264,215.897L576.293,215.908L576.306,215.909L576.314,215.904L576.32,215.896L576.329,215.89L576.33,215.884L576.327,215.876L576.323,215.869L576.323,215.864L576.33,215.862L576.336,215.864L576.356,215.855L576.367,215.857L576.383,215.858L576.396,215.863L576.41,215.869L576.423,215.865L576.442,215.865L576.449,215.865L576.457,215.869L576.464,215.869L576.469,215.863L576.475,215.864L576.487,215.865L576.502,215.865L576.519,215.865L576.534,215.868L576.551,215.871L576.582,215.867L576.594,215.87L576.607,215.877L576.615,215.88L576.624,215.876L576.631,215.866L576.637,215.861L576.666,215.865L576.674,215.872L576.684,215.88L576.694,215.883L576.703,215.884L576.709,215.884L576.715,215.879L576.72,215.88L576.731,215.887L576.748,215.893L576.768,215.899L576.778,215.903L576.787,215.913L576.795,215.918L576.799,215.918L576.8,215.913L576.805,215.909L576.811,215.91L576.831,215.909L576.837,215.906L576.862,215.906L576.883,215.914L576.926,215.932L576.933,215.933L576.935,215.93L576.935,215.925L576.936,215.922L576.958,215.924L576.982,215.929L576.99,215.933L577.001,215.933L577.01,215.926L577.022,215.919L577.033,215.908L577.04,215.899L577.044,215.899L577.055,215.901L577.066,215.904L577.073,215.908L577.081,215.916L577.098,215.919L577.137,215.932L577.175,215.942L577.187,215.947L577.196,215.949L577.203,215.95L577.21,215.953L577.214,215.953L577.219,215.952L577.235,215.952L577.246,215.95L577.252,215.956L577.259,215.965L577.26,215.971L577.264,215.974L577.267,215.973L577.271,215.967L577.276,215.966L577.28,215.966L577.281,215.961L577.287,215.959L577.292,215.959L577.305,215.959L577.323,215.967L577.34,215.971L577.355,215.982L577.378,215.989L577.382,215.989L577.385,215.987L577.385,215.979L577.4,215.979L577.403,215.979L577.416,215.978L577.451,215.986L577.461,215.992L577.474,215.999L577.508,215.99L577.519,216.001L577.54,216.01L577.577,216.03L577.618,216.053L577.623,216.061L577.624,216.064L577.625,216.071L577.628,216.074L577.636,216.083L577.641,216.094L577.695,216.135L577.704,216.144L577.708,216.147L577.711,216.148L577.713,216.149L577.715,216.15L577.722,216.159L577.725,216.162L577.727,216.161L577.729,216.156L577.732,216.155L577.737,216.155L577.747,216.159L577.75,216.159L577.753,216.159L577.758,216.163L577.763,216.166L577.766,216.167L577.77,216.164L577.774,216.164L577.777,216.168L577.783,216.168L577.788,216.166L577.795,216.167L577.802,216.173L577.808,216.186L577.817,216.196L577.829,216.201L577.838,216.204L577.846,216.207L577.85,216.205L577.854,216.205L577.857,216.207L577.859,216.21L577.865,216.215L577.868,216.213L577.874,216.214L577.881,216.216L577.892,216.22L577.9,216.222L577.905,216.229L577.911,216.231L577.917,216.233L577.927,216.235L577.936,216.238L577.945,216.241L577.95,216.244L577.953,216.248L577.955,216.26L577.952,216.266L577.947,216.274L577.937,216.28L577.932,216.295L577.928,216.299L577.926,216.301L577.925,216.304L577.925,216.306L577.927,216.307L577.928,216.308L577.937,216.311L577.943,216.313L577.953,216.324L577.955,216.327L577.956,216.328L577.958,216.328L577.962,216.327L577.964,216.327L577.965,216.327L577.97,216.328L577.975,216.33L577.978,216.331L577.979,216.332L577.979,216.333L577.981,216.335L577.982,216.335L577.982,216.335L577.984,216.335L577.984,216.336L577.986,216.337L577.987,216.339L577.988,216.341L577.991,216.342L577.996,216.342L577.998,216.343L577.999,216.345L577.998,216.346L577.998,216.347L577.996,216.349L577.995,216.35L577.995,216.351L577.996,216.352L577.997,216.353L577.998,216.354L578.001,216.356L578.007,216.358L578.009,216.36L578.01,216.361L578.01,216.362L578.01,216.364L578.01,216.365L578.009,216.367L578.009,216.368L578.009,216.37L578.011,216.371L578.011,216.371L578.013,216.372L578.014,216.372L578.015,216.372L578.015,216.371L578.016,216.371L578.016,216.37L578.016,216.369L578.017,216.369L578.017,216.369L578.019,216.37L578.021,216.371L578.022,216.372L578.022,216.372L578.022,216.373L578.022,216.374L578.022,216.375L578.023,216.375L578.023,216.376L578.024,216.377L578.024,216.382L578.022,216.387L578.022,216.389L578.022,216.389L578.024,216.391L578.026,216.391L578.026,216.393L578.027,216.393L578.029,216.393L578.03,216.394L578.032,216.396L578.033,216.398L578.035,216.398L578.035,216.399L578.039,216.397L578.04,216.396L578.042,216.396L578.043,216.396L578.044,216.395L578.05,216.394L578.052,216.393L578.053,216.392L578.053,216.39L578.052,216.389L578.051,216.386L578.051,216.385L578.051,216.384L578.052,216.383L578.052,216.383L578.057,216.385L578.058,216.384L578.062,216.381L578.063,216.38L578.063,216.378L578.064,216.377L578.063,216.376L578.061,216.374L578.058,216.373L578.056,216.371L578.056,216.37L578.054,216.37L578.053,216.371L578.051,216.37L578.049,216.368L578.047,216.367L578.046,216.366L578.045,216.364L578.045,216.363L578.043,216.359L578.042,216.355L578.041,216.353L578.037,216.35L578.037,216.349L578.037,216.348L578.037,216.345L578.039,216.342L578.039,216.342L578.04,216.341L578.042,216.34L578.045,216.335L578.045,216.333L578.045,216.332L578.044,216.331L578.042,216.328L578.035,216.325L578.032,216.323L578.029,216.319L578.028,216.318L578.026,216.317L578.025,216.317L578.023,216.317L578.021,216.318L578.019,216.318L578.018,216.318L578.017,216.317L578.015,216.315L578.014,216.313L578.014,216.311L578.015,216.306L578.016,216.304L578.016,216.303L578.015,216.301L578.014,216.299L578.014,216.299L578.014,216.298L578.015,216.294L578.015,216.293L578.017,216.291L578.023,216.287L578.039,216.285L578.044,216.286L578.065,216.296L578.082,216.301L578.1,216.308L578.108,216.307L578.115,216.304L578.121,216.302L578.131,216.294L578.145,216.281L578.159,216.277L578.164,216.277L578.169,216.285L578.222,216.326L578.219,216.414L578.223,216.458L578.249,216.461L578.259,216.456L578.278,216.444L578.295,216.443L578.307,216.458L578.324,216.461L578.335,216.453L578.354,216.443L578.377,216.446L578.394,216.443L578.39,216.43L578.402,216.425L578.501,216.442L578.613,216.461L578.637,216.465L578.823,216.496L578.845,216.467L578.854,216.454L578.891,216.401L578.915,216.363L578.936,216.322L579.01,216.155L579.023,216.125L579.029,216.106L579.078,216.01L579.145,215.897L579.166,215.855L579.184,215.81L579.197,215.765L579.225,215.642L579.227,215.638L579.24,215.605L579.255,215.564L579.263,215.529L579.359,215.348L579.674,215.23L579.711,215.215L579.601,215.135L579.591,215.127L579.585,215.123L579.582,215.12L579.582,215.12L579.577,215.117L579.482,215.047L579.291,214.906L579.288,214.904L579.252,214.878L579.258,214.851L579.258,214.849L579.259,214.845L579.259,214.841L579.259,214.839L579.259,214.831L579.261,214.822L579.265,214.809L579.269,214.8L579.27,214.799L579.273,214.794L579.274,214.791L579.276,214.786L579.277,214.779L579.278,214.772L579.278,214.766L579.278,214.759L579.277,214.753L579.276,214.75L579.275,214.748L579.275,214.725L579.275,214.703L579.273,214.662L579.27,214.662L579.269,214.662L579.266,214.656L579.246,214.64L579.225,214.625L579.212,214.61L579.211,214.609L579.199,214.581L579.183,214.559L579.181,214.55L579.178,214.54L579.175,214.535L579.174,214.526L579.174,214.516L579.172,214.51L579.171,214.505L579.17,214.5L579.167,214.482L579.169,214.468L579.171,214.462L579.172,214.425L579.165,214.411L579.156,214.399L579.153,214.391L579.163,214.37L579.176,214.368L579.189,214.37L579.196,214.371L579.201,214.372L579.203,214.374L579.208,214.376L579.211,214.377L579.217,214.377L579.219,214.377L579.222,214.376L579.224,214.375L579.227,214.373L579.241,214.363L579.254,214.349L579.269,214.349L579.274,214.347L579.273,214.343L579.268,214.341L579.261,214.332L579.26,214.327L579.26,214.319L579.258,214.313L579.246,214.303L579.233,214.301L579.223,214.298L579.214,214.286L579.206,214.275L579.199,214.272L579.171,214.29L579.164,214.295L579.149,214.305L579.133,214.304L579.108,214.292L579.092,214.296L579.082,214.296L579.079,214.296L579.066,214.289L579.061,214.289L579.055,214.288L579.039,214.285L579.018,214.284L579.002,214.282L579.001,214.279L579.001,214.278L579.002,214.275L579.002,214.269L579.002,214.267L579.002,214.261L578.997,214.257L578.994,214.256L578.989,214.256L578.983,214.254L578.976,214.255L578.975,214.254L578.972,214.254L578.963,214.254L578.958,214.256L578.956,214.256L578.949,214.255L578.933,214.253L578.927,214.253L578.923,214.253L578.917,214.252L578.909,214.251L578.904,214.251L578.9,214.25L578.896,214.249L578.885,214.246L578.878,214.243L578.854,214.236L578.839,214.231L578.827,214.23L578.824,214.239L578.822,214.248L578.821,214.26L578.822,214.264L578.823,214.27L578.817,214.282L578.807,214.301L578.785,214.297L578.758,214.309L578.738,214.319L578.717,214.336L578.703,214.348L578.697,214.352L578.687,214.37L578.664,214.371L578.639,214.382L578.617,214.384L578.608,214.385L578.604,214.386L578.588,214.39L578.564,214.39L578.511,214.386L578.492,214.384L578.48,214.384L578.474,214.385L578.467,214.385L578.461,214.384L578.434,214.382L578.396,214.379L578.337,214.374L578.321,214.372L578.282,214.368L578.268,214.39L578.248,214.422L578.211,214.434L578.182,214.443L578.182,214.444L578.128,214.462L578.094,214.482L578.091,214.487L578.023,214.496L577.949,214.468L577.937,214.418L577.916,214.377L577.892,214.378L577.861,214.378L577.857,214.379L577.821,214.379L577.806,214.367L577.813,214.333L577.823,214.298L577.777,214.281L577.731,214.266L577.685,214.25L577.585,214.217L577.552,214.204L577.498,214.186L577.463,214.174L577.488,214.139L577.513,214.104L577.56,214.038L577.566,214.022L577.578,213.966L577.583,213.941L577.548,213.934L577.453,213.916L577.408,213.908L577.353,213.898L577.335,213.876L577.3,213.834L577.28,213.81L577.235,213.756L577.221,213.739L577.194,213.706L577.171,213.678L577.159,213.662L577.168,213.621L577.177,213.579L577.184,213.546L577.233,213.545L577.305,213.543L577.425,213.54L577.423,213.445L577.423,213.394L577.422,213.357L577.421,213.31L577.421,213.286L577.42,213.265L577.42,213.234L577.419,213.158L577.418,213.121L577.418,213.078L577.418,213.074L577.417,213.035L577.416,213.03L577.417,213.025L577.432,212.984L577.432,212.982L577.44,212.957L577.449,212.934L577.458,212.907L577.464,212.891L577.476,212.855L577.488,212.822L577.502,212.781L577.473,212.769L577.434,212.754L577.372,212.728L577.342,212.716L577.338,212.702L577.337,212.696L577.337,212.693L577.335,212.686L577.356,212.669L577.375,212.654L577.407,212.629L577.445,212.601L577.471,212.58L577.508,212.552L577.557,212.58L577.601,212.604L577.651,212.544L577.67,212.52L577.704,212.478L577.712,212.468L577.741,212.433L577.744,212.429L577.748,212.423L577.76,212.409L577.772,212.395L577.779,212.394L577.802,212.391L577.822,212.389L577.848,212.386L577.867,212.384L577.913,212.378L577.958,212.373L578.01,212.367L578.024,212.365L578.068,212.36L578.108,212.356L578.196,212.37L578.217,212.374L578.238,212.378L578.262,212.382L578.274,212.384L578.271,212.357L578.269,212.344L578.267,212.322L578.264,212.301L578.261,212.279L578.259,212.258L578.256,212.236L578.253,212.214L578.251,212.193L578.239,212.175L578.229,212.159L578.218,212.141L578.199,212.111L578.11,211.962L578.179,211.856L578.262,211.729L578.275,211.446L578.298,211.343L578.289,211.299L578.27,211.099L578.166,211.067L578.028,211.055L577.964,210.903L577.899,210.855L577.888,210.826L577.888,210.824L577.885,210.817L577.878,210.801L577.868,210.778L577.86,210.758L577.852,210.738L577.85,210.733L577.824,210.675L577.794,210.602L577.765,210.536L577.741,210.478L577.736,210.466L577.726,210.442L577.717,210.42L577.707,210.397L577.705,210.393L577.701,210.382L577.683,210.339L577.669,210.304L577.615,210.177L577.583,210.1L577.571,210.072L577.56,210.046L577.561,210.045L577.566,210.041L577.59,210.021L577.614,209.999L577.657,209.962L577.681,209.941L577.7,209.924L577.714,209.912L577.734,209.894L577.748,209.882L577.781,209.853L577.782,209.853L577.806,209.838L577.837,209.819L577.863,209.804L577.885,209.793L577.908,209.779L577.925,209.77L577.944,209.76L577.979,209.743L577.99,209.739L578.003,209.734L578.017,209.728L578.041,209.72L578.056,209.716L578.07,209.711L578.085,209.703L578.099,209.698L578.122,209.691L578.122,209.687L578.039,209.63L577.995,209.6L577.962,209.574L577.948,209.557L577.935,209.542L577.923,209.542L577.922,209.543L577.92,209.543L577.919,209.545L577.914,209.545L577.911,209.544L577.907,209.544L577.902,209.544L577.899,209.542L577.897,209.543L577.895,209.541L577.892,209.541L577.888,209.542L577.873,209.542L577.861,209.538L577.857,209.539L577.856,209.542L577.847,209.545L577.844,209.543L577.839,209.543L577.838,209.55L577.84,209.556L577.809,209.557L577.752,209.605L577.72,209.634L577.695,209.658L577.61,209.737L577.578,209.766L577.573,209.771L577.564,209.789L577.515,209.838L577.496,209.857L577.466,209.887L577.385,209.968L577.331,210.022L577.3,210.019L577.25,210.015L577.212,210.012L577.167,210.012L577.112,210.003L577.073,209.973L577.038,209.946L576.998,209.916L576.961,209.887L576.923,209.858L576.888,209.831L576.862,209.811L576.825,209.782L576.779,209.739L576.68,209.648L576.616,209.56L576.536,209.451L576.519,209.365L576.509,209.318L576.5,209.272L576.455,209.268L576.424,209.266L576.402,209.264L576.401,209.262L576.332,209.094L576.307,209.03L576.26,209.006L576.234,208.991L576.233,208.988L576.203,208.815L576.197,208.78L576.195,208.771L576.19,208.74L576.201,208.712L576.254,208.585L576.261,208.565L576.249,208.555L576.164,208.488L576.142,208.495L576.121,208.502L576.094,208.511L576.044,208.526L576.018,208.533L575.991,208.539L575.953,208.563L575.917,208.584L575.881,208.55L575.788,208.463L575.684,208.368L575.632,208.32L575.562,208.315L575.535,208.313L575.443,208.306L575.425,208.244L575.398,208.157L575.368,208.147L575.334,208.136L575.306,208.125L575.278,208.115L575.243,208.1L575.279,208.014L575.142,207.964L575.093,207.947L574.935,207.892L574.927,207.904L574.858,208.005L574.859,208.009L574.85,208.021L574.868,208.048L574.888,208.075L574.896,208.083L574.887,208.098L574.884,208.101L574.874,208.116L574.867,208.127L574.866,208.13L574.865,208.132L574.863,208.134L574.86,208.138L574.857,208.141L574.858,208.145L574.859,208.159L574.864,208.187L574.864,208.19L574.872,208.238L574.873,208.246L574.873,208.249L574.876,208.269L574.789,208.343L574.7,208.426L574.698,208.424L574.683,208.442L574.438,208.353L574.438,208.424L574.414,208.434L574.339,208.436L574.32,208.433L574.3,208.442L574.235,208.443L574.235,208.43L574.237,208.247L574.24,208.161L574.24,208.141L574.24,208.099L574.174,208.107L574.165,208.095L574.144,208.076L574.137,208.07L574.13,208.065L574.099,208.057L574.06,208.054L574.062,207.995L574.018,207.99L573.971,207.985L573.969,207.943L573.957,207.947L573.877,207.972L573.879,208.017L573.88,208.036L573.878,208.086L573.877,208.129L573.877,208.138L573.877,208.153L573.877,208.154L573.877,208.189L573.877,208.193L573.877,208.194L573.876,208.216L573.876,208.254L573.876,208.325L573.875,208.466L573.904,208.464L573.919,208.463L573.96,208.46ZM577.839,214.53L577.855,214.529L577.889,214.526L577.907,214.528L577.931,214.531L577.952,214.533L577.953,214.558L577.954,214.583L577.983,214.586L577.993,214.586L578.037,214.59L578.067,214.591L578.137,214.595L578.141,214.595L578.128,214.642L578.121,214.663L578.114,214.688L578.092,214.769L578.047,214.77L578.035,214.76L578.004,214.733L577.984,214.712L577.972,214.711L577.947,214.707L577.92,214.703L577.915,214.702L577.896,214.699L577.873,214.701L577.856,214.703L577.832,214.706L577.815,214.705L577.808,214.705L577.774,214.705L577.752,214.701L577.731,214.698L577.729,214.705L577.709,214.797L577.67,214.807L577.629,214.818L577.629,214.786L577.588,214.785L577.572,214.784L577.544,214.782L577.507,214.778L577.493,214.776L577.471,214.773L577.428,214.767L577.407,214.764L577.411,214.75L577.419,214.723L577.424,214.709L577.429,214.692L577.451,214.688L577.49,214.682L577.508,214.679L577.561,214.67L577.588,214.666L577.597,214.664L577.639,214.657L577.657,214.654L577.686,214.65L577.701,214.647L577.717,214.645L577.744,214.64L577.749,214.618L577.759,214.573L577.767,214.539L577.809,214.534ZM800,0L800,12.246L800,78.668L800,145.789L800,215.835L800,261.497L800,300L800,338.503L800,384.165L800,454.211L800,600L800,600L200,600L200,600L200,454.211L200,384.165L200,338.503L200,300L200,261.497L200,215.835L200,145.789L200,78.668L200,12.246L200,0L200,0L800,0Z"/>
<path d="M573.782,212.718m0,4.5a4.5,4.5 0 1,1 0,-9a4.5,4.5 0 1,1 0,9z"/>
<path d="M575.415,211.276m0,4.5a4.5,4.5 0 1,1 0,-9a4.5,4.5 0 1,1 0,9z"/>
</svg>