<?xml version="1.0" encoding="UTF-8"?>
<svg xmlns="http://www.w3.org/2000/svg" viewBox="0 0 1000 600" stroke="#000" stroke-width="0.3" fill="#ccc">
<path d="M556.379,216.842L556.377,216.84L556.376,216.839L556.375,216.838L556.374,216.837L556.373,216.835L556.372,216.834L556.371,216.833L556.37,216.832L556.369,216.831L556.368,216.83L556.366,216.829L556.365,216.828L556.363,216.828L556.362,216.828L556.361,216.828L556.359,216.828L556.357,216.828L556.357,216.828L556.356,216.829L556.355,216.831L556.353,216.834L556.353,216.835L556.353,216.836L556.352,216.836L556.351,216.836L556.351,216.835L556.35,216.834L556.35,216.833L556.35,216.831L556.349,216.83L556.349,216.828L556.349,216.828L556.347,216.828L556.346,216.829L556.345,216.829L556.345,216.829L556.345,216.83L556.345,216.832L556.345,216.832L556.344,216.832L556.343,216.832L556.342,216.832L556.342,216.831L556.342,216.831L556.341,216.83L556.341,216.829L556.341,216.828L556.34,216.827L556.338,216.824L556.337,216.822L556.336,216.82L556.335,216.82L556.335,216.819L556.334,216.818L556.334,216.818L556.333,216.818L556.332,216.817L556.331,216.818L556.33,216.818L556.329,216.819L556.328,216.819L556.327,216.82L556.325,216.821L556.325,216.82L556.324,216.818L556.323,216.818L556.323,216.817L556.323,216.816L556.322,216.815L556.321,216.814L556.321,216.813L556.32,216.812L556.32,216.812L556.32,216.811L556.32,216.81L556.319,216.81L556.318,216.81L556.317,216.81L556.316,216.809L556.315,216.809L556.314,216.809L556.312,216.808L556.312,216.808L556.312,216.805L556.312,216.803L556.311,216.801L556.311,216.799L556.309,216.797L556.307,216.793L556.306,216.79L556.305,216.787L556.304,216.785L556.303,216.781L556.303,216.779L556.303,216.777L556.302,216.775L556.303,216.772L556.303,216.77L556.303,216.769L556.305,216.767L556.305,216.764L556.305,216.761L556.304,216.758L556.304,216.756L556.304,216.753L556.303,216.752L556.302,216.748L556.301,216.746L556.3,216.744L556.299,216.744L556.298,216.745L556.295,216.746L556.291,216.747L556.29,216.747L556.286,216.749L556.283,216.75L556.282,216.75L556.28,216.751L556.277,216.753L556.275,216.753L556.274,216.753L556.271,216.753L556.27,216.754L556.269,216.754L556.267,216.754L556.264,216.755L556.26,216.754L556.259,216.754L556.257,216.754L556.255,216.755L556.253,216.755L556.249,216.756L556.247,216.757L556.243,216.759L556.241,216.76L556.238,216.761L556.237,216.762L556.235,216.764L556.232,216.766L556.23,216.768L556.228,216.771L556.226,216.772L556.225,216.771L556.222,216.769L556.214,216.764L556.214,216.761L556.212,216.755L556.21,216.752L556.209,216.749L556.207,216.748L556.207,216.746L556.205,216.743L556.205,216.742L556.204,216.742L556.204,216.741L556.203,216.74L556.202,216.739L556.201,216.738L556.201,216.736L556.2,216.735L556.199,216.734L556.198,216.733L556.198,216.732L556.197,216.731L556.195,216.728L556.194,216.727L556.194,216.726L556.194,216.723L556.195,216.721L556.195,216.72L556.196,216.719L556.196,216.718L556.196,216.716L556.197,216.715L556.197,216.714L556.198,216.713L556.198,216.711L556.199,216.71L556.201,216.705L556.203,216.701L556.203,216.7L556.201,216.699L556.201,216.698L556.2,216.698L556.199,216.698L556.197,216.697L556.196,216.697L556.195,216.697L556.195,216.696L556.195,216.694L556.195,216.692L556.196,216.691L556.196,216.688L556.196,216.687L556.197,216.686L556.199,216.686L556.201,216.686L556.202,216.685L556.204,216.684L556.205,216.684L556.206,216.684L556.207,216.682L556.209,216.681L556.21,216.679L556.211,216.677L556.212,216.676L556.212,216.674L556.213,216.672L556.214,216.67L556.214,216.668L556.215,216.666L556.217,216.664L556.218,216.663L556.22,216.661L556.222,216.659L556.223,216.657L556.226,216.655L556.228,216.653L556.232,216.649L556.235,216.646L556.238,216.643L556.242,216.638L556.245,216.636L556.248,216.633L556.25,216.629L556.253,216.625L556.255,216.622L556.254,216.614L556.255,216.611L556.255,216.61L556.255,216.608L556.256,216.606L556.256,216.602L556.256,216.601L556.257,216.601L556.258,216.598L556.26,216.597L556.262,216.596L556.265,216.593L556.266,216.591L556.27,216.588L556.274,216.585L556.276,216.583L556.279,216.582L556.28,216.581L556.281,216.578L556.283,216.577L556.284,216.575L556.286,216.573L556.289,216.57L556.293,216.565L556.295,216.563L556.293,216.562L556.292,216.56L556.291,216.559L556.289,216.557L556.282,216.549L556.28,216.547L556.279,216.545L556.275,216.546L556.276,216.545L556.274,216.543L556.273,216.542L556.269,216.538L556.268,216.537L556.267,216.539L556.265,216.539L556.261,216.541L556.258,216.542L556.255,216.542L556.253,216.543L556.252,216.542L556.249,216.54L556.246,216.539L556.244,216.538L556.242,216.536L556.237,216.533L556.233,216.53L556.23,216.527L556.227,216.525L556.225,216.523L556.223,216.519L556.221,216.517L556.219,216.513L556.217,216.51L556.214,216.506L556.213,216.504L556.211,216.501L556.21,216.502L556.207,216.502L556.201,216.503L556.197,216.503L556.193,216.503L556.191,216.527L556.185,216.528L556.175,216.529L556.175,216.52L556.176,216.519L556.178,216.519L556.179,216.517L556.179,216.515L556.178,216.514L556.173,216.511L556.171,216.509L556.17,216.507L556.168,216.506L556.165,216.506L556.163,216.506L556.161,216.506L556.159,216.507L556.158,216.508L556.154,216.509L556.15,216.511L556.144,216.512L556.14,216.513L556.137,216.514L556.13,216.515L556.126,216.516L556.122,216.517L556.118,216.517L556.117,216.517L556.115,216.516L556.113,216.515L556.11,216.514L556.107,216.512L556.104,216.51L556.102,216.509L556.099,216.507L556.098,216.507L556.094,216.507L556.089,216.508L556.082,216.508L556.079,216.509L556.073,216.509L556.069,216.51L556.062,216.51L556.058,216.51L556.056,216.51L556.051,216.51L556.047,216.51L556.042,216.51L556.038,216.51L556.035,216.51L556.027,216.512L556.026,216.499L556.026,216.49L556.025,216.489L556.025,216.476L556.024,216.472L556.024,216.47L556.019,216.471L556.019,216.47L556.018,216.466L556.018,216.466L556.018,216.463L556.018,216.463L556.018,216.463L556.018,216.463L556.018,216.463L556.018,216.462L556.018,216.461L556.018,216.46L556.018,216.457L556.018,216.454L556.018,216.453L556.018,216.452L556.018,216.452L556.019,216.45L556.02,216.45L556.02,216.449L556.022,216.449L556.022,216.448L556.023,216.448L556.023,216.448L556.024,216.448L556.025,216.448L556.025,216.448L556.024,216.448L556.024,216.448L556.024,216.447L556.023,216.443L556.023,216.438L556.023,216.434L556.022,216.43L556.023,216.426L556.023,216.424L556.024,216.423L556.03,216.423L556.039,216.421L556.045,216.42L556.051,216.419L556.054,216.418L556.059,216.416L556.066,216.412L556.075,216.408L556.08,216.405L556.091,216.4L556.098,216.396L556.103,216.394L556.111,216.39L556.117,216.387L556.125,216.383L556.13,216.38L556.134,216.378L556.137,216.376L556.138,216.375L556.138,216.374L556.137,216.372L556.136,216.367L556.135,216.362L556.134,216.36L556.133,216.355L556.131,216.35L556.131,216.345L556.13,216.343L556.129,216.34L556.129,216.339L556.129,216.338L556.12,216.33L556.116,216.325L556.112,216.321L556.11,216.32L556.107,216.318L556.104,216.317L556.098,216.314L556.092,216.312L556.086,216.31L556.08,216.308L556.071,216.304L556.065,216.302L556.062,216.301L556.056,216.299L556.047,216.295L556.044,216.294L556.038,216.292L556.035,216.29L556.028,216.288L556.026,216.287L556.023,216.286L556.019,216.285L556.019,216.285L556.014,216.283L556.011,216.282L556.01,216.282L556.01,216.282L556.01,216.282L556.007,216.281L556.005,216.281L555.997,216.282L555.991,216.284L555.981,216.286L555.978,216.287L555.977,216.286L555.972,216.28L555.967,216.273L555.964,216.266L555.963,216.264L555.961,216.26L555.96,216.257L555.956,216.25L555.953,216.244L555.952,216.238L555.95,216.233L555.949,216.23L555.947,216.226L555.947,216.224L555.946,216.22L555.946,216.219L555.945,216.216L555.945,216.216L555.945,216.215L555.943,216.214L555.94,216.212L555.938,216.211L555.937,216.209L555.936,216.208L555.935,216.208L555.934,216.209L555.932,216.21L555.929,216.211L555.928,216.212L555.927,216.212L555.926,216.211L555.925,216.211L555.924,216.211L555.708,216.093L555.492,215.975L555.491,215.976L555.476,216.006L555.462,216.036L555.451,216.067L555.441,216.099L555.434,216.131L555.432,216.147L555.428,216.158L555.419,216.19L555.411,216.222L555.407,216.255L555.404,216.288L555.404,216.321L555.406,216.355L555.41,216.388L555.41,216.392L555.404,216.395L555.376,216.412L555.348,216.431L555.323,216.451L555.298,216.474L555.275,216.498L555.254,216.523L555.234,216.55L555.217,216.578L555.201,216.608L555.188,216.638L555.176,216.669L555.167,216.701L555.16,216.733L555.155,216.766L555.152,216.799L555.152,216.832L555.154,216.866L555.158,216.898L555.164,216.931L555.173,216.963L555.184,216.994L555.197,217.025L555.212,217.055L555.229,217.083L555.247,217.111L555.268,217.137L555.291,217.161L555.315,217.184L555.34,217.205L555.348,217.211L555.349,217.214L555.364,217.243L555.381,217.272L555.4,217.299L555.42,217.325L555.443,217.35L555.467,217.373L555.492,217.394L555.519,217.413L555.547,217.431L555.577,217.446L555.607,217.46L555.638,217.471L555.67,217.481L555.701,217.487L555.72,217.509L555.744,217.532L555.77,217.553L555.797,217.572L555.825,217.59L555.854,217.606L555.884,217.619L555.915,217.631L555.942,217.638L555.942,217.638L555.97,217.656L555.999,217.671L556.03,217.685L556.061,217.696L556.093,217.706L556.094,217.706L556.098,217.708L556.129,217.719L556.161,217.728L556.215,217.5L556.27,217.267L556.271,217.265L556.274,217.262L556.277,217.26L556.279,217.259L556.281,217.259L556.282,217.258L556.283,217.258L556.286,217.258L556.288,217.257L556.291,217.257L556.295,217.256L556.296,217.255L556.299,217.254L556.303,217.252L556.306,217.251L556.308,217.25L556.309,217.249L556.31,217.248L556.31,217.247L556.31,217.246L556.308,217.243L556.307,217.235L556.304,217.231L556.303,217.229L556.308,217.228L556.309,217.228L556.311,217.228L556.318,217.228L556.32,217.229L556.323,217.229L556.325,217.232L556.327,217.232L556.328,217.232L556.33,217.232L556.331,217.232L556.334,217.231L556.339,217.229L556.341,217.227L556.343,217.227L556.345,217.226L556.345,217.225L556.346,217.225L556.348,217.224L556.35,217.223L556.353,217.222L556.355,217.22L556.357,217.219L556.361,217.217L556.368,217.216L556.374,217.215L556.382,217.221L556.386,217.219L556.389,217.217L556.391,217.215L556.395,217.212L556.396,217.212L556.399,217.21L556.401,217.209L556.403,217.207L556.407,217.204L556.412,217.202L556.413,217.202L556.416,217.201L556.418,217.2L556.423,217.199L556.424,217.199L556.425,217.198L556.427,217.197L556.429,217.196L556.43,217.196L556.432,217.195L556.435,217.196L556.437,217.196L556.443,217.196L556.447,217.197L556.451,217.198L556.454,217.197L556.456,217.197L556.459,217.197L556.463,217.196L556.465,217.194L556.465,217.194L556.471,217.193L556.477,217.194L556.482,217.194L556.485,217.193L556.487,217.193L556.49,217.192L556.494,217.192L556.497,217.192L556.498,217.193L556.5,217.194L556.504,217.197L556.507,217.198L556.511,217.198L556.516,217.198L556.521,217.197L556.525,217.196L556.529,217.196L556.534,217.195L556.537,217.195L556.542,217.193L556.544,217.192L556.543,217.191L556.542,217.19L556.541,217.188L556.54,217.186L556.539,217.184L556.538,217.182L556.536,217.176L556.535,217.174L556.535,217.173L556.534,217.172L556.533,217.17L556.533,217.168L556.532,217.168L556.531,217.166L556.531,217.165L556.53,217.162L556.53,217.162L556.529,217.16L556.528,217.158L556.527,217.156L556.526,217.154L556.526,217.153L556.525,217.151L556.524,217.149L556.523,217.147L556.523,217.145L556.522,217.145L556.52,217.141L556.52,217.139L556.519,217.137L556.519,217.136L556.518,217.134L556.517,217.132L556.517,217.131L556.516,217.13L556.516,217.129L556.515,217.128L556.514,217.126L556.513,217.123L556.513,217.122L556.512,217.121L556.512,217.12L556.511,217.119L556.51,217.117L556.509,217.113L556.508,217.111L556.507,217.109L556.506,217.108L556.506,217.107L556.505,217.106L556.505,217.105L556.505,217.104L556.504,217.103L556.503,217.102L556.502,217.099L556.501,217.097L556.501,217.096L556.5,217.096L556.5,217.095L556.499,217.093L556.499,217.092L556.499,217.091L556.498,217.09L556.498,217.088L556.498,217.088L556.497,217.087L556.497,217.086L556.497,217.086L556.496,217.085L556.496,217.083L556.496,217.082L556.495,217.08L556.495,217.079L556.493,217.077L556.493,217.075L556.492,217.074L556.491,217.073L556.49,217.072L556.489,217.071L556.49,217.069L556.49,217.069L556.49,217.067L556.492,217.066L556.492,217.065L556.493,217.064L556.494,217.063L556.495,217.062L556.496,217.061L556.496,217.061L556.496,217.059L556.495,217.058L556.494,217.057L556.492,217.055L556.49,217.055L556.488,217.054L556.484,217.053L556.482,217.052L556.481,217.052L556.48,217.051L556.48,217.051L556.479,217.05L556.478,217.05L556.478,217.049L556.477,217.049L556.477,217.048L556.475,217.047L556.474,217.046L556.473,217.044L556.471,217.043L556.471,217.042L556.47,217.041L556.469,217.04L556.468,217.039L556.466,217.036L556.465,217.035L556.464,217.034L556.463,217.033L556.462,217.032L556.461,217.031L556.46,217.03L556.46,217.029L556.457,217.027L556.456,217.026L556.454,217.022L556.452,217.019L556.451,217.018L556.45,217.016L556.448,217.014L556.448,217.013L556.446,217.01L556.446,217.009L556.445,217.008L556.445,217.006L556.445,217.005L556.445,217.003L556.446,217.002L556.447,217L556.448,216.999L556.449,216.997L556.451,216.996L556.45,216.995L556.449,216.993L556.448,216.991L556.448,216.99L556.446,216.99L556.445,216.991L556.444,216.991L556.443,216.991L556.442,216.991L556.44,216.992L556.438,216.993L556.435,216.993L556.434,216.993L556.433,216.992L556.433,216.991L556.431,216.989L556.43,216.986L556.43,216.986L556.43,216.985L556.429,216.983L556.427,216.98L556.426,216.979L556.425,216.977L556.423,216.975L556.422,216.972L556.421,216.972L556.42,216.971L556.419,216.97L556.416,216.967L556.414,216.966L556.412,216.965L556.411,216.964L556.409,216.964L556.409,216.962L556.41,216.962L556.412,216.961L556.413,216.96L556.414,216.959L556.416,216.958L556.417,216.957L556.418,216.956L556.42,216.955L556.421,216.954L556.425,216.951L556.427,216.949L556.428,216.948L556.429,216.948L556.428,216.947L556.427,216.946L556.426,216.945L556.424,216.944L556.423,216.942L556.422,216.941L556.421,216.94L556.42,216.94L556.419,216.939L556.418,216.938L556.417,216.938L556.416,216.937L556.415,216.937L556.414,216.937L556.409,216.938L556.407,216.938L556.405,216.938L556.405,216.938L556.403,216.938L556.402,216.938L556.401,216.938L556.4,216.937L556.4,216.936L556.401,216.935L556.401,216.934L556.401,216.933L556.401,216.931L556.401,216.928L556.401,216.927L556.401,216.923L556.4,216.922L556.4,216.921L556.4,216.92L556.399,216.919L556.398,216.917L556.398,216.916L556.396,216.915L556.395,216.914L556.394,216.913L556.393,216.913L556.392,216.912L556.391,216.912L556.39,216.911L556.39,216.909L556.39,216.908L556.391,216.905L556.393,216.903L556.394,216.9L556.395,216.898L556.395,216.897L556.395,216.894L556.393,216.893L556.391,216.892L556.389,216.889L556.388,216.886L556.387,216.884L556.386,216.881L556.385,216.88L556.385,216.879L556.384,216.876L556.384,216.875L556.384,216.874L556.383,216.873L556.383,216.873L556.383,216.871L556.382,216.87L556.382,216.868L556.382,216.867L556.381,216.867L556.381,216.866L556.381,216.865L556.381,216.865L556.38,216.864L556.38,216.863L556.379,216.862L556.379,216.86L556.379,216.859L556.379,216.858L556.379,216.857L556.379,216.856L556.379,216.854L556.379,216.851L556.379,216.848L556.378,216.845L556.379,216.843ZM800,0L800,12.246L800,78.668L800,145.789L800,215.835L800,261.497L800,300L800,338.503L800,384.165L800,454.211L800,600L800,600L200,600L200,600L200,454.211L200,384.165L200,338.503L200,300L200,261.497L200,215.835L200,145.789L200,78.668L200,12.246L200,0L200,0L800,0Z"/>
<path d="M556.222,216.769L556.214,216.764L556.214,216.761L556.212,216.755L556.21,216.752L556.209,216.749L556.207,216.748L556.207,216.746L556.205,216.743L556.205,216.742L556.204,216.742L556.204,216.741L556.203,216.74L556.202,216.739L556.201,216.738L556.201,216.736L556.2,216.735L556.199,216.734L556.198,216.733L556.198,216.732L556.197,216.731L556.195,216.728L556.194,216.727L556.194,216.726L556.194,216.723L556.195,216.721L556.195,216.72L556.196,216.719L556.196,216.718L556.196,216.716L556.197,216.715L556.197,216.714L556.198,216.713L556.198,216.711L556.199,216.71L556.201,216.705L556.203,216.701L556.203,216.7L556.201,216.699L556.201,216.698L556.2,216.698L556.199,216.698L556.197,216.697L556.196,216.697L556.195,216.697L556.195,216.696L556.195,216.694L556.195,216.692L556.196,216.691L556.196,216.688L556.196,216.687L556.197,216.686L556.199,216.686L556.201,216.686L556.202,216.685L556.204,216.684L556.205,216.684L556.206,216.684L556.207,216.682L556.209,216.681L556.21,216.679L556.211,216.677L556.212,216.676L556.212,216.674L556.213,216.672L556.214,216.67L556.214,216.668L556.215,216.666L556.217,216.664L556.218,216.663L556.22,216.661L556.222,216.659L556.223,216.657L556.226,216.655L556.228,216.653L556.232,216.649L556.235,216.646L556.238,216.643L556.242,216.638L556.245,216.636L556.248,216.633L556.25,216.629L556.253,216.625L556.255,216.622L556.254,216.614L556.255,216.611L556.255,216.61L556.255,216.608L556.256,216.606L556.256,216.602L556.256,216.601L556.257,216.601L556.258,216.598L556.26,216.597L556.262,216.596L556.265,216.593L556.266,216.591L556.27,216.588L556.274,216.585L556.276,216.583L556.279,216.582L556.28,216.581L556.281,216.578L556.283,216.577L556.284,216.575L556.286,216.573L556.289,216.57L556.293,216.565L556.295,216.563L556.293,216.562L556.292,216.56L556.291,216.559L556.289,216.557L556.282,216.549L556.28,216.547L556.279,216.545L556.275,216.546L556.276,216.545L556.274,216.543L556.273,216.542L556.269,216.538L556.268,216.537L556.267,216.539L556.265,216.539L556.261,216.541L556.258,216.542L556.255,216.542L556.253,216.543L556.252,216.542L556.249,216.54L556.246,216.539L556.244,216.538L556.242,216.536L556.237,216.533L556.233,216.53L556.23,216.527L556.227,216.525L556.225,216.523L556.223,216.519L556.221,216.517L556.219,216.513L556.217,216.51L556.214,216.506L556.213,216.504L556.211,216.501L556.21,216.502L556.207,216.502L556.201,216.503L556.197,216.503L556.193,216.503L556.191,216.527L556.185,216.528L556.175,216.529L556.175,216.52L556.176,216.519L556.178,216.519L556.179,216.517L556.179,216.515L556.178,216.514L556.173,216.511L556.171,216.509L556.17,216.507L556.168,216.506L556.165,216.506L556.163,216.506L556.161,216.506L556.159,216.507L556.158,216.508L556.154,216.509L556.15,216.511L556.144,216.512L556.14,216.513L556.137,216.514L556.13,216.515L556.126,216.516L556.122,216.517L556.118,216.517L556.117,216.517L556.115,216.516L556.113,216.515L556.11,216.514L556.107,216.512L556.104,216.51L556.102,216.509L556.099,216.507L556.098,216.507L556.094,216.507L556.089,216.508L556.082,216.508L556.079,216.509L556.073,216.509L556.069,216.51L556.062,216.51L556.058,216.51L556.056,216.51L556.051,216.51L556.047,216.51L556.042,216.51L556.038,216.51L556.035,216.51L556.027,216.512L556.026,216.499L556.026,216.49L556.025,216.489L556.025,216.476L556.024,216.472L556.024,216.47L556.019,216.471L556.019,216.47L556.018,216.466L556.018,216.466L556.018,216.463L556.018,216.463L556.018,216.463L556.018,216.463L556.018,216.463L556.018,216.462L556.018,216.461L556.018,216.46L556.018,216.457L556.018,216.454L556.018,216.453L556.018,216.452L556.018,216.452L556.019,216.45L556.02,216.45L556.02,216.449L556.022,216.449L556.022,216.448L556.023,216.448L556.023,216.448L556.024,216.448L556.025,216.448L556.025,216.448L556.024,216.448L556.024,216.448L556.024,216.447L556.023,216.443L556.023,216.438L556.023,216.434L556.022,216.43L556.023,216.426L556.023,216.424L556.024,216.423L556.03,216.423L556.039,216.421L556.045,216.42L556.051,216.419L556.054,216.418L556.059,216.416L556.066,216.412L556.075,216.408L556.08,216.405L556.091,216.4L556.098,216.396L556.103,216.394L556.111,216.39L556.117,216.387L556.125,216.383L556.13,216.38L556.134,216.378L556.137,216.376L556.138,216.375L556.138,216.374L556.137,216.372L556.136,216.367L556.135,216.362L556.134,216.36L556.133,216.355L556.131,216.35L556.131,216.345L556.13,216.343L556.129,216.34L556.129,216.339L556.129,216.338L556.12,216.33L556.116,216.325L556.112,216.321L556.11,216.32L556.107,216.318L556.104,216.317L556.098,216.314L556.092,216.312L556.086,216.31L556.08,216.308L556.071,216.304L556.065,216.302L556.062,216.301L556.056,216.299L556.047,216.295L556.044,216.294L556.038,216.292L556.035,216.29L556.028,216.288L556.026,216.287L556.023,216.286L556.019,216.285L556.019,216.285L556.014,216.283L556.011,216.282L556.01,216.282L556.01,216.282L556.01,216.282L556.007,216.281L556.005,216.281L555.997,216.282L555.991,216.284L555.981,216.286L555.978,216.287L555.977,216.286L555.972,216.28L555.967,216.273L555.964,216.266L555.963,216.264L555.961,216.26L555.96,216.257L555.956,216.25L555.953,216.244L555.952,216.238L555.95,216.233L555.949,216.23L555.947,216.226L555.947,216.224L555.946,216.22L555.946,216.219L555.945,216.216L555.945,216.216L555.945,216.215L555.943,216.214L555.94,216.212L555.938,216.211L555.937,216.209L555.936,216.208L555.935,216.208L555.934,216.209L555.932,216.21L555.929,216.211L555.928,216.212L555.927,216.212L555.926,216.211L555.925,216.211L555.924,216.211L555.708,216.093L555.492,215.975L555.491,215.976L555.476,216.006L555.462,216.036L555.451,216.067L555.441,216.099L555.434,216.131L555.432,216.147L555.428,216.158L555.419,216.19L555.411,216.222L555.407,216.255L555.404,216.288L555.404,216.321L555.406,216.355L555.41,216.388L555.41,216.392L555.404,216.395L555.376,216.412L555.348,216.431L555.323,216.451L555.298,216.474L555.275,216.498L555.254,216.523L555.234,216.55L555.217,216.578L555.201,216.608L555.188,216.638L555.176,216.669L555.167,216.701L555.16,216.733L555.155,216.766L555.152,216.799L555.152,216.832L555.154,216.866L555.158,216.898L555.164,216.931L555.173,216.963L555.184,216.994L555.197,217.025L555.212,217.055L555.229,217.083L555.247,217.111L555.268,217.137L555.291,217.161L555.315,217.184L555.34,217.205L555.348,217.211L555.349,217.214L555.364,217.243L555.381,217.272L555.4,217.299L555.42,217.325L555.443,217.35L555.467,217.373L555.492,217.394L555.519,217.413L555.547,217.431L555.577,217.446L555.607,217.46L555.638,217.471L555.67,217.481L555.701,217.487L555.72,217.509L555.744,217.532L555.77,217.553L555.797,217.572L555.825,217.59L555.854,217.606L555.884,217.619L555.915,217.631L555.942,217.638L555.942,217.638L555.97,217.656L555.999,217.671L556.03,217.685L556.061,217.696L556.093,217.706L556.094,217.706L556.098,217.708L556.129,217.719L556.161,217.728L556.215,217.5L556.27,217.267L556.271,217.265L556.274,217.262L556.277,217.26L556.279,217.259L556.281,217.259L556.282,217.258L556.283,217.258L556.286,217.258L556.288,217.257L556.291,217.257L556.295,217.256L556.296,217.255L556.299,217.254L556.303,217.252L556.306,217.251L556.308,217.25L556.309,217.249L556.31,217.248L556.31,217.247L556.31,217.246L556.308,217.243L556.307,217.235L556.304,217.231L556.303,217.229L556.308,217.228L556.309,217.228L556.311,217.228L556.318,217.228L556.32,217.229L556.323,217.229L556.325,217.232L556.327,217.232L556.328,217.232L556.33,217.232L556.331,217.232L556.334,217.231L556.339,217.229L556.341,217.227L556.343,217.227L556.345,217.226L556.345,217.225L556.346,217.225L556.348,217.224L556.35,217.223L556.353,217.222L556.355,217.22L556.357,217.219L556.361,217.217L556.368,217.216L556.374,217.215L556.382,217.221L556.386,217.219L556.389,217.217L556.391,217.215L556.395,217.212L556.396,217.212L556.399,217.21L556.401,217.209L556.403,217.207L556.407,217.204L556.412,217.202L556.413,217.202L556.416,217.201L556.418,217.2L556.423,217.199L556.424,217.199L556.425,217.198L556.427,217.197L556.429,217.196L556.43,217.196L556.432,217.195L556.435,217.196L556.437,217.196L556.443,217.196L556.447,217.197L556.451,217.198L556.454,217.197L556.456,217.197L556.459,217.197L556.463,217.196L556.465,217.194L556.465,217.194L556.471,217.193L556.477,217.194L556.482,217.194L556.485,217.193L556.487,217.193L556.49,217.192L556.494,217.192L556.497,217.192L556.498,217.193L556.5,217.194L556.504,217.197L556.507,217.198L556.511,217.198L556.516,217.198L556.521,217.197L556.525,217.196L556.529,217.196L556.534,217.195L556.537,217.195L556.542,217.193L556.544,217.192L556.543,217.191L556.542,217.19L556.541,217.188L556.54,217.186L556.539,217.184L556.538,217.182L556.536,217.176L556.535,217.174L556.535,217.173L556.534,217.172L556.533,217.17L556.533,217.168L556.532,217.168L556.531,217.166L556.531,217.165L556.53,217.162L556.53,217.162L556.529,217.16L556.528,217.158L556.527,217.156L556.526,217.154L556.526,217.153L556.525,217.151L556.524,217.149L556.523,217.147L556.523,217.145L556.522,217.145L556.52,217.141L556.52,217.139L556.519,217.137L556.519,217.136L556.518,217.134L556.517,217.132L556.517,217.131L556.516,217.13L556.516,217.129L556.515,217.128L556.514,217.126L556.513,217.123L556.513,217.122L556.512,217.121L556.512,217.12L556.511,217.119L556.51,217.117L556.509,217.113L556.508,217.111L556.507,217.109L556.506,217.108L556.506,217.107L556.505,217.106L556.505,217.105L556.505,217.104L556.504,217.103L556.503,217.102L556.502,217.099L556.501,217.097L556.501,217.096L556.5,217.096L556.5,217.095L556.499,217.093L556.499,217.092L556.499,217.091L556.498,217.09L556.498,217.088L556.498,217.088L556.497,217.087L556.497,217.086L556.497,217.086L556.496,217.085L556.496,217.083L556.496,217.082L556.495,217.08L556.495,217.079L556.493,217.077L556.493,217.075L556.492,217.074L556.491,217.073L556.49,217.072L556.489,217.071L556.49,217.069L556.49,217.069L556.49,217.067L556.492,217.066L556.492,217.065L556.493,217.064L556.494,217.063L556.495,217.062L556.496,217.061L556.496,217.061L556.496,217.059L556.495,217.058L556.494,217.057L556.492,217.055L556.49,217.055L556.488,217.054L556.484,217.053L556.482,217.052L556.481,217.052L556.48,217.051L556.48,217.051L556.479,217.05L556.478,217.05L556.478,217.049L556.477,217.049L556.477,217.048L556.475,217.047L556.474,217.046L556.473,217.044L556.471,217.043L556.471,217.042L556.47,217.041L556.469,217.04L556.468,217.039L556.466,217.036L556.465,217.035L556.464,217.034L556.463,217.033L556.462,217.032L556.461,217.031L556.46,217.03L556.46,217.029L556.457,217.027L556.456,217.026L556.454,217.022L556.452,217.019L556.451,217.018L556.45,217.016L556.448,217.014L556.448,217.013L556.446,217.01L556.446,217.009L556.445,217.008L556.445,217.006L556.445,217.005L556.445,217.003L556.446,217.002L556.447,217L556.448,216.999L556.449,216.997L556.451,216.996L556.45,216.995L556.449,216.993L556.448,216.991L556.448,216.99L556.446,216.99L556.445,216.991L556.444,216.991L556.443,216.991L556.442,216.991L556.44,216.992L556.438,216.993L556.435,216.993L556.434,216.993L556.433,216.992L556.433,216.991L556.431,216.989L556.43,216.986L556.43,216.986L556.43,216.985L556.429,216.983L556.427,216.98L556.426,216.979L556.425,216.977L556.423,216.975L556.422,216.972L556.421,216.972L556.42,216.971L556.419,216.97L556.416,216.967L556.414,216.966L556.412,216.965L556.411,216.964L556.409,216.964L556.409,216.962L556.41,216.962L556.412,216.961L556.413,216.96L556.414,216.959L556.416,216.958L556.417,216.957L556.418,216.956L556.42,216.955L556.421,216.954L556.425,216.951L556.427,216.949L556.428,216.948L556.429,216.948L556.428,216.947L556.427,216.946L556.426,216.945L556.424,216.944L556.423,216.942L556.422,216.941L556.421,216.94L556.42,216.94L556.419,216.939L556.418,216.938L556.417,216.938L556.416,216.937L556.415,216.937L556.414,216.937L556.409,216.938L556.407,216.938L556.405,216.938L556.405,216.938L556.403,216.938L556.402,216.938L556.401,216.938L556.4,216.937L556.4,216.936L556.401,216.935L556.401,216.934L556.401,216.933L556.401,216.931L556.401,216.928L556.401,216.927L556.401,216.923L556.4,216.922L556.4,216.921L556.4,216.92L556.399,216.919L556.398,216.917L556.398,216.916L556.396,216.915L556.395,216.914L556.394,216.913L556.393,216.913L556.392,216.912L556.391,216.912L556.39,216.911L556.39,216.909L556.39,216.908L556.391,216.905L556.393,216.903L556.394,216.9L556.395,216.898L556.395,216.897L556.395,216.894L556.393,216.893L556.391,216.892L556.389,216.889L556.388,216.886L556.387,216.884L556.386,216.881L556.385,216.88L556.385,216.879L556.384,216.876L556.384,216.875L556.384,216.874L556.383,216.873L556.383,216.873L556.383,216.871L556.382,216.87L556.382,216.868L556.382,216.867L556.381,216.867L556.381,216.866L556.381,216.865L556.381,216.865L556.38,216.864L556.38,216.863L556.379,216.862L556.379,216.86L556.379,216.859L556.379,216.858L556.379,216.857L556.379,216.856L556.379,216.854L556.379,216.851L556.379,216.848L556.378,216.845L556.379,216.843L556.379,216.842L556.377,216.84L556.376,216.839L556.375,216.838L556.374,216.837L556.373,216.835L556.372,216.834L556.371,216.833L556.37,216.832L556.369,216.831L556.368,216.83L556.366,216.829L556.365,216.828L556.363,216.828L556.362,216.828L556.361,216.828L556.359,216.828L556.357,216.828L556.357,216.828L556.356,216.829L556.355,216.831L556.353,216.834L556.353,216.835L556.353,216.836L556.352,216.836L556.351,216.836L556.351,216.835L556.35,216.834L556.35,216.833L556.35,216.831L556.349,216.83L556.349,216.828L556.349,216.828L556.347,216.828L556.346,216.829L556.345,216.829L556.345,216.829L556.345,216.83L556.345,216.832L556.345,216.832L556.344,216.832L556.343,216.832L556.342,216.832L556.342,216.831L556.342,216.831L556.341,216.83L556.341,216.829L556.341,216.828L556.34,216.827L556.338,216.824L556.337,216.822L556.336,216.82L556.335,216.82L556.335,216.819L556.334,216.818L556.334,216.818L556.333,216.818L556.332,216.817L556.331,216.818L556.33,216.818L556.329,216.819L556.328,216.819L556.327,216.82L556.325,216.821L556.325,216.82L556.324,216.818L556.323,216.818L556.323,216.817L556.323,216.816L556.322,216.815L556.321,216.814L556.321,216.813L556.32,216.812L556.32,216.812L556.32,216.811L556.32,216.81L556.319,216.81L556.318,216.81L556.317,216.81L556.316,216.809L556.315,216.809L556.314,216.809L556.312,216.808L556.312,216.808L556.312,216.805L556.312,216.803L556.311,216.801L556.311,216.799L556.309,216.797L556.307,216.793L556.306,216.79L556.305,216.787L556.304,216.785L556.303,216.781L556.303,216.779L556.303,216.777L556.302,216.775L556.303,216.772L556.303,216.77L556.303,216.769L556.305,216.767L556.305,216.764L556.305,216.761L556.304,216.758L556.304,216.756L556.304,216.753L556.303,216.752L556.302,216.748L556.301,216.746L556.3,216.744L556.299,216.744L556.298,216.745L556.295,216.746L556.291,216.747L556.29,216.747L556.286,216.749L556.283,216.75L556.282,216.75L556.28,216.751L556.277,216.753L556.275,216.753L556.274,216.753L556.271,216.753L556.27,216.754L556.269,216.754L556.267,216.754L556.264,216.755L556.26,216.754L556.259,216.754L556.257,216.754L556.255,216.755L556.253,216.755L556.249,216.756L556.247,216.757L556.243,216.759L556.241,216.76L556.238,216.761L556.237,216.762L556.235,216.764L556.232,216.766L556.23,216.768L556.228,216.771L556.226,216.772L556.225,216.771ZM800,0L800,12.246L800,78.668L800,145.789L800,215.835L800,261.497L800,300L800,338.503L800,384.165L800,454.211L800,600L800,600L200,600L200,600L200,454.211L200,384.165L200,338.503L200,300L200,261.497L200,215.835L200,145.789L200,78.668L200,12.246L200,0L200,0L800,0Z"/>
<path d="M555.87,216.762m0,4.5a4.5,4.5 0 1,1 0,-9a4.5,4.5 0 1,1 0,9z"/>
</svg>