<?xml version="1.0" encoding="UTF-8"?>
<svg xmlns="http://www.w3.org/2000/svg" viewBox="0 0 1000 600" stroke="#000" stroke-width="0.3" fill="#ccc">
<path d="M558.162,177.365L558.134,177.401L558.143,177.454L558.091,177.507L558.114,177.554L558.126,177.557L558.273,177.613L558.27,177.656L558.254,177.672L558.27,177.691L558.303,177.697L558.33,177.718L558.337,177.698L558.354,177.681L558.396,177.673L558.417,177.687L558.412,177.741L558.369,177.745L558.351,177.736L558.34,177.745L558.341,177.758L558.346,177.761L558.367,177.766L558.39,177.763L558.397,177.771L558.401,177.77L558.403,177.765L558.404,177.761L558.406,177.759L558.408,177.759L558.41,177.764L558.413,177.764L558.427,177.763L558.432,177.767L558.452,177.76L558.464,177.749L558.48,177.734L558.489,177.732L558.499,177.721L558.497,177.709L558.518,177.692L558.529,177.7L558.544,177.682L558.549,177.683L558.59,177.687L558.591,177.705L558.631,177.689L558.642,177.707L558.628,177.721L558.636,177.74L558.633,177.755L558.642,177.769L558.665,177.777L558.665,177.781L558.666,177.785L558.666,177.786L558.665,177.788L558.663,177.791L558.662,177.794L558.661,177.797L558.659,177.801L558.658,177.803L558.657,177.806L558.655,177.809L558.654,177.81L558.652,177.81L558.65,177.811L558.645,177.812L558.644,177.815L558.643,177.819L558.643,177.822L558.643,177.823L558.642,177.824L558.64,177.824L558.64,177.826L558.642,177.828L558.642,177.828L558.643,177.83L558.642,177.831L558.641,177.831L558.639,177.83L558.637,177.83L558.635,177.829L558.634,177.829L558.633,177.831L558.632,177.832L558.63,177.834L558.63,177.834L558.629,177.835L558.628,177.834L558.628,177.833L558.629,177.832L558.629,177.83L558.631,177.829L558.631,177.829L558.628,177.826L558.626,177.824L558.625,177.825L558.624,177.826L558.623,177.828L558.621,177.831L558.62,177.831L558.619,177.83L558.619,177.83L558.619,177.828L558.618,177.826L558.617,177.825L558.614,177.823L558.611,177.823L558.609,177.823L558.607,177.822L558.605,177.821L558.602,177.823L558.605,177.83L558.596,177.844L558.593,177.852L558.587,177.855L558.582,177.865L558.577,177.873L558.572,177.887L558.564,177.894L558.558,177.915L558.558,177.938L558.553,177.949L558.558,177.966L558.566,177.992L558.565,178.001L558.572,178.011L558.55,178.08L558.547,178.12L558.557,178.124L558.562,178.119L558.579,178.116L558.588,178.12L558.595,178.112L558.614,178.104L558.625,178.116L558.683,178.075L558.711,178.073L558.704,178.094L558.743,178.119L558.725,178.141L558.711,178.143L558.712,178.153L558.707,178.155L558.71,178.181L558.707,178.197L558.711,178.202L558.73,178.177L558.756,178.193L558.756,178.208L558.75,178.209L558.749,178.214L558.745,178.216L558.745,178.231L558.798,178.213L558.811,178.225L558.801,178.241L558.815,178.274L558.829,178.258L558.82,178.244L558.831,178.231L558.817,178.199L558.828,178.189L558.822,178.182L558.831,178.175L558.833,178.17L558.862,178.17L558.862,178.154L558.882,178.138L558.885,178.148L558.892,178.146L558.904,178.123L558.903,178.115L558.918,178.102L558.925,178.102L558.944,178.081L558.935,178.072L558.942,178.056L558.941,178.045L558.922,178.037L558.922,178.044L558.905,178.044L558.908,178.033L558.914,178.027L558.915,178.032L558.931,178.032L558.934,178.018L558.958,178.031L558.967,178.03L558.979,178.037L558.997,178.03L559,178.024L559.011,178.023L559.016,178.01L559.063,178.016L559.078,178.004L559.078,177.999L559.102,177.972L559.115,178.013L559.153,178.029L559.163,178.037L559.165,178.047L559.175,178.044L559.178,178.036L559.172,178.026L559.192,178.013L559.192,178.025L559.254,178.017L559.262,178.078L559.293,178.075L559.299,178.136L559.544,178.111L559.543,178.102L559.527,178.105L559.52,178.099L559.537,178.062L559.54,178.044L559.527,178.043L559.519,178.046L559.512,178.046L559.517,178.035L559.522,178.034L559.527,178.032L559.534,178.034L559.556,178.035L559.572,178.044L559.594,178.033L559.615,178.061L559.627,178.062L559.626,178.073L559.659,178.082L559.676,178.107L559.715,178.128L559.707,178.147L559.685,178.14L559.661,178.129L559.651,178.1L559.631,178.087L559.628,178.099L559.599,178.106L559.575,178.098L559.584,178.228L559.597,178.24L559.604,178.254L559.616,178.259L559.626,178.259L559.631,178.27L559.626,178.28L559.627,178.293L559.637,178.304L559.639,178.318L559.649,178.32L559.66,178.317L559.666,178.316L559.675,178.324L559.701,178.319L559.713,178.318L559.725,178.312L559.734,178.314L559.737,178.321L559.738,178.322L559.747,178.331L559.75,178.334L559.758,178.341L559.764,178.346L559.792,178.343L559.798,178.331L559.81,178.328L559.833,178.313L559.859,178.317L559.876,178.337L559.91,178.335L559.956,178.332L559.963,178.346L559.963,178.361L559.961,178.361L559.959,178.362L559.956,178.363L559.955,178.364L559.953,178.367L559.95,178.37L559.948,178.373L559.945,178.376L559.942,178.378L559.94,178.378L559.933,178.38L559.929,178.38L559.925,178.38L559.92,178.379L559.916,178.379L559.909,178.379L559.906,178.379L559.903,178.378L559.881,178.369L559.866,178.364L559.861,178.364L559.871,178.381L559.899,178.383L559.91,178.394L559.908,178.409L559.937,178.401L559.945,178.383L559.993,178.378L559.998,178.391L559.966,178.395L559.952,178.418L559.988,178.427L559.992,178.477L560.007,178.479L560.018,178.481L560.033,178.399L560.056,178.41L560.075,178.443L560.095,178.455L560.116,178.458L560.11,178.42L560.185,178.418L560.178,178.438L560.182,178.446L560.182,178.456L560.185,178.463L560.193,178.473L560.194,178.479L560.198,178.492L560.197,178.501L560.196,178.508L560.199,178.527L560.203,178.551L560.204,178.566L560.194,178.574L560.204,178.585L560.207,178.598L560.212,178.606L560.211,178.618L560.221,178.624L560.223,178.643L560.242,178.675L560.248,178.693L560.256,178.706L560.252,178.715L560.227,178.72L560.213,178.734L560.25,178.769L560.267,178.754L560.332,178.751L560.334,178.777L560.354,178.792L560.366,178.786L560.382,178.81L560.374,178.82L560.375,178.862L560.381,178.867L560.372,178.888L560.367,178.892L560.354,178.912L560.354,178.928L560.354,178.94L560.347,178.947L560.344,178.957L560.317,178.981L560.333,178.996L560.327,179.013L560.333,179.017L560.327,179.027L560.323,179.023L560.313,179.027L560.297,179.005L560.289,179.017L560.297,179.026L560.299,179.041L560.306,179.041L560.315,179.054L560.295,179.062L560.303,179.093L560.331,179.103L560.348,179.1L560.364,179.11L560.365,179.123L560.374,179.123L560.386,179.123L560.385,179.112L560.39,179.1L560.394,179.086L560.398,179.083L560.406,179.062L560.421,179.069L560.442,179.064L560.455,179.069L560.469,179.08L560.48,179.081L560.486,179.088L560.497,179.109L560.503,179.111L560.504,179.112L560.534,179.153L560.547,179.162L560.551,179.185L560.566,179.184L560.568,179.186L560.583,179.203L560.6,179.196L560.587,179.161L560.604,179.145L560.602,179.132L560.607,179.121L560.634,179.103L560.636,179.091L560.654,179.091L560.653,179.083L560.64,179.081L560.641,179.073L560.652,179.069L560.678,179.072L560.683,179.079L560.689,179.087L560.714,179.087L560.724,179.093L560.739,179.07L560.754,179.078L560.758,179.06L560.759,179.043L560.774,179.038L560.797,179.046L560.795,179.069L560.837,179.08L560.838,179.081L560.854,179.056L560.867,179.05L560.871,179.007L560.871,178.99L560.895,178.965L560.901,178.937L560.906,178.94L560.906,178.908L560.901,178.902L560.885,178.898L560.865,178.896L560.855,178.894L560.851,178.891L560.845,178.885L560.846,178.873L560.854,178.861L560.866,178.851L560.875,178.842L560.88,178.824L560.884,178.809L560.899,178.799L560.911,178.807L560.918,178.811L560.933,178.809L560.941,178.803L560.944,178.801L560.946,178.8L560.951,178.802L560.954,178.803L560.955,178.8L560.958,178.808L560.959,178.806L560.964,178.807L560.965,178.813L560.966,178.814L560.975,178.807L560.973,178.803L560.979,178.802L560.98,178.797L560.983,178.795L560.979,178.795L560.979,178.791L560.982,178.788L560.984,178.785L560.986,178.784L560.988,178.783L560.985,178.782L560.985,178.781L560.989,178.777L560.985,178.776L560.991,178.772L560.992,178.766L560.986,178.766L560.986,178.761L560.974,178.748L560.979,178.74L560.978,178.725L560.986,178.729L561.007,178.738L561.011,178.737L561.051,178.749L561.047,178.745L561.052,178.726L561.054,178.7L561.064,178.675L561.05,178.649L561.065,178.593L561.067,178.586L561.067,178.583L561.077,178.58L561.08,178.571L561.081,178.57L561.082,178.548L561.088,178.531L561.091,178.517L561.094,178.509L561.101,178.502L561.106,178.496L561.106,178.487L561.106,178.485L561.121,178.489L561.132,178.505L561.146,178.508L561.15,178.486L561.143,178.46L561.167,178.443L561.179,178.451L561.203,178.441L561.226,178.456L561.238,178.439L561.27,178.448L561.278,178.438L561.285,178.435L561.297,178.426L561.31,178.415L561.315,178.416L561.319,178.417L561.321,178.417L561.331,178.408L561.336,178.412L561.34,178.419L561.346,178.419L561.351,178.413L561.349,178.376L561.349,178.375L561.353,178.373L561.353,178.373L561.353,178.373L561.354,178.373L561.358,178.37L561.36,178.369L561.364,178.367L561.377,178.361L561.382,178.355L561.381,178.343L561.377,178.341L561.371,178.332L561.368,178.323L561.368,178.312L561.371,178.308L561.369,178.297L561.362,178.288L561.356,178.293L561.342,178.291L561.342,178.285L561.337,178.283L561.337,178.274L561.299,178.25L561.283,178.209L561.291,178.195L561.27,178.18L561.276,178.166L561.303,178.169L561.306,178.136L561.335,178.141L561.413,178.053L561.473,178.055L561.503,178.068L561.515,178.057L561.519,178.069L561.543,178.076L561.599,178.078L561.616,178.055L561.63,178.072L561.635,178.05L561.656,178.069L561.663,178.045L561.696,178.057L561.719,178.051L561.72,178.021L561.76,177.974L561.785,177.966L561.861,177.996L561.869,177.997L561.872,178.021L561.875,178.036L561.882,178.045L561.895,178.059L561.905,178.065L561.92,178.07L561.937,178.071L561.956,178.075L561.972,178.084L561.986,178.105L561.992,178.126L561.989,178.139L561.991,178.143L561.993,178.145L561.99,178.164L561.984,178.178L561.981,178.194L561.982,178.209L561.983,178.226L561.994,178.25L561.999,178.27L562.001,178.286L562,178.299L561.997,178.314L561.998,178.325L562.004,178.338L562.019,178.348L562.04,178.359L562.057,178.365L562.064,178.373L562.067,178.378L562.067,178.386L562.065,178.394L562.063,178.398L562.051,178.423L562.051,178.431L562.057,178.443L562.074,178.45L562.086,178.452L562.1,178.468L562.102,178.481L562.108,178.489L562.121,178.497L562.125,178.502L562.127,178.511L562.124,178.522L562.124,178.533L562.127,178.55L562.133,178.552L562.149,178.547L562.158,178.537L562.168,178.523L562.175,178.503L562.183,178.499L562.195,178.498L562.199,178.504L562.198,178.511L562.188,178.525L562.18,178.536L562.178,178.546L562.18,178.574L562.178,178.582L562.157,178.596L562.143,178.608L562.141,178.619L562.137,178.629L562.138,178.638L562.138,178.645L562.14,178.657L562.154,178.666L562.171,178.662L562.188,178.654L562.206,178.645L562.217,178.643L562.234,178.643L562.242,178.645L562.254,178.649L562.266,178.654L562.28,178.675L562.283,178.693L562.285,178.703L562.296,178.735L562.305,178.757L562.313,178.784L562.321,178.809L562.327,178.819L562.337,178.834L562.352,178.856L562.357,178.864L562.384,178.886L562.395,178.893L562.42,178.911L562.454,178.935L562.461,178.94L562.503,178.952L562.52,178.958L562.526,178.966L562.526,178.966L562.529,178.969L562.542,178.987L562.55,179.005L562.557,179.028L562.556,179.031L562.556,179.038L562.555,179.042L562.555,179.045L562.555,179.053L562.56,179.059L562.566,179.063L562.587,179.068L562.604,179.071L562.619,179.075L562.642,179.089L562.66,179.106L562.674,179.123L562.69,179.141L562.703,179.164L562.713,179.183L562.713,179.184L562.735,179.179L562.753,179.16L562.795,179.095L562.796,179.094L562.797,179.093L562.797,179.092L562.797,179.088L562.797,179.086L562.798,179.085L562.8,179.082L562.824,179.056L562.866,178.979L562.863,178.926L562.846,178.92L562.838,178.915L562.829,178.902L562.843,178.827L562.852,178.782L562.847,178.767L562.854,178.729L562.862,178.728L562.873,178.718L562.912,178.72L562.941,178.737L563.014,178.722L563.055,178.713L563.109,178.777L563.123,178.783L563.146,178.774L563.154,178.777L563.161,178.775L563.164,178.77L563.164,178.762L563.2,178.702L563.211,178.703L563.212,178.67L563.212,178.659L563.233,178.642L563.242,178.627L563.256,178.623L563.267,178.617L563.278,178.609L563.276,178.6L563.261,178.598L563.258,178.563L563.266,178.555L563.295,178.555L563.309,178.548L563.33,178.547L563.357,178.546L563.372,178.524L563.333,178.502L563.327,178.5L563.306,178.468L563.316,178.463L563.327,178.458L563.364,178.447L563.408,178.415L563.434,178.397L563.441,178.394L563.492,178.399L563.62,178.399L563.807,178.399L564.022,178.404L564.138,178.491L564.144,178.492L564.187,178.446L564.184,178.443L564.193,178.427L564.2,178.433L564.202,178.439L564.206,178.441L564.212,178.441L564.213,178.428L564.232,178.404L564.235,178.36L564.247,178.348L564.245,178.336L564.257,178.327L564.275,178.324L564.274,178.299L564.261,178.299L564.25,178.286L564.26,178.283L564.263,178.276L564.261,178.263L564.262,178.257L564.289,178.268L564.316,178.263L564.315,178.282L564.352,178.276L564.357,178.301L564.393,178.294L564.393,178.299L564.415,178.327L564.428,178.311L564.438,178.307L564.456,178.344L564.461,178.394L564.479,178.401L564.491,178.386L564.503,178.386L564.484,178.338L564.497,178.329L564.495,178.325L564.501,178.321L564.512,178.333L564.532,178.318L564.548,178.344L564.565,178.331L564.58,178.345L564.586,178.338L564.593,178.343L564.737,178.34L564.746,178.379L564.872,178.384L564.871,178.361L564.87,178.299L564.869,178.265L564.865,178.261L564.86,178.237L564.887,178.21L564.897,178.184L564.867,178.146L564.902,178.151L564.951,178.109L564.965,178.095L564.984,178.084L564.996,178.067L565.01,178.063L565.001,178.048L565.026,178.025L565.037,178.023L565.029,178.011L565.06,177.99L565.043,177.976L565.023,177.975L565.003,177.981L564.997,177.974L564.987,177.97L564.987,177.958L564.98,177.948L564.929,177.875L564.907,177.868L564.907,177.863L564.877,177.857L564.874,177.826L564.907,177.823L564.915,177.707L564.983,177.666L564.997,177.689L565.025,177.682L565.01,177.704L565.04,177.756L565.123,177.743L565.183,177.725L565.192,177.692L565.207,177.682L565.23,177.706L565.25,177.72L565.292,177.75L565.311,177.749L565.317,177.756L565.325,177.757L565.337,177.765L565.351,177.761L565.361,177.777L565.376,177.778L565.391,177.798L565.392,177.826L565.4,177.838L565.4,177.861L565.404,177.863L565.408,177.851L565.43,177.849L565.432,177.841L565.438,177.834L565.446,177.828L565.446,177.82L565.441,177.811L565.431,177.805L565.43,177.797L565.435,177.789L565.442,177.785L565.461,177.78L565.485,177.769L565.557,177.763L565.555,177.77L565.554,177.772L565.551,177.773L565.549,177.774L565.549,177.776L565.55,177.778L565.549,177.779L565.547,177.777L565.547,177.777L565.546,177.778L565.547,177.779L565.549,177.78L565.551,177.782L565.552,177.784L565.552,177.786L565.55,177.788L565.548,177.79L565.549,177.792L565.551,177.792L565.554,177.796L565.556,177.796L565.559,177.795L565.56,177.796L565.561,177.797L565.564,177.797L565.567,177.795L565.568,177.794L565.57,177.794L565.57,177.796L565.571,177.797L565.573,177.797L565.575,177.796L565.576,177.795L565.575,177.794L565.572,177.794L565.571,177.793L565.572,177.792L565.574,177.792L565.577,177.791L565.578,177.789L565.581,177.787L565.582,177.787L565.583,177.788L565.586,177.789L565.588,177.79L565.589,177.792L565.589,177.793L565.588,177.795L565.589,177.796L565.586,177.798L565.583,177.801L565.583,177.803L565.584,177.804L565.586,177.804L565.586,177.805L565.586,177.806L565.587,177.806L565.588,177.807L565.59,177.806L565.591,177.806L565.594,177.803L565.595,177.803L565.595,177.804L565.597,177.805L565.598,177.804L565.598,177.805L565.599,177.809L565.601,177.81L565.605,177.81L565.608,177.809L565.609,177.81L565.609,177.811L565.611,177.811L565.612,177.81L565.611,177.808L565.612,177.808L565.614,177.808L565.615,177.808L565.617,177.809L565.617,177.81L565.618,177.811L565.617,177.813L565.615,177.814L565.614,177.815L565.615,177.815L565.615,177.816L565.616,177.816L565.616,177.816L565.615,177.818L565.615,177.818L565.617,177.821L565.618,177.821L565.617,177.823L565.618,177.824L565.617,177.827L565.618,177.829L565.619,177.83L565.62,177.831L565.62,177.832L565.62,177.833L565.617,177.835L565.615,177.839L565.613,177.841L565.613,177.845L565.612,177.846L565.611,177.846L565.608,177.848L565.606,177.85L565.605,177.853L565.605,177.855L565.606,177.856L565.609,177.857L565.611,177.858L565.618,177.861L565.62,177.863L565.621,177.865L565.622,177.868L565.623,177.869L565.623,177.87L565.624,177.872L565.625,177.874L565.626,177.875L565.628,177.876L565.629,177.879L565.628,177.884L565.625,177.888L565.624,177.891L565.624,177.893L565.627,177.899L565.63,177.901L565.631,177.9L565.632,177.898L565.634,177.897L565.635,177.892L565.646,177.883L565.649,177.885L565.658,177.875L565.667,177.873L565.691,177.859L565.697,177.858L565.718,177.86L565.71,177.832L565.714,177.83L565.726,177.856L565.738,177.85L565.741,177.857L565.751,177.861L565.762,177.869L565.763,177.883L565.755,177.884L565.758,177.903L565.759,177.919L565.761,177.922L565.76,177.927L565.763,177.93L565.768,177.932L565.771,177.929L565.776,177.927L565.78,177.922L565.779,177.919L565.78,177.912L565.789,177.905L565.794,177.905L565.805,177.903L565.811,177.907L565.817,177.906L565.821,177.905L565.83,177.904L565.889,177.913L565.895,177.911L565.899,177.912L565.905,177.918L565.917,177.923L565.929,177.926L565.942,177.924L565.945,177.926L565.952,177.925L565.952,177.923L565.949,177.92L565.949,177.914L565.952,177.908L565.955,177.907L565.969,177.886L565.971,177.88L565.979,177.886L565.999,177.84L566.007,177.845L566.031,177.863L566.042,177.872L566.055,177.889L566.055,177.901L566.059,177.91L566.061,177.913L566.077,177.931L566.095,177.937L566.148,177.995L566.148,178.008L566.161,178.026L566.188,178.048L566.186,178.058L566.2,178.103L566.232,178.059L566.264,178.064L566.304,178.047L566.322,178.05L566.32,178.078L566.336,178.086L566.345,178.094L566.339,178.107L566.354,178.139L566.383,178.168L566.399,178.213L566.39,178.226L566.423,178.235L566.419,178.251L566.426,178.27L566.438,178.279L566.449,178.308L566.452,178.322L566.465,178.329L566.472,178.326L566.479,178.334L566.524,178.303L566.59,178.303L566.623,178.346L566.628,178.35L566.626,178.354L566.622,178.358L566.622,178.364L566.628,178.362L566.633,178.358L566.639,178.364L566.644,178.366L566.65,178.365L566.651,178.358L566.657,178.357L566.663,178.361L566.664,178.352L566.673,178.348L566.676,178.353L566.677,178.357L566.686,178.359L566.696,178.354L566.7,178.358L566.697,178.368L566.691,178.375L566.689,178.391L566.691,178.399L566.691,178.41L566.691,178.423L566.694,178.437L566.696,178.446L566.698,178.448L566.701,178.453L566.7,178.465L566.698,178.478L566.703,178.488L566.71,178.502L566.709,178.511L566.709,178.522L566.716,178.532L566.724,178.538L566.731,178.545L566.726,178.563L566.743,178.565L566.748,178.556L566.753,178.553L566.757,178.557L566.756,178.567L566.751,178.578L566.746,178.594L566.744,178.611L566.747,178.631L566.783,178.648L566.797,178.649L566.796,178.638L566.825,178.622L566.829,178.616L566.834,178.616L566.842,178.622L566.859,178.651L566.876,178.653L566.884,178.674L566.893,178.725L566.873,178.746L566.843,178.746L566.818,178.737L566.795,178.785L566.805,178.796L566.801,178.802L566.818,178.819L566.814,178.826L566.833,178.838L566.852,178.845L566.852,178.856L566.862,178.857L566.864,178.865L566.873,178.872L566.883,178.878L566.902,178.881L566.903,178.87L566.912,178.873L566.919,178.882L566.937,178.879L566.967,178.936L566.976,178.954L567.007,178.973L567.04,178.973L567.049,178.978L567.055,178.976L567.06,178.974L567.07,178.972L567.074,178.969L567.083,178.973L567.094,178.97L567.107,178.963L567.115,178.97L567.124,178.972L567.125,178.981L567.121,178.982L567.141,179.004L567.171,179.018L567.196,179.021L567.208,179.005L567.213,179.013L567.216,179L567.222,178.98L567.233,178.962L567.236,178.958L567.238,178.955L567.244,178.961L567.252,178.962L567.257,178.96L567.262,178.961L567.264,178.961L567.264,178.961L567.265,178.961L567.266,178.961L567.267,178.961L567.269,178.961L567.27,178.961L567.273,178.961L567.277,178.962L567.281,178.963L567.283,178.976L567.298,178.987L567.321,178.997L567.325,178.995L567.336,178.991L567.344,178.994L567.352,178.983L567.363,178.993L567.387,178.994L567.383,179.011L567.404,179.011L567.425,178.996L567.443,179.008L567.449,179.008L567.445,179L567.447,178.99L567.43,178.978L567.439,178.973L567.446,178.969L567.466,178.979L567.482,178.973L567.484,178.983L567.494,178.992L567.497,178.99L567.521,178.981L567.535,178.956L567.542,178.942L567.555,178.937L567.56,178.936L567.558,178.916L567.616,178.913L567.654,178.878L567.666,178.873L567.665,178.867L567.676,178.859L567.681,178.857L567.693,178.878L567.704,178.879L567.708,178.871L567.712,178.871L567.711,178.862L567.711,178.849L567.738,178.844L567.771,178.839L567.801,178.831L567.804,178.831L567.824,178.829L567.826,178.834L567.83,178.842L567.852,178.861L567.883,178.844L567.897,178.851L567.923,178.854L567.94,178.852L567.942,178.839L567.971,178.83L567.977,178.839L567.99,178.835L568.006,178.85L568.023,178.84L568.053,178.864L568.058,178.876L568.058,178.892L568.065,178.891L568.094,178.884L568.105,178.868L568.122,178.847L568.133,178.839L568.15,178.839L568.149,178.881L568.156,178.889L568.166,178.894L568.182,178.893L568.197,178.879L568.217,178.887L568.221,178.846L568.262,178.864L568.263,178.881L568.329,178.861L568.334,178.858L568.333,178.848L568.318,178.843L568.315,178.819L568.42,178.789L568.442,178.742L568.443,178.706L568.474,178.674L568.487,178.661L568.486,178.655L568.509,178.637L568.54,178.645L568.548,178.634L568.553,178.637L568.564,178.635L568.57,178.632L568.573,178.644L568.589,178.645L568.609,178.629L568.607,178.623L568.601,178.618L568.6,178.613L568.606,178.609L568.618,178.603L568.613,178.528L568.657,178.487L568.649,178.451L568.686,178.448L568.701,178.448L568.717,178.359L568.685,178.303L568.646,178.234L568.614,178.227L568.593,178.159L568.643,178.131L568.665,178.137L568.703,178.106L568.666,178.013L568.683,178.016L568.688,178.018L568.695,178.018L568.707,178.019L568.716,178.019L568.738,178.002L568.745,178.027L568.745,178.043L568.765,178.046L568.766,177.977L568.773,177.975L568.765,177.939L568.765,177.934L568.759,177.925L568.767,177.915L568.761,177.908L568.768,177.899L568.782,177.9L568.785,177.889L568.771,177.882L568.774,177.873L568.773,177.851L568.755,177.854L568.755,177.878L568.71,177.898L568.688,177.887L568.636,177.862L568.632,177.832L568.64,177.816L568.629,177.802L568.645,177.777L568.619,177.745L568.626,177.739L568.639,177.679L568.65,177.666L568.658,177.663L568.664,177.662L568.708,177.649L568.714,177.623L568.741,177.605L568.744,177.599L568.761,177.588L568.765,177.565L568.78,177.55L568.792,177.554L568.806,177.557L568.831,177.556L568.842,177.552L568.87,177.58L568.89,177.579L568.888,177.613L568.915,177.679L568.997,177.56L569.096,177.523L569.11,177.512L569.154,177.493L569.192,177.479L569.202,177.458L569.214,177.461L569.218,177.448L569.209,177.39L569.289,177.379L569.36,177.3L569.443,177.28L569.473,177.25L569.509,177.26L569.524,177.249L569.527,177.24L569.527,177.228L569.524,177.221L569.522,177.213L569.528,177.203L569.525,177.201L569.547,177.188L569.55,177.182L569.546,177.177L569.548,177.164L569.618,177.165L569.681,177.189L569.71,177.184L569.769,177.211L569.797,177.254L569.845,177.286L569.861,177.255L569.915,177.269L569.897,177.224L569.878,177.194L569.931,177.127L569.968,177.157L570.002,177.184L570.039,177.17L570.047,177.156L570.067,177.146L570.067,177.139L570.096,177.125L570.098,177.116L570.064,177.082L570.08,177.037L570.088,177.044L570.126,177.019L570.151,177.018L570.157,176.872L570.164,176.713L570.111,176.725L570.053,176.698L570.049,176.738L569.919,176.676L569.914,176.674L569.898,176.653L569.889,176.625L569.872,176.609L569.86,176.603L569.85,176.595L569.845,176.586L569.835,176.581L569.832,176.574L569.823,176.572L569.825,176.566L569.837,176.569L569.847,176.58L569.858,176.593L569.867,176.597L569.892,176.615L569.897,176.623L569.937,176.609L569.951,176.469L569.963,176.36L569.977,176.245L569.997,176.227L570.046,176.148L570.058,176.125L570.098,176.132L570.114,176.121L570.148,176.119L570.211,176.156L570.208,176.185L570.36,176.194L570.338,176.459L570.386,176.547L570.454,176.576L570.452,176.611L570.482,176.626L570.485,176.648L570.465,176.674L570.51,176.674L570.515,176.679L570.524,176.687L570.52,176.64L570.544,176.625L570.558,176.601L570.565,176.6L570.581,176.534L570.845,176.486L570.854,176.479L570.852,176.439L570.846,176.423L570.916,176.428L570.913,176.438L570.9,176.44L570.886,176.443L570.872,176.447L570.877,176.462L570.886,176.467L570.892,176.476L570.893,176.477L570.9,176.478L570.914,176.482L570.932,176.483L570.928,176.505L570.945,176.498L570.956,176.451L570.984,176.449L570.988,176.444L571.017,176.445L571.027,176.453L571.048,176.455L571.057,176.459L571.061,176.457L571.108,176.493L571.118,176.493L571.122,176.499L571.114,176.501L571.088,176.547L571.122,176.555L571.139,176.635L571.109,176.655L571.092,176.665L571.15,176.789L571.154,176.798L571.187,176.778L571.223,176.806L571.262,176.82L571.274,176.845L571.275,176.884L571.32,176.959L571.333,176.972L571.351,176.973L571.344,176.963L571.372,176.923L571.441,176.948L571.431,176.983L571.442,176.988L571.444,177.001L571.454,176.983L571.476,176.985L571.479,176.972L571.464,176.958L571.502,176.932L571.504,176.885L571.507,176.883L571.51,176.88L571.52,176.873L571.525,176.903L571.548,176.892L571.603,176.903L571.6,176.89L571.633,176.884L571.654,176.865L571.647,176.845L571.649,176.836L571.678,176.833L571.692,176.85L571.714,176.865L571.754,176.838L571.749,176.833L571.75,176.821L571.755,176.811L571.768,176.804L571.776,176.785L571.794,176.781L571.791,176.767L571.788,176.757L571.797,176.759L571.809,176.767L571.81,176.765L571.81,176.755L571.805,176.753L571.793,176.738L571.807,176.711L571.851,176.707L571.871,176.695L571.901,176.715L571.919,176.697L571.915,176.669L571.895,176.66L571.887,176.609L571.893,176.578L571.906,176.573L571.911,176.586L571.902,176.592L571.904,176.603L571.9,176.612L571.906,176.653L571.919,176.652L571.959,176.67L571.978,176.691L571.976,176.698L572.018,176.748L572.018,176.758L572.03,176.763L572.053,176.762L572.06,176.782L572.067,176.782L572.064,176.769L572.077,176.76L572.107,176.722L572.14,176.735L572.141,176.749L572.163,176.766L572.157,176.785L572.212,176.837L572.224,176.881L572.239,176.877L572.304,176.86L572.282,176.774L572.24,176.724L572.229,176.659L572.27,176.614L572.368,176.577L572.422,176.587L572.508,176.531L572.523,176.556L572.514,176.681L572.574,176.688L572.572,176.713L572.551,176.744L572.595,176.817L572.542,176.85L572.542,176.887L572.533,176.893L572.534,176.901L572.552,176.921L572.558,176.945L572.575,176.946L572.589,176.932L572.599,176.942L572.609,176.937L572.612,176.941L572.635,176.93L572.639,176.92L572.658,176.911L572.685,176.908L572.691,176.882L572.69,176.867L572.693,176.849L572.705,176.844L572.727,176.838L572.726,176.829L572.728,176.817L572.723,176.804L572.702,176.787L572.682,176.762L572.709,176.747L572.715,176.754L572.722,176.754L572.731,176.77L572.751,176.755L572.759,176.763L572.768,176.763L572.791,176.765L572.789,176.76L572.788,176.757L572.788,176.756L572.788,176.754L572.789,176.748L572.789,176.746L572.789,176.744L572.788,176.742L572.787,176.74L572.786,176.738L572.785,176.735L572.785,176.733L572.785,176.731L572.786,176.729L572.788,176.727L572.79,176.726L572.794,176.723L572.795,176.722L572.796,176.72L572.797,176.717L572.798,176.715L572.799,176.714L572.802,176.712L572.808,176.707L572.811,176.704L572.817,176.691L572.819,176.686L572.821,176.681L572.822,176.68L572.824,176.678L572.827,176.677L572.829,176.677L572.833,176.677L572.834,176.677L572.84,176.681L572.843,176.681L572.845,176.681L572.852,176.676L572.855,176.675L572.857,176.675L572.86,176.675L572.863,176.675L572.865,176.676L572.871,176.681L572.881,176.685L572.887,176.686L572.894,176.685L572.903,176.684L572.909,176.682L572.912,176.677L572.921,176.657L572.923,176.653L572.925,176.65L572.926,176.649L572.928,176.649L572.93,176.649L572.932,176.65L572.937,176.653L572.94,176.655L572.943,176.655L572.946,176.655L572.953,176.654L572.959,176.652L573.011,176.736L573.074,176.752L573.114,176.745L573.168,176.746L573.212,176.782L573.247,176.848L573.302,176.848L573.313,176.832L573.331,176.827L573.484,176.764L573.619,176.753L573.68,176.791L573.677,176.803L573.663,176.848L573.663,176.878L573.663,176.912L573.658,176.939L573.658,176.952L573.65,176.972L573.692,176.963L573.775,176.972L573.789,176.959L573.811,176.962L573.823,176.973L573.824,177.033L573.889,177.038L573.886,177.066L573.894,177.066L573.921,177.094L573.974,177.03L574,177.028L574,177.009L574.313,177.032L574.468,177.055L574.623,177.075L574.658,177.079L575.066,177.129L575.094,176.88L575.556,176.927L575.567,176.823L575.951,176.871L575.955,176.899L575.965,176.904L575.966,176.911L575.963,176.915L575.967,176.942L575.975,176.943L575.975,176.939L575.983,176.94L575.984,176.944L576.01,176.949L576.017,176.882L576.152,176.902L576.155,176.902L576.156,176.902L576.154,176.877L576.195,176.896L576.198,176.901L576.2,176.906L576.208,176.907L576.632,176.967L576.683,176.605L576.7,176.471L576.938,176.504L576.943,176.373L577.281,176.41L577.344,175.906L577.287,175.893L577.317,175.715L577.348,175.504L577.838,175.571L577.832,175.591L577.849,175.596L577.864,175.571L577.983,175.588L577.995,175.487L578.53,175.569L578.544,175.496L578.564,175.356L578.588,175.063L578.389,175.04L578.204,175.019L578.24,174.782L578.276,174.533L578.277,174.529L578.278,174.521L578.278,174.521L578.279,174.52L578.293,174.43L578.294,174.425L578.305,174.355L578.313,174.296L578.318,174.297L578.32,174.285L578.345,174.141L578.38,173.9L578.391,173.818L578.201,173.828L578.192,173.866L578.18,173.856L578.151,173.889L578.139,173.902L578.145,173.93L578.153,173.969L578.155,173.982L578.151,173.987L578.039,174.01L578.058,174.059L578.054,174.062L578.05,174.061L578.044,174.055L578.039,174.06L578.02,174.054L577.976,174.043L577.964,174.047L577.973,174.065L577.972,174.068L577.971,174.069L577.967,174.069L577.967,174.072L577.964,174.074L577.964,174.076L577.965,174.078L577.966,174.079L577.966,174.08L577.966,174.082L577.968,174.082L577.971,174.083L577.971,174.086L577.971,174.089L577.969,174.091L577.969,174.095L577.969,174.096L577.965,174.102L577.965,174.103L577.963,174.103L577.958,174.099L577.96,174.097L577.958,174.095L577.958,174.092L577.954,174.091L577.949,174.094L577.949,174.097L577.952,174.098L577.952,174.1L577.951,174.106L577.949,174.106L577.948,174.103L577.945,174.105L577.944,174.104L577.943,174.103L577.944,174.101L577.943,174.099L577.94,174.099L577.94,174.098L577.94,174.097L577.942,174.095L577.942,174.092L577.942,174.091L577.939,174.089L577.934,174.088L577.934,174.089L577.934,174.092L577.933,174.094L577.93,174.096L577.927,174.095L577.926,174.092L577.921,174.089L577.919,174.08L577.935,174.033L577.902,174.012L577.902,174.029L577.843,174.018L577.845,174.008L577.799,174L577.793,174.036L577.774,174.033L577.778,173.981L577.775,173.975L577.77,173.972L577.761,173.969L577.756,173.963L577.753,173.957L577.739,173.964L577.741,173.976L577.728,173.983L577.727,173.992L577.719,173.995L577.718,174L577.716,174.004L577.715,174.001L577.712,174.001L577.708,174.033L577.689,174.032L577.664,174.025L577.651,174.008L577.648,173.972L577.645,173.969L577.634,173.973L577.625,173.964L577.609,173.969L577.586,173.968L577.58,173.944L577.542,173.931L577.531,173.938L577.511,173.923L577.496,173.885L577.458,173.877L577.455,173.876L577.45,173.876L577.415,173.867L577.412,173.867L577.405,173.867L577.391,173.878L577.372,173.879L577.368,173.879L577.366,173.881L577.366,173.885L577.367,173.89L577.356,173.899L577.353,173.899L577.352,173.899L577.344,173.895L577.336,173.896L577.336,173.897L577.332,173.902L577.323,173.875L577.278,173.872L577.271,173.872L577.265,173.872L577.257,173.871L577.254,173.871L577.255,173.85L577.266,173.84L577.297,173.81L577.297,173.799L577.266,173.761L577.255,173.749L577.257,173.745L577.26,173.741L577.26,173.731L577.262,173.726L577.264,173.722L577.267,173.719L577.267,173.716L577.266,173.712L577.264,173.711L577.264,173.701L577.211,173.684L577.217,173.645L577.22,173.645L577.227,173.648L577.216,173.608L577.242,173.596L577.235,173.547L577.214,173.536L577.216,173.522L577.151,173.513L577.157,173.476L577.108,173.471L577.106,173.446L577.129,173.407L577.139,173.39L577.157,173.405L577.164,173.411L577.167,173.413L577.174,173.422L577.188,173.421L577.195,173.427L577.195,173.43L577.241,173.435L577.251,173.436L577.308,173.416L577.318,173.359L577.36,173.34L577.366,173.344L577.369,173.355L577.46,173.416L577.463,173.428L577.496,173.418L577.513,173.426L577.518,173.427L577.536,173.386L577.575,173.374L577.582,173.372L577.587,173.367L577.679,173.363L577.727,173.361L577.811,173.404L577.916,173.457L577.92,173.457L577.938,173.458L577.977,173.366L578.01,173.285L578.027,173.244L577.991,173.152L578.055,173.063L578.073,173.039L577.968,173.019L577.938,173.032L577.931,173.017L577.966,172.912L577.985,172.914L578.068,172.877L578.089,172.863L578.12,172.85L578.115,172.848L578.115,172.841L578.103,172.831L578.102,172.828L578.102,172.821L578.099,172.817L578.088,172.811L578.085,172.809L578.081,172.809L578.076,172.803L578.076,172.799L578.074,172.797L578.071,172.795L578.063,172.793L578.06,172.79L578.059,172.787L578.06,172.781L578.064,172.776L578.067,172.772L578.07,172.768L578.073,172.767L578.076,172.763L578.105,172.719L578.148,172.716L578.149,172.669L578.149,172.651L578.149,172.642L578.15,172.637L578.15,172.627L578.15,172.614L578.152,172.61L578.159,172.597L578.139,172.581L578.131,172.555L578.124,172.533L578.123,172.515L578.136,172.508L578.16,172.495L578.207,172.468L578.208,172.466L578.211,172.458L578.227,172.448L578.254,172.455L578.254,172.441L578.255,172.44L578.291,172.408L578.295,172.396L578.299,172.384L578.344,172.396L578.392,172.408L578.395,172.409L578.397,172.409L578.398,172.372L578.336,172.365L578.363,172.333L578.357,172.306L578.352,172.305L578.348,172.306L578.342,172.322L578.339,172.321L578.329,172.308L578.328,172.306L578.328,172.297L578.332,172.293L578.332,172.284L578.326,172.273L578.327,172.244L578.331,172.239L578.331,172.23L578.327,172.221L578.329,172.205L578.353,172.185L578.346,172.163L578.347,172.16L578.355,172.138L578.345,172.129L578.332,172.117L578.341,172.101L578.322,172.088L578.296,172.088L578.271,172.086L578.267,172.065L578.267,172.045L578.268,172.033L578.274,172.027L578.286,172.025L578.328,172.02L578.332,172.005L578.336,171.996L578.341,171.992L578.343,171.984L578.338,171.976L578.331,171.96L578.313,171.942L578.294,171.907L578.359,171.852L578.305,171.807L578.388,171.794L578.439,171.506L578.442,171.504L578.443,171.489L578.446,171.484L578.445,171.482L578.443,171.481L578.44,171.462L578.442,171.452L578.456,171.368L578.198,171.335L578.207,171.293L578.166,171.26L578.027,171.248L577.979,171.112L577.982,171.035L577.982,171.034L577.981,171.024L578.01,170.974L577.791,170.951L577.685,170.936L577.638,170.932L577.639,170.913L577.607,170.928L577.606,170.928L577.593,170.923L577.576,170.925L577.57,170.926L577.573,170.895L577.576,170.858L577.58,170.824L577.585,170.789L577.587,170.776L577.574,170.754L577.552,170.72L577.541,170.704L577.533,170.703L577.532,170.71L577.525,170.71L577.523,170.699L577.515,170.699L577.516,170.708L577.51,170.707L577.507,170.713L577.492,170.702L577.486,170.706L577.489,170.713L577.474,170.716L577.47,170.728L577.47,170.744L577.472,170.752L577.472,170.758L577.468,170.807L577.441,170.841L577.434,170.823L577.439,170.813L577.431,170.813L577.427,170.811L577.424,170.796L577.402,170.802L577.399,170.796L577.393,170.799L577.393,170.792L577.371,170.801L577.364,170.788L577.362,170.793L577.36,170.79L577.362,170.786L577.361,170.785L577.252,170.865L577.194,170.848L577.19,170.874L577.179,170.943L577.147,170.939L577.048,170.926L576.59,170.861L576.268,170.816L576.313,170.493L576.348,170.298L576.284,170.289L576.275,170.355L576.209,170.346L576.218,170.28L576.119,170.266L576.037,170.254L575.889,170.233L575.63,170.192L575.564,170.182L575.544,170.312L575.544,170.313L575.602,170.321L575.603,170.333L575.585,170.45L575.525,170.443L575.522,170.468L575.506,170.573L575.438,171.039L575.42,171.166L575.411,171.225L575.323,171.215L575.235,171.204L575.165,171.196L575.092,171.187L575.018,171.178L574.961,171.171L574.889,171.163L574.875,171.161L574.833,171.155L574.775,171.147L574.722,171.14L574.664,171.132L574.602,171.124L574.549,171.116L574.52,171.112L574.505,171.11L574.485,171.108L574.44,171.101L574.334,171.086L574.201,171.068L574.109,171.055L574.072,171.049L573.926,171.029L573.759,171.005L573.601,170.982L573.635,170.643L573.556,170.655L573.504,170.663L573.485,170.663L573.403,170.669L573.313,170.654L573.256,170.656L573.238,170.663L573.231,170.703L573.17,170.699L573.164,170.731L573.118,170.72L573.11,170.713L573.119,170.703L573.12,170.696L573.063,170.695L573.032,170.701L572.973,170.721L572.951,170.872L572.922,171.06L572.945,171.077L572.914,171.106L572.901,171.1L572.885,171.151L572.889,171.166L572.939,171.207L572.888,171.26L572.854,171.252L572.843,171.222L572.803,171.215L572.763,171.298L572.663,171.314L572.632,171.335L572.574,171.342L572.54,171.655L572.483,171.644L572.284,171.606L572.214,171.587L572.202,171.588L572.084,171.566L572.078,171.551L572.024,171.537L572.008,171.519L572.008,171.512L571.995,171.517L571.996,171.528L571.964,171.555L571.928,171.551L571.936,171.542L571.922,171.499L571.898,171.507L571.892,171.509L571.884,171.542L571.872,171.557L571.865,171.577L571.835,171.587L571.832,171.593L571.828,171.602L571.829,171.609L571.832,171.62L571.818,171.628L571.796,171.73L571.658,171.78L571.64,171.674L571.611,171.672L571.613,171.633L571.58,171.629L571.583,171.595L571.555,171.593L571.52,171.601L571.533,171.49L571.514,171.494L571.512,171.472L571.48,171.46L571.484,171.432L571.479,171.43L571.382,171.352L571.375,171.359L571.338,171.345L571.335,171.382L571.306,171.365L571.198,171.301L571.19,171.296L571.101,171.236L571.078,171.266L571.065,171.274L571.052,171.279L571.044,171.3L571.028,171.301L571.024,171.333L571.009,171.349L571.01,171.355L571.008,171.36L571.014,171.37L571.021,171.371L571.034,171.386L571.032,171.391L571.028,171.394L571.022,171.392L570.995,171.377L570.99,171.375L570.984,171.382L570.975,171.412L570.95,171.41L570.944,171.474L570.931,171.495L570.932,171.501L570.9,171.54L570.901,171.55L570.904,171.555L570.904,171.564L570.896,171.571L570.894,171.583L570.896,171.589L570.9,171.599L570.907,171.611L570.912,171.608L570.916,171.611L570.928,171.604L570.923,171.594L570.915,171.598L570.914,171.591L570.918,171.587L570.912,171.578L570.914,171.576L570.909,171.542L570.94,171.542L570.937,171.591L570.946,171.6L570.944,171.614L570.95,171.618L570.951,171.632L570.872,171.653L570.87,171.638L570.871,171.625L570.875,171.617L570.874,171.605L570.866,171.586L570.87,171.576L570.889,171.568L570.886,171.557L570.895,171.553L570.89,171.545L570.871,171.55L570.848,171.55L570.83,171.569L570.829,171.594L570.806,171.594L570.792,171.591L570.779,171.586L570.768,171.585L570.762,171.589L570.759,171.59L570.758,171.594L570.751,171.599L570.747,171.599L570.746,171.603L570.74,171.609L570.736,171.617L570.735,171.622L570.729,171.63L570.725,171.636L570.724,171.641L570.721,171.642L570.715,171.648L570.627,171.648L570.594,171.628L570.593,171.628L570.583,171.627L570.577,171.627L570.545,171.625L570.545,171.625L570.538,171.619L570.514,171.612L570.415,171.581L570.407,171.58L570.375,171.573L570.347,171.593L570.289,171.587L570.283,171.581L570.277,171.579L570.255,171.537L570.264,171.525L570.274,171.52L570.277,171.502L570.269,171.496L570.26,171.503L570.248,171.501L570.243,171.495L570.223,171.501L570.215,171.497L570.215,171.465L570.215,171.447L570.215,171.437L570.21,171.43L570.21,171.425L570.214,171.416L570.211,171.407L570.217,171.402L570.219,171.404L570.225,171.4L570.222,171.394L570.211,171.389L570.198,171.396L570.19,171.399L570.186,171.418L570.182,171.417L570.171,171.414L570.159,171.422L570.149,171.417L570.134,171.415L570.123,171.422L570.116,171.41L570.107,171.411L570.106,171.407L570.081,171.411L570.071,171.405L570.03,171.408L570.008,171.401L570.006,171.404L569.989,171.4L569.987,171.405L569.973,171.403L569.973,171.397L569.958,171.383L569.941,171.389L569.944,171.395L569.939,171.399L569.935,171.395L569.935,171.386L569.927,171.38L569.924,171.38L569.914,171.384L569.912,171.396L569.898,171.394L569.897,171.399L569.891,171.397L569.891,171.392L569.878,171.391L569.886,171.307L569.928,171.301L569.928,171.252L569.922,171.236L569.906,171.18L569.921,171.147L569.916,171.147L569.882,171.143L569.872,171.165L569.859,171.164L569.853,171.172L569.855,171.187L569.846,171.197L569.853,171.203L569.844,171.207L569.828,171.194L569.821,171.178L569.811,171.162L569.708,171.142L569.656,171.19L569.656,171.197L569.697,171.186L569.701,171.189L569.702,171.193L569.699,171.198L569.706,171.204L569.702,171.208L569.695,171.2L569.692,171.199L569.681,171.206L569.669,171.204L569.664,171.205L569.661,171.211L569.66,171.217L569.663,171.22L569.666,171.218L569.669,171.219L569.672,171.224L569.687,171.216L569.691,171.22L569.691,171.224L569.688,171.232L569.691,171.239L569.698,171.241L569.688,171.248L569.689,171.244L569.688,171.24L569.683,171.234L569.676,171.234L569.67,171.236L569.671,171.231L569.66,171.222L569.659,171.223L569.658,171.228L569.646,171.239L569.65,171.248L569.647,171.252L569.648,171.256L569.643,171.256L569.655,171.278L569.65,171.28L569.641,171.265L569.631,171.259L569.606,171.269L569.607,171.281L569.614,171.289L569.542,171.3L569.546,171.303L569.551,171.307L569.554,171.314L569.552,171.326L569.548,171.341L569.495,171.343L569.419,171.314L569.421,171.264L569.419,171.251L569.399,171.235L569.377,171.244L569.35,171.236L569.324,171.217L569.3,171.232L569.284,171.221L569.288,171.216L569.279,171.202L569.182,171.214L569.17,171.221L569.143,171.238L569.043,171.3L569.026,171.329L569.024,171.33L568.999,171.35L568.973,171.356L568.963,171.368L568.972,171.407L569.041,171.479L568.987,171.628L568.935,171.77L568.911,171.853L568.908,171.896L568.904,171.924L568.933,171.97L568.95,172.08L568.936,172.08L568.916,172.083L568.878,172.042L568.858,172.001L568.85,171.989L568.784,171.998L568.769,172.034L568.694,172.035L568.665,172.04L568.662,172.072L568.599,172.091L568.568,172.1L568.546,172.083L568.489,172.084L568.468,172.064L568.46,172.061L568.475,171.997L568.41,171.983L568.306,171.964L568.293,171.961L568.159,171.935L568.173,171.868L568.075,171.851L568.072,171.86L568.066,171.87L568.054,171.871L568.044,171.876L568.037,171.857L568.006,171.841L567.997,171.851L567.991,171.844L568.003,171.834L567.975,171.829L567.989,171.764L567.966,171.77L567.966,171.759L567.924,171.751L567.952,171.624L567.915,171.616L567.868,171.606L567.857,171.644L567.823,171.662L567.778,171.719L567.783,171.733L567.75,171.747L567.76,171.758L567.76,171.783L567.693,171.802L567.651,171.817L567.625,171.814L567.604,171.792L567.591,171.786L567.578,171.778L567.555,171.76L567.543,171.733L567.523,171.718L567.508,171.72L567.505,171.717L567.49,171.705L567.484,171.687L567.464,171.677L567.423,171.618L567.382,171.597L567.345,171.618L567.35,171.639L567.336,171.66L567.346,171.678L567.288,171.712L567.278,171.742L567.273,171.762L567.258,171.775L567.256,171.793L567.23,171.812L567.227,171.851L567.223,171.863L567.223,171.884L567.205,171.893L567.185,171.899L567.169,171.911L567.167,171.921L567.154,171.927L567.142,171.941L567.137,171.951L567.095,171.942L567.086,171.952L567.058,171.942L567.024,171.924L566.989,171.9L566.981,171.959L566.977,171.979L566.902,171.976L566.748,171.969L566.706,171.983L566.7,171.992L566.699,172.004L566.693,172.019L566.691,172.023L566.692,172.026L566.684,172.044L566.684,172.063L566.631,172.056L566.621,172.046L566.609,172.055L566.497,172.041L566.494,172.036L566.476,172.038L566.473,172.035L566.476,172.016L566.465,172.006L566.466,171.992L566.439,171.976L566.443,171.96L566.439,171.96L566.438,171.959L566.436,171.951L566.435,171.95L566.432,171.951L566.428,171.951L566.424,171.946L566.425,171.945L566.429,171.945L566.43,171.945L566.43,171.943L566.427,171.941L566.418,171.932L566.414,171.933L566.414,171.93L566.413,171.928L566.409,171.928L566.408,171.926L566.408,171.923L566.407,171.92L566.406,171.918L566.407,171.916L566.406,171.913L566.404,171.912L566.402,171.914L566.399,171.914L566.397,171.914L566.396,171.911L566.396,171.911L566.397,171.91L566.399,171.91L566.4,171.909L566.4,171.906L566.396,171.902L566.393,171.902L566.395,171.904L566.395,171.908L566.394,171.908L566.392,171.909L566.391,171.906L566.391,171.903L566.39,171.902L566.388,171.904L566.384,171.904L566.376,171.9L566.373,171.9L566.371,171.898L566.372,171.896L566.374,171.896L566.374,171.893L566.373,171.892L566.371,171.893L566.369,171.891L566.368,171.891L566.367,171.895L566.366,171.896L566.365,171.894L566.366,171.893L566.365,171.89L566.364,171.89L566.363,171.893L566.361,171.893L566.361,171.887L566.358,171.88L566.357,171.876L566.358,171.876L566.359,171.878L566.361,171.878L566.363,171.877L566.362,171.876L566.36,171.874L566.36,171.873L566.36,171.872L566.363,171.869L566.355,171.862L566.354,171.86L566.354,171.858L566.357,171.855L566.357,171.854L566.356,171.852L566.356,171.851L566.357,171.849L566.356,171.845L566.355,171.839L566.352,171.839L566.351,171.836L566.352,171.834L566.355,171.833L566.355,171.83L566.354,171.829L566.353,171.828L566.351,171.83L566.35,171.83L566.348,171.827L566.349,171.825L566.35,171.823L566.347,171.819L566.345,171.819L566.345,171.821L566.346,171.826L566.344,171.826L566.342,171.824L566.34,171.826L566.337,171.826L566.336,171.824L566.338,171.823L566.341,171.822L566.341,171.82L566.34,171.819L566.338,171.82L566.337,171.821L566.336,171.819L566.337,171.818L566.339,171.817L566.341,171.815L566.341,171.814L566.337,171.813L566.336,171.809L566.334,171.808L566.333,171.809L566.331,171.809L566.33,171.808L566.331,171.808L566.332,171.807L566.333,171.805L566.329,171.805L566.329,171.804L566.331,171.803L566.332,171.802L566.331,171.8L566.325,171.799L566.321,171.795L566.319,171.796L566.314,171.798L566.313,171.796L566.316,171.793L566.31,171.789L566.309,171.788L566.313,171.787L566.313,171.786L566.31,171.785L566.309,171.784L566.313,171.783L566.314,171.781L566.313,171.779L566.311,171.78L566.31,171.778L566.313,171.777L566.314,171.775L566.311,171.775L566.309,171.769L566.303,171.768L566.301,171.768L566.301,171.769L566.303,171.771L566.302,171.774L566.3,171.775L566.298,171.774L566.297,171.773L566.296,171.769L566.294,171.769L566.292,171.77L566.288,171.769L566.284,171.765L566.282,171.758L566.279,171.755L566.278,171.754L566.277,171.753L566.276,171.755L566.275,171.754L566.273,171.75L566.273,171.745L566.273,171.743L566.269,171.743L566.268,171.741L566.265,171.741L566.263,171.744L566.261,171.744L566.26,171.747L566.257,171.748L566.254,171.749L566.253,171.751L566.248,171.751L566.244,171.75L566.242,171.758L566.239,171.764L566.236,171.765L566.235,171.765L566.237,171.769L566.236,171.77L566.234,171.77L566.232,171.773L566.229,171.774L566.226,171.776L566.225,171.777L566.226,171.78L566.226,171.781L566.223,171.781L566.223,171.781L566.221,171.783L566.22,171.786L566.214,171.783L566.212,171.783L566.21,171.786L566.208,171.786L566.207,171.784L566.201,171.784L566.2,171.784L566.199,171.787L566.186,171.788L566.185,171.789L566.187,171.791L566.186,171.792L566.18,171.792L566.178,171.794L566.177,171.799L566.173,171.8L566.172,171.803L566.168,171.804L566.163,171.809L566.16,171.809L566.156,171.813L566.15,171.814L566.147,171.818L566.136,171.819L566.134,171.818L566.134,171.814L566.133,171.814L566.129,171.815L566.126,171.814L566.123,171.81L566.122,171.807L566.119,171.807L566.117,171.805L566.114,171.8L566.112,171.799L566.11,171.8L566.105,171.8L566.104,171.799L566.101,171.799L566.1,171.802L566.096,171.802L566.095,171.8L566.094,171.798L566.089,171.793L566.088,171.789L566.089,171.788L566.089,171.786L566.088,171.784L566.087,171.781L566.088,171.778L566.092,171.772L566.091,171.771L566.09,171.769L566.092,171.766L566.09,171.764L566.09,171.762L566.092,171.76L566.089,171.755L566.089,171.752L566.086,171.751L566.084,171.748L566.084,171.744L566.081,171.743L566.078,171.739L566.079,171.735L566.076,171.733L566.076,171.731L566.078,171.725L566.076,171.722L566.078,171.717L566.08,171.715L566.08,171.712L566.075,171.71L565.99,171.798L565.985,171.803L565.982,171.808L565.975,171.809L565.968,171.806L565.967,171.805L565.963,171.804L565.961,171.802L565.959,171.803L565.957,171.8L565.956,171.8L565.955,171.801L565.953,171.806L565.94,171.806L565.933,171.811L565.917,171.813L565.911,171.818L565.9,171.818L565.895,171.823L565.887,171.822L565.884,171.828L565.881,171.827L565.878,171.83L565.87,171.828L565.86,171.834L565.854,171.835L565.852,171.84L565.851,171.84L565.851,171.839L565.845,171.842L565.84,171.846L565.835,171.848L565.831,171.85L565.836,171.857L565.831,171.86L565.824,171.865L565.823,171.868L565.825,171.873L565.825,171.875L565.823,171.875L565.819,171.873L565.818,171.874L565.82,171.876L565.819,171.878L565.816,171.878L565.815,171.882L565.808,171.884L565.802,171.882L565.802,171.884L565.795,171.884L565.791,171.885L565.78,171.885L565.778,171.888L565.775,171.889L565.772,171.89L565.771,171.885L565.767,171.886L565.763,171.89L565.761,171.89L565.757,171.888L565.755,171.886L565.752,171.887L565.749,171.885L565.748,171.886L565.746,171.886L565.745,171.884L565.744,171.883L565.742,171.884L565.739,171.884L565.737,171.885L565.735,171.884L565.733,171.885L565.732,171.887L565.73,171.888L565.729,171.887L565.726,171.889L565.726,171.892L565.724,171.893L565.725,171.894L565.723,171.895L565.722,171.895L565.716,171.899L565.714,171.898L565.714,171.899L565.714,171.901L565.706,171.904L565.704,171.904L565.703,171.906L565.702,171.908L565.699,171.907L565.698,171.908L565.698,171.909L565.698,171.91L565.691,171.907L565.69,171.904L565.689,171.906L565.688,171.907L565.684,171.908L565.682,171.907L565.682,171.905L565.68,171.905L565.678,171.904L565.677,171.904L565.676,171.908L565.671,171.909L565.67,171.91L565.668,171.909L565.662,171.911L565.66,171.91L565.658,171.911L565.658,171.909L565.657,171.907L565.658,171.907L565.654,171.901L565.648,171.901L565.647,171.898L565.644,171.899L565.643,171.897L565.641,171.896L565.641,171.894L565.643,171.892L565.641,171.89L565.636,171.892L565.632,171.895L565.631,171.898L565.628,171.896L565.625,171.896L565.624,171.896L565.624,171.898L565.625,171.9L565.624,171.903L565.622,171.904L565.622,171.908L565.621,171.909L565.619,171.91L565.618,171.911L565.622,171.917L565.622,171.922L565.623,171.924L565.625,171.926L565.628,171.925L565.628,171.926L565.626,171.928L565.625,171.929L565.623,171.927L565.622,171.927L565.619,171.929L565.616,171.929L565.613,171.926L565.61,171.928L565.607,171.927L565.604,171.926L565.6,171.923L565.599,171.922L565.6,171.921L565.599,171.919L565.598,171.919L565.595,171.921L565.594,171.922L565.592,171.921L565.591,171.919L565.592,171.919L565.595,171.919L565.596,171.918L565.596,171.917L565.592,171.915L565.589,171.916L565.581,171.921L565.579,171.922L565.578,171.922L565.578,171.921L565.578,171.92L565.576,171.92L565.575,171.919L565.576,171.918L565.576,171.917L565.572,171.918L565.57,171.918L565.569,171.917L565.567,171.916L565.567,171.913L565.566,171.912L565.564,171.913L565.563,171.911L565.561,171.913L565.56,171.912L565.56,171.91L565.558,171.91L565.557,171.908L565.559,171.906L565.557,171.902L565.555,171.902L565.557,171.898L565.556,171.895L565.554,171.895L565.553,171.893L565.554,171.891L565.555,171.89L565.552,171.891L565.552,171.886L565.551,171.885L565.55,171.887L565.548,171.883L565.55,171.879L565.549,171.879L565.55,171.877L565.551,171.877L565.553,171.877L565.553,171.875L565.548,171.867L565.543,171.866L565.543,171.86L565.539,171.856L565.542,171.854L565.538,171.852L565.536,171.848L565.525,171.846L565.521,171.848L565.518,171.846L565.514,171.848L565.508,171.847L565.502,171.842L565.499,171.835L565.493,171.832L565.491,171.831L565.488,171.817L565.48,171.814L565.48,171.81L565.477,171.81L565.476,171.81L565.475,171.813L565.474,171.816L565.472,171.817L565.469,171.817L565.468,171.813L565.467,171.813L565.465,171.816L565.464,171.817L565.462,171.813L565.461,171.815L565.461,171.811L565.46,171.811L565.458,171.813L565.458,171.816L565.454,171.819L565.455,171.821L565.449,171.827L565.448,171.825L565.447,171.825L565.447,171.832L565.447,171.833L565.446,171.833L565.445,171.832L565.443,171.832L565.442,171.833L565.442,171.836L565.435,171.843L565.437,171.845L565.436,171.847L565.431,171.846L565.431,171.845L565.431,171.84L565.429,171.84L565.428,171.841L565.426,171.841L565.425,171.839L565.423,171.84L565.42,171.84L565.418,171.835L565.416,171.835L565.409,171.834L565.407,171.833L565.406,171.825L565.405,171.824L565.402,171.822L565.391,171.817L565.39,171.817L565.388,171.817L565.379,171.822L565.377,171.822L565.37,171.818L565.37,171.816L565.37,171.814L565.369,171.813L565.366,171.813L565.365,171.813L565.362,171.811L565.361,171.808L565.358,171.805L565.356,171.805L565.355,171.806L565.354,171.809L565.354,171.811L565.355,171.813L565.355,171.814L565.355,171.815L565.352,171.816L565.351,171.815L565.349,171.812L565.349,171.809L565.349,171.807L565.35,171.806L565.349,171.804L565.348,171.803L565.345,171.804L565.343,171.805L565.341,171.807L565.339,171.808L565.333,171.806L565.332,171.805L565.332,171.803L565.333,171.802L565.333,171.801L565.332,171.801L565.331,171.802L565.33,171.805L565.328,171.806L565.325,171.805L565.324,171.804L565.323,171.804L565.321,171.805L565.321,171.806L565.321,171.809L565.323,171.811L565.325,171.812L565.325,171.814L565.323,171.815L565.322,171.815L565.32,171.814L565.318,171.814L565.317,171.815L565.316,171.818L565.318,171.821L565.318,171.822L565.317,171.823L565.315,171.824L565.314,171.825L565.314,171.827L565.314,171.829L565.317,171.831L565.317,171.834L565.316,171.837L565.316,171.84L565.315,171.843L565.313,171.843L565.309,171.844L565.305,171.847L565.303,171.851L565.299,171.855L565.298,171.858L565.296,171.861L565.295,171.866L565.291,171.87L565.288,171.873L565.284,171.878L565.279,171.88L565.278,171.883L565.277,171.885L565.275,171.887L565.266,171.893L565.265,171.895L565.265,171.897L565.266,171.898L565.268,171.899L565.27,171.898L565.271,171.899L565.272,171.899L565.273,171.901L565.274,171.915L565.275,171.917L565.276,171.918L565.281,171.919L565.284,171.921L565.285,171.925L565.285,171.929L565.283,171.932L565.283,171.935L565.284,171.938L565.285,171.939L565.289,171.942L565.293,171.944L565.296,171.946L565.297,171.947L565.298,171.948L565.3,171.951L565.301,171.955L565.3,171.958L565.298,171.96L565.297,171.961L565.297,171.963L565.299,171.969L565.3,171.976L565.301,171.979L565.303,171.981L565.304,171.983L565.305,171.987L565.304,171.993L565.304,171.998L565.303,172.001L565.303,172.004L565.304,172.007L565.306,172.009L565.307,172.012L565.308,172.015L565.308,172.023L565.309,172.026L565.31,172.028L565.311,172.03L565.313,172.031L565.316,172.031L565.319,172.031L565.322,172.029L565.324,172.028L565.325,172.028L565.327,172.028L565.329,172.03L565.329,172.031L565.329,172.033L565.328,172.035L565.325,172.037L565.324,172.039L565.324,172.041L565.326,172.044L565.328,172.047L565.331,172.051L565.333,172.053L565.334,172.055L565.333,172.057L565.332,172.058L565.331,172.059L565.328,172.058L565.326,172.059L565.323,172.063L565.321,172.065L565.32,172.068L565.319,172.07L565.318,172.071L565.316,172.071L565.315,172.071L565.314,172.071L565.312,172.072L565.311,172.072L565.311,172.073L565.31,172.073L565.309,172.074L565.309,172.075L565.309,172.076L565.309,172.077L565.309,172.079L565.31,172.081L565.31,172.082L565.31,172.082L565.31,172.083L565.308,172.086L565.308,172.087L565.306,172.087L565.306,172.085L565.305,172.083L565.304,172.082L565.302,172.08L565.3,172.074L565.299,172.072L565.298,172.069L565.297,172.068L565.297,172.065L565.296,172.063L565.296,172.061L565.295,172.059L565.294,172.057L565.292,172.055L565.291,172.054L565.289,172.053L565.286,172.051L565.284,172.048L565.282,172.046L565.281,172.045L565.281,172.044L565.28,172.043L565.278,172.04L565.277,172.037L565.276,172.036L565.275,172.035L565.274,172.036L565.269,172.035L565.269,172.033L565.269,172.031L565.267,172.027L565.267,172.02L565.264,172.006L565.26,171.997L565.259,171.993L565.257,171.989L565.252,171.982L565.249,171.974L565.248,171.972L565.248,171.97L565.248,171.968L565.247,171.966L565.246,171.965L565.246,171.963L565.246,171.962L565.243,171.959L565.241,171.958L565.241,171.956L565.241,171.955L565.24,171.954L565.239,171.95L565.236,171.948L565.232,171.944L565.229,171.943L565.226,171.939L565.224,171.936L565.22,171.934L565.217,171.934L565.216,171.936L565.215,171.934L565.213,171.933L565.212,171.933L565.209,171.93L565.208,171.93L565.207,171.928L565.205,171.926L565.204,171.926L565.203,171.925L565.202,171.925L565.201,171.924L565.198,171.92L565.196,171.919L565.196,171.917L565.195,171.915L565.193,171.914L565.192,171.913L565.191,171.912L565.189,171.912L565.189,171.912L565.182,171.909L565.183,171.908L565.179,171.903L565.168,171.898L565.167,171.896L565.167,171.894L565.166,171.893L565.163,171.89L565.161,171.889L565.159,171.89L565.155,171.888L565.153,171.888L565.152,171.889L565.152,171.889L565.15,171.89L565.149,171.89L565.148,171.888L565.149,171.888L565.151,171.887L565.15,171.884L565.144,171.881L565.142,171.882L565.141,171.882L565.14,171.88L565.133,171.88L565.132,171.881L565.131,171.882L565.132,171.883L565.122,171.883L565.119,171.882L565.119,171.883L565.117,171.883L565.115,171.882L565.111,171.883L565.109,171.882L565.105,171.88L565.103,171.88L565.099,171.878L565.097,171.879L565.095,171.879L565.095,171.878L565.095,171.878L565.095,171.877L565.095,171.876L565.094,171.874L565.092,171.871L565.092,171.87L565.091,171.869L565.091,171.868L565.092,171.867L565.092,171.862L565.093,171.862L565.093,171.856L565.092,171.855L565.089,171.849L565.087,171.847L565.085,171.846L565.084,171.846L565.085,171.848L565.082,171.846L565.083,171.846L565.082,171.844L565.082,171.844L565.08,171.843L565.079,171.843L565.075,171.842L565.075,171.841L565.074,171.842L565.071,171.838L565.072,171.837L565.071,171.836L565.069,171.836L565.068,171.835L565.068,171.833L565.067,171.833L565.066,171.833L565.066,171.833L565.067,171.834L565.065,171.834L565.065,171.832L565.064,171.831L565.063,171.832L565.064,171.833L565.063,171.833L565.062,171.832L565.06,171.832L565.06,171.831L565.061,171.831L565.061,171.83L565.059,171.829L565.058,171.829L565.059,171.83L565.057,171.831L565.056,171.83L565.056,171.829L565.056,171.829L565.056,171.828L565.054,171.828L565.054,171.828L565.055,171.829L565.054,171.83L565.049,171.828L565.048,171.826L565.045,171.825L565.044,171.821L565.045,171.819L565.044,171.816L565.043,171.816L565.042,171.817L565.041,171.817L565.041,171.815L565.039,171.816L565.039,171.818L565.036,171.819L565.033,171.818L565.029,171.815L565.026,171.814L565.027,171.813L565.025,171.812L565.022,171.812L565.02,171.812L565.02,171.811L565.018,171.811L565.017,171.812L565.017,171.814L565.014,171.814L565.012,171.816L565.01,171.816L565.01,171.816L565.011,171.815L565.013,171.813L565.012,171.812L565.013,171.811L565.013,171.807L565.014,171.805L565.018,171.799L565.017,171.798L565.017,171.797L565.017,171.796L565.017,171.795L565.017,171.792L565.015,171.79L565.015,171.788L565.012,171.783L565.012,171.78L565.009,171.773L565.006,171.773L565.004,171.769L565.002,171.76L565.003,171.759L565.001,171.755L564.996,171.747L564.995,171.747L564.989,171.738L564.987,171.736L564.986,171.735L564.985,171.735L564.984,171.734L564.985,171.734L564.986,171.735L564.987,171.736L564.987,171.735L564.987,171.734L564.984,171.733L564.984,171.731L564.98,171.723L564.978,171.722L564.978,171.722L564.975,171.719L564.975,171.716L564.974,171.716L564.973,171.714L564.97,171.706L564.968,171.702L564.963,171.698L564.963,171.697L564.963,171.693L564.959,171.688L564.952,171.682L564.952,171.679L564.95,171.681L564.948,171.681L564.946,171.677L564.943,171.676L564.942,171.676L564.942,171.674L564.942,171.67L564.941,171.668L564.939,171.667L564.938,171.666L564.937,171.666L564.935,171.667L564.935,171.666L564.933,171.664L564.932,171.664L564.93,171.662L564.927,171.663L564.927,171.662L564.925,171.66L564.924,171.66L564.92,171.659L564.917,171.656L564.916,171.656L564.91,171.655L564.905,171.655L564.903,171.654L564.89,171.653L564.888,171.653L564.878,171.652L564.874,171.656L564.873,171.655L564.871,171.657L564.869,171.658L564.867,171.661L564.86,171.664L564.855,171.667L564.854,171.668L564.854,171.669L564.855,171.669L564.855,171.671L564.855,171.671L564.855,171.673L564.855,171.675L564.854,171.675L564.853,171.676L564.852,171.676L564.851,171.675L564.851,171.675L564.85,171.676L564.851,171.677L564.849,171.678L564.848,171.679L564.848,171.679L564.846,171.679L564.845,171.678L564.845,171.677L564.844,171.677L564.844,171.674L564.844,171.673L564.845,171.67L564.846,171.67L564.846,171.667L564.846,171.666L564.847,171.665L564.846,171.663L564.847,171.661L564.848,171.661L564.848,171.659L564.849,171.657L564.848,171.653L564.847,171.652L564.845,171.649L564.843,171.647L564.84,171.643L564.835,171.642L564.834,171.643L564.831,171.642L564.829,171.642L564.827,171.643L564.827,171.641L564.83,171.641L564.832,171.641L564.831,171.64L564.831,171.635L564.826,171.632L564.823,171.632L564.816,171.635L564.813,171.634L564.807,171.639L564.809,171.639L564.812,171.637L564.814,171.637L564.825,171.635L564.826,171.635L564.827,171.638L564.825,171.64L564.822,171.641L564.819,171.642L564.819,171.643L564.817,171.644L564.817,171.645L564.815,171.645L564.814,171.646L564.813,171.646L564.812,171.647L564.81,171.647L564.809,171.648L564.808,171.648L564.806,171.649L564.805,171.649L564.804,171.65L564.802,171.65L564.802,171.651L564.8,171.65L564.797,171.651L564.796,171.651L564.793,171.652L564.79,171.654L564.789,171.659L564.788,171.661L564.785,171.662L564.782,171.666L564.779,171.67L564.777,171.676L564.772,171.678L564.771,171.68L564.77,171.68L564.768,171.682L564.767,171.682L564.765,171.684L564.764,171.683L564.762,171.685L564.762,171.686L564.762,171.688L564.761,171.688L564.76,171.688L564.759,171.69L564.76,171.691L564.762,171.693L564.761,171.694L564.76,171.695L564.757,171.699L564.757,171.697L564.756,171.7L564.756,171.702L564.755,171.702L564.754,171.703L564.754,171.705L564.753,171.705L564.752,171.706L564.751,171.707L564.75,171.709L564.75,171.709L564.748,171.71L564.747,171.711L564.747,171.713L564.747,171.713L564.744,171.714L564.742,171.716L564.74,171.717L564.739,171.719L564.73,171.721L564.726,171.726L564.72,171.726L564.717,171.73L564.716,171.735L564.716,171.737L564.715,171.738L564.713,171.737L564.712,171.737L564.71,171.74L564.71,171.742L564.709,171.742L564.709,171.741L564.706,171.742L564.705,171.744L564.707,171.746L564.706,171.747L564.703,171.749L564.701,171.752L564.695,171.754L564.695,171.754L564.695,171.756L564.694,171.755L564.694,171.756L564.692,171.76L564.689,171.763L564.689,171.765L564.688,171.767L564.687,171.768L564.689,171.768L564.689,171.772L564.689,171.773L564.692,171.774L564.692,171.776L564.693,171.777L564.693,171.78L564.692,171.782L564.692,171.783L564.691,171.785L564.692,171.788L564.692,171.789L564.693,171.794L564.692,171.797L564.692,171.799L564.692,171.8L564.691,171.8L564.69,171.8L564.69,171.801L564.69,171.8L564.689,171.801L564.688,171.805L564.685,171.808L564.684,171.811L564.683,171.813L564.681,171.815L564.68,171.816L564.681,171.817L564.683,171.817L564.682,171.817L564.681,171.817L564.681,171.818L564.681,171.822L564.68,171.823L564.681,171.826L564.68,171.828L564.681,171.829L564.681,171.84L564.68,171.841L564.682,171.843L564.681,171.844L564.68,171.845L564.68,171.846L564.68,171.849L564.679,171.852L564.492,171.836L564.367,171.826L564.368,171.817L564.364,171.809L564.362,171.796L564.365,171.796L564.365,171.793L564.363,171.79L564.362,171.785L564.362,171.775L564.361,171.771L564.364,171.768L564.365,171.765L564.366,171.761L564.365,171.758L564.361,171.755L564.358,171.753L564.36,171.751L564.36,171.747L564.354,171.744L564.354,171.741L564.352,171.739L564.351,171.736L564.353,171.735L564.357,171.738L564.358,171.736L564.358,171.733L564.36,171.726L564.358,171.725L564.355,171.726L564.352,171.724L564.348,171.724L564.348,171.722L564.351,171.72L564.352,171.718L564.35,171.719L564.348,171.717L564.349,171.715L564.348,171.713L564.346,171.713L564.344,171.71L564.345,171.708L564.345,171.706L564.342,171.704L564.341,171.7L564.338,171.698L564.338,171.697L564.339,171.695L564.337,171.693L564.339,171.692L564.337,171.69L564.334,171.691L564.334,171.684L564.326,171.683L564.321,171.681L564.318,171.677L564.318,171.674L564.317,171.674L564.315,171.671L564.315,171.668L564.316,171.668L564.318,171.665L564.316,171.66L564.315,171.655L564.319,171.651L564.321,171.646L564.325,171.646L564.329,171.64L564.332,171.637L564.332,171.635L564.331,171.633L564.331,171.629L564.328,171.625L564.326,171.622L564.324,171.621L564.323,171.623L564.321,171.62L564.32,171.622L564.319,171.622L564.318,171.619L564.316,171.618L564.315,171.62L564.312,171.617L564.31,171.619L564.309,171.615L564.307,171.616L564.305,171.614L564.301,171.613L564.3,171.612L564.297,171.61L564.297,171.609L564.298,171.608L564.298,171.606L564.299,171.604L564.301,171.601L564.301,171.598L564.3,171.598L564.3,171.596L564.302,171.593L564.301,171.592L564.303,171.591L564.305,171.592L564.31,171.588L564.307,171.585L564.304,171.584L564.301,171.58L564.304,171.578L564.307,171.571L564.31,171.569L564.309,171.565L564.309,171.559L564.307,171.554L564.311,171.548L564.008,171.517L564.009,171.516L564.008,171.515L564.008,171.512L564.009,171.508L564.011,171.507L564.014,171.505L564.014,171.503L564.016,171.501L564.018,171.5L564.019,171.496L564.02,171.494L564.019,171.491L564.019,171.489L564.019,171.486L564.018,171.484L564.017,171.482L564.018,171.478L564.02,171.468L564.018,171.465L564.012,171.451L564.006,171.446L564.004,171.435L564.005,171.429L564.005,171.422L564.007,171.419L564.008,171.417L564.006,171.414L564.003,171.397L564.001,171.392L564.001,171.385L564.002,171.382L564.001,171.38L564.003,171.376L564.007,171.377L564.013,171.368L564.01,171.364L564.013,171.363L564.011,171.361L564.012,171.358L564.012,171.349L564.008,171.34L564.008,171.335L564.01,171.332L564.009,171.327L564.011,171.325L564.013,171.321L564.015,171.321L564.015,171.316L564.016,171.316L564.018,171.312L564.014,171.31L564.012,171.297L564.013,171.296L564.014,171.293L564.011,171.29L564.011,171.288L564.016,171.287L564.016,171.277L564.013,171.277L564.01,171.273L564.002,171.272L564,171.269L563.995,171.27L563.988,171.262L563.98,171.251L563.979,171.243L563.98,171.238L563.983,171.228L563.987,171.222L563.972,171.207L563.954,171.203L563.954,171.197L563.946,171.195L563.945,171.15L563.876,171.182L563.847,171.143L563.755,171.148L563.697,171.092L563.636,170.906L563.695,170.938L563.701,170.886L563.649,170.841L563.647,170.766L563.677,170.724L563.749,170.68L563.779,170.671L563.786,170.655L563.794,170.654L563.783,170.621L563.686,170.635L563.628,170.514L563.665,170.478L563.629,170.402L563.539,170.302L563.435,170.37L563.347,170.367L563.364,170.079L563.256,170.063L563.253,169.975L563.255,169.933L563.122,169.852L563.134,169.647L563.135,169.589L563.072,169.556L563.04,169.469L563.055,169.449L563.083,169.358L563.012,169.29L563.061,169.117L563.034,169.037L563.028,169.018L562.931,169.013L562.885,168.997L562.843,168.983L562.801,168.993L562.616,169.038L562.574,169.027L562.538,169.018L562.445,169.084L562.246,169.082L562.219,169.09L562.174,169.087L562.152,169.023L562.154,168.946L562.074,168.934L561.951,168.922L561.762,168.774L561.72,168.775L561.717,168.723L561.473,168.904L561.457,168.985L561.203,168.946L561.16,168.912L560.974,168.984L560.961,169.069L560.905,169.176L560.826,169.328L560.861,169.377L560.832,169.414L560.766,169.446L560.551,169.561L560.313,169.688L559.961,169.877L559.753,169.988L559.717,170.007L559.502,170.115L559.501,170.24L559.498,170.536L559.494,170.843L559.448,170.889L559.21,171.127L559.205,171.142L559.199,171.158L559.198,171.177L559.199,171.205L559.198,171.22L559.185,171.228L559.182,171.234L559.153,171.249L559.146,171.257L559.135,171.283L559.141,171.294L559.13,171.314L559.127,171.319L559.114,171.318L559.116,171.333L559.103,171.346L559.045,171.347L559.044,171.351L559.021,171.346L559.016,171.356L558.989,171.355L558.973,171.338L558.939,171.333L558.881,171.346L558.811,171.389L558.794,171.39L558.769,171.382L558.757,171.397L558.765,171.424L558.737,171.423L558.717,171.513L558.706,171.538L558.667,171.543L558.66,171.579L558.658,171.589L558.648,171.598L558.636,171.614L558.626,171.642L558.631,171.664L558.64,171.707L558.701,171.767L558.729,171.775L558.729,171.832L558.713,171.849L558.681,171.871L558.681,171.888L558.712,171.904L558.751,171.908L558.764,171.917L558.762,171.939L558.775,171.945L558.78,171.957L558.768,171.985L558.787,172.057L558.797,172.074L558.803,172.093L558.8,172.164L558.788,172.187L558.822,172.206L558.831,172.217L558.797,172.631L558.768,173.036L558.791,173.113L558.756,173.125L558.755,173.188L558.73,173.264L558.629,173.363L558.604,173.383L558.642,173.418L558.625,173.531L558.636,173.567L558.593,173.732L558.626,173.812L558.679,173.859L558.688,173.93L558.69,173.993L558.567,174.097L558.576,174.17L558.805,174.192L558.811,174.239L558.871,174.256L558.869,174.304L559.077,174.314L559.079,174.517L559.037,174.554L558.958,174.712L558.996,175L559.005,175.096L559.009,175.143L559.012,175.171L559.071,175.217L559.275,175.199L559.308,175.166L559.359,175.194L559.346,175.411L559.343,175.518L559.158,175.394L559.156,175.777L559.125,175.75L559.125,175.741L559.11,175.741L559.091,175.752L559.069,175.78L559.067,175.771L559.057,175.767L559.044,175.776L559.037,175.778L559.03,175.778L559.016,175.795L559.032,175.816L559.035,175.824L559.036,175.831L559.042,175.834L559.051,175.831L559.056,175.832L559.059,175.835L559.082,175.833L559.088,175.834L559.094,175.832L559.107,175.819L559.109,175.816L559.112,175.817L559.116,175.823L559.116,175.83L559.128,175.839L559.136,175.829L559.138,175.826L559.143,175.824L559.148,175.824L559.154,175.832L559.156,175.843L559.156,175.855L559.162,175.864L559.172,175.87L559.186,175.867L559.189,175.875L559.188,175.883L559.179,175.888L559.164,175.884L559.159,175.889L559.106,175.869L559.063,175.852L559.028,175.838L558.945,175.826L558.861,175.827L558.864,175.938L558.955,175.984L559.012,176.086L559.003,176.099L558.995,176.106L558.988,176.122L558.984,176.127L558.99,176.128L558.999,176.125L558.998,176.122L559.02,176.127L559.02,176.135L559.025,176.135L559.022,176.143L559.032,176.153L559.04,176.136L559.046,176.137L559.048,176.133L559.053,176.133L559.057,176.138L559.068,176.138L559.069,176.146L559.061,176.145L559.051,176.165L559.048,176.175L559.047,176.185L559.044,176.193L559.052,176.19L559.067,176.189L559.078,176.183L559.071,176.208L559.06,176.216L559.055,176.216L559.057,176.209L559.023,176.227L559.013,176.238L558.993,176.256L558.988,176.284L558.948,176.31L558.941,176.311L558.913,176.334L558.909,176.335L558.898,176.333L558.887,176.333L558.877,176.334L558.873,176.312L558.865,176.31L558.857,176.312L558.854,176.314L558.852,176.322L558.853,176.342L558.829,176.382L558.833,176.415L558.924,176.475L558.929,176.46L558.939,176.465L558.947,176.456L558.956,176.461L558.951,176.473L558.954,176.473L558.963,176.47L558.969,176.465L558.979,176.461L558.984,176.459L558.987,176.481L558.971,176.48L558.994,176.491L558.928,176.525L558.745,176.543L558.651,176.591L558.647,176.594L558.656,176.616L558.658,176.622L558.657,176.628L558.645,176.645L558.637,176.659L558.628,176.675L558.629,176.681L558.63,176.686L558.63,176.686L558.58,176.691L558.57,176.699L558.551,176.715L558.501,176.725L558.481,176.717L558.463,176.711L558.436,176.712L558.417,176.715L558.398,176.699L558.379,176.703L558.356,176.711L558.354,176.714L558.337,176.722L558.295,176.796L558.286,176.792L558.281,176.785L558.232,176.803L558.23,176.801L558.228,176.799L558.224,176.797L558.204,176.787L558.199,176.78L558.2,176.779L558.2,176.777L558.199,176.773L558.199,176.772L558.2,176.769L558.202,176.767L558.202,176.766L558.202,176.765L558.201,176.763L558.201,176.762L558.201,176.761L558.201,176.76L558.201,176.76L558.201,176.76L558.202,176.759L558.203,176.759L558.203,176.757L558.203,176.756L558.202,176.755L558.201,176.755L558.2,176.754L558.198,176.754L558.198,176.753L558.197,176.753L558.197,176.753L558.197,176.752L558.197,176.751L558.198,176.751L558.198,176.75L558.199,176.75L558.199,176.744L558.198,176.743L558.196,176.742L558.193,176.743L558.192,176.745L558.191,176.763L558.192,176.779L558.195,176.788L558.198,176.796L558.201,176.8L558.201,176.801L558.204,176.805L558.207,176.809L558.209,176.812L558.211,176.816L558.212,176.819L558.212,176.823L558.213,176.824L558.213,176.826L558.213,176.828L558.214,176.829L558.213,176.83L558.213,176.831L558.211,176.832L558.209,176.833L558.207,176.834L558.205,176.835L558.204,176.835L558.202,176.835L558.201,176.834L558.199,176.834L558.197,176.834L558.195,176.835L558.194,176.836L558.192,176.837L558.191,176.837L558.19,176.837L558.188,176.836L558.186,176.833L558.185,176.831L558.184,176.828L558.184,176.827L558.184,176.827L558.182,176.826L558.181,176.826L558.18,176.826L558.178,176.826L558.176,176.825L558.173,176.823L558.171,176.821L558.171,176.821L558.17,176.82L558.17,176.819L558.169,176.817L558.168,176.816L558.168,176.816L558.167,176.815L558.166,176.815L558.165,176.815L558.163,176.816L558.162,176.814L558.106,176.824L558.103,176.833L558.104,176.838L558.098,176.844L558.093,176.855L558.082,176.871L558.083,176.966L558.071,176.963L558.062,176.975L558.065,176.98L558.06,177.011L558.057,177.045L558.072,177.047L558.058,177.111L558.043,177.105L558.036,177.107L558.03,177.104L558.019,177.105L558.006,177.111L558.003,177.115L557.993,177.133L557.984,177.142L557.979,177.151L557.975,177.153L557.972,177.198L557.937,177.235L557.92,177.221L557.891,177.236L557.885,177.237L557.874,177.249L557.871,177.249L557.865,177.272L557.979,177.332L558.078,177.34L558.108,177.344ZM563.367,170.676L563.373,170.679L563.378,170.673L563.388,170.675L563.385,170.665L563.385,170.658L563.385,170.657L563.376,170.649L563.375,170.648L563.38,170.645L563.382,170.644L563.388,170.649L563.388,170.649L563.407,170.652L563.42,170.654L563.422,170.654L563.43,170.652L563.431,170.652L563.437,170.653L563.441,170.657L563.44,170.661L563.446,170.673L563.463,170.675L563.465,170.676L563.47,170.676L563.468,170.689L563.468,170.693L563.473,170.693L563.474,170.7L563.479,170.701L563.482,170.707L563.489,170.709L563.497,170.703L563.499,170.706L563.505,170.706L563.51,170.714L563.519,170.714L563.525,170.72L563.533,170.72L563.534,170.725L563.544,170.731L563.54,170.733L563.542,170.738L563.54,170.743L563.536,170.749L563.532,170.747L563.53,170.751L563.485,170.744L563.483,170.741L563.478,170.742L563.473,170.738L563.472,170.74L563.459,170.739L563.454,170.744L563.45,170.746L563.444,170.757L563.436,170.755L563.436,170.755L563.435,170.759L563.435,170.76L563.434,170.764L563.427,170.766L563.417,170.768L563.413,170.769L563.412,170.768L563.407,170.762L563.403,170.758L563.404,170.757L563.408,170.75L563.414,170.752L563.416,170.752L563.413,170.747L563.414,170.745L563.419,170.749L563.422,170.748L563.417,170.732L563.4,170.727L563.398,170.724L563.389,170.702L563.378,170.703L563.376,170.701L563.374,170.7L563.369,170.695L563.361,170.689L563.357,170.686ZM800,0L800,12.246L800,78.668L800,145.789L800,215.835L800,261.497L800,300L800,338.503L800,384.165L800,454.211L800,600L800,600L200,600L200,600L200,454.211L200,384.165L200,338.503L200,300L200,261.497L200,215.835L200,145.789L200,78.668L200,12.246L200,0L200,0L800,0Z"/>
<path d="M566.489,176.813m0,4.5a4.5,4.5 0 1,1 0,-9a4.5,4.5 0 1,1 0,9z"/>
<path d="M571.869,174.109m0,4.5a4.5,4.5 0 1,1 0,-9a4.5,4.5 0 1,1 0,9z"/>
</svg>