<?xml version="1.0" encoding="UTF-8"?>
<svg xmlns="http://www.w3.org/2000/svg" viewBox="0 0 1000 600" stroke="#000" stroke-width="0.3" fill="#ccc">
<path d="M564.5,185.092L564.509,185.099L564.503,185.092L564.502,185.087L564.512,185.08L564.514,185.082L564.519,185.088L564.526,185.075L564.519,185.06L564.525,185.056L564.523,185.045L564.526,185.042L564.534,185.056L564.538,185.061L564.542,185.066L564.553,185.071L564.567,185.065L564.569,185.071L564.574,185.083L564.579,185.083L564.589,185.097L564.596,185.096L564.599,185.104L564.603,185.108L564.608,185.118L564.612,185.108L564.615,185.105L564.616,185.094L564.61,185.089L564.61,185.077L564.609,185.071L564.602,185.064L564.611,185.051L564.611,185.043L564.605,185.04L564.596,185.031L564.594,185.005L564.618,185.002L564.636,185.031L564.644,185.046L564.644,185.05L564.65,185.051L564.651,185.039L564.663,185.041L564.669,185.043L564.684,185.047L564.698,185.036L564.713,185.024L564.722,185.021L564.737,185.017L564.74,185.028L564.741,185.033L564.758,185.029L564.754,185.049L564.749,185.061L564.756,185.065L564.755,185.079L564.766,185.088L564.773,185.095L564.781,185.098L564.781,185.104L564.758,185.111L564.759,185.132L564.771,185.136L564.791,185.132L564.807,185.13L564.808,185.137L564.823,185.142L564.841,185.147L564.844,185.16L564.851,185.167L564.855,185.163L564.87,185.179L564.879,185.189L564.871,185.198L564.884,185.206L564.892,185.209L564.904,185.21L564.916,185.204L564.926,185.207L564.934,185.212L564.946,185.225L564.954,185.23L564.969,185.224L564.971,185.218L564.977,185.216L564.983,185.213L564.987,185.213L565,185.215L565.005,185.215L565.01,185.216L565.023,185.218L565.025,185.223L565.037,185.223L565.038,185.217L565.051,185.219L565.052,185.209L565.061,185.205L565.066,185.193L565.073,185.194L565.081,185.177L565.091,185.174L565.104,185.157L565.119,185.148L565.13,185.145L565.135,185.161L565.146,185.166L565.152,185.171L565.157,185.173L565.159,185.169L565.16,185.159L565.177,185.119L565.182,185.118L565.189,185.117L565.195,185.122L565.198,185.111L565.198,185.101L565.2,185.098L565.204,185.099L565.208,185.104L565.212,185.113L565.218,185.108L565.224,185.099L565.233,185.105L565.244,185.101L565.248,185.115L565.254,185.114L565.261,185.111L565.269,185.111L565.272,185.092L565.282,185.095L565.291,185.097L565.293,185.111L565.294,185.121L565.298,185.122L565.305,185.121L565.305,185.13L565.309,185.135L565.311,185.138L565.31,185.139L565.309,185.142L565.307,185.151L565.309,185.159L565.312,185.168L565.313,185.172L565.324,185.171L565.324,185.177L565.33,185.186L565.342,185.196L565.354,185.191L565.358,185.186L565.386,185.197L565.443,185.216L565.446,185.221L565.45,185.223L565.455,185.225L565.463,185.217L565.47,185.213L565.474,185.195L565.483,185.195L565.484,185.186L565.482,185.171L565.488,185.167L565.496,185.157L565.506,185.131L565.499,185.132L565.495,185.132L565.49,185.123L565.489,185.116L565.494,185.114L565.498,185.109L565.498,185.106L565.492,185.105L565.491,185.101L565.487,185.098L565.489,185.089L565.491,185.076L565.495,185.075L565.5,185.071L565.513,185.075L565.52,185.077L565.528,185.089L565.53,185.094L565.539,185.1L565.544,185.088L565.543,185.076L565.543,185.066L565.549,185.058L565.555,185.047L565.555,185.03L565.548,185.026L565.548,185.006L565.55,184.996L565.549,184.985L565.551,184.973L565.559,184.952L565.55,184.923L565.538,184.888L565.526,184.861L565.521,184.85L565.525,184.842L565.532,184.839L565.527,184.826L565.529,184.818L565.527,184.808L565.53,184.802L565.54,184.784L565.555,184.78L565.565,184.776L565.571,184.765L565.589,184.759L565.607,184.755L565.611,184.754L565.614,184.745L565.606,184.74L565.606,184.728L565.602,184.721L565.597,184.717L565.583,184.715L565.574,184.714L565.57,184.714L565.571,184.701L565.589,184.671L565.588,184.665L565.586,184.658L565.582,184.637L565.572,184.635L565.572,184.628L565.566,184.621L565.561,184.61L565.571,184.599L565.574,184.595L565.574,184.588L565.57,184.575L565.576,184.564L565.578,184.558L565.59,184.552L565.602,184.543L565.612,184.53L565.622,184.529L565.629,184.527L565.633,184.523L565.651,184.519L565.67,184.515L565.67,184.515L565.676,184.51L565.676,184.503L565.674,184.496L565.678,184.493L565.677,184.491L565.671,184.493L565.661,184.49L565.652,184.497L565.646,184.496L565.641,184.492L565.638,184.497L565.632,184.496L565.631,184.472L565.639,184.471L565.642,184.466L565.638,184.443L565.637,184.44L565.637,184.439L565.631,184.427L565.636,184.422L565.66,184.424L565.662,184.417L565.632,184.394L565.629,184.392L565.623,184.366L565.631,184.362L565.632,184.356L565.631,184.345L565.64,184.344L565.641,184.343L565.641,184.337L565.633,184.325L565.633,184.325L565.638,184.315L565.647,184.308L565.649,184.297L565.656,184.29L565.66,184.282L565.674,184.282L565.683,184.282L565.689,184.27L565.667,184.23L565.691,184.218L565.695,184.218L565.698,184.214L565.702,184.223L565.704,184.226L565.712,184.228L565.731,184.213L565.741,184.215L565.753,184.234L565.765,184.25L565.78,184.253L565.785,184.248L565.781,184.244L565.779,184.235L565.788,184.227L565.792,184.226L565.798,184.211L565.808,184.201L565.808,184.193L565.802,184.19L565.799,184.195L565.798,184.203L565.794,184.206L565.791,184.203L565.79,184.193L565.789,184.184L565.788,184.162L565.765,184.149L565.743,184.151L565.737,184.129L565.729,184.117L565.732,184.102L565.745,184.099L565.757,184.084L565.768,184.065L565.772,184.062L565.777,184.053L565.782,184.045L565.785,184.035L565.789,184.03L565.799,184.029L565.803,184.044L565.812,184.037L565.819,184.025L565.825,184.025L565.827,184.022L565.836,184.012L565.85,183.989L565.855,183.976L565.866,183.948L565.866,183.942L565.863,183.934L565.87,183.931L565.886,183.931L565.894,183.941L565.899,183.945L565.902,183.947L565.907,183.951L565.922,183.939L565.921,183.915L565.923,183.893L565.913,183.874L565.91,183.857L565.907,183.849L565.914,183.849L565.926,183.82L565.922,183.816L565.91,183.808L565.898,183.808L565.89,183.808L565.889,183.8L565.876,183.775L565.866,183.767L565.874,183.76L565.89,183.757L565.899,183.76L565.903,183.737L565.938,183.709L565.948,183.715L565.979,183.714L565.978,183.721L565.976,183.732L566.01,183.726L566.009,183.709L566.016,183.714L566.034,183.698L566.034,183.669L566.026,183.659L566.034,183.64L566.035,183.631L566.039,183.628L566.053,183.619L566.059,183.61L566.062,183.603L566.052,183.595L566.052,183.594L566.051,183.589L566.07,183.597L566.077,183.594L566.079,183.581L566.096,183.563L566.099,183.569L566.097,183.576L566.103,183.581L566.11,183.589L566.12,183.591L566.123,183.587L566.147,183.585L566.163,183.579L566.172,183.582L566.179,183.588L566.181,183.592L566.187,183.591L566.192,183.591L566.2,183.59L566.205,183.587L566.208,183.573L566.223,183.57L566.231,183.56L566.237,183.561L566.253,183.568L566.275,183.582L566.27,183.547L566.265,183.537L566.262,183.521L566.29,183.493L566.315,183.514L566.326,183.538L566.343,183.523L566.346,183.525L566.35,183.522L566.429,183.556L566.425,183.541L566.423,183.515L566.427,183.509L566.425,183.49L566.433,183.482L566.433,183.46L566.431,183.456L566.396,183.46L566.394,183.435L566.374,183.424L566.373,183.416L566.374,183.381L566.369,183.377L566.374,183.369L566.405,183.37L566.413,183.362L566.413,183.33L566.417,183.323L566.415,183.315L566.41,183.311L566.41,183.292L566.418,183.286L566.419,183.287L566.421,183.286L566.422,183.285L566.422,183.282L566.426,183.285L566.427,183.283L566.428,183.283L566.429,183.284L566.431,183.285L566.432,183.287L566.434,183.287L566.437,183.284L566.455,183.287L566.462,183.291L566.468,183.291L566.471,183.292L566.474,183.29L566.478,183.292L566.482,183.292L566.482,183.292L566.483,183.292L566.483,183.291L566.485,183.289L566.487,183.288L566.489,183.289L566.491,183.291L566.492,183.292L566.493,183.293L566.494,183.293L566.497,183.291L566.499,183.291L566.501,183.291L566.502,183.289L566.503,183.289L566.504,183.289L566.505,183.29L566.505,183.292L566.505,183.294L566.506,183.295L566.507,183.296L566.509,183.296L566.51,183.295L566.512,183.292L566.513,183.29L566.516,183.287L566.522,183.287L566.521,183.291L566.522,183.292L566.525,183.295L566.527,183.29L566.531,183.293L566.537,183.291L566.539,183.29L566.546,183.29L566.548,183.293L566.548,183.294L566.546,183.294L566.546,183.295L566.545,183.297L566.545,183.298L566.545,183.299L566.547,183.3L566.553,183.296L566.554,183.295L566.555,183.295L566.557,183.295L566.558,183.297L566.558,183.298L566.558,183.302L566.561,183.304L566.564,183.298L566.568,183.293L566.569,183.291L566.57,183.29L566.573,183.289L566.575,183.29L566.578,183.291L566.58,183.294L566.582,183.29L566.585,183.288L566.588,183.285L566.59,183.282L566.591,183.282L566.591,183.282L566.592,183.283L566.596,183.285L566.597,183.279L566.601,183.281L566.604,183.279L566.6,183.271L566.604,183.264L566.612,183.262L566.617,183.261L566.619,183.266L566.624,183.26L566.63,183.26L566.633,183.261L566.636,183.26L566.647,183.257L566.653,183.255L566.657,183.245L566.662,183.247L566.663,183.247L566.665,183.246L566.666,183.246L566.668,183.245L566.668,183.244L566.669,183.243L566.669,183.241L566.669,183.241L566.669,183.24L566.668,183.24L566.667,183.24L566.666,183.24L566.664,183.24L566.662,183.237L566.662,183.236L566.662,183.235L566.662,183.234L566.661,183.233L566.662,183.233L566.662,183.232L566.663,183.231L566.664,183.23L566.667,183.229L566.669,183.229L566.672,183.223L566.677,183.223L566.684,183.223L566.695,183.222L566.699,183.226L566.703,183.219L566.7,183.217L566.7,183.212L566.698,183.207L566.699,183.205L566.699,183.204L566.699,183.204L566.699,183.203L566.7,183.203L566.701,183.202L566.703,183.202L566.704,183.202L566.705,183.202L566.706,183.202L566.707,183.202L566.707,183.202L566.706,183.201L566.709,183.193L566.71,183.189L566.71,183.181L566.719,183.176L566.726,183.18L566.737,183.192L566.742,183.196L566.747,183.197L566.749,183.202L566.754,183.206L566.765,183.195L566.787,183.2L566.8,183.2L566.802,183.202L566.808,183.201L566.812,183.202L566.815,183.214L566.822,183.217L566.825,183.217L566.84,183.209L566.847,183.209L566.854,183.205L566.866,183.195L566.876,183.199L566.882,183.209L566.893,183.203L566.901,183.199L566.916,183.211L566.917,183.231L566.934,183.219L566.967,183.212L566.976,183.205L566.982,183.202L566.985,183.199L566.989,183.191L566.984,183.169L566.981,183.157L566.976,183.149L566.967,183.14L566.96,183.122L566.965,183.119L566.971,183.111L566.973,183.108L566.973,183.103L566.98,183.097L566.99,183.102L566.994,183.102L566.998,183.1L567,183.102L567.003,183.113L567.016,183.124L567.018,183.122L567.013,183.112L567.018,183.105L567.032,183.092L567.037,183.085L567.042,183.08L567.048,183.068L567.058,183.067L567.073,183.06L567.058,183.045L567.054,183.025L567.037,183.025L567.033,183.032L567.014,183.032L567.012,183.042L566.99,183.042L566.986,183.031L566.961,183.03L566.961,183.016L566.966,183.014L566.972,183.007L566.996,183.007L566.999,183.003L567.023,183.002L567.022,182.985L567.029,182.975L567.039,182.97L567.047,182.979L567.054,182.983L567.061,182.982L567.067,182.976L567.072,182.968L567.079,182.965L567.084,182.968L567.088,182.977L567.104,182.97L567.096,182.956L567.1,182.946L567.104,182.937L567.112,182.935L567.118,182.937L567.142,182.964L567.144,182.954L567.153,182.942L567.163,182.933L567.206,182.931L567.213,182.941L567.225,182.952L567.241,182.954L567.248,182.951L567.264,182.951L567.269,182.946L567.277,182.947L567.279,182.956L567.278,182.971L567.284,182.977L567.289,182.977L567.307,182.991L567.311,182.983L567.334,182.986L567.34,182.999L567.362,182.973L567.37,182.959L567.366,182.948L567.37,182.941L567.379,182.937L567.384,182.938L567.383,182.933L567.394,182.927L567.398,182.928L567.398,182.921L567.394,182.916L567.39,182.913L567.395,182.906L567.394,182.903L567.393,182.897L567.386,182.898L567.379,182.899L567.376,182.89L567.374,182.886L567.379,182.869L567.38,182.867L567.374,182.865L567.372,182.862L567.37,182.86L567.372,182.856L567.379,182.856L567.382,182.855L567.386,182.854L567.389,182.854L567.396,182.856L567.396,182.849L567.397,182.846L567.401,182.842L567.398,182.837L567.395,182.835L567.389,182.835L567.383,182.832L567.383,182.824L567.381,182.817L567.377,182.814L567.375,182.808L567.376,182.807L567.377,182.804L567.378,182.8L567.377,182.798L567.374,182.784L567.374,182.777L567.391,182.778L567.391,182.767L567.391,182.754L567.392,182.748L567.387,182.748L567.383,182.75L567.382,182.748L567.378,182.745L567.377,182.743L567.378,182.74L567.379,182.739L567.379,182.738L567.381,182.736L567.384,182.732L567.387,182.728L567.389,182.726L567.397,182.722L567.398,182.719L567.396,182.714L567.395,182.709L567.396,182.704L567.397,182.702L567.399,182.696L567.4,182.695L567.406,182.697L567.409,182.693L567.414,182.691L567.412,182.683L567.412,182.676L567.406,182.678L567.401,182.681L567.398,182.682L567.396,182.681L567.398,182.673L567.4,182.666L567.399,182.665L567.402,182.659L567.403,182.659L567.404,182.66L567.406,182.662L567.412,182.657L567.412,182.651L567.405,182.649L567.402,182.646L567.4,182.65L567.398,182.648L567.393,182.648L567.381,182.641L567.357,182.638L567.356,182.638L567.356,182.638L567.356,182.638L567.355,182.637L567.355,182.636L567.355,182.636L567.355,182.635L567.354,182.635L567.354,182.634L567.354,182.634L567.353,182.634L567.353,182.634L567.352,182.634L567.352,182.634L567.351,182.634L567.352,182.633L567.352,182.633L567.352,182.633L567.352,182.632L567.352,182.632L567.351,182.631L567.351,182.631L567.35,182.631L567.35,182.631L567.349,182.631L567.349,182.631L567.348,182.631L567.348,182.632L567.348,182.632L567.347,182.632L567.347,182.632L567.346,182.632L567.346,182.631L567.346,182.631L567.345,182.631L567.345,182.631L567.344,182.631L567.344,182.631L567.344,182.63L567.343,182.63L567.343,182.63L567.342,182.63L567.342,182.63L567.342,182.63L567.342,182.63L567.342,182.629L567.343,182.629L567.343,182.629L567.343,182.629L567.342,182.629L567.342,182.629L567.342,182.629L567.341,182.629L567.341,182.629L567.341,182.628L567.341,182.628L567.34,182.627L567.34,182.627L567.34,182.627L567.339,182.628L567.339,182.628L567.339,182.628L567.338,182.627L567.338,182.627L567.339,182.627L567.339,182.627L567.339,182.627L567.339,182.626L567.339,182.625L567.338,182.625L567.337,182.624L567.335,182.623L567.335,182.619L567.33,182.614L567.324,182.61L567.324,182.605L567.321,182.596L567.317,182.589L567.32,182.589L567.318,182.583L567.323,182.582L567.322,182.58L567.321,182.577L567.324,182.571L567.322,182.564L567.343,182.559L567.355,182.558L567.356,182.56L567.369,182.557L567.37,182.557L567.375,182.573L567.383,182.572L567.392,182.572L567.396,182.569L567.397,182.566L567.397,182.563L567.397,182.561L567.396,182.56L567.394,182.558L567.392,182.557L567.39,182.557L567.389,182.558L567.388,182.558L567.387,182.558L567.387,182.557L567.386,182.553L567.382,182.551L567.389,182.548L567.386,182.543L567.391,182.541L567.389,182.536L567.407,182.531L567.408,182.522L567.408,182.521L567.406,182.511L567.406,182.51L567.406,182.51L567.402,182.509L567.4,182.508L567.399,182.508L567.398,182.507L567.398,182.506L567.398,182.503L567.397,182.496L567.397,182.494L567.396,182.493L567.394,182.492L567.393,182.491L567.393,182.49L567.392,182.489L567.392,182.487L567.392,182.485L567.391,182.482L567.39,182.481L567.39,182.48L567.389,182.479L567.389,182.477L567.389,182.476L567.389,182.476L567.39,182.476L567.39,182.475L567.395,182.474L567.396,182.474L567.396,182.474L567.397,182.474L567.399,182.478L567.399,182.479L567.399,182.48L567.399,182.48L567.399,182.481L567.4,182.483L567.4,182.484L567.4,182.485L567.4,182.487L567.401,182.487L567.402,182.487L567.402,182.486L567.402,182.486L567.402,182.485L567.403,182.485L567.404,182.485L567.405,182.485L567.405,182.485L567.405,182.484L567.405,182.483L567.405,182.483L567.404,182.483L567.403,182.482L567.403,182.481L567.402,182.48L567.402,182.477L567.401,182.476L567.401,182.476L567.4,182.475L567.399,182.475L567.398,182.474L567.398,182.473L567.398,182.472L567.398,182.472L567.408,182.467L567.405,182.466L567.405,182.466L567.405,182.465L567.405,182.465L567.405,182.464L567.405,182.464L567.403,182.463L567.402,182.462L567.401,182.462L567.401,182.461L567.4,182.459L567.4,182.457L567.397,182.453L567.397,182.453L567.396,182.455L567.396,182.455L567.395,182.455L567.395,182.456L567.395,182.456L567.394,182.457L567.393,182.457L567.393,182.457L567.392,182.457L567.391,182.458L567.391,182.459L567.39,182.459L567.39,182.459L567.389,182.459L567.388,182.459L567.388,182.46L567.387,182.46L567.387,182.461L567.386,182.463L567.385,182.464L567.385,182.465L567.384,182.466L567.384,182.466L567.383,182.467L567.381,182.469L567.381,182.469L567.38,182.469L567.379,182.469L567.378,182.469L567.377,182.469L567.376,182.469L567.374,182.471L567.374,182.471L567.373,182.471L567.373,182.471L567.372,182.47L567.37,182.468L567.37,182.468L567.37,182.468L567.369,182.467L567.369,182.466L567.37,182.466L567.384,182.458L567.39,182.454L567.392,182.449L567.393,182.445L567.397,182.441L567.395,182.436L567.4,182.432L567.399,182.431L567.398,182.429L567.398,182.429L567.397,182.429L567.396,182.429L567.396,182.429L567.395,182.429L567.395,182.429L567.395,182.428L567.395,182.428L567.395,182.428L567.395,182.427L567.394,182.427L567.394,182.427L567.394,182.427L567.393,182.427L567.393,182.427L567.393,182.427L567.393,182.426L567.393,182.426L567.392,182.426L567.392,182.426L567.391,182.426L567.391,182.426L567.39,182.425L567.39,182.426L567.39,182.426L567.389,182.426L567.389,182.427L567.389,182.427L567.388,182.427L567.388,182.427L567.388,182.427L567.388,182.426L567.388,182.426L567.388,182.426L567.388,182.425L567.387,182.425L567.387,182.425L567.387,182.425L567.386,182.425L567.386,182.425L567.387,182.426L567.387,182.426L567.387,182.426L567.386,182.427L567.386,182.427L567.385,182.427L567.385,182.427L567.384,182.426L567.384,182.426L567.384,182.425L567.384,182.425L567.383,182.425L567.383,182.424L567.384,182.424L567.383,182.423L567.383,182.423L567.382,182.423L567.382,182.422L567.383,182.422L567.383,182.421L567.382,182.42L567.381,182.419L567.381,182.415L567.372,182.409L567.367,182.41L567.361,182.399L567.364,182.391L567.36,182.383L567.359,182.38L567.374,182.366L567.376,182.364L567.377,182.364L567.378,182.364L567.386,182.365L567.387,182.361L567.385,182.358L567.381,182.354L567.38,182.353L567.38,182.351L567.378,182.348L567.377,182.347L567.376,182.346L567.376,182.345L567.376,182.344L567.376,182.343L567.372,182.341L567.368,182.337L567.367,182.335L567.367,182.329L567.368,182.327L567.376,182.322L567.378,182.321L567.378,182.32L567.378,182.319L567.372,182.314L567.343,182.296L567.355,182.279L567.358,182.276L567.359,182.274L567.361,182.273L567.362,182.271L567.363,182.27L567.363,182.269L567.364,182.269L567.365,182.268L567.365,182.267L567.365,182.266L567.365,182.265L567.365,182.264L567.365,182.263L567.365,182.262L567.365,182.261L567.366,182.259L567.367,182.258L567.367,182.257L567.367,182.256L567.367,182.254L567.367,182.253L567.368,182.252L567.368,182.251L567.369,182.25L567.37,182.25L567.371,182.25L567.372,182.249L567.373,182.249L567.374,182.249L567.374,182.249L567.374,182.248L567.374,182.247L567.374,182.246L567.374,182.246L567.375,182.245L567.375,182.245L567.375,182.244L567.376,182.244L567.377,182.243L567.377,182.243L567.377,182.242L567.377,182.241L567.378,182.241L567.379,182.24L567.379,182.239L567.38,182.239L567.38,182.238L567.381,182.237L567.382,182.237L567.382,182.237L567.383,182.236L567.384,182.236L567.385,182.237L567.385,182.244L567.389,182.246L567.392,182.249L567.392,182.252L567.391,182.255L567.395,182.257L567.397,182.253L567.399,182.255L567.405,182.262L567.405,182.263L567.405,182.263L567.405,182.264L567.405,182.265L567.406,182.265L567.409,182.265L567.411,182.265L567.416,182.268L567.42,182.27L567.427,182.258L567.425,182.256L567.419,182.253L567.418,182.256L567.415,182.254L567.419,182.246L567.422,182.243L567.438,182.24L567.442,182.242L567.451,182.242L567.462,182.249L567.468,182.254L567.471,182.258L567.477,182.257L567.481,182.262L567.489,182.265L567.494,182.264L567.499,182.268L567.504,182.263L567.499,182.252L567.512,182.246L567.512,182.242L567.511,182.241L567.51,182.234L567.51,182.232L567.51,182.23L567.51,182.229L567.509,182.227L567.51,182.227L567.51,182.226L567.511,182.226L567.511,182.225L567.511,182.224L567.509,182.222L567.508,182.22L567.494,182.223L567.481,182.218L567.471,182.212L567.461,182.216L567.451,182.218L567.448,182.215L567.445,182.212L567.453,182.205L567.455,182.201L567.465,182.193L567.465,182.192L567.464,182.191L567.463,182.19L567.461,182.19L567.461,182.189L567.46,182.189L567.46,182.188L567.459,182.186L567.459,182.184L567.458,182.184L567.456,182.184L567.454,182.184L567.453,182.182L567.452,182.181L567.451,182.181L567.449,182.182L567.448,182.182L567.447,182.181L567.446,182.18L567.446,182.178L567.445,182.177L567.442,182.173L567.441,182.173L567.44,182.173L567.438,182.175L567.437,182.175L567.436,182.175L567.436,182.173L567.436,182.172L567.436,182.171L567.435,182.171L567.435,182.17L567.434,182.171L567.432,182.172L567.43,182.172L567.43,182.172L567.429,182.171L567.428,182.168L567.427,182.167L567.426,182.167L567.426,182.168L567.425,182.172L567.424,182.173L567.422,182.174L567.42,182.174L567.419,182.175L567.419,182.175L567.418,182.174L567.418,182.173L567.419,182.172L567.419,182.169L567.418,182.168L567.418,182.168L567.417,182.168L567.417,182.168L567.415,182.169L567.413,182.171L567.412,182.172L567.411,182.173L567.41,182.173L567.41,182.172L567.409,182.171L567.409,182.17L567.409,182.169L567.409,182.169L567.411,182.169L567.412,182.169L567.413,182.168L567.413,182.167L567.413,182.166L567.412,182.166L567.41,182.165L567.409,182.166L567.406,182.168L567.405,182.169L567.405,182.169L567.404,182.169L567.404,182.168L567.404,182.168L567.405,182.167L567.405,182.167L567.406,182.166L567.407,182.165L567.409,182.164L567.41,182.163L567.411,182.163L567.411,182.162L567.411,182.161L567.408,182.161L567.407,182.161L567.407,182.162L567.405,182.162L567.404,182.163L567.403,182.162L567.403,182.162L567.404,182.161L567.405,182.159L567.406,182.159L567.408,182.158L567.408,182.157L567.408,182.156L567.405,182.155L567.404,182.155L567.403,182.157L567.403,182.157L567.401,182.158L567.401,182.158L567.4,182.157L567.401,182.156L567.401,182.155L567.402,182.154L567.402,182.153L567.402,182.153L567.403,182.152L567.403,182.152L567.404,182.152L567.404,182.151L567.405,182.151L567.405,182.151L567.405,182.15L567.404,182.149L567.403,182.148L567.402,182.147L567.402,182.146L567.402,182.145L567.402,182.145L567.404,182.145L567.405,182.144L567.405,182.144L567.405,182.143L567.404,182.142L567.402,182.143L567.402,182.142L567.401,182.142L567.402,182.141L567.402,182.141L567.403,182.14L567.404,182.139L567.404,182.138L567.404,182.137L567.405,182.137L567.406,182.137L567.406,182.137L567.406,182.138L567.407,182.139L567.407,182.139L567.408,182.139L567.409,182.138L567.41,182.137L567.411,182.136L567.411,182.136L567.41,182.134L567.408,182.132L567.408,182.13L567.407,182.129L567.408,182.128L567.409,182.127L567.412,182.126L567.413,182.126L567.414,182.125L567.414,182.123L567.414,182.12L567.414,182.118L567.415,182.118L567.421,182.118L567.422,182.118L567.422,182.118L567.423,182.116L567.42,182.115L567.416,182.11L567.414,182.108L567.413,182.101L567.413,182.097L567.413,182.093L567.413,182.092L567.413,182.091L567.414,182.092L567.414,182.093L567.415,182.095L567.418,182.098L567.422,182.099L567.423,182.098L567.426,182.094L567.428,182.091L567.431,182.086L567.433,182.084L567.434,182.082L567.434,182.078L567.442,182.071L567.479,182.085L567.484,182.091L567.509,182.07L567.512,182.064L567.505,182.051L567.505,182.05L567.503,182.042L567.502,182.04L567.497,182.021L567.504,182.021L567.513,182.015L567.518,182.022L567.523,182.015L567.527,182.009L567.529,182.006L567.528,182L567.526,181.988L567.541,181.987L567.551,181.995L567.557,182.002L567.565,182.008L567.566,182.012L567.579,182.01L567.582,182.019L567.597,182.011L567.599,182.014L567.607,182.009L567.612,181.997L567.614,181.993L567.617,181.993L567.62,181.989L567.621,181.989L567.626,181.993L567.631,181.984L567.633,181.979L567.636,181.978L567.638,181.977L567.641,181.976L567.643,181.977L567.644,181.978L567.645,181.98L567.647,181.98L567.653,181.973L567.658,181.974L567.662,181.976L567.666,181.976L567.679,181.98L567.685,181.982L567.692,181.986L567.69,181.992L567.689,181.992L567.687,181.997L567.679,182.004L567.674,182.013L567.678,182.021L567.679,182.028L567.679,182.031L567.675,182.041L567.674,182.042L567.672,182.043L567.671,182.044L567.665,182.051L567.678,182.056L567.688,182.06L567.689,182.06L567.69,182.061L567.692,182.06L567.694,182.061L567.694,182.058L567.695,182.057L567.696,182.057L567.699,182.058L567.705,182.057L567.71,182.06L567.712,182.061L567.712,182.061L567.713,182.061L567.72,182.062L567.721,182.06L567.722,182.058L567.723,182.055L567.729,182.042L567.731,182.033L567.739,182.026L567.741,182.027L567.744,182.024L567.751,182.011L567.758,182.006L567.767,182L567.789,181.985L567.796,181.964L567.799,181.958L567.809,181.94L567.81,181.938L567.814,181.933L567.817,181.926L567.822,181.909L567.824,181.904L567.827,181.899L567.827,181.898L567.828,181.897L567.832,181.893L567.833,181.892L567.835,181.89L567.837,181.889L567.837,181.889L567.846,181.885L567.844,181.884L567.843,181.883L567.842,181.882L567.841,181.881L567.841,181.88L567.84,181.879L567.84,181.879L567.84,181.879L567.84,181.878L567.84,181.877L567.839,181.876L567.839,181.876L567.839,181.875L567.839,181.874L567.84,181.874L567.84,181.873L567.84,181.873L567.841,181.872L567.841,181.871L567.841,181.87L567.841,181.868L567.841,181.868L567.841,181.866L567.84,181.865L567.84,181.865L567.839,181.864L567.839,181.863L567.838,181.863L567.838,181.862L567.838,181.862L567.84,181.861L567.842,181.859L567.843,181.858L567.848,181.857L567.843,181.846L567.839,181.845L567.837,181.844L567.829,181.846L567.829,181.844L567.829,181.843L567.829,181.842L567.829,181.841L567.829,181.839L567.834,181.837L567.838,181.837L567.843,181.831L567.844,181.832L567.845,181.832L567.851,181.832L567.852,181.824L567.853,181.817L567.855,181.805L567.847,181.801L567.851,181.793L567.863,181.772L567.855,181.758L567.843,181.741L567.803,181.682L567.795,181.669L567.789,181.661L567.76,181.663L567.764,181.64L567.764,181.636L567.768,181.617L567.77,181.605L567.772,181.599L567.773,181.597L567.774,181.596L567.775,181.592L567.776,181.591L567.776,181.591L567.778,181.584L567.779,181.582L567.779,181.581L567.779,181.581L567.78,181.581L567.781,181.581L567.785,181.581L567.785,181.581L567.786,181.581L567.787,181.58L567.787,181.579L567.786,181.578L567.785,181.577L567.785,181.575L567.784,181.574L567.784,181.573L567.785,181.572L567.785,181.572L567.786,181.572L567.788,181.573L567.789,181.572L567.789,181.572L567.79,181.572L567.79,181.571L567.79,181.571L567.791,181.571L567.795,181.571L567.796,181.571L567.796,181.57L567.797,181.567L567.796,181.564L567.796,181.562L567.795,181.561L567.794,181.561L567.793,181.56L567.792,181.56L567.792,181.56L567.79,181.56L567.79,181.56L567.781,181.56L567.775,181.561L567.773,181.561L567.772,181.561L567.77,181.561L567.767,181.561L567.762,181.562L567.76,181.562L567.759,181.562L567.759,181.562L567.755,181.564L567.753,181.565L567.751,181.567L567.75,181.568L567.747,181.569L567.745,181.568L567.748,181.55L567.754,181.517L567.758,181.496L567.762,181.468L567.743,181.459L567.733,181.453L567.718,181.445L567.708,181.44L567.705,181.437L567.702,181.431L567.701,181.428L567.701,181.427L567.699,181.425L567.694,181.416L567.693,181.414L567.691,181.409L567.689,181.401L567.689,181.4L567.689,181.399L567.69,181.398L567.691,181.397L567.712,181.39L567.714,181.39L567.718,181.39L567.72,181.389L567.721,181.388L567.723,181.387L567.724,181.387L567.725,181.387L567.726,181.386L567.727,181.386L567.727,181.385L567.727,181.384L567.726,181.383L567.725,181.383L567.724,181.383L567.724,181.382L567.724,181.373L567.724,181.37L567.724,181.368L567.724,181.366L567.723,181.364L567.721,181.363L567.72,181.362L567.715,181.357L567.714,181.356L567.713,181.355L567.712,181.354L567.718,181.346L567.726,181.352L567.732,181.355L567.734,181.356L567.736,181.356L567.739,181.356L567.742,181.355L567.745,181.353L567.747,181.352L567.75,181.35L567.751,181.348L567.752,181.344L567.752,181.338L567.75,181.324L567.749,181.316L567.75,181.31L567.752,181.306L567.753,181.302L567.754,181.296L567.754,181.289L567.751,181.281L567.746,181.272L567.736,181.256L567.732,181.249L567.727,181.242L567.72,181.234L567.714,181.226L567.706,181.208L567.704,181.2L567.703,181.195L567.704,181.191L567.712,181.181L567.729,181.163L567.731,181.16L567.733,181.156L567.733,181.148L567.733,181.144L567.73,181.139L567.719,181.129L567.715,181.125L567.711,181.122L567.71,181.119L567.709,181.117L567.709,181.116L567.708,181.114L567.707,181.112L567.705,181.108L567.703,181.105L567.7,181.103L567.696,181.1L567.691,181.096L567.688,181.092L567.686,181.087L567.681,181.073L567.672,181.051L567.668,181.044L567.666,181.042L567.663,181.037L567.667,181.033L567.679,181.02L567.684,181.014L567.705,180.989L567.711,180.982L567.719,180.971L567.723,180.965L567.727,180.958L567.734,180.949L567.734,180.948L567.734,180.948L567.734,180.947L567.735,180.946L567.735,180.945L567.735,180.941L567.735,180.941L567.735,180.935L567.736,180.931L567.736,180.929L567.737,180.928L567.738,180.926L567.738,180.925L567.739,180.924L567.744,180.917L567.74,180.914L567.739,180.911L567.738,180.909L567.738,180.907L567.736,180.903L567.734,180.9L567.733,180.898L567.738,180.892L567.74,180.889L567.742,180.886L567.743,180.886L567.746,180.882L567.749,180.879L567.751,180.878L567.753,180.878L567.768,180.867L567.771,180.864L567.777,180.858L567.78,180.855L567.786,180.847L567.789,180.843L567.791,180.839L567.792,180.837L567.794,180.833L567.796,180.827L567.797,180.824L567.798,180.82L567.798,180.817L567.798,180.815L567.798,180.813L567.797,180.805L567.796,180.801L567.795,180.797L567.794,180.795L567.794,180.792L567.793,180.791L567.793,180.79L567.792,180.787L567.792,180.784L567.791,180.781L567.791,180.776L567.791,180.772L567.791,180.769L567.792,180.762L567.793,180.759L567.802,180.768L567.8,180.772L567.813,180.771L567.815,180.773L567.817,180.772L567.818,180.771L567.815,180.764L567.82,180.758L567.825,180.755L567.836,180.752L567.838,180.75L567.839,180.749L567.841,180.74L567.851,180.736L567.853,180.744L567.853,180.746L567.853,180.748L567.859,180.747L567.859,180.742L567.861,180.741L567.867,180.739L567.876,180.737L567.894,180.737L567.899,180.752L567.904,180.751L567.919,180.749L567.916,180.747L567.914,180.745L567.913,180.742L567.912,180.741L567.912,180.74L567.913,180.738L567.913,180.737L567.915,180.736L567.917,180.734L567.919,180.733L567.922,180.733L567.925,180.732L567.927,180.731L567.929,180.73L567.931,180.728L567.932,180.726L567.934,180.723L567.935,180.722L567.937,180.722L567.938,180.721L567.94,180.722L567.941,180.722L567.943,180.723L567.944,180.724L567.946,180.725L567.948,180.729L567.951,180.732L567.952,180.734L567.953,180.736L567.954,180.739L567.956,180.744L567.956,180.745L567.958,180.746L567.963,180.748L567.964,180.748L567.965,180.748L567.966,180.747L567.966,180.746L567.965,180.744L567.963,180.741L567.963,180.739L567.963,180.737L567.964,180.736L567.965,180.735L567.966,180.734L567.967,180.733L567.969,180.733L567.973,180.733L567.976,180.733L567.978,180.732L567.98,180.731L567.982,180.729L567.983,180.728L567.984,180.726L567.984,180.723L567.984,180.72L567.983,180.716L567.983,180.712L567.983,180.709L567.983,180.703L567.984,180.701L567.985,180.7L567.986,180.699L567.987,180.698L567.988,180.698L567.989,180.698L567.993,180.699L567.997,180.699L568.001,180.699L568.004,180.698L568.007,180.698L568.009,180.697L568.013,180.695L568.014,180.694L568.015,180.693L568.016,180.691L568.016,180.69L568.017,180.689L568.017,180.688L568.017,180.686L568.017,180.686L568.016,180.684L568.015,180.682L568.014,180.68L568.013,180.675L568.012,180.672L568.01,180.668L568.01,180.666L568.01,180.664L568.011,180.661L568.014,180.66L568.019,180.659L568.023,180.659L568.03,180.657L568.036,180.655L568.038,180.654L568.039,180.652L568.04,180.651L568.04,180.65L568.039,180.649L568.038,180.647L568.038,180.646L568.036,180.645L568.033,180.643L568.03,180.642L568.029,180.642L568.027,180.641L568.025,180.641L568.023,180.641L568.021,180.642L568.019,180.643L568.017,180.644L568.015,180.645L568.013,180.647L568.011,180.648L568.009,180.65L568.007,180.651L568.006,180.651L568.004,180.651L568.003,180.651L568,180.648L567.998,180.645L567.997,180.642L567.995,180.639L567.994,180.637L567.993,180.634L567.991,180.631L567.99,180.63L567.987,180.628L567.983,180.625L567.979,180.622L567.975,180.62L567.971,180.617L567.968,180.614L567.965,180.611L567.963,180.607L567.961,180.604L567.96,180.601L567.958,180.596L567.955,180.585L567.953,180.582L567.953,180.579L567.953,180.577L567.953,180.573L567.954,180.571L567.955,180.568L567.956,180.565L567.958,180.562L567.958,180.558L567.958,180.556L567.958,180.553L567.956,180.548L567.955,180.544L567.952,180.537L567.952,180.535L567.951,180.53L567.951,180.527L567.951,180.522L567.952,180.519L567.954,180.516L567.956,180.514L567.96,180.512L567.962,180.511L567.965,180.51L567.967,180.51L567.97,180.51L567.977,180.51L567.983,180.511L567.986,180.512L567.989,180.513L567.99,180.513L567.993,180.512L567.997,180.511L568.001,180.51L568.003,180.509L568.007,180.508L568.011,180.508L568.013,180.509L568.015,180.51L568.019,180.511L568.025,180.513L568.03,180.514L568.034,180.514L568.042,180.514L568.048,180.514L568.053,180.513L568.057,180.512L568.062,180.508L568.065,180.507L568.066,180.505L568.068,180.504L568.068,180.502L568.068,180.499L568.068,180.497L568.066,180.491L568.064,180.485L568.064,180.482L568.065,180.476L568.066,180.473L568.066,180.47L568.066,180.466L568.065,180.463L568.065,180.459L568.065,180.456L568.067,180.453L568.069,180.451L568.072,180.45L568.077,180.449L568.082,180.45L568.084,180.449L568.086,180.449L568.087,180.448L568.089,180.446L568.089,180.444L568.09,180.442L568.089,180.435L568.088,180.428L568.087,180.422L568.086,180.419L568.085,180.416L568.083,180.411L568.08,180.406L568.079,180.401L568.079,180.398L568.079,180.394L568.083,180.385L568.085,180.379L568.086,180.374L568.086,180.372L568.086,180.369L568.087,180.367L568.088,180.365L568.089,180.364L568.093,180.361L568.096,180.359L568.1,180.359L568.102,180.359L568.104,180.36L568.105,180.362L568.105,180.364L568.105,180.366L568.102,180.372L568.102,180.375L568.102,180.377L568.102,180.38L568.104,180.381L568.106,180.382L568.108,180.383L568.111,180.381L568.113,180.38L568.115,180.378L568.116,180.37L568.117,180.364L568.118,180.361L568.12,180.356L568.122,180.354L568.124,180.352L568.125,180.352L568.125,180.352L568.126,180.352L568.128,180.353L568.129,180.354L568.13,180.355L568.131,180.357L568.132,180.36L568.134,180.364L568.136,180.372L568.137,180.375L568.139,180.378L568.14,180.379L568.142,180.38L568.145,180.381L568.148,180.38L568.152,180.38L568.155,180.378L568.159,180.376L568.161,180.373L568.162,180.369L568.162,180.364L568.161,180.362L568.161,180.358L568.16,180.353L568.159,180.347L568.158,180.34L568.157,180.325L568.157,180.32L568.158,180.314L568.159,180.308L568.159,180.305L568.159,180.301L568.159,180.296L568.158,180.291L568.157,180.284L568.156,180.281L568.155,180.276L568.154,180.273L568.154,180.271L568.153,180.269L568.152,180.267L568.151,180.265L568.147,180.253L568.145,180.245L568.144,180.241L568.144,180.238L568.144,180.235L568.143,180.228L568.143,180.221L568.14,180.206L568.14,180.191L568.139,180.188L568.138,180.177L568.138,180.174L568.139,180.168L568.138,180.163L568.138,180.157L568.138,180.153L568.138,180.151L568.139,180.148L568.14,180.146L568.142,180.144L568.144,180.142L568.146,180.141L568.148,180.14L568.149,180.14L568.153,180.14L568.155,180.14L568.157,180.139L568.158,180.138L568.159,180.137L568.16,180.136L568.16,180.131L568.16,180.129L568.159,180.126L568.159,180.122L568.159,180.12L568.16,180.116L568.164,180.11L568.167,180.106L568.169,180.104L568.171,180.101L568.173,180.098L568.174,180.095L568.177,180.088L568.178,180.086L568.179,180.085L568.181,180.084L568.183,180.084L568.184,180.084L568.185,180.084L568.187,180.085L568.188,180.086L568.19,180.088L568.192,180.094L568.193,180.096L568.196,180.103L568.196,180.105L568.197,180.108L568.198,180.11L568.199,180.111L568.2,180.111L568.202,180.111L568.207,180.11L568.208,180.11L568.211,180.108L568.213,180.106L568.217,180.104L568.219,180.103L568.223,180.102L568.226,180.102L568.229,180.102L568.231,180.102L568.241,180.106L568.248,180.107L568.25,180.108L568.253,180.108L568.257,180.107L568.26,180.107L568.262,180.106L568.264,180.104L568.267,180.101L568.269,180.099L568.27,180.097L568.275,180.088L568.276,180.085L568.277,180.082L568.277,180.079L568.277,180.076L568.277,180.072L568.277,180.068L568.276,180.063L568.276,180.06L568.275,180.058L568.275,180.056L568.273,180.05L568.271,180.044L568.27,180.041L568.269,180.038L568.269,180.035L568.268,180.028L568.267,180.025L568.268,180.021L568.269,180.013L568.269,180.009L568.271,180.004L568.271,180.003L568.274,179.996L568.277,179.991L568.279,179.989L568.28,179.988L568.281,179.987L568.282,179.987L568.283,179.987L568.284,179.987L568.285,179.988L568.286,179.989L568.287,179.99L568.287,179.99L568.287,179.991L568.286,179.993L568.284,179.995L568.283,179.998L568.281,180L568.281,180.002L568.28,180.003L568.28,180.009L568.281,180.011L568.281,180.014L568.284,180.017L568.285,180.018L568.286,180.02L568.287,180.02L568.289,180.021L568.29,180.021L568.291,180.021L568.292,180.02L568.293,180.019L568.294,180.018L568.294,180.017L568.295,180.016L568.296,180.015L568.297,180.012L568.298,180.01L568.302,179.996L568.308,179.983L568.309,179.971L568.306,179.958L568.306,179.948L568.311,179.936L568.323,179.921L568.326,179.916L568.332,179.905L568.335,179.9L568.345,179.891L568.354,179.882L568.366,179.873L568.372,179.867L568.374,179.864L568.378,179.858L568.381,179.851L568.385,179.846L568.386,179.843L568.386,179.838L568.386,179.836L568.386,179.834L568.387,179.832L568.388,179.83L568.389,179.827L568.391,179.823L568.395,179.817L568.397,179.818L568.397,179.818L568.398,179.819L568.399,179.819L568.4,179.819L568.401,179.818L568.402,179.818L568.403,179.818L568.404,179.818L568.405,179.818L568.405,179.818L568.405,179.818L568.405,179.819L568.404,179.819L568.404,179.82L568.404,179.821L568.406,179.822L568.407,179.822L568.408,179.821L568.409,179.821L568.409,179.821L568.409,179.822L568.409,179.822L568.409,179.823L568.409,179.823L568.41,179.823L568.41,179.823L568.41,179.823L568.411,179.823L568.412,179.822L568.412,179.821L568.413,179.82L568.413,179.819L568.415,179.818L568.418,179.817L568.419,179.817L568.42,179.817L568.422,179.817L568.423,179.817L568.424,179.817L568.425,179.817L568.426,179.817L568.427,179.817L568.428,179.817L568.429,179.816L568.429,179.816L568.432,179.815L568.432,179.814L568.432,179.812L568.427,179.812L568.427,179.812L568.427,179.809L568.423,179.805L568.422,179.803L568.425,179.8L568.432,179.797L568.434,179.796L568.436,179.795L568.441,179.793L568.449,179.791L568.45,179.792L568.448,179.797L568.447,179.799L568.446,179.801L568.453,179.808L568.456,179.806L568.455,179.805L568.454,179.803L568.453,179.8L568.456,179.795L568.457,179.793L568.46,179.792L568.465,179.795L568.468,179.798L568.47,179.799L568.471,179.798L568.478,179.807L568.477,179.808L568.477,179.81L568.478,179.811L568.48,179.812L568.483,179.811L568.488,179.809L568.495,179.806L568.505,179.8L568.509,179.796L568.51,179.798L568.515,179.791L568.565,179.747L568.563,179.738L568.579,179.721L568.584,179.709L568.594,179.693L568.601,179.688L568.592,179.678L568.602,179.664L568.617,179.658L568.627,179.651L568.631,179.651L568.634,179.652L568.635,179.654L568.644,179.659L568.651,179.659L568.651,179.653L568.656,179.636L568.647,179.63L568.649,179.619L568.649,179.607L568.634,179.611L568.628,179.592L568.624,179.586L568.615,179.586L568.609,179.569L568.585,179.543L568.58,179.527L568.594,179.517L568.604,179.528L568.631,179.504L568.618,179.504L568.597,179.476L568.59,179.474L568.589,179.468L568.584,179.461L568.576,179.458L568.56,179.466L568.527,179.441L568.537,179.43L568.527,179.424L568.51,179.419L568.498,179.401L568.503,179.393L568.483,179.378L568.47,179.364L568.446,179.365L568.414,179.316L568.427,179.317L568.437,179.309L568.443,179.294L568.449,179.289L568.473,179.273L568.478,179.261L568.48,179.263L568.48,179.272L568.5,179.268L568.5,179.26L568.506,179.248L568.499,179.239L568.482,179.24L568.475,179.235L568.465,179.23L568.457,179.213L568.457,179.201L568.46,179.195L568.457,179.184L568.449,179.186L568.451,179.174L568.403,179.179L568.407,179.144L568.421,179.129L568.427,179.118L568.43,179.109L568.421,179.108L568.411,179.089L568.396,179.076L568.393,179.065L568.373,179.042L568.371,179.024L568.365,178.997L568.317,178.972L568.299,178.979L568.279,178.961L568.28,178.945L568.23,178.929L568.238,178.915L568.217,178.887L568.197,178.879L568.182,178.893L568.166,178.894L568.156,178.889L568.149,178.881L568.15,178.839L568.133,178.839L568.122,178.847L568.105,178.868L568.094,178.884L568.065,178.891L568.058,178.892L568.058,178.876L568.053,178.864L568.023,178.84L568.006,178.85L567.99,178.835L567.977,178.839L567.971,178.83L567.942,178.839L567.94,178.852L567.923,178.854L567.897,178.851L567.883,178.844L567.852,178.861L567.83,178.842L567.826,178.834L567.824,178.829L567.804,178.831L567.801,178.831L567.771,178.839L567.738,178.844L567.711,178.849L567.711,178.862L567.712,178.871L567.708,178.871L567.704,178.879L567.693,178.878L567.681,178.857L567.676,178.859L567.665,178.867L567.666,178.873L567.654,178.878L567.616,178.913L567.558,178.916L567.56,178.936L567.555,178.937L567.542,178.942L567.535,178.956L567.521,178.981L567.497,178.99L567.494,178.992L567.484,178.983L567.482,178.973L567.466,178.979L567.446,178.969L567.439,178.973L567.43,178.978L567.447,178.99L567.445,179L567.449,179.008L567.443,179.008L567.425,178.996L567.404,179.011L567.383,179.011L567.387,178.994L567.363,178.993L567.352,178.983L567.344,178.994L567.336,178.991L567.325,178.995L567.321,178.997L567.298,178.987L567.283,178.976L567.281,178.963L567.277,178.962L567.273,178.961L567.27,178.961L567.269,178.961L567.267,178.961L567.266,178.961L567.265,178.961L567.264,178.961L567.264,178.961L567.262,178.961L567.257,178.96L567.252,178.962L567.244,178.961L567.238,178.955L567.236,178.958L567.233,178.962L567.222,178.98L567.216,179L567.213,179.013L567.208,179.005L567.196,179.021L567.171,179.018L567.141,179.004L567.121,178.982L567.125,178.981L567.124,178.972L567.115,178.97L567.107,178.963L567.094,178.97L567.083,178.973L567.074,178.969L567.07,178.972L567.06,178.974L567.055,178.976L567.049,178.978L567.04,178.973L567.007,178.973L566.976,178.954L566.967,178.936L566.937,178.879L566.919,178.882L566.912,178.873L566.903,178.87L566.902,178.881L566.883,178.878L566.873,178.872L566.864,178.865L566.862,178.857L566.852,178.856L566.852,178.845L566.833,178.838L566.814,178.826L566.818,178.819L566.801,178.802L566.805,178.796L566.795,178.785L566.818,178.737L566.843,178.746L566.873,178.746L566.893,178.725L566.884,178.674L566.876,178.653L566.859,178.651L566.842,178.622L566.834,178.616L566.829,178.616L566.825,178.622L566.796,178.638L566.797,178.649L566.783,178.648L566.747,178.631L566.744,178.611L566.746,178.594L566.751,178.578L566.756,178.567L566.757,178.557L566.753,178.553L566.748,178.556L566.743,178.565L566.726,178.563L566.731,178.545L566.724,178.538L566.716,178.532L566.709,178.522L566.709,178.511L566.71,178.502L566.703,178.488L566.698,178.478L566.7,178.465L566.701,178.453L566.698,178.448L566.696,178.446L566.694,178.437L566.691,178.423L566.691,178.41L566.691,178.399L566.689,178.391L566.691,178.375L566.697,178.368L566.7,178.358L566.696,178.354L566.686,178.359L566.677,178.357L566.676,178.353L566.673,178.348L566.664,178.352L566.663,178.361L566.657,178.357L566.651,178.358L566.65,178.365L566.644,178.366L566.639,178.364L566.633,178.358L566.628,178.362L566.622,178.364L566.622,178.358L566.626,178.354L566.628,178.35L566.623,178.346L566.59,178.303L566.524,178.303L566.479,178.334L566.472,178.326L566.465,178.329L566.452,178.322L566.449,178.308L566.438,178.279L566.426,178.27L566.419,178.251L566.423,178.235L566.39,178.226L566.399,178.213L566.383,178.168L566.354,178.139L566.339,178.107L566.345,178.094L566.336,178.086L566.32,178.078L566.322,178.05L566.304,178.047L566.264,178.064L566.232,178.059L566.2,178.103L566.186,178.058L566.188,178.048L566.161,178.026L566.148,178.008L566.148,177.995L566.095,177.937L566.077,177.931L566.061,177.913L566.059,177.91L566.055,177.901L566.055,177.889L566.042,177.872L566.031,177.863L566.007,177.845L565.999,177.84L565.979,177.886L565.971,177.88L565.969,177.886L565.955,177.907L565.952,177.908L565.949,177.914L565.949,177.92L565.952,177.923L565.952,177.925L565.945,177.926L565.942,177.924L565.929,177.926L565.917,177.923L565.905,177.918L565.899,177.912L565.895,177.911L565.889,177.913L565.83,177.904L565.821,177.905L565.817,177.906L565.811,177.907L565.805,177.903L565.794,177.905L565.789,177.905L565.78,177.912L565.779,177.919L565.78,177.922L565.776,177.927L565.771,177.929L565.768,177.932L565.763,177.93L565.76,177.927L565.761,177.922L565.759,177.919L565.758,177.903L565.755,177.884L565.763,177.883L565.762,177.869L565.751,177.861L565.741,177.857L565.738,177.85L565.726,177.856L565.714,177.83L565.71,177.832L565.718,177.86L565.697,177.858L565.691,177.859L565.667,177.873L565.658,177.875L565.649,177.885L565.646,177.883L565.635,177.892L565.634,177.897L565.632,177.898L565.631,177.9L565.63,177.901L565.627,177.899L565.624,177.893L565.624,177.891L565.625,177.888L565.628,177.884L565.629,177.879L565.628,177.876L565.626,177.875L565.625,177.874L565.624,177.872L565.623,177.87L565.623,177.869L565.622,177.868L565.621,177.865L565.62,177.863L565.618,177.861L565.611,177.858L565.609,177.857L565.606,177.856L565.605,177.855L565.605,177.853L565.606,177.85L565.608,177.848L565.611,177.846L565.612,177.846L565.613,177.845L565.613,177.841L565.615,177.839L565.617,177.835L565.62,177.833L565.62,177.832L565.62,177.831L565.619,177.83L565.618,177.829L565.617,177.827L565.618,177.824L565.617,177.823L565.618,177.821L565.617,177.821L565.615,177.818L565.615,177.818L565.616,177.816L565.616,177.816L565.615,177.816L565.615,177.815L565.614,177.815L565.615,177.814L565.617,177.813L565.618,177.811L565.617,177.81L565.617,177.809L565.615,177.808L565.614,177.808L565.612,177.808L565.611,177.808L565.612,177.81L565.611,177.811L565.609,177.811L565.609,177.81L565.608,177.809L565.605,177.81L565.601,177.81L565.599,177.809L565.598,177.805L565.598,177.804L565.597,177.805L565.595,177.804L565.595,177.803L565.594,177.803L565.591,177.806L565.59,177.806L565.588,177.807L565.587,177.806L565.586,177.806L565.586,177.805L565.586,177.804L565.584,177.804L565.583,177.803L565.583,177.801L565.586,177.798L565.589,177.796L565.588,177.795L565.589,177.793L565.589,177.792L565.588,177.79L565.586,177.789L565.583,177.788L565.582,177.787L565.581,177.787L565.578,177.789L565.577,177.791L565.574,177.792L565.572,177.792L565.571,177.793L565.572,177.794L565.575,177.794L565.576,177.795L565.575,177.796L565.573,177.797L565.571,177.797L565.57,177.796L565.57,177.794L565.568,177.794L565.567,177.795L565.564,177.797L565.561,177.797L565.56,177.796L565.559,177.795L565.556,177.796L565.554,177.796L565.551,177.792L565.549,177.792L565.548,177.79L565.55,177.788L565.552,177.786L565.552,177.784L565.551,177.782L565.549,177.78L565.547,177.779L565.546,177.778L565.547,177.777L565.547,177.777L565.549,177.779L565.55,177.778L565.549,177.776L565.549,177.774L565.551,177.773L565.554,177.772L565.555,177.77L565.557,177.763L565.485,177.769L565.461,177.78L565.442,177.785L565.435,177.789L565.43,177.797L565.431,177.805L565.441,177.811L565.446,177.82L565.446,177.828L565.438,177.834L565.432,177.841L565.43,177.849L565.408,177.851L565.404,177.863L565.4,177.861L565.4,177.838L565.392,177.826L565.391,177.798L565.376,177.778L565.361,177.777L565.351,177.761L565.337,177.765L565.325,177.757L565.317,177.756L565.311,177.749L565.292,177.75L565.25,177.72L565.23,177.706L565.207,177.682L565.192,177.692L565.183,177.725L565.123,177.743L565.04,177.756L565.01,177.704L565.025,177.682L564.997,177.689L564.983,177.666L564.915,177.707L564.907,177.823L564.874,177.826L564.877,177.857L564.907,177.863L564.907,177.868L564.929,177.875L564.98,177.948L564.987,177.958L564.987,177.97L564.997,177.974L565.003,177.981L565.023,177.975L565.043,177.976L565.06,177.99L565.029,178.011L565.037,178.023L565.026,178.025L565.001,178.048L565.01,178.063L564.996,178.067L564.984,178.084L564.965,178.095L564.951,178.109L564.902,178.151L564.867,178.146L564.897,178.184L564.887,178.21L564.86,178.237L564.865,178.261L564.869,178.265L564.87,178.299L564.871,178.361L564.872,178.384L564.746,178.379L564.737,178.34L564.593,178.343L564.586,178.338L564.58,178.345L564.565,178.331L564.548,178.344L564.532,178.318L564.512,178.333L564.501,178.321L564.495,178.325L564.497,178.329L564.484,178.338L564.503,178.386L564.491,178.386L564.479,178.401L564.461,178.394L564.456,178.344L564.438,178.307L564.428,178.311L564.415,178.327L564.393,178.299L564.393,178.294L564.357,178.301L564.352,178.276L564.315,178.282L564.316,178.263L564.289,178.268L564.262,178.257L564.261,178.263L564.263,178.276L564.26,178.283L564.25,178.286L564.261,178.299L564.274,178.299L564.275,178.324L564.257,178.327L564.245,178.336L564.247,178.348L564.235,178.36L564.232,178.404L564.213,178.428L564.212,178.441L564.206,178.441L564.202,178.439L564.2,178.433L564.193,178.427L564.184,178.443L564.187,178.446L564.144,178.492L564.138,178.491L564.022,178.404L563.807,178.399L563.62,178.399L563.492,178.399L563.441,178.394L563.434,178.397L563.408,178.415L563.364,178.447L563.327,178.458L563.316,178.463L563.306,178.468L563.327,178.5L563.333,178.502L563.372,178.524L563.357,178.546L563.33,178.547L563.309,178.548L563.295,178.555L563.266,178.555L563.258,178.563L563.261,178.598L563.276,178.6L563.278,178.609L563.267,178.617L563.256,178.623L563.242,178.627L563.233,178.642L563.212,178.659L563.212,178.67L563.211,178.703L563.2,178.702L563.164,178.762L563.164,178.77L563.161,178.775L563.154,178.777L563.146,178.774L563.123,178.783L563.109,178.777L563.055,178.713L563.014,178.722L562.941,178.737L562.912,178.72L562.873,178.718L562.862,178.728L562.854,178.729L562.847,178.767L562.852,178.782L562.843,178.827L562.829,178.902L562.838,178.915L562.846,178.92L562.863,178.926L562.866,178.979L562.824,179.056L562.8,179.082L562.798,179.085L562.797,179.086L562.797,179.088L562.797,179.092L562.797,179.093L562.796,179.094L562.795,179.095L562.753,179.16L562.735,179.179L562.713,179.184L562.746,179.239L562.775,179.287L562.754,179.291L562.748,179.281L562.734,179.272L562.726,179.272L562.717,179.275L562.715,179.287L562.71,179.305L562.71,179.32L562.715,179.333L562.725,179.345L562.73,179.352L562.729,179.362L562.716,179.368L562.713,179.377L562.707,179.384L562.687,179.383L562.678,179.375L562.663,179.378L562.654,179.376L562.646,179.385L562.638,179.383L562.625,179.396L562.622,179.396L562.62,179.404L562.607,179.41L562.601,179.419L562.583,179.418L562.573,179.4L562.568,179.399L562.566,179.404L562.571,179.413L562.57,179.422L562.567,179.436L562.56,179.447L562.557,179.464L562.559,179.471L562.56,179.478L562.555,179.488L562.547,179.49L562.544,179.503L562.514,179.51L562.513,179.502L562.497,179.488L562.488,179.473L562.469,179.475L562.465,179.454L562.467,179.447L562.461,179.443L562.429,179.471L562.411,179.463L562.397,179.456L562.389,179.46L562.384,179.459L562.38,179.467L562.363,179.478L562.379,179.494L562.379,179.506L562.389,179.509L562.386,179.521L562.375,179.526L562.374,179.532L562.379,179.539L562.358,179.551L562.357,179.571L562.352,179.586L562.337,179.585L562.326,179.57L562.303,179.568L562.292,179.591L562.292,179.598L562.294,179.611L562.294,179.617L562.283,179.619L562.281,179.616L562.278,179.618L562.279,179.623L562.279,179.628L562.276,179.634L562.277,179.635L562.281,179.644L562.289,179.652L562.3,179.657L562.306,179.662L562.307,179.664L562.31,179.676L562.316,179.676L562.321,179.685L562.322,179.693L562.318,179.703L562.32,179.714L562.32,179.718L562.321,179.723L562.335,179.727L562.34,179.735L562.363,179.724L562.367,179.732L562.363,179.741L562.369,179.747L562.386,179.749L562.384,179.76L562.388,179.773L562.39,179.787L562.378,179.791L562.387,179.813L562.387,179.835L562.392,179.843L562.335,179.86L562.285,179.866L562.31,179.923L562.275,179.924L562.276,179.937L562.282,179.952L562.231,179.968L562.213,179.967L562.225,180.003L562.293,179.976L562.311,179.992L562.314,180.011L562.298,180.028L562.309,180.038L562.303,180.062L562.307,180.074L562.323,180.061L562.342,180.065L562.356,180.072L562.364,180.094L562.374,180.095L562.378,180.102L562.384,180.105L562.396,180.122L562.42,180.126L562.429,180.129L562.461,180.148L562.476,180.136L562.481,180.128L562.488,180.128L562.499,180.121L562.509,180.118L562.509,180.132L562.511,180.135L562.513,180.14L562.514,180.146L562.518,180.149L562.522,180.154L562.529,180.155L562.536,180.165L562.548,180.181L562.55,180.187L562.566,180.19L562.569,180.184L562.588,180.183L562.593,180.189L562.608,180.196L562.627,180.203L562.638,180.204L562.635,180.218L562.636,180.227L562.647,180.222L562.648,180.223L562.648,180.229L562.642,180.233L562.636,180.236L562.638,180.248L562.64,180.253L562.635,180.265L562.635,180.27L562.638,180.279L562.639,180.285L562.692,180.292L562.687,180.338L562.71,180.356L562.724,180.349L562.748,180.369L562.74,180.38L562.784,180.414L562.783,180.423L562.786,180.429L562.794,180.43L562.795,180.435L562.801,180.437L562.816,180.444L562.823,180.424L562.831,180.421L562.844,180.407L562.86,180.429L562.856,180.435L562.846,180.44L562.839,180.442L562.833,180.456L562.849,180.463L562.858,180.468L562.846,180.487L562.824,180.492L562.783,180.483L562.785,180.502L562.781,180.507L562.763,180.512L562.755,180.511L562.75,180.48L562.675,180.471L562.672,180.514L562.645,180.512L562.645,180.529L562.623,180.529L562.616,180.553L562.582,180.567L562.575,180.576L562.568,180.575L562.554,180.582L562.523,180.584L562.519,180.62L562.523,180.629L562.525,180.635L562.519,180.633L562.513,180.645L562.507,180.663L562.511,180.671L562.52,180.682L562.529,180.683L562.54,180.691L562.538,180.717L562.54,180.717L562.543,180.722L562.547,180.72L562.549,180.72L562.55,180.726L562.554,180.723L562.564,180.726L562.562,180.757L562.498,180.752L562.498,180.783L562.473,180.783L562.473,180.786L562.498,180.813L562.475,180.812L562.464,180.826L562.405,180.77L562.379,180.776L562.376,180.764L562.366,180.772L562.359,180.773L562.352,180.768L562.341,180.761L562.334,180.759L562.328,180.777L562.313,180.779L562.309,180.768L562.306,180.763L562.299,180.759L562.298,180.751L562.294,180.751L562.292,180.746L562.281,180.736L562.27,180.748L562.257,180.745L562.254,180.756L562.246,180.77L562.249,180.798L562.253,180.809L562.26,180.812L562.268,180.806L562.278,180.816L562.267,180.85L562.265,180.866L562.27,180.874L562.279,180.879L562.293,180.879L562.299,180.874L562.306,180.864L562.32,180.878L562.317,180.88L562.312,180.875L562.305,180.88L562.308,180.886L562.312,180.896L562.317,180.901L562.322,180.902L562.326,180.902L562.332,180.902L562.334,180.902L562.334,180.903L562.335,180.903L562.346,180.903L562.343,180.928L562.339,180.948L562.357,180.97L562.364,180.973L562.367,180.977L562.374,180.98L562.373,180.985L562.375,180.988L562.401,180.995L562.435,181.005L562.435,181.015L562.436,181.019L562.45,181.026L562.455,181.025L562.478,181.012L562.48,181.005L562.487,180.998L562.489,181.001L562.488,181.009L562.472,181.023L562.476,181.028L562.475,181.032L562.459,181.035L562.451,181.035L562.442,181.028L562.435,181.029L562.431,181.023L562.422,181.013L562.408,181.005L562.399,181.004L562.384,181.005L562.369,180.998L562.36,180.997L562.353,180.99L562.343,180.992L562.337,180.993L562.332,181.02L562.327,181.03L562.327,181.036L562.318,181.033L562.312,181.021L562.307,181.019L562.301,181.021L562.292,181.024L562.291,181.023L562.291,181.015L562.289,181.012L562.275,181.011L562.268,181.015L562.264,181.012L562.26,181.018L562.249,181.056L562.238,181.065L562.23,181.075L562.217,181.074L562.219,181.093L562.224,181.103L562.277,181.1L562.302,181.078L562.324,181.076L562.329,181.076L562.331,181.077L562.339,181.088L562.353,181.09L562.361,181.112L562.372,181.114L562.379,181.122L562.39,181.124L562.38,181.129L562.372,181.137L562.366,181.146L562.359,181.148L562.353,181.148L562.341,181.161L562.335,181.165L562.339,181.173L562.345,181.177L562.319,181.197L562.307,181.214L562.3,181.224L562.299,181.24L562.298,181.256L562.3,181.272L562.3,181.277L562.396,181.274L562.403,181.28L562.413,181.293L562.423,181.291L562.426,181.294L562.443,181.304L562.454,181.307L562.469,181.308L562.482,181.305L562.469,181.335L562.47,181.344L562.473,181.352L562.484,181.361L562.496,181.361L562.502,181.373L562.503,181.382L562.499,181.4L562.512,181.399L562.525,181.403L562.531,181.408L562.538,181.423L562.544,181.424L562.55,181.427L562.556,181.439L562.58,181.433L562.583,181.444L562.6,181.446L562.594,181.473L562.585,181.491L562.602,181.531L562.642,181.557L562.749,181.644L562.738,181.693L562.751,181.695L562.728,181.719L562.737,181.729L562.727,181.739L562.729,181.748L562.729,181.753L562.724,181.759L562.718,181.769L562.72,181.774L562.726,181.774L562.735,181.771L562.74,181.768L562.756,181.776L562.767,181.789L562.772,181.786L562.775,181.79L562.78,181.789L562.795,181.796L562.807,181.787L562.819,181.802L562.819,181.807L562.827,181.809L562.83,181.814L562.835,181.817L562.836,181.823L562.846,181.838L562.85,181.841L562.858,181.842L562.867,181.85L562.874,181.854L562.881,181.865L562.88,181.879L562.881,181.882L562.888,181.885L562.895,181.9L562.917,181.899L562.924,181.915L562.928,181.916L562.934,181.911L562.956,181.922L562.964,181.911L562.964,181.902L562.972,181.898L562.984,181.908L562.997,181.918L563.003,181.916L563.013,181.886L563.018,181.888L563.025,181.897L563.034,181.902L563.027,181.913L563.023,181.926L563.024,181.939L563.031,181.944L563.032,181.965L563.039,181.972L563.043,181.98L563.047,181.976L563.05,181.977L563.053,181.98L563.055,181.981L563.061,181.977L563.062,181.98L563.063,181.983L563.063,181.987L563.063,181.99L563.066,181.994L563.065,181.997L563.066,182.001L563.068,182.006L563.072,182.006L563.075,182.006L563.077,182.007L563.083,182.005L563.089,182.002L563.09,182.008L563.092,182.013L563.094,182.019L563.094,182.023L563.096,182.028L563.086,182.029L563.082,182.029L563.081,182.032L563.083,182.033L563.086,182.036L563.086,182.042L563.084,182.042L563.08,182.045L563.075,182.044L563.071,182.046L563.068,182.046L563.066,182.046L563.063,182.047L563.058,182.061L563.061,182.066L563.065,182.073L563.069,182.071L563.071,182.07L563.074,182.073L563.069,182.076L563.071,182.083L563.068,182.086L563.063,182.087L563.06,182.089L563.058,182.094L563.055,182.1L563.05,182.101L563.048,182.103L563.05,182.11L563.047,182.112L563.042,182.115L563.039,182.116L563.039,182.118L563.038,182.12L563.039,182.123L563.039,182.125L563.04,182.128L563.042,182.133L563.043,182.134L563.044,182.134L563.046,182.135L563.049,182.136L563.052,182.137L563.054,182.138L563.053,182.141L563.053,182.144L563.052,182.146L563.051,182.148L563.051,182.148L563.051,182.149L563.053,182.152L563.056,182.156L563.055,182.163L563.054,182.173L563.057,182.182L563.029,182.201L563.033,182.205L563.035,182.213L563.034,182.22L563.032,182.226L563.034,182.23L563.036,182.235L563.03,182.24L563.021,182.241L563.025,182.247L563.028,182.25L563.025,182.255L563.022,182.261L563.016,182.263L563.013,182.266L563.001,182.272L563.004,182.281L563.006,182.286L563.017,182.294L563.018,182.301L563.024,182.306L563.028,182.306L563.03,182.305L563.033,182.305L563.039,182.304L563.042,182.3L563.045,182.298L563.047,182.302L563.05,182.303L563.054,182.305L563.063,182.307L563.06,182.316L563.061,182.324L563.074,182.332L563.068,182.344L563.081,182.352L563.084,182.355L563.084,182.361L563.087,182.366L563.073,182.374L563.073,182.395L563.068,182.396L563.064,182.398L563.065,182.402L563.062,182.405L563.05,182.398L563.048,182.404L563.045,182.406L563.046,182.412L563.045,182.413L563.044,182.419L563.008,182.437L563.007,182.45L563.009,182.461L563.011,182.461L563.012,182.462L563.013,182.46L563.013,182.459L563.016,182.458L563.017,182.46L563.019,182.459L563.02,182.46L563.02,182.46L563.021,182.458L563.022,182.458L563.022,182.459L563.024,182.458L563.025,182.458L563.027,182.456L563.028,182.457L563.032,182.461L563.04,182.472L563.047,182.473L563.049,182.478L563.055,182.483L563.064,182.485L563.069,182.483L563.074,182.483L563.076,182.486L563.075,182.49L563.076,182.492L563.08,182.493L563.085,182.494L563.09,182.493L563.094,182.495L563.096,182.498L563.102,182.499L563.107,182.5L563.11,182.503L563.11,182.505L563.112,182.508L563.11,182.515L563.111,182.518L563.114,182.52L563.113,182.522L563.12,182.535L563.118,182.538L563.119,182.544L563.12,182.545L563.122,182.545L563.125,182.548L563.126,182.553L563.131,182.56L563.138,182.566L563.119,182.588L563.125,182.593L563.138,182.602L563.158,182.616L563.188,182.639L563.246,182.669L563.248,182.677L563.252,182.681L563.257,182.686L563.259,182.698L563.258,182.705L563.262,182.714L563.267,182.716L563.27,182.724L563.277,182.725L563.284,182.728L563.292,182.724L563.293,182.724L563.293,182.724L563.293,182.725L563.293,182.725L563.293,182.725L563.293,182.725L563.294,182.725L563.294,182.726L563.294,182.726L563.295,182.727L563.296,182.728L563.296,182.728L563.296,182.728L563.296,182.728L563.296,182.728L563.296,182.728L563.297,182.728L563.297,182.728L563.297,182.728L563.297,182.728L563.297,182.728L563.297,182.728L563.297,182.728L563.297,182.728L563.297,182.728L563.297,182.728L563.298,182.728L563.298,182.728L563.298,182.728L563.298,182.728L563.298,182.728L563.298,182.728L563.298,182.728L563.298,182.728L563.298,182.728L563.298,182.728L563.298,182.728L563.298,182.729L563.298,182.729L563.298,182.729L563.299,182.729L563.299,182.729L563.299,182.729L563.299,182.729L563.299,182.729L563.299,182.729L563.299,182.729L563.299,182.729L563.299,182.729L563.299,182.73L563.299,182.73L563.3,182.73L563.3,182.73L563.3,182.73L563.3,182.73L563.3,182.73L563.3,182.73L563.3,182.73L563.3,182.73L563.3,182.73L563.3,182.73L563.3,182.73L563.3,182.73L563.3,182.73L563.3,182.73L563.3,182.73L563.3,182.73L563.3,182.731L563.3,182.731L563.301,182.731L563.301,182.731L563.301,182.731L563.301,182.731L563.301,182.731L563.301,182.731L563.301,182.731L563.301,182.731L563.301,182.731L563.301,182.731L563.302,182.731L563.302,182.731L563.302,182.731L563.302,182.731L563.302,182.731L563.302,182.731L563.302,182.732L563.302,182.732L563.303,182.733L563.303,182.733L563.304,182.733L563.304,182.733L563.304,182.733L563.304,182.733L563.304,182.733L563.304,182.734L563.304,182.734L563.304,182.735L563.305,182.735L563.305,182.735L563.305,182.735L563.305,182.735L563.305,182.735L563.305,182.735L563.305,182.735L563.305,182.735L563.305,182.735L563.305,182.735L563.305,182.735L563.305,182.735L563.305,182.735L563.305,182.735L563.306,182.735L563.306,182.735L563.306,182.735L563.306,182.736L563.306,182.736L563.306,182.736L563.306,182.736L563.306,182.736L563.306,182.736L563.306,182.737L563.306,182.737L563.306,182.737L563.306,182.737L563.306,182.737L563.307,182.738L563.307,182.738L563.307,182.738L563.307,182.738L563.308,182.738L563.308,182.738L563.308,182.738L563.308,182.738L563.308,182.739L563.308,182.739L563.308,182.739L563.308,182.739L563.309,182.739L563.309,182.739L563.309,182.739L563.309,182.739L563.309,182.739L563.309,182.739L563.309,182.74L563.309,182.74L563.309,182.74L563.31,182.74L563.31,182.74L563.31,182.739L563.31,182.74L563.31,182.74L563.31,182.74L563.31,182.74L563.31,182.74L563.311,182.741L563.311,182.741L563.311,182.741L563.311,182.741L563.311,182.741L563.311,182.741L563.312,182.741L563.312,182.741L563.312,182.741L563.312,182.741L563.312,182.741L563.312,182.741L563.312,182.741L563.312,182.741L563.313,182.741L563.313,182.741L563.313,182.741L563.313,182.742L563.313,182.742L563.313,182.742L563.313,182.742L563.313,182.742L563.313,182.742L563.313,182.742L563.313,182.742L563.313,182.742L563.314,182.742L563.314,182.742L563.314,182.742L563.314,182.742L563.314,182.742L563.314,182.742L563.314,182.742L563.314,182.742L563.314,182.742L563.314,182.742L563.314,182.742L563.314,182.742L563.314,182.742L563.314,182.742L563.314,182.742L563.314,182.742L563.315,182.742L563.315,182.742L563.315,182.742L563.315,182.742L563.315,182.743L563.315,182.743L563.315,182.743L563.315,182.743L563.315,182.743L563.315,182.743L563.315,182.743L563.315,182.743L563.316,182.743L563.316,182.743L563.316,182.743L563.316,182.743L563.316,182.743L563.316,182.743L563.316,182.743L563.316,182.743L563.316,182.743L563.316,182.743L563.316,182.744L563.316,182.744L563.316,182.744L563.316,182.744L563.316,182.744L563.316,182.744L563.316,182.744L563.316,182.744L563.316,182.744L563.316,182.744L563.317,182.744L563.317,182.744L563.317,182.744L563.317,182.744L563.317,182.744L563.317,182.744L563.317,182.744L563.317,182.744L563.317,182.744L563.317,182.744L563.317,182.744L563.317,182.744L563.317,182.744L563.317,182.744L563.317,182.745L563.317,182.745L563.317,182.745L563.317,182.745L563.317,182.745L563.317,182.745L563.317,182.745L563.316,182.745L563.316,182.745L563.316,182.745L563.316,182.745L563.316,182.745L563.316,182.745L563.316,182.745L563.316,182.745L563.316,182.745L563.316,182.745L563.316,182.746L563.317,182.745L563.317,182.745L563.317,182.745L563.317,182.745L563.317,182.746L563.317,182.746L563.317,182.746L563.317,182.746L563.317,182.746L563.317,182.746L563.317,182.746L563.317,182.746L563.317,182.746L563.317,182.746L563.317,182.746L563.317,182.746L563.317,182.746L563.317,182.746L563.317,182.746L563.317,182.746L563.317,182.746L563.317,182.746L563.317,182.746L563.317,182.746L563.317,182.746L563.317,182.746L563.317,182.746L563.317,182.746L563.317,182.746L563.317,182.746L563.317,182.747L563.317,182.747L563.317,182.747L563.317,182.747L563.317,182.747L563.317,182.747L563.317,182.747L563.317,182.747L563.317,182.747L563.317,182.747L563.317,182.747L563.318,182.747L563.318,182.747L563.318,182.747L563.318,182.747L563.318,182.747L563.318,182.748L563.317,182.748L563.317,182.748L563.317,182.748L563.317,182.748L563.317,182.748L563.317,182.748L563.317,182.748L563.317,182.748L563.317,182.748L563.317,182.748L563.317,182.748L563.317,182.748L563.317,182.749L563.318,182.749L563.318,182.749L563.318,182.749L563.318,182.749L563.318,182.749L563.318,182.749L563.318,182.749L563.318,182.749L563.318,182.749L563.318,182.749L563.318,182.749L563.318,182.75L563.318,182.75L563.318,182.75L563.318,182.75L563.318,182.75L563.318,182.75L563.318,182.75L563.318,182.75L563.318,182.75L563.318,182.75L563.318,182.75L563.318,182.75L563.318,182.75L563.318,182.75L563.318,182.75L563.318,182.75L563.318,182.75L563.318,182.75L563.318,182.75L563.318,182.75L563.318,182.75L563.318,182.75L563.319,182.75L563.319,182.75L563.319,182.751L563.319,182.751L563.319,182.751L563.319,182.751L563.319,182.751L563.319,182.751L563.319,182.751L563.319,182.751L563.319,182.751L563.319,182.751L563.319,182.751L563.319,182.751L563.319,182.751L563.319,182.751L563.319,182.751L563.319,182.751L563.319,182.751L563.319,182.751L563.319,182.752L563.319,182.752L563.319,182.752L563.319,182.752L563.319,182.752L563.319,182.752L563.319,182.752L563.319,182.752L563.319,182.752L563.319,182.752L563.319,182.752L563.319,182.752L563.319,182.752L563.32,182.752L563.32,182.752L563.32,182.752L563.32,182.752L563.32,182.752L563.32,182.752L563.32,182.752L563.32,182.753L563.32,182.753L563.32,182.753L563.32,182.753L563.32,182.753L563.32,182.753L563.32,182.753L563.32,182.753L563.32,182.753L563.32,182.753L563.32,182.754L563.32,182.754L563.32,182.754L563.32,182.754L563.32,182.754L563.32,182.754L563.32,182.754L563.32,182.754L563.321,182.754L563.321,182.754L563.321,182.754L563.321,182.754L563.321,182.754L563.321,182.754L563.321,182.754L563.321,182.754L563.321,182.754L563.321,182.754L563.322,182.754L563.322,182.755L563.322,182.755L563.322,182.755L563.322,182.755L563.322,182.755L563.322,182.755L563.322,182.755L563.322,182.755L563.322,182.754L563.322,182.754L563.322,182.754L563.323,182.754L563.323,182.754L563.323,182.754L563.323,182.755L563.323,182.755L563.323,182.755L563.323,182.755L563.323,182.755L563.323,182.755L563.323,182.755L563.323,182.755L563.324,182.756L563.324,182.756L563.324,182.756L563.324,182.756L563.324,182.756L563.325,182.757L563.325,182.757L563.325,182.757L563.325,182.757L563.325,182.757L563.325,182.757L563.325,182.758L563.325,182.758L563.325,182.758L563.325,182.758L563.325,182.758L563.325,182.758L563.325,182.758L563.326,182.759L563.326,182.759L563.326,182.759L563.326,182.759L563.326,182.759L563.326,182.76L563.326,182.76L563.327,182.76L563.327,182.761L563.327,182.761L563.328,182.762L563.328,182.762L563.329,182.762L563.33,182.762L563.331,182.762L563.331,182.761L563.332,182.761L563.333,182.76L563.335,182.76L563.336,182.76L563.336,182.761L563.337,182.761L563.339,182.763L563.34,182.764L563.34,182.766L563.341,182.767L563.342,182.768L563.342,182.768L563.342,182.768L563.345,182.769L563.361,182.782L563.402,182.733L563.418,182.748L563.418,182.749L563.441,182.764L563.442,182.766L563.452,182.776L563.46,182.787L563.471,182.791L563.482,182.796L563.5,182.797L563.506,182.797L563.514,182.798L563.527,182.797L563.589,182.775L563.598,182.771L563.602,182.766L563.609,182.764L563.614,182.73L563.617,182.719L563.665,182.713L563.717,182.706L563.756,182.692L563.776,182.687L563.791,182.684L563.807,182.691L563.803,182.7L563.811,182.701L563.82,182.709L563.822,182.718L563.831,182.715L563.838,182.713L563.85,182.749L563.857,182.795L563.868,182.859L563.87,182.864L563.872,182.867L563.876,182.87L563.876,182.874L563.875,182.885L563.878,182.891L563.878,182.925L563.877,182.949L563.866,182.962L563.854,182.985L563.851,182.999L563.855,183.004L563.857,183.011L563.856,183.018L563.848,183.015L563.841,183.014L563.837,183.019L563.833,183.02L563.825,183.019L563.811,183.022L563.793,183.023L563.779,183.029L563.766,183.03L563.758,183.041L563.753,183.053L563.75,183.07L563.746,183.079L563.726,183.085L563.713,183.093L563.707,183.094L563.691,183.101L563.679,183.108L563.671,183.115L563.659,183.117L563.655,183.116L563.65,183.109L563.646,183.108L563.64,183.109L563.634,183.112L563.627,183.112L563.619,183.109L563.617,183.11L563.613,183.116L563.607,183.12L563.602,183.12L563.597,183.121L563.592,183.123L563.583,183.125L563.592,183.189L563.6,183.27L563.6,183.276L563.603,183.292L563.612,183.293L563.634,183.306L563.643,183.314L563.65,183.314L563.656,183.322L563.67,183.327L563.674,183.328L563.675,183.342L563.677,183.344L563.681,183.354L563.681,183.36L563.678,183.361L563.675,183.367L563.678,183.384L563.681,183.388L563.662,183.393L563.666,183.405L563.667,183.41L563.677,183.408L563.678,183.411L563.681,183.415L563.681,183.415L563.682,183.419L563.683,183.432L563.677,183.437L563.681,183.447L563.687,183.445L563.692,183.446L563.695,183.464L563.702,183.467L563.704,183.471L563.726,183.459L563.738,183.457L563.738,183.458L563.738,183.458L563.737,183.458L563.738,183.459L563.738,183.459L563.738,183.46L563.738,183.461L563.739,183.462L563.739,183.463L563.74,183.464L563.742,183.467L563.743,183.467L563.744,183.467L563.745,183.467L563.745,183.467L563.745,183.467L563.746,183.468L563.746,183.468L563.746,183.469L563.746,183.469L563.746,183.469L563.746,183.47L563.746,183.47L563.745,183.47L563.746,183.47L563.746,183.471L563.746,183.471L563.746,183.471L563.746,183.471L563.746,183.472L563.745,183.472L563.745,183.472L563.745,183.472L563.745,183.473L563.744,183.473L563.744,183.473L563.744,183.473L563.744,183.473L563.744,183.474L563.744,183.474L563.744,183.475L563.744,183.475L563.745,183.476L563.745,183.476L563.746,183.475L563.747,183.475L563.748,183.475L563.748,183.475L563.748,183.475L563.749,183.475L563.749,183.476L563.749,183.476L563.749,183.477L563.748,183.477L563.748,183.477L563.747,183.477L563.747,183.478L563.746,183.478L563.746,183.478L563.746,183.478L563.746,183.479L563.747,183.479L563.747,183.479L563.747,183.479L563.748,183.479L563.748,183.479L563.749,183.479L563.749,183.479L563.749,183.479L563.749,183.479L563.749,183.48L563.748,183.48L563.747,183.481L563.747,183.481L563.747,183.481L563.746,183.481L563.746,183.481L563.745,183.481L563.745,183.481L563.744,183.482L563.744,183.482L563.744,183.483L563.744,183.483L563.745,183.484L563.746,183.484L563.746,183.485L563.746,183.485L563.746,183.485L563.746,183.486L563.746,183.486L563.746,183.487L563.746,183.488L563.746,183.488L563.746,183.488L563.747,183.489L563.747,183.489L563.746,183.49L563.746,183.49L563.746,183.491L563.745,183.491L563.745,183.491L563.744,183.491L563.744,183.491L563.743,183.491L563.743,183.491L563.743,183.491L563.742,183.492L563.742,183.493L563.742,183.493L563.743,183.493L563.743,183.493L563.743,183.493L563.743,183.493L563.744,183.493L563.744,183.493L563.744,183.494L563.745,183.494L563.745,183.495L563.745,183.495L563.744,183.496L563.744,183.497L563.744,183.498L563.744,183.498L563.743,183.498L563.743,183.499L563.742,183.499L563.741,183.499L563.741,183.499L563.74,183.499L563.74,183.499L563.74,183.5L563.74,183.5L563.74,183.501L563.74,183.501L563.741,183.501L563.741,183.502L563.741,183.502L563.74,183.502L563.74,183.503L563.74,183.503L563.74,183.503L563.74,183.504L563.74,183.504L563.741,183.505L563.741,183.506L563.742,183.506L563.742,183.506L563.742,183.507L563.743,183.507L563.743,183.508L563.742,183.509L563.742,183.509L563.742,183.51L563.743,183.51L563.743,183.51L563.743,183.51L563.743,183.51L563.743,183.509L563.743,183.509L563.744,183.509L563.744,183.508L563.744,183.508L563.745,183.508L563.745,183.508L563.746,183.509L563.746,183.509L563.746,183.509L563.746,183.51L563.746,183.511L563.747,183.512L563.747,183.512L563.747,183.513L563.747,183.513L563.747,183.514L563.747,183.514L563.747,183.514L563.747,183.515L563.747,183.515L563.747,183.515L563.747,183.516L563.748,183.516L563.748,183.517L563.748,183.517L563.748,183.518L563.748,183.518L563.748,183.518L563.747,183.518L563.747,183.518L563.747,183.519L563.747,183.519L563.747,183.52L563.747,183.52L563.747,183.521L563.747,183.521L563.747,183.521L563.748,183.522L563.748,183.522L563.748,183.522L563.748,183.522L563.748,183.522L563.748,183.522L563.748,183.523L563.749,183.523L563.749,183.523L563.749,183.523L563.749,183.524L563.749,183.524L563.749,183.524L563.749,183.524L563.75,183.524L563.751,183.524L563.751,183.524L563.751,183.525L563.752,183.525L563.752,183.525L563.752,183.525L563.752,183.525L563.752,183.526L563.752,183.526L563.752,183.526L563.752,183.527L563.752,183.527L563.752,183.527L563.751,183.527L563.751,183.528L563.751,183.528L563.751,183.528L563.751,183.528L563.752,183.529L563.752,183.529L563.753,183.529L563.755,183.529L563.753,183.533L563.748,183.537L563.739,183.541L563.737,183.535L563.725,183.532L563.717,183.532L563.703,183.563L563.696,183.572L563.688,183.569L563.682,183.566L563.674,183.57L563.676,183.579L563.676,183.592L563.682,183.593L563.692,183.59L563.711,183.579L563.717,183.577L563.726,183.572L563.731,183.567L563.733,183.568L563.734,183.569L563.734,183.571L563.735,183.573L563.735,183.574L563.736,183.574L563.737,183.575L563.737,183.577L563.738,183.579L563.739,183.579L563.74,183.581L563.744,183.583L563.745,183.584L563.747,183.586L563.748,183.586L563.749,183.587L563.75,183.588L563.751,183.589L563.752,183.588L563.752,183.589L563.753,183.589L563.753,183.589L563.754,183.59L563.755,183.59L563.755,183.592L563.756,183.592L563.757,183.594L563.757,183.595L563.756,183.597L563.756,183.598L563.757,183.6L563.756,183.6L563.756,183.601L563.757,183.602L563.757,183.603L563.756,183.603L563.755,183.604L563.755,183.605L563.755,183.605L563.755,183.606L563.756,183.606L563.756,183.607L563.756,183.608L563.755,183.61L563.754,183.611L563.753,183.612L563.75,183.614L563.75,183.616L563.75,183.618L563.749,183.619L563.749,183.619L563.749,183.62L563.75,183.62L563.751,183.621L563.751,183.621L563.752,183.621L563.752,183.62L563.753,183.62L563.753,183.621L563.753,183.621L563.753,183.623L563.752,183.623L563.752,183.624L563.751,183.624L563.75,183.624L563.75,183.624L563.75,183.625L563.75,183.626L563.75,183.626L563.751,183.627L563.752,183.627L563.753,183.627L563.754,183.627L563.755,183.628L563.755,183.628L563.756,183.63L563.757,183.631L563.757,183.632L563.758,183.632L563.758,183.632L563.759,183.632L563.759,183.632L563.759,183.633L563.758,183.634L563.758,183.634L563.757,183.635L563.757,183.635L563.756,183.635L563.756,183.635L563.756,183.636L563.757,183.636L563.758,183.637L563.759,183.637L563.76,183.638L563.76,183.638L563.76,183.639L563.759,183.64L563.758,183.641L563.757,183.642L563.755,183.643L563.754,183.644L563.753,183.645L563.753,183.647L563.752,183.649L563.75,183.653L563.75,183.654L563.75,183.656L563.75,183.658L563.751,183.66L563.751,183.661L563.752,183.662L563.753,183.664L563.754,183.666L563.756,183.667L563.758,183.669L563.759,183.671L563.759,183.676L563.759,183.678L563.76,183.678L563.76,183.679L563.761,183.678L563.762,183.679L563.762,183.68L563.762,183.682L563.762,183.684L563.762,183.685L563.763,183.686L563.764,183.687L563.763,183.689L563.762,183.69L563.76,183.691L563.759,183.692L563.757,183.694L563.753,183.698L563.753,183.699L563.753,183.7L563.754,183.7L563.755,183.701L563.75,183.706L563.749,183.714L563.752,183.725L563.753,183.726L563.753,183.727L563.753,183.728L563.753,183.729L563.753,183.729L563.752,183.729L563.751,183.728L563.751,183.728L563.749,183.729L563.748,183.729L563.747,183.73L563.748,183.73L563.748,183.731L563.749,183.732L563.749,183.733L563.747,183.735L563.744,183.736L563.744,183.736L563.741,183.739L563.741,183.74L563.74,183.739L563.74,183.738L563.74,183.738L563.741,183.737L563.741,183.735L563.742,183.735L563.741,183.734L563.741,183.733L563.74,183.733L563.739,183.732L563.739,183.732L563.739,183.733L563.738,183.735L563.739,183.737L563.739,183.738L563.738,183.739L563.736,183.74L563.735,183.74L563.735,183.74L563.734,183.741L563.734,183.742L563.735,183.744L563.736,183.745L563.736,183.746L563.736,183.747L563.735,183.746L563.734,183.745L563.733,183.744L563.732,183.744L563.732,183.744L563.731,183.745L563.731,183.745L563.73,183.748L563.73,183.749L563.729,183.749L563.729,183.749L563.728,183.748L563.727,183.747L563.727,183.746L563.726,183.746L563.725,183.746L563.723,183.747L563.723,183.747L563.722,183.747L563.721,183.746L563.721,183.746L563.72,183.746L563.72,183.746L563.719,183.746L563.72,183.747L563.72,183.747L563.721,183.748L563.721,183.748L563.722,183.748L563.722,183.748L563.722,183.748L563.722,183.749L563.722,183.75L563.721,183.75L563.721,183.751L563.72,183.751L563.72,183.75L563.719,183.75L563.719,183.75L563.719,183.748L563.719,183.748L563.718,183.747L563.718,183.747L563.717,183.747L563.716,183.747L563.715,183.747L563.714,183.748L563.713,183.748L563.713,183.749L563.713,183.749L563.713,183.75L563.714,183.751L563.713,183.752L563.713,183.753L563.712,183.753L563.711,183.754L563.711,183.754L563.711,183.755L563.712,183.757L563.712,183.76L563.712,183.761L563.712,183.762L563.713,183.763L563.713,183.764L563.716,183.767L563.716,183.768L563.717,183.769L563.718,183.77L563.718,183.77L563.719,183.77L563.723,183.772L563.723,183.773L563.723,183.774L563.723,183.774L563.721,183.775L563.721,183.775L563.721,183.776L563.72,183.776L563.721,183.776L563.721,183.777L563.722,183.777L563.723,183.777L563.723,183.778L563.724,183.778L563.725,183.778L563.726,183.779L563.726,183.779L563.726,183.779L563.726,183.779L563.726,183.779L563.726,183.778L563.727,183.777L563.727,183.777L563.727,183.777L563.728,183.778L563.729,183.778L563.729,183.778L563.729,183.79L563.73,183.798L563.729,183.818L563.71,183.846L563.706,183.842L563.7,183.848L563.705,183.855L563.704,183.858L563.701,183.863L563.696,183.864L563.684,183.863L563.664,183.857L563.655,183.857L563.629,183.859L563.613,183.862L563.59,183.861L563.589,183.883L563.586,183.893L563.586,183.903L563.585,183.906L563.586,183.91L563.588,183.917L563.577,183.915L563.569,183.917L563.565,183.919L563.555,183.923L563.553,183.925L563.55,183.926L563.55,183.93L563.557,183.936L563.561,183.942L563.575,183.945L563.586,183.941L563.591,183.941L563.596,183.943L563.602,183.948L563.603,183.948L563.605,183.948L563.609,183.947L563.611,183.944L563.613,183.943L563.614,183.943L563.616,183.943L563.62,183.944L563.628,183.945L563.631,183.945L563.632,183.944L563.634,183.945L563.636,183.946L563.638,183.949L563.64,183.95L563.642,183.95L563.644,183.955L563.649,183.96L563.651,183.964L563.653,183.965L563.654,183.965L563.657,183.965L563.659,183.965L563.66,183.965L563.661,183.967L563.664,183.971L563.665,183.973L563.664,183.976L563.663,183.977L563.661,183.978L563.659,183.98L563.656,183.981L563.655,183.985L563.655,183.989L563.653,183.996L563.652,184L563.65,184.003L563.647,184.006L563.64,184.014L563.638,184.016L563.635,184.018L563.634,184.019L563.633,184.022L563.633,184.029L563.634,184.038L563.635,184.046L563.641,184.052L563.643,184.058L563.642,184.063L563.639,184.067L563.641,184.076L563.645,184.083L563.651,184.088L563.653,184.092L563.653,184.099L563.653,184.101L563.654,184.107L563.657,184.114L563.65,184.118L563.649,184.118L563.64,184.132L563.632,184.14L563.632,184.144L563.61,184.155L563.603,184.155L563.591,184.156L563.59,184.16L563.588,184.161L563.586,184.161L563.586,184.162L563.585,184.162L563.584,184.163L563.582,184.163L563.58,184.163L563.578,184.163L563.577,184.164L563.576,184.163L563.575,184.163L563.572,184.163L563.56,184.163L563.549,184.174L563.543,184.181L563.528,184.188L563.514,184.193L563.515,184.2L563.515,184.207L563.51,184.212L563.503,184.21L563.503,184.218L563.501,184.224L563.502,184.241L563.5,184.258L563.505,184.262L563.509,184.263L563.515,184.255L563.526,184.254L563.531,184.253L563.537,184.249L563.541,184.248L563.558,184.268L563.571,184.268L563.578,184.278L563.584,184.282L563.587,184.287L563.563,184.308L563.535,184.332L563.518,184.343L563.524,184.365L563.531,184.363L563.533,184.37L563.538,184.366L563.547,184.366L563.596,184.367L563.62,184.338L563.636,184.34L563.642,184.351L563.653,184.356L563.645,184.366L563.649,184.374L563.651,184.372L563.658,184.37L563.674,184.367L563.682,184.364L563.686,184.36L563.687,184.352L563.714,184.352L563.717,184.355L563.721,184.363L563.721,184.372L563.724,184.376L563.73,184.377L563.734,184.383L563.734,184.394L563.73,184.4L563.722,184.406L563.72,184.409L563.721,184.413L563.725,184.415L563.734,184.42L563.738,184.428L563.742,184.434L563.74,184.446L563.787,184.507L563.799,184.5L563.83,184.53L563.828,184.534L563.841,184.548L563.839,184.612L563.847,184.632L563.866,184.664L563.865,184.67L563.863,184.681L563.865,184.698L563.857,184.719L563.851,184.721L563.843,184.717L563.84,184.721L563.842,184.736L563.836,184.736L563.858,184.801L563.861,184.83L563.864,184.856L563.868,184.852L563.862,184.831L563.867,184.823L563.871,184.85L563.929,184.811L563.959,184.801L563.973,184.802L563.985,184.796L563.994,184.798L563.997,184.801L564.021,184.801L564.019,184.795L563.997,184.784L563.993,184.763L563.988,184.757L563.979,184.751L563.973,184.746L563.981,184.726L563.982,184.723L564.014,184.719L564.038,184.728L564.035,184.74L564.024,184.743L564.017,184.75L564.015,184.763L564.022,184.795L564.027,184.797L564.031,184.798L564.034,184.8L564.037,184.805L564.035,184.807L564.037,184.812L564.037,184.813L564.039,184.814L564.042,184.814L564.045,184.815L564.048,184.819L564.048,184.827L564.047,184.834L564.045,184.838L564.048,184.848L564.047,184.853L564.052,184.849L564.052,184.853L564.059,184.859L564.058,184.867L564.062,184.865L564.062,184.872L564.064,184.869L564.066,184.872L564.07,184.875L564.073,184.872L564.073,184.869L564.074,184.867L564.089,184.876L564.089,184.881L564.092,184.881L564.091,184.885L564.093,184.888L564.094,184.891L564.099,184.889L564.106,184.889L564.106,184.893L564.111,184.892L564.115,184.892L564.119,184.89L564.121,184.892L564.123,184.896L564.126,184.895L564.124,184.888L564.125,184.888L564.129,184.89L564.132,184.89L564.138,184.886L564.139,184.89L564.143,184.887L564.145,184.89L564.15,184.886L564.154,184.886L564.157,184.889L564.159,184.893L564.155,184.894L564.153,184.897L564.162,184.905L564.173,184.903L564.174,184.909L564.177,184.911L564.177,184.916L564.173,184.922L564.183,184.924L564.182,184.931L564.177,184.939L564.18,184.944L564.192,184.942L564.196,184.945L564.202,184.949L564.202,184.955L564.2,184.961L564.201,184.968L564.218,184.977L564.233,184.98L564.241,184.983L564.245,184.998L564.261,184.991L564.27,184.992L564.273,185.016L564.266,185.023L564.261,185.023L564.259,185.03L564.252,185.027L564.242,185.016L564.236,185.016L564.233,185.021L564.234,185.03L564.22,185.063L564.226,185.07L564.23,185.08L564.23,185.082L564.231,185.09L564.229,185.099L564.231,185.102L564.239,185.089L564.245,185.093L564.256,185.102L564.254,185.11L564.256,185.123L564.261,185.133L564.273,185.14L564.281,185.145L564.268,185.159L564.269,185.162L564.266,185.164L564.267,185.18L564.256,185.188L564.247,185.194L564.248,185.195L564.249,185.194L564.251,185.196L564.253,185.199L564.251,185.202L564.251,185.206L564.25,185.209L564.252,185.213L564.261,185.215L564.268,185.219L564.273,185.215L564.283,185.205L564.295,185.22L564.3,185.232L564.301,185.232L564.324,185.22L564.326,185.224L564.33,185.218L564.327,185.21L564.323,185.204L564.329,185.201L564.332,185.196L564.329,185.189L564.333,185.181L564.339,185.17L564.347,185.152L564.358,185.128L564.347,185.104L564.357,185.096L564.362,185.099L564.367,185.105L564.372,185.105L564.375,185.108L564.381,185.104L564.383,185.097L564.386,185.086L564.414,185.08L564.448,185.087L564.458,185.081L564.469,185.084L564.485,185.09L564.494,185.088ZM800,0L800,12.246L800,78.668L800,145.789L800,215.835L800,261.497L800,300L800,338.503L800,384.165L800,454.211L800,600L800,600L200,600L200,600L200,454.211L200,384.165L200,338.503L200,300L200,261.497L200,215.835L200,145.789L200,78.668L200,12.246L200,0L200,0L800,0Z"/>
<path d="M566.489,181.883m0,4.5a4.5,4.5 0 1,1 0,-9a4.5,4.5 0 1,1 0,9z"/>
<path d="M565.004,181.409m0,4.5a4.5,4.5 0 1,1 0,-9a4.5,4.5 0 1,1 0,9z"/>
</svg>