<?xml version="1.0" encoding="UTF-8"?>
<svg xmlns="http://www.w3.org/2000/svg" viewBox="0 0 1000 600" stroke="#000" stroke-width="0.3" fill="#ccc">
<path d="M558.246,212.235L558.246,212.236L558.247,212.24L558.247,212.243L558.247,212.245L558.254,212.244L558.26,212.247L558.262,212.248L558.261,212.248L558.266,212.25L558.296,212.266L558.315,212.276L558.318,212.277L558.345,212.291L558.369,212.303L558.394,212.299L558.424,212.296L558.433,212.394L558.437,212.434L558.438,212.435L558.438,212.444L558.439,212.452L558.44,212.466L558.442,212.485L558.444,212.506L558.448,212.535L558.449,212.54L558.449,212.544L558.449,212.546L558.446,212.55L558.443,212.552L558.437,212.552L558.428,212.554L558.433,212.593L558.435,212.603L558.436,212.608L558.437,212.615L558.441,212.649L558.443,212.659L558.446,212.663L558.443,212.666L558.446,212.679L558.449,212.703L558.45,212.71L558.453,212.736L558.468,212.734L558.483,212.733L558.489,212.732L558.49,212.732L558.5,212.731L558.503,212.731L558.51,212.73L558.547,212.73L558.556,212.733L558.574,212.739L558.616,212.749L558.641,212.757L558.677,212.768L558.712,212.781L558.734,212.793L558.746,212.8L558.756,212.805L558.769,212.811L558.779,212.815L558.792,212.819L558.792,212.819L558.795,212.82L558.795,212.82L558.797,212.821L558.797,212.821L558.96,212.99L559.113,213.105L559.117,213.102L559.137,213.081L559.155,213.058L559.172,213.035L559.187,213.011L559.2,212.985L559.212,212.959L559.218,212.943L559.22,212.941L559.24,212.92L559.258,212.898L559.275,212.874L559.29,212.85L559.303,212.825L559.313,212.821L559.34,212.809L559.365,212.796L559.389,212.78L559.413,212.764L559.435,212.745L559.456,212.726L559.475,212.705L559.494,212.682L559.51,212.659L559.526,212.634L559.534,212.619L559.56,212.609L559.587,212.597L559.612,212.583L559.636,212.568L559.66,212.551L559.682,212.533L559.703,212.513L559.722,212.492L559.741,212.47L559.745,212.481L559.761,212.509L559.779,212.536L559.798,212.561L559.82,212.586L559.843,212.608L559.867,212.629L559.893,212.649L559.919,212.667L559.948,212.682L559.977,212.696L560.007,212.708L560.037,212.718L560.069,212.725L560.101,212.731L560.133,212.734L560.165,212.735L560.197,212.734L560.229,212.731L560.261,212.725L560.292,212.717L560.323,212.708L560.353,212.696L560.382,212.682L560.41,212.666L560.437,212.648L560.463,212.629L560.487,212.608L560.51,212.585L560.531,212.561L560.55,212.535L560.568,212.508L560.584,212.48L560.597,212.451L560.608,212.445L560.633,212.431L560.658,212.416L560.681,212.399L560.703,212.381L560.724,212.361L560.744,212.34L560.762,212.317L560.779,212.294L560.794,212.27L560.807,212.244L560.819,212.218L560.829,212.191L560.831,212.184L560.838,212.183L560.87,212.176L560.902,212.168L560.91,212.166L560.919,212.179L560.937,212.201L560.957,212.222L560.978,212.241L561,212.26L561.024,212.276L561.048,212.292L561.073,212.305L561.1,212.317L561.127,212.327L561.154,212.335L561.182,212.342L561.211,212.346L561.239,212.349L561.268,212.35L561.297,212.349L561.325,212.346L561.354,212.341L561.382,212.335L561.409,212.326L561.436,212.316L561.463,212.304L561.488,212.291L561.512,212.275L561.536,212.259L561.558,212.24L561.579,212.221L561.598,212.2L561.617,212.177L561.633,212.154L561.649,212.129L561.662,212.104L561.674,212.078L561.684,212.051L561.692,212.023L561.699,211.995L561.703,211.967L561.706,211.938L561.707,211.915L561.708,211.915L561.731,211.898L561.753,211.88L561.774,211.86L561.794,211.839L561.812,211.817L561.829,211.793L561.83,211.791L561.835,211.79L561.862,211.782L561.889,211.772L561.915,211.76L561.935,211.75L561.948,211.742L561.771,211.319L561.771,211.319L561.769,211.315L561.762,211.305L561.759,211.299L561.756,211.294L561.756,211.294L561.754,211.29L561.752,211.287L561.738,211.264L561.723,211.237L561.719,211.231L561.702,211.212L561.702,211.212L561.705,211.209L561.719,211.197L561.72,211.196L561.751,211.171L561.764,211.16L561.767,211.157L561.771,211.154L561.782,211.145L561.795,211.135L561.795,211.135L561.799,211.131L561.799,211.13L561.803,211.127L561.812,211.121L561.816,211.117L561.82,211.113L561.82,211.113L561.821,211.113L561.838,211.134L561.842,211.13L561.849,211.124L561.862,211.114L561.87,211.107L561.87,211.107L561.872,211.105L561.875,211.102L561.902,211.08L561.894,211.074L561.887,211.069L561.864,211.053L561.843,211.037L561.816,211.018L561.816,211.017L561.817,211.016L561.819,211.013L561.841,210.983L561.843,210.982L561.874,210.941L561.875,210.94L561.854,210.917L561.854,210.917L561.854,210.917L561.831,210.891L561.819,210.901L561.812,210.907L561.811,210.907L561.808,210.911L561.802,210.92L561.795,210.916L561.785,210.911L561.778,210.908L561.776,210.906L561.704,210.871L561.686,210.862L561.677,210.858L561.676,210.857L561.655,210.848L561.651,210.845L561.649,210.844L561.642,210.841L561.643,210.84L561.643,210.84L561.644,210.84L561.644,210.839L561.644,210.839L561.644,210.839L561.645,210.839L561.645,210.839L561.646,210.839L561.646,210.839L561.646,210.839L561.647,210.839L561.647,210.839L561.648,210.839L561.648,210.838L561.649,210.839L561.649,210.839L561.65,210.839L561.65,210.839L561.651,210.838L561.651,210.838L561.652,210.838L561.652,210.838L561.653,210.838L561.654,210.838L561.655,210.838L561.655,210.837L561.656,210.837L561.656,210.837L561.657,210.835L561.658,210.835L561.658,210.834L561.659,210.834L561.659,210.833L561.66,210.833L561.662,210.833L561.663,210.832L561.664,210.832L561.664,210.831L561.665,210.831L561.666,210.832L561.666,210.832L561.667,210.832L561.667,210.832L561.668,210.832L561.668,210.832L561.668,210.832L561.669,210.831L561.669,210.831L561.67,210.831L561.67,210.831L561.67,210.831L561.671,210.831L561.671,210.831L561.671,210.831L561.672,210.831L561.672,210.83L561.672,210.83L561.673,210.83L561.674,210.83L561.674,210.829L561.675,210.829L561.675,210.829L561.676,210.829L561.676,210.829L561.677,210.829L561.677,210.829L561.678,210.829L561.679,210.829L561.68,210.829L561.681,210.829L561.681,210.828L561.682,210.828L561.682,210.828L561.682,210.828L561.682,210.826L561.683,210.825L561.683,210.825L561.683,210.824L561.683,210.824L561.683,210.823L561.684,210.822L561.684,210.821L561.684,210.821L561.684,210.82L561.685,210.82L561.685,210.82L561.687,210.819L561.687,210.818L561.688,210.817L561.688,210.817L561.688,210.817L561.688,210.816L561.688,210.815L561.688,210.815L561.687,210.814L561.687,210.814L561.687,210.814L561.687,210.814L561.686,210.814L561.686,210.814L561.686,210.814L561.685,210.813L561.684,210.812L561.684,210.812L561.683,210.811L561.683,210.811L561.683,210.811L561.682,210.811L561.682,210.811L561.681,210.811L561.681,210.811L561.681,210.81L561.681,210.809L561.681,210.809L561.681,210.808L561.682,210.808L561.682,210.807L561.682,210.807L561.682,210.806L561.682,210.805L561.682,210.804L561.682,210.803L561.683,210.803L561.683,210.802L561.684,210.801L561.684,210.8L561.685,210.8L561.685,210.799L561.686,210.799L561.686,210.799L561.686,210.798L561.686,210.797L561.685,210.796L561.685,210.795L561.685,210.795L561.684,210.794L561.683,210.793L561.682,210.793L561.681,210.794L561.68,210.794L561.68,210.795L561.678,210.797L561.677,210.797L561.677,210.797L561.676,210.797L561.675,210.796L561.674,210.795L561.674,210.794L561.673,210.794L561.673,210.793L561.672,210.793L561.672,210.792L561.672,210.792L561.671,210.792L561.672,210.791L561.671,210.79L561.67,210.79L561.67,210.789L561.67,210.789L561.67,210.788L561.671,210.788L561.671,210.787L561.671,210.787L561.671,210.786L561.671,210.785L561.672,210.785L561.672,210.784L561.673,210.784L561.673,210.785L561.674,210.784L561.675,210.784L561.676,210.783L561.677,210.782L561.678,210.781L561.678,210.781L561.679,210.781L561.679,210.78L561.679,210.778L561.68,210.778L561.68,210.778L561.68,210.777L561.681,210.776L561.682,210.776L561.682,210.775L561.683,210.774L561.683,210.774L561.683,210.773L561.683,210.772L561.683,210.772L561.683,210.771L561.683,210.771L561.683,210.77L561.684,210.769L561.684,210.768L561.684,210.767L561.684,210.766L561.684,210.766L561.685,210.765L561.684,210.764L561.685,210.764L561.685,210.763L561.684,210.762L561.684,210.761L561.684,210.759L561.684,210.758L561.683,210.758L561.683,210.757L561.682,210.757L561.682,210.756L561.681,210.756L561.681,210.756L561.68,210.757L561.679,210.758L561.679,210.758L561.678,210.758L561.678,210.759L561.678,210.759L561.677,210.759L561.676,210.759L561.675,210.759L561.674,210.759L561.673,210.759L561.672,210.758L561.672,210.758L561.671,210.758L561.671,210.757L561.67,210.757L561.669,210.757L561.667,210.757L561.667,210.757L561.667,210.757L561.667,210.756L561.667,210.755L561.666,210.755L561.666,210.754L561.666,210.754L561.666,210.754L561.666,210.753L561.666,210.752L561.666,210.752L561.666,210.751L561.666,210.75L561.667,210.748L561.667,210.748L561.667,210.748L561.667,210.747L561.667,210.747L561.668,210.746L561.669,210.744L561.669,210.744L561.67,210.744L561.67,210.743L561.671,210.742L561.671,210.741L561.671,210.74L561.671,210.739L561.67,210.738L561.67,210.737L561.669,210.736L561.669,210.735L561.669,210.735L561.669,210.733L561.669,210.732L561.67,210.732L561.67,210.731L561.671,210.73L561.672,210.729L561.672,210.728L561.671,210.727L561.671,210.727L561.671,210.726L561.67,210.726L561.67,210.725L561.67,210.725L561.67,210.723L561.669,210.723L561.669,210.723L561.668,210.722L561.668,210.722L561.668,210.722L561.667,210.721L561.666,210.721L561.666,210.72L561.665,210.72L561.664,210.719L561.664,210.719L561.663,210.719L561.663,210.719L561.662,210.719L561.662,210.719L561.661,210.719L561.661,210.72L561.661,210.72L561.661,210.721L561.661,210.721L561.66,210.722L561.66,210.723L561.66,210.723L561.66,210.724L561.659,210.724L561.658,210.726L561.657,210.728L561.657,210.728L561.656,210.729L561.656,210.729L561.656,210.729L561.656,210.73L561.656,210.731L561.655,210.731L561.655,210.732L561.655,210.732L561.654,210.732L561.654,210.732L561.653,210.733L561.653,210.733L561.652,210.733L561.651,210.732L561.651,210.732L561.65,210.731L561.65,210.731L561.65,210.73L561.65,210.73L561.649,210.73L561.649,210.729L561.649,210.729L561.648,210.728L561.648,210.728L561.647,210.728L561.647,210.728L561.647,210.728L561.646,210.729L561.644,210.73L561.643,210.731L561.642,210.731L561.641,210.731L561.64,210.731L561.639,210.731L561.639,210.731L561.638,210.731L561.638,210.73L561.638,210.73L561.638,210.73L561.637,210.729L561.637,210.729L561.636,210.728L561.636,210.727L561.634,210.726L561.634,210.726L561.633,210.726L561.632,210.725L561.632,210.725L561.632,210.724L561.632,210.724L561.632,210.723L561.633,210.722L561.634,210.721L561.634,210.72L561.634,210.72L561.634,210.719L561.634,210.719L561.634,210.718L561.634,210.717L561.633,210.717L561.633,210.716L561.633,210.716L561.633,210.716L561.633,210.715L561.629,210.714L561.628,210.713L561.628,210.711L561.627,210.709L561.627,210.709L561.626,210.709L561.626,210.708L561.626,210.707L561.625,210.707L561.624,210.707L561.623,210.707L561.623,210.707L561.622,210.706L561.622,210.706L561.622,210.706L561.621,210.706L561.621,210.706L561.621,210.706L561.62,210.706L561.62,210.706L561.62,210.706L561.62,210.706L561.619,210.706L561.619,210.706L561.619,210.706L561.619,210.705L561.618,210.705L561.618,210.705L561.617,210.704L561.617,210.704L561.617,210.703L561.617,210.703L561.618,210.702L561.618,210.702L561.618,210.702L561.618,210.701L561.618,210.701L561.618,210.7L561.619,210.699L561.619,210.699L561.619,210.699L561.619,210.699L561.619,210.7L561.619,210.7L561.619,210.7L561.62,210.7L561.62,210.7L561.621,210.699L561.622,210.698L561.622,210.697L561.622,210.696L561.623,210.695L561.623,210.694L561.623,210.694L561.623,210.693L561.623,210.693L561.622,210.693L561.622,210.693L561.622,210.692L561.622,210.692L561.622,210.692L561.621,210.691L561.62,210.691L561.62,210.691L561.62,210.69L561.62,210.69L561.619,210.689L561.619,210.689L561.618,210.688L561.618,210.688L561.618,210.688L561.618,210.687L561.618,210.687L561.617,210.687L561.617,210.687L561.617,210.687L561.616,210.687L561.616,210.687L561.615,210.686L561.614,210.686L561.614,210.685L561.614,210.685L561.614,210.685L561.614,210.685L561.614,210.685L561.614,210.685L561.614,210.685L561.613,210.685L561.613,210.685L561.613,210.685L561.613,210.685L561.613,210.685L561.612,210.685L561.612,210.685L561.611,210.684L561.61,210.684L561.61,210.683L561.61,210.683L561.608,210.683L561.608,210.682L561.608,210.682L561.608,210.681L561.607,210.681L561.607,210.681L561.606,210.681L561.606,210.681L561.606,210.681L561.606,210.68L561.606,210.68L561.606,210.679L561.606,210.679L561.606,210.678L561.606,210.678L561.606,210.677L561.606,210.677L561.606,210.677L561.605,210.675L561.605,210.675L561.605,210.675L561.605,210.675L561.604,210.675L561.604,210.675L561.604,210.674L561.604,210.673L561.603,210.672L561.603,210.672L561.603,210.671L561.602,210.671L561.602,210.671L561.601,210.671L561.6,210.671L561.599,210.671L561.597,210.67L561.597,210.67L561.596,210.67L561.596,210.67L561.595,210.669L561.595,210.669L561.594,210.669L561.593,210.67L561.592,210.67L561.591,210.67L561.591,210.67L561.59,210.669L561.59,210.668L561.59,210.668L561.59,210.667L561.591,210.666L561.591,210.666L561.591,210.666L561.591,210.665L561.592,210.665L561.592,210.664L561.591,210.663L561.591,210.663L561.591,210.663L561.591,210.663L561.591,210.662L561.591,210.662L561.591,210.662L561.591,210.661L561.591,210.661L561.591,210.661L561.591,210.66L561.591,210.66L561.591,210.66L561.591,210.66L561.59,210.659L561.59,210.659L561.59,210.659L561.589,210.658L561.588,210.657L561.587,210.657L561.587,210.657L561.586,210.657L561.585,210.657L561.585,210.657L561.584,210.657L561.584,210.657L561.584,210.656L561.584,210.655L561.584,210.655L561.584,210.654L561.583,210.653L561.584,210.653L561.584,210.651L561.584,210.65L561.584,210.649L561.583,210.648L561.583,210.647L561.581,210.646L561.578,210.645L561.577,210.644L561.576,210.644L561.576,210.644L561.574,210.645L561.573,210.645L561.571,210.648L561.57,210.649L561.57,210.65L561.57,210.651L561.569,210.65L561.569,210.65L561.568,210.65L561.567,210.651L561.567,210.65L561.566,210.649L561.565,210.649L561.565,210.648L561.564,210.647L561.564,210.646L561.564,210.645L561.563,210.644L561.563,210.643L561.562,210.642L561.562,210.642L561.561,210.641L561.561,210.64L561.562,210.638L561.562,210.637L561.562,210.637L561.562,210.636L561.562,210.635L561.562,210.634L561.562,210.633L561.562,210.633L561.562,210.632L561.562,210.632L561.562,210.631L561.562,210.631L561.562,210.631L561.561,210.631L561.56,210.631L561.559,210.631L561.558,210.632L561.557,210.632L561.556,210.633L561.555,210.633L561.554,210.633L561.553,210.634L561.553,210.634L561.552,210.634L561.552,210.635L561.551,210.635L561.55,210.636L561.549,210.637L561.55,210.638L561.549,210.639L561.548,210.639L561.547,210.639L561.547,210.639L561.546,210.639L561.545,210.64L561.544,210.642L561.543,210.642L561.542,210.642L561.542,210.642L561.542,210.643L561.541,210.643L561.541,210.644L561.54,210.643L561.539,210.643L561.538,210.643L561.538,210.643L561.537,210.642L561.537,210.642L561.538,210.641L561.538,210.64L561.539,210.639L561.539,210.639L561.54,210.638L561.54,210.637L561.54,210.636L561.54,210.635L561.54,210.634L561.539,210.633L561.539,210.632L561.539,210.631L561.539,210.631L561.539,210.63L561.539,210.629L561.539,210.628L561.54,210.628L561.541,210.627L561.541,210.627L561.541,210.626L561.541,210.626L561.541,210.625L561.541,210.625L561.541,210.624L561.541,210.622L561.54,210.619L561.54,210.619L561.54,210.618L561.539,210.619L561.539,210.619L561.538,210.62L561.538,210.62L561.537,210.62L561.537,210.62L561.537,210.619L561.537,210.619L561.536,210.62L561.536,210.619L561.535,210.618L561.534,210.617L561.534,210.617L561.533,210.617L561.532,210.617L561.531,210.617L561.53,210.618L561.53,210.618L561.529,210.62L561.529,210.621L561.528,210.621L561.527,210.622L561.527,210.622L561.526,210.622L561.525,210.624L561.525,210.625L561.525,210.625L561.525,210.625L561.525,210.626L561.525,210.627L561.525,210.628L561.525,210.629L561.525,210.629L561.524,210.63L561.523,210.63L561.523,210.63L561.522,210.629L561.522,210.628L561.521,210.628L561.52,210.628L561.52,210.628L561.519,210.628L561.519,210.629L561.518,210.631L561.517,210.631L561.516,210.631L561.516,210.632L561.515,210.631L561.515,210.631L561.514,210.631L561.513,210.63L561.513,210.629L561.512,210.628L561.512,210.627L561.512,210.627L561.512,210.626L561.512,210.625L561.512,210.624L561.511,210.624L561.509,210.623L561.508,210.622L561.507,210.622L561.507,210.622L561.507,210.622L561.506,210.622L561.506,210.621L561.505,210.621L561.504,210.62L561.504,210.619L561.504,210.619L561.504,210.619L561.504,210.618L561.504,210.617L561.504,210.616L561.504,210.616L561.504,210.616L561.503,210.616L561.503,210.616L561.502,210.616L561.502,210.615L561.502,210.615L561.502,210.614L561.501,210.613L561.501,210.612L561.501,210.612L561.5,210.611L561.5,210.61L561.499,210.61L561.498,210.61L561.498,210.61L561.497,210.612L561.497,210.612L561.494,210.613L561.493,210.613L561.492,210.614L561.492,210.614L561.49,210.615L561.49,210.615L561.489,210.616L561.488,210.616L561.486,210.617L561.486,210.617L561.484,210.618L561.484,210.618L561.483,210.618L561.483,210.618L561.482,210.618L561.482,210.618L561.481,210.618L561.481,210.618L561.481,210.617L561.481,210.617L561.481,210.616L561.481,210.615L561.481,210.615L561.481,210.614L561.48,210.614L561.478,210.614L561.478,210.613L561.477,210.613L561.477,210.613L561.477,210.611L561.478,210.609L561.478,210.608L561.478,210.606L561.478,210.605L561.477,210.603L561.476,210.602L561.475,210.602L561.475,210.602L561.474,210.603L561.472,210.604L561.472,210.605L561.472,210.606L561.471,210.606L561.471,210.607L561.47,210.607L561.47,210.608L561.469,210.608L561.468,210.608L561.467,210.607L561.466,210.607L561.465,210.606L561.464,210.605L561.464,210.605L561.463,210.604L561.463,210.604L561.463,210.603L561.463,210.603L561.463,210.602L561.463,210.601L561.463,210.6L561.463,210.6L561.463,210.599L561.462,210.598L561.462,210.595L561.462,210.594L561.461,210.594L561.461,210.594L561.46,210.592L561.46,210.592L561.459,210.592L561.458,210.591L561.456,210.591L561.456,210.591L561.455,210.59L561.455,210.589L561.454,210.588L561.453,210.588L561.453,210.588L561.453,210.587L561.453,210.587L561.453,210.586L561.453,210.586L561.451,210.585L561.451,210.584L561.448,210.584L561.447,210.583L561.446,210.583L561.443,210.583L561.441,210.582L561.44,210.581L561.44,210.58L561.44,210.579L561.44,210.578L561.44,210.577L561.439,210.577L561.439,210.576L561.438,210.576L561.438,210.575L561.435,210.574L561.434,210.573L561.433,210.573L561.432,210.572L561.432,210.572L561.432,210.571L561.433,210.569L561.433,210.568L561.433,210.567L561.434,210.566L561.433,210.566L561.433,210.565L561.433,210.564L561.433,210.564L561.432,210.564L561.432,210.564L561.431,210.564L561.43,210.565L561.43,210.565L561.43,210.564L561.429,210.563L561.429,210.563L561.429,210.562L561.428,210.561L561.427,210.561L561.427,210.56L561.427,210.559L561.427,210.559L561.428,210.558L561.427,210.557L561.427,210.556L561.427,210.556L561.427,210.555L561.427,210.554L561.429,210.553L561.429,210.553L561.429,210.552L561.429,210.552L561.429,210.551L561.428,210.551L561.425,210.549L561.425,210.548L561.427,210.548L561.466,210.547L561.475,210.546L561.484,210.546L561.486,210.546L561.49,210.532L561.503,210.531L561.511,210.531L561.531,210.53L561.534,210.53L561.537,210.53L561.551,210.529L561.552,210.545L561.555,210.545L561.558,210.544L561.604,210.542L561.604,210.541L561.601,210.522L561.593,210.475L561.582,210.477L561.57,210.406L561.563,210.355L561.561,210.332L561.559,210.323L561.558,210.317L561.558,210.317L561.558,210.316L561.548,210.281L561.547,210.278L561.546,210.267L561.543,210.253L561.574,210.25L561.578,210.274L561.588,210.273L561.589,210.273L561.6,210.272L561.601,210.272L561.612,210.271L561.618,210.271L561.668,210.267L561.711,210.264L561.712,210.266L561.712,210.267L561.712,210.268L561.713,210.268L561.713,210.269L561.713,210.27L561.713,210.271L561.713,210.272L561.714,210.272L561.714,210.273L561.715,210.274L561.717,210.276L561.718,210.276L561.72,210.277L561.72,210.278L561.72,210.279L561.721,210.279L561.722,210.279L561.723,210.278L561.723,210.278L561.723,210.278L561.723,210.279L561.723,210.28L561.724,210.281L561.724,210.282L561.725,210.282L561.724,210.283L561.724,210.284L561.724,210.284L561.724,210.284L561.725,210.285L561.725,210.286L561.726,210.287L561.726,210.288L561.726,210.288L561.726,210.289L561.726,210.29L561.726,210.291L561.726,210.292L561.726,210.293L561.726,210.294L561.726,210.295L561.726,210.295L561.726,210.295L561.726,210.295L561.726,210.296L561.725,210.296L561.725,210.296L561.725,210.296L561.725,210.297L561.725,210.297L561.725,210.298L561.725,210.298L561.725,210.299L561.726,210.3L561.726,210.3L561.727,210.3L561.727,210.301L561.727,210.3L561.731,210.298L561.747,210.29L561.771,210.278L561.775,210.277L561.779,210.276L561.806,210.264L561.805,210.263L561.803,210.262L561.802,210.262L561.802,210.261L561.802,210.26L561.802,210.259L561.801,210.258L561.801,210.258L561.801,210.257L561.801,210.257L561.802,210.257L561.802,210.257L561.803,210.257L561.804,210.257L561.805,210.257L561.805,210.257L561.805,210.256L561.804,210.255L561.804,210.254L561.804,210.253L561.805,210.253L561.806,210.252L561.806,210.252L561.807,210.251L561.807,210.25L561.806,210.249L561.805,210.249L561.805,210.248L561.805,210.247L561.805,210.247L561.81,210.244L561.818,210.241L561.825,210.237L561.82,210.227L561.839,210.218L561.854,210.21L561.87,210.201L561.857,210.156L561.857,210.157L561.857,210.156L561.857,210.155L561.844,210.114L561.844,210.114L561.863,210.11L561.867,210.109L561.868,210.109L561.884,210.106L561.91,210.101L561.918,210.132L561.926,210.16L561.937,210.199L562.006,210.163L562.006,210.163L561.999,210.144L561.998,210.142L561.996,210.134L561.995,210.131L561.991,210.12L562.008,210.077L562.015,210.059L562.019,210.049L562.031,210.022L562.031,210.021L562.036,210.008L562.046,209.982L562.047,209.979L562.049,209.975L562.05,209.974L562.05,209.97L562.051,209.968L562.052,209.965L562.053,209.961L562.057,209.963L562.059,209.964L562.06,209.964L562.06,209.964L562.061,209.964L562.061,209.964L562.061,209.964L562.061,209.964L562.061,209.964L562.062,209.961L562.063,209.959L562.064,209.957L562.065,209.954L562.069,209.944L562.071,209.938L562.073,209.932L562.078,209.917L562.079,209.916L562.08,209.915L562.081,209.915L562.081,209.914L562.066,209.907L562.075,209.886L562.075,209.884L562.066,209.884L562.066,209.886L562.055,209.886L562.048,209.886L562.041,209.885L562.036,209.885L562.035,209.883L562.023,209.883L562.023,209.885L562.019,209.885L562.019,209.89L562.018,209.89L562.016,209.89L562.014,209.89L562.012,209.887L562.011,209.885L561.997,209.885L561.983,209.884L561.984,209.879L561.984,209.878L561.986,209.875L561.99,209.867L561.992,209.862L561.993,209.86L561.988,209.858L561.988,209.858L561.966,209.848L561.951,209.877L561.951,209.877L561.95,209.879L561.949,209.882L561.941,209.897L561.93,209.919L561.924,209.916L561.922,209.915L561.921,209.914L561.92,209.913L561.882,209.887L561.881,209.888L561.879,209.885L561.881,209.884L561.882,209.883L561.882,209.883L561.807,209.818L561.797,209.828L561.797,209.828L561.793,209.826L561.79,209.824L561.788,209.82L561.762,209.776L561.759,209.771L561.753,209.76L561.751,209.757L561.748,209.753L561.743,209.743L561.737,209.733L561.736,209.731L561.729,209.72L561.721,209.707L561.721,209.706L561.711,209.69L561.707,209.684L561.702,209.678L561.698,209.681L561.693,209.687L561.669,209.712L561.65,209.684L561.644,209.674L561.634,209.659L561.633,209.658L561.611,209.676L561.6,209.66L561.587,209.64L561.574,209.62L561.542,209.65L561.528,209.662L561.524,209.665L561.519,209.67L561.512,209.677L561.503,209.684L561.492,209.695L561.489,209.697L561.477,209.674L561.471,209.663L561.461,209.644L561.428,209.583L561.425,209.578L561.412,209.555L561.406,209.543L561.384,209.501L561.373,209.507L561.369,209.509L561.337,209.526L561.311,209.54L561.281,209.556L561.274,209.559L561.272,209.56L561.272,209.56L561.27,209.553L561.275,209.542L561.261,209.543L561.247,209.545L561.245,209.531L561.242,209.507L561.254,209.506L561.256,209.506L561.264,209.504L561.277,209.503L561.277,209.499L561.277,209.497L561.276,209.496L561.275,209.488L561.276,209.484L561.277,209.48L561.276,209.477L561.267,209.477L561.258,209.478L561.243,209.48L561.234,209.481L561.22,209.483L561.209,209.484L561.2,209.432L561.198,209.424L561.197,209.416L561.243,209.411L561.25,209.409L561.258,209.408L561.257,209.402L561.254,209.402L561.254,209.399L561.256,209.396L561.261,209.395L561.267,209.395L561.279,209.393L561.282,209.393L561.281,209.396L561.281,209.397L561.284,209.398L561.287,209.399L561.289,209.4L561.291,209.4L561.293,209.399L561.293,209.397L561.293,209.395L561.291,209.39L561.291,209.389L561.292,209.389L561.293,209.389L561.293,209.389L561.295,209.391L561.296,209.393L561.297,209.393L561.298,209.393L561.299,209.392L561.298,209.39L561.298,209.389L561.299,209.387L561.301,209.386L561.302,209.385L561.303,209.385L561.303,209.383L561.304,209.381L561.305,209.38L561.307,209.38L561.308,209.379L561.307,209.379L561.307,209.379L561.307,209.377L561.305,209.377L561.301,209.375L561.3,209.374L561.301,209.371L561.305,209.365L561.307,209.363L561.31,209.363L561.313,209.362L561.315,209.362L561.316,209.361L561.317,209.361L561.319,209.362L561.32,209.361L561.32,209.359L561.317,209.354L561.319,209.351L561.316,209.352L561.298,209.354L561.293,209.354L561.209,209.364L561.189,209.366L561.186,209.347L561.18,209.312L561.176,209.287L561.169,209.249L561.167,209.233L561.143,209.237L561.135,209.195L561.135,209.193L561.131,209.17L561.132,209.168L561.134,209.167L561.119,209.082L561.113,209.083L561.043,209.096L561.039,209.097L561.003,209.103L560.993,209.105L560.988,209.105L560.985,209.104L560.984,209.104L560.98,209.104L560.979,209.077L560.98,209.066L560.981,209.025L560.997,209.023L560.999,209.022L561.006,208.996L561.01,208.981L561.014,208.967L561.014,208.964L561.008,208.94L561.004,208.941L560.988,208.945L560.975,208.948L560.957,208.953L560.9,208.967L560.878,208.973L560.868,208.975L560.871,208.994L560.857,208.996L560.841,208.999L560.831,209L560.825,209.001L560.82,209.002L560.816,209.002L560.81,209.003L560.793,209.006L560.783,209.006L560.774,209.006L560.765,209.006L560.757,209.006L560.748,209.006L560.741,209.005L560.732,209.001L560.728,208.999L560.721,208.999L560.716,208.998L560.712,208.996L560.705,208.995L560.703,208.994L560.701,208.995L560.697,208.996L560.694,208.997L560.691,208.997L560.686,208.997L560.681,208.995L560.674,208.992L560.67,208.991L560.663,208.989L560.658,208.989L560.654,208.99L560.651,208.99L560.645,208.991L560.64,208.991L560.637,208.991L560.634,208.991L560.628,208.991L560.624,208.972L560.619,208.971L560.612,208.971L560.589,208.97L560.582,208.97L560.552,208.968L560.542,208.968L560.54,208.968L560.539,208.969L560.539,208.971L560.539,208.974L560.539,208.977L560.54,208.978L560.541,208.979L560.543,208.981L560.545,208.982L560.546,208.985L560.548,208.987L560.55,208.988L560.551,208.99L560.55,208.991L560.549,208.995L560.549,208.998L560.551,208.999L560.553,208.999L560.554,209.001L560.553,209.004L560.552,209.004L560.551,209.006L560.549,209.007L560.55,209.009L560.551,209.012L560.554,209.015L560.533,209.019L560.514,209.023L560.498,209.026L560.497,209.022L560.476,209.025L560.459,209.028L560.458,209.023L560.456,209.008L560.444,208.983L560.419,208.984L560.393,208.984L560.366,208.985L560.345,208.985L560.343,208.984L560.329,208.985L560.33,208.984L560.33,208.983L560.328,208.981L560.326,208.981L560.325,208.98L560.324,208.977L560.324,208.975L560.323,208.973L560.322,208.971L560.321,208.971L560.319,208.971L560.319,208.972L560.318,208.975L560.317,208.975L560.316,208.974L560.314,208.971L560.314,208.964L560.314,208.963L560.316,208.96L560.32,208.953L560.324,208.944L560.327,208.933L560.328,208.927L560.328,208.926L560.329,208.925L560.329,208.922L560.329,208.92L560.329,208.919L560.326,208.918L560.325,208.92L560.323,208.92L560.322,208.918L560.295,208.924L560.298,208.938L560.298,208.94L560.282,208.942L560.277,208.943L560.253,208.947L560.24,208.949L560.227,208.951L560.221,208.952L560.217,208.953L560.206,208.955L560.2,208.956L560.194,208.956L560.169,208.96L560.168,208.947L560.167,208.945L560.164,208.943L560.16,208.942L560.156,208.942L560.152,208.943L560.148,208.942L560.141,208.944L560.133,208.945L560.124,208.945L560.123,208.945L560.122,208.937L560.117,208.91L560.114,208.898L560.096,208.896L560.09,208.867L560.132,208.859L560.135,208.859L560.136,208.868L560.144,208.906L560.145,208.914L560.157,208.912L560.167,208.91L560.176,208.909L560.186,208.907L560.199,208.905L560.198,208.898L560.195,208.897L560.195,208.89L560.2,208.875L560.203,208.874L560.21,208.857L560.216,208.843L560.217,208.842L560.204,208.817L560.213,208.813L560.198,208.784L560.184,208.756L560.2,208.748L560.196,208.743L560.182,208.715L560.181,208.714L560.17,208.721L560.142,208.742L560.14,208.737L560.134,208.708L560.132,208.697L560.126,208.669L560.123,208.655L560.103,208.664L560.086,208.672L560.083,208.662L560.08,208.654L560.08,208.654L560.081,208.653L560.113,208.64L560.114,208.642L560.115,208.641L560.118,208.64L560.117,208.635L560.113,208.623L560.11,208.613L560.108,208.593L560.104,208.571L560.103,208.566L560.098,208.565L560.077,208.561L560.074,208.56L560.072,208.56L560.069,208.559L560.057,208.522L560.071,208.518L560.086,208.513L560.109,208.506L560.108,208.501L560.106,208.495L560.097,208.464L560.093,208.454L560.097,208.453L560.095,208.444L560.09,208.43L560.088,208.423L560.087,208.421L560.071,208.427L560.052,208.432L560.022,208.442L560.014,208.444L559.997,208.449L559.99,208.452L559.986,208.453L559.983,208.454L559.981,208.455L559.964,208.46L559.961,208.461L559.959,208.461L559.96,208.456L559.96,208.454L559.96,208.453L559.96,208.452L559.961,208.45L559.961,208.45L559.962,208.449L559.962,208.446L559.962,208.445L559.962,208.444L559.963,208.442L559.963,208.441L559.963,208.44L559.964,208.439L559.965,208.438L559.966,208.437L559.966,208.437L559.967,208.436L559.967,208.435L559.968,208.433L559.968,208.433L559.97,208.431L559.97,208.43L559.97,208.429L559.971,208.428L559.971,208.427L559.971,208.427L559.972,208.426L559.975,208.426L559.976,208.426L559.979,208.427L559.98,208.426L559.981,208.426L559.981,208.425L559.981,208.424L559.981,208.423L559.98,208.422L559.98,208.421L559.978,208.42L559.975,208.418L559.974,208.416L559.974,208.415L559.972,208.413L559.971,208.413L559.969,208.412L559.969,208.411L559.968,208.411L559.967,208.411L559.966,208.411L559.965,208.411L559.965,208.411L559.964,208.412L559.963,208.412L559.963,208.413L559.961,208.417L559.961,208.418L559.96,208.419L559.96,208.42L559.959,208.42L559.959,208.421L559.958,208.421L559.957,208.421L559.957,208.421L559.956,208.421L559.955,208.42L559.953,208.419L559.953,208.419L559.953,208.417L559.953,208.417L559.953,208.416L559.953,208.415L559.954,208.413L559.954,208.413L559.955,208.411L559.955,208.409L559.956,208.408L559.956,208.407L559.957,208.406L559.957,208.404L559.957,208.403L559.956,208.401L559.955,208.398L559.953,208.395L559.952,208.394L559.952,208.393L559.952,208.393L559.952,208.392L559.951,208.391L559.951,208.391L559.951,208.39L559.95,208.39L559.95,208.389L559.95,208.389L559.949,208.389L559.949,208.388L559.949,208.387L559.949,208.386L559.949,208.385L559.95,208.384L559.951,208.383L559.952,208.382L559.956,208.381L559.957,208.38L559.958,208.379L559.959,208.377L559.96,208.376L559.962,208.374L559.963,208.374L559.966,208.374L559.968,208.375L559.97,208.375L559.971,208.375L559.972,208.375L559.973,208.374L559.974,208.372L559.974,208.368L559.974,208.364L559.974,208.361L559.975,208.36L559.975,208.36L559.976,208.359L559.976,208.358L559.976,208.358L559.976,208.357L559.975,208.356L559.975,208.355L559.975,208.354L559.974,208.354L559.974,208.353L559.973,208.353L559.972,208.352L559.969,208.353L559.967,208.353L559.964,208.354L559.963,208.354L559.962,208.354L559.961,208.354L559.96,208.353L559.959,208.352L559.959,208.352L559.958,208.351L559.958,208.351L559.958,208.351L559.958,208.35L559.958,208.348L559.958,208.347L559.959,208.346L559.959,208.345L559.96,208.344L559.96,208.343L559.96,208.342L559.96,208.341L559.96,208.34L559.959,208.339L559.959,208.339L559.958,208.338L559.958,208.338L559.957,208.338L559.956,208.338L559.955,208.337L559.954,208.337L559.954,208.337L559.953,208.337L559.953,208.336L559.952,208.336L559.952,208.336L559.951,208.336L559.95,208.335L559.95,208.334L559.949,208.334L559.948,208.333L559.947,208.333L559.946,208.333L559.945,208.332L559.944,208.332L559.94,208.335L559.937,208.336L559.933,208.338L559.923,208.342L559.913,208.346L559.898,208.352L559.889,208.356L559.878,208.36L559.868,208.364L559.85,208.369L559.829,208.373L559.809,208.378L559.797,208.38L559.78,208.384L559.761,208.389L559.749,208.392L559.713,208.4L559.705,208.401L559.695,208.404L559.692,208.388L559.681,208.337L559.679,208.324L559.677,208.318L559.668,208.323L559.658,208.328L559.65,208.331L559.644,208.332L559.639,208.334L559.634,208.332L559.627,208.328L559.621,208.327L559.611,208.326L559.603,208.325L559.597,208.323L559.593,208.323L559.594,208.328L559.575,208.329L559.571,208.33L559.548,208.29L559.53,208.26L559.513,208.231L559.506,208.219L559.505,208.219L559.498,208.224L559.493,208.229L559.486,208.232L559.48,208.236L559.468,208.243L559.428,208.265L559.418,208.27L559.404,208.278L559.394,208.284L559.355,208.305L559.333,208.317L559.322,208.323L559.304,208.333L559.285,208.344L559.272,208.35L559.256,208.36L559.207,208.383L559.206,208.377L559.202,208.358L559.199,208.337L559.199,208.336L559.199,208.333L559.199,208.333L559.198,208.332L559.196,208.332L559.193,208.331L559.192,208.331L559.192,208.33L559.191,208.329L559.191,208.329L559.19,208.33L559.188,208.329L559.187,208.328L559.186,208.328L559.185,208.327L559.184,208.327L559.183,208.327L559.182,208.327L559.181,208.326L559.181,208.326L559.18,208.325L559.18,208.325L559.179,208.325L559.179,208.325L559.178,208.326L559.178,208.326L559.178,208.326L559.177,208.327L559.175,208.328L559.173,208.328L559.172,208.328L559.169,208.327L559.168,208.327L559.167,208.327L559.166,208.327L559.165,208.328L559.164,208.328L559.163,208.328L559.162,208.329L559.161,208.328L559.159,208.328L559.159,208.329L559.158,208.329L559.155,208.328L559.152,208.328L559.151,208.329L559.151,208.329L559.15,208.33L559.148,208.33L559.147,208.331L559.145,208.331L559.145,208.331L559.144,208.331L559.143,208.332L559.143,208.332L559.142,208.332L559.141,208.331L559.14,208.331L559.139,208.331L559.137,208.329L559.137,208.328L559.137,208.328L559.136,208.329L559.136,208.329L559.136,208.33L559.136,208.329L559.136,208.329L559.136,208.329L559.136,208.328L559.135,208.327L559.135,208.326L559.134,208.326L559.134,208.326L559.133,208.326L559.133,208.327L559.133,208.327L559.133,208.328L559.132,208.327L559.132,208.327L559.132,208.326L559.132,208.325L559.132,208.325L559.132,208.324L559.132,208.324L559.131,208.324L559.13,208.324L559.128,208.325L559.126,208.325L559.125,208.325L559.125,208.325L559.124,208.325L559.123,208.325L559.123,208.324L559.123,208.324L559.123,208.323L559.123,208.322L559.122,208.322L559.122,208.322L559.121,208.322L559.12,208.322L559.119,208.321L559.118,208.321L559.118,208.32L559.117,208.321L559.116,208.32L559.115,208.319L559.114,208.319L559.113,208.319L559.111,208.317L559.11,208.318L559.109,208.318L559.108,208.318L559.107,208.318L559.107,208.318L559.106,208.318L559.105,208.318L559.105,208.317L559.104,208.317L559.104,208.316L559.104,208.316L559.104,208.315L559.103,208.315L559.103,208.315L559.102,208.316L559.102,208.316L559.101,208.316L559.101,208.315L559.101,208.315L559.1,208.314L559.097,208.315L559.095,208.315L559.094,208.314L559.093,208.314L559.093,208.314L559.084,208.312L559.083,208.312L559.074,208.309L559.075,208.314L559.064,208.315L559.056,208.316L559.048,208.317L559.035,208.319L559.034,208.308L559.03,208.299L559.027,208.295L559.02,208.293L559.018,208.292L559.016,208.292L559.015,208.292L559.014,208.292L559.013,208.291L559.011,208.291L559.01,208.291L559.009,208.29L559.008,208.29L559.006,208.288L559.004,208.286L559.005,208.285L559.004,208.283L559.003,208.283L559.002,208.283L559.001,208.284L558.999,208.285L558.998,208.285L558.996,208.285L558.995,208.284L558.994,208.284L558.993,208.284L558.991,208.284L558.991,208.284L558.99,208.283L558.988,208.282L558.986,208.28L558.984,208.279L558.982,208.278L558.981,208.277L558.981,208.276L558.98,208.276L558.979,208.276L558.979,208.275L558.978,208.274L558.977,208.274L558.976,208.274L558.976,208.273L558.975,208.272L558.974,208.271L558.973,208.271L558.972,208.269L558.97,208.27L558.97,208.271L558.969,208.272L558.968,208.272L558.968,208.273L558.967,208.274L558.965,208.274L558.963,208.274L558.963,208.274L558.962,208.272L558.961,208.271L558.96,208.271L558.959,208.272L558.959,208.272L558.956,208.272L558.954,208.272L558.953,208.272L558.952,208.271L558.95,208.271L558.949,208.271L558.949,208.271L558.948,208.271L558.947,208.27L558.947,208.27L558.947,208.268L558.945,208.268L558.943,208.267L558.941,208.267L558.94,208.267L558.938,208.267L558.937,208.267L558.935,208.267L558.934,208.266L558.93,208.265L558.929,208.265L558.928,208.265L558.928,208.266L558.927,208.267L558.926,208.267L558.926,208.267L558.926,208.266L558.926,208.265L558.925,208.265L558.924,208.266L558.923,208.266L558.922,208.267L558.922,208.266L558.922,208.265L558.921,208.264L558.92,208.264L558.917,208.265L558.916,208.264L558.916,208.263L558.915,208.261L558.915,208.261L558.914,208.262L558.913,208.263L558.912,208.263L558.911,208.262L558.91,208.261L558.909,208.261L558.909,208.259L558.908,208.259L558.908,208.26L558.907,208.261L558.906,208.261L558.906,208.261L558.906,208.26L558.906,208.259L558.906,208.258L558.906,208.258L558.905,208.258L558.904,208.259L558.904,208.259L558.904,208.259L558.904,208.259L558.902,208.26L558.9,208.261L558.897,208.261L558.896,208.26L558.888,208.249L558.877,208.243L558.869,208.239L558.858,208.231L558.839,208.215L558.833,208.212L558.825,208.209L558.817,208.208L558.807,208.207L558.798,208.208L558.79,208.209L558.782,208.211L558.776,208.214L558.771,208.217L558.766,208.221L558.763,208.225L558.757,208.229L558.748,208.232L558.736,208.233L558.733,208.232L558.729,208.23L558.721,208.225L558.717,208.223L558.711,208.22L558.708,208.217L558.703,208.213L558.7,208.213L558.697,208.213L558.693,208.214L558.691,208.215L558.688,208.216L558.686,208.218L558.683,208.219L558.66,208.219L558.658,208.219L558.656,208.22L558.632,208.242L558.618,208.244L558.606,208.248L558.591,208.248L558.554,208.244L558.525,208.241L558.504,208.24L558.504,208.24L558.503,208.24L558.502,208.241L558.501,208.241L558.501,208.241L558.5,208.241L558.499,208.242L558.498,208.242L558.498,208.242L558.497,208.243L558.496,208.243L558.496,208.243L558.495,208.244L558.494,208.244L558.494,208.245L558.493,208.245L558.492,208.245L558.492,208.246L558.491,208.246L558.49,208.247L558.49,208.247L558.489,208.248L558.489,208.248L558.488,208.249L558.487,208.25L558.487,208.25L558.486,208.251L558.486,208.251L558.485,208.252L558.485,208.252L558.484,208.253L558.484,208.254L558.483,208.254L558.483,208.255L558.483,208.256L558.482,208.256L558.482,208.257L558.481,208.258L558.481,208.258L558.48,208.258L558.479,208.259L558.479,208.259L558.478,208.259L558.477,208.26L558.477,208.26L558.476,208.26L558.475,208.261L558.475,208.261L558.474,208.261L558.473,208.261L558.473,208.262L558.472,208.262L558.471,208.262L558.471,208.262L558.47,208.262L558.469,208.262L558.468,208.263L558.468,208.263L558.467,208.263L558.466,208.263L558.465,208.263L558.465,208.263L558.464,208.263L558.463,208.263L558.463,208.263L558.462,208.263L558.461,208.263L558.46,208.263L558.46,208.263L558.459,208.263L558.457,208.263L558.454,208.263L558.452,208.263L558.449,208.263L558.447,208.263L558.445,208.263L558.442,208.263L558.442,208.263L558.441,208.263L558.44,208.263L558.44,208.264L558.439,208.264L558.438,208.264L558.438,208.264L558.437,208.264L558.437,208.264L558.436,208.265L558.435,208.265L558.435,208.265L558.434,208.265L558.434,208.266L558.433,208.266L558.433,208.266L558.432,208.267L558.431,208.267L558.431,208.267L558.43,208.268L558.43,208.268L558.429,208.269L558.429,208.269L558.428,208.269L558.428,208.27L558.428,208.27L558.427,208.271L558.427,208.271L558.426,208.272L558.426,208.272L558.425,208.273L558.425,208.273L558.417,208.287L558.408,208.299L558.402,208.309L558.4,208.32L558.398,208.323L558.393,208.324L558.376,208.324L558.373,208.326L558.37,208.327L558.367,208.327L558.364,208.328L558.358,208.332L558.352,208.332L558.348,208.334L558.343,208.334L558.337,208.336L558.327,208.34L558.317,208.346L558.316,208.345L558.314,208.337L558.312,208.331L558.311,208.328L558.309,208.328L558.291,208.331L558.287,208.332L558.265,208.335L558.263,208.336L558.241,208.339L558.232,208.34L558.216,208.343L558.217,208.338L558.206,208.339L558.191,208.342L558.188,208.324L558.185,208.315L558.184,208.309L558.185,208.309L558.185,208.302L558.186,208.285L558.2,208.283L558.198,208.272L558.193,208.243L558.154,208.249L558.136,208.252L558.131,208.235L558.103,208.236L558.092,208.237L558.094,208.249L558.097,208.271L558.101,208.297L558.106,208.32L558.106,208.323L558.115,208.379L558.118,208.392L558.121,208.412L558.124,208.422L558.126,208.433L558.111,208.435L558.088,208.439L558.065,208.443L558.066,208.448L558.067,208.45L558.067,208.453L558.069,208.464L558.072,208.481L558.075,208.509L558.075,208.511L558.078,208.535L558.09,208.532L558.094,208.532L558.097,208.531L558.107,208.565L558.11,208.578L558.116,208.612L558.175,208.604L558.178,208.621L558.187,208.674L558.182,208.675L558.19,208.716L558.198,208.734L558.135,208.746L558.127,208.713L558.093,208.721L558.082,208.724L558.084,208.738L558.086,208.765L558.003,208.779L558.022,208.879L558.029,208.906L558.033,208.904L558.04,208.9L558.044,208.898L558.047,208.895L558.054,208.894L558.063,208.892L558.068,208.889L558.074,208.884L558.08,208.878L558.084,208.874L558.088,208.872L558.097,208.866L558.099,208.866L558.101,208.866L558.104,208.867L558.107,208.869L558.109,208.886L558.118,208.938L558.118,208.94L558.123,208.941L558.132,208.94L558.162,208.935L558.166,208.96L558.172,208.992L558.142,209.012L558.139,209.014L558.136,209.017L558.131,209.02L558.135,209.036L558.137,209.05L558.156,209.165L558.262,209.141L558.269,209.185L558.275,209.214L558.257,209.217L558.263,209.246L558.253,209.247L558.26,209.283L558.216,209.285L558.226,209.346L558.23,209.37L558.176,209.378L558.183,209.423L558.187,209.44L558.188,209.443L558.188,209.447L558.188,209.447L558.189,209.452L558.19,209.46L558.19,209.461L558.194,209.478L558.194,209.478L558.222,209.473L558.236,209.553L558.237,209.559L558.234,209.559L558.23,209.565L558.229,209.566L558.231,209.574L558.225,209.584L558.224,209.584L558.219,209.581L558.22,209.578L558.218,209.579L558.215,209.578L558.213,209.577L558.212,209.575L558.21,209.576L558.21,209.577L558.215,209.586L558.223,209.589L558.224,209.59L558.227,209.604L558.212,209.607L558.213,209.61L558.232,209.609L558.234,209.612L558.243,209.625L558.228,209.635L558.225,209.636L558.225,209.636L558.225,209.636L558.225,209.638L558.227,209.637L558.227,209.637L558.227,209.638L558.227,209.638L558.227,209.639L558.226,209.639L558.227,209.639L558.244,209.631L558.248,209.63L558.254,209.631L558.255,209.633L558.262,209.639L558.264,209.645L558.263,209.647L558.266,209.652L558.254,209.66L558.214,209.665L558.211,209.666L558.206,209.667L558.205,209.669L558.206,209.669L558.207,209.67L558.209,209.669L558.21,209.669L558.211,209.669L558.212,209.669L558.214,209.668L558.215,209.668L558.216,209.668L558.217,209.668L558.218,209.668L558.219,209.668L558.22,209.668L558.221,209.668L558.222,209.668L558.223,209.668L558.223,209.668L558.227,209.668L558.228,209.668L558.23,209.668L558.235,209.666L558.241,209.666L558.254,209.665L558.257,209.665L558.258,209.665L558.259,209.665L558.26,209.664L558.261,209.663L558.264,209.662L558.264,209.661L558.265,209.66L558.266,209.66L558.267,209.659L558.268,209.659L558.268,209.658L558.275,209.681L558.276,209.685L558.275,209.69L558.273,209.695L558.27,209.703L558.263,209.714L558.259,209.719L558.255,209.724L558.245,209.731L558.24,209.734L558.236,209.737L558.231,209.741L558.228,209.742L558.215,209.747L558.203,209.751L558.184,209.757L558.166,209.763L558.14,209.769L558.127,209.771L558.104,209.771L558.102,209.771L558.097,209.769L558.086,209.764L558.077,209.76L558.067,209.756L558.052,209.746L558.033,209.735L558.029,209.732L558.025,209.73L558.006,209.721L557.997,209.718L557.994,209.717L557.993,209.717L557.982,209.716L557.977,209.715L557.95,209.714L557.935,209.714L557.909,209.713L557.902,209.713L557.893,209.712L557.864,209.701L557.853,209.697L557.846,209.695L557.83,209.689L557.808,209.68L557.792,209.674L557.783,209.671L557.764,209.666L557.751,209.662L557.746,209.661L557.742,209.661L557.732,209.659L557.721,209.658L557.715,209.657L557.706,209.657L557.692,209.656L557.685,209.656L557.669,209.655L557.655,209.655L557.647,209.654L557.632,209.655L557.628,209.656L557.621,209.656L557.597,209.662L557.596,209.661L557.562,209.671L557.552,209.674L557.547,209.676L557.522,209.689L557.517,209.691L557.497,209.701L557.495,209.702L557.489,209.707L557.476,209.717L557.463,209.724L557.455,209.727L557.448,209.729L557.444,209.729L557.435,209.73L557.422,209.731L557.4,209.732L557.388,209.732L557.373,209.734L557.355,209.736L557.342,209.738L557.334,209.74L557.327,209.741L557.32,209.742L557.306,209.744L557.295,209.746L557.278,209.748L557.255,209.752L557.243,209.754L557.223,209.756L557.19,209.759L557.179,209.76L557.167,209.761L557.161,209.764L557.145,209.771L557.139,209.774L557.127,209.779L557.121,209.782L557.114,209.786L557.108,209.79L557.1,209.796L557.087,209.806L557.069,209.815L557.057,209.822L557.032,209.831L557.012,209.837L556.988,209.843L556.962,209.849L556.943,209.854L556.924,209.858L556.899,209.864L556.903,209.865L556.913,209.869L556.921,209.872L556.94,209.88L556.944,209.882L556.95,209.884L556.96,209.889L556.978,209.898L556.99,209.903L557.001,209.909L557.014,209.916L557.021,209.919L557.031,209.925L557.036,209.928L557.04,209.932L557.045,209.936L557.05,209.941L557.054,209.945L557.058,209.95L557.061,209.954L557.066,209.963L557.071,209.971L557.073,209.975L557.074,209.979L557.076,209.984L557.079,209.996L557.082,210.007L557.083,210.012L557.084,210.017L557.094,210.066L557.086,210.075L557.101,210.154L557.121,210.15L557.137,210.237L557.137,210.237L557.137,210.238L557.136,210.24L557.135,210.241L557.135,210.241L557.154,210.356L557.155,210.357L557.155,210.357L557.155,210.358L557.155,210.359L557.155,210.359L557.155,210.36L557.155,210.36L557.155,210.361L557.154,210.362L557.155,210.363L557.155,210.364L557.155,210.365L557.156,210.365L557.156,210.365L557.157,210.365L557.158,210.365L557.158,210.364L557.158,210.364L557.158,210.364L557.159,210.363L557.159,210.363L557.159,210.363L557.159,210.362L557.159,210.362L557.16,210.362L557.16,210.363L557.16,210.363L557.161,210.363L557.161,210.364L557.161,210.365L557.16,210.366L557.16,210.367L557.161,210.367L557.161,210.368L557.162,210.368L557.162,210.368L557.163,210.368L557.163,210.368L557.164,210.368L557.165,210.369L557.168,210.371L557.176,210.376L557.182,210.367L557.189,210.359L557.196,210.35L557.202,210.342L557.215,210.326L557.216,210.324L557.217,210.324L557.262,210.316L557.263,210.316L557.263,210.317L557.282,210.339L557.283,210.34L557.285,210.341L557.287,210.34L557.336,210.332L557.332,210.307L557.331,210.305L557.365,210.299L557.356,210.243L557.38,210.239L557.396,210.236L557.415,210.233L557.44,210.229L557.458,210.227L557.484,210.222L557.487,210.221L557.488,210.22L557.493,210.219L557.502,210.216L557.509,210.214L557.512,210.215L557.52,210.214L557.521,210.217L557.521,210.219L557.521,210.22L557.52,210.22L557.519,210.22L557.517,210.222L557.517,210.223L557.516,210.227L557.514,210.23L557.512,210.231L557.512,210.232L557.512,210.233L557.513,210.234L557.513,210.234L557.512,210.236L557.512,210.238L557.512,210.239L557.514,210.239L557.515,210.24L557.518,210.239L557.519,210.24L557.521,210.24L557.522,210.241L557.523,210.242L557.523,210.245L557.523,210.249L557.523,210.25L557.524,210.252L557.527,210.255L557.523,210.256L557.507,210.257L557.497,210.259L557.479,210.262L557.466,210.263L557.469,210.28L557.467,210.281L557.473,210.312L557.478,210.34L557.48,210.35L557.497,210.347L557.53,210.341L557.531,210.342L557.533,210.356L557.537,210.369L557.539,210.381L557.545,210.381L557.549,210.409L557.55,210.421L557.542,210.422L557.537,210.423L557.533,210.424L557.515,210.428L557.502,210.429L557.497,210.43L557.485,210.431L557.486,210.445L557.485,210.446L557.49,210.486L557.494,210.51L557.495,210.51L557.497,210.521L557.5,210.542L557.505,210.574L557.507,210.601L557.506,210.602L557.511,210.634L557.513,210.648L557.515,210.65L557.52,210.685L557.528,210.743L557.528,210.745L557.528,210.746L557.533,210.779L557.565,210.778L557.589,210.777L557.59,210.786L557.588,210.786L557.59,210.8L557.593,210.828L557.595,210.839L557.596,210.847L557.601,210.891L557.605,210.917L557.608,210.941L557.611,210.969L557.612,210.976L557.624,210.974L557.64,210.972L557.653,210.97L557.654,210.973L557.655,210.976L557.658,210.996L557.662,211.025L557.663,211.036L557.665,211.048L557.666,211.056L557.669,211.055L557.68,211.054L557.696,211.052L557.697,211.061L557.701,211.065L557.706,211.101L557.72,211.1L557.733,211.098L557.734,211.098L557.738,211.099L557.754,211.094L557.757,211.093L557.778,211.09L557.802,211.087L557.802,211.09L557.809,211.14L557.809,211.144L557.828,211.14L557.84,211.139L557.855,211.136L557.869,211.134L557.883,211.132L557.894,211.13L557.895,211.137L557.898,211.155L557.899,211.164L557.899,211.164L557.904,211.198L557.905,211.203L557.907,211.218L557.908,211.227L557.914,211.274L557.916,211.288L557.917,211.305L557.92,211.319L557.921,211.33L557.941,211.328L557.954,211.327L557.976,211.325L557.982,211.324L557.997,211.323L558.008,211.322L558.008,211.325L558.009,211.332L558.011,211.349L558.013,211.367L558.016,211.395L558.017,211.406L558.022,211.443L558.028,211.454L558.018,211.456L558.005,211.457L557.983,211.461L557.955,211.465L557.93,211.468L557.931,211.476L557.934,211.493L557.936,211.508L557.937,211.513L557.938,211.525L557.941,211.541L557.942,211.549L557.944,211.56L557.946,211.569L557.946,211.57L557.917,211.571L557.917,211.589L557.917,211.618L557.917,211.626L557.892,211.628L557.892,211.634L557.891,211.641L557.892,211.652L557.855,211.657L557.829,211.66L557.764,211.669L557.767,211.687L557.769,211.701L557.74,211.704L557.709,211.709L557.712,211.735L557.714,211.751L557.715,211.757L557.72,211.793L557.72,211.797L557.731,211.795L557.742,211.794L557.794,211.787L557.801,211.786L557.806,211.822L557.809,211.823L557.813,211.822L557.819,211.821L557.823,211.821L557.831,211.819L557.832,211.818L557.835,211.817L557.852,211.815L557.892,211.81L557.91,211.808L557.914,211.833L557.918,211.866L557.919,211.877L557.923,211.913L557.926,211.932L557.927,211.944L557.914,211.947L557.897,211.951L557.87,211.957L557.855,211.961L557.855,211.963L557.858,211.979L557.861,211.992L557.863,212.006L557.866,212.023L557.87,212.041L557.872,212.055L557.887,212.052L557.902,212.05L557.914,212.048L557.914,212.049L557.916,212.064L557.919,212.08L557.921,212.094L557.922,212.101L557.923,212.102L557.923,212.104L557.928,212.132L557.937,212.131L557.964,212.127L557.992,212.123L558.034,212.117L558.058,212.113L558.071,212.111L558.122,212.104L558.132,212.101L558.149,212.099L558.151,212.099L558.153,212.111L558.154,212.13L558.158,212.162L558.141,212.164L558.144,212.182L558.146,212.203L558.148,212.219L558.15,212.235L558.164,212.233L558.176,212.232L558.182,212.231L558.218,212.226L558.243,212.222L558.244,212.222L558.245,212.222L558.245,212.223L558.245,212.229ZM800,0L800,12.246L800,78.668L800,145.789L800,215.835L800,261.497L800,300L800,338.503L800,384.165L800,454.211L800,600L800,600L200,600L200,600L200,454.211L200,384.165L200,338.503L200,300L200,261.497L200,215.835L200,145.789L200,78.668L200,12.246L200,0L200,0L800,0Z"/>
<path d="M558.53,208.94m0,4.5a4.5,4.5 0 1,1 0,-9a4.5,4.5 0 1,1 0,9z"/>
<path d="M559.872,210.014m0,4.5a4.5,4.5 0 1,1 0,-9a4.5,4.5 0 1,1 0,9z"/>
</svg>