<?xml version="1.0" encoding="UTF-8"?>
<svg xmlns="http://www.w3.org/2000/svg" viewBox="0 0 1000 600" stroke="#000" stroke-width="0.3" fill="#ccc">
<path d="M558.292,214.027L558.508,213.991L558.722,213.956L558.722,213.951L558.717,213.922L558.711,213.894L558.702,213.867L558.692,213.84L558.68,213.814L558.666,213.788L558.651,213.764L558.634,213.741L558.623,213.727L558.619,213.708L558.61,213.68L558.6,213.653L558.588,213.627L558.585,213.621L558.597,213.621L558.626,213.618L558.654,213.613L558.682,213.607L558.71,213.598L558.736,213.588L558.763,213.576L558.788,213.562L558.812,213.547L558.836,213.53L558.858,213.512L558.879,213.492L558.899,213.471L558.917,213.449L558.934,213.426L558.949,213.401L558.962,213.376L558.974,213.35L558.984,213.323L558.985,213.319L558.999,213.306L559.019,213.285L559.037,213.262L559.054,213.239L559.069,213.214L559.082,213.189L559.094,213.163L559.104,213.136L559.113,213.108L559.113,213.105L558.96,212.99L558.797,212.821L558.797,212.821L558.795,212.82L558.795,212.82L558.792,212.819L558.792,212.819L558.779,212.815L558.769,212.811L558.756,212.805L558.746,212.8L558.734,212.793L558.712,212.781L558.677,212.768L558.641,212.757L558.616,212.749L558.574,212.739L558.556,212.733L558.547,212.73L558.51,212.73L558.503,212.731L558.5,212.731L558.49,212.732L558.489,212.732L558.483,212.733L558.468,212.734L558.453,212.736L558.45,212.71L558.449,212.703L558.446,212.679L558.443,212.666L558.446,212.663L558.443,212.659L558.441,212.649L558.437,212.615L558.436,212.608L558.435,212.603L558.433,212.593L558.428,212.554L558.437,212.552L558.443,212.552L558.446,212.55L558.449,212.546L558.449,212.544L558.449,212.54L558.448,212.535L558.444,212.506L558.442,212.485L558.44,212.466L558.439,212.452L558.438,212.444L558.438,212.435L558.437,212.434L558.433,212.394L558.424,212.296L558.394,212.299L558.369,212.303L558.345,212.291L558.318,212.277L558.315,212.276L558.296,212.266L558.266,212.25L558.261,212.248L558.262,212.248L558.26,212.247L558.254,212.244L558.247,212.245L558.247,212.243L558.247,212.24L558.246,212.236L558.246,212.235L558.245,212.229L558.245,212.223L558.245,212.222L558.244,212.222L558.243,212.222L558.218,212.226L558.182,212.231L558.176,212.232L558.164,212.233L558.15,212.235L558.148,212.219L558.146,212.203L558.144,212.182L558.141,212.164L558.158,212.162L558.154,212.13L558.153,212.111L558.151,212.099L558.149,212.099L558.132,212.101L558.122,212.104L558.071,212.111L558.058,212.113L558.034,212.117L557.992,212.123L557.964,212.127L557.937,212.131L557.928,212.132L557.923,212.104L557.923,212.102L557.922,212.101L557.921,212.094L557.919,212.08L557.916,212.064L557.914,212.049L557.914,212.048L557.902,212.05L557.887,212.052L557.872,212.055L557.87,212.041L557.866,212.023L557.863,212.006L557.861,211.992L557.858,211.979L557.855,211.963L557.855,211.961L557.87,211.957L557.897,211.951L557.914,211.947L557.927,211.944L557.926,211.932L557.923,211.913L557.919,211.877L557.918,211.866L557.914,211.833L557.91,211.808L557.892,211.81L557.852,211.815L557.835,211.817L557.832,211.818L557.831,211.819L557.823,211.821L557.819,211.821L557.813,211.822L557.809,211.823L557.806,211.822L557.801,211.786L557.794,211.787L557.742,211.794L557.731,211.795L557.72,211.797L557.72,211.793L557.715,211.757L557.714,211.751L557.712,211.735L557.709,211.709L557.74,211.704L557.769,211.701L557.767,211.687L557.764,211.669L557.829,211.66L557.855,211.657L557.892,211.652L557.891,211.641L557.892,211.634L557.892,211.628L557.917,211.626L557.917,211.618L557.917,211.589L557.917,211.571L557.946,211.57L557.946,211.569L557.944,211.56L557.942,211.549L557.941,211.541L557.938,211.525L557.937,211.513L557.936,211.508L557.934,211.493L557.931,211.476L557.93,211.468L557.955,211.465L557.983,211.461L558.005,211.457L558.018,211.456L558.028,211.454L558.022,211.443L558.017,211.406L558.016,211.395L558.013,211.367L558.011,211.349L558.009,211.332L558.008,211.325L558.008,211.322L557.997,211.323L557.982,211.324L557.976,211.325L557.954,211.327L557.941,211.328L557.921,211.33L557.92,211.319L557.917,211.305L557.916,211.288L557.914,211.274L557.908,211.227L557.907,211.218L557.905,211.203L557.904,211.198L557.899,211.164L557.899,211.164L557.898,211.155L557.895,211.137L557.894,211.13L557.883,211.132L557.869,211.134L557.855,211.136L557.84,211.139L557.828,211.14L557.809,211.144L557.809,211.14L557.802,211.09L557.802,211.087L557.778,211.09L557.757,211.093L557.754,211.094L557.738,211.099L557.734,211.098L557.733,211.098L557.72,211.1L557.706,211.101L557.701,211.065L557.697,211.061L557.696,211.052L557.68,211.054L557.669,211.055L557.666,211.056L557.665,211.048L557.663,211.036L557.662,211.025L557.658,210.996L557.655,210.976L557.654,210.973L557.653,210.97L557.64,210.972L557.624,210.974L557.612,210.976L557.611,210.969L557.608,210.941L557.605,210.917L557.601,210.891L557.596,210.847L557.595,210.839L557.593,210.828L557.59,210.8L557.588,210.786L557.59,210.786L557.589,210.777L557.565,210.778L557.533,210.779L557.528,210.746L557.528,210.745L557.528,210.743L557.52,210.685L557.515,210.65L557.513,210.648L557.511,210.634L557.506,210.602L557.507,210.601L557.505,210.574L557.5,210.542L557.497,210.521L557.495,210.51L557.494,210.51L557.49,210.486L557.485,210.446L557.486,210.445L557.485,210.431L557.497,210.43L557.502,210.429L557.515,210.428L557.533,210.424L557.537,210.423L557.542,210.422L557.55,210.421L557.549,210.409L557.545,210.381L557.539,210.381L557.537,210.369L557.533,210.356L557.531,210.342L557.53,210.341L557.497,210.347L557.48,210.35L557.478,210.34L557.473,210.312L557.467,210.281L557.469,210.28L557.466,210.263L557.479,210.262L557.497,210.259L557.507,210.257L557.523,210.256L557.527,210.255L557.524,210.252L557.523,210.25L557.523,210.249L557.523,210.245L557.523,210.242L557.522,210.241L557.521,210.24L557.519,210.24L557.518,210.239L557.515,210.24L557.514,210.239L557.512,210.239L557.512,210.238L557.512,210.236L557.513,210.234L557.513,210.234L557.512,210.233L557.512,210.232L557.512,210.231L557.514,210.23L557.516,210.227L557.517,210.223L557.517,210.222L557.519,210.22L557.52,210.22L557.521,210.22L557.521,210.219L557.521,210.217L557.52,210.214L557.512,210.215L557.509,210.214L557.502,210.216L557.493,210.219L557.488,210.22L557.487,210.221L557.484,210.222L557.458,210.227L557.44,210.229L557.415,210.233L557.396,210.236L557.38,210.239L557.356,210.243L557.365,210.299L557.331,210.305L557.332,210.307L557.336,210.332L557.287,210.34L557.285,210.341L557.283,210.34L557.282,210.339L557.263,210.317L557.263,210.316L557.262,210.316L557.217,210.324L557.216,210.324L557.215,210.326L557.202,210.342L557.196,210.35L557.189,210.359L557.182,210.367L557.176,210.376L557.168,210.371L557.165,210.369L557.164,210.368L557.163,210.368L557.163,210.368L557.162,210.368L557.162,210.368L557.161,210.368L557.161,210.367L557.16,210.367L557.16,210.366L557.161,210.365L557.161,210.364L557.161,210.363L557.16,210.363L557.16,210.363L557.16,210.362L557.159,210.362L557.159,210.362L557.159,210.363L557.159,210.363L557.159,210.363L557.158,210.364L557.158,210.364L557.158,210.364L557.158,210.365L557.157,210.365L557.156,210.365L557.156,210.365L557.155,210.365L557.155,210.364L557.155,210.363L557.154,210.362L557.155,210.361L557.155,210.36L557.155,210.36L557.155,210.359L557.155,210.359L557.155,210.358L557.155,210.357L557.155,210.357L557.154,210.356L557.135,210.241L557.135,210.241L557.136,210.24L557.137,210.238L557.137,210.237L557.137,210.237L557.121,210.15L557.101,210.154L557.086,210.075L557.094,210.066L557.084,210.017L557.083,210.012L557.082,210.007L557.079,209.996L557.076,209.984L557.074,209.979L557.073,209.975L557.071,209.971L557.066,209.963L557.061,209.954L557.058,209.95L557.054,209.945L557.05,209.941L557.045,209.936L557.04,209.932L557.036,209.928L557.031,209.925L557.021,209.919L557.014,209.916L557.001,209.909L556.99,209.903L556.978,209.898L556.96,209.889L556.95,209.884L556.944,209.882L556.94,209.88L556.921,209.872L556.913,209.869L556.903,209.865L556.899,209.864L556.886,209.866L556.88,209.867L556.874,209.868L556.872,209.868L556.865,209.869L556.862,209.87L556.858,209.871L556.854,209.871L556.851,209.872L556.845,209.873L556.84,209.873L556.836,209.874L556.835,209.874L556.833,209.874L556.83,209.875L556.827,209.875L556.826,209.875L556.822,209.876L556.819,209.876L556.815,209.877L556.811,209.878L556.807,209.878L556.801,209.879L556.798,209.879L556.793,209.88L556.791,209.881L556.787,209.882L556.78,209.883L556.776,209.884L556.772,209.885L556.77,209.886L556.768,209.886L556.766,209.886L556.763,209.887L556.756,209.889L556.751,209.89L556.747,209.891L556.744,209.892L556.74,209.893L556.734,209.894L556.731,209.895L556.729,209.895L556.723,209.897L556.72,209.898L556.715,209.9L556.71,209.902L556.702,209.905L556.696,209.907L556.696,209.907L556.686,209.91L556.679,209.913L556.676,209.913L556.673,209.915L556.672,209.915L556.664,209.909L556.663,209.908L556.662,209.908L556.657,209.908L556.656,209.908L556.653,209.909L556.647,209.912L556.645,209.912L556.643,209.912L556.638,209.909L556.637,209.909L556.631,209.908L556.63,209.908L556.626,209.909L556.62,209.91L556.618,209.91L556.615,209.91L556.611,209.911L556.609,209.911L556.603,209.912L556.601,209.912L556.595,209.913L556.593,209.913L556.591,209.913L556.589,209.912L556.588,209.911L556.587,209.909L556.587,209.907L556.586,209.904L556.586,209.903L556.585,209.899L556.585,209.885L556.583,209.863L556.583,209.861L556.583,209.857L556.582,209.85L556.581,209.836L556.58,209.83L556.58,209.826L556.579,209.814L556.579,209.812L556.579,209.808L556.578,209.805L556.577,209.802L556.572,209.792L556.57,209.788L556.57,209.786L556.569,209.778L556.569,209.776L556.568,209.773L556.568,209.771L556.566,209.769L556.565,209.768L556.564,209.768L556.561,209.768L556.558,209.768L556.551,209.768L556.55,209.769L556.549,209.769L556.546,209.771L556.544,209.772L556.543,209.772L556.54,209.773L556.538,209.773L556.537,209.774L556.53,209.776L556.525,209.777L556.524,209.776L556.522,209.776L556.521,209.776L556.518,209.777L556.515,209.778L556.511,209.779L556.508,209.779L556.507,209.779L556.507,209.779L556.504,209.78L556.472,209.784L556.457,209.786L556.443,209.788L556.43,209.79L556.42,209.792L556.407,209.793L556.387,209.797L556.349,209.802L556.311,209.808L556.235,209.82L556.193,209.827L556.152,209.833L556.13,209.837L556.073,209.846L556.071,209.838L556.07,209.832L556.069,209.825L556.068,209.819L556.067,209.815L556.066,209.807L556.065,209.802L556.064,209.798L556.063,209.79L556.062,209.787L556.062,209.782L556.061,209.778L556.06,209.773L556.058,209.774L556.035,209.778L556.018,209.781L556.017,209.781L556.017,209.781L556.016,209.781L556.015,209.781L556.012,209.782L556.01,209.782L556.006,209.783L556.006,209.783L556.006,209.785L556.007,209.787L556.007,209.791L556.008,209.794L556.008,209.798L556.007,209.798L556.005,209.798L556.001,209.799L555.998,209.799L555.995,209.8L555.989,209.801L555.985,209.802L555.981,209.802L555.98,209.799L555.98,209.796L555.979,209.792L555.978,209.786L555.977,209.782L555.976,209.777L555.975,209.771L555.974,209.766L555.973,209.759L555.973,209.756L555.971,209.75L555.971,209.748L555.97,209.742L555.969,209.738L555.967,209.728L555.967,209.728L555.961,209.737L555.96,209.737L555.967,209.727L555.971,209.721L555.972,209.718L555.976,209.712L555.979,209.707L555.981,209.704L555.983,209.706L555.988,209.698L555.986,209.696L555.986,209.694L555.986,209.691L555.985,209.684L555.984,209.679L555.983,209.675L555.982,209.671L555.982,209.669L555.981,209.666L555.981,209.664L555.983,209.664L555.986,209.663L555.989,209.663L556.001,209.661L556.005,209.66L556.01,209.659L556.014,209.658L556.015,209.657L556.015,209.655L556.014,209.65L556.013,209.646L556.013,209.642L556.012,209.639L556.012,209.636L556.011,209.633L556.011,209.631L556.01,209.627L556.009,209.625L556.009,209.623L556.008,209.622L556.005,209.623L556,209.624L555.996,209.625L555.993,209.625L555.992,209.625L555.991,209.626L555.99,209.626L555.989,209.626L555.987,209.626L555.986,209.622L555.986,209.618L555.985,209.614L555.985,209.612L555.984,209.609L555.983,209.604L555.982,209.6L555.982,209.596L555.981,209.594L555.981,209.59L555.98,209.589L555.977,209.59L555.975,209.59L555.973,209.59L555.973,209.588L555.971,209.582L555.97,209.575L555.969,209.567L555.967,209.561L555.965,209.561L555.96,209.562L555.956,209.563L555.953,209.563L555.948,209.564L555.941,209.565L555.935,209.566L555.927,209.568L555.92,209.569L555.912,209.571L555.905,209.572L555.901,209.573L555.891,209.574L555.882,209.576L555.872,209.578L555.86,209.58L555.853,209.581L555.851,209.582L555.85,209.582L555.848,209.582L555.844,209.583L555.834,209.585L555.831,209.585L555.824,209.586L555.815,209.588L555.808,209.589L555.804,209.59L555.794,209.592L555.79,209.592L555.79,209.595L555.791,209.6L555.792,209.605L555.794,209.613L555.794,209.616L555.795,209.622L555.796,209.625L555.797,209.629L555.798,209.635L555.799,209.639L555.799,209.643L555.8,209.646L555.801,209.651L555.802,209.657L555.803,209.661L555.803,209.663L555.804,209.666L555.805,209.669L555.805,209.672L555.806,209.677L555.807,209.681L555.808,209.685L555.808,209.69L555.809,209.695L555.81,209.7L555.805,209.701L555.797,209.702L555.793,209.703L555.787,209.704L555.783,209.705L555.779,209.705L555.776,209.706L555.771,209.707L555.764,209.708L555.761,209.709L555.757,209.71L555.752,209.711L555.75,209.711L555.746,209.712L555.74,209.713L555.732,209.714L555.724,209.716L555.722,209.716L555.719,209.717L555.718,209.717L555.713,209.718L555.708,209.719L555.697,209.721L555.691,209.722L555.684,209.724L555.676,209.725L555.668,209.727L555.66,209.728L555.653,209.73L555.644,209.732L555.638,209.733L555.635,209.733L555.629,209.735L555.621,209.736L555.613,209.737L555.609,209.738L555.604,209.739L555.596,209.74L555.592,209.741L555.586,209.743L555.582,209.743L555.577,209.744L555.572,209.745L555.569,209.746L555.567,209.746L555.566,209.747L555.563,209.747L555.559,209.748L555.55,209.749L555.544,209.751L555.543,209.75L555.541,209.749L555.538,209.75L555.542,209.758L555.544,209.764L555.545,209.767L555.547,209.773L555.55,209.783L555.551,209.785L555.559,209.795L555.563,209.8L555.567,209.805L555.57,209.809L555.573,209.813L555.579,209.821L555.581,209.824L555.578,209.825L555.575,209.827L555.57,209.83L555.563,209.833L555.555,209.837L555.55,209.839L555.544,209.841L555.534,209.846L555.524,209.851L555.52,209.847L555.515,209.844L555.512,209.842L555.513,209.841L555.515,209.84L555.521,209.838L555.523,209.836L555.524,209.834L555.525,209.831L555.525,209.827L555.524,209.824L555.523,209.82L555.521,209.815L555.519,209.813L555.519,209.811L555.519,209.81L555.518,209.808L555.517,209.806L555.517,209.804L555.516,209.803L555.513,209.802L555.512,209.802L555.507,209.801L555.505,209.8L555.503,209.801L555.501,209.801L555.5,209.801L555.497,209.8L555.494,209.798L555.491,209.796L555.487,209.792L555.486,209.79L555.484,209.789L555.48,209.786L555.48,209.785L555.478,209.784L555.476,209.781L555.473,209.778L555.473,209.777L555.471,209.776L555.47,209.773L555.47,209.772L555.469,209.77L555.467,209.769L555.465,209.767L555.465,209.764L555.465,209.761L555.465,209.759L555.465,209.757L555.467,209.755L555.47,209.752L555.474,209.749L555.477,209.747L555.478,209.745L555.478,209.743L555.479,209.74L555.479,209.738L555.48,209.735L555.481,209.73L555.481,209.727L555.481,209.724L555.481,209.719L555.481,209.713L555.481,209.711L555.48,209.709L555.48,209.707L555.48,209.706L555.48,209.704L555.48,209.703L555.479,209.701L555.476,209.699L555.473,209.697L555.472,209.696L555.47,209.696L555.47,209.696L555.469,209.696L555.469,209.696L555.469,209.695L555.468,209.695L555.468,209.695L555.465,209.694L555.461,209.694L555.458,209.694L555.455,209.695L555.454,209.695L555.453,209.696L555.451,209.698L555.449,209.7L555.447,209.7L555.446,209.701L555.444,209.702L555.441,209.704L555.439,209.706L555.437,209.707L555.435,209.709L555.434,209.71L555.432,209.712L555.431,209.714L555.43,209.716L555.429,209.718L555.426,209.72L555.424,209.721L555.421,209.723L555.419,209.724L555.416,209.725L555.414,209.726L555.412,209.727L555.41,209.729L555.408,209.73L555.407,209.731L555.406,209.732L555.403,209.733L555.401,209.734L555.399,209.733L555.398,209.733L555.397,209.733L555.395,209.733L555.393,209.734L555.39,209.735L555.388,209.736L555.387,209.736L555.386,209.736L555.385,209.735L555.384,209.733L555.382,209.732L555.382,209.731L555.381,209.731L555.38,209.731L555.379,209.731L555.378,209.732L555.376,209.733L555.375,209.733L555.374,209.733L555.371,209.733L555.369,209.732L555.368,209.732L555.368,209.732L555.367,209.731L555.366,209.73L555.365,209.73L555.364,209.73L555.363,209.729L555.362,209.729L555.361,209.728L555.36,209.727L555.359,209.726L555.358,209.725L555.358,209.724L555.359,209.723L555.36,209.722L555.361,209.721L555.362,209.72L555.365,209.717L555.367,209.715L555.369,209.713L555.369,209.712L555.37,209.71L555.37,209.708L555.37,209.706L555.37,209.703L555.37,209.702L555.37,209.7L555.37,209.699L555.369,209.697L555.369,209.696L555.368,209.696L555.366,209.694L555.365,209.693L555.364,209.691L555.364,209.69L555.364,209.689L555.364,209.688L555.365,209.687L555.366,209.686L555.368,209.685L555.371,209.683L555.373,209.682L555.375,209.68L555.377,209.678L555.38,209.676L555.382,209.675L555.383,209.674L555.383,209.672L555.386,209.669L555.388,209.666L555.39,209.66L555.392,209.656L555.394,209.651L555.394,209.649L555.396,209.641L555.396,209.637L555.396,209.634L555.396,209.633L555.396,209.631L555.395,209.627L555.393,209.624L555.392,209.622L555.391,209.619L555.39,209.618L555.389,209.617L555.388,209.616L555.386,209.616L555.385,209.616L555.384,209.616L555.384,209.616L555.383,209.617L555.383,209.618L555.381,209.621L555.38,209.624L555.38,209.624L555.379,209.625L555.377,209.626L555.373,209.628L555.367,209.63L555.361,209.632L555.353,209.635L555.349,209.636L555.347,209.637L555.344,209.637L555.338,209.637L555.336,209.637L555.335,209.637L555.333,209.637L555.332,209.636L555.331,209.636L555.328,209.636L555.325,209.634L555.318,209.63L555.314,209.63L555.307,209.629L555.305,209.63L555.301,209.632L555.3,209.633L555.298,209.636L555.297,209.637L555.296,209.638L555.295,209.639L555.294,209.641L555.292,209.641L555.292,209.641L555.291,209.641L555.289,209.642L555.286,209.643L555.283,209.642L555.284,209.641L555.276,209.639L555.271,209.638L555.266,209.637L555.261,209.636L555.257,209.635L555.254,209.634L555.251,209.633L555.247,209.633L555.243,209.632L555.234,209.63L555.219,209.627L555.212,209.626L555.207,209.624L555.199,209.623L555.192,209.621L555.188,209.621L555.184,209.62L555.176,209.618L555.161,209.615L555.157,209.614L555.154,209.613L555.154,209.62L555.152,209.633L555.151,209.645L555.15,209.655L555.149,209.664L555.15,209.665L555.149,209.672L555.148,209.679L555.15,209.687L555.151,209.697L555.153,209.709L555.154,209.715L555.156,209.726L555.157,209.733L555.158,209.739L555.158,209.74L555.159,209.739L555.182,209.728L555.208,209.715L555.219,209.709L555.229,209.703L555.233,209.7L555.236,209.698L555.236,209.701L555.238,209.715L555.239,209.72L555.239,209.724L555.241,209.739L555.242,209.751L555.243,209.76L555.245,209.771L555.245,209.772L555.242,209.774L555.232,209.777L555.22,209.782L555.208,209.786L555.205,209.788L555.206,209.793L555.206,209.795L555.207,209.797L555.207,209.799L555.208,209.807L555.209,209.813L555.21,209.818L555.211,209.822L555.212,209.827L555.214,209.836L555.215,209.84L555.215,209.842L555.216,209.846L555.217,209.851L555.217,209.854L555.216,209.855L555.212,209.856L555.212,209.859L555.213,209.862L555.212,209.863L555.21,209.864L555.209,209.866L555.21,209.87L555.211,209.872L555.212,209.875L555.215,209.887L555.216,209.893L555.218,209.912L555.219,209.919L555.219,209.923L555.218,209.929L555.22,209.936L555.221,209.941L555.22,209.944L555.221,209.949L555.223,209.965L555.226,209.979L555.227,209.989L555.228,209.996L555.229,210.003L555.23,210.006L555.219,210.007L555.203,210.01L555.188,210.012L555.162,210.016L555.139,210.02L555.119,210.024L555.118,210.016L555.119,210.007L555.118,209.996L555.119,209.992L555.119,209.983L555.119,209.966L555.118,209.92L555.118,209.89L555.118,209.879L555.118,209.875L555.118,209.87L555.115,209.869L555.111,209.87L555.094,209.877L555.081,209.883L555.079,209.886L555.079,209.891L555.083,209.906L555.087,209.926L555.088,209.936L555.09,209.944L555.09,209.946L555.084,209.947L555.069,209.95L555.057,209.952L555.057,209.957L555.059,209.966L555.06,209.977L555.061,209.983L555.062,209.988L555.062,209.992L555.058,209.993L555.051,209.995L555.049,209.998L555.049,210.002L555.052,210.019L555.055,210.037L555.057,210.048L555.059,210.06L555.059,210.062L555.058,210.064L555.06,210.076L555.063,210.091L555.065,210.102L555.065,210.105L555.071,210.104L555.085,210.101L555.104,210.098L555.133,210.093L555.14,210.092L555.16,210.088L555.181,210.084L555.192,210.082L555.195,210.081L555.204,210.091L555.206,210.099L555.208,210.113L555.209,210.12L555.212,210.138L555.216,210.158L555.218,210.171L555.219,210.177L555.22,210.184L555.221,210.186L555.22,210.188L555.224,210.198L555.225,210.205L555.226,210.211L555.229,210.218L555.226,210.22L555.222,210.221L555.221,210.224L555.22,210.228L555.218,210.23L555.203,210.236L555.185,210.241L555.172,210.246L555.171,210.247L555.174,210.258L555.178,210.274L555.184,210.294L555.185,210.298L555.184,210.302L555.183,210.308L555.184,210.314L555.186,210.315L555.182,210.318L555.175,210.321L555.17,210.324L555.174,210.343L555.175,210.349L555.178,210.349L555.183,210.347L555.191,210.346L555.196,210.345L555.198,210.345L555.199,210.352L555.2,210.355L555.233,210.369L555.23,210.374L555.227,210.38L555.241,210.392L555.252,210.402L555.267,210.418L555.277,210.426L555.29,210.439L555.295,210.443L555.3,210.446L555.306,210.453L555.305,210.454L555.304,210.454L555.302,210.455L555.301,210.455L555.3,210.455L555.298,210.454L555.297,210.454L555.297,210.453L555.296,210.453L555.295,210.453L555.294,210.453L555.293,210.454L555.292,210.454L555.292,210.455L555.29,210.459L555.289,210.461L555.289,210.462L555.288,210.463L555.287,210.464L555.286,210.463L555.285,210.464L555.283,210.464L555.282,210.464L555.281,210.464L555.281,210.463L555.28,210.462L555.279,210.462L555.278,210.462L555.277,210.462L555.277,210.463L555.275,210.466L555.274,210.467L555.273,210.468L555.272,210.468L555.271,210.468L555.27,210.468L555.27,210.469L555.268,210.469L555.268,210.468L555.268,210.468L555.267,210.467L555.267,210.467L555.267,210.467L555.266,210.467L555.266,210.467L555.266,210.466L555.266,210.465L555.266,210.464L555.267,210.463L555.268,210.462L555.27,210.461L555.271,210.46L555.272,210.46L555.273,210.459L555.273,210.458L555.273,210.458L555.272,210.457L555.272,210.457L555.271,210.457L555.27,210.456L555.27,210.456L555.269,210.457L555.267,210.457L555.266,210.458L555.265,210.458L555.264,210.458L555.263,210.458L555.262,210.458L555.261,210.458L555.26,210.458L555.26,210.458L555.259,210.459L555.258,210.459L555.256,210.46L555.254,210.461L555.253,210.462L555.252,210.462L555.251,210.463L555.251,210.465L555.25,210.466L555.25,210.467L555.248,210.469L555.248,210.47L555.247,210.471L555.244,210.471L555.241,210.472L555.239,210.472L555.237,210.471L555.236,210.471L555.233,210.469L555.229,210.467L555.226,210.466L555.223,210.465L555.221,210.465L555.22,210.466L555.218,210.466L555.216,210.468L555.214,210.469L555.213,210.469L555.212,210.47L555.211,210.471L555.211,210.473L555.211,210.474L555.211,210.475L555.211,210.476L555.211,210.477L555.211,210.478L555.212,210.479L555.212,210.48L555.211,210.481L555.211,210.482L555.212,210.485L555.212,210.488L555.212,210.49L555.214,210.497L555.215,210.499L555.219,210.506L555.222,210.512L555.224,210.515L555.225,210.515L555.226,210.516L555.23,210.518L555.232,210.518L555.234,210.519L555.237,210.52L555.238,210.52L555.238,210.521L555.238,210.521L555.237,210.522L555.238,210.522L555.238,210.522L555.238,210.523L555.238,210.523L555.238,210.523L555.237,210.524L555.236,210.525L555.236,210.525L555.235,210.525L555.233,210.526L555.233,210.527L555.232,210.528L555.231,210.53L555.229,210.532L555.228,210.532L555.228,210.531L555.227,210.531L555.226,210.531L555.225,210.531L555.224,210.531L555.224,210.532L555.223,210.532L555.223,210.533L555.221,210.536L555.22,210.537L555.219,210.538L555.218,210.539L555.217,210.539L555.215,210.539L555.215,210.539L555.214,210.538L555.213,210.538L555.212,210.538L555.211,210.538L555.209,210.539L555.208,210.539L555.206,210.539L555.206,210.539L555.205,210.539L555.205,210.538L555.205,210.537L555.205,210.537L555.205,210.536L555.205,210.536L555.204,210.536L555.204,210.536L555.202,210.536L555.201,210.536L555.199,210.536L555.198,210.536L555.196,210.536L555.195,210.536L555.194,210.536L555.192,210.535L555.19,210.533L555.187,210.531L555.185,210.529L555.184,210.528L555.184,210.527L555.184,210.526L555.183,210.525L555.182,210.525L555.181,210.525L555.18,210.524L555.18,210.523L555.179,210.521L555.177,210.519L555.175,210.516L555.175,210.515L555.174,210.514L555.174,210.513L555.174,210.512L555.175,210.51L555.176,210.509L555.177,210.508L555.178,210.507L555.178,210.506L555.178,210.505L555.177,210.504L555.173,210.5L555.17,210.495L555.166,210.49L555.165,210.489L555.164,210.488L555.163,210.488L555.162,210.487L555.16,210.487L555.158,210.488L555.156,210.488L555.154,210.488L555.152,210.488L555.15,210.487L555.149,210.487L555.148,210.488L555.147,210.488L555.147,210.488L555.147,210.489L555.146,210.489L555.145,210.489L555.145,210.489L555.144,210.49L555.142,210.491L555.141,210.492L555.14,210.493L555.139,210.494L555.138,210.495L555.136,210.496L555.134,210.496L555.132,210.496L555.131,210.495L555.129,210.494L555.128,210.493L555.127,210.492L555.125,210.49L555.124,210.489L555.122,210.489L555.121,210.488L555.12,210.489L555.119,210.489L555.119,210.49L555.119,210.491L555.119,210.491L555.119,210.493L555.12,210.494L555.121,210.495L555.122,210.496L555.124,210.498L555.125,210.499L555.125,210.499L555.126,210.5L555.125,210.501L555.125,210.502L555.125,210.502L555.123,210.503L555.122,210.503L555.12,210.503L555.118,210.502L555.117,210.501L555.116,210.499L555.115,210.498L555.114,210.497L555.113,210.496L555.111,210.496L555.11,210.496L555.109,210.497L555.109,210.498L555.108,210.499L555.108,210.5L555.109,210.501L555.109,210.502L555.109,210.503L555.109,210.504L555.109,210.505L555.108,210.507L555.107,210.508L555.107,210.509L555.107,210.509L555.107,210.51L555.107,210.51L555.107,210.511L555.108,210.512L555.108,210.513L555.109,210.513L555.109,210.514L555.11,210.514L555.11,210.515L555.11,210.516L555.11,210.517L555.109,210.519L555.109,210.52L555.109,210.521L555.109,210.522L555.109,210.523L555.11,210.525L555.112,210.528L555.112,210.529L555.113,210.53L555.112,210.53L555.112,210.532L555.111,210.532L555.111,210.533L555.111,210.534L555.11,210.534L555.11,210.535L555.11,210.536L555.11,210.537L555.11,210.539L555.111,210.54L555.111,210.541L555.111,210.541L555.111,210.543L555.11,210.544L555.11,210.544L555.11,210.545L555.109,210.545L555.109,210.546L555.108,210.547L555.107,210.548L555.106,210.549L555.105,210.55L555.104,210.551L555.103,210.553L555.102,210.554L555.101,210.556L555.1,210.557L555.098,210.558L555.097,210.56L555.095,210.561L555.094,210.562L555.093,210.563L555.092,210.563L555.091,210.563L555.09,210.564L555.09,210.565L555.089,210.566L555.088,210.567L555.088,210.567L555.087,210.568L555.086,210.568L555.084,210.568L555.084,210.568L555.083,210.568L555.081,210.568L555.079,210.569L555.077,210.569L555.075,210.57L555.073,210.57L555.071,210.57L555.07,210.571L555.067,210.571L555.066,210.572L555.064,210.572L555.063,210.573L555.062,210.574L555.061,210.575L555.06,210.577L555.059,210.579L555.059,210.581L555.059,210.584L555.059,210.586L555.059,210.588L555.059,210.588L555.06,210.59L555.061,210.591L555.062,210.592L555.063,210.594L555.064,210.596L555.064,210.597L555.064,210.598L555.064,210.598L555.064,210.599L555.063,210.6L555.063,210.6L555.061,210.599L555.06,210.599L555.059,210.599L555.058,210.599L555.055,210.6L555.054,210.6L555.053,210.6L555.05,210.601L555.048,210.602L555.046,210.603L555.045,210.603L555.043,210.603L555.043,210.603L555.042,210.603L555.042,210.602L555.041,210.602L555.04,210.602L555.04,210.601L555.039,210.601L555.037,210.599L555.035,210.597L555.032,210.596L555.028,210.595L555.026,210.594L555.024,210.591L555.022,210.589L555.021,210.588L555.021,210.586L555.021,210.585L555.02,210.583L555.021,210.582L555.022,210.58L555.023,210.578L555.024,210.577L555.024,210.576L555.023,210.575L555.023,210.574L555.023,210.573L555.022,210.572L555.022,210.571L555.021,210.569L555.02,210.568L555.019,210.566L555.019,210.565L555.018,210.563L555.016,210.561L555.015,210.559L555.014,210.558L555.012,210.556L555.01,210.555L555.009,210.554L555.007,210.554L555.006,210.554L555.004,210.554L555.003,210.554L555.002,210.554L555.001,210.555L555,210.556L555,210.56L554.999,210.561L554.999,210.563L554.999,210.564L554.999,210.564L554.999,210.565L555,210.565L555.001,210.565L555.003,210.566L555.004,210.566L555.005,210.566L555.006,210.567L555.006,210.567L555.006,210.568L555.006,210.569L555.006,210.569L555.005,210.57L555.003,210.571L555.002,210.571L555.002,210.571L555,210.57L554.999,210.57L554.998,210.568L554.997,210.568L554.995,210.568L554.994,210.567L554.992,210.568L554.991,210.568L554.988,210.569L554.987,210.569L554.986,210.569L554.986,210.568L554.984,210.569L554.981,210.569L554.977,210.565L554.972,210.566L554.969,210.567L554.966,210.568L554.96,210.568L554.952,210.569L554.947,210.57L554.941,210.571L554.936,210.571L554.935,210.575L554.936,210.579L554.935,210.584L554.933,210.587L554.931,210.594L554.929,210.597L554.928,210.6L554.927,210.603L554.925,210.607L554.924,210.61L554.921,210.618L554.919,210.623L554.918,210.627L554.916,210.63L554.914,210.635L554.913,210.637L554.912,210.638L554.909,210.641L554.903,210.649L554.899,210.653L554.893,210.66L554.891,210.662L554.89,210.664L554.887,210.666L554.885,210.669L554.881,210.672L554.877,210.674L554.873,210.675L554.87,210.676L554.867,210.678L554.865,210.682L554.863,210.685L554.862,210.687L554.862,210.69L554.864,210.696L554.865,210.699L554.866,210.702L554.866,210.706L554.866,210.708L554.865,210.71L554.863,210.714L554.861,210.717L554.856,210.721L554.852,210.726L554.85,210.728L554.85,210.73L554.85,210.733L554.849,210.736L554.847,210.739L554.845,210.741L554.846,210.742L554.849,210.747L554.851,210.751L554.853,210.753L554.854,210.755L554.854,210.759L554.854,210.763L554.855,210.765L554.856,210.77L554.856,210.772L554.857,210.776L554.858,210.778L554.856,210.783L554.855,210.786L554.853,210.789L554.851,210.792L554.851,210.796L554.85,210.801L554.851,210.806L554.853,210.81L554.855,210.814L554.858,210.818L554.861,210.823L554.864,210.823L554.868,210.824L554.873,210.826L554.875,210.828L554.877,210.831L554.88,210.836L554.884,210.839L554.888,210.841L554.89,210.843L554.899,210.848L554.903,210.85L554.907,210.852L554.917,210.859L554.927,210.865L554.93,210.866L554.941,210.873L554.954,210.881L554.972,210.891L554.98,210.897L554.992,210.903L554.997,210.907L555.003,210.913L555.012,210.918L555.02,210.923L555.03,210.929L555.04,210.935L555.045,210.939L555.086,210.864L555.122,210.883L555.171,210.792L555.137,210.773L555.175,210.701L555.205,210.718L555.26,210.748L555.155,210.94L555.149,210.935L555.12,210.986L555.113,210.981L555.099,211.004L555.091,211.017L555.085,211.026L555.083,211.029L555.082,211.031L555.081,211.034L555.08,211.035L555.074,211.045L555.037,211.102L555.031,211.102L555.019,211.091L554.998,211.078L554.99,211.073L554.974,211.063L554.944,211.045L554.939,211.041L554.924,211.032L554.919,211.03L554.916,211.028L554.91,211.038L554.901,211.052L554.894,211.062L554.891,211.068L554.89,211.069L554.897,211.085L554.903,211.1L554.906,211.112L554.908,211.124L554.909,211.131L554.912,211.147L554.916,211.166L554.917,211.168L554.942,211.163L554.96,211.161L554.963,211.179L554.965,211.191L554.966,211.193L554.966,211.196L554.966,211.198L554.937,211.203L554.911,211.209L554.91,211.208L554.907,211.207L554.879,211.212L554.87,211.215L554.871,211.219L554.873,211.233L554.876,211.248L554.877,211.254L554.874,211.255L554.851,211.26L554.8,211.269L554.753,211.277L554.736,211.28L554.733,211.287L554.732,211.289L554.732,211.289L554.735,211.29L554.737,211.293L554.737,211.3L554.735,211.306L554.729,211.314L554.727,211.318L554.728,211.321L554.73,211.322L554.731,211.322L554.735,211.324L554.741,211.326L554.749,211.331L554.755,211.334L554.761,211.336L554.77,211.335L554.782,211.333L554.793,211.332L554.807,211.33L554.812,211.329L554.82,211.328L554.829,211.326L554.829,211.326L554.836,211.326L554.845,211.324L554.859,211.321L554.86,211.323L554.863,211.335L554.864,211.348L554.866,211.362L554.894,211.359L554.91,211.356L554.915,211.382L554.841,211.398L554.83,211.4L554.829,211.4L554.802,211.406L554.786,211.41L554.785,211.409L554.781,211.41L554.759,211.414L554.756,211.414L554.751,211.415L554.739,211.418L554.726,211.42L554.689,211.426L554.692,211.438L554.691,211.439L554.667,211.443L554.635,211.447L554.627,211.448L554.626,211.449L554.627,211.452L554.632,211.463L554.631,211.465L554.622,211.471L554.619,211.473L554.612,211.473L554.608,211.462L554.607,211.457L554.603,211.458L554.592,211.46L554.584,211.461L554.578,211.462L554.576,211.458L554.575,211.458L554.574,211.458L554.545,211.462L554.529,211.465L554.513,211.468L554.512,211.472L554.512,211.472L554.51,211.472L554.504,211.473L554.502,211.473L554.502,211.473L554.501,211.473L554.501,211.472L554.5,211.472L554.499,211.471L554.499,211.471L554.498,211.471L554.498,211.47L554.497,211.469L554.497,211.468L554.496,211.465L554.489,211.427L554.487,211.413L554.487,211.412L554.486,211.407L554.485,211.405L554.485,211.401L554.483,211.392L554.483,211.391L554.483,211.39L554.483,211.387L554.481,211.378L554.48,211.375L554.48,211.372L554.475,211.373L554.471,211.374L554.462,211.375L554.46,211.376L554.454,211.377L554.453,211.377L554.452,211.377L554.448,211.378L554.448,211.378L554.447,211.378L554.447,211.378L554.439,211.379L554.415,211.383L554.404,211.385L554.402,211.385L554.402,211.386L554.393,211.387L554.373,211.389L554.362,211.391L554.358,211.391L554.359,211.387L554.356,211.386L554.353,211.384L554.352,211.38L554.324,211.385L554.309,211.388L554.308,211.385L554.307,211.379L554.306,211.378L554.301,211.379L554.298,211.379L554.297,211.378L554.297,211.374L554.296,211.37L554.292,211.37L554.287,211.37L554.286,211.37L554.287,211.364L554.287,211.357L554.286,211.349L554.284,211.347L554.245,211.354L554.243,211.343L554.242,211.329L554.242,211.322L554.24,211.321L554.23,211.323L554.224,211.324L554.223,211.325L554.225,211.329L554.226,211.335L554.227,211.343L554.228,211.348L554.229,211.35L554.23,211.358L554.231,211.37L554.234,211.392L554.235,211.401L554.208,211.406L554.21,211.409L554.21,211.412L554.214,211.434L554.215,211.442L554.219,211.467L554.218,211.467L554.205,211.469L554.2,211.471L554.198,211.471L554.164,211.476L554.136,211.48L554.116,211.483L554.113,211.472L554.111,211.455L554.11,211.454L554.11,211.453L554.105,211.425L554.088,211.426L554.074,211.429L554.072,211.429L554.036,211.436L554.032,211.435L554.021,211.438L554.019,211.439L553.99,211.444L553.942,211.452L553.955,211.526L553.903,211.535L553.899,211.533L553.877,211.521L553.863,211.512L553.864,211.512L553.858,211.508L553.852,211.504L553.839,211.495L553.837,211.494L553.826,211.487L553.826,211.487L553.82,211.484L553.816,211.481L553.801,211.472L553.79,211.464L553.783,211.458L553.772,211.452L553.753,211.439L553.731,211.425L553.722,211.42L553.712,211.413L553.712,211.414L553.714,211.417L553.715,211.421L553.716,211.424L553.717,211.426L553.718,211.428L553.719,211.43L553.722,211.434L553.725,211.439L553.734,211.451L553.738,211.456L553.754,211.476L553.717,211.503L553.715,211.504L553.683,211.51L553.698,211.593L553.68,211.598L553.615,211.612L553.619,211.64L553.59,211.645L553.531,211.655L553.52,211.657L553.519,211.651L553.517,211.651L553.515,211.639L553.474,211.648L553.469,211.649L553.446,211.654L553.429,211.658L553.429,211.66L553.435,211.699L553.459,211.694L553.461,211.701L553.468,211.743L553.47,211.757L553.475,211.789L553.478,211.807L553.453,211.811L553.452,211.806L553.389,211.817L553.386,211.818L553.38,211.819L553.367,211.821L553.367,211.822L553.383,211.842L553.312,211.854L553.314,211.875L553.308,211.877L553.308,211.877L553.217,211.881L553.212,212.054L553.103,212.195L553.101,212.204L553.098,212.212L553.098,212.214L553.097,212.214L553.096,212.216L553.092,212.225L553.088,212.234L553.083,212.245L553.08,212.251L553.075,212.256L553.073,212.257L553.072,212.259L553.065,212.257L553.061,212.255L553.052,212.253L553.046,212.255L553.046,212.255L553.038,212.259L553.032,212.262L553.032,212.262L553.028,212.267L553.024,212.27L553.023,212.271L553.022,212.272L553.021,212.275L553.02,212.276L553.017,212.284L553.014,212.29L553.011,212.295L553.008,212.302L553.007,212.302L553.012,212.347L553.012,212.356L553.013,212.366L553.015,212.389L553.009,212.419L553.013,212.486L553.016,212.541L553.018,212.563L553.016,212.589L553.016,212.59L553.009,212.6L553.003,212.608L552.996,212.617L552.96,212.627L552.944,212.611L552.905,212.607L552.887,212.606L552.826,212.6L552.788,212.596L552.668,212.565L552.571,212.538L552.556,212.538L552.539,212.539L552.506,212.541L552.302,212.475L551.932,212.47L551.935,212.471L551.967,212.478L552,212.483L552.033,212.486L552.062,212.486L552.061,212.492L552.056,212.525L552.053,212.558L552.053,212.591L552.055,212.624L552.059,212.657L552.065,212.69L552.066,212.692L552.065,212.708L552.064,212.741L552.066,212.774L552.07,212.807L552.077,212.84L552.085,212.872L552.096,212.903L552.109,212.934L552.124,212.964L552.141,212.992L552.16,213.019L552.18,213.045L552.203,213.07L552.227,213.093L552.239,213.103L552.255,213.126L552.276,213.152L552.298,213.177L552.322,213.2L552.348,213.221L552.375,213.24L552.403,213.258L552.432,213.273L552.463,213.287L552.494,213.298L552.526,213.308L552.558,213.315L552.561,213.315L552.571,213.321L552.6,213.337L552.631,213.351L552.662,213.362L552.694,213.371L552.726,213.378L552.759,213.383L552.792,213.386L552.8,213.386L552.813,213.392L552.844,213.403L552.876,213.412L552.908,213.419L552.941,213.424L552.974,213.427L553.006,213.427L553.013,213.43L553.044,213.442L553.076,213.451L553.108,213.458L553.141,213.463L553.154,213.464L553.155,213.465L553.185,213.48L553.215,213.494L553.246,213.505L553.278,213.515L553.31,213.522L553.331,213.525L553.344,213.533L553.373,213.548L553.404,213.562L553.435,213.573L553.467,213.583L553.499,213.59L553.532,213.595L553.565,213.597L553.572,213.597L553.578,213.601L553.608,213.614L553.639,213.626L553.671,213.635L553.704,213.642L553.736,213.647L553.746,213.648L553.762,213.658L553.791,213.673L553.822,213.687L553.853,213.698L553.885,213.708L553.917,213.715L553.95,213.72L553.962,213.721L553.985,213.733L554.015,213.746L554.046,213.758L554.078,213.767L554.11,213.774L554.143,213.779L554.176,213.781L554.21,213.782L554.213,213.782L554.235,213.792L554.267,213.803L554.298,213.812L554.331,213.819L554.364,213.824L554.397,213.827L554.43,213.827L554.438,213.827L554.46,213.837L554.492,213.848L554.523,213.858L554.556,213.865L554.589,213.87L554.621,213.872L554.786,213.857L554.948,213.759L555.311,213.633L555.608,213.53L555.901,213.428L555.985,213.31L555.954,213.211L555.978,213.171L556.025,213.134L556.03,213.131L556.036,213.129L556.043,213.126L556.049,213.124L556.053,213.123L556.056,213.122L556.06,213.12L556.065,213.118L556.065,213.118L556.069,213.115L556.059,213.106L556.058,213.096L556.057,213.092L556.056,213.088L556.056,213.085L556.055,213.079L556.054,213.077L556.053,213.072L556.052,213.067L556.052,213.065L556.05,213.055L556.046,213.032L556.043,213.012L556.038,212.985L556.035,212.97L556.031,212.943L556.025,212.944L556.023,212.944L556.023,212.943L556.023,212.941L556.024,212.94L556.028,212.939L556.03,212.938L556.028,212.93L556.025,212.913L556.035,212.911L556.036,212.909L556.036,212.909L556.038,212.91L556.038,212.911L556.039,212.911L556.055,212.908L556.076,212.905L556.078,212.905L556.079,212.906L556.081,212.908L556.084,212.91L556.085,212.912L556.087,212.913L556.09,212.914L556.094,212.917L556.098,212.919L556.102,212.921L556.104,212.922L556.11,212.926L556.118,212.948L556.143,212.961L556.147,212.964L556.149,212.965L556.153,212.966L556.154,212.966L556.158,212.967L556.162,212.968L556.163,212.968L556.166,212.969L556.193,212.987L556.226,213.01L556.229,213.011L556.231,213.011L556.232,213.011L556.233,213.012L556.237,213.01L556.239,213.009L556.241,213.009L556.251,213.006L556.264,212.996L556.265,212.995L556.265,212.995L556.273,212.99L556.288,212.982L556.31,212.974L556.328,212.969L556.332,212.969L556.335,212.969L556.337,212.968L556.339,212.968L556.343,212.968L556.345,212.968L556.347,212.968L556.349,212.968L556.352,212.967L556.414,212.977L556.417,212.979L556.419,212.98L556.42,212.98L556.424,212.982L556.426,212.984L556.43,212.986L556.436,212.99L556.492,213.043L556.496,213.047L556.568,213.085L556.62,213.118L556.641,213.133L556.664,213.153L556.727,213.182L556.728,213.183L556.754,213.195L556.758,213.194L556.76,213.193L556.764,213.19L556.766,213.189L556.769,213.186L556.775,213.181L556.778,213.18L556.781,213.178L556.783,213.177L556.789,213.175L556.802,213.175L556.862,213.199L556.865,213.201L556.868,213.202L556.87,213.203L556.872,213.205L556.874,213.206L556.877,213.209L556.88,213.211L556.882,213.213L556.884,213.215L556.886,213.216L556.889,213.22L556.89,213.222L556.893,213.225L556.895,213.228L556.898,213.232L556.899,213.234L556.902,213.239L556.905,213.244L556.908,213.249L556.94,213.272L556.948,213.278L556.951,213.28L556.953,213.281L556.956,213.284L556.962,213.288L556.963,213.29L556.965,213.291L556.968,213.293L556.971,213.295L556.974,213.297L556.975,213.297L556.977,213.297L556.981,213.298L557.056,213.323L557.06,213.324L557.061,213.324L557.066,213.325L557.069,213.326L557.074,213.328L557.076,213.328L557.08,213.329L557.081,213.329L557.083,213.329L557.087,213.329L557.088,213.329L557.09,213.329L557.094,213.328L557.098,213.327L557.101,213.327L557.105,213.326L557.108,213.325L557.2,213.293L557.221,213.313L557.223,213.314L557.227,213.316L557.228,213.316L557.233,213.318L557.235,213.319L557.239,213.322L557.245,213.325L557.335,213.428L557.336,213.428L557.342,213.435L557.346,213.444L557.351,213.457L557.351,213.459L557.351,213.463L557.351,213.467L557.352,213.471L557.353,213.475L557.354,213.478L557.355,213.482L557.357,213.484L557.359,213.488L557.36,213.491L557.362,213.494L557.365,213.498L557.367,213.501L557.37,213.505L557.372,213.508L557.375,213.512L557.378,213.516L557.381,213.52L557.384,213.523L557.385,213.526L557.387,213.527L557.39,213.53L557.393,213.534L557.395,213.537L557.398,213.541L557.401,213.543L557.403,213.546L557.405,213.549L557.408,213.551L557.41,213.554L557.412,213.555L557.415,213.559L557.417,213.561L557.421,213.564L557.423,213.566L557.425,213.568L557.432,213.574L557.437,213.578L557.438,213.579L557.441,213.581L557.444,213.583L557.447,213.584L557.452,213.587L557.455,213.589L557.456,213.589L557.457,213.589L557.46,213.591L557.465,213.593L557.469,213.594L557.472,213.594L557.473,213.595L557.476,213.595L557.478,213.595L557.481,213.595L557.484,213.595L557.486,213.595L557.488,213.595L557.491,213.595L557.498,213.595L557.5,213.594L557.502,213.593L557.504,213.592L557.507,213.59L557.509,213.588L557.512,213.586L557.515,213.584L557.518,213.582L557.52,213.58L557.524,213.577L557.526,213.575L557.529,213.572L557.533,213.568L557.536,213.566L557.537,213.565L557.538,213.563L557.541,213.56L557.542,213.558L557.545,213.555L557.547,213.552L557.55,213.549L557.553,213.544L557.555,213.54L557.558,213.536L557.559,213.536L557.559,213.535L557.561,213.533L557.561,213.533L557.561,213.532L557.562,213.531L557.564,213.527L557.567,213.523L557.571,213.52L557.572,213.517L557.574,213.514L557.575,213.509L557.575,213.507L557.578,213.502L557.583,213.496L557.586,213.491L557.587,213.486L557.588,213.486L557.588,213.485L557.59,213.48L557.595,213.476L557.598,213.473L557.602,213.471L557.61,213.47L557.613,213.469L557.615,213.469L557.621,213.468L557.626,213.467L557.629,213.467L557.636,213.467L557.642,213.468L557.647,213.468L557.65,213.469L557.654,213.469L557.659,213.47L557.665,213.471L557.669,213.471L557.67,213.472L557.675,213.473L557.677,213.474L557.679,213.475L557.682,213.476L557.687,213.478L557.692,213.48L557.698,213.483L557.704,213.485L557.712,213.489L557.714,213.49L557.72,213.493L557.725,213.496L557.728,213.498L557.734,213.501L557.738,213.504L557.744,213.507L557.751,213.511L557.755,213.514L557.756,213.515L557.758,213.516L557.761,213.518L557.765,213.52L557.769,213.523L557.772,213.526L557.777,213.53L557.783,213.535L557.787,213.539L557.792,213.544L557.797,213.548L557.801,213.552L557.803,213.554L557.806,213.557L557.809,213.56L557.814,213.565L557.816,213.567L557.82,213.571L557.823,213.574L557.827,213.578L557.829,213.58L557.834,213.584L557.838,213.588L557.841,213.592L557.844,213.595L557.848,213.599L557.85,213.601L557.853,213.604L557.857,213.608L557.86,213.612L557.863,213.615L557.866,213.619L557.867,213.62L557.869,213.622L557.872,213.624L557.874,213.627L557.878,213.631L557.883,213.636L557.887,213.64L557.891,213.644L557.898,213.65L557.904,213.657L557.911,213.664L557.918,213.67L557.923,213.675L557.923,213.676L557.924,213.676L557.929,213.677L557.937,213.679L557.943,213.681L557.95,213.683L557.956,213.684L557.963,213.686L557.966,213.686L557.972,213.688L557.981,213.69L557.989,213.692L557.996,213.694L558.001,213.695L558.004,213.695L558.003,213.702L558.003,213.707L558.003,213.716L558.003,213.724L558.003,213.729L558.003,213.736L558.002,213.744L558.002,213.751L558.002,213.756L558.002,213.765L558.002,213.776L558.001,213.787L558.001,213.802L558.001,213.812L558.001,213.822L558,213.83L558,213.842L558,213.851L558,213.856L558,213.864L558,213.869L557.999,213.877L557.999,213.884L557.999,213.893L557.999,213.901L557.998,213.907L557.998,213.911L558.005,213.913L558.011,213.915L558.02,213.919L558.03,213.923L558.04,213.926L558.047,213.929L558.056,213.932L558.062,213.934L558.068,213.936L558.076,213.939L558.082,213.941L558.093,213.945L558.104,213.949L558.107,213.95L558.112,213.952L558.118,213.955L558.127,213.959L558.136,213.964L558.143,213.967L558.149,213.97L558.154,213.973L558.16,213.976L558.168,213.981L558.178,213.987L558.185,213.991L558.193,213.995L558.199,213.998L558.205,214.001L558.211,214.005L558.217,214.008L558.227,214.013L558.235,214.018L558.242,214.022L558.249,214.027L558.255,214.032L558.261,214.036L558.266,214.04L558.273,214.036L558.278,214.034L558.282,214.032L558.286,214.03L558.291,214.027ZM800,0L800,12.246L800,78.668L800,145.789L800,215.835L800,261.497L800,300L800,338.503L800,384.165L800,454.211L800,600L800,600L200,600L200,600L200,454.211L200,384.165L200,338.503L200,300L200,261.497L200,215.835L200,145.789L200,78.668L200,12.246L200,0L200,0L800,0Z"/>
<path d="M554.357,211.912m0,4.5a4.5,4.5 0 1,1 0,-9a4.5,4.5 0 1,1 0,9z"/>
<path d="M555.68,212.15m0,4.5a4.5,4.5 0 1,1 0,-9a4.5,4.5 0 1,1 0,9z"/>
</svg>