<?xml version="1.0" encoding="UTF-8"?>
<svg xmlns="http://www.w3.org/2000/svg" viewBox="0 0 1000 600" stroke="#000" stroke-width="0.3" fill="#ccc">
<path d="M552.036,177.495L552.031,177.497L551.984,177.371L551.975,177.37L551.975,177.354L551.948,177.349L551.939,177.347L551.927,177.345L551.949,177.319L551.944,177.311L551.94,177.302L551.94,177.293L551.943,177.279L551.937,177.276L551.924,177.263L551.919,177.262L551.914,177.255L551.892,177.244L551.886,177.234L551.805,177.23L551.794,177.254L551.783,177.285L551.766,177.304L551.758,177.299L551.758,177.297L551.752,177.294L551.761,177.281L551.744,177.279L551.731,177.294L551.725,177.299L551.715,177.299L551.703,177.31L551.696,177.331L551.684,177.34L551.662,177.38L551.659,177.38L551.65,177.393L551.639,177.381L551.619,177.382L551.617,177.415L551.611,177.41L551.593,177.416L551.594,177.474L551.644,177.483L551.672,177.523L551.661,177.538L551.648,177.55L551.632,177.558L551.631,177.586L551.59,177.611L551.608,177.641L551.587,177.709L551.577,177.719L551.537,177.778L551.456,177.836L551.437,177.853L551.373,177.908L551.355,177.923L551.352,177.921L551.332,177.921L551.324,177.924L551.318,177.919L551.301,177.926L551.287,177.935L551.279,177.952L551.273,177.968L551.27,177.987L551.258,177.988L551.249,177.944L551.234,177.954L551.227,177.986L551.209,177.988L551.199,177.98L551.183,177.996L551.176,177.997L551.168,177.983L551.138,177.98L551.127,178.01L551.128,178.033L551.136,178.043L551.131,178.061L551.155,178.053L551.158,178.066L551.16,178.077L551.178,178.086L551.192,178.087L551.194,178.101L551.211,178.111L551.211,178.121L551.214,178.124L551.192,178.139L551.19,178.239L551.171,178.306L551.18,178.31L551.168,178.345L551.172,178.348L551.183,178.348L551.18,178.351L551.181,178.352L551.185,178.351L551.188,178.353L551.184,178.361L551.188,178.365L551.19,178.374L551.184,178.376L551.182,178.378L551.182,178.381L551.181,178.382L551.18,178.386L551.189,178.392L551.188,178.397L551.186,178.398L551.184,178.402L551.177,178.4L551.168,178.411L551.152,178.436L551.137,178.446L551.128,178.432L551.119,178.428L551.114,178.423L551.13,178.4L551.107,178.373L551.095,178.385L551.09,178.376L551.081,178.38L551.072,178.388L551.057,178.406L551.033,178.444L550.998,178.44L550.977,178.476L550.955,178.476L550.962,178.458L550.936,178.405L550.923,178.413L550.878,178.413L550.867,178.411L550.852,178.41L550.835,178.413L550.827,178.414L550.813,178.424L550.814,178.431L550.807,178.439L550.742,178.476L550.745,178.484L550.729,178.481L550.707,178.478L550.677,178.481L550.652,178.43L550.623,178.441L550.618,178.431L550.62,178.412L550.617,178.407L550.623,178.405L550.63,178.4L550.635,178.388L550.626,178.385L550.64,178.356L550.621,178.35L550.621,178.342L550.607,178.336L550.606,178.331L550.582,178.338L550.581,178.321L550.571,178.3L550.568,178.3L550.545,178.316L550.543,178.345L550.538,178.346L550.53,178.342L550.525,178.348L550.517,178.352L550.515,178.355L550.512,178.355L550.509,178.359L550.504,178.362L550.493,178.363L550.493,178.346L550.482,178.338L550.483,178.332L550.479,178.329L550.476,178.335L550.465,178.329L550.412,178.349L550.411,178.348L550.383,178.35L550.376,178.351L550.378,178.331L550.383,178.307L550.385,178.299L550.375,178.295L550.363,178.306L550.351,178.317L550.347,178.329L550.345,178.329L550.344,178.328L550.341,178.327L550.34,178.329L550.34,178.332L550.342,178.333L550.342,178.335L550.338,178.337L550.335,178.334L550.332,178.334L550.332,178.326L550.338,178.324L550.322,178.299L550.314,178.298L550.306,178.316L550.287,178.338L550.287,178.34L550.282,178.342L550.259,178.343L550.258,178.338L550.244,178.336L550.225,178.333L550.222,178.341L550.224,178.368L550.207,178.376L550.219,178.385L550.224,178.414L550.215,178.417L550.202,178.411L550.195,178.399L550.194,178.391L550.188,178.398L550.179,178.4L550.172,178.412L550.186,178.463L550.199,178.461L550.204,178.465L550.197,178.472L550.199,178.483L550.204,178.489L550.21,178.49L550.219,178.49L550.22,178.489L550.235,178.49L550.228,178.495L550.234,178.502L550.24,178.499L550.248,178.51L550.23,178.524L550.221,178.531L550.207,178.546L550.198,178.547L550.191,178.56L550.185,178.561L550.186,178.569L550.179,178.566L550.164,178.577L550.148,178.577L550.135,178.577L550.134,178.577L550.121,178.577L550.118,178.578L550.117,178.579L550.113,178.579L550.113,178.58L550.115,178.596L550.113,178.607L550.101,178.606L550.101,178.614L550.114,178.617L550.145,178.62L550.15,178.619L550.158,178.621L550.165,178.628L550.209,178.661L550.2,178.666L550.181,178.669L550.179,178.663L550.176,178.668L550.173,178.67L550.171,178.672L550.167,178.677L550.175,178.683L550.189,178.682L550.195,178.691L550.195,178.697L550.181,178.705L550.156,178.712L550.121,178.72L550.121,178.731L550.128,178.742L550.127,178.746L550.129,178.752L550.131,178.753L550.135,178.751L550.138,178.753L550.138,178.759L550.143,178.76L550.14,178.766L550.149,178.768L550.155,178.78L550.163,178.785L550.163,178.79L550.17,178.812L550.175,178.826L550.177,178.837L550.175,178.845L550.178,178.853L550.183,178.872L550.186,178.875L550.19,178.88L550.201,178.913L550.2,178.92L550.204,178.927L550.21,178.93L550.227,178.946L550.226,178.954L550.227,178.958L550.236,178.959L550.255,178.987L550.256,178.996L550.265,179.003L550.273,179.016L550.277,179.027L550.28,179.03L550.257,179.051L550.251,179.048L550.235,179.04L550.215,179.043L550.194,179.061L550.184,179.08L550.166,179.084L550.162,179.093L550.168,179.097L550.161,179.108L550.156,179.122L550.165,179.122L550.166,179.126L550.221,179.156L550.206,179.168L550.201,179.163L550.195,179.166L550.181,179.164L550.174,179.181L550.166,179.183L550.163,179.195L550.152,179.196L550.135,179.197L550.121,179.202L550.104,179.213L550.101,179.248L550.109,179.251L550.106,179.26L550.101,179.269L550.107,179.275L550.105,179.29L550.094,179.309L550.088,179.309L550.083,179.31L550.065,179.315L550.048,179.306L550.035,179.296L550.014,179.298L550.002,179.308L549.968,179.33L549.933,179.333L549.925,179.326L549.925,179.313L549.899,179.305L549.894,179.312L549.865,179.295L549.844,179.28L549.826,179.29L549.82,179.305L549.809,179.313L549.806,179.319L549.828,179.338L549.835,179.327L549.843,179.326L549.858,179.303L549.871,179.319L549.846,179.329L549.845,179.35L549.799,179.375L549.806,179.384L549.809,179.391L549.829,179.403L549.816,179.43L549.819,179.444L549.824,179.453L549.845,179.47L549.856,179.479L549.855,179.488L549.848,179.49L549.834,179.493L549.821,179.529L549.841,179.564L549.885,179.556L549.888,179.568L549.848,179.613L549.861,179.733L549.824,179.733L549.833,179.758L549.818,179.757L549.762,179.753L549.771,179.8L549.761,179.814L549.758,179.814L549.754,179.825L549.717,179.827L549.73,179.853L549.719,179.857L549.7,179.851L549.693,179.854L549.694,179.879L549.704,179.88L549.704,179.899L549.686,179.891L549.661,179.915L549.64,179.906L549.636,179.904L549.601,179.926L549.575,179.921L549.559,179.917L549.525,179.907L549.498,179.902L549.473,179.913L549.459,179.91L549.435,179.904L549.389,179.905L549.365,179.92L549.39,179.95L549.396,179.959L549.397,179.971L549.432,179.975L549.427,179.981L549.423,179.988L549.419,180.005L549.396,180.005L549.397,180.019L549.395,180.036L549.412,180.035L549.415,180.045L549.451,180.047L549.467,180.048L549.469,180.053L549.476,180.049L549.483,180.072L549.477,180.079L549.466,180.089L549.483,180.115L549.461,180.127L549.467,180.141L549.477,180.154L549.508,180.177L549.508,180.186L549.47,180.189L549.459,180.207L549.463,180.233L549.444,180.263L549.453,180.289L549.435,180.295L549.435,180.317L549.416,180.327L549.408,180.373L549.381,180.398L549.401,180.411L549.405,180.42L549.416,180.425L549.414,180.434L549.438,180.433L549.431,180.443L549.428,180.442L549.422,180.446L549.424,180.458L549.432,180.457L549.436,180.466L549.441,180.464L549.454,180.467L549.464,180.476L549.484,180.466L549.505,180.456L549.515,180.418L549.522,180.415L549.539,180.42L549.548,180.42L549.556,180.419L549.566,180.422L549.58,180.42L549.585,180.428L549.598,180.445L549.608,180.433L549.622,180.434L549.632,180.43L549.638,180.431L549.651,180.426L549.664,180.443L549.69,180.474L549.699,180.477L549.711,180.483L549.716,180.489L549.723,180.499L549.755,180.493L549.771,180.494L549.776,180.5L549.78,180.498L549.784,180.501L549.78,180.506L549.791,180.511L549.804,180.516L549.815,180.517L549.813,180.524L549.803,180.526L549.809,180.537L549.805,180.539L549.811,180.552L549.806,180.555L549.809,180.559L549.815,180.571L549.825,180.582L549.831,180.583L549.842,180.572L549.848,180.579L549.854,180.581L549.858,180.576L549.856,180.568L549.866,180.573L549.871,180.578L549.876,180.583L549.882,180.585L549.891,180.57L549.9,180.575L549.905,180.579L549.894,180.59L549.911,180.585L549.927,180.58L549.933,180.581L549.933,180.572L549.936,180.572L549.937,180.572L549.955,180.564L549.969,180.557L549.969,180.563L549.975,180.566L549.978,180.561L549.98,180.579L549.985,180.59L549.978,180.6L549.981,180.604L549.986,180.604L549.989,180.608L549.99,180.612L549.988,180.614L549.973,180.617L549.961,180.62L549.952,180.621L549.946,180.627L549.932,180.628L549.918,180.635L549.912,180.639L549.916,180.646L549.921,180.652L549.925,180.674L549.929,180.672L549.933,180.674L549.934,180.678L549.923,180.685L549.91,180.693L549.909,180.697L549.896,180.707L549.892,180.699L549.886,180.7L549.868,180.703L549.87,180.714L549.872,180.729L549.868,180.73L549.859,180.73L549.858,180.727L549.856,180.726L549.853,180.727L549.845,180.732L549.844,180.735L549.844,180.738L549.844,180.74L549.84,180.744L549.835,180.746L549.827,180.742L549.823,180.739L549.821,180.737L549.817,180.73L549.811,180.726L549.807,180.724L549.802,180.723L549.794,180.725L549.795,180.727L549.798,180.739L549.797,180.749L549.805,180.756L549.801,180.764L549.798,180.773L549.8,180.783L549.802,180.791L549.808,180.793L549.808,180.806L549.809,180.811L549.812,180.813L549.804,180.824L549.802,180.826L549.792,180.825L549.782,180.841L549.779,180.862L549.778,180.871L549.781,180.872L549.79,180.88L549.792,180.871L549.797,180.856L549.805,180.843L549.826,180.849L549.84,180.854L549.849,180.856L549.834,180.9L549.846,180.898L549.887,180.89L549.897,180.889L549.9,180.888L549.909,180.881L549.926,180.862L549.937,180.855L549.941,180.853L549.95,180.858L549.957,180.858L549.965,180.854L549.975,180.88L549.979,180.879L549.986,180.895L549.995,180.892L550.005,180.889L550.016,180.886L550.027,180.882L550.038,180.879L550.037,180.875L550.04,180.873L550.067,180.864L550.069,180.868L550.086,180.863L550.102,180.862L550.103,180.868L550.109,180.858L550.119,180.843L550.126,180.85L550.151,180.872L550.143,180.893L550.141,180.896L550.142,180.905L550.144,180.904L550.149,180.905L550.157,180.904L550.166,180.902L550.176,180.904L550.185,180.903L550.187,180.899L550.19,180.899L550.193,180.901L550.201,180.908L550.217,180.921L550.221,180.919L550.236,180.929L550.243,180.933L550.25,180.937L550.269,180.946L550.274,180.945L550.291,180.945L550.282,180.974L550.275,180.982L550.255,181.004L550.266,181.007L550.29,181.016L550.308,181.026L550.316,181.031L550.322,181.037L550.334,181.044L550.337,181.042L550.346,181.043L550.348,181.042L550.348,181.038L550.344,181.029L550.345,181.023L550.351,181.022L550.359,181.038L550.37,181.041L550.389,181.048L550.409,181.054L550.406,181.049L550.403,181.045L550.401,181.041L550.416,181.039L550.43,181.04L550.452,181.023L550.459,181.018L550.466,181.013L550.478,181.008L550.482,180.995L550.49,180.992L550.498,180.998L550.506,180.991L550.511,180.988L550.53,180.98L550.539,180.977L550.551,180.975L550.56,180.978L550.562,180.995L550.562,181.006L550.576,181.019L550.586,181.014L550.595,181.011L550.605,181.013L550.612,181.012L550.625,181.014L550.635,181.015L550.648,181.017L550.651,181.022L550.654,181.027L550.663,181.04L550.664,181.056L550.675,181.054L550.68,181.055L550.69,181.051L550.694,181.058L550.693,181.063L550.693,181.067L550.697,181.072L550.698,181.077L550.699,181.079L550.695,181.081L550.699,181.085L550.699,181.088L550.704,181.091L550.711,181.096L550.716,181.098L550.72,181.101L550.72,181.101L550.726,181.093L550.779,181.093L550.789,181.073L550.802,181.071L550.812,181.072L550.868,181.08L550.889,181.112L550.875,181.12L550.88,181.128L550.885,181.13L550.905,181.141L550.897,181.151L550.885,181.163L550.883,181.18L550.9,181.213L550.885,181.247L550.878,181.265L550.87,181.288L550.857,181.288L550.848,181.295L550.851,181.302L550.849,181.305L550.854,181.31L550.853,181.322L550.82,181.335L550.815,181.338L550.781,181.341L550.761,181.342L550.755,181.343L550.744,181.342L550.741,181.341L550.738,181.339L550.737,181.34L550.736,181.339L550.733,181.339L550.728,181.335L550.725,181.332L550.721,181.339L550.714,181.361L550.706,181.379L550.695,181.398L550.7,181.416L550.71,181.413L550.722,181.409L550.724,181.42L550.74,181.412L550.748,181.403L550.754,181.413L550.78,181.42L550.79,181.423L550.798,181.425L550.825,181.429L550.828,181.446L550.832,181.477L550.834,181.487L550.831,181.514L550.829,181.526L550.82,181.529L550.812,181.533L550.806,181.539L550.801,181.547L550.794,181.548L550.792,181.553L550.789,181.577L550.797,181.584L550.809,181.586L550.824,181.588L550.816,181.594L550.808,181.599L550.791,181.623L550.796,181.631L550.794,181.633L550.789,181.634L550.778,181.649L550.763,181.677L550.754,181.691L550.772,181.703L550.781,181.711L550.802,181.738L550.811,181.749L550.805,181.757L550.816,181.778L550.818,181.779L550.826,181.775L550.838,181.786L550.842,181.794L550.847,181.792L550.851,181.798L550.846,181.802L550.854,181.813L550.853,181.825L550.865,181.833L550.879,181.832L550.93,181.832L551.015,181.83L551.118,181.829L551.134,181.828L551.083,181.894L551.025,181.966L550.973,182.03L550.939,182.073L550.935,182.1L550.908,182.105L550.904,182.115L550.91,182.121L550.905,182.131L550.896,182.132L550.883,182.132L550.877,182.132L550.871,182.135L550.861,182.133L550.852,182.138L550.84,182.137L550.835,182.171L550.832,182.182L550.827,182.184L550.826,182.191L550.821,182.184L550.805,182.187L550.79,182.192L550.788,182.202L550.772,182.208L550.776,182.224L550.782,182.246L550.8,182.259L550.82,182.26L550.827,182.255L550.833,182.262L550.847,182.268L550.859,182.271L550.868,182.261L550.878,182.256L550.885,182.252L550.882,182.267L550.884,182.27L550.878,182.278L550.876,182.286L550.871,182.292L550.862,182.295L550.853,182.295L550.847,182.287L550.841,182.29L550.842,182.303L550.842,182.318L550.839,182.323L550.832,182.326L550.831,182.329L550.824,182.322L550.81,182.328L550.81,182.337L550.811,182.345L550.815,182.344L550.817,182.348L550.815,182.352L550.809,182.353L550.802,182.35L550.795,182.35L550.791,182.354L550.788,182.367L550.792,182.373L550.792,182.377L550.789,182.379L550.779,182.38L550.773,182.383L550.773,182.389L550.777,182.392L550.776,182.414L550.782,182.432L550.764,182.453L550.77,182.46L550.755,182.471L550.75,182.468L550.739,182.467L550.712,182.494L550.706,182.511L550.712,182.524L550.719,182.525L550.729,182.534L550.728,182.553L550.719,182.559L550.726,182.571L550.711,182.588L550.71,182.59L550.689,182.595L550.687,182.599L550.69,182.613L550.691,182.625L550.699,182.629L550.708,182.645L550.715,182.656L550.712,182.673L550.712,182.69L550.74,182.693L550.763,182.696L550.795,182.67L550.784,182.649L550.776,182.635L550.768,182.639L550.756,182.63L550.753,182.59L550.776,182.581L550.779,182.586L550.797,182.574L550.813,182.583L550.823,182.601L550.831,182.612L550.851,182.605L550.871,182.6L550.882,182.617L550.889,182.615L550.895,182.629L550.887,182.63L550.879,182.635L550.869,182.636L550.864,182.639L550.851,182.642L550.842,182.658L550.83,182.659L550.823,182.665L550.828,182.688L550.805,182.71L550.784,182.73L550.774,182.74L550.775,182.756L550.791,182.779L550.806,182.781L550.817,182.785L550.822,182.791L550.818,182.798L550.829,182.808L550.84,182.813L550.85,182.822L550.865,182.837L550.876,182.849L550.878,182.851L550.889,182.863L550.894,182.875L550.902,182.882L550.914,182.888L550.928,182.895L550.931,182.893L550.949,182.901L550.968,182.908L550.999,182.919L551.02,182.923L551.045,182.933L551.069,182.944L551.091,182.952L551.103,182.957L551.135,182.963L551.189,182.995L551.208,182.998L551.243,183.008L551.223,183.034L551.182,183.09L551.153,183.128L551.12,183.172L551.087,183.222L551.05,183.283L551.082,183.304L551.115,183.331L551.146,183.359L551.146,183.407L551.146,183.455L551.147,183.506L551.147,183.581L551.147,183.634L551.148,183.658L551.147,183.689L551.141,183.722L551.132,183.776L551.13,183.785L551.126,183.803L551.144,183.815L551.167,183.828L551.157,183.84L551.148,183.853L551.144,183.863L551.148,183.869L551.163,183.881L551.178,183.888L551.202,183.893L551.215,183.895L551.217,183.904L551.224,183.915L551.237,183.922L551.236,183.926L551.254,183.936L551.25,183.947L551.248,183.953L551.248,183.957L551.257,183.962L551.266,183.966L551.276,183.968L551.275,183.972L551.273,183.975L551.272,183.98L551.276,183.982L551.295,183.975L551.31,183.97L551.312,183.975L551.33,183.976L551.331,183.968L551.341,183.962L551.347,183.964L551.363,183.969L551.368,183.961L551.367,183.958L551.367,183.956L551.359,183.951L551.352,183.95L551.36,183.938L551.374,183.94L551.406,183.948L551.404,183.957L551.393,183.966L551.396,183.977L551.393,183.987L551.406,183.994L551.408,183.997L551.403,184.004L551.395,184.013L551.396,184.023L551.415,184.023L551.418,184.013L551.431,184.012L551.434,184.007L551.435,183.987L551.45,183.988L551.452,183.996L551.469,183.989L551.476,183.981L551.469,183.972L551.468,183.961L551.475,183.963L551.48,183.964L551.487,183.958L551.493,183.95L551.498,183.945L551.504,183.94L551.51,183.936L551.511,183.928L551.515,183.919L551.516,183.914L551.522,183.912L551.534,183.915L551.537,183.92L551.547,183.919L551.547,183.91L551.551,183.903L551.56,183.899L551.568,183.899L551.596,183.912L551.601,183.904L551.606,183.903L551.614,183.912L551.625,183.913L551.631,183.908L551.63,183.899L551.631,183.892L551.643,183.89L551.646,183.901L551.65,183.886L551.678,183.884L551.689,183.869L551.675,183.857L551.718,183.854L551.716,183.886L551.719,183.892L551.729,183.884L551.736,183.906L551.747,183.936L551.749,183.944L551.757,183.954L551.782,183.949L551.777,183.963L551.788,183.982L551.783,183.99L551.798,184.002L551.816,183.999L551.822,184.006L551.83,184.004L551.835,184.027L551.891,184.012L551.898,184.015L551.914,184.012L551.921,184.004L551.98,183.997L552.005,184.009L552.009,184.009L552.003,184L552.008,183.993L552.039,184.009L552.042,184.009L552.045,183.998L552.043,183.992L552.048,183.99L552.054,183.995L552.057,183.988L552.063,183.99L552.068,183.981L552.063,183.981L552.069,183.964L552.093,183.956L552.128,183.974L552.136,183.972L552.14,183.967L552.165,183.951L552.167,183.974L552.179,183.978L552.196,183.959L552.202,183.959L552.205,183.965L552.178,183.997L552.18,184.007L552.225,184.002L552.24,184.034L552.233,184.044L552.25,184.04L552.256,184.036L552.281,184.038L552.289,184.056L552.301,184.059L552.31,184.074L552.32,184.076L552.311,184.089L552.318,184.094L552.327,184.093L552.34,184.081L552.349,184.075L552.355,184.077L552.357,184.069L552.367,184.063L552.377,184.061L552.391,184.046L552.396,184.021L552.392,184.012L552.4,183.993L552.396,183.976L552.403,183.969L552.403,183.955L552.421,183.963L552.425,183.971L552.435,183.966L552.439,183.985L552.444,183.989L552.46,183.961L552.469,183.967L552.481,183.963L552.5,183.977L552.515,183.961L552.552,183.979L552.579,183.929L552.599,183.93L552.607,183.885L552.69,183.845L552.692,183.864L552.72,183.835L552.733,183.841L552.745,183.806L552.777,183.82L552.81,183.823L552.816,183.823L552.827,183.847L552.833,183.842L552.838,183.837L552.816,183.794L552.799,183.779L552.768,183.78L552.756,183.775L552.746,183.736L552.764,183.705L552.774,183.702L552.772,183.696L552.786,183.683L552.783,183.643L552.786,183.637L552.807,183.623L552.806,183.612L552.816,183.597L552.827,183.6L552.832,183.597L552.843,183.596L552.852,183.592L552.86,183.58L552.853,183.568L552.857,183.562L552.865,183.56L552.875,183.534L552.885,183.531L552.889,183.547L552.906,183.531L552.901,183.52L552.913,183.505L552.915,183.494L552.907,183.488L552.926,183.467L552.931,183.47L552.928,183.474L552.929,183.478L552.936,183.477L552.945,183.484L552.965,183.514L552.985,183.506L553.004,183.509L553.031,183.497L553.065,183.47L553.093,183.467L553.092,183.456L553.102,183.441L553.122,183.445L553.133,183.415L553.15,183.439L553.164,183.432L553.169,183.465L553.154,183.469L553.161,183.503L553.144,183.513L553.137,183.526L553.177,183.552L553.19,183.572L553.211,183.57L553.225,183.558L553.215,183.56L553.205,183.524L553.228,183.526L553.232,183.512L553.273,183.49L553.282,183.482L553.28,183.468L553.28,183.464L553.32,183.458L553.336,183.467L553.336,183.435L553.36,183.421L553.367,183.358L553.373,183.352L553.38,183.356L553.386,183.355L553.392,183.35L553.397,183.355L553.43,183.334L553.451,183.339L553.468,183.328L553.467,183.293L553.472,183.274L553.486,183.277L553.506,183.243L553.52,183.245L553.593,183.25L553.6,183.265L553.636,183.268L553.652,183.231L553.66,183.23L553.674,183.242L553.684,183.243L553.688,183.229L553.7,183.223L553.711,183.235L553.718,183.223L553.751,183.195L553.755,183.172L553.745,183.162L553.74,183.144L553.752,183.133L553.748,183.124L553.719,183.111L553.732,183.091L553.717,183.071L553.722,183.043L553.727,183.033L553.749,183.03L553.77,183.01L553.794,183.018L553.797,183.023L553.79,183.038L553.798,183.047L553.803,183.038L553.811,183.052L553.823,183.058L553.82,183.077L553.856,183.097L553.864,183.086L553.867,183.089L553.871,183.118L553.879,183.123L553.911,183.112L553.933,183.124L553.939,183.112L553.962,183.127L553.975,183.11L553.987,183.017L554.002,183.02L554.018,183.009L554.011,182.995L554.057,182.989L554.061,182.967L554.074,182.966L554.083,182.956L554.129,182.938L554.142,182.949L554.153,182.902L554.181,182.9L554.19,182.889L554.194,182.867L554.232,182.844L554.236,182.83L554.239,182.825L554.246,182.819L554.236,182.772L554.243,182.77L554.267,182.794L554.285,182.807L554.304,182.83L554.309,182.83L554.326,182.827L554.322,182.806L554.342,182.8L554.367,182.798L554.386,182.787L554.387,182.771L554.379,182.766L554.378,182.756L554.391,182.751L554.391,182.742L554.401,182.742L554.414,182.717L554.398,182.712L554.388,182.698L554.394,182.686L554.425,182.698L554.428,182.683L554.44,182.685L554.45,182.665L554.452,182.662L554.443,182.655L554.446,182.636L554.439,182.626L554.437,182.614L554.452,182.587L554.47,182.554L554.511,182.565L554.517,182.543L554.508,182.535L554.512,182.48L554.567,182.463L554.583,182.45L554.596,182.462L554.61,182.46L554.635,182.433L554.634,182.403L554.646,182.397L554.648,182.377L554.71,182.413L554.72,182.402L554.738,182.408L554.766,182.398L554.776,182.412L554.786,182.425L554.813,182.431L554.825,182.442L554.838,182.437L554.86,182.446L554.895,182.382L554.938,182.441L554.975,182.442L554.973,182.423L554.989,182.423L555.007,182.434L555.011,182.456L555.018,182.457L555.031,182.474L555.084,182.493L555.122,182.453L555.118,182.392L555.131,182.381L555.212,182.383L555.258,182.413L555.308,182.418L555.309,182.448L555.267,182.49L555.296,182.516L555.327,182.511L555.356,182.549L555.4,182.55L555.44,182.518L555.426,182.462L555.44,182.465L555.444,182.389L555.414,182.365L555.41,182.348L555.387,182.345L555.386,182.166L555.389,182.134L555.422,182.136L555.447,182.109L555.465,182.115L555.488,182.122L555.508,182.073L555.492,182.018L555.531,182.017L555.545,181.945L555.544,181.937L555.541,181.919L555.511,181.902L555.502,181.874L555.511,181.814L555.542,181.806L555.558,181.786L555.584,181.791L555.592,181.782L555.586,181.757L555.701,181.646L555.735,181.673L555.76,181.677L555.761,181.7L555.774,181.718L555.794,181.718L555.799,181.707L555.809,181.695L555.82,181.656L555.816,181.649L555.814,181.637L555.804,181.636L555.8,181.608L555.805,181.595L555.816,181.589L555.824,181.609L555.829,181.603L555.847,181.599L555.849,181.564L555.886,181.596L555.893,181.62L555.913,181.614L555.925,181.608L555.932,181.606L555.949,181.612L555.962,181.583L555.965,181.575L555.967,181.571L555.989,181.567L555.989,181.556L555.977,181.53L555.944,181.509L555.946,181.502L555.948,181.494L555.953,181.489L555.946,181.476L555.911,181.458L555.919,181.443L555.915,181.4L555.915,181.396L555.914,181.391L555.913,181.381L555.913,181.378L555.906,181.368L555.915,181.358L555.941,181.356L555.934,181.332L555.939,181.328L555.931,181.289L555.917,181.28L555.926,181.26L555.916,181.257L555.916,181.243L555.908,181.228L555.912,181.224L555.925,181.23L555.934,181.227L555.946,181.231L555.959,181.204L555.95,181.193L555.933,181.194L555.928,181.188L555.912,181.181L555.93,181.159L555.936,181.163L555.952,181.151L555.965,181.127L555.974,181.134L555.996,181.108L556.01,181.116L556.01,181.125L556.04,181.116L556.078,181.112L556.107,181.066L556.136,181.028L556.14,181.01L556.135,180.983L556.134,180.975L556.114,180.836L556.152,180.813L556.131,180.794L556.13,180.773L556.155,180.744L556.149,180.705L556.141,180.713L556.133,180.704L556.13,180.713L556.102,180.713L556.097,180.707L556.082,180.72L556.067,180.72L556.061,180.697L556.042,180.698L556.044,180.685L556.038,180.67L556.049,180.659L556.041,180.592L556.011,180.601L556.003,180.61L556.003,180.621L555.997,180.628L555.985,180.616L555.968,180.622L555.949,180.639L555.907,180.604L555.925,180.59L555.924,180.58L555.887,180.553L555.882,180.531L555.886,180.516L555.922,180.497L555.929,180.483L555.937,180.477L555.96,180.455L555.976,180.431L555.99,180.429L556.005,180.396L555.972,180.391L555.967,180.379L555.962,180.375L555.979,180.343L555.996,180.341L556.007,180.325L556.026,180.329L556.035,180.351L556.03,180.362L556.047,180.376L556.053,180.376L556.058,180.373L556.052,180.347L556.064,180.33L556.057,180.326L556.061,180.31L556.076,180.315L556.089,180.302L556.088,180.277L556.116,180.273L556.11,180.246L556.133,180.24L556.161,180.233L556.176,180.177L556.207,180.192L556.237,180.201L556.3,180.179L556.302,180.207L556.33,180.234L556.323,180.251L556.335,180.262L556.338,180.28L556.347,180.276L556.351,180.273L556.359,180.275L556.412,180.253L556.547,180.199L556.549,180.195L556.557,180.188L556.564,180.184L556.586,180.166L556.6,180.145L556.606,180.144L556.613,180.146L556.619,180.146L556.622,180.139L556.605,180.121L556.605,180.109L556.614,180.096L556.613,180.092L556.606,180.092L556.606,180.085L556.618,180.077L556.622,180.079L556.628,180.086L556.644,180.076L556.647,180.057L556.656,180.048L556.664,180.041L556.67,180.06L556.682,180.058L556.688,180.067L556.698,180.067L556.695,180.095L556.704,180.096L556.705,180.121L556.713,180.121L556.708,180.128L556.71,180.133L556.73,180.12L556.746,180.099L556.756,180.098L556.757,180.103L556.768,180.105L556.772,180.11L556.785,180.102L556.785,180.096L556.816,180.088L556.818,180.09L556.85,180.072L556.861,180.052L556.869,180.041L556.889,180.037L556.894,180.045L556.894,180.056L556.915,180.08L556.951,180.043L556.968,180.043L557.007,180.065L557.005,180.075L556.99,180.076L556.983,180.082L556.986,180.093L556.992,180.093L556.991,180.096L556.994,180.097L556.997,180.094L557.001,180.095L557.009,180.091L557.014,180.1L557.013,180.113L557.019,180.113L557.025,180.111L557.032,180.106L557.038,180.115L557.039,180.123L557.053,180.124L557.059,180.127L557.072,180.127L557.071,180.122L557.128,180.121L557.131,180.155L557.218,180.184L557.225,180.193L557.227,180.207L557.238,180.202L557.249,180.195L557.256,180.182L557.262,180.156L557.299,180.172L557.294,180.193L557.291,180.197L557.282,180.196L557.283,180.204L557.295,180.206L557.301,180.205L557.309,180.206L557.322,180.213L557.333,180.215L557.352,180.23L557.364,180.232L557.376,180.244L557.442,180.223L557.454,180.226L557.497,180.275L557.474,180.311L557.508,180.352L557.546,180.345L557.55,180.349L557.555,180.357L557.568,180.37L557.575,180.37L557.587,180.384L557.594,180.38L557.593,180.37L557.6,180.366L557.599,180.362L557.601,180.359L557.6,180.351L557.628,180.342L557.636,180.34L557.647,180.345L557.654,180.344L557.662,180.341L557.663,180.349L557.661,180.354L557.651,180.359L557.664,180.382L557.674,180.38L557.682,180.371L557.696,180.379L557.693,180.399L557.692,180.416L557.698,180.419L557.712,180.432L557.727,180.446L557.726,180.453L557.743,180.468L557.763,180.45L557.786,180.483L557.801,180.473L557.869,180.43L557.882,180.33L557.881,180.282L557.886,180.265L557.876,180.257L557.853,180.234L557.853,180.229L557.857,180.221L557.862,180.215L557.861,180.208L557.862,180.205L557.868,180.203L557.875,180.198L557.88,180.188L557.883,180.185L557.884,180.182L557.89,180.178L557.894,180.171L557.892,180.165L557.886,180.16L557.867,180.134L557.861,180.129L557.861,180.116L557.868,180.114L557.863,180.103L557.873,180.102L557.874,180.088L557.874,180.077L557.869,180.075L557.862,180.079L557.855,180.087L557.851,180.084L557.844,180.086L557.829,180.083L557.826,180.078L557.818,180.085L557.816,180.083L557.843,180.056L557.872,180.033L557.893,180.02L557.915,180.008L557.917,179.987L557.927,179.978L557.932,179.981L557.949,179.968L557.967,179.955L557.975,179.955L557.989,179.938L557.998,179.944L558.001,179.941L558.024,179.965L558.036,179.985L558.082,179.995L558.164,180.006L558.173,179.995L558.209,179.995L558.215,179.983L558.23,179.983L558.242,179.985L558.247,179.99L558.258,179.99L558.258,180.019L558.269,180.025L558.273,180.026L558.291,180.002L558.307,180.002L558.302,180.014L558.331,180.037L558.337,180.042L558.34,180.048L558.34,180.058L558.348,180.065L558.38,180.084L558.389,180.086L558.407,180.091L558.412,180.097L558.418,180.1L558.429,180.101L558.434,180.095L558.423,180.083L558.43,180.079L558.433,180.074L558.43,180.071L558.434,180.063L558.455,180.062L558.456,180.058L558.455,180.054L558.463,180.04L558.471,180.036L558.475,180.041L558.478,180.037L558.48,180.034L558.488,180.033L558.49,180.036L558.494,180.035L558.494,180.042L558.499,180.042L558.504,180.043L558.511,180.042L558.511,180.046L558.514,180.043L558.518,180.042L558.525,180.044L558.528,180.045L558.531,180.044L558.535,180.017L558.545,180.02L558.552,180.018L558.548,180.002L558.565,179.981L558.566,179.966L558.571,179.959L558.584,179.955L558.592,179.949L558.6,179.96L558.617,179.95L558.619,179.937L558.628,179.936L558.659,179.935L558.678,179.899L558.696,179.901L558.7,179.904L558.709,179.904L558.714,179.909L558.721,179.901L558.721,179.9L558.72,179.896L558.722,179.892L558.72,179.887L558.722,179.881L558.727,179.881L558.731,179.877L558.738,179.875L558.744,179.869L558.743,179.861L558.75,179.855L558.757,179.854L558.76,179.85L558.762,179.848L558.763,179.845L558.768,179.833L558.765,179.829L558.766,179.825L558.763,179.82L558.763,179.815L558.767,179.812L558.769,179.808L558.769,179.798L558.771,179.792L558.775,179.782L558.774,179.774L558.77,179.773L558.762,179.764L558.763,179.759L558.765,179.735L558.76,179.712L558.769,179.687L558.775,179.678L558.776,179.659L558.785,179.651L558.778,179.642L558.795,179.623L558.798,179.601L558.803,179.58L558.806,179.558L558.774,179.537L558.761,179.531L558.757,179.519L558.76,179.512L558.751,179.508L558.746,179.507L558.746,179.501L558.749,179.499L558.751,179.485L558.757,179.482L558.758,179.479L558.762,179.479L558.763,179.482L558.771,179.491L558.774,179.491L558.786,179.481L558.782,179.478L558.785,179.475L558.798,179.473L558.815,179.476L558.841,179.462L558.84,179.443L558.839,179.434L558.84,179.418L558.885,179.409L558.916,179.41L558.945,179.412L558.961,179.427L559.008,179.422L559.034,179.423L559.118,179.417L559.126,179.401L559.119,179.39L559.125,179.384L559.104,179.378L559.1,179.358L559.141,179.348L559.16,179.358L559.163,179.358L559.174,179.341L559.175,179.331L559.17,179.32L559.176,179.317L559.178,179.31L559.193,179.305L559.194,179.297L559.228,179.303L559.242,179.283L559.246,179.277L559.252,179.268L559.263,179.268L559.266,179.275L559.271,179.281L559.281,179.278L559.289,179.273L559.296,179.276L559.307,179.276L559.313,179.272L559.324,179.278L559.335,179.283L559.348,179.28L559.351,179.284L559.355,179.285L559.36,179.287L559.364,179.286L559.371,179.288L559.374,179.285L559.373,179.279L559.373,179.274L559.379,179.269L559.39,179.264L559.408,179.257L559.417,179.272L559.426,179.283L559.427,179.285L559.427,179.285L559.427,179.286L559.427,179.286L559.428,179.286L559.455,179.286L559.465,179.3L559.484,179.293L559.482,179.315L559.497,179.319L559.52,179.32L559.52,179.329L559.545,179.334L559.555,179.34L559.566,179.334L559.579,179.321L559.586,179.317L559.591,179.315L559.593,179.297L559.59,179.294L559.592,179.289L559.598,179.291L559.6,179.287L559.609,179.288L559.63,179.28L559.63,179.284L559.631,179.288L559.631,179.295L559.63,179.302L559.623,179.322L559.62,179.336L559.613,179.346L559.647,179.347L559.677,179.348L559.677,179.352L559.692,179.356L559.701,179.354L559.709,179.355L559.716,179.355L559.727,179.364L559.725,179.367L559.724,179.373L559.716,179.382L559.724,179.394L559.726,179.398L559.769,179.381L559.79,179.388L559.79,179.381L559.795,179.375L559.815,179.378L559.819,179.358L559.813,179.356L559.813,179.344L559.821,179.343L559.829,179.345L559.838,179.337L559.841,179.338L559.861,179.384L559.88,179.367L559.899,179.376L559.903,179.327L559.888,179.321L559.863,179.322L559.869,179.284L559.885,179.275L559.895,179.255L559.903,179.242L559.93,179.238L559.93,179.241L559.939,179.241L559.939,179.244L559.946,179.244L559.947,179.246L559.979,179.251L559.988,179.266L559.996,179.264L560.005,179.254L560.033,179.26L560.028,179.241L560.025,179.218L560.057,179.214L560.072,179.214L560.078,179.202L560.086,179.19L560.089,179.196L560.099,179.193L560.101,179.179L560.125,179.161L560.138,179.161L560.138,179.153L560.125,179.154L560.124,179.141L560.157,179.126L560.171,179.114L560.208,179.137L560.218,179.134L560.225,179.123L560.253,179.126L560.277,179.11L560.303,179.093L560.295,179.062L560.315,179.054L560.306,179.041L560.299,179.041L560.297,179.026L560.289,179.017L560.297,179.005L560.313,179.027L560.323,179.023L560.327,179.027L560.333,179.017L560.327,179.013L560.333,178.996L560.317,178.981L560.344,178.957L560.347,178.947L560.354,178.94L560.354,178.928L560.354,178.912L560.367,178.892L560.372,178.888L560.381,178.867L560.375,178.862L560.374,178.82L560.382,178.81L560.366,178.786L560.354,178.792L560.334,178.777L560.332,178.751L560.267,178.754L560.25,178.769L560.213,178.734L560.227,178.72L560.252,178.715L560.256,178.706L560.248,178.693L560.242,178.675L560.223,178.643L560.221,178.624L560.211,178.618L560.212,178.606L560.207,178.598L560.204,178.585L560.194,178.574L560.204,178.566L560.203,178.551L560.199,178.527L560.196,178.508L560.197,178.501L560.198,178.492L560.194,178.479L560.193,178.473L560.185,178.463L560.182,178.456L560.182,178.446L560.178,178.438L560.185,178.418L560.11,178.42L560.116,178.458L560.095,178.455L560.075,178.443L560.056,178.41L560.033,178.399L560.018,178.481L560.007,178.479L559.992,178.477L559.988,178.427L559.952,178.418L559.966,178.395L559.998,178.391L559.993,178.378L559.945,178.383L559.937,178.401L559.908,178.409L559.91,178.394L559.899,178.383L559.871,178.381L559.861,178.364L559.866,178.364L559.881,178.369L559.903,178.378L559.906,178.379L559.909,178.379L559.916,178.379L559.92,178.379L559.925,178.38L559.929,178.38L559.933,178.38L559.94,178.378L559.942,178.378L559.945,178.376L559.948,178.373L559.95,178.37L559.953,178.367L559.955,178.364L559.956,178.363L559.959,178.362L559.961,178.361L559.963,178.361L559.963,178.346L559.956,178.332L559.91,178.335L559.876,178.337L559.859,178.317L559.833,178.313L559.81,178.328L559.798,178.331L559.792,178.343L559.764,178.346L559.758,178.341L559.75,178.334L559.747,178.331L559.738,178.322L559.737,178.321L559.734,178.314L559.725,178.312L559.713,178.318L559.701,178.319L559.675,178.324L559.666,178.316L559.66,178.317L559.649,178.32L559.639,178.318L559.637,178.304L559.627,178.293L559.626,178.28L559.631,178.27L559.626,178.259L559.616,178.259L559.604,178.254L559.597,178.24L559.584,178.228L559.575,178.098L559.599,178.106L559.628,178.099L559.631,178.087L559.651,178.1L559.661,178.129L559.685,178.14L559.707,178.147L559.715,178.128L559.676,178.107L559.659,178.082L559.626,178.073L559.627,178.062L559.615,178.061L559.594,178.033L559.572,178.044L559.556,178.035L559.534,178.034L559.527,178.032L559.522,178.034L559.517,178.035L559.512,178.046L559.519,178.046L559.527,178.043L559.54,178.044L559.537,178.062L559.52,178.099L559.527,178.105L559.543,178.102L559.544,178.111L559.299,178.136L559.293,178.075L559.262,178.078L559.254,178.017L559.192,178.025L559.192,178.013L559.172,178.026L559.178,178.036L559.175,178.044L559.165,178.047L559.163,178.037L559.153,178.029L559.115,178.013L559.102,177.972L559.078,177.999L559.078,178.004L559.063,178.016L559.016,178.01L559.011,178.023L559,178.024L558.997,178.03L558.979,178.037L558.967,178.03L558.958,178.031L558.934,178.018L558.931,178.032L558.915,178.032L558.914,178.027L558.908,178.033L558.905,178.044L558.922,178.044L558.922,178.037L558.941,178.045L558.942,178.056L558.935,178.072L558.944,178.081L558.925,178.102L558.918,178.102L558.903,178.115L558.904,178.123L558.892,178.146L558.885,178.148L558.882,178.138L558.862,178.154L558.862,178.17L558.833,178.17L558.831,178.175L558.822,178.182L558.828,178.189L558.817,178.199L558.831,178.231L558.82,178.244L558.829,178.258L558.815,178.274L558.801,178.241L558.811,178.225L558.798,178.213L558.745,178.231L558.745,178.216L558.749,178.214L558.75,178.209L558.756,178.208L558.756,178.193L558.73,178.177L558.711,178.202L558.707,178.197L558.71,178.181L558.707,178.155L558.712,178.153L558.711,178.143L558.725,178.141L558.743,178.119L558.704,178.094L558.711,178.073L558.683,178.075L558.625,178.116L558.614,178.104L558.595,178.112L558.588,178.12L558.579,178.116L558.562,178.119L558.557,178.124L558.547,178.12L558.55,178.08L558.572,178.011L558.565,178.001L558.566,177.992L558.558,177.966L558.553,177.949L558.558,177.938L558.558,177.915L558.564,177.894L558.572,177.887L558.577,177.873L558.582,177.865L558.587,177.855L558.593,177.852L558.596,177.844L558.605,177.83L558.602,177.823L558.605,177.821L558.607,177.822L558.609,177.823L558.611,177.823L558.614,177.823L558.617,177.825L558.618,177.826L558.619,177.828L558.619,177.83L558.619,177.83L558.62,177.831L558.621,177.831L558.623,177.828L558.624,177.826L558.625,177.825L558.626,177.824L558.628,177.826L558.631,177.829L558.631,177.829L558.629,177.83L558.629,177.832L558.628,177.833L558.628,177.834L558.629,177.835L558.63,177.834L558.63,177.834L558.632,177.832L558.633,177.831L558.634,177.829L558.635,177.829L558.637,177.83L558.639,177.83L558.641,177.831L558.642,177.831L558.643,177.83L558.642,177.828L558.642,177.828L558.64,177.826L558.64,177.824L558.642,177.824L558.643,177.823L558.643,177.822L558.643,177.819L558.644,177.815L558.645,177.812L558.65,177.811L558.652,177.81L558.654,177.81L558.655,177.809L558.657,177.806L558.658,177.803L558.659,177.801L558.661,177.797L558.662,177.794L558.663,177.791L558.665,177.788L558.666,177.786L558.666,177.785L558.665,177.781L558.665,177.777L558.642,177.769L558.633,177.755L558.636,177.74L558.628,177.721L558.642,177.707L558.631,177.689L558.591,177.705L558.59,177.687L558.549,177.683L558.544,177.682L558.529,177.7L558.518,177.692L558.497,177.709L558.499,177.721L558.489,177.732L558.48,177.734L558.464,177.749L558.452,177.76L558.432,177.767L558.427,177.763L558.413,177.764L558.41,177.764L558.408,177.759L558.406,177.759L558.404,177.761L558.403,177.765L558.401,177.77L558.397,177.771L558.39,177.763L558.367,177.766L558.346,177.761L558.341,177.758L558.34,177.745L558.351,177.736L558.369,177.745L558.412,177.741L558.417,177.687L558.396,177.673L558.354,177.681L558.337,177.698L558.33,177.718L558.303,177.697L558.27,177.691L558.254,177.672L558.27,177.656L558.273,177.613L558.126,177.557L558.114,177.554L558.091,177.507L558.143,177.454L558.134,177.401L558.162,177.365L558.108,177.344L558.078,177.34L557.979,177.332L557.865,177.272L557.871,177.249L557.87,177.247L557.869,177.243L557.872,177.239L557.87,177.233L557.871,177.225L557.872,177.222L557.874,177.215L557.876,177.21L557.876,177.206L557.862,177.198L557.845,177.207L557.82,177.165L557.789,177.152L557.764,177.13L557.73,177.141L557.712,177.154L557.634,177.13L557.598,177.138L557.595,177.141L557.583,177.133L557.56,177.115L557.547,177.095L557.52,177.055L557.497,177.056L557.466,177.065L557.441,177.039L557.431,177.028L557.418,177.005L557.372,177.055L557.372,177.016L557.369,177.013L557.353,177.01L557.33,177.003L557.329,176.988L557.327,176.98L557.325,176.968L557.324,176.964L557.322,176.946L557.32,176.931L557.305,176.93L557.303,176.935L557.301,176.947L557.29,176.928L557.284,176.921L557.278,176.916L557.274,176.911L557.271,176.908L557.267,176.905L557.264,176.903L557.261,176.896L557.27,176.886L557.27,176.874L557.25,176.873L557.25,176.862L557.236,176.861L557.235,176.872L557.225,176.872L557.227,176.885L557.219,176.883L557.199,176.906L557.217,176.928L557.152,176.932L557.14,176.946L557.095,176.912L557.092,176.88L557.086,176.866L557.081,176.852L557.047,176.854L557.025,176.858L557.019,176.944L557.005,176.96L556.961,176.962L556.958,176.959L556.937,176.936L556.932,176.93L556.929,176.931L556.927,176.932L556.912,176.939L556.843,176.972L556.843,176.983L556.839,176.988L556.839,177.008L556.842,177.009L556.846,177.01L556.863,177.015L556.862,177.039L556.861,177.064L556.841,177.078L556.832,177.078L556.832,177.06L556.823,177.053L556.795,177.068L556.779,177.037L556.755,177.036L556.753,177.036L556.737,177.038L556.726,177.041L556.72,177.043L556.692,177.001L556.674,176.995L556.652,176.985L556.637,176.964L556.623,176.962L556.61,176.92L556.578,176.916L556.569,176.881L556.557,176.878L556.555,176.876L556.55,176.875L556.553,176.866L556.556,176.856L556.56,176.836L556.554,176.762L556.546,176.751L556.537,176.755L556.538,176.77L556.523,176.791L556.523,176.801L556.519,176.828L556.513,176.851L556.422,176.863L556.39,176.867L556.361,176.87L556.334,176.873L556.319,176.822L556.325,176.807L556.335,176.802L556.347,176.776L556.354,176.776L556.366,176.786L556.366,176.762L556.333,176.747L556.323,176.718L556.342,176.715L556.341,176.683L556.328,176.669L556.306,176.665L556.303,176.664L556.293,176.642L556.306,176.633L556.289,176.604L556.263,176.618L556.255,176.61L556.275,176.589L556.261,176.571L556.24,176.589L556.223,176.556L556.177,176.555L556.165,176.533L556.162,176.535L556.151,176.514L556.126,176.518L556.114,176.52L556.101,176.52L556.118,176.48L556.106,176.46L556.093,176.463L556.037,176.458L556.041,176.429L556.05,176.279L556.017,176.276L555.97,176.271L555.895,176.264L555.873,176.294L555.823,176.289L555.805,176.287L555.798,176.288L555.765,176.294L555.749,176.296L555.741,176.29L555.694,176.284L555.581,176.27L555.571,176.499L555.543,176.496L555.437,176.48L555.436,176.427L555.416,176.402L555.399,176.367L555.391,176.345L555.355,176.343L555.296,176.301L555.259,176.275L555.247,176.305L555.236,176.302L555.231,176.316L555.188,176.26L555.169,176.266L555.158,176.272L555.137,176.28L555.129,176.283L555.111,176.289L555.106,176.279L555.119,176.272L555.101,176.258L555.104,176.237L555.095,176.161L555.08,176.146L555.072,176.15L555.065,176.151L555.059,176.148L555.035,176.135L555.009,176.135L554.995,176.14L554.988,176.138L554.944,176.156L554.948,176.193L554.946,176.223L554.944,176.24L554.951,176.247L554.937,176.269L554.923,176.287L554.908,176.3L554.896,176.31L554.882,176.359L554.869,176.39L554.745,176.39L554.729,176.41L554.622,176.543L554.605,176.594L554.591,176.594L554.588,176.6L554.584,176.604L554.581,176.611L554.576,176.616L554.564,176.622L554.554,176.642L554.563,176.648L554.566,176.656L554.572,176.659L554.575,176.662L554.574,176.67L554.572,176.67L554.567,176.668L554.562,176.669L554.557,176.672L554.553,176.677L554.55,176.688L554.544,176.687L554.546,176.69L554.551,176.691L554.556,176.697L554.561,176.705L554.568,176.71L554.575,176.718L554.561,176.744L554.57,176.758L554.576,176.763L554.576,176.774L554.586,176.776L554.593,176.782L554.595,176.782L554.596,176.782L554.598,176.782L554.602,176.783L554.603,176.783L554.603,176.783L554.603,176.788L554.605,176.789L554.606,176.789L554.608,176.79L554.609,176.791L554.61,176.801L554.613,176.803L554.616,176.807L554.617,176.814L554.614,176.818L554.604,176.832L554.615,176.84L554.61,176.854L554.594,176.857L554.595,176.871L554.581,176.873L554.579,176.882L554.564,176.889L554.569,176.897L554.585,176.895L554.607,176.914L554.599,176.927L554.596,176.939L554.578,176.956L554.566,176.949L554.563,176.958L554.557,176.958L554.548,176.96L554.543,177.042L554.531,177.044L554.522,177.055L554.467,177.054L554.449,177.067L554.453,177.073L554.444,177.094L554.433,177.095L554.433,177.095L554.432,177.096L554.432,177.096L554.433,177.097L554.433,177.097L554.434,177.098L554.436,177.098L554.437,177.099L554.438,177.099L554.438,177.099L554.438,177.1L554.438,177.101L554.438,177.102L554.438,177.102L554.438,177.103L554.439,177.104L554.44,177.105L554.44,177.106L554.44,177.106L554.44,177.107L554.44,177.107L554.44,177.108L554.439,177.108L554.438,177.109L554.437,177.109L554.437,177.11L554.436,177.112L554.434,177.114L554.433,177.116L554.432,177.118L554.431,177.119L554.431,177.119L554.431,177.12L554.432,177.12L554.432,177.121L554.432,177.121L554.431,177.121L554.431,177.122L554.431,177.122L554.43,177.122L554.431,177.123L554.431,177.123L554.431,177.124L554.431,177.124L554.431,177.125L554.431,177.125L554.431,177.125L554.431,177.126L554.431,177.127L554.431,177.128L554.431,177.13L554.431,177.131L554.431,177.132L554.431,177.132L554.431,177.133L554.431,177.133L554.423,177.141L554.381,177.152L554.376,177.167L554.366,177.166L554.298,177.15L554.303,177.071L554.282,177.097L554.23,177.133L554.166,177.159L554.155,177.159L554.098,177.172L554.086,177.173L554.083,177.158L554.073,177.152L554.08,177.149L554.08,177.142L554.058,177.146L554.05,177.142L554.042,177.132L554.045,177.127L554.041,177.111L554.029,177.101L554.022,177.102L554.017,177.094L554.012,177.096L554.001,177.085L553.993,177.071L553.991,177.066L553.988,177.064L554.001,177.05L554.013,177.033L554.018,177.039L554.021,177.035L554.018,177.03L554.037,177.025L554.042,177.031L554.059,177.029L554.111,177.076L554.124,177.067L554.138,177.073L554.138,177.037L554.115,177.017L554.082,177.014L554.057,177.009L554.04,177.003L554.038,176.998L554.028,177L554.014,177.003L554.012,177.001L554.005,177L554.001,176.999L553.996,176.996L553.987,176.995L553.985,176.993L553.98,176.991L553.975,176.988L553.974,176.986L553.977,176.981L553.972,176.976L553.961,176.975L553.956,176.97L553.95,176.969L553.948,176.964L553.942,176.968L553.934,176.965L553.93,176.962L553.921,176.965L553.916,176.967L553.909,176.957L553.889,176.95L553.883,176.939L553.871,176.941L553.864,176.937L553.865,176.931L553.845,176.914L553.845,176.892L553.844,176.887L553.834,176.881L553.83,176.877L553.825,176.876L553.818,176.873L553.815,176.874L553.808,176.875L553.804,176.872L553.804,176.855L553.803,176.84L553.8,176.835L553.812,176.821L553.839,176.824L553.838,176.803L553.82,176.806L553.811,176.793L553.832,176.771L553.851,176.77L553.862,176.749L553.856,176.722L553.818,176.734L553.815,176.727L553.811,176.713L553.808,176.708L553.8,176.683L553.859,176.679L553.856,176.669L553.829,176.674L553.823,176.671L553.82,176.666L553.826,176.657L553.835,176.648L553.831,176.627L553.83,176.618L553.812,176.597L553.792,176.585L553.754,176.586L553.753,176.58L553.747,176.58L553.724,176.6L553.703,176.621L553.7,176.623L553.677,176.592L553.675,176.587L553.671,176.584L553.666,176.58L553.674,176.565L553.678,176.553L553.691,176.546L553.706,176.536L553.716,176.515L553.721,176.513L553.725,176.51L553.725,176.507L553.725,176.505L553.723,176.499L553.723,176.497L553.724,176.495L553.728,176.492L553.73,176.489L553.732,176.487L553.736,176.483L553.74,176.48L553.745,176.479L553.747,176.479L553.749,176.48L553.753,176.48L553.754,176.48L553.756,176.473L553.759,176.471L553.763,176.467L553.767,176.466L553.769,176.464L553.77,176.462L553.772,176.459L553.766,176.44L553.762,176.436L553.742,176.405L553.738,176.402L553.734,176.404L553.734,176.41L553.739,176.418L553.748,176.438L553.75,176.443L553.747,176.451L553.747,176.453L553.761,176.465L553.741,176.477L553.736,176.476L553.721,176.49L553.715,176.507L553.697,176.515L553.685,176.523L553.681,176.517L553.676,176.518L553.675,176.525L553.678,176.531L553.669,176.538L553.659,176.538L553.655,176.532L553.651,176.533L553.648,176.527L553.645,176.518L553.642,176.51L553.643,176.505L553.688,176.479L553.687,176.476L553.694,176.473L553.703,176.445L553.705,176.443L553.711,176.429L553.715,176.411L553.715,176.397L553.712,176.382L553.711,176.369L553.705,176.368L553.705,176.377L553.707,176.383L553.705,176.391L553.709,176.399L553.709,176.414L553.701,176.442L553.651,176.484L553.642,176.477L553.626,176.47L553.611,176.455L553.619,176.437L553.614,176.434L553.536,176.317L553.528,176.315L553.531,176.274L553.501,176.271L553.491,176.28L553.467,176.267L553.459,176.242L553.445,176.239L553.397,176.211L553.399,176.224L553.403,176.242L553.392,176.253L553.387,176.251L553.371,176.242L553.355,176.22L553.359,176.219L553.348,176.21L553.342,176.199L553.34,176.181L553.341,176.168L553.341,176.161L553.316,176.179L553.303,176.183L553.302,176.185L553.298,176.184L553.295,176.198L553.288,176.204L553.277,176.198L553.286,176.193L553.292,176.181L553.296,176.18L553.3,176.181L553.302,176.177L553.304,176.172L553.308,176.165L553.312,176.156L553.31,176.155L553.308,176.157L553.304,176.157L553.302,176.156L553.295,176.159L553.274,176.115L553.273,176.116L553.264,176.118L553.256,176.121L553.251,176.125L553.249,176.125L553.236,176.141L553.239,176.143L553.225,176.16L553.205,176.188L553.202,176.202L553.197,176.213L553.198,176.218L553.2,176.225L553.196,176.226L553.189,176.226L553.19,176.234L553.193,176.247L553.192,176.255L553.19,176.259L553.189,176.267L553.185,176.281L553.178,176.3L553.17,176.309L553.156,176.315L553.153,176.316L553.123,176.285L553.121,176.283L553.12,176.296L553.119,176.302L553.121,176.303L553.125,176.304L553.128,176.308L553.129,176.32L553.131,176.323L553.136,176.325L553.14,176.325L553.144,176.325L553.144,176.328L553.141,176.33L553.134,176.328L553.127,176.333L553.117,176.331L553.115,176.337L553.11,176.339L553.107,176.351L553.1,176.351L553.079,176.358L553.063,176.356L553.056,176.373L553.015,176.373L553.012,176.376L553.008,176.387L553.006,176.393L553.006,176.398L553.004,176.403L553.001,176.409L552.994,176.414L552.987,176.417L552.985,176.429L552.981,176.427L552.979,176.434L552.987,176.441L552.989,176.441L553.006,176.462L553.013,176.464L553.019,176.465L553.02,176.456L553.035,176.456L553.037,176.456L553.038,176.464L553.038,176.467L553.03,176.468L553.021,176.469L553.019,176.47L553.017,176.475L553.011,176.476L553.004,176.491L553.001,176.498L552.998,176.507L552.986,176.504L552.988,176.494L552.977,176.491L552.959,176.499L552.95,176.493L552.944,176.49L552.937,176.491L552.932,176.477L552.919,176.469L552.91,176.486L552.902,176.499L552.88,176.476L552.876,176.472L552.883,176.469L552.884,176.463L552.907,176.451L552.914,176.454L552.928,176.442L552.936,176.428L552.94,176.421L552.923,176.405L552.913,176.41L552.9,176.405L552.896,176.424L552.87,176.427L552.852,176.428L552.845,176.408L552.853,176.409L552.882,176.411L552.89,176.408L552.894,176.404L552.891,176.38L552.85,176.389L552.841,176.383L552.845,176.378L552.843,176.373L552.833,176.372L552.834,176.367L552.82,176.36L552.825,176.354L552.821,176.351L552.82,176.333L552.813,176.33L552.807,176.331L552.805,176.323L552.8,176.319L552.797,176.324L552.795,176.325L552.792,176.323L552.786,176.323L552.787,176.325L552.791,176.326L552.791,176.33L552.787,176.328L552.781,176.336L552.778,176.336L552.743,176.333L552.742,176.337L552.724,176.325L552.715,176.315L552.703,176.309L552.682,176.296L552.666,176.302L552.665,176.307L552.66,176.305L552.632,176.316L552.619,176.318L552.603,176.319L552.587,176.323L552.571,176.365L552.577,176.374L552.581,176.378L552.582,176.385L552.58,176.389L552.582,176.392L552.582,176.437L552.557,176.485L552.557,176.493L552.564,176.493L552.574,176.499L552.578,176.512L552.573,176.524L552.577,176.531L552.582,176.533L552.583,176.542L552.587,176.546L552.603,176.541L552.607,176.551L552.589,176.551L552.587,176.551L552.583,176.559L552.572,176.559L552.563,176.56L552.566,176.566L552.56,176.571L552.561,176.577L552.564,176.582L552.562,176.587L552.557,176.593L552.553,176.595L552.549,176.598L552.553,176.604L552.558,176.615L552.566,176.623L552.57,176.623L552.569,176.625L552.567,176.627L552.567,176.633L552.579,176.639L552.579,176.646L552.572,176.653L552.576,176.66L552.579,176.661L552.583,176.667L552.584,176.671L552.592,176.682L552.6,176.683L552.606,176.683L552.607,176.689L552.603,176.699L552.604,176.709L552.608,176.719L552.612,176.72L552.612,176.732L552.627,176.744L552.639,176.746L552.643,176.759L552.633,176.781L552.625,176.791L552.625,176.803L552.619,176.838L552.606,176.842L552.568,176.854L552.563,176.852L552.557,176.856L552.55,176.856L552.55,176.856L552.55,176.856L552.55,176.856L552.55,176.857L552.55,176.858L552.55,176.858L552.55,176.859L552.55,176.859L552.55,176.859L552.55,176.86L552.55,176.86L552.55,176.86L552.55,176.859L552.551,176.859L552.551,176.859L552.551,176.859L552.551,176.859L552.551,176.859L552.551,176.859L552.551,176.859L552.552,176.859L552.552,176.86L552.552,176.86L552.553,176.86L552.553,176.86L552.553,176.861L552.553,176.861L552.553,176.861L552.553,176.862L552.553,176.862L552.552,176.862L552.552,176.862L552.552,176.862L552.552,176.862L552.552,176.861L552.552,176.861L552.552,176.861L552.552,176.861L552.551,176.861L552.551,176.861L552.551,176.861L552.551,176.861L552.551,176.862L552.551,176.862L552.551,176.862L552.551,176.862L552.55,176.862L552.55,176.862L552.55,176.862L552.55,176.862L552.55,176.862L552.55,176.862L552.55,176.863L552.55,176.863L552.55,176.863L552.55,176.863L552.55,176.863L552.55,176.864L552.55,176.864L552.551,176.864L552.551,176.865L552.551,176.865L552.551,176.865L552.551,176.865L552.551,176.866L552.52,176.833L552.51,176.843L552.513,176.845L552.511,176.848L552.508,176.846L552.508,176.846L552.508,176.847L552.508,176.847L552.508,176.847L552.508,176.847L552.507,176.847L552.507,176.847L552.507,176.847L552.507,176.846L552.507,176.846L552.507,176.846L552.506,176.847L552.506,176.847L552.506,176.847L552.506,176.847L552.506,176.848L552.506,176.848L552.506,176.848L552.506,176.848L552.507,176.848L552.507,176.848L552.507,176.848L552.507,176.849L552.507,176.849L552.507,176.849L552.507,176.849L552.507,176.85L552.506,176.85L552.506,176.85L552.506,176.85L552.506,176.85L552.506,176.849L552.506,176.849L552.506,176.849L552.505,176.849L552.505,176.849L552.505,176.849L552.505,176.849L552.504,176.849L552.504,176.849L552.504,176.849L552.504,176.849L552.504,176.849L552.504,176.849L552.504,176.849L552.504,176.85L552.505,176.85L552.505,176.85L552.504,176.85L552.505,176.85L552.504,176.851L552.504,176.851L552.504,176.851L552.504,176.851L552.504,176.851L552.503,176.851L552.503,176.851L552.503,176.851L552.503,176.851L552.503,176.851L552.503,176.851L552.502,176.851L552.501,176.852L552.501,176.852L552.5,176.852L552.5,176.852L552.5,176.852L552.5,176.852L552.5,176.852L552.518,176.871L552.494,176.915L552.488,176.923L552.481,176.939L552.479,176.94L552.459,176.979L552.494,176.982L552.493,176.986L552.489,176.991L552.486,176.992L552.485,177.004L552.489,177.011L552.49,177.024L552.483,177.034L552.486,177.039L552.484,177.063L552.479,177.072L552.478,177.075L552.446,177.12L552.449,177.133L552.456,177.156L552.453,177.168L552.469,177.195L552.458,177.204L552.448,177.224L552.438,177.221L552.423,177.259L552.41,177.266L552.38,177.292L552.368,177.284L552.34,177.313L552.309,177.313L552.308,177.323L552.307,177.34L552.297,177.343L552.296,177.342L552.285,177.346L552.274,177.34L552.254,177.351L552.261,177.358L552.27,177.352L552.295,177.36L552.288,177.384L552.29,177.395L552.288,177.399L552.289,177.408L552.291,177.416L552.29,177.426L552.285,177.438L552.276,177.437L552.27,177.438L552.26,177.44L552.254,177.439L552.247,177.44L552.241,177.44L552.233,177.443L552.222,177.433L552.223,177.423L552.205,177.446L552.198,177.436L552.183,177.45L552.2,177.463L552.197,177.468L552.167,177.484L552.17,177.493L552.147,177.492L552.146,177.499ZM800,0L800,12.246L800,78.668L800,145.789L800,215.835L800,261.497L800,300L800,338.503L800,384.165L800,454.211L800,600L800,600L200,600L200,600L200,454.211L200,384.165L200,338.503L200,300L200,261.497L200,215.835L200,145.789L200,78.668L200,12.246L200,0L200,0L800,0Z"/>
<path d="M552.126,179.063m0,4.5a4.5,4.5 0 1,1 0,-9a4.5,4.5 0 1,1 0,9z"/>
<path d="M554.195,179.816m0,4.5a4.5,4.5 0 1,1 0,-9a4.5,4.5 0 1,1 0,9z"/>
</svg>