<?xml version="1.0" encoding="UTF-8"?>
<svg xmlns="http://www.w3.org/2000/svg" viewBox="0 0 1000 600" stroke="#000" stroke-width="0.3" fill="#ccc">
<path d="M563.094,195.517L563.094,195.517L563.092,195.513L563.092,195.511L563.092,195.506L563.093,195.505L563.095,195.504L563.095,195.503L563.095,195.503L563.097,195.501L563.097,195.498L563.098,195.497L563.099,195.495L563.1,195.494L563.101,195.494L563.102,195.493L563.105,195.49L563.108,195.489L563.109,195.488L563.109,195.487L563.113,195.486L563.115,195.485L563.116,195.485L563.122,195.481L563.125,195.475L563.125,195.469L563.121,195.466L563.12,195.455L563.116,195.446L563.112,195.435L563.111,195.426L563.111,195.417L563.094,195.42L563.086,195.415L563.075,195.408L563.06,195.367L563.053,195.343L563.055,195.325L563.051,195.313L563.042,195.288L563.033,195.262L563.031,195.251L563.038,195.238L563.05,195.231L563.052,195.23L563.043,195.219L563.041,195.212L563.014,195.203L563.002,195.195L562.997,195.195L562.99,195.189L562.98,195.189L562.952,195.181L562.95,195.181L562.935,195.176L562.928,195.169L562.921,195.16L562.918,195.153L562.922,195.145L562.925,195.14L562.924,195.135L562.92,195.128L562.913,195.127L562.899,195.119L562.894,195.112L562.893,195.101L562.891,195.097L562.885,195.096L562.872,195.102L562.856,195.11L562.838,195.123L562.82,195.131L562.807,195.147L562.798,195.153L562.792,195.154L562.791,195.154L562.787,195.155L562.781,195.155L562.772,195.156L562.755,195.159L562.751,195.168L562.75,195.176L562.748,195.184L562.734,195.186L562.724,195.182L562.7,195.178L562.683,195.178L562.681,195.17L562.682,195.16L562.682,195.153L562.682,195.135L562.682,195.111L562.681,195.097L562.674,195.083L562.661,195.067L562.647,195.037L562.638,195.013L562.637,194.997L562.635,194.987L562.625,194.968L562.622,194.96L562.62,194.95L562.621,194.917L562.623,194.899L562.627,194.872L562.63,194.855L562.629,194.844L562.628,194.824L562.628,194.799L562.625,194.789L562.632,194.78L562.626,194.76L562.64,194.725L562.642,194.714L562.644,194.696L562.652,194.692L562.652,194.679L562.651,194.676L562.636,194.677L562.612,194.683L562.596,194.689L562.583,194.69L562.585,194.693L562.578,194.698L562.571,194.695L562.568,194.697L562.564,194.696L562.558,194.7L562.559,194.705L562.561,194.705L562.561,194.711L562.558,194.713L562.551,194.713L562.541,194.71L562.535,194.717L562.524,194.718L562.517,194.714L562.511,194.714L562.507,194.718L562.499,194.715L562.492,194.713L562.492,194.721L562.491,194.726L562.488,194.725L562.489,194.721L562.484,194.714L562.474,194.707L562.47,194.705L562.469,194.709L562.46,194.717L562.456,194.715L562.456,194.706L562.451,194.705L562.447,194.709L562.444,194.701L562.437,194.694L562.43,194.692L562.422,194.691L562.434,194.683L562.444,194.675L562.447,194.662L562.444,194.651L562.428,194.645L562.392,194.63L562.377,194.629L562.363,194.626L562.356,194.625L562.338,194.622L562.314,194.622L562.293,194.617L562.277,194.613L562.272,194.615L562.278,194.643L562.271,194.644L562.255,194.647L562.231,194.655L562.195,194.669L562.154,194.678L562.137,194.688L562.122,194.714L562.113,194.724L562.103,194.73L562.071,194.732L562.05,194.737L562.045,194.738L562.036,194.74L562.011,194.74L561.99,194.735L561.977,194.732L561.958,194.727L561.951,194.729L561.938,194.726L561.93,194.734L561.903,194.713L561.898,194.709L561.89,194.713L561.883,194.717L561.878,194.721L561.876,194.713L561.875,194.711L561.873,194.707L561.867,194.696L561.851,194.699L561.85,194.695L561.854,194.685L561.858,194.675L561.826,194.656L561.811,194.671L561.809,194.683L561.798,194.684L561.786,194.676L561.764,194.681L561.747,194.685L561.716,194.69L561.709,194.693L561.705,194.695L561.703,194.698L561.701,194.703L561.697,194.703L561.693,194.697L561.687,194.703L561.68,194.709L561.682,194.678L561.686,194.669L561.689,194.667L561.69,194.658L561.687,194.647L561.687,194.628L561.684,194.628L561.674,194.627L561.668,194.621L561.661,194.619L561.66,194.638L561.66,194.645L561.645,194.643L561.621,194.648L561.611,194.656L561.598,194.657L561.587,194.661L561.57,194.667L561.558,194.666L561.551,194.67L561.534,194.671L561.525,194.675L561.507,194.686L561.498,194.693L561.494,194.69L561.496,194.676L561.498,194.661L561.506,194.652L561.51,194.646L561.518,194.633L561.506,194.632L561.502,194.639L561.482,194.646L561.463,194.647L561.452,194.648L561.452,194.643L561.449,194.64L561.418,194.644L561.404,194.647L561.396,194.653L561.395,194.654L561.387,194.656L561.389,194.646L561.393,194.637L561.387,194.637L561.382,194.647L561.372,194.648L561.365,194.643L561.36,194.637L561.356,194.629L561.341,194.631L561.332,194.632L561.321,194.621L561.313,194.627L561.307,194.629L561.303,194.619L561.298,194.605L561.296,194.598L561.291,194.573L561.28,194.58L561.267,194.586L561.263,194.592L561.255,194.589L561.25,194.59L561.25,194.587L561.249,194.587L561.243,194.592L561.241,194.59L561.259,194.571L561.265,194.57L561.269,194.549L561.256,194.549L561.254,194.552L561.232,194.546L561.224,194.539L561.222,194.529L561.219,194.495L561.207,194.491L561.205,194.499L561.196,194.497L561.196,194.49L561.191,194.485L561.188,194.481L561.186,194.477L561.183,194.474L561.161,194.482L561.155,194.474L561.158,194.471L561.155,194.454L561.139,194.455L561.135,194.452L561.132,194.445L561.128,194.443L561.126,194.44L561.137,194.433L561.149,194.427L561.151,194.423L561.16,194.421L561.16,194.412L561.166,194.4L561.166,194.394L561.17,194.386L561.167,194.381L561.16,194.375L561.166,194.352L561.161,194.349L561.147,194.34L561.125,194.326L561.114,194.316L561.104,194.315L561.098,194.315L561.088,194.313L561.083,194.307L561.079,194.296L561.059,194.282L561.052,194.288L561.045,194.297L561.043,194.31L561.044,194.326L561.038,194.341L561.03,194.346L561.013,194.348L560.998,194.368L560.966,194.381L560.955,194.402L560.947,194.404L560.931,194.405L560.921,194.406L560.913,194.405L560.903,194.396L560.899,194.399L560.882,194.387L560.874,194.377L560.863,194.372L560.854,194.365L560.839,194.366L560.822,194.369L560.815,194.365L560.817,194.361L560.817,194.359L560.817,194.357L560.814,194.348L560.812,194.345L560.81,194.343L560.811,194.333L560.813,194.325L560.813,194.318L560.802,194.298L560.795,194.286L560.788,194.28L560.781,194.274L560.783,194.273L560.784,194.271L560.783,194.266L560.783,194.263L560.782,194.26L560.782,194.258L560.78,194.257L560.779,194.256L560.778,194.255L560.776,194.254L560.774,194.253L560.772,194.253L560.77,194.252L560.765,194.251L560.761,194.25L560.757,194.25L560.755,194.25L560.754,194.25L560.753,194.251L560.752,194.252L560.751,194.253L560.75,194.253L560.749,194.254L560.747,194.255L560.744,194.256L560.743,194.257L560.741,194.257L560.739,194.258L560.738,194.258L560.731,194.264L560.73,194.265L560.729,194.266L560.729,194.268L560.729,194.268L560.729,194.27L560.729,194.271L560.73,194.273L560.731,194.274L560.731,194.275L560.731,194.276L560.731,194.278L560.73,194.279L560.729,194.279L560.728,194.28L560.727,194.281L560.726,194.281L560.724,194.281L560.723,194.281L560.722,194.281L560.721,194.281L560.718,194.281L560.717,194.281L560.714,194.28L560.713,194.279L560.71,194.277L560.709,194.276L560.708,194.275L560.707,194.273L560.707,194.273L560.707,194.271L560.707,194.268L560.707,194.267L560.708,194.266L560.708,194.264L560.709,194.263L560.712,194.262L560.713,194.26L560.713,194.259L560.713,194.258L560.71,194.256L560.71,194.254L560.71,194.253L560.711,194.252L560.712,194.25L560.712,194.249L560.712,194.248L560.71,194.246L560.709,194.246L560.705,194.244L560.703,194.244L560.702,194.244L560.699,194.243L560.698,194.242L560.694,194.242L560.692,194.24L560.691,194.24L560.69,194.24L560.689,194.24L560.687,194.239L560.686,194.238L560.685,194.237L560.683,194.234L560.681,194.233L560.681,194.231L560.68,194.23L560.68,194.229L560.68,194.228L560.681,194.225L560.682,194.224L560.682,194.223L560.681,194.221L560.68,194.22L560.678,194.219L560.677,194.219L560.676,194.219L560.676,194.219L560.675,194.22L560.674,194.22L560.674,194.221L560.674,194.222L560.674,194.222L560.675,194.223L560.674,194.224L560.674,194.225L560.673,194.225L560.672,194.225L560.671,194.224L560.671,194.223L560.671,194.222L560.671,194.221L560.67,194.218L560.67,194.216L560.67,194.214L560.669,194.214L560.669,194.213L560.667,194.212L560.666,194.211L560.664,194.209L560.663,194.208L560.66,194.206L560.658,194.205L560.655,194.205L560.654,194.204L560.652,194.203L560.651,194.202L560.651,194.202L560.651,194.201L560.651,194.2L560.651,194.2L560.653,194.199L560.653,194.198L560.653,194.197L560.652,194.197L560.651,194.195L560.649,194.195L560.648,194.195L560.646,194.196L560.646,194.196L560.644,194.198L560.643,194.199L560.641,194.2L560.64,194.2L560.638,194.199L560.637,194.198L560.636,194.197L560.636,194.196L560.636,194.195L560.636,194.193L560.636,194.192L560.636,194.189L560.636,194.187L560.636,194.185L560.636,194.184L560.635,194.183L560.635,194.182L560.633,194.18L560.632,194.18L560.631,194.179L560.63,194.178L560.63,194.176L560.63,194.174L560.629,194.172L560.629,194.171L560.628,194.166L560.628,194.164L560.627,194.162L560.625,194.158L560.624,194.157L560.624,194.156L560.623,194.155L560.623,194.153L560.622,194.151L560.62,194.149L560.616,194.147L560.609,194.142L560.605,194.139L560.603,194.138L560.6,194.136L560.597,194.135L560.594,194.134L560.588,194.134L560.585,194.134L560.584,194.134L560.581,194.134L560.579,194.134L560.576,194.134L560.575,194.134L560.573,194.135L560.571,194.135L560.569,194.135L560.566,194.135L560.563,194.135L560.562,194.135L560.56,194.135L560.558,194.135L560.557,194.135L560.553,194.135L560.552,194.134L560.551,194.134L560.549,194.134L560.548,194.134L560.547,194.134L560.545,194.133L560.541,194.133L560.539,194.133L560.536,194.132L560.534,194.132L560.533,194.131L560.531,194.131L560.53,194.13L560.529,194.129L560.529,194.127L560.528,194.126L560.527,194.125L560.526,194.124L560.526,194.123L560.526,194.122L560.526,194.12L560.527,194.116L560.528,194.114L560.528,194.111L560.528,194.11L560.528,194.108L560.528,194.105L560.528,194.102L560.529,194.099L560.53,194.093L560.532,194.085L560.533,194.083L560.534,194.08L560.536,194.077L560.536,194.074L560.537,194.071L560.538,194.07L560.538,194.068L560.539,194.065L560.539,194.063L560.54,194.062L560.54,194.06L560.539,194.059L560.539,194.057L560.538,194.057L560.537,194.056L560.537,194.054L560.537,194.053L560.536,194.051L560.534,194.049L560.53,194.044L560.526,194.04L560.522,194.034L560.518,194.03L560.517,194.03L560.515,194.029L560.513,194.028L560.51,194.026L560.506,194.025L560.504,194.024L560.501,194.022L560.498,194.02L560.496,194.019L560.494,194.017L560.492,194.016L560.489,194.015L560.486,194.013L560.484,194.013L560.483,194.012L560.482,194.012L560.481,194.011L560.48,194.01L560.48,194.009L560.48,194.008L560.48,194.006L560.48,194.005L560.482,194L560.483,193.997L560.485,193.993L560.486,193.99L560.488,193.987L560.489,193.985L560.49,193.983L560.491,193.981L560.493,193.979L560.494,193.977L560.495,193.976L560.496,193.975L560.5,193.963L560.5,193.96L560.501,193.959L560.501,193.956L560.501,193.952L560.501,193.947L560.501,193.941L560.501,193.94L560.5,193.938L560.5,193.935L560.499,193.932L560.499,193.93L560.498,193.928L560.496,193.923L560.495,193.92L560.494,193.918L560.493,193.917L560.485,193.911L560.482,193.908L560.48,193.907L560.473,193.903L560.471,193.902L560.47,193.902L560.468,193.902L560.466,193.902L560.465,193.902L560.463,193.902L560.461,193.902L560.46,193.902L560.459,193.903L560.458,193.903L560.457,193.905L560.456,193.906L560.455,193.907L560.454,193.907L560.453,193.908L560.451,193.908L560.45,193.908L560.449,193.908L560.448,193.908L560.446,193.907L560.444,193.906L560.443,193.905L560.442,193.905L560.441,193.905L560.44,193.905L560.439,193.906L560.437,193.907L560.435,193.909L560.432,193.912L560.431,193.913L560.429,193.915L560.427,193.916L560.425,193.917L560.424,193.919L560.422,193.921L560.415,193.926L560.413,193.927L560.411,193.929L560.408,193.931L560.407,193.932L560.405,193.933L560.405,193.933L560.403,193.933L560.401,193.933L560.399,193.933L560.398,193.933L560.392,193.934L560.388,193.934L560.386,193.933L560.384,193.933L560.383,193.932L560.383,193.932L560.382,193.931L560.382,193.931L560.382,193.93L560.382,193.929L560.382,193.928L560.382,193.926L560.381,193.925L560.381,193.924L560.381,193.923L560.382,193.922L560.383,193.92L560.383,193.919L560.384,193.916L560.386,193.91L560.386,193.907L560.387,193.904L560.389,193.9L560.389,193.898L560.39,193.894L560.392,193.891L560.393,193.889L560.396,193.885L560.378,193.886L560.366,193.899L560.36,193.902L560.347,193.918L560.331,193.928L560.313,193.938L560.293,193.947L560.29,193.948L560.274,193.941L560.243,193.925L560.23,193.923L560.226,193.927L560.219,193.927L560.213,193.922L560.202,193.918L560.183,193.893L560.175,193.891L560.165,193.895L560.158,193.892L560.152,193.886L560.147,193.877L560.135,193.863L560.132,193.862L560.129,193.866L560.125,193.867L560.124,193.863L560.12,193.862L560.118,193.863L560.114,193.863L560.113,193.858L560.101,193.852L560.098,193.856L560.101,193.863L560.099,193.865L560.082,193.887L560.077,193.89L560.064,193.893L560.058,193.893L560.057,193.888L560.055,193.888L560.051,193.889L560.047,193.877L560.042,193.869L560.036,193.869L560.032,193.869L560.033,193.865L560.037,193.864L560.038,193.861L560.026,193.853L560.029,193.849L560.037,193.841L560.047,193.839L560.051,193.834L560.048,193.825L560.05,193.813L560.043,193.805L560.036,193.791L560.036,193.785L560.041,193.781L560.051,193.773L560.062,193.749L560.039,193.749L560.025,193.722L560.016,193.722L560.003,193.715L559.992,193.706L559.985,193.704L559.983,193.704L559.973,193.706L559.969,193.706L559.953,193.707L559.941,193.707L559.934,193.707L559.936,193.699L559.932,193.689L559.931,193.686L559.924,193.675L559.922,193.675L559.918,193.674L559.917,193.674L559.917,193.672L559.916,193.67L559.916,193.669L559.915,193.668L559.916,193.664L559.917,193.66L559.917,193.658L559.921,193.652L559.923,193.647L559.924,193.646L559.924,193.645L559.919,193.64L559.914,193.638L559.91,193.638L559.91,193.638L559.907,193.637L559.904,193.634L559.902,193.634L559.898,193.634L559.894,193.633L559.892,193.633L559.887,193.632L559.886,193.633L559.884,193.633L559.882,193.631L559.879,193.631L559.877,193.63L559.876,193.631L559.876,193.631L559.876,193.632L559.877,193.634L559.878,193.635L559.879,193.635L559.879,193.636L559.879,193.638L559.879,193.639L559.88,193.64L559.881,193.642L559.882,193.643L559.882,193.644L559.884,193.645L559.884,193.646L559.885,193.647L559.884,193.647L559.884,193.648L559.885,193.649L559.885,193.65L559.885,193.65L559.884,193.651L559.884,193.652L559.885,193.652L559.885,193.652L559.885,193.653L559.885,193.653L559.885,193.654L559.885,193.654L559.884,193.655L559.884,193.655L559.884,193.656L559.883,193.657L559.882,193.658L559.881,193.658L559.881,193.658L559.881,193.659L559.88,193.659L559.88,193.66L559.881,193.66L559.881,193.66L559.881,193.661L559.881,193.661L559.881,193.662L559.88,193.662L559.88,193.664L559.879,193.665L559.878,193.665L559.878,193.665L559.878,193.666L559.878,193.667L559.877,193.667L559.874,193.666L559.868,193.665L559.865,193.665L559.859,193.664L559.857,193.664L559.851,193.663L559.849,193.664L559.847,193.67L559.847,193.672L559.846,193.675L559.845,193.677L559.845,193.679L559.843,193.683L559.843,193.687L559.842,193.689L559.839,193.689L559.837,193.691L559.831,193.695L559.83,193.696L559.826,193.706L559.824,193.711L559.819,193.72L559.819,193.721L559.819,193.722L559.819,193.724L559.819,193.726L559.818,193.729L559.818,193.733L559.815,193.735L559.815,193.736L559.814,193.737L559.813,193.739L559.813,193.739L559.813,193.741L559.81,193.744L559.808,193.745L559.809,193.746L559.809,193.746L559.808,193.747L559.807,193.748L559.803,193.75L559.801,193.751L559.801,193.751L559.8,193.752L559.798,193.756L559.797,193.757L559.797,193.759L559.794,193.771L559.794,193.776L559.793,193.777L559.791,193.782L559.79,193.783L559.791,193.785L559.792,193.788L559.79,193.788L559.784,193.789L559.776,193.79L559.771,193.795L559.769,193.797L559.766,193.798L559.761,193.8L559.757,193.802L559.756,193.804L559.755,193.804L559.75,193.805L559.743,193.808L559.739,193.808L559.737,193.808L559.735,193.808L559.732,193.807L559.729,193.807L559.728,193.807L559.726,193.807L559.725,193.806L559.723,193.804L559.721,193.803L559.714,193.805L559.712,193.808L559.704,193.812L559.704,193.816L559.705,193.817L559.705,193.818L559.706,193.824L559.707,193.825L559.708,193.826L559.708,193.828L559.707,193.834L559.707,193.836L559.708,193.838L559.707,193.841L559.707,193.844L559.706,193.852L559.7,193.857L559.694,193.86L559.693,193.861L559.692,193.864L559.692,193.868L559.691,193.87L559.689,193.874L559.685,193.876L559.683,193.877L559.682,193.878L559.685,193.887L559.687,193.895L559.688,193.897L559.686,193.902L559.684,193.905L559.684,193.907L559.683,193.909L559.682,193.914L559.682,193.916L559.678,193.922L559.674,193.927L559.674,193.929L559.672,193.931L559.672,193.931L559.668,193.936L559.664,193.941L559.657,193.946L559.658,193.951L559.658,193.953L559.66,193.967L559.659,193.969L559.657,193.979L559.658,193.987L559.658,193.989L559.657,193.991L559.655,193.994L559.651,193.997L559.651,193.998L559.65,194.001L559.647,194.005L559.64,194.009L559.638,194.014L559.64,194.018L559.638,194.024L559.634,194.027L559.631,194.031L559.62,194.042L559.605,194.015L559.602,194.009L559.599,194.005L559.598,194.004L559.597,194.003L559.597,194.001L559.596,194.001L559.593,193.998L559.592,193.997L559.591,193.997L559.589,193.996L559.588,193.996L559.585,193.997L559.583,193.997L559.581,194L559.572,194.001L559.569,194L559.566,193.999L559.564,193.999L559.556,194.001L559.55,194L559.54,193.996L559.538,193.996L559.533,193.997L559.531,193.998L559.529,193.998L559.526,194.001L559.525,194.001L559.524,194.002L559.524,194.002L559.523,194.004L559.521,194.005L559.519,194.006L559.517,194.003L559.507,193.985L559.5,193.996L559.498,193.999L559.497,194L559.48,194.005L559.477,194.004L559.473,194.004L559.484,193.989L559.488,193.991L559.499,193.976L559.5,193.974L559.475,193.931L559.46,193.932L559.455,193.933L559.449,193.933L559.44,193.935L559.437,193.935L559.435,193.935L559.432,193.935L559.431,193.935L559.428,193.936L559.42,193.937L559.408,193.938L559.405,193.939L559.391,193.941L559.388,193.941L559.383,193.942L559.381,193.943L559.38,193.944L559.378,193.947L559.365,193.949L559.365,193.95L559.362,193.95L559.359,193.95L559.357,193.95L559.353,193.95L559.354,193.952L559.354,193.952L559.354,193.952L559.356,193.953L559.357,193.954L559.366,193.953L559.377,193.951L559.372,193.956L559.373,193.957L559.373,193.958L559.372,193.96L559.359,193.962L559.354,193.96L559.354,193.961L559.353,193.964L559.353,193.965L559.354,193.966L559.355,193.966L559.356,193.966L559.357,193.967L559.357,193.967L559.357,193.968L559.355,193.97L559.355,193.97L559.354,193.972L559.354,193.972L559.355,193.974L559.355,193.976L559.355,193.976L559.355,193.976L559.353,193.985L559.355,193.985L559.365,193.983L559.365,193.981L559.364,193.979L559.376,193.978L559.374,193.982L559.374,193.986L559.372,193.987L559.372,193.991L559.355,193.993L559.354,193.995L559.352,193.995L559.35,193.995L559.348,193.999L559.347,194L559.347,194.001L559.344,194.002L559.341,194.002L559.336,194.004L559.33,194.003L559.327,194.005L559.325,194.009L559.323,194.014L559.321,194.017L559.31,194.024L559.306,194.021L559.306,194.021L559.307,194.022L559.307,194.023L559.307,194.023L559.307,194.024L559.307,194.024L559.307,194.025L559.308,194.025L559.308,194.025L559.308,194.026L559.308,194.026L559.307,194.027L559.307,194.027L559.306,194.028L559.306,194.028L559.305,194.028L559.305,194.029L559.305,194.029L559.304,194.029L559.304,194.03L559.303,194.03L559.302,194.031L559.302,194.031L559.303,194.031L559.303,194.032L559.303,194.033L559.303,194.033L559.303,194.034L559.302,194.035L559.302,194.036L559.302,194.036L559.302,194.036L559.302,194.036L559.302,194.036L559.302,194.037L559.302,194.037L559.302,194.037L559.302,194.038L559.302,194.038L559.301,194.038L559.301,194.038L559.301,194.038L559.3,194.038L559.3,194.038L559.299,194.037L559.299,194.037L559.299,194.037L559.298,194.036L559.298,194.037L559.298,194.037L559.298,194.037L559.298,194.038L559.298,194.038L559.299,194.039L559.299,194.04L559.299,194.04L559.3,194.041L559.3,194.041L559.3,194.041L559.3,194.042L559.3,194.043L559.3,194.043L559.299,194.044L559.299,194.045L559.298,194.047L559.298,194.048L559.298,194.048L559.298,194.049L559.298,194.05L559.298,194.05L559.299,194.05L559.299,194.05L559.3,194.051L559.3,194.05L559.3,194.05L559.3,194.05L559.301,194.049L559.301,194.049L559.301,194.049L559.302,194.049L559.302,194.049L559.302,194.049L559.302,194.049L559.302,194.05L559.302,194.05L559.301,194.051L559.301,194.052L559.301,194.052L559.301,194.052L559.301,194.052L559.301,194.053L559.302,194.053L559.303,194.053L559.303,194.053L559.303,194.053L559.303,194.053L559.303,194.054L559.303,194.054L559.302,194.054L559.302,194.054L559.301,194.054L559.301,194.054L559.301,194.054L559.302,194.055L559.302,194.056L559.302,194.057L559.301,194.058L559.301,194.059L559.301,194.06L559.301,194.061L559.301,194.061L559.301,194.061L559.301,194.062L559.302,194.062L559.302,194.062L559.302,194.061L559.302,194.061L559.303,194.061L559.303,194.06L559.304,194.06L559.305,194.059L559.306,194.059L559.307,194.058L559.307,194.058L559.308,194.058L559.308,194.058L559.308,194.058L559.308,194.059L559.308,194.059L559.308,194.06L559.308,194.06L559.308,194.06L559.308,194.061L559.308,194.061L559.309,194.063L559.309,194.063L559.309,194.063L559.309,194.064L559.309,194.064L559.308,194.064L559.308,194.064L559.308,194.064L559.307,194.063L559.307,194.062L559.306,194.062L559.306,194.062L559.305,194.062L559.305,194.062L559.303,194.063L559.302,194.063L559.301,194.063L559.301,194.064L559.301,194.064L559.301,194.064L559.301,194.065L559.301,194.065L559.301,194.065L559.301,194.066L559.302,194.066L559.302,194.066L559.303,194.066L559.303,194.066L559.303,194.065L559.304,194.065L559.305,194.064L559.305,194.064L559.305,194.064L559.306,194.064L559.306,194.064L559.306,194.064L559.306,194.065L559.306,194.065L559.306,194.065L559.307,194.065L559.307,194.065L559.307,194.066L559.307,194.067L559.307,194.067L559.307,194.068L559.307,194.068L559.306,194.068L559.306,194.068L559.305,194.068L559.305,194.067L559.305,194.067L559.305,194.067L559.305,194.067L559.304,194.067L559.304,194.067L559.304,194.068L559.304,194.068L559.303,194.068L559.303,194.069L559.302,194.069L559.302,194.068L559.302,194.068L559.302,194.068L559.301,194.067L559.301,194.067L559.3,194.066L559.3,194.066L559.299,194.066L559.299,194.066L559.299,194.066L559.299,194.067L559.299,194.067L559.299,194.067L559.299,194.068L559.299,194.068L559.3,194.069L559.3,194.069L559.3,194.069L559.3,194.069L559.3,194.07L559.3,194.07L559.3,194.07L559.299,194.071L559.298,194.071L559.297,194.071L559.297,194.071L559.297,194.071L559.296,194.071L559.295,194.071L559.294,194.071L559.294,194.071L559.293,194.071L559.293,194.071L559.293,194.072L559.293,194.072L559.293,194.072L559.293,194.072L559.294,194.073L559.294,194.073L559.295,194.073L559.295,194.073L559.296,194.073L559.297,194.073L559.297,194.073L559.297,194.073L559.298,194.074L559.299,194.075L559.299,194.076L559.299,194.077L559.299,194.077L559.299,194.078L559.298,194.078L559.298,194.078L559.297,194.079L559.297,194.079L559.296,194.079L559.293,194.078L559.292,194.078L559.291,194.078L559.291,194.078L559.29,194.079L559.289,194.079L559.289,194.079L559.289,194.079L559.289,194.08L559.289,194.08L559.289,194.08L559.29,194.08L559.29,194.08L559.291,194.079L559.291,194.079L559.292,194.079L559.292,194.079L559.292,194.079L559.292,194.079L559.293,194.08L559.293,194.08L559.292,194.081L559.292,194.081L559.293,194.082L559.293,194.084L559.293,194.084L559.293,194.085L559.293,194.085L559.293,194.085L559.293,194.085L559.292,194.086L559.292,194.086L559.291,194.086L559.291,194.086L559.29,194.087L559.289,194.087L559.289,194.087L559.288,194.087L559.287,194.086L559.286,194.086L559.285,194.086L559.284,194.086L559.283,194.086L559.279,194.087L559.279,194.087L559.279,194.087L559.278,194.088L559.277,194.088L559.277,194.088L559.277,194.089L559.277,194.089L559.277,194.089L559.277,194.09L559.277,194.09L559.277,194.09L559.277,194.09L559.278,194.09L559.278,194.089L559.279,194.089L559.279,194.089L559.279,194.089L559.279,194.089L559.28,194.089L559.28,194.09L559.279,194.09L559.279,194.091L559.279,194.091L559.278,194.092L559.278,194.092L559.277,194.093L559.277,194.093L559.277,194.093L559.277,194.093L559.278,194.094L559.278,194.094L559.279,194.094L559.279,194.094L559.279,194.095L559.278,194.095L559.278,194.095L559.277,194.095L559.277,194.096L559.276,194.096L559.275,194.096L559.275,194.096L559.274,194.096L559.274,194.095L559.274,194.095L559.273,194.095L559.273,194.094L559.273,194.094L559.273,194.094L559.272,194.094L559.272,194.094L559.272,194.095L559.27,194.096L559.269,194.096L559.268,194.096L559.268,194.097L559.267,194.097L559.265,194.099L559.264,194.099L559.264,194.1L559.264,194.1L559.264,194.1L559.264,194.101L559.264,194.101L559.265,194.101L559.265,194.102L559.264,194.102L559.264,194.103L559.264,194.103L559.264,194.103L559.264,194.104L559.264,194.104L559.264,194.104L559.264,194.105L559.264,194.104L559.264,194.104L559.265,194.104L559.265,194.104L559.265,194.103L559.265,194.103L559.265,194.103L559.266,194.103L559.266,194.103L559.266,194.104L559.267,194.104L559.267,194.104L559.267,194.104L559.267,194.105L559.267,194.106L559.267,194.106L559.266,194.107L559.265,194.107L559.265,194.108L559.265,194.108L559.264,194.108L559.264,194.108L559.264,194.108L559.264,194.108L559.264,194.107L559.264,194.107L559.264,194.106L559.264,194.106L559.264,194.106L559.264,194.106L559.263,194.106L559.263,194.106L559.262,194.106L559.261,194.107L559.261,194.107L559.261,194.106L559.26,194.106L559.26,194.106L559.259,194.106L559.259,194.106L559.26,194.107L559.26,194.107L559.26,194.109L559.26,194.109L559.26,194.11L559.26,194.11L559.26,194.11L559.261,194.109L559.261,194.109L559.261,194.11L559.261,194.11L559.262,194.11L559.262,194.11L559.261,194.111L559.261,194.111L559.261,194.111L559.26,194.111L559.26,194.112L559.26,194.112L559.26,194.112L559.26,194.112L559.26,194.112L559.26,194.113L559.26,194.113L559.26,194.113L559.259,194.113L559.259,194.113L559.258,194.113L559.258,194.113L559.258,194.113L559.258,194.113L559.258,194.114L559.258,194.114L559.258,194.115L559.258,194.115L559.258,194.116L559.259,194.116L559.259,194.116L559.259,194.116L559.259,194.116L559.26,194.115L559.26,194.115L559.26,194.115L559.261,194.116L559.261,194.115L559.262,194.116L559.262,194.116L559.262,194.116L559.262,194.117L559.262,194.117L559.261,194.118L559.261,194.118L559.261,194.118L559.261,194.118L559.261,194.118L559.261,194.117L559.26,194.117L559.26,194.117L559.26,194.117L559.26,194.117L559.26,194.117L559.26,194.117L559.26,194.117L559.26,194.118L559.26,194.118L559.26,194.118L559.26,194.118L559.26,194.119L559.26,194.119L559.261,194.119L559.261,194.12L559.262,194.121L559.262,194.121L559.262,194.121L559.262,194.122L559.262,194.122L559.261,194.123L559.261,194.123L559.261,194.123L559.261,194.124L559.261,194.124L559.261,194.124L559.261,194.125L559.261,194.125L559.261,194.125L559.26,194.125L559.26,194.125L559.26,194.124L559.26,194.124L559.26,194.124L559.26,194.124L559.26,194.123L559.26,194.123L559.26,194.123L559.26,194.123L559.26,194.123L559.26,194.123L559.26,194.123L559.26,194.122L559.26,194.122L559.259,194.122L559.259,194.122L559.259,194.122L559.259,194.122L559.259,194.122L559.259,194.122L559.258,194.122L559.258,194.122L559.258,194.122L559.258,194.122L559.257,194.122L559.257,194.122L559.257,194.122L559.257,194.123L559.257,194.123L559.257,194.123L559.257,194.123L559.256,194.123L559.256,194.124L559.256,194.124L559.257,194.124L559.257,194.124L559.257,194.125L559.257,194.125L559.257,194.125L559.257,194.126L559.257,194.126L559.257,194.126L559.257,194.126L559.257,194.127L559.257,194.127L559.257,194.127L559.257,194.127L559.257,194.127L559.257,194.127L559.256,194.127L559.256,194.127L559.256,194.127L559.256,194.127L559.256,194.127L559.255,194.127L559.255,194.127L559.255,194.127L559.255,194.127L559.255,194.127L559.255,194.127L559.255,194.127L559.255,194.128L559.254,194.128L559.254,194.128L559.254,194.128L559.254,194.128L559.254,194.128L559.254,194.129L559.254,194.129L559.254,194.129L559.254,194.129L559.254,194.129L559.253,194.129L559.253,194.129L559.253,194.129L559.253,194.129L559.253,194.128L559.253,194.128L559.253,194.128L559.253,194.128L559.253,194.128L559.253,194.128L559.253,194.127L559.252,194.127L559.252,194.127L559.252,194.127L559.252,194.127L559.252,194.127L559.252,194.127L559.252,194.127L559.252,194.127L559.252,194.127L559.252,194.127L559.252,194.127L559.252,194.127L559.251,194.127L559.251,194.128L559.251,194.128L559.251,194.128L559.251,194.128L559.252,194.128L559.252,194.129L559.252,194.129L559.252,194.129L559.252,194.13L559.252,194.13L559.252,194.13L559.252,194.13L559.252,194.13L559.252,194.13L559.252,194.13L559.252,194.131L559.252,194.131L559.253,194.131L559.253,194.131L559.253,194.131L559.253,194.131L559.253,194.131L559.253,194.132L559.254,194.132L559.254,194.132L559.254,194.132L559.254,194.132L559.254,194.132L559.254,194.132L559.253,194.132L559.253,194.132L559.253,194.132L559.253,194.133L559.252,194.133L559.252,194.133L559.252,194.133L559.252,194.133L559.252,194.133L559.252,194.134L559.252,194.134L559.252,194.134L559.252,194.134L559.252,194.134L559.252,194.134L559.252,194.134L559.252,194.135L559.252,194.135L559.252,194.135L559.252,194.135L559.252,194.135L559.251,194.135L559.251,194.135L559.251,194.135L559.251,194.135L559.251,194.135L559.25,194.135L559.25,194.135L559.25,194.134L559.25,194.134L559.25,194.134L559.25,194.134L559.25,194.134L559.25,194.133L559.25,194.133L559.249,194.133L559.249,194.134L559.249,194.134L559.249,194.134L559.249,194.134L559.249,194.134L559.249,194.134L559.249,194.134L559.249,194.135L559.249,194.135L559.249,194.135L559.249,194.136L559.249,194.136L559.249,194.137L559.249,194.137L559.249,194.137L559.249,194.138L559.249,194.138L559.249,194.138L559.249,194.138L559.249,194.138L559.249,194.138L559.25,194.139L559.25,194.139L559.25,194.139L559.25,194.139L559.25,194.139L559.25,194.139L559.25,194.139L559.25,194.139L559.25,194.139L559.25,194.14L559.25,194.14L559.25,194.14L559.25,194.14L559.249,194.14L559.249,194.14L559.248,194.14L559.248,194.14L559.248,194.14L559.247,194.14L559.247,194.14L559.247,194.14L559.247,194.141L559.246,194.141L559.246,194.141L559.246,194.141L559.246,194.141L559.246,194.141L559.246,194.142L559.246,194.142L559.246,194.142L559.246,194.142L559.247,194.142L559.247,194.142L559.247,194.142L559.247,194.143L559.246,194.143L559.246,194.143L559.246,194.143L559.246,194.143L559.246,194.143L559.246,194.143L559.245,194.143L559.245,194.143L559.245,194.144L559.245,194.144L559.245,194.144L559.245,194.144L559.245,194.144L559.245,194.144L559.245,194.144L559.246,194.144L559.246,194.144L559.246,194.143L559.246,194.143L559.247,194.143L559.247,194.143L559.247,194.143L559.247,194.143L559.247,194.143L559.247,194.144L559.247,194.144L559.248,194.144L559.248,194.144L559.248,194.144L559.248,194.144L559.247,194.145L559.247,194.145L559.247,194.145L559.247,194.146L559.247,194.146L559.247,194.146L559.247,194.146L559.247,194.146L559.247,194.147L559.247,194.147L559.247,194.147L559.247,194.147L559.248,194.147L559.248,194.147L559.248,194.147L559.248,194.147L559.248,194.147L559.248,194.148L559.248,194.148L559.248,194.148L559.248,194.148L559.248,194.148L559.248,194.149L559.248,194.149L559.248,194.149L559.249,194.149L559.249,194.15L559.249,194.15L559.249,194.15L559.249,194.15L559.249,194.15L559.25,194.15L559.25,194.15L559.25,194.15L559.25,194.15L559.25,194.15L559.25,194.15L559.251,194.15L559.251,194.15L559.251,194.15L559.251,194.15L559.251,194.15L559.251,194.15L559.251,194.15L559.251,194.149L559.251,194.149L559.251,194.149L559.251,194.149L559.251,194.149L559.251,194.149L559.252,194.149L559.252,194.149L559.252,194.149L559.252,194.149L559.252,194.149L559.253,194.149L559.253,194.149L559.253,194.149L559.253,194.149L559.253,194.149L559.254,194.149L559.254,194.149L559.254,194.149L559.254,194.149L559.254,194.149L559.254,194.149L559.255,194.149L559.255,194.149L559.256,194.149L559.256,194.149L559.256,194.149L559.257,194.149L559.257,194.149L559.257,194.149L559.257,194.149L559.257,194.149L559.258,194.149L559.258,194.15L559.258,194.15L559.258,194.15L559.258,194.15L559.258,194.15L559.257,194.15L559.257,194.15L559.257,194.15L559.257,194.15L559.256,194.15L559.256,194.151L559.256,194.151L559.256,194.151L559.256,194.151L559.256,194.151L559.256,194.151L559.256,194.151L559.256,194.152L559.255,194.152L559.255,194.152L559.255,194.152L559.255,194.153L559.254,194.153L559.254,194.153L559.254,194.153L559.253,194.153L559.253,194.154L559.253,194.154L559.253,194.154L559.253,194.154L559.253,194.154L559.253,194.155L559.254,194.155L559.254,194.155L559.254,194.155L559.254,194.155L559.254,194.155L559.254,194.155L559.254,194.154L559.254,194.154L559.254,194.154L559.254,194.154L559.254,194.154L559.254,194.154L559.255,194.154L559.255,194.154L559.255,194.154L559.255,194.153L559.255,194.153L559.255,194.153L559.255,194.153L559.256,194.153L559.256,194.153L559.256,194.153L559.256,194.153L559.256,194.153L559.256,194.153L559.257,194.153L559.257,194.154L559.257,194.154L559.257,194.154L559.256,194.154L559.256,194.155L559.256,194.155L559.256,194.155L559.256,194.155L559.256,194.155L559.255,194.156L559.255,194.156L559.255,194.156L559.254,194.156L559.254,194.157L559.254,194.157L559.254,194.157L559.254,194.157L559.254,194.157L559.254,194.157L559.254,194.158L559.254,194.158L559.254,194.158L559.255,194.158L559.255,194.158L559.255,194.159L559.255,194.159L559.255,194.159L559.255,194.159L559.255,194.16L559.256,194.16L559.256,194.16L559.256,194.16L559.256,194.161L559.256,194.161L559.256,194.161L559.256,194.161L559.256,194.161L559.256,194.162L559.256,194.162L559.256,194.162L559.256,194.163L559.256,194.163L559.256,194.163L559.257,194.164L559.257,194.164L559.257,194.164L559.257,194.164L559.257,194.165L559.257,194.165L559.257,194.165L559.257,194.166L559.257,194.166L559.257,194.166L559.257,194.166L559.257,194.166L559.257,194.166L559.258,194.166L559.258,194.166L559.258,194.166L559.258,194.166L559.258,194.166L559.259,194.166L559.259,194.167L559.259,194.167L559.259,194.167L559.259,194.167L559.259,194.167L559.259,194.167L559.259,194.167L559.259,194.168L559.26,194.168L559.26,194.168L559.26,194.168L559.26,194.168L559.26,194.168L559.26,194.168L559.26,194.168L559.26,194.168L559.26,194.169L559.26,194.169L559.259,194.169L559.259,194.169L559.259,194.169L559.259,194.17L559.259,194.17L559.259,194.17L559.259,194.171L559.259,194.171L559.259,194.171L559.259,194.171L559.259,194.171L559.259,194.171L559.259,194.172L559.259,194.172L559.258,194.172L559.258,194.173L559.258,194.173L559.258,194.174L559.259,194.174L559.259,194.174L559.259,194.175L559.259,194.175L559.259,194.175L559.259,194.175L559.26,194.175L559.26,194.175L559.26,194.175L559.26,194.175L559.26,194.176L559.26,194.176L559.26,194.177L559.26,194.177L559.26,194.177L559.26,194.178L559.26,194.179L559.26,194.179L559.26,194.18L559.26,194.18L559.26,194.181L559.26,194.182L559.26,194.182L559.26,194.183L559.26,194.183L559.26,194.183L559.26,194.184L559.26,194.184L559.26,194.184L559.26,194.185L559.259,194.185L559.259,194.185L559.259,194.185L559.259,194.185L559.259,194.185L559.258,194.185L559.258,194.184L559.258,194.184L559.258,194.184L559.258,194.184L559.258,194.184L559.257,194.185L559.257,194.185L559.257,194.185L559.257,194.185L559.257,194.185L559.257,194.186L559.257,194.186L559.257,194.187L559.257,194.187L559.257,194.188L559.257,194.188L559.257,194.189L559.257,194.189L559.257,194.189L559.257,194.189L559.257,194.189L559.257,194.19L559.257,194.19L559.257,194.19L559.256,194.19L559.256,194.19L559.256,194.19L559.255,194.19L559.255,194.19L559.255,194.19L559.254,194.191L559.254,194.191L559.254,194.191L559.254,194.191L559.254,194.191L559.254,194.191L559.253,194.192L559.253,194.192L559.253,194.192L559.253,194.193L559.253,194.193L559.254,194.194L559.254,194.194L559.254,194.194L559.253,194.195L559.253,194.195L559.253,194.195L559.253,194.195L559.253,194.196L559.253,194.196L559.253,194.196L559.253,194.196L559.252,194.196L559.252,194.196L559.252,194.196L559.252,194.197L559.251,194.197L559.251,194.197L559.251,194.197L559.25,194.197L559.25,194.197L559.25,194.197L559.249,194.197L559.249,194.197L559.249,194.198L559.249,194.198L559.249,194.198L559.249,194.198L559.248,194.198L559.248,194.198L559.248,194.198L559.248,194.198L559.248,194.199L559.248,194.199L559.247,194.199L559.247,194.199L559.247,194.199L559.247,194.2L559.247,194.2L559.246,194.2L559.246,194.2L559.246,194.2L559.246,194.2L559.245,194.2L559.245,194.2L559.245,194.201L559.245,194.201L559.245,194.201L559.245,194.201L559.244,194.202L559.244,194.202L559.244,194.202L559.244,194.202L559.244,194.202L559.244,194.202L559.244,194.202L559.243,194.203L559.243,194.203L559.243,194.203L559.243,194.203L559.242,194.203L559.242,194.204L559.242,194.204L559.242,194.204L559.242,194.204L559.241,194.205L559.241,194.205L559.241,194.205L559.241,194.205L559.241,194.205L559.241,194.205L559.241,194.206L559.24,194.206L559.24,194.206L559.24,194.206L559.24,194.206L559.24,194.207L559.24,194.207L559.24,194.207L559.24,194.208L559.24,194.208L559.24,194.209L559.24,194.209L559.24,194.209L559.24,194.21L559.24,194.21L559.24,194.211L559.24,194.211L559.24,194.211L559.24,194.212L559.24,194.212L559.24,194.212L559.239,194.212L559.239,194.212L559.239,194.213L559.239,194.213L559.238,194.213L559.238,194.213L559.238,194.213L559.237,194.214L559.237,194.214L559.237,194.214L559.236,194.214L559.236,194.214L559.236,194.214L559.236,194.215L559.236,194.215L559.235,194.215L559.235,194.215L559.235,194.216L559.235,194.216L559.235,194.216L559.235,194.217L559.235,194.217L559.236,194.217L559.236,194.217L559.236,194.217L559.236,194.217L559.237,194.217L559.237,194.217L559.237,194.217L559.238,194.217L559.239,194.217L559.239,194.217L559.239,194.217L559.239,194.218L559.239,194.218L559.239,194.218L559.239,194.218L559.239,194.218L559.239,194.219L559.239,194.219L559.239,194.219L559.239,194.22L559.239,194.22L559.239,194.22L559.239,194.22L559.238,194.22L559.238,194.22L559.238,194.22L559.237,194.22L559.237,194.221L559.236,194.221L559.235,194.221L559.235,194.221L559.235,194.221L559.235,194.221L559.235,194.221L559.234,194.221L559.234,194.222L559.234,194.222L559.234,194.222L559.234,194.222L559.233,194.222L559.233,194.223L559.233,194.223L559.233,194.223L559.233,194.223L559.233,194.223L559.233,194.224L559.233,194.224L559.233,194.224L559.233,194.224L559.233,194.224L559.234,194.224L559.235,194.224L559.235,194.224L559.235,194.224L559.235,194.224L559.236,194.224L559.236,194.225L559.236,194.225L559.236,194.225L559.237,194.225L559.237,194.225L559.237,194.226L559.237,194.226L559.238,194.226L559.238,194.226L559.238,194.227L559.238,194.227L559.239,194.227L559.239,194.228L559.239,194.228L559.239,194.228L559.239,194.229L559.239,194.229L559.239,194.23L559.239,194.23L559.239,194.231L559.239,194.231L559.239,194.231L559.239,194.232L559.239,194.232L559.238,194.232L559.238,194.233L559.238,194.233L559.238,194.233L559.237,194.233L559.237,194.234L559.236,194.234L559.236,194.234L559.235,194.235L559.235,194.235L559.235,194.235L559.235,194.235L559.235,194.236L559.235,194.236L559.234,194.237L559.234,194.238L559.234,194.239L559.234,194.239L559.234,194.24L559.234,194.241L559.234,194.241L559.234,194.241L559.234,194.241L559.234,194.242L559.233,194.242L559.233,194.242L559.233,194.242L559.232,194.242L559.232,194.242L559.231,194.242L559.231,194.242L559.23,194.242L559.229,194.242L559.229,194.242L559.228,194.242L559.228,194.242L559.227,194.242L559.227,194.242L559.227,194.242L559.226,194.242L559.226,194.242L559.226,194.242L559.226,194.243L559.226,194.243L559.225,194.243L559.225,194.243L559.225,194.243L559.225,194.244L559.225,194.244L559.224,194.244L559.224,194.244L559.224,194.244L559.224,194.245L559.224,194.245L559.224,194.245L559.224,194.246L559.224,194.246L559.224,194.246L559.224,194.246L559.224,194.247L559.224,194.247L559.224,194.247L559.224,194.248L559.223,194.248L559.223,194.249L559.223,194.249L559.223,194.25L559.222,194.25L559.222,194.251L559.222,194.251L559.222,194.251L559.221,194.252L559.221,194.252L559.221,194.252L559.221,194.252L559.221,194.252L559.221,194.252L559.22,194.253L559.22,194.253L559.22,194.253L559.22,194.253L559.22,194.253L559.22,194.254L559.22,194.254L559.22,194.254L559.219,194.254L559.219,194.254L559.219,194.255L559.219,194.255L559.219,194.255L559.219,194.255L559.219,194.256L559.219,194.256L559.219,194.256L559.219,194.256L559.219,194.256L559.219,194.257L559.219,194.257L559.219,194.257L559.219,194.257L559.219,194.257L559.219,194.258L559.218,194.258L559.218,194.258L559.218,194.258L559.218,194.258L559.217,194.258L559.217,194.258L559.217,194.258L559.216,194.258L559.216,194.258L559.216,194.257L559.216,194.257L559.215,194.257L559.215,194.257L559.215,194.257L559.215,194.257L559.214,194.257L559.214,194.257L559.214,194.257L559.214,194.257L559.214,194.257L559.214,194.257L559.213,194.257L559.213,194.258L559.213,194.258L559.213,194.258L559.213,194.258L559.213,194.258L559.213,194.259L559.212,194.259L559.212,194.259L559.212,194.26L559.212,194.26L559.212,194.26L559.212,194.261L559.212,194.261L559.211,194.261L559.211,194.261L559.211,194.261L559.211,194.262L559.211,194.262L559.21,194.262L559.21,194.262L559.21,194.262L559.21,194.262L559.21,194.262L559.21,194.262L559.209,194.262L559.209,194.262L559.208,194.262L559.208,194.262L559.208,194.263L559.207,194.263L559.207,194.263L559.207,194.263L559.206,194.263L559.206,194.263L559.206,194.263L559.206,194.264L559.205,194.264L559.205,194.265L559.204,194.265L559.204,194.265L559.204,194.265L559.204,194.265L559.203,194.265L559.203,194.265L559.202,194.265L559.2,194.265L559.2,194.265L559.2,194.265L559.2,194.265L559.199,194.265L559.199,194.265L559.199,194.265L559.199,194.264L559.199,194.264L559.199,194.264L559.199,194.264L559.199,194.263L559.199,194.263L559.199,194.263L559.199,194.263L559.199,194.263L559.199,194.263L559.2,194.263L559.2,194.263L559.2,194.263L559.2,194.262L559.2,194.262L559.2,194.262L559.2,194.262L559.201,194.262L559.201,194.262L559.201,194.262L559.201,194.262L559.201,194.262L559.201,194.262L559.201,194.262L559.202,194.262L559.202,194.261L559.202,194.261L559.202,194.261L559.202,194.261L559.202,194.261L559.202,194.261L559.203,194.261L559.203,194.261L559.203,194.261L559.203,194.261L559.203,194.261L559.203,194.261L559.203,194.26L559.203,194.26L559.203,194.26L559.203,194.26L559.202,194.26L559.202,194.259L559.202,194.259L559.202,194.259L559.201,194.259L559.201,194.259L559.201,194.259L559.2,194.259L559.2,194.259L559.199,194.259L559.199,194.259L559.199,194.259L559.198,194.259L559.198,194.259L559.198,194.259L559.198,194.259L559.198,194.259L559.197,194.259L559.196,194.259L559.196,194.259L559.195,194.259L559.195,194.259L559.195,194.259L559.195,194.259L559.194,194.259L559.194,194.259L559.194,194.259L559.194,194.26L559.194,194.26L559.194,194.26L559.194,194.261L559.194,194.261L559.193,194.261L559.193,194.261L559.193,194.261L559.193,194.262L559.193,194.262L559.193,194.262L559.192,194.262L559.192,194.262L559.192,194.262L559.192,194.262L559.192,194.262L559.191,194.262L559.191,194.262L559.19,194.262L559.19,194.262L559.19,194.262L559.19,194.262L559.19,194.262L559.19,194.262L559.189,194.262L559.189,194.263L559.189,194.263L559.189,194.263L559.189,194.263L559.189,194.264L559.189,194.264L559.189,194.264L559.19,194.265L559.19,194.265L559.19,194.265L559.19,194.265L559.189,194.266L559.19,194.266L559.189,194.266L559.189,194.266L559.189,194.267L559.189,194.267L559.189,194.267L559.189,194.267L559.189,194.268L559.189,194.268L559.189,194.268L559.189,194.268L559.188,194.269L559.188,194.269L559.188,194.269L559.188,194.269L559.187,194.269L559.187,194.269L559.187,194.269L559.187,194.269L559.186,194.269L559.186,194.269L559.186,194.27L559.185,194.27L559.185,194.27L559.185,194.27L559.184,194.27L559.184,194.271L559.183,194.271L559.183,194.271L559.183,194.271L559.183,194.271L559.182,194.272L559.182,194.272L559.181,194.272L559.181,194.272L559.18,194.272L559.18,194.272L559.179,194.273L559.179,194.273L559.179,194.273L559.178,194.273L559.178,194.273L559.178,194.273L559.178,194.274L559.178,194.274L559.178,194.274L559.177,194.274L559.177,194.275L559.176,194.275L559.176,194.275L559.176,194.275L559.175,194.275L559.175,194.275L559.175,194.275L559.175,194.275L559.174,194.275L559.174,194.274L559.174,194.274L559.174,194.274L559.173,194.274L559.173,194.273L559.172,194.273L559.172,194.272L559.171,194.272L559.171,194.272L559.17,194.272L559.17,194.272L559.17,194.272L559.17,194.272L559.17,194.272L559.17,194.272L559.17,194.272L559.17,194.273L559.17,194.273L559.171,194.273L559.171,194.273L559.171,194.273L559.171,194.274L559.172,194.274L559.172,194.274L559.173,194.274L559.173,194.274L559.173,194.275L559.173,194.275L559.174,194.275L559.174,194.275L559.174,194.275L559.174,194.276L559.173,194.276L559.173,194.276L559.173,194.276L559.169,194.276L559.17,194.273L559.17,194.273L559.17,194.273L559.17,194.272L559.17,194.272L559.17,194.272L559.17,194.272L559.17,194.272L559.17,194.271L559.17,194.271L559.17,194.271L559.17,194.27L559.17,194.269L559.17,194.269L559.169,194.269L559.167,194.267L559.168,194.266L559.171,194.263L559.173,194.264L559.173,194.263L559.174,194.26L559.175,194.258L559.175,194.257L559.175,194.256L559.176,194.255L559.176,194.253L559.176,194.252L559.175,194.25L559.177,194.249L559.179,194.248L559.182,194.25L559.185,194.252L559.186,194.253L559.187,194.254L559.189,194.255L559.191,194.256L559.192,194.257L559.193,194.257L559.194,194.257L559.195,194.257L559.196,194.257L559.198,194.257L559.203,194.258L559.203,194.258L559.205,194.257L559.207,194.257L559.209,194.256L559.209,194.256L559.21,194.255L559.213,194.254L559.215,194.254L559.214,194.252L559.215,194.251L559.216,194.25L559.217,194.249L559.218,194.248L559.218,194.247L559.219,194.247L559.219,194.245L559.22,194.245L559.22,194.244L559.221,194.242L559.221,194.24L559.221,194.238L559.222,194.238L559.223,194.239L559.225,194.239L559.227,194.239L559.229,194.239L559.229,194.237L559.227,194.236L559.226,194.236L559.225,194.235L559.224,194.234L559.223,194.233L559.222,194.233L559.222,194.232L559.223,194.23L559.224,194.229L559.226,194.227L559.226,194.225L559.226,194.225L559.228,194.224L559.229,194.223L559.229,194.221L559.23,194.22L559.231,194.218L559.231,194.215L559.233,194.213L559.234,194.212L559.235,194.211L559.236,194.209L559.237,194.208L559.238,194.207L559.239,194.205L559.24,194.204L559.24,194.204L559.24,194.202L559.24,194.189L559.24,194.179L559.239,194.181L559.237,194.183L559.235,194.187L559.235,194.187L559.231,194.192L559.229,194.195L559.227,194.197L559.224,194.202L559.219,194.209L559.216,194.213L559.214,194.215L559.214,194.215L559.214,194.215L559.211,194.215L559.207,194.214L559.203,194.214L559.199,194.214L559.196,194.213L559.194,194.213L559.191,194.213L559.188,194.212L559.188,194.212L559.188,194.212L559.187,194.212L559.184,194.212L559.181,194.212L559.177,194.211L559.175,194.211L559.172,194.211L559.171,194.211L559.168,194.21L559.166,194.21L559.163,194.21L559.161,194.209L559.159,194.209L559.157,194.209L559.156,194.209L559.155,194.209L559.149,194.209L559.14,194.209L559.134,194.21L559.131,194.199L559.099,194.211L559.097,194.212L559.095,194.212L559.094,194.212L559.092,194.212L559.088,194.213L559.087,194.213L559.084,194.213L559.083,194.213L559.082,194.213L559.079,194.213L559.076,194.213L559.075,194.214L559.073,194.214L559.071,194.214L559.07,194.214L559.069,194.214L559.067,194.214L559.072,194.225L559.066,194.23L559.065,194.23L559.062,194.233L559.061,194.234L559.061,194.234L559.061,194.235L559.062,194.235L559.062,194.235L559.063,194.236L559.063,194.236L559.063,194.236L559.063,194.236L559.063,194.236L559.063,194.235L559.063,194.235L559.063,194.235L559.063,194.235L559.063,194.235L559.063,194.235L559.064,194.235L559.064,194.235L559.064,194.235L559.064,194.235L559.064,194.235L559.064,194.235L559.064,194.235L559.064,194.235L559.064,194.236L559.064,194.236L559.064,194.236L559.064,194.236L559.064,194.236L559.064,194.236L559.064,194.236L559.064,194.237L559.064,194.237L559.064,194.237L559.064,194.237L559.064,194.238L559.064,194.238L559.064,194.238L559.064,194.238L559.064,194.238L559.064,194.238L559.064,194.239L559.065,194.239L559.065,194.239L559.065,194.24L559.066,194.24L559.067,194.24L559.069,194.241L559.071,194.241L559.072,194.242L559.072,194.242L559.075,194.242L559.077,194.243L559.077,194.243L559.081,194.244L559.083,194.244L559.084,194.244L559.086,194.245L559.087,194.245L559.09,194.245L559.092,194.245L559.094,194.245L559.097,194.246L559.1,194.246L559.101,194.246L559.101,194.246L559.104,194.246L559.108,194.246L559.11,194.246L559.109,194.249L559.109,194.253L559.109,194.255L559.109,194.255L559.109,194.258L559.109,194.259L559.109,194.259L559.11,194.262L559.11,194.263L559.111,194.266L559.111,194.266L559.11,194.268L559.108,194.271L559.106,194.275L559.106,194.276L559.105,194.278L559.104,194.279L559.105,194.281L559.105,194.281L559.105,194.281L559.105,194.282L559.105,194.282L559.105,194.282L559.105,194.282L559.105,194.282L559.105,194.283L559.106,194.284L559.106,194.285L559.106,194.286L559.106,194.286L559.106,194.287L559.106,194.287L559.106,194.288L559.105,194.288L559.104,194.289L559.104,194.29L559.103,194.29L559.102,194.29L559.102,194.291L559.101,194.292L559.1,194.292L559.098,194.293L559.097,194.294L559.096,194.295L559.096,194.295L559.095,194.296L559.093,194.296L559.092,194.296L559.091,194.297L559.09,194.297L559.088,194.298L559.086,194.298L559.085,194.299L559.084,194.299L559.083,194.299L559.083,194.299L559.081,194.299L559.081,194.299L559.08,194.299L559.079,194.299L559.078,194.299L559.077,194.299L559.075,194.3L559.074,194.3L559.073,194.3L559.072,194.3L559.07,194.299L559.069,194.299L559.066,194.298L559.064,194.297L559.061,194.296L559.06,194.296L559.06,194.296L559.059,194.296L559.057,194.296L559.057,194.296L559.055,194.296L559.054,194.296L559.054,194.296L559.053,194.296L559.051,194.297L559.05,194.297L559.048,194.297L559.048,194.297L559.046,194.298L559.044,194.299L559.043,194.299L559.042,194.3L559.042,194.3L559.041,194.3L559.04,194.302L559.038,194.303L559.036,194.305L559.036,194.305L559.034,194.307L559.032,194.31L559.03,194.312L559.025,194.319L559.024,194.319L559.024,194.337L559.023,194.345L559.016,194.345L559.009,194.345L558.999,194.345L558.992,194.345L558.988,194.345L558.979,194.345L558.974,194.345L558.974,194.35L558.974,194.357L558.973,194.362L558.973,194.37L558.973,194.39L558.973,194.395L558.973,194.412L558.973,194.414L558.973,194.42L558.973,194.425L558.973,194.429L558.973,194.446L558.973,194.456L558.973,194.464L558.973,194.476L558.972,194.476L558.972,194.477L558.972,194.478L558.973,194.478L558.973,194.48L558.973,194.485L558.973,194.489L558.973,194.496L558.973,194.501L558.973,194.504L558.972,194.506L558.972,194.508L558.973,194.513L558.969,194.516L558.965,194.522L558.948,194.522L558.943,194.522L558.895,194.522L558.881,194.522L558.873,194.522L558.856,194.523L558.845,194.523L558.844,194.52L558.841,194.522L558.833,194.528L558.799,194.551L558.786,194.559L558.786,194.558L558.786,194.558L558.786,194.559L558.778,194.564L558.778,194.564L558.777,194.564L558.771,194.56L558.754,194.552L558.75,194.55L558.736,194.542L558.733,194.541L558.737,194.548L558.74,194.553L558.746,194.563L558.748,194.573L558.751,194.587L558.748,194.588L558.748,194.588L558.749,194.593L558.749,194.595L558.751,194.607L558.751,194.607L558.752,194.611L558.754,194.62L558.755,194.623L558.756,194.63L558.757,194.635L558.758,194.64L558.76,194.646L558.755,194.649L558.752,194.651L558.749,194.655L558.749,194.657L558.745,194.661L558.743,194.662L558.742,194.663L558.735,194.669L558.731,194.672L558.721,194.672L558.716,194.671L558.687,194.669L558.685,194.669L558.676,194.666L558.675,194.666L558.667,194.667L558.653,194.673L558.648,194.672L558.645,194.67L558.647,194.667L558.648,194.666L558.65,194.665L558.653,194.664L558.657,194.662L558.661,194.659L558.663,194.658L558.665,194.655L558.666,194.649L558.667,194.648L558.668,194.646L558.67,194.644L558.671,194.644L558.67,194.643L558.67,194.643L558.661,194.644L558.659,194.645L558.659,194.646L558.655,194.647L558.653,194.648L558.649,194.648L558.648,194.649L558.645,194.65L558.642,194.653L558.641,194.654L558.638,194.655L558.634,194.658L558.631,194.659L558.631,194.66L558.633,194.662L558.633,194.663L558.633,194.663L558.633,194.663L558.633,194.664L558.633,194.664L558.632,194.667L558.627,194.667L558.625,194.668L558.62,194.667L558.615,194.666L558.611,194.666L558.608,194.666L558.602,194.67L558.597,194.669L558.597,194.669L558.596,194.67L558.6,194.682L558.6,194.682L558.6,194.682L558.599,194.681L558.598,194.681L558.597,194.681L558.596,194.681L558.59,194.681L558.589,194.679L558.588,194.679L558.587,194.679L558.586,194.678L558.585,194.678L558.585,194.678L558.584,194.678L558.583,194.677L558.581,194.677L558.58,194.677L558.58,194.677L558.579,194.676L558.578,194.677L558.578,194.675L558.577,194.675L558.576,194.675L558.576,194.675L558.576,194.675L558.575,194.675L558.575,194.675L558.575,194.675L558.574,194.676L558.573,194.675L558.571,194.675L558.57,194.675L558.57,194.675L558.569,194.675L558.568,194.676L558.552,194.738L558.513,194.738L558.509,194.82L558.521,194.848L558.523,194.856L558.533,194.869L558.545,194.879L558.547,194.887L558.559,194.902L558.542,194.915L558.523,194.939L558.528,194.945L558.529,194.952L558.533,194.954L558.539,194.952L558.55,194.95L558.548,194.984L558.538,195.018L558.536,195.023L558.546,195.065L558.572,195.063L558.573,195.06L558.588,195.054L558.593,195.054L558.604,195.057L558.604,195.061L558.604,195.065L558.6,195.066L558.609,195.082L558.624,195.123L558.65,195.119L558.694,195.098L558.706,195.116L558.715,195.119L558.721,195.117L558.723,195.117L558.734,195.11L558.737,195.113L558.739,195.116L558.742,195.115L558.755,195.127L558.773,195.141L558.783,195.15L558.778,195.155L558.783,195.163L558.787,195.17L558.793,195.18L558.794,195.187L558.797,195.19L558.79,195.198L558.777,195.205L558.778,195.207L558.787,195.21L558.795,195.225L558.808,195.221L558.815,195.223L558.82,195.222L558.823,195.221L558.824,195.225L558.855,195.231L558.875,195.231L558.872,195.236L558.869,195.24L558.865,195.245L558.861,195.248L558.855,195.249L558.853,195.252L558.852,195.257L558.85,195.259L558.842,195.259L558.826,195.278L558.832,195.288L558.83,195.289L558.823,195.289L558.823,195.294L558.814,195.294L558.795,195.304L558.785,195.32L558.791,195.324L558.821,195.336L558.812,195.351L558.811,195.39L558.807,195.394L558.806,195.396L558.801,195.397L558.799,195.395L558.794,195.395L558.778,195.399L558.769,195.391L558.759,195.401L558.757,195.405L558.757,195.408L558.76,195.411L558.762,195.413L558.762,195.416L558.761,195.417L558.752,195.424L558.76,195.433L558.753,195.442L558.748,195.445L558.733,195.466L558.731,195.464L558.726,195.464L558.722,195.459L558.716,195.453L558.712,195.452L558.706,195.45L558.703,195.448L558.699,195.447L558.702,195.435L558.698,195.435L558.69,195.439L558.67,195.428L558.666,195.424L558.662,195.428L558.657,195.435L558.647,195.427L558.637,195.423L558.627,195.421L558.622,195.424L558.616,195.429L558.611,195.436L558.604,195.46L558.611,195.48L558.587,195.487L558.588,195.49L558.592,195.493L558.592,195.497L558.595,195.517L558.575,195.53L558.593,195.569L558.583,195.576L558.565,195.572L558.552,195.547L558.518,195.552L558.52,195.558L558.501,195.575L558.494,195.584L558.485,195.59L558.478,195.576L558.461,195.583L558.456,195.57L558.442,195.557L558.437,195.55L558.426,195.545L558.421,195.543L558.413,195.544L558.411,195.548L558.4,195.554L558.391,195.557L558.396,195.566L558.397,195.586L558.388,195.588L558.385,195.58L558.358,195.578L558.358,195.568L558.352,195.558L558.352,195.552L558.35,195.548L558.336,195.541L558.328,195.54L558.319,195.537L558.312,195.539L558.305,195.545L558.305,195.551L558.31,195.557L558.311,195.566L558.325,195.585L558.326,195.592L558.321,195.594L558.308,195.594L558.305,195.59L558.298,195.59L558.295,195.586L558.285,195.587L558.267,195.593L558.269,195.609L558.27,195.614L558.269,195.643L558.274,195.676L558.276,195.69L558.268,195.689L558.268,195.683L558.265,195.67L558.258,195.654L558.244,195.657L558.236,195.653L558.229,195.649L558.227,195.645L558.221,195.645L558.209,195.658L558.197,195.646L558.193,195.643L558.186,195.647L558.183,195.645L558.171,195.647L558.188,195.674L558.187,195.676L558.159,195.681L558.144,195.683L558.127,195.681L558.118,195.689L558.113,195.705L558.11,195.705L558.088,195.733L558.113,195.727L558.12,195.738L558.122,195.747L558.126,195.757L558.132,195.764L558.129,195.767L558.115,195.776L558.113,195.767L558.107,195.767L558.094,195.77L558.084,195.77L558.087,195.776L558.089,195.785L558.092,195.791L558.087,195.793L558.103,195.815L558.095,195.813L558.088,195.817L558.084,195.817L558.079,195.817L558.076,195.825L558.071,195.828L558.066,195.828L558.062,195.827L558.058,195.827L558.053,195.828L558.051,195.827L558.045,195.822L558.041,195.814L558.034,195.813L558.027,195.813L558.024,195.816L558.021,195.815L558.015,195.812L558.011,195.812L558.008,195.816L558.005,195.817L557.998,195.817L557.994,195.815L557.989,195.818L557.987,195.822L557.99,195.832L557.992,195.833L557.997,195.831L558.003,195.825L558.005,195.821L558.016,195.821L558.025,195.821L558.029,195.819L558.033,195.818L558.043,195.822L558.043,195.827L558.044,195.832L558.044,195.849L558.049,195.858L558.052,195.875L558.078,195.924L558.09,195.953L558.1,195.974L558.102,195.979L558.099,195.984L558.099,195.987L558.116,195.996L558.122,195.997L558.127,196L558.135,196.003L558.14,196.023L558.149,196.037L558.168,196.057L558.174,196.063L558.178,196.063L558.196,196.011L558.21,196.002L558.227,196.012L558.24,196.022L558.259,196.045L558.267,196.059L558.294,196.059L558.291,196.068L558.29,196.078L558.288,196.083L558.291,196.093L558.297,196.1L558.304,196.103L558.309,196.106L558.313,196.116L558.31,196.122L558.315,196.125L558.323,196.118L558.345,196.099L558.355,196.11L558.374,196.123L558.391,196.125L558.402,196.124L558.404,196.139L558.408,196.149L558.405,196.157L558.401,196.167L558.398,196.178L558.396,196.186L558.382,196.187L558.361,196.225L558.357,196.245L558.358,196.25L558.36,196.254L558.377,196.272L558.375,196.275L558.387,196.287L558.395,196.292L558.404,196.284L558.409,196.28L558.421,196.274L558.423,196.27L558.427,196.266L558.44,196.262L558.45,196.258L558.454,196.256L558.457,196.254L558.465,196.251L558.471,196.249L558.48,196.241L558.485,196.237L558.49,196.243L558.493,196.252L558.498,196.256L558.505,196.261L558.506,196.262L558.511,196.266L558.515,196.267L558.517,196.277L558.519,196.282L558.52,196.285L558.518,196.288L558.511,196.291L558.506,196.288L558.499,196.294L558.493,196.296L558.488,196.308L558.483,196.307L558.477,196.314L558.466,196.325L558.473,196.342L558.472,196.344L558.465,196.346L558.461,196.351L558.459,196.358L558.452,196.365L558.448,196.366L558.443,196.364L558.439,196.362L558.433,196.364L558.425,196.368L558.417,196.373L558.412,196.376L558.403,196.384L558.399,196.391L558.381,196.382L558.368,196.38L558.353,196.389L558.34,196.389L558.339,196.399L558.342,196.402L558.34,196.414L558.341,196.418L558.346,196.424L558.349,196.427L558.349,196.429L558.347,196.432L558.343,196.434L558.332,196.435L558.331,196.437L558.332,196.441L558.334,196.443L558.334,196.448L558.335,196.454L558.339,196.461L558.349,196.467L558.349,196.47L558.349,196.472L558.345,196.483L558.345,196.488L558.346,196.491L558.357,196.501L558.37,196.508L558.368,196.519L558.376,196.525L558.372,196.536L558.371,196.544L558.363,196.55L558.36,196.563L558.354,196.568L558.348,196.574L558.345,196.588L558.34,196.612L558.338,196.629L558.336,196.643L558.338,196.656L558.34,196.665L558.341,196.683L558.342,196.705L558.344,196.716L558.34,196.726L558.339,196.741L558.336,196.749L558.331,196.753L558.326,196.762L558.319,196.808L558.302,196.81L558.288,196.804L558.272,196.806L558.259,196.797L558.237,196.798L558.214,196.793L558.204,196.797L558.203,196.81L558.202,196.81L558.201,196.81L558.199,196.81L558.198,196.81L558.198,196.808L558.197,196.807L558.195,196.806L558.194,196.806L558.193,196.806L558.192,196.806L558.191,196.809L558.189,196.82L558.183,196.858L558.182,196.873L558.177,196.891L558.172,196.899L558.17,196.899L558.148,196.902L558.144,196.905L558.131,196.927L558.116,196.941L558.104,196.958L558.094,196.954L558.091,196.96L558.101,196.973L558.112,196.993L558.113,197.002L558.114,197.007L558.115,197.016L558.116,197.021L558.112,197.033L558.11,197.037L558.11,197.043L558.111,197.053L558.105,197.054L558.105,197.061L558.1,197.068L558.097,197.079L558.096,197.086L558.1,197.097L558.087,197.096L558.083,197.103L558.081,197.107L558.083,197.119L558.086,197.125L558.089,197.139L558.093,197.142L558.099,197.14L558.104,197.14L558.103,197.152L558.102,197.164L558.106,197.181L558.116,197.188L558.13,197.185L558.159,197.17L558.162,197.169L558.165,197.162L558.168,197.16L558.172,197.162L558.176,197.168L558.188,197.175L558.199,197.178L558.206,197.179L558.207,197.183L558.208,197.185L558.215,197.186L558.237,197.192L558.25,197.192L558.26,197.194L558.263,197.194L558.267,197.195L558.271,197.192L558.273,197.193L558.275,197.192L558.278,197.191L558.272,197.203L558.269,197.209L558.265,197.216L558.262,197.221L558.262,197.224L558.268,197.228L558.272,197.23L558.274,197.228L558.279,197.228L558.284,197.225L558.288,197.225L558.293,197.223L558.295,197.223L558.298,197.223L558.302,197.224L558.31,197.23L558.313,197.232L558.317,197.234L558.322,197.237L558.327,197.24L558.329,197.243L558.331,197.246L558.335,197.245L558.339,197.245L558.343,197.245L558.348,197.244L558.351,197.242L558.355,197.24L558.358,197.239L558.36,197.239L558.364,197.239L558.37,197.24L558.381,197.239L558.389,197.241L558.388,197.244L558.388,197.247L558.387,197.249L558.387,197.252L558.387,197.253L558.387,197.255L558.386,197.261L558.384,197.266L558.384,197.272L558.383,197.278L558.384,197.286L558.384,197.293L558.385,197.296L558.388,197.298L558.389,197.299L558.391,197.301L558.394,197.306L558.396,197.312L558.396,197.314L558.397,197.315L558.399,197.316L558.4,197.317L558.402,197.318L558.407,197.318L558.412,197.318L558.417,197.319L558.427,197.318L558.428,197.316L558.436,197.314L558.439,197.316L558.443,197.316L558.445,197.316L558.444,197.312L558.443,197.312L558.442,197.309L558.44,197.31L558.438,197.305L558.439,197.299L558.441,197.294L558.447,197.291L558.449,197.29L558.451,197.287L558.451,197.284L558.451,197.282L558.452,197.282L558.456,197.284L558.461,197.284L558.465,197.286L558.471,197.29L558.476,197.29L558.475,197.288L558.472,197.286L558.472,197.281L558.483,197.282L558.492,197.28L558.502,197.28L558.509,197.281L558.509,197.279L558.504,197.277L558.493,197.277L558.486,197.279L558.48,197.279L558.479,197.277L558.489,197.276L558.499,197.275L558.509,197.277L558.523,197.282L558.527,197.278L558.532,197.279L558.538,197.281L558.546,197.281L558.552,197.275L558.558,197.273L558.562,197.276L558.567,197.275L558.572,197.27L558.576,197.271L558.58,197.275L558.586,197.276L558.596,197.263L558.589,197.25L558.592,197.246L558.596,197.24L558.595,197.234L558.616,197.223L558.618,197.227L558.622,197.236L558.624,197.241L558.625,197.244L558.629,197.242L558.63,197.244L558.641,197.24L558.644,197.241L558.655,197.251L558.661,197.229L558.662,197.226L558.649,197.208L558.657,197.204L558.661,197.199L558.668,197.179L558.669,197.171L558.671,197.17L558.673,197.166L558.67,197.167L558.67,197.161L558.675,197.157L558.682,197.156L558.693,197.159L558.698,197.16L558.698,197.161L558.702,197.162L558.704,197.164L558.707,197.166L558.712,197.168L558.717,197.168L558.717,197.171L558.718,197.173L558.722,197.173L558.725,197.172L558.726,197.171L558.726,197.169L558.724,197.166L558.723,197.164L558.723,197.161L558.725,197.158L558.725,197.155L558.726,197.153L558.729,197.151L558.741,197.149L558.746,197.144L558.754,197.142L558.756,197.14L558.756,197.141L558.755,197.143L558.75,197.144L558.746,197.146L558.742,197.15L558.729,197.152L558.727,197.154L558.725,197.165L558.727,197.168L558.728,197.167L558.729,197.168L558.73,197.168L558.733,197.168L558.733,197.169L558.734,197.17L558.736,197.17L558.741,197.169L558.743,197.168L558.751,197.165L558.754,197.165L558.756,197.164L558.762,197.162L558.763,197.166L558.763,197.168L558.766,197.165L558.77,197.162L558.768,197.16L558.762,197.156L558.76,197.154L558.768,197.148L558.775,197.143L558.778,197.141L558.779,197.141L558.78,197.139L558.782,197.14L558.792,197.144L558.792,197.144L558.798,197.14L558.804,197.13L558.803,197.128L558.801,197.13L558.8,197.128L558.801,197.125L558.797,197.124L558.793,197.124L558.791,197.121L558.794,197.119L558.804,197.124L558.808,197.127L558.81,197.126L558.812,197.119L558.815,197.119L558.813,197.129L558.825,197.139L558.829,197.139L558.836,197.147L558.839,197.147L558.841,197.155L558.848,197.159L558.857,197.164L558.863,197.166L558.867,197.17L558.875,197.175L558.879,197.18L558.88,197.181L558.885,197.181L558.887,197.181L558.887,197.181L558.891,197.181L558.896,197.181L558.9,197.18L558.901,197.18L558.901,197.179L558.9,197.176L558.898,197.173L558.901,197.172L558.904,197.17L558.905,197.169L558.906,197.168L558.91,197.169L558.915,197.17L558.92,197.172L558.924,197.172L558.933,197.171L558.935,197.171L558.936,197.176L558.953,197.173L558.961,197.175L558.967,197.173L558.973,197.169L558.974,197.169L558.977,197.173L558.979,197.173L558.982,197.173L558.986,197.173L559.003,197.172L559.003,197.167L559.007,197.167L559.025,197.159L559.025,197.158L559.021,197.158L559.018,197.158L559.014,197.159L559.01,197.159L559.006,197.161L559.006,197.16L559.007,197.159L559.023,197.155L559.029,197.153L559.03,197.144L559.022,197.143L559.022,197.141L559.029,197.14L559.026,197.137L559.026,197.133L559.02,197.134L559.018,197.133L559.022,197.132L559.029,197.131L559.028,197.129L559.022,197.125L559.019,197.125L559.013,197.124L559.005,197.126L559.006,197.132L559.002,197.135L559,197.133L558.995,197.135L558.992,197.13L558.99,197.124L558.991,197.124L558.992,197.124L558.993,197.122L558.998,197.116L559.009,197.118L559.014,197.118L559.012,197.115L559.016,197.115L559.027,197.116L559.025,197.111L559.026,197.107L559.023,197.1L559.018,197.092L559.019,197.085L559.022,197.08L559.023,197.072L559.027,197.07L559.026,197.063L559.027,197.056L559.031,197.051L559.05,197.052L559.052,197.05L559.054,197.042L559.049,197.04L559.05,197.037L559.051,197.034L559.052,197.034L559.052,197.028L559.055,197.028L559.064,197.029L559.064,197.027L559.067,197.019L559.067,197.016L559.07,197.016L559.072,197.016L559.078,197.016L559.084,197.016L559.093,197.015L559.093,197.029L559.096,197.031L559.103,197.031L559.112,197.037L559.128,197.047L559.136,197.044L559.149,197.042L559.157,197.043L559.162,197.034L559.164,197.032L559.178,197.032L559.193,197.032L559.208,197.031L559.21,197.028L559.221,197.028L559.225,197.017L559.228,197.004L559.236,196.978L559.242,196.98L559.266,196.986L559.283,196.99L559.287,196.989L559.29,196.987L559.314,196.987L559.318,196.988L559.332,196.988L559.333,196.998L559.337,196.998L559.344,196.999L559.339,197.032L559.335,197.036L559.342,197.05L559.336,197.068L559.334,197.072L559.333,197.085L559.333,197.089L559.331,197.098L559.331,197.101L559.331,197.104L559.33,197.115L559.33,197.121L559.33,197.127L559.33,197.13L559.329,197.132L559.328,197.139L559.326,197.146L559.328,197.146L559.341,197.151L559.361,197.158L559.362,197.161L559.362,197.164L559.37,197.171L559.378,197.177L559.384,197.189L559.39,197.199L559.383,197.205L559.386,197.209L559.383,197.212L559.383,197.219L559.389,197.22L559.392,197.226L559.397,197.239L559.401,197.242L559.404,197.242L559.408,197.25L559.413,197.249L559.418,197.252L559.422,197.253L559.425,197.257L559.428,197.258L559.429,197.261L559.431,197.261L559.434,197.272L559.437,197.277L559.441,197.28L559.442,197.285L559.442,197.29L559.445,197.292L559.448,197.295L559.447,197.296L559.445,197.298L559.445,197.3L559.445,197.303L559.449,197.307L559.451,197.31L559.452,197.313L559.451,197.317L559.452,197.318L559.453,197.319L559.453,197.321L559.451,197.322L559.449,197.329L559.445,197.33L559.441,197.339L559.442,197.344L559.44,197.349L559.438,197.351L559.436,197.359L559.433,197.365L559.437,197.367L559.436,197.37L559.434,197.374L559.435,197.382L559.433,197.389L559.427,197.39L559.425,197.396L559.423,197.397L559.42,197.4L559.417,197.403L559.414,197.404L559.413,197.411L559.417,197.424L559.419,197.429L559.418,197.434L559.409,197.444L559.404,197.453L559.402,197.468L559.403,197.492L559.404,197.496L559.407,197.498L559.406,197.503L559.407,197.505L559.409,197.507L559.413,197.511L559.415,197.513L559.417,197.516L559.42,197.517L559.424,197.518L559.436,197.513L559.434,197.511L559.443,197.506L559.449,197.509L559.459,197.505L559.469,197.504L559.473,197.505L559.478,197.508L559.48,197.511L559.485,197.511L559.486,197.507L559.489,197.506L559.489,197.501L559.497,197.503L559.504,197.494L559.514,197.491L559.518,197.494L559.521,197.497L559.528,197.494L559.529,197.487L559.537,197.482L559.54,197.474L559.545,197.473L559.548,197.469L559.553,197.468L559.558,197.462L559.564,197.463L559.566,197.466L559.571,197.466L559.571,197.461L559.572,197.462L559.574,197.457L559.578,197.458L559.579,197.453L559.585,197.448L559.586,197.444L559.594,197.437L559.601,197.434L559.606,197.439L559.61,197.437L559.607,197.429L559.61,197.424L559.617,197.424L559.622,197.423L559.625,197.419L559.625,197.415L559.627,197.409L559.629,197.409L559.63,197.408L559.631,197.409L559.633,197.408L559.635,197.406L559.635,197.405L559.636,197.404L559.635,197.402L559.635,197.401L559.638,197.4L559.639,197.4L559.639,197.403L559.639,197.404L559.639,197.405L559.641,197.406L559.643,197.405L559.644,197.403L559.642,197.4L559.643,197.399L559.646,197.399L559.65,197.398L559.654,197.394L559.655,197.397L559.655,197.394L559.657,197.394L559.658,197.394L559.659,197.395L559.659,197.396L559.66,197.396L559.66,197.397L559.661,197.397L559.664,197.395L559.664,197.391L559.664,197.39L559.667,197.384L559.67,197.385L559.672,197.388L559.673,197.387L559.676,197.387L559.677,197.386L559.681,197.387L559.682,197.385L559.682,197.383L559.683,197.382L559.685,197.381L559.686,197.38L559.687,197.38L559.686,197.376L559.685,197.374L559.683,197.372L559.685,197.37L559.689,197.37L559.692,197.368L559.696,197.371L559.7,197.373L559.707,197.376L559.712,197.381L559.718,197.38L559.722,197.381L559.724,197.38L559.726,197.382L559.729,197.382L559.733,197.381L559.737,197.381L559.739,197.379L559.74,197.38L559.742,197.38L559.743,197.378L559.749,197.383L559.753,197.38L559.755,197.38L559.759,197.382L559.761,197.384L559.766,197.381L559.768,197.378L559.769,197.375L559.773,197.371L559.78,197.374L559.782,197.377L559.794,197.383L559.801,197.385L559.804,197.388L559.808,197.389L559.811,197.395L559.812,197.398L559.817,197.4L559.823,197.406L559.828,197.421L559.834,197.42L559.839,197.421L559.841,197.422L559.844,197.421L559.848,197.423L559.856,197.429L559.86,197.432L559.861,197.431L559.863,197.43L559.865,197.429L559.868,197.433L559.875,197.429L559.882,197.427L559.886,197.429L559.889,197.432L559.9,197.433L559.907,197.434L559.909,197.436L559.913,197.434L559.919,197.434L559.922,197.426L559.926,197.422L559.929,197.417L559.933,197.418L559.936,197.419L559.942,197.414L559.948,197.411L559.959,197.395L559.958,197.391L559.955,197.387L559.961,197.385L559.969,197.382L559.969,197.376L559.97,197.377L559.972,197.379L559.977,197.375L559.986,197.372L559.987,197.371L559.99,197.367L559.997,197.367L560,197.364L560.005,197.364L560.004,197.36L560.002,197.355L560.003,197.35L560.006,197.346L560.012,197.344L560.016,197.345L560.025,197.342L560.032,197.341L560.044,197.346L560.051,197.344L560.058,197.339L560.062,197.339L560.07,197.33L560.076,197.319L560.087,197.325L560.096,197.324L560.104,197.322L560.116,197.321L560.123,197.324L560.133,197.322L560.139,197.323L560.146,197.32L560.155,197.321L560.163,197.321L560.171,197.321L560.176,197.323L560.181,197.324L560.185,197.329L560.192,197.33L560.202,197.338L560.206,197.341L560.211,197.34L560.215,197.342L560.227,197.321L560.255,197.304L560.258,197.29L560.289,197.278L560.291,197.291L560.307,197.295L560.309,197.296L560.315,197.298L560.322,197.289L560.332,197.273L560.345,197.264L560.356,197.256L560.368,197.224L560.37,197.219L560.389,197.21L560.403,197.205L560.431,197.19L560.451,197.179L560.46,197.173L560.471,197.168L560.486,197.162L560.499,197.153L560.511,197.169L560.516,197.164L560.533,197.154L560.538,197.151L560.549,197.166L560.552,197.178L560.552,197.189L560.566,197.183L560.596,197.175L560.616,197.193L560.646,197.214L560.659,197.222L560.661,197.224L560.661,197.226L560.661,197.228L560.667,197.232L560.672,197.238L560.677,197.241L560.686,197.251L560.69,197.251L560.693,197.252L560.699,197.259L560.709,197.276L560.71,197.279L560.711,197.28L560.718,197.288L560.723,197.296L560.735,197.312L560.738,197.33L560.741,197.345L560.75,197.362L560.758,197.378L560.764,197.392L560.778,197.42L560.786,197.44L560.803,197.442L560.811,197.462L560.818,197.463L560.827,197.487L560.814,197.503L560.81,197.505L560.811,197.509L560.813,197.52L560.816,197.534L560.825,197.553L560.827,197.558L560.839,197.561L560.845,197.564L560.859,197.571L560.865,197.578L560.87,197.586L560.873,197.592L560.935,197.611L560.941,197.612L560.945,197.608L560.953,197.596L560.958,197.59L560.972,197.596L560.992,197.609L560.999,197.613L561,197.608L561.015,197.602L561.016,197.606L561.017,197.612L561.022,197.613L561.028,197.611L561.03,197.608L561.036,197.612L561.042,197.615L561.05,197.619L561.061,197.622L561.068,197.626L561.072,197.631L561.077,197.632L561.075,197.635L561.075,197.635L561.068,197.638L561.065,197.643L561.064,197.649L561.065,197.654L561.059,197.663L561.062,197.671L561.063,197.678L561.063,197.679L561.065,197.684L561.067,197.689L561.071,197.688L561.073,197.689L561.079,197.694L561.082,197.698L561.085,197.699L561.089,197.699L561.094,197.701L561.097,197.706L561.101,197.712L561.108,197.71L561.113,197.711L561.137,197.702L561.145,197.699L561.168,197.704L561.19,197.713L561.197,197.705L561.201,197.708L561.211,197.709L561.22,197.72L561.225,197.723L561.229,197.723L561.231,197.723L561.237,197.722L561.243,197.72L561.246,197.717L561.252,197.715L561.256,197.717L561.266,197.722L561.27,197.731L561.268,197.734L561.277,197.745L561.287,197.752L561.29,197.757L561.286,197.765L561.285,197.778L561.289,197.788L561.293,197.793L561.297,197.797L561.295,197.804L561.297,197.806L561.299,197.807L561.297,197.814L561.296,197.817L561.305,197.823L561.306,197.825L561.308,197.828L561.313,197.836L561.32,197.843L561.325,197.844L561.325,197.844L561.331,197.847L561.34,197.853L561.354,197.852L561.36,197.856L561.367,197.861L561.379,197.864L561.387,197.866L561.396,197.867L561.392,197.869L561.401,197.878L561.406,197.881L561.414,197.886L561.427,197.881L561.44,197.878L561.455,197.877L561.471,197.876L561.47,197.884L561.487,197.886L561.503,197.893L561.519,197.9L561.519,197.897L561.523,197.897L561.525,197.893L561.528,197.893L561.532,197.889L561.535,197.891L561.533,197.895L561.54,197.899L561.548,197.902L561.549,197.9L561.556,197.9L561.562,197.905L561.56,197.912L561.567,197.914L561.56,197.931L561.573,197.937L561.6,197.948L561.595,197.94L561.61,197.941L561.633,197.942L561.638,197.935L561.647,197.928L561.649,197.92L561.653,197.916L561.656,197.898L561.666,197.894L561.692,197.889L561.694,197.897L561.723,197.891L561.729,197.917L561.723,197.929L561.712,197.948L561.725,197.953L561.729,197.96L561.738,197.975L561.74,197.977L561.741,197.977L561.749,197.98L561.756,197.981L561.779,197.989L561.791,197.988L561.795,197.984L561.803,197.97L561.801,197.962L561.818,197.941L561.824,197.932L561.837,197.948L561.851,197.964L561.859,197.974L561.869,197.976L561.883,197.981L561.9,197.985L561.913,197.986L561.921,197.985L561.949,197.97L561.983,197.952L561.988,197.955L561.99,197.956L562.001,197.964L562.005,197.963L562.012,197.965L562.01,197.982L562.009,197.995L562.001,198.015L561.998,198.027L561.992,198.039L561.981,198.054L561.967,198.066L561.963,198.076L561.973,198.081L561.98,198.085L561.982,198.09L561.982,198.092L561.981,198.093L561.983,198.095L561.984,198.095L561.987,198.095L561.99,198.095L561.993,198.095L561.999,198.098L562.004,198.105L562.012,198.109L562.024,198.121L562.028,198.123L562.03,198.126L562.037,198.13L562.041,198.13L562.05,198.133L562.053,198.133L562.057,198.137L562.061,198.139L562.064,198.146L562.068,198.144L562.073,198.146L562.082,198.146L562.088,198.151L562.093,198.149L562.098,198.151L562.103,198.148L562.105,198.155L562.112,198.161L562.12,198.163L562.123,198.169L562.123,198.173L562.119,198.178L562.12,198.179L562.126,198.179L562.125,198.183L562.134,198.184L562.138,198.184L562.141,198.177L562.146,198.174L562.147,198.169L562.146,198.165L562.151,198.166L562.152,198.163L562.155,198.16L562.156,198.154L562.162,198.15L562.164,198.153L562.166,198.153L562.168,198.149L562.171,198.15L562.176,198.149L562.182,198.15L562.18,198.158L562.183,198.16L562.184,198.162L562.183,198.164L562.181,198.167L562.184,198.169L562.186,198.166L562.189,198.166L562.188,198.169L562.186,198.172L562.19,198.175L562.193,198.175L562.197,198.171L562.198,198.163L562.216,198.167L562.23,198.21L562.242,198.245L562.269,198.278L562.292,198.307L562.312,198.332L562.326,198.34L562.354,198.353L562.376,198.365L562.385,198.356L562.396,198.348L562.403,198.344L562.413,198.337L562.436,198.317L562.462,198.297L562.469,198.292L562.472,198.289L562.497,198.196L562.513,198.144L562.53,198.148L562.533,198.149L562.561,198.154L562.564,198.155L562.592,198.16L562.599,198.162L562.621,198.166L562.625,198.166L562.631,198.167L562.654,198.171L562.706,198.181L562.708,198.183L562.71,198.184L562.713,198.186L562.714,198.189L562.714,198.193L562.713,198.197L562.715,198.197L562.716,198.199L562.718,198.199L562.719,198.198L562.72,198.198L562.721,198.199L562.724,198.202L562.725,198.203L562.726,198.202L562.728,198.206L562.727,198.21L562.727,198.214L562.728,198.217L562.73,198.218L562.732,198.221L562.732,198.223L562.736,198.225L562.736,198.227L562.738,198.227L562.739,198.23L562.751,198.235L562.759,198.236L562.768,198.24L562.772,198.241L562.774,198.245L562.779,198.244L562.782,198.246L562.785,198.247L562.789,198.247L562.791,198.252L562.8,198.257L562.807,198.254L562.813,198.255L562.82,198.259L562.829,198.259L562.832,198.261L562.835,198.267L562.837,198.268L562.841,198.267L562.847,198.27L562.85,198.27L562.854,198.262L562.856,198.262L562.859,198.253L562.865,198.252L562.869,198.252L562.87,198.248L562.868,198.247L562.868,198.246L562.869,198.247L562.87,198.247L562.871,198.245L562.873,198.244L562.872,198.241L562.871,198.239L562.869,198.236L562.867,198.235L562.865,198.234L562.864,198.231L562.863,198.225L562.863,198.224L562.862,198.22L562.862,198.216L562.862,198.208L562.862,198.202L562.862,198.2L562.864,198.198L562.866,198.196L562.868,198.196L562.87,198.194L562.872,198.192L562.874,198.188L562.875,198.186L562.88,198.184L562.885,198.183L562.887,198.182L562.888,198.181L562.892,198.181L562.895,198.181L562.896,198.18L562.896,198.18L562.896,198.178L562.896,198.174L562.897,198.173L562.896,198.17L562.896,198.168L562.897,198.166L562.897,198.165L562.896,198.159L562.896,198.158L562.897,198.154L562.898,198.15L562.897,198.145L562.897,198.141L562.897,198.137L562.897,198.137L562.897,198.137L562.897,198.137L562.897,198.132L562.897,198.127L562.899,198.124L562.898,198.122L562.899,198.119L562.9,198.118L562.9,198.118L562.902,198.118L562.902,198.118L562.902,198.119L562.903,198.119L562.903,198.12L562.904,198.121L562.905,198.123L562.908,198.124L562.913,198.124L562.92,198.128L562.923,198.128L562.924,198.127L562.924,198.125L562.928,198.119L562.929,198.118L562.93,198.116L562.93,198.111L562.929,198.107L562.925,198.102L562.924,198.1L562.921,198.096L562.919,198.094L562.919,198.09L562.922,198.081L562.922,198.079L562.92,198.077L562.919,198.076L562.919,198.074L562.919,198.074L562.919,198.073L562.919,198.073L562.92,198.071L562.924,198.07L562.926,198.071L562.928,198.069L562.928,198.067L562.927,198.064L562.927,198.064L562.926,198.061L562.922,198.06L562.919,198.058L562.916,198.055L562.915,198.047L562.917,198.04L562.916,198.034L562.917,198.032L562.92,198.03L562.924,198.031L562.927,198.033L562.929,198.036L562.929,198.037L562.931,198.036L562.932,198.037L562.933,198.039L562.934,198.041L562.936,198.042L562.937,198.045L562.941,198.047L562.945,198.045L562.946,198.044L562.947,198.043L562.947,198.041L562.948,198.038L562.95,198.036L562.951,198.035L562.952,198.032L562.953,198.029L562.95,198.022L562.95,198.022L562.948,198.02L562.946,198.019L562.946,198.018L562.945,198.018L562.945,198.018L562.945,198.018L562.945,198.018L562.945,198.018L562.945,198.018L562.944,198.018L562.944,198.018L562.944,198.017L562.943,198.017L562.943,198.017L562.942,198.017L562.942,198.017L562.941,198.016L562.941,198.016L562.94,198.015L562.94,198.015L562.935,198.014L562.934,198.012L562.933,198.01L562.933,198.009L562.934,198.007L562.933,198.006L562.932,198.005L562.931,198.003L562.931,197.992L562.932,197.987L562.933,197.985L562.934,197.985L562.934,197.984L562.935,197.981L562.938,197.975L562.942,197.97L562.947,197.968L562.947,197.968L562.949,197.968L562.951,197.965L562.951,197.963L562.951,197.962L562.95,197.961L562.95,197.956L562.95,197.952L562.95,197.95L562.949,197.949L562.949,197.948L562.949,197.946L562.949,197.941L562.952,197.935L562.951,197.932L562.95,197.931L562.949,197.93L562.948,197.931L562.947,197.932L562.945,197.933L562.943,197.933L562.941,197.932L562.941,197.931L562.942,197.928L562.944,197.926L562.948,197.924L562.949,197.922L562.949,197.92L562.95,197.919L562.952,197.919L562.954,197.922L562.955,197.922L562.956,197.925L562.96,197.928L562.964,197.929L562.968,197.929L562.972,197.929L562.975,197.93L562.977,197.93L562.977,197.929L562.978,197.927L562.979,197.925L562.979,197.925L562.98,197.924L562.98,197.923L562.98,197.922L562.98,197.922L562.98,197.921L562.98,197.919L562.98,197.917L562.978,197.906L562.978,197.905L562.976,197.9L562.976,197.898L562.975,197.894L562.973,197.892L562.972,197.891L562.972,197.889L562.971,197.887L562.969,197.883L562.967,197.881L562.966,197.879L562.965,197.874L562.966,197.872L562.969,197.868L562.971,197.865L562.974,197.863L562.976,197.862L562.982,197.862L562.983,197.862L562.984,197.862L562.986,197.862L562.989,197.862L562.992,197.862L562.994,197.862L562.998,197.856L562.998,197.856L562.998,197.854L562.998,197.854L562.999,197.851L562.998,197.85L562.997,197.85L562.995,197.847L562.993,197.845L562.992,197.845L562.991,197.845L562.988,197.842L562.987,197.84L562.985,197.837L562.984,197.835L562.983,197.833L562.983,197.825L562.983,197.822L562.983,197.819L562.984,197.812L562.987,197.806L562.987,197.802L562.985,197.8L562.985,197.799L562.985,197.797L562.988,197.793L562.988,197.792L562.987,197.791L562.986,197.788L562.985,197.786L562.98,197.782L562.976,197.781L562.971,197.781L562.963,197.783L562.959,197.784L562.956,197.786L562.955,197.789L562.954,197.789L562.953,197.79L562.952,197.79L562.951,197.79L562.951,197.789L562.95,197.788L562.949,197.787L562.95,197.786L562.949,197.785L562.95,197.784L562.949,197.783L562.947,197.782L562.946,197.781L562.942,197.777L562.939,197.773L562.94,197.772L562.939,197.77L562.936,197.766L562.935,197.763L562.934,197.761L562.935,197.759L562.934,197.758L562.934,197.756L562.934,197.754L562.933,197.753L562.933,197.751L562.934,197.747L562.938,197.743L562.942,197.741L562.945,197.74L562.946,197.74L562.947,197.74L562.949,197.739L562.949,197.738L562.951,197.738L562.954,197.738L562.957,197.737L562.959,197.735L562.96,197.734L562.962,197.733L562.966,197.734L562.97,197.733L562.974,197.731L562.978,197.724L562.98,197.714L563.001,197.729L563.039,197.676L563.046,197.67L563.049,197.645L563.062,197.645L563.063,197.645L563.06,197.633L563.066,197.622L563.085,197.61L563.109,197.612L563.138,197.628L563.145,197.571L563.176,197.556L563.196,197.547L563.233,197.534L563.242,197.529L563.25,197.519L563.261,197.512L563.307,197.503L563.335,197.534L563.354,197.546L563.38,197.518L563.385,197.52L563.399,197.524L563.409,197.496L563.402,197.496L563.4,197.495L563.398,197.494L563.392,197.493L563.391,197.492L563.391,197.491L563.391,197.49L563.392,197.485L563.392,197.484L563.393,197.484L563.394,197.482L563.395,197.481L563.396,197.481L563.399,197.48L563.402,197.48L563.405,197.479L563.408,197.478L563.411,197.476L563.414,197.474L563.415,197.472L563.416,197.469L563.418,197.466L563.418,197.464L563.418,197.462L563.42,197.457L563.42,197.456L563.42,197.456L563.42,197.454L563.417,197.453L563.411,197.452L563.402,197.451L563.401,197.452L563.394,197.45L563.386,197.445L563.385,197.444L563.378,197.441L563.374,197.44L563.373,197.44L563.371,197.439L563.368,197.436L563.365,197.436L563.359,197.431L563.359,197.43L563.356,197.429L563.354,197.425L563.354,197.423L563.358,197.419L563.363,197.415L563.365,197.416L563.368,197.415L563.37,197.414L563.371,197.415L563.374,197.414L563.376,197.413L563.379,197.41L563.383,197.409L563.389,197.407L563.393,197.404L563.396,197.402L563.399,197.398L563.401,197.396L563.405,197.394L563.408,197.392L563.408,197.391L563.41,197.391L563.411,197.39L563.412,197.39L563.413,197.389L563.42,197.385L563.422,197.384L563.424,197.383L563.427,197.382L563.43,197.381L563.431,197.38L563.431,197.379L563.431,197.377L563.431,197.373L563.429,197.369L563.427,197.365L563.423,197.361L563.422,197.359L563.42,197.359L563.418,197.357L563.416,197.353L563.413,197.348L563.411,197.342L563.411,197.338L563.411,197.336L563.409,197.334L563.408,197.332L563.408,197.329L563.408,197.327L563.408,197.324L563.408,197.322L563.408,197.319L563.407,197.312L563.408,197.31L563.411,197.308L563.418,197.306L563.421,197.305L563.426,197.302L563.43,197.299L563.436,197.296L563.436,197.295L563.445,197.292L563.443,197.288L563.44,197.285L563.435,197.277L563.43,197.268L563.427,197.267L563.412,197.263L563.41,197.263L563.404,197.262L563.377,197.254L563.367,197.249L563.35,197.237L563.327,197.208L563.323,197.194L563.32,197.181L563.313,197.147L563.315,197.14L563.321,197.1L563.322,197.097L563.323,197.093L563.318,197.091L563.317,197.09L563.316,197.092L563.312,197.094L563.301,197.094L563.291,197.093L563.283,197.094L563.276,197.095L563.27,197.097L563.262,197.101L563.261,197.102L563.261,197.102L563.259,197.103L563.259,197.104L563.259,197.106L563.259,197.111L563.263,197.119L563.263,197.122L563.265,197.126L563.265,197.129L563.262,197.127L563.254,197.124L563.242,197.118L563.223,197.101L563.218,197.092L563.217,197.092L563.214,197.093L563.211,197.09L563.201,197.078L563.2,197.078L563.193,197.07L563.193,197.069L563.192,197.068L563.187,197.064L563.151,197.024L563.149,197.026L563.148,197.024L563.144,197.017L563.139,197.006L563.138,197.004L563.138,197.002L563.15,196.998L563.155,196.999L563.155,196.997L563.155,196.985L563.159,196.982L563.164,196.981L563.169,196.982L563.168,196.992L563.17,196.995L563.172,196.98L563.222,196.975L563.221,196.959L563.224,196.933L563.219,196.931L563.22,196.922L563.223,196.916L563.221,196.913L563.222,196.909L563.218,196.904L563.215,196.902L563.206,196.899L563.172,196.888L563.169,196.89L563.166,196.894L563.166,196.899L563.166,196.9L563.166,196.901L563.165,196.905L563.162,196.904L563.161,196.896L563.155,196.889L563.155,196.881L563.159,196.88L563.159,196.878L563.153,196.871L563.144,196.869L563.139,196.867L563.134,196.866L563.131,196.865L563.123,196.87L563.117,196.867L563.108,196.862L563.099,196.856L563.097,196.855L563.096,196.854L563.095,196.853L563.084,196.847L563.061,196.843L563.058,196.848L563.058,196.852L563.045,196.852L563.042,196.852L563.021,196.852L563.02,196.852L563.019,196.848L563.021,196.845L563.022,196.837L562.983,196.835L562.984,196.834L562.987,196.822L562.987,196.821L562.993,196.822L562.999,196.822L563.001,196.812L563.003,196.8L563.005,196.791L563.005,196.79L563.004,196.786L563.017,196.786L563.021,196.785L563.024,196.782L563.025,196.779L563.026,196.778L563.029,196.778L563.034,196.777L563.041,196.775L563.041,196.774L563.041,196.774L563.04,196.77L563.038,196.764L563.034,196.749L563.041,196.745L563.045,196.744L563.051,196.746L563.054,196.75L563.063,196.751L563.089,196.74L563.1,196.729L563.096,196.724L563.086,196.712L563.08,196.71L563.076,196.681L563.038,196.703L563.038,196.702L563.036,196.698L563.028,196.676L563.027,196.663L563.035,196.658L563.017,196.622L563.007,196.625L563.003,196.626L562.998,196.628L562.998,196.628L562.996,196.628L562.985,196.632L562.978,196.635L562.962,196.591L562.959,196.582L562.887,196.571L562.886,196.571L562.87,196.568L562.87,196.567L562.87,196.56L562.87,196.554L562.877,196.53L562.884,196.526L562.894,196.543L562.905,196.551L562.912,196.546L562.951,196.518L562.948,196.509L562.95,196.502L562.955,196.496L562.956,196.495L562.977,196.473L562.99,196.487L562.997,196.481L563.008,196.493L563.023,196.478L563.04,196.466L563.036,196.452L563.032,196.438L563.032,196.436L563.037,196.431L563.038,196.43L563.044,196.397L563.014,196.398L562.99,196.398L562.989,196.386L562.991,196.38L563,196.377L563.009,196.378L563.009,196.373L563.016,196.371L563.035,196.353L563.035,196.34L563.032,196.336L563.028,196.331L563.019,196.321L563.034,196.309L563.024,196.288L563.015,196.269L563.015,196.26L563.017,196.257L563.043,196.237L563.043,196.236L563.053,196.226L563.054,196.224L563.058,196.221L563.059,196.22L563.067,196.217L563.073,196.215L563.084,196.203L563.085,196.202L563.096,196.19L563.097,196.189L563.098,196.188L563.099,196.187L563.1,196.187L563.101,196.186L563.102,196.186L563.117,196.18L563.118,196.18L563.12,196.179L563.122,196.179L563.15,196.169L563.152,196.168L563.151,196.163L563.149,196.143L563.149,196.143L563.148,196.124L563.15,196.118L563.163,196.111L563.161,196.103L563.156,196.101L563.153,196.09L563.152,196.086L563.152,196.083L563.159,196.078L563.163,196.073L563.165,196.063L563.167,196.056L563.161,196.045L563.16,196.025L563.155,196.01L563.149,196.001L563.141,195.993L563.141,195.987L563.141,195.97L563.141,195.969L563.141,195.964L563.133,195.966L563.127,195.968L563.108,195.959L563.106,195.958L563.085,195.952L563.075,195.946L563.061,195.938L563.064,195.925L563.059,195.92L563.055,195.918L563.048,195.909L563.046,195.906L563.043,195.903L563.006,195.861L563.003,195.857L563.006,195.846L563.023,195.839L563.023,195.839L563.026,195.838L563.037,195.833L563.05,195.827L563.059,195.822L563.071,195.814L563.062,195.803L563.057,195.795L563.057,195.788L563.065,195.787L563.08,195.785L563.097,195.785L563.115,195.777L563.127,195.765L563.118,195.75L563.106,195.746L563.098,195.75L563.094,195.75L563.081,195.738L563.076,195.73L563.074,195.719L563.069,195.715L563.064,195.71L563.078,195.695L563.068,195.68L563.059,195.666L563.061,195.664L563.065,195.665L563.072,195.668L563.074,195.664L563.08,195.647L563.083,195.629L563.073,195.618L563.065,195.607L563.056,195.595L563.056,195.594L563.057,195.594L563.057,195.594L563.056,195.593L563.055,195.594L563.054,195.592L563.054,195.592L563.054,195.59L563.055,195.59L563.056,195.59L563.057,195.59L563.058,195.59L563.058,195.59L563.058,195.589L563.058,195.588L563.06,195.587L563.061,195.587L563.063,195.587L563.065,195.586L563.065,195.587L563.066,195.587L563.066,195.585L563.068,195.584L563.07,195.585L563.072,195.585L563.072,195.584L563.076,195.58L563.076,195.576L563.074,195.57L563.073,195.569L563.072,195.569L563.073,195.566L563.074,195.561L563.077,195.561L563.08,195.558L563.082,195.555L563.084,195.553L563.085,195.552L563.085,195.552L563.086,195.55L563.085,195.54L563.086,195.539L563.088,195.539L563.091,195.535L563.092,195.533L563.094,195.531L563.097,195.523L563.097,195.519L563.096,195.517L563.095,195.517ZM800,0L800,12.246L800,78.668L800,145.789L800,215.835L800,261.497L800,300L800,338.503L800,384.165L800,454.211L800,600L800,600L200,600L200,600L200,454.211L200,384.165L200,338.503L200,300L200,261.497L200,215.835L200,145.789L200,78.668L200,12.246L200,0L200,0L800,0Z"/>
<path d="M560.107,195.532m0,4.5a4.5,4.5 0 1,1 0,-9a4.5,4.5 0 1,1 0,9z"/>
<path d="M560.709,195.895m0,4.5a4.5,4.5 0 1,1 0,-9a4.5,4.5 0 1,1 0,9z"/>
</svg>