<?xml version="1.0" encoding="UTF-8"?>
<svg xmlns="http://www.w3.org/2000/svg" viewBox="0 0 1000 600" stroke="#000" stroke-width="0.3" fill="#ccc">
<path d="M555.311,213.633L554.948,213.759L554.786,213.857L554.621,213.872L554.617,213.875L554.591,213.896L554.566,213.919L554.543,213.943L554.522,213.968L554.504,213.992L554.501,213.994L554.472,214.009L554.443,214.026L554.416,214.044L554.39,214.065L554.365,214.087L554.342,214.111L554.321,214.137L554.315,214.145L554.311,214.147L554.281,214.16L554.251,214.175L554.223,214.192L554.195,214.21L554.169,214.231L554.145,214.253L554.13,214.269L554.123,214.271L554.091,214.279L554.059,214.29L554.029,214.303L553.999,214.318L553.97,214.335L553.943,214.354L553.917,214.374L553.893,214.397L553.87,214.421L553.848,214.446L553.829,214.473L553.811,214.501L553.796,214.531L553.782,214.561L553.774,214.584L553.771,214.587L553.752,214.614L553.734,214.642L553.719,214.671L553.705,214.702L553.694,214.733L553.684,214.765L553.677,214.797L553.672,214.83L553.67,214.863L553.669,214.896L553.671,214.929L553.675,214.962L553.682,214.995L553.69,215.027L553.695,215.042L553.696,215.054L553.7,215.087L553.707,215.12L553.715,215.152L553.726,215.183L553.739,215.214L553.754,215.244L553.771,215.272L553.79,215.299L553.81,215.325L553.833,215.35L553.857,215.373L553.882,215.394L553.909,215.414L553.937,215.431L553.967,215.447L553.997,215.46L554.028,215.472L554.06,215.481L554.092,215.488L554.125,215.493L554.146,215.495L554.165,215.506L554.194,215.522L554.224,215.535L554.255,215.547L554.287,215.556L554.32,215.563L554.353,215.568L554.386,215.571L554.419,215.571L554.452,215.569L554.485,215.565L554.517,215.558L554.55,215.55L554.581,215.539L554.612,215.526L554.634,215.515L554.663,215.505L554.693,215.492L554.719,215.479L554.723,215.489L554.738,215.519L554.755,215.547L554.774,215.574L554.795,215.6L554.817,215.625L554.841,215.648L554.867,215.669L554.893,215.689L554.909,215.698L554.92,215.712L554.942,215.736L554.966,215.759L554.992,215.78L555.018,215.8L555.047,215.817L555.076,215.833L555.106,215.847L555.137,215.858L555.147,215.861L555.166,215.875L555.194,215.892L555.224,215.908L555.237,215.914L555.26,215.926L555.29,215.94L555.322,215.951L555.353,215.961L555.386,215.968L555.419,215.973L555.452,215.975L555.485,215.976L555.485,215.976L555.492,215.975L555.708,216.093L555.924,216.211L555.925,216.211L555.926,216.211L555.927,216.212L555.928,216.212L555.929,216.211L555.932,216.21L555.934,216.209L555.935,216.208L555.936,216.208L555.937,216.209L555.938,216.211L555.94,216.212L555.943,216.214L555.945,216.215L555.945,216.216L555.945,216.216L555.946,216.219L555.946,216.22L555.947,216.224L555.947,216.226L555.949,216.23L555.95,216.233L555.952,216.238L555.953,216.244L555.956,216.25L555.96,216.257L555.961,216.26L555.963,216.264L555.964,216.266L555.967,216.273L555.972,216.28L555.977,216.286L555.978,216.287L555.981,216.286L555.991,216.284L555.997,216.282L556.005,216.281L556.007,216.281L556.01,216.282L556.01,216.282L556.01,216.282L556.011,216.282L556.014,216.283L556.019,216.285L556.019,216.285L556.023,216.286L556.026,216.287L556.028,216.288L556.035,216.29L556.038,216.292L556.044,216.294L556.047,216.295L556.056,216.299L556.062,216.301L556.065,216.302L556.071,216.304L556.08,216.308L556.086,216.31L556.092,216.312L556.098,216.314L556.104,216.317L556.107,216.318L556.11,216.32L556.112,216.321L556.116,216.325L556.12,216.33L556.129,216.338L556.129,216.339L556.129,216.34L556.13,216.343L556.131,216.345L556.131,216.35L556.133,216.355L556.134,216.36L556.135,216.362L556.136,216.367L556.137,216.372L556.138,216.374L556.138,216.375L556.137,216.376L556.134,216.378L556.13,216.38L556.125,216.383L556.117,216.387L556.111,216.39L556.103,216.394L556.098,216.396L556.091,216.4L556.08,216.405L556.075,216.408L556.066,216.412L556.059,216.416L556.054,216.418L556.051,216.419L556.045,216.42L556.039,216.421L556.03,216.423L556.024,216.423L556.023,216.424L556.023,216.426L556.022,216.43L556.023,216.434L556.023,216.438L556.023,216.443L556.024,216.447L556.024,216.448L556.024,216.448L556.025,216.448L556.025,216.448L556.024,216.448L556.023,216.448L556.023,216.448L556.022,216.448L556.022,216.449L556.02,216.449L556.02,216.45L556.019,216.45L556.018,216.452L556.018,216.452L556.018,216.453L556.018,216.454L556.018,216.457L556.018,216.46L556.018,216.461L556.018,216.462L556.018,216.463L556.018,216.463L556.018,216.463L556.018,216.463L556.018,216.463L556.018,216.466L556.018,216.466L556.019,216.47L556.019,216.471L556.024,216.47L556.024,216.472L556.025,216.476L556.025,216.489L556.026,216.49L556.026,216.499L556.027,216.512L556.035,216.51L556.038,216.51L556.042,216.51L556.047,216.51L556.051,216.51L556.056,216.51L556.058,216.51L556.062,216.51L556.069,216.51L556.073,216.509L556.079,216.509L556.082,216.508L556.089,216.508L556.094,216.507L556.098,216.507L556.099,216.507L556.102,216.509L556.104,216.51L556.107,216.512L556.11,216.514L556.113,216.515L556.115,216.516L556.117,216.517L556.118,216.517L556.122,216.517L556.126,216.516L556.13,216.515L556.137,216.514L556.14,216.513L556.144,216.512L556.15,216.511L556.154,216.509L556.158,216.508L556.159,216.507L556.161,216.506L556.163,216.506L556.165,216.506L556.168,216.506L556.17,216.507L556.171,216.509L556.173,216.511L556.178,216.514L556.179,216.515L556.179,216.517L556.178,216.519L556.176,216.519L556.175,216.52L556.175,216.529L556.185,216.528L556.191,216.527L556.193,216.503L556.197,216.503L556.201,216.503L556.207,216.502L556.21,216.502L556.211,216.501L556.213,216.504L556.214,216.506L556.217,216.51L556.219,216.513L556.221,216.517L556.223,216.519L556.225,216.523L556.227,216.525L556.23,216.527L556.233,216.53L556.237,216.533L556.242,216.536L556.244,216.538L556.246,216.539L556.249,216.54L556.252,216.542L556.253,216.543L556.255,216.542L556.258,216.542L556.261,216.541L556.265,216.539L556.267,216.539L556.268,216.537L556.269,216.538L556.273,216.542L556.274,216.543L556.276,216.545L556.275,216.546L556.279,216.545L556.28,216.547L556.282,216.549L556.289,216.557L556.291,216.559L556.292,216.56L556.293,216.562L556.295,216.563L556.293,216.565L556.289,216.57L556.286,216.573L556.284,216.575L556.283,216.577L556.281,216.578L556.28,216.581L556.279,216.582L556.276,216.583L556.274,216.585L556.27,216.588L556.266,216.591L556.265,216.593L556.262,216.596L556.26,216.597L556.258,216.598L556.257,216.601L556.256,216.601L556.256,216.602L556.256,216.606L556.255,216.608L556.255,216.61L556.255,216.611L556.254,216.614L556.255,216.622L556.253,216.625L556.25,216.629L556.248,216.633L556.245,216.636L556.242,216.638L556.238,216.643L556.235,216.646L556.232,216.649L556.228,216.653L556.226,216.655L556.223,216.657L556.222,216.659L556.22,216.661L556.218,216.663L556.217,216.664L556.215,216.666L556.214,216.668L556.214,216.67L556.213,216.672L556.212,216.674L556.212,216.676L556.211,216.677L556.21,216.679L556.209,216.681L556.207,216.682L556.206,216.684L556.205,216.684L556.204,216.684L556.202,216.685L556.201,216.686L556.199,216.686L556.197,216.686L556.196,216.687L556.196,216.688L556.196,216.691L556.195,216.692L556.195,216.694L556.195,216.696L556.195,216.697L556.196,216.697L556.197,216.697L556.199,216.698L556.2,216.698L556.201,216.698L556.201,216.699L556.203,216.7L556.203,216.701L556.201,216.705L556.199,216.71L556.198,216.711L556.198,216.713L556.197,216.714L556.197,216.715L556.196,216.716L556.196,216.718L556.196,216.719L556.195,216.72L556.195,216.721L556.194,216.723L556.194,216.726L556.194,216.727L556.195,216.728L556.197,216.731L556.198,216.732L556.198,216.733L556.199,216.734L556.2,216.735L556.201,216.736L556.201,216.738L556.202,216.739L556.203,216.74L556.204,216.741L556.204,216.742L556.205,216.742L556.205,216.743L556.207,216.746L556.207,216.748L556.209,216.749L556.21,216.752L556.212,216.755L556.214,216.761L556.214,216.764L556.222,216.769L556.225,216.771L556.226,216.772L556.228,216.771L556.23,216.768L556.232,216.766L556.235,216.764L556.237,216.762L556.238,216.761L556.241,216.76L556.243,216.759L556.247,216.757L556.249,216.756L556.253,216.755L556.255,216.755L556.257,216.754L556.259,216.754L556.26,216.754L556.264,216.755L556.267,216.754L556.269,216.754L556.27,216.754L556.271,216.753L556.274,216.753L556.275,216.753L556.277,216.753L556.28,216.751L556.282,216.75L556.283,216.75L556.286,216.749L556.29,216.747L556.291,216.747L556.295,216.746L556.298,216.745L556.299,216.744L556.3,216.744L556.301,216.746L556.302,216.748L556.303,216.752L556.304,216.753L556.304,216.756L556.304,216.758L556.305,216.761L556.305,216.764L556.305,216.767L556.303,216.769L556.303,216.77L556.303,216.772L556.302,216.775L556.303,216.777L556.303,216.779L556.303,216.781L556.304,216.785L556.305,216.787L556.306,216.79L556.307,216.793L556.309,216.797L556.311,216.799L556.311,216.801L556.312,216.803L556.312,216.805L556.312,216.808L556.312,216.808L556.314,216.809L556.315,216.809L556.316,216.809L556.317,216.81L556.318,216.81L556.319,216.81L556.32,216.81L556.32,216.811L556.32,216.812L556.32,216.812L556.321,216.813L556.321,216.814L556.322,216.815L556.323,216.816L556.323,216.817L556.323,216.818L556.324,216.818L556.325,216.82L556.325,216.821L556.327,216.82L556.328,216.819L556.329,216.819L556.33,216.818L556.331,216.818L556.332,216.817L556.333,216.818L556.334,216.818L556.334,216.818L556.335,216.819L556.335,216.82L556.336,216.82L556.337,216.822L556.338,216.824L556.34,216.827L556.341,216.828L556.341,216.829L556.341,216.83L556.342,216.831L556.342,216.831L556.342,216.832L556.343,216.832L556.344,216.832L556.345,216.832L556.345,216.832L556.345,216.83L556.345,216.829L556.345,216.829L556.346,216.829L556.347,216.828L556.349,216.828L556.349,216.828L556.349,216.83L556.35,216.831L556.35,216.833L556.35,216.834L556.351,216.835L556.351,216.836L556.352,216.836L556.353,216.836L556.353,216.835L556.353,216.834L556.355,216.831L556.356,216.829L556.357,216.828L556.357,216.828L556.359,216.828L556.361,216.828L556.362,216.828L556.363,216.828L556.365,216.828L556.366,216.829L556.368,216.83L556.369,216.831L556.37,216.832L556.371,216.833L556.372,216.834L556.373,216.835L556.374,216.837L556.375,216.838L556.376,216.839L556.377,216.84L556.379,216.842L556.379,216.843L556.378,216.845L556.379,216.848L556.379,216.851L556.379,216.854L556.379,216.856L556.379,216.857L556.379,216.858L556.379,216.859L556.379,216.86L556.379,216.862L556.38,216.863L556.38,216.864L556.381,216.865L556.381,216.865L556.381,216.866L556.381,216.867L556.382,216.867L556.382,216.868L556.382,216.87L556.383,216.871L556.383,216.873L556.383,216.873L556.384,216.874L556.384,216.875L556.384,216.876L556.385,216.879L556.385,216.88L556.386,216.881L556.387,216.884L556.388,216.886L556.389,216.889L556.391,216.892L556.393,216.893L556.395,216.894L556.395,216.897L556.395,216.898L556.394,216.9L556.393,216.903L556.391,216.905L556.39,216.908L556.39,216.909L556.39,216.911L556.391,216.912L556.392,216.912L556.393,216.913L556.394,216.913L556.395,216.914L556.396,216.915L556.398,216.916L556.398,216.917L556.399,216.919L556.4,216.92L556.4,216.921L556.4,216.922L556.401,216.923L556.401,216.927L556.401,216.928L556.401,216.931L556.401,216.933L556.401,216.934L556.401,216.935L556.4,216.936L556.4,216.937L556.401,216.938L556.402,216.938L556.403,216.938L556.405,216.938L556.405,216.938L556.407,216.938L556.409,216.938L556.414,216.937L556.415,216.937L556.416,216.937L556.417,216.938L556.418,216.938L556.419,216.939L556.42,216.94L556.421,216.94L556.422,216.941L556.423,216.942L556.424,216.944L556.426,216.945L556.427,216.946L556.428,216.947L556.429,216.948L556.428,216.948L556.427,216.949L556.425,216.951L556.421,216.954L556.42,216.955L556.418,216.956L556.417,216.957L556.416,216.958L556.414,216.959L556.413,216.96L556.412,216.961L556.41,216.962L556.409,216.962L556.409,216.964L556.411,216.964L556.412,216.965L556.414,216.966L556.416,216.967L556.419,216.97L556.42,216.971L556.421,216.972L556.422,216.972L556.423,216.975L556.425,216.977L556.426,216.979L556.427,216.98L556.429,216.983L556.43,216.985L556.43,216.986L556.43,216.986L556.431,216.989L556.433,216.991L556.433,216.992L556.434,216.993L556.435,216.993L556.438,216.993L556.44,216.992L556.442,216.991L556.443,216.991L556.444,216.991L556.445,216.991L556.446,216.99L556.448,216.99L556.448,216.991L556.449,216.993L556.45,216.995L556.451,216.996L556.449,216.997L556.448,216.999L556.447,217L556.446,217.002L556.445,217.003L556.445,217.005L556.445,217.006L556.445,217.008L556.446,217.009L556.446,217.01L556.448,217.013L556.448,217.014L556.45,217.016L556.451,217.018L556.452,217.019L556.454,217.022L556.456,217.026L556.457,217.027L556.46,217.029L556.46,217.03L556.461,217.031L556.462,217.032L556.463,217.033L556.464,217.034L556.465,217.035L556.466,217.036L556.468,217.039L556.469,217.04L556.47,217.041L556.471,217.042L556.471,217.043L556.473,217.044L556.474,217.046L556.475,217.047L556.477,217.048L556.477,217.049L556.478,217.049L556.478,217.05L556.479,217.05L556.48,217.051L556.48,217.051L556.481,217.052L556.482,217.052L556.484,217.053L556.488,217.054L556.49,217.055L556.492,217.055L556.494,217.057L556.495,217.058L556.496,217.059L556.496,217.061L556.496,217.061L556.495,217.062L556.494,217.063L556.493,217.064L556.492,217.065L556.492,217.066L556.49,217.067L556.49,217.069L556.49,217.069L556.489,217.071L556.49,217.072L556.491,217.073L556.492,217.074L556.493,217.075L556.493,217.077L556.495,217.079L556.495,217.08L556.496,217.082L556.496,217.083L556.496,217.085L556.497,217.086L556.497,217.086L556.497,217.087L556.498,217.088L556.498,217.088L556.498,217.09L556.499,217.091L556.499,217.092L556.499,217.093L556.5,217.095L556.5,217.096L556.501,217.096L556.501,217.097L556.502,217.099L556.503,217.102L556.504,217.103L556.505,217.104L556.505,217.105L556.505,217.106L556.506,217.107L556.506,217.108L556.507,217.109L556.508,217.111L556.509,217.113L556.51,217.117L556.511,217.119L556.512,217.12L556.512,217.121L556.513,217.122L556.513,217.123L556.514,217.126L556.515,217.128L556.516,217.129L556.516,217.13L556.517,217.131L556.517,217.132L556.518,217.134L556.519,217.136L556.519,217.137L556.52,217.139L556.52,217.141L556.522,217.145L556.523,217.145L556.523,217.147L556.524,217.149L556.525,217.151L556.526,217.153L556.526,217.154L556.527,217.156L556.528,217.158L556.529,217.16L556.53,217.162L556.53,217.162L556.531,217.165L556.531,217.166L556.532,217.168L556.533,217.168L556.533,217.17L556.534,217.172L556.535,217.173L556.535,217.174L556.536,217.176L556.538,217.182L556.539,217.184L556.54,217.186L556.541,217.188L556.542,217.19L556.543,217.191L556.544,217.192L556.542,217.193L556.537,217.195L556.534,217.195L556.529,217.196L556.525,217.196L556.521,217.197L556.516,217.198L556.511,217.198L556.507,217.198L556.504,217.197L556.5,217.194L556.498,217.193L556.497,217.192L556.494,217.192L556.49,217.192L556.487,217.193L556.485,217.193L556.482,217.194L556.477,217.194L556.471,217.193L556.465,217.194L556.465,217.194L556.463,217.196L556.459,217.197L556.456,217.197L556.454,217.197L556.451,217.198L556.447,217.197L556.443,217.196L556.437,217.196L556.435,217.196L556.432,217.195L556.43,217.196L556.429,217.196L556.427,217.197L556.425,217.198L556.424,217.199L556.423,217.199L556.418,217.2L556.416,217.201L556.413,217.202L556.412,217.202L556.407,217.204L556.403,217.207L556.401,217.209L556.399,217.21L556.396,217.212L556.395,217.212L556.391,217.215L556.389,217.217L556.386,217.219L556.382,217.221L556.374,217.215L556.368,217.216L556.361,217.217L556.357,217.219L556.355,217.22L556.353,217.222L556.35,217.223L556.348,217.224L556.346,217.225L556.345,217.225L556.345,217.226L556.343,217.227L556.341,217.227L556.339,217.229L556.334,217.231L556.331,217.232L556.33,217.232L556.328,217.232L556.327,217.232L556.325,217.232L556.323,217.229L556.32,217.229L556.318,217.228L556.311,217.228L556.309,217.228L556.308,217.228L556.303,217.229L556.304,217.231L556.307,217.235L556.308,217.243L556.31,217.246L556.31,217.247L556.31,217.248L556.309,217.249L556.308,217.25L556.306,217.251L556.303,217.252L556.299,217.254L556.296,217.255L556.295,217.256L556.291,217.257L556.288,217.257L556.286,217.258L556.283,217.258L556.282,217.258L556.281,217.259L556.279,217.259L556.277,217.26L556.274,217.262L556.271,217.265L556.27,217.267L556.215,217.5L556.161,217.728L556.193,217.736L556.226,217.74L556.259,217.743L556.293,217.743L556.326,217.742L556.359,217.737L556.391,217.731L556.423,217.722L556.428,217.721L556.454,217.728L556.487,217.736L556.519,217.74L556.553,217.743L556.586,217.743L556.619,217.742L556.652,217.737L556.684,217.731L556.716,217.722L556.748,217.712L556.778,217.699L556.808,217.684L556.821,217.676L556.837,217.677L556.87,217.678L556.903,217.676L556.936,217.671L556.968,217.665L557.001,217.656L557.032,217.646L557.063,217.633L557.092,217.618L557.121,217.601L557.148,217.582L557.174,217.561L557.199,217.539L557.221,217.515L557.243,217.49L557.259,217.467L557.276,217.46L557.306,217.445L557.334,217.428L557.362,217.409L557.388,217.389L557.412,217.366L557.43,217.348L557.433,217.346L557.463,217.331L557.491,217.315L557.519,217.296L557.545,217.275L557.569,217.253L557.592,217.229L557.613,217.203L557.633,217.176L557.65,217.148L557.666,217.119L557.679,217.088L557.691,217.057L557.7,217.025L557.703,217.01L557.722,216.987L557.742,216.96L557.759,216.932L557.775,216.903L557.777,216.898L557.779,216.897L557.807,216.88L557.834,216.862L557.86,216.841L557.885,216.818L557.893,216.81L557.897,216.809L557.929,216.801L557.961,216.79L557.991,216.777L558.014,216.765L558.021,216.766L558.054,216.769L558.087,216.769L558.12,216.768L558.153,216.763L558.186,216.757L558.215,216.749L558.242,216.763L558.272,216.777L558.304,216.788L558.335,216.798L558.368,216.805L558.401,216.81L558.434,216.812L558.467,216.813L558.5,216.811L558.533,216.807L558.566,216.8L558.598,216.792L558.629,216.781L558.66,216.768L558.689,216.753L558.718,216.736L558.745,216.717L558.764,216.702L558.78,216.694L558.809,216.677L558.836,216.658L558.862,216.637L558.886,216.615L558.909,216.591L558.931,216.566L558.95,216.539L558.968,216.51L558.983,216.481L558.996,216.453L559.018,216.438L559.019,216.436L559.04,216.434L559.072,216.427L559.104,216.419L559.136,216.408L559.166,216.395L559.196,216.38L559.225,216.363L559.252,216.344L559.278,216.324L559.302,216.301L559.325,216.277L559.347,216.252L559.366,216.225L559.384,216.197L559.387,216.19L559.398,216.201L559.424,216.222L559.451,216.242L559.479,216.259L559.508,216.275L559.538,216.288L559.57,216.3L559.601,216.309L559.634,216.316L559.667,216.321L559.7,216.324L559.733,216.324L559.766,216.322L559.799,216.318L559.832,216.311L559.864,216.303L559.874,216.299L559.891,216.301L559.924,216.301L559.957,216.299L559.99,216.295L560.023,216.289L560.055,216.28L560.086,216.269L560.117,216.256L560.146,216.242L560.171,216.227L560.197,216.236L560.229,216.245L560.261,216.252L560.294,216.257L560.327,216.26L560.36,216.26L560.393,216.258L560.426,216.254L560.459,216.248L560.491,216.239L560.522,216.228L560.553,216.216L560.583,216.201L560.605,216.187L560.626,216.188L560.659,216.186L560.692,216.182L560.725,216.175L560.757,216.167L560.788,216.156L560.819,216.143L560.849,216.128L560.877,216.111L560.904,216.092L560.93,216.071L560.955,216.049L560.978,216.025L560.999,216L561.016,215.975L560.997,215.909L560.947,215.716L560.905,215.519L560.893,215.443L560.89,215.421L560.888,215.401L560.884,215.365L560.924,215.312L560.977,215.258L560.99,215.238L560.99,215.168L561.005,215.104L561.038,215.06L561.089,215.002L561.106,214.984L561.136,214.754L561.114,214.35L560.972,214.33L560.565,214.243L560.226,214.3L560.199,214.31L560.172,214.322L560.147,214.335L560.123,214.351L560.121,214.352L560.105,214.352L560.076,214.353L560.047,214.356L560.019,214.36L559.991,214.367L559.97,214.373L559.948,214.36L559.922,214.346L559.896,214.335L559.869,214.325L559.842,214.316L559.814,214.31L559.785,214.305L559.757,214.302L559.728,214.301L559.699,214.302L559.67,214.305L559.642,214.31L559.614,214.317L559.586,214.325L559.56,214.335L559.533,214.347L559.508,214.361L559.484,214.376L559.46,214.393L559.438,214.411L559.417,214.431L559.397,214.452L559.379,214.474L559.362,214.498L559.347,214.522L559.334,214.548L559.322,214.574L559.312,214.601L559.304,214.628L559.297,214.656L559.294,214.674L559.294,214.675L559.291,214.676L559.283,214.663L559.266,214.64L559.248,214.617L559.228,214.596L559.207,214.577L559.185,214.559L559.161,214.542L559.137,214.527L559.112,214.513L559.099,214.508L559.099,214.506L559.093,214.478L559.084,214.45L559.074,214.423L559.062,214.397L559.048,214.371L559.033,214.347L559.016,214.324L558.998,214.301L558.978,214.281L558.957,214.261L558.935,214.243L558.912,214.226L558.896,214.216L558.891,214.199L558.883,214.171L558.873,214.144L558.861,214.118L558.847,214.093L558.832,214.068L558.815,214.045L558.797,214.023L558.777,214.002L558.756,213.982L558.734,213.964L558.722,213.956L558.508,213.991L558.292,214.027L558.291,214.027L558.286,214.03L558.282,214.032L558.278,214.034L558.273,214.036L558.266,214.04L558.261,214.036L558.255,214.032L558.249,214.027L558.242,214.022L558.235,214.018L558.227,214.013L558.217,214.008L558.211,214.005L558.205,214.001L558.199,213.998L558.193,213.995L558.185,213.991L558.178,213.987L558.168,213.981L558.16,213.976L558.154,213.973L558.149,213.97L558.143,213.967L558.136,213.964L558.127,213.959L558.118,213.955L558.112,213.952L558.107,213.95L558.104,213.949L558.093,213.945L558.082,213.941L558.076,213.939L558.068,213.936L558.062,213.934L558.056,213.932L558.047,213.929L558.04,213.926L558.03,213.923L558.02,213.919L558.011,213.915L558.005,213.913L557.998,213.911L557.998,213.907L557.999,213.901L557.999,213.893L557.999,213.884L557.999,213.877L558,213.869L558,213.864L558,213.856L558,213.851L558,213.842L558,213.83L558.001,213.822L558.001,213.812L558.001,213.802L558.001,213.787L558.002,213.776L558.002,213.765L558.002,213.756L558.002,213.751L558.002,213.744L558.003,213.736L558.003,213.729L558.003,213.724L558.003,213.716L558.003,213.707L558.003,213.702L558.004,213.695L558.001,213.695L557.996,213.694L557.989,213.692L557.981,213.69L557.972,213.688L557.966,213.686L557.963,213.686L557.956,213.684L557.95,213.683L557.943,213.681L557.937,213.679L557.929,213.677L557.924,213.676L557.923,213.676L557.923,213.675L557.918,213.67L557.911,213.664L557.904,213.657L557.898,213.65L557.891,213.644L557.887,213.64L557.883,213.636L557.878,213.631L557.874,213.627L557.872,213.624L557.869,213.622L557.867,213.62L557.866,213.619L557.863,213.615L557.86,213.612L557.857,213.608L557.853,213.604L557.85,213.601L557.848,213.599L557.844,213.595L557.841,213.592L557.838,213.588L557.834,213.584L557.829,213.58L557.827,213.578L557.823,213.574L557.82,213.571L557.816,213.567L557.814,213.565L557.809,213.56L557.806,213.557L557.803,213.554L557.801,213.552L557.797,213.548L557.792,213.544L557.787,213.539L557.783,213.535L557.777,213.53L557.772,213.526L557.769,213.523L557.765,213.52L557.761,213.518L557.758,213.516L557.756,213.515L557.755,213.514L557.751,213.511L557.744,213.507L557.738,213.504L557.734,213.501L557.728,213.498L557.725,213.496L557.72,213.493L557.714,213.49L557.712,213.489L557.704,213.485L557.698,213.483L557.692,213.48L557.687,213.478L557.682,213.476L557.679,213.475L557.677,213.474L557.675,213.473L557.67,213.472L557.669,213.471L557.665,213.471L557.659,213.47L557.654,213.469L557.65,213.469L557.647,213.468L557.642,213.468L557.636,213.467L557.629,213.467L557.626,213.467L557.621,213.468L557.615,213.469L557.613,213.469L557.61,213.47L557.602,213.471L557.598,213.473L557.595,213.476L557.59,213.48L557.588,213.485L557.588,213.486L557.587,213.486L557.586,213.491L557.583,213.496L557.578,213.502L557.575,213.507L557.575,213.509L557.574,213.514L557.572,213.517L557.571,213.52L557.567,213.523L557.564,213.527L557.562,213.531L557.561,213.532L557.561,213.533L557.561,213.533L557.559,213.535L557.559,213.536L557.558,213.536L557.555,213.54L557.553,213.544L557.55,213.549L557.547,213.552L557.545,213.555L557.542,213.558L557.541,213.56L557.538,213.563L557.537,213.565L557.536,213.566L557.533,213.568L557.529,213.572L557.526,213.575L557.524,213.577L557.52,213.58L557.518,213.582L557.515,213.584L557.512,213.586L557.509,213.588L557.507,213.59L557.504,213.592L557.502,213.593L557.5,213.594L557.498,213.595L557.491,213.595L557.488,213.595L557.486,213.595L557.484,213.595L557.481,213.595L557.478,213.595L557.476,213.595L557.473,213.595L557.472,213.594L557.469,213.594L557.465,213.593L557.46,213.591L557.457,213.589L557.456,213.589L557.455,213.589L557.452,213.587L557.447,213.584L557.444,213.583L557.441,213.581L557.438,213.579L557.437,213.578L557.432,213.574L557.425,213.568L557.423,213.566L557.421,213.564L557.417,213.561L557.415,213.559L557.412,213.555L557.41,213.554L557.408,213.551L557.405,213.549L557.403,213.546L557.401,213.543L557.398,213.541L557.395,213.537L557.393,213.534L557.39,213.53L557.387,213.527L557.385,213.526L557.384,213.523L557.381,213.52L557.378,213.516L557.375,213.512L557.372,213.508L557.37,213.505L557.367,213.501L557.365,213.498L557.362,213.494L557.36,213.491L557.359,213.488L557.357,213.484L557.355,213.482L557.354,213.478L557.353,213.475L557.352,213.471L557.351,213.467L557.351,213.463L557.351,213.459L557.351,213.457L557.346,213.444L557.342,213.435L557.336,213.428L557.335,213.428L557.245,213.325L557.239,213.322L557.235,213.319L557.233,213.318L557.228,213.316L557.227,213.316L557.223,213.314L557.221,213.313L557.2,213.293L557.108,213.325L557.105,213.326L557.101,213.327L557.098,213.327L557.094,213.328L557.09,213.329L557.088,213.329L557.087,213.329L557.083,213.329L557.081,213.329L557.08,213.329L557.076,213.328L557.074,213.328L557.069,213.326L557.066,213.325L557.061,213.324L557.06,213.324L557.056,213.323L556.981,213.298L556.977,213.297L556.975,213.297L556.974,213.297L556.971,213.295L556.968,213.293L556.965,213.291L556.963,213.29L556.962,213.288L556.956,213.284L556.953,213.281L556.951,213.28L556.948,213.278L556.94,213.272L556.908,213.249L556.905,213.244L556.902,213.239L556.899,213.234L556.898,213.232L556.895,213.228L556.893,213.225L556.89,213.222L556.889,213.22L556.886,213.216L556.884,213.215L556.882,213.213L556.88,213.211L556.877,213.209L556.874,213.206L556.872,213.205L556.87,213.203L556.868,213.202L556.865,213.201L556.862,213.199L556.802,213.175L556.789,213.175L556.783,213.177L556.781,213.178L556.778,213.18L556.775,213.181L556.769,213.186L556.766,213.189L556.764,213.19L556.76,213.193L556.758,213.194L556.754,213.195L556.728,213.183L556.727,213.182L556.664,213.153L556.641,213.133L556.62,213.118L556.568,213.085L556.496,213.047L556.492,213.043L556.436,212.99L556.43,212.986L556.426,212.984L556.424,212.982L556.42,212.98L556.419,212.98L556.417,212.979L556.414,212.977L556.352,212.967L556.349,212.968L556.347,212.968L556.345,212.968L556.343,212.968L556.339,212.968L556.337,212.968L556.335,212.969L556.332,212.969L556.328,212.969L556.31,212.974L556.288,212.982L556.273,212.99L556.265,212.995L556.265,212.995L556.264,212.996L556.251,213.006L556.241,213.009L556.239,213.009L556.237,213.01L556.233,213.012L556.232,213.011L556.231,213.011L556.229,213.011L556.226,213.01L556.193,212.987L556.166,212.969L556.163,212.968L556.162,212.968L556.158,212.967L556.154,212.966L556.153,212.966L556.149,212.965L556.147,212.964L556.143,212.961L556.118,212.948L556.11,212.926L556.104,212.922L556.102,212.921L556.098,212.919L556.094,212.917L556.09,212.914L556.087,212.913L556.085,212.912L556.084,212.91L556.081,212.908L556.079,212.906L556.078,212.905L556.076,212.905L556.055,212.908L556.039,212.911L556.038,212.911L556.038,212.91L556.036,212.909L556.036,212.909L556.035,212.911L556.025,212.913L556.028,212.93L556.03,212.938L556.028,212.939L556.024,212.94L556.023,212.941L556.023,212.943L556.023,212.944L556.025,212.944L556.031,212.943L556.035,212.97L556.038,212.985L556.043,213.012L556.046,213.032L556.05,213.055L556.052,213.065L556.052,213.067L556.053,213.072L556.054,213.077L556.055,213.079L556.056,213.085L556.056,213.088L556.057,213.092L556.058,213.096L556.059,213.106L556.069,213.115L556.065,213.118L556.065,213.118L556.06,213.12L556.056,213.122L556.053,213.123L556.049,213.124L556.043,213.126L556.036,213.129L556.03,213.131L556.025,213.134L555.978,213.171L555.954,213.211L555.985,213.31L555.901,213.428L555.608,213.53ZM800,0L800,12.246L800,78.668L800,145.789L800,215.835L800,261.497L800,300L800,338.503L800,384.165L800,454.211L800,600L800,600L200,600L200,600L200,454.211L200,384.165L200,338.503L200,300L200,261.497L200,215.835L200,145.789L200,78.668L200,12.246L200,0L200,0L800,0Z"/>
<path d="M556.837,215.948m0,4.5a4.5,4.5 0 1,1 0,-9a4.5,4.5 0 1,1 0,9z"/>
<path d="M557.986,215.407m0,4.5a4.5,4.5 0 1,1 0,-9a4.5,4.5 0 1,1 0,9z"/>
</svg>