<?xml version="1.0" encoding="UTF-8"?>
<svg xmlns="http://www.w3.org/2000/svg" viewBox="0 0 1000 600" stroke="#000" stroke-width="0.3" fill="#ccc">
<path d="M575.155,220.423L575.156,220.421L575.157,220.42L575.158,220.419L575.159,220.42L575.159,220.42L575.16,220.42L575.16,220.419L575.16,220.419L575.16,220.418L575.16,220.417L575.16,220.416L575.161,220.415L575.161,220.415L575.161,220.415L575.162,220.415L575.162,220.415L575.163,220.415L575.164,220.414L575.164,220.414L575.164,220.413L575.164,220.413L575.164,220.412L575.164,220.412L575.164,220.411L575.165,220.41L575.165,220.409L575.166,220.409L575.166,220.409L575.167,220.41L575.168,220.41L575.168,220.411L575.168,220.412L575.169,220.412L575.169,220.412L575.17,220.412L575.17,220.411L575.171,220.41L575.171,220.41L575.172,220.41L575.173,220.41L575.174,220.409L575.174,220.408L575.175,220.407L575.176,220.406L575.176,220.405L575.177,220.405L575.178,220.405L575.18,220.407L575.181,220.408L575.181,220.407L575.183,220.406L575.184,220.404L575.183,220.403L575.183,220.401L575.184,220.4L575.185,220.399L575.187,220.398L575.19,220.398L575.191,220.398L575.193,220.396L575.194,220.396L575.195,220.396L575.197,220.396L575.197,220.395L575.197,220.395L575.196,220.394L575.196,220.393L575.196,220.391L575.197,220.389L575.198,220.387L575.2,220.384L575.2,220.383L575.2,220.382L575.201,220.382L575.201,220.382L575.202,220.381L575.203,220.38L575.205,220.379L575.209,220.379L575.209,220.378L575.21,220.378L575.21,220.377L575.21,220.376L575.209,220.375L575.209,220.374L575.209,220.373L575.21,220.373L575.211,220.374L575.213,220.375L575.214,220.377L575.214,220.377L575.216,220.375L575.216,220.374L575.216,220.374L575.215,220.371L575.213,220.369L575.213,220.368L575.213,220.367L575.214,220.367L575.217,220.368L575.218,220.368L575.218,220.368L575.219,220.367L575.22,220.367L575.22,220.368L575.221,220.368L575.222,220.368L575.222,220.368L575.222,220.367L575.221,220.365L575.22,220.363L575.22,220.362L575.221,220.361L575.221,220.361L575.223,220.361L575.224,220.362L575.225,220.361L575.226,220.361L575.226,220.361L575.225,220.36L575.225,220.359L575.225,220.359L575.226,220.358L575.227,220.358L575.228,220.359L575.229,220.359L575.229,220.359L575.229,220.358L575.229,220.356L575.229,220.355L575.229,220.353L575.231,220.352L575.233,220.352L575.235,220.351L575.237,220.351L575.237,220.351L575.238,220.351L575.238,220.35L575.238,220.35L575.237,220.35L575.237,220.349L575.238,220.349L575.238,220.349L575.238,220.348L575.239,220.348L575.239,220.348L575.239,220.347L575.238,220.346L575.238,220.345L575.239,220.345L575.239,220.345L575.24,220.345L575.241,220.345L575.242,220.344L575.242,220.344L575.243,220.342L575.244,220.342L575.244,220.342L575.244,220.342L575.245,220.342L575.245,220.34L575.247,220.339L575.248,220.339L575.249,220.338L575.25,220.338L575.25,220.337L575.251,220.336L575.251,220.335L575.251,220.334L575.252,220.334L575.253,220.334L575.253,220.335L575.252,220.336L575.252,220.337L575.253,220.339L575.253,220.339L575.254,220.34L575.254,220.34L575.254,220.339L575.254,220.336L575.254,220.336L575.254,220.335L575.254,220.334L575.255,220.334L575.256,220.333L575.257,220.333L575.259,220.332L575.259,220.331L575.261,220.33L575.261,220.33L575.261,220.329L575.262,220.329L575.261,220.327L575.26,220.326L575.26,220.325L575.26,220.325L575.26,220.324L575.26,220.323L575.26,220.322L575.261,220.321L575.262,220.321L575.262,220.32L575.263,220.32L575.265,220.319L575.265,220.318L575.266,220.317L575.268,220.318L575.27,220.318L575.27,220.317L575.271,220.316L575.27,220.315L575.269,220.314L575.269,220.313L575.268,220.311L575.268,220.311L575.269,220.31L575.271,220.309L575.271,220.308L575.271,220.307L575.272,220.307L575.271,220.306L575.271,220.306L575.272,220.304L575.271,220.303L575.271,220.302L575.272,220.302L575.273,220.302L575.274,220.302L575.275,220.302L575.276,220.301L575.276,220.301L575.276,220.3L575.277,220.299L575.278,220.298L575.278,220.298L575.278,220.297L575.278,220.296L575.279,220.295L575.28,220.294L575.281,220.292L575.282,220.292L575.283,220.291L575.285,220.292L575.286,220.292L575.286,220.292L575.287,220.291L575.287,220.291L575.287,220.29L575.286,220.288L575.286,220.287L575.284,220.287L575.283,220.287L575.283,220.287L575.283,220.286L575.284,220.285L575.285,220.285L575.285,220.285L575.286,220.285L575.286,220.284L575.286,220.283L575.285,220.283L575.285,220.282L575.285,220.281L575.286,220.28L575.29,220.278L575.291,220.277L575.293,220.278L575.293,220.277L575.293,220.276L575.292,220.276L575.292,220.274L575.292,220.273L575.292,220.273L575.293,220.273L575.295,220.273L575.296,220.273L575.297,220.272L575.297,220.271L575.295,220.269L575.295,220.269L575.295,220.268L575.296,220.266L575.297,220.265L575.301,220.261L575.302,220.261L575.304,220.261L575.304,220.26L575.305,220.26L575.305,220.259L575.304,220.258L575.303,220.257L575.303,220.256L575.304,220.254L575.304,220.252L575.305,220.25L575.306,220.25L575.307,220.249L575.309,220.249L575.31,220.248L575.31,220.247L575.311,220.247L575.311,220.246L575.312,220.243L575.312,220.241L575.313,220.24L575.315,220.237L575.316,220.236L575.317,220.236L575.317,220.237L575.317,220.238L575.317,220.239L575.317,220.239L575.318,220.239L575.319,220.239L575.32,220.238L575.323,220.236L575.324,220.236L575.324,220.235L575.325,220.234L575.324,220.233L575.324,220.232L575.325,220.23L575.326,220.229L575.325,220.228L575.324,220.227L575.323,220.227L575.322,220.226L575.321,220.222L575.321,220.22L575.322,220.218L575.322,220.215L575.323,220.215L575.323,220.212L575.325,220.201L575.325,220.201L575.323,220.199L575.323,220.197L575.324,220.194L575.323,220.194L575.318,220.197L575.318,220.191L575.317,220.188L575.316,220.187L575.314,220.186L575.293,220.147L575.291,220.147L575.288,220.147L575.283,220.148L575.282,220.147L575.282,220.147L575.283,220.147L575.288,220.146L575.291,220.146L575.295,220.133L575.308,220.09L575.286,220.089L575.276,220.08L575.276,220.078L575.274,220.076L575.274,220.076L575.274,220.075L575.274,220.074L575.274,220.072L575.274,220.071L575.276,220.068L575.277,220.067L575.277,220.066L575.276,220.066L575.274,220.066L575.273,220.065L575.272,220.064L575.272,220.064L575.272,220.064L575.271,220.065L575.271,220.065L575.27,220.065L575.269,220.065L575.267,220.066L575.266,220.066L575.265,220.066L575.263,220.066L575.262,220.066L575.261,220.066L575.26,220.066L575.259,220.066L575.259,220.066L575.259,220.066L575.259,220.067L575.258,220.067L575.257,220.068L575.255,220.07L575.255,220.07L575.254,220.071L575.253,220.071L575.252,220.071L575.25,220.071L575.248,220.071L575.247,220.072L575.247,220.072L575.246,220.071L575.242,220.071L575.242,220.071L575.238,220.072L575.238,220.072L575.237,220.072L575.235,220.071L575.233,220.07L575.23,220.069L575.229,220.069L575.229,220.069L575.227,220.065L575.23,220.059L575.231,220.057L575.232,220.055L575.234,220.052L575.234,220.052L575.235,220.05L575.235,220.049L575.235,220.048L575.233,220.046L575.216,220.033L575.216,220.032L575.212,220.03L575.211,220.029L575.211,220.026L575.211,220.017L575.211,220.014L575.212,219.993L575.212,219.99L575.212,219.987L575.212,219.986L575.213,219.986L575.214,219.983L575.213,219.98L575.213,219.979L575.211,219.964L575.211,219.961L575.194,219.894L575.178,219.828L575.177,219.827L575.179,219.804L575.179,219.801L575.18,219.778L575.181,219.768L575.181,219.767L575.182,219.757L575.182,219.755L575.182,219.753L575.182,219.753L575.183,219.749L575.184,219.748L575.185,219.748L575.186,219.748L575.186,219.747L575.186,219.746L575.186,219.745L575.185,219.744L575.185,219.744L575.185,219.744L575.187,219.744L575.187,219.743L575.187,219.743L575.187,219.742L575.186,219.742L575.184,219.742L575.183,219.74L575.183,219.74L575.182,219.739L575.182,219.739L575.183,219.738L575.184,219.738L575.184,219.738L575.185,219.738L575.189,219.739L575.191,219.739L575.193,219.74L575.193,219.739L575.193,219.738L575.194,219.738L575.194,219.737L575.193,219.736L575.193,219.735L575.193,219.735L575.193,219.734L575.193,219.733L575.194,219.733L575.194,219.733L575.195,219.733L575.195,219.734L575.196,219.735L575.196,219.735L575.197,219.735L575.198,219.735L575.199,219.735L575.199,219.734L575.2,219.734L575.2,219.733L575.199,219.733L575.199,219.732L575.2,219.732L575.2,219.732L575.201,219.732L575.201,219.733L575.201,219.734L575.201,219.735L575.2,219.736L575.199,219.737L575.198,219.737L575.199,219.738L575.2,219.739L575.201,219.739L575.202,219.738L575.203,219.738L575.203,219.737L575.204,219.737L575.205,219.737L575.205,219.736L575.205,219.736L575.204,219.736L575.203,219.735L575.203,219.734L575.203,219.734L575.203,219.733L575.203,219.733L575.203,219.733L575.204,219.733L575.204,219.733L575.204,219.732L575.205,219.731L575.205,219.731L575.206,219.729L575.207,219.729L575.207,219.727L575.208,219.727L575.208,219.726L575.209,219.725L575.209,219.725L575.209,219.723L575.21,219.718L575.21,219.716L575.21,219.712L575.211,219.711L575.211,219.711L575.211,219.71L575.21,219.71L575.21,219.71L575.21,219.71L575.21,219.709L575.211,219.708L575.211,219.707L575.211,219.706L575.211,219.706L575.21,219.706L575.21,219.706L575.21,219.706L575.21,219.705L575.21,219.705L575.21,219.705L575.21,219.704L575.21,219.704L575.21,219.704L575.21,219.704L575.21,219.704L575.21,219.704L575.21,219.702L575.21,219.699L575.21,219.698L575.21,219.694L575.21,219.693L575.21,219.693L575.211,219.691L575.211,219.69L575.212,219.69L575.212,219.69L575.213,219.688L575.213,219.688L575.213,219.687L575.213,219.687L575.213,219.686L575.213,219.686L575.213,219.686L575.213,219.686L575.213,219.685L575.213,219.685L575.214,219.684L575.214,219.684L575.214,219.684L575.214,219.683L575.214,219.683L575.214,219.683L575.214,219.681L575.214,219.677L575.214,219.676L575.214,219.674L575.214,219.673L575.214,219.672L575.215,219.67L575.215,219.667L575.215,219.664L575.216,219.661L575.216,219.661L575.216,219.659L575.219,219.628L575.22,219.612L575.224,219.577L575.226,219.561L575.226,219.559L575.227,219.538L575.229,219.515L575.228,219.509L575.228,219.506L575.226,219.503L575.224,219.501L575.224,219.5L575.223,219.499L575.222,219.498L575.221,219.494L575.219,219.49L575.217,219.487L575.216,219.485L575.213,219.479L575.209,219.469L575.207,219.465L575.203,219.457L575.202,219.454L575.199,219.448L575.194,219.438L575.191,219.433L575.189,219.433L575.189,219.433L575.183,219.432L575.176,219.432L575.175,219.432L575.168,219.432L575.165,219.432L575.156,219.432L575.153,219.432L575.151,219.432L575.148,219.431L575.139,219.432L575.136,219.432L575.134,219.432L575.132,219.432L575.116,219.432L575.11,219.432L575.109,219.432L575.109,219.431L575.109,219.431L575.108,219.424L575.108,219.421L575.108,219.414L575.107,219.411L575.107,219.411L575.103,219.41L575.1,219.41L575.095,219.411L575.092,219.411L575.078,219.411L575.068,219.411L575.061,219.411L575.057,219.411L575.054,219.411L575.05,219.411L575.048,219.411L575.046,219.411L575.045,219.411L575.043,219.411L575.041,219.411L575.031,219.411L575.028,219.411L575.026,219.411L575.024,219.412L575.023,219.412L575.021,219.413L575.02,219.413L575.018,219.414L575.018,219.414L574.998,219.408L574.954,219.397L574.954,219.371L574.94,219.371L574.928,219.371L574.928,219.361L574.928,219.303L574.928,219.297L574.928,219.295L574.928,219.288L574.928,219.277L574.925,219.278L574.924,219.279L574.923,219.28L574.922,219.279L574.917,219.279L574.91,219.279L574.904,219.281L574.893,219.282L574.843,219.277L574.843,219.28L574.835,219.277L574.832,219.275L574.83,219.274L574.825,219.271L574.824,219.271L574.819,219.267L574.815,219.264L574.807,219.257L574.805,219.255L574.803,219.254L574.803,219.254L574.8,219.253L574.8,219.253L574.8,219.253L574.799,219.253L574.799,219.253L574.798,219.253L574.795,219.251L574.79,219.248L574.789,219.247L574.787,219.245L574.785,219.243L574.782,219.239L574.781,219.236L574.78,219.236L574.78,219.235L574.779,219.233L574.777,219.231L574.777,219.23L574.777,219.23L574.776,219.228L574.776,219.228L574.771,219.217L574.77,219.217L574.77,219.216L574.769,219.215L574.769,219.215L574.769,219.215L574.768,219.214L574.768,219.214L574.767,219.214L574.767,219.214L574.767,219.214L574.767,219.212L574.767,219.212L574.767,219.212L574.767,219.211L574.767,219.211L574.767,219.21L574.767,219.21L574.768,219.209L574.768,219.207L574.77,219.206L574.773,219.204L574.773,219.203L574.773,219.202L574.768,219.179L574.746,219.177L574.713,219.203L574.712,219.203L574.697,219.2L574.693,219.2L574.687,219.191L574.667,219.192L574.669,219.197L574.655,219.197L574.649,219.194L574.665,219.165L574.663,219.139L574.669,219.137L574.671,219.137L574.671,219.125L574.664,219.125L574.666,219.118L574.665,219.112L574.659,219.103L574.588,219.105L574.586,219.105L574.579,219.105L574.576,219.105L574.527,219.106L574.511,219.107L574.508,219.107L574.499,219.107L574.493,219.107L574.503,219.164L574.504,219.188L574.51,219.207L574.498,219.215L574.487,219.216L574.481,219.216L574.474,219.215L574.459,219.209L574.448,219.208L574.439,219.214L574.424,219.229L574.42,219.23L574.415,219.23L574.405,219.227L574.401,219.225L574.396,219.222L574.39,219.218L574.386,219.217L574.38,219.215L574.37,219.217L574.376,219.161L574.379,219.133L574.38,219.126L574.38,219.126L574.38,219.125L574.384,219.092L574.384,219.088L574.384,219.086L574.385,219.078L574.385,219.064L574.385,219.063L574.375,219.066L574.356,219.071L574.349,219.073L574.346,219.074L574.345,219.074L574.328,219.079L574.323,219.08L574.317,219.082L574.314,219.083L574.307,219.085L574.306,219.085L574.305,219.086L574.29,219.09L574.288,219.091L574.287,219.091L574.286,219.091L574.282,219.093L574.281,219.093L574.277,219.094L574.262,219.099L574.262,219.099L574.247,219.102L574.247,219.103L574.245,219.103L574.242,219.104L574.229,219.108L574.216,219.111L574.21,219.113L574.172,219.123L574.167,219.184L574.179,219.228L574.174,219.242L574.171,219.25L574.17,219.251L574.17,219.251L574.168,219.257L574.167,219.259L574.158,219.268L574.138,219.285L574.135,219.289L574.135,219.292L574.135,219.296L574.136,219.297L574.137,219.299L574.137,219.3L574.138,219.301L574.138,219.302L574.138,219.304L574.139,219.308L574.14,219.311L574.142,219.315L574.142,219.315L574.14,219.319L574.139,219.322L574.141,219.325L574.143,219.327L574.149,219.327L574.151,219.33L574.15,219.334L574.149,219.336L574.151,219.339L574.153,219.344L574.154,219.35L574.152,219.352L574.151,219.356L574.148,219.358L574.147,219.36L574.148,219.362L574.15,219.365L574.152,219.366L574.154,219.369L574.157,219.372L574.153,219.377L574.162,219.381L574.158,219.387L574.146,219.384L574.14,219.382L574.137,219.382L574.136,219.393L574.131,219.4L574.132,219.406L574.135,219.404L574.134,219.409L574.137,219.413L574.141,219.414L574.137,219.417L574.136,219.422L574.137,219.426L574.138,219.432L574.136,219.434L574.139,219.436L574.144,219.444L574.153,219.444L574.15,219.452L574.151,219.453L574.156,219.457L574.153,219.462L574.152,219.466L574.154,219.468L574.148,219.472L574.149,219.476L574.156,219.485L574.187,219.542L574.192,219.53L574.2,219.527L574.209,219.521L574.217,219.526L574.223,219.516L574.232,219.516L574.24,219.516L574.244,219.516L574.245,219.516L574.25,219.515L574.253,219.517L574.254,219.518L574.255,219.518L574.255,219.519L574.258,219.52L574.259,219.52L574.261,219.519L574.262,219.518L574.263,219.517L574.262,219.516L574.262,219.515L574.263,219.513L574.266,219.512L574.268,219.511L574.27,219.511L574.272,219.511L574.273,219.512L574.274,219.513L574.277,219.514L574.279,219.515L574.283,219.515L574.286,219.517L574.288,219.522L574.294,219.523L574.296,219.524L574.294,219.606L574.292,219.689L574.289,219.764L574.289,219.848L574.285,219.93L574.298,219.936L574.314,219.94L574.323,219.945L574.328,219.948L574.345,219.953L574.349,219.952L574.358,219.96L574.362,219.962L574.366,219.961L574.366,219.964L574.368,219.966L574.37,219.962L574.374,219.96L574.373,219.963L574.373,219.966L574.376,219.967L574.377,219.967L574.379,219.965L574.381,219.965L574.384,219.966L574.387,219.963L574.389,219.965L574.392,219.965L574.391,219.967L574.391,219.97L574.393,219.971L574.395,219.969L574.396,219.967L574.408,219.965L574.405,219.969L574.405,219.973L574.407,219.974L574.409,219.973L574.409,219.97L574.416,219.968L574.423,219.969L574.424,219.972L574.427,219.972L574.429,219.973L574.433,219.975L574.432,219.978L574.432,219.979L574.435,219.978L574.437,219.976L574.438,219.98L574.438,219.982L574.44,219.981L574.442,219.979L574.442,219.977L574.444,219.977L574.446,219.98L574.452,219.979L574.451,219.983L574.453,219.984L574.455,219.983L574.457,219.982L574.457,219.985L574.458,219.988L574.46,219.99L574.462,219.99L574.463,219.991L574.469,219.988L574.47,219.936L574.458,219.935L574.448,219.934L574.449,219.834L574.467,219.834L574.47,219.836L574.471,219.839L574.495,219.851L574.512,219.886L574.529,219.92L574.536,219.936L574.537,219.937L574.546,219.956L574.55,219.963L574.569,220.002L574.565,220.007L574.571,220.008L574.571,220.013L574.575,220.015L574.576,220.017L574.584,220.031L574.583,220.034L574.581,220.037L574.582,220.037L574.6,220.065L574.6,220.066L574.603,220.069L574.605,220.072L574.605,220.073L574.614,220.093L574.619,220.102L574.62,220.105L574.622,220.11L574.629,220.107L574.66,220.092L574.664,220.097L574.663,220.102L574.662,220.103L574.662,220.107L574.664,220.11L574.666,220.112L574.667,220.116L574.664,220.12L574.663,220.12L574.663,220.122L574.665,220.123L574.668,220.123L574.668,220.127L574.666,220.129L574.664,220.136L574.679,220.137L574.691,220.141L574.697,220.143L574.702,220.145L574.719,220.15L574.723,220.153L574.725,220.154L574.727,220.156L574.732,220.159L574.739,220.164L574.742,220.167L574.737,220.17L574.737,220.173L574.741,220.184L574.745,220.197L574.734,220.198L574.726,220.195L574.724,220.199L574.74,220.212L574.745,220.215L574.753,220.221L574.759,220.224L574.777,220.23L574.784,220.246L574.814,220.248L574.824,220.25L574.828,220.246L574.831,220.247L574.834,220.249L574.836,220.25L574.838,220.255L574.843,220.263L574.845,220.266L574.848,220.269L574.849,220.272L574.849,220.276L574.85,220.28L574.854,220.285L574.858,220.29L574.864,220.289L574.869,220.293L574.869,220.297L574.87,220.3L574.878,220.305L574.88,220.306L574.885,220.307L574.885,220.31L574.888,220.322L574.887,220.325L574.896,220.33L574.901,220.334L574.91,220.338L574.913,220.345L574.923,220.35L574.926,220.355L574.929,220.358L574.931,220.366L574.931,220.371L574.933,220.376L574.934,220.384L574.929,220.384L574.927,220.388L574.927,220.396L574.923,220.399L574.911,220.403L574.903,220.406L574.896,220.409L574.89,220.418L574.889,220.425L574.887,220.433L574.892,220.445L574.89,220.466L574.891,220.47L574.893,220.477L574.896,220.478L574.896,220.482L574.899,220.489L574.906,220.504L574.896,220.504L574.876,220.516L574.877,220.521L574.88,220.52L574.884,220.516L574.891,220.513L574.901,220.513L574.903,220.514L574.903,220.517L574.906,220.517L574.91,220.517L574.913,220.532L574.916,220.555L574.919,220.566L574.922,220.581L574.923,220.591L574.918,220.591L574.916,220.59L574.914,220.59L574.913,220.593L574.912,220.593L574.91,220.592L574.905,220.588L574.902,220.586L574.901,220.588L574.901,220.589L574.903,220.589L574.904,220.591L574.903,220.596L574.903,220.6L574.905,220.604L574.905,220.607L574.893,220.615L574.879,220.626L574.876,220.627L574.873,220.626L574.842,220.613L574.842,220.642L574.838,220.647L574.824,220.652L574.803,220.663L574.802,220.669L574.802,220.685L574.801,220.693L574.798,220.737L574.794,220.737L574.776,220.733L574.772,220.732L574.767,220.735L574.766,220.742L574.771,220.748L574.773,220.755L574.773,220.761L574.774,220.77L574.775,220.779L574.781,220.783L574.783,220.786L574.781,220.791L574.776,220.787L574.772,220.789L574.768,220.788L574.761,220.796L574.766,220.797L574.763,220.806L574.765,220.812L574.766,220.818L574.766,220.823L574.758,220.835L574.758,220.838L574.758,220.841L574.756,220.844L574.747,220.842L574.734,220.838L574.726,220.837L574.717,220.834L574.713,220.828L574.707,220.823L574.694,220.815L574.688,220.808L574.683,220.8L574.68,220.799L574.676,220.796L574.672,220.795L574.667,220.792L574.664,220.789L574.66,220.787L574.657,220.789L574.655,220.791L574.65,220.792L574.644,220.79L574.64,220.789L574.628,220.789L574.625,220.796L574.622,220.799L574.618,220.802L574.611,220.809L574.609,220.809L574.601,220.81L574.591,220.811L574.589,220.826L574.585,220.828L574.575,220.823L574.568,220.819L574.565,220.814L574.562,220.812L574.556,220.806L574.54,220.805L574.528,220.799L574.512,220.795L574.508,220.795L574.505,220.796L574.503,220.795L574.502,220.793L574.501,220.789L574.502,220.784L574.503,220.781L574.503,220.781L574.506,220.78L574.507,220.778L574.505,220.776L574.506,220.774L574.503,220.77L574.495,220.77L574.49,220.774L574.479,220.771L574.469,220.767L574.465,220.768L574.458,220.765L574.456,220.759L574.44,220.746L574.427,220.741L574.421,220.74L574.415,220.739L574.412,220.74L574.401,220.731L574.4,220.725L574.395,220.718L574.391,220.716L574.39,220.716L574.386,220.715L574.386,220.718L574.386,220.72L574.387,220.729L574.386,220.733L574.389,220.749L574.396,220.762L574.4,220.769L574.403,220.775L574.407,220.78L574.413,220.791L574.414,220.793L574.412,220.803L574.413,220.807L574.413,220.81L574.413,220.816L574.411,220.823L574.413,220.827L574.413,220.827L574.416,220.828L574.42,220.829L574.424,220.83L574.426,220.831L574.429,220.835L574.433,220.839L574.436,220.843L574.438,220.845L574.439,220.847L574.44,220.85L574.444,220.852L574.442,220.856L574.441,220.859L574.44,220.869L574.434,220.887L574.431,220.898L574.431,220.899L574.437,220.909L574.439,220.917L574.447,220.93L574.446,220.961L574.448,220.973L574.447,220.981L574.444,220.985L574.447,220.987L574.452,220.992L574.464,221.003L574.467,221.021L574.467,221.023L574.467,221.025L574.469,221.027L574.479,221.031L574.48,221.035L574.483,221.039L574.485,221.044L574.492,221.051L574.497,221.055L574.509,221.057L574.517,221.057L574.524,221.056L574.525,221.063L574.53,221.07L574.539,221.076L574.543,221.078L574.547,221.084L574.55,221.087L574.569,221.089L574.57,221.093L574.572,221.099L574.578,221.104L574.581,221.111L574.588,221.12L574.587,221.127L574.584,221.133L574.581,221.137L574.578,221.141L574.576,221.147L574.574,221.151L574.577,221.157L574.577,221.163L574.578,221.172L574.579,221.179L574.582,221.181L574.587,221.189L574.59,221.195L574.592,221.201L574.594,221.206L574.595,221.21L574.596,221.214L574.592,221.221L574.591,221.223L574.592,221.226L574.595,221.232L574.598,221.234L574.602,221.24L574.606,221.25L574.607,221.254L574.606,221.258L574.607,221.261L574.609,221.272L574.611,221.281L574.612,221.284L574.618,221.283L574.623,221.285L574.629,221.29L574.632,221.297L574.637,221.3L574.642,221.304L574.646,221.312L574.648,221.319L574.649,221.321L574.655,221.326L574.657,221.331L574.667,221.343L574.671,221.344L574.673,221.345L574.681,221.343L574.685,221.342L574.69,221.344L574.696,221.342L574.706,221.341L574.712,221.343L574.715,221.339L574.715,221.338L574.715,221.337L574.714,221.335L574.713,221.333L574.712,221.331L574.712,221.329L574.711,221.326L574.711,221.323L574.71,221.321L574.71,221.318L574.711,221.317L574.711,221.315L574.711,221.314L574.71,221.312L574.708,221.31L574.707,221.309L574.706,221.309L574.706,221.308L574.706,221.306L574.705,221.304L574.705,221.304L574.704,221.303L574.705,221.302L574.705,221.301L574.705,221.3L574.705,221.297L574.706,221.294L574.706,221.292L574.706,221.288L574.706,221.286L574.705,221.285L574.705,221.285L574.706,221.284L574.708,221.283L574.709,221.282L574.712,221.281L574.713,221.279L574.715,221.277L574.716,221.276L574.716,221.273L574.717,221.27L574.717,221.264L574.719,221.26L574.719,221.256L574.719,221.254L574.719,221.252L574.719,221.251L574.72,221.248L574.721,221.247L574.722,221.244L574.722,221.243L574.722,221.241L574.722,221.239L574.723,221.237L574.723,221.236L574.723,221.235L574.723,221.233L574.724,221.232L574.726,221.231L574.727,221.229L574.728,221.227L574.728,221.227L574.728,221.224L574.728,221.223L574.726,221.219L574.726,221.217L574.726,221.217L574.726,221.213L574.726,221.211L574.727,221.21L574.728,221.209L574.731,221.208L574.732,221.208L574.734,221.208L574.736,221.209L574.739,221.211L574.741,221.211L574.742,221.212L574.743,221.211L574.745,221.21L574.747,221.209L574.75,221.208L574.753,221.207L574.758,221.205L574.761,221.204L574.761,221.203L574.762,221.202L574.761,221.2L574.76,221.199L574.761,221.198L574.762,221.196L574.765,221.193L574.765,221.192L574.766,221.19L574.766,221.189L574.766,221.187L574.767,221.186L574.767,221.185L574.768,221.182L574.77,221.182L574.773,221.18L574.775,221.178L574.776,221.177L574.777,221.175L574.778,221.173L574.78,221.172L574.782,221.171L574.781,221.17L574.781,221.168L574.781,221.167L574.781,221.166L574.781,221.165L574.779,221.164L574.779,221.163L574.779,221.162L574.78,221.161L574.781,221.159L574.781,221.158L574.781,221.156L574.781,221.154L574.781,221.153L574.781,221.153L574.779,221.152L574.779,221.152L574.778,221.15L574.778,221.149L574.776,221.147L574.775,221.145L574.775,221.145L574.774,221.144L574.774,221.143L574.773,221.141L574.774,221.139L574.775,221.139L574.779,221.135L574.78,221.134L574.78,221.134L574.781,221.131L574.781,221.13L574.783,221.129L574.783,221.128L574.784,221.125L574.784,221.123L574.783,221.12L574.783,221.118L574.784,221.116L574.783,221.111L574.781,221.106L574.781,221.105L574.781,221.104L574.782,221.102L574.782,221.098L574.782,221.098L574.782,221.097L574.782,221.095L574.784,221.09L574.784,221.088L574.786,221.086L574.79,221.084L574.791,221.083L574.792,221.082L574.793,221.081L574.794,221.081L574.794,221.08L574.794,221.08L574.793,221.08L574.793,221.079L574.793,221.079L574.793,221.079L574.793,221.079L574.796,221.077L574.798,221.075L574.799,221.075L574.799,221.072L574.8,221.071L574.8,221.069L574.8,221.067L574.801,221.064L574.802,221.062L574.803,221.06L574.804,221.058L574.807,221.056L574.808,221.052L574.809,221.049L574.81,221.045L574.812,221.045L574.813,221.045L574.813,221.045L574.815,221.045L574.816,221.044L574.819,221.043L574.822,221.042L574.824,221.042L574.827,221.042L574.833,221.042L574.836,221.041L574.839,221.041L574.842,221.041L574.845,221.04L574.849,221.037L574.849,221.036L574.85,221.037L574.852,221.039L574.853,221.039L574.854,221.039L574.858,221.041L574.862,221.041L574.865,221.043L574.866,221.043L574.869,221.043L574.87,221.042L574.873,221.041L574.875,221.04L574.876,221.038L574.877,221.037L574.878,221.037L574.889,221.038L574.89,221.037L574.891,221.037L574.895,221.038L574.896,221.037L574.897,221.037L574.897,221.037L574.91,221.036L574.913,221.037L574.919,221.039L574.929,221.041L574.936,221.041L574.939,221.041L574.945,221.04L574.951,221.042L574.958,221.046L574.966,221.05L574.97,221.057L574.97,221.057L574.972,221.064L574.972,221.068L574.974,221.071L574.98,221.073L574.985,221.079L574.991,221.083L574.991,221.09L574.994,221.099L575.002,221.104L575.01,221.117L575.018,221.123L575.024,221.123L575.027,221.124L575.033,221.129L575.034,221.133L575.036,221.133L575.039,221.136L575.044,221.138L575.049,221.142L575.053,221.147L575.054,221.15L575.053,221.156L575.053,221.161L575.058,221.168L575.064,221.169L575.068,221.169L575.071,221.169L575.082,221.168L575.085,221.169L575.087,221.167L575.093,221.163L575.094,221.163L575.098,221.162L575.1,221.161L575.101,221.161L575.105,221.162L575.109,221.159L575.112,221.156L575.113,221.155L575.116,221.152L575.117,221.148L575.117,221.147L575.116,221.145L575.117,221.142L575.119,221.14L575.121,221.139L575.123,221.137L575.125,221.136L575.127,221.135L575.131,221.135L575.132,221.133L575.133,221.131L575.134,221.129L575.135,221.128L575.138,221.128L575.139,221.128L575.14,221.128L575.143,221.126L575.144,221.125L575.146,221.123L575.148,221.117L575.148,221.115L575.147,221.114L575.145,221.112L575.143,221.11L575.142,221.107L575.142,221.106L575.144,221.103L575.145,221.102L575.147,221.099L575.146,221.098L575.145,221.096L575.147,221.094L575.148,221.093L575.148,221.091L575.149,221.09L575.15,221.088L575.15,221.087L575.151,221.084L575.152,221.083L575.153,221.082L575.156,221.08L575.156,221.08L575.156,221.079L575.157,221.079L575.158,221.078L575.159,221.077L575.161,221.077L575.162,221.075L575.165,221.074L575.168,221.071L575.168,221.07L575.17,221.067L575.172,221.066L575.174,221.065L575.176,221.064L575.179,221.062L575.18,221.061L575.181,221.06L575.183,221.058L575.183,221.057L575.185,221.055L575.185,221.054L575.186,221.053L575.187,221.052L575.187,221.051L575.188,221.051L575.188,221.05L575.188,221.049L575.189,221.048L575.189,221.046L575.19,221.045L575.19,221.043L575.19,221.042L575.191,221.041L575.192,221.04L575.193,221.038L575.194,221.036L575.195,221.036L575.196,221.036L575.198,221.036L575.2,221.035L575.203,221.034L575.204,221.033L575.207,221.032L575.208,221.031L575.209,221.029L575.21,221.028L575.211,221.027L575.212,221.025L575.212,221.025L575.215,221.023L575.216,221.022L575.218,221.021L575.219,221.02L575.22,221.02L575.221,221.018L575.222,221.017L575.223,221.015L575.224,221.014L575.227,221.012L575.228,221.011L575.229,221.009L575.23,221.008L575.231,221.008L575.232,221.008L575.233,221.007L575.236,221.007L575.238,221.007L575.239,221.007L575.239,221.005L575.239,221.002L575.239,221L575.24,220.999L575.24,220.998L575.24,220.997L575.24,220.997L575.241,220.995L575.241,220.994L575.241,220.993L575.241,220.993L575.241,220.991L575.241,220.99L575.24,220.989L575.24,220.988L575.241,220.986L575.241,220.985L575.242,220.984L575.243,220.982L575.244,220.98L575.245,220.979L575.246,220.978L575.247,220.977L575.248,220.976L575.249,220.975L575.25,220.975L575.253,220.974L575.253,220.974L575.254,220.973L575.256,220.972L575.257,220.97L575.257,220.969L575.258,220.966L575.259,220.965L575.26,220.964L575.261,220.963L575.262,220.963L575.263,220.964L575.264,220.964L575.266,220.966L575.268,220.968L575.269,220.968L575.272,220.969L575.274,220.97L575.275,220.97L575.276,220.971L575.278,220.971L575.281,220.97L575.282,220.97L575.284,220.97L575.286,220.969L575.286,220.968L575.287,220.962L575.289,220.961L575.292,220.957L575.292,220.953L575.293,220.95L575.295,220.945L575.295,220.943L575.297,220.941L575.299,220.934L575.299,220.933L575.3,220.931L575.301,220.93L575.303,220.928L575.304,220.927L575.306,220.925L575.307,220.924L575.309,220.923L575.31,220.923L575.312,220.922L575.32,220.915L575.321,220.915L575.323,220.914L575.324,220.914L575.324,220.912L575.324,220.909L575.325,220.907L575.325,220.906L575.324,220.905L575.324,220.903L575.324,220.902L575.324,220.902L575.324,220.9L575.324,220.9L575.324,220.899L575.323,220.898L575.323,220.897L575.323,220.896L575.323,220.896L575.323,220.894L575.323,220.892L575.323,220.891L575.323,220.889L575.322,220.887L575.323,220.886L575.323,220.884L575.323,220.882L575.323,220.881L575.323,220.88L575.323,220.879L575.323,220.877L575.323,220.875L575.323,220.873L575.324,220.873L575.324,220.872L575.323,220.871L575.322,220.871L575.321,220.87L575.32,220.869L575.319,220.868L575.318,220.868L575.317,220.868L575.317,220.868L575.317,220.867L575.316,220.867L575.316,220.868L575.315,220.868L575.314,220.868L575.312,220.868L575.31,220.868L575.308,220.869L575.306,220.87L575.305,220.872L575.304,220.872L575.303,220.873L575.302,220.873L575.301,220.873L575.301,220.873L575.3,220.871L575.3,220.868L575.299,220.867L575.299,220.866L575.298,220.866L575.297,220.865L575.295,220.865L575.295,220.864L575.295,220.863L575.295,220.862L575.294,220.862L575.294,220.861L575.294,220.86L575.293,220.86L575.292,220.86L575.292,220.86L575.292,220.86L575.291,220.859L575.29,220.858L575.288,220.859L575.288,220.859L575.287,220.859L575.287,220.859L575.286,220.858L575.285,220.858L575.283,220.857L575.282,220.856L575.282,220.853L575.277,220.85L575.272,220.848L575.268,220.849L575.26,220.848L575.255,220.845L575.247,220.845L575.227,220.844L575.214,220.84L575.208,220.838L575.186,220.837L575.171,220.835L575.159,220.834L575.145,220.83L575.141,220.824L575.141,220.824L575.14,220.815L575.141,220.814L575.144,220.804L575.144,220.803L575.149,220.793L575.149,220.793L575.148,220.788L575.145,220.78L575.144,220.769L575.144,220.768L575.145,220.767L575.145,220.767L575.145,220.767L575.145,220.766L575.145,220.766L575.145,220.766L575.144,220.766L575.144,220.765L575.144,220.765L575.143,220.764L575.143,220.764L575.142,220.764L575.142,220.763L575.142,220.763L575.142,220.763L575.142,220.762L575.142,220.762L575.142,220.762L575.142,220.762L575.141,220.761L575.141,220.761L575.141,220.761L575.141,220.761L575.141,220.76L575.141,220.76L575.141,220.759L575.141,220.759L575.141,220.759L575.141,220.758L575.14,220.758L575.14,220.758L575.141,220.758L575.141,220.757L575.14,220.757L575.14,220.757L575.14,220.756L575.14,220.756L575.14,220.756L575.14,220.756L575.139,220.755L575.14,220.755L575.139,220.755L575.139,220.755L575.139,220.754L575.139,220.754L575.138,220.754L575.138,220.754L575.137,220.754L575.136,220.753L575.136,220.753L575.137,220.752L575.137,220.752L575.137,220.752L575.136,220.751L575.136,220.751L575.136,220.751L575.136,220.751L575.136,220.75L575.136,220.75L575.136,220.75L575.136,220.749L575.136,220.749L575.136,220.749L575.136,220.749L575.137,220.748L575.137,220.749L575.137,220.748L575.138,220.748L575.138,220.748L575.138,220.748L575.137,220.748L575.137,220.747L575.137,220.747L575.138,220.747L575.138,220.746L575.138,220.746L575.138,220.745L575.139,220.745L575.139,220.745L575.139,220.745L575.14,220.744L575.14,220.744L575.14,220.743L575.14,220.743L575.14,220.742L575.14,220.742L575.14,220.74L575.14,220.739L575.139,220.738L575.139,220.738L575.139,220.737L575.138,220.735L575.137,220.735L575.137,220.734L575.137,220.734L575.136,220.733L575.135,220.732L575.135,220.731L575.134,220.731L575.134,220.73L575.134,220.73L575.134,220.73L575.134,220.729L575.133,220.728L575.133,220.728L575.132,220.728L575.132,220.728L575.132,220.728L575.132,220.728L575.132,220.727L575.132,220.727L575.132,220.726L575.131,220.726L575.131,220.726L575.13,220.725L575.131,220.725L575.131,220.724L575.13,220.724L575.13,220.723L575.13,220.722L575.13,220.721L575.13,220.72L575.129,220.719L575.128,220.718L575.127,220.717L575.127,220.716L575.126,220.716L575.126,220.716L575.126,220.716L575.125,220.716L575.125,220.716L575.124,220.716L575.124,220.716L575.125,220.716L575.124,220.714L575.124,220.714L575.123,220.713L575.124,220.712L575.123,220.711L575.122,220.71L575.122,220.708L575.121,220.707L575.121,220.707L575.121,220.706L575.121,220.705L575.121,220.704L575.121,220.703L575.121,220.703L575.121,220.702L575.121,220.702L575.12,220.702L575.12,220.701L575.12,220.7L575.119,220.699L575.12,220.699L575.12,220.698L575.121,220.697L575.122,220.696L575.123,220.696L575.123,220.695L575.123,220.694L575.123,220.694L575.123,220.693L575.123,220.692L575.124,220.69L575.124,220.69L575.124,220.687L575.125,220.686L575.127,220.685L575.129,220.684L575.13,220.684L575.13,220.683L575.13,220.681L575.131,220.68L575.132,220.68L575.132,220.679L575.133,220.679L575.133,220.678L575.134,220.677L575.134,220.677L575.136,220.677L575.137,220.676L575.137,220.675L575.137,220.674L575.137,220.672L575.136,220.671L575.136,220.67L575.136,220.669L575.136,220.669L575.137,220.668L575.137,220.668L575.137,220.667L575.136,220.667L575.136,220.666L575.136,220.666L575.136,220.666L575.135,220.665L575.137,220.664L575.137,220.663L575.137,220.662L575.137,220.661L575.137,220.66L575.138,220.659L575.138,220.657L575.139,220.657L575.139,220.656L575.14,220.656L575.14,220.655L575.14,220.654L575.14,220.654L575.14,220.653L575.14,220.653L575.14,220.652L575.14,220.651L575.141,220.651L575.142,220.651L575.143,220.65L575.143,220.648L575.145,220.648L575.145,220.646L575.145,220.643L575.146,220.643L575.147,220.643L575.147,220.642L575.148,220.641L575.148,220.64L575.149,220.64L575.149,220.639L575.149,220.639L575.15,220.638L575.15,220.636L575.15,220.636L575.149,220.635L575.149,220.635L575.149,220.635L575.15,220.635L575.151,220.634L575.151,220.635L575.152,220.635L575.152,220.635L575.153,220.633L575.153,220.633L575.153,220.631L575.153,220.63L575.153,220.629L575.152,220.628L575.153,220.628L575.152,220.627L575.152,220.626L575.152,220.626L575.153,220.625L575.153,220.624L575.152,220.624L575.152,220.624L575.152,220.623L575.152,220.623L575.152,220.623L575.152,220.622L575.152,220.622L575.152,220.621L575.153,220.621L575.154,220.62L575.154,220.62L575.154,220.62L575.155,220.62L575.155,220.619L575.155,220.619L575.155,220.619L575.154,220.618L575.154,220.618L575.154,220.618L575.154,220.617L575.154,220.616L575.155,220.616L575.156,220.615L575.156,220.615L575.157,220.613L575.157,220.613L575.157,220.612L575.157,220.611L575.158,220.61L575.158,220.61L575.157,220.609L575.157,220.608L575.156,220.608L575.156,220.606L575.156,220.605L575.156,220.605L575.156,220.605L575.156,220.604L575.156,220.604L575.156,220.603L575.155,220.602L575.155,220.602L575.154,220.602L575.154,220.601L575.154,220.601L575.154,220.601L575.154,220.6L575.153,220.599L575.153,220.599L575.153,220.599L575.152,220.598L575.152,220.598L575.151,220.598L575.15,220.597L575.15,220.597L575.149,220.597L575.149,220.596L575.148,220.595L575.148,220.594L575.148,220.593L575.148,220.593L575.148,220.591L575.148,220.59L575.147,220.59L575.147,220.589L575.147,220.589L575.146,220.588L575.145,220.587L575.144,220.586L575.144,220.584L575.144,220.583L575.144,220.583L575.142,220.582L575.142,220.581L575.141,220.58L575.14,220.578L575.139,220.577L575.139,220.577L575.139,220.577L575.138,220.577L575.138,220.577L575.137,220.577L575.137,220.577L575.136,220.577L575.135,220.576L575.134,220.574L575.133,220.573L575.134,220.572L575.134,220.571L575.133,220.57L575.133,220.57L575.132,220.571L575.132,220.572L575.131,220.572L575.131,220.572L575.13,220.57L575.129,220.57L575.129,220.569L575.13,220.568L575.13,220.568L575.129,220.567L575.128,220.567L575.128,220.567L575.127,220.567L575.127,220.566L575.127,220.566L575.127,220.564L575.126,220.563L575.126,220.562L575.126,220.561L575.126,220.56L575.125,220.56L575.125,220.56L575.124,220.561L575.123,220.559L575.123,220.558L575.123,220.557L575.123,220.556L575.123,220.555L575.123,220.554L575.123,220.552L575.122,220.551L575.122,220.55L575.121,220.549L575.12,220.548L575.12,220.547L575.12,220.546L575.119,220.545L575.118,220.543L575.119,220.539L575.119,220.538L575.118,220.537L575.117,220.535L575.116,220.535L575.115,220.534L575.114,220.533L575.114,220.533L575.115,220.533L575.115,220.532L575.116,220.531L575.117,220.531L575.119,220.53L575.121,220.528L575.121,220.527L575.121,220.526L575.122,220.525L575.122,220.525L575.119,220.523L575.119,220.522L575.119,220.522L575.12,220.521L575.121,220.521L575.121,220.52L575.122,220.519L575.123,220.519L575.123,220.518L575.122,220.518L575.122,220.517L575.121,220.517L575.12,220.517L575.12,220.517L575.119,220.516L575.119,220.515L575.117,220.511L575.117,220.51L575.115,220.508L575.116,220.506L575.115,220.505L575.116,220.503L575.115,220.502L575.115,220.501L575.115,220.501L575.115,220.5L575.115,220.5L575.116,220.5L575.116,220.499L575.117,220.497L575.117,220.496L575.116,220.495L575.116,220.494L575.117,220.492L575.116,220.491L575.115,220.488L575.118,220.487L575.118,220.487L575.118,220.486L575.12,220.483L575.12,220.482L575.122,220.48L575.123,220.479L575.122,220.475L575.124,220.473L575.127,220.473L575.128,220.473L575.128,220.471L575.129,220.466L575.129,220.466L575.129,220.465L575.129,220.464L575.13,220.461L575.129,220.459L575.13,220.451L575.133,220.449L575.134,220.449L575.135,220.449L575.136,220.447L575.135,220.444L575.135,220.442L575.139,220.439L575.14,220.437L575.14,220.435L575.139,220.434L575.14,220.432L575.141,220.432L575.142,220.434L575.142,220.434L575.144,220.435L575.145,220.435L575.146,220.435L575.145,220.433L575.144,220.432L575.144,220.431L575.145,220.43L575.144,220.427L575.145,220.425L575.146,220.425L575.147,220.425L575.149,220.425L575.15,220.426L575.15,220.427L575.151,220.426L575.152,220.426L575.152,220.424ZM800,0L800,12.246L800,78.668L800,145.789L800,215.835L800,261.497L800,300L800,338.503L800,384.165L800,454.211L800,600L800,600L200,600L200,600L200,454.211L200,384.165L200,338.503L200,300L200,261.497L200,215.835L200,145.789L200,78.668L200,12.246L200,0L200,0L800,0Z"/>
<path d="M574.675,220.089m0,4.5a4.5,4.5 0 1,1 0,-9a4.5,4.5 0 1,1 0,9z"/>
<path d="M574.966,220.092m0,4.5a4.5,4.5 0 1,1 0,-9a4.5,4.5 0 1,1 0,9z"/>
</svg>