<?xml version="1.0" encoding="UTF-8"?>
<svg xmlns="http://www.w3.org/2000/svg" viewBox="0 0 1000 600" stroke="#000" stroke-width="0.3" fill="#ccc">
<path d="M734.912,212.585L734.908,212.596L734.903,212.607L734.899,212.619L734.896,212.631L734.892,212.642L734.889,212.654L734.886,212.666L734.883,212.678L734.882,212.687L734.88,212.696L734.879,212.705L734.878,212.714L734.877,212.723L734.876,212.733L734.875,212.742L734.874,212.754L734.874,212.763L734.874,212.775L734.874,212.787L734.873,212.801L734.872,212.813L734.871,212.825L734.87,212.837L734.87,212.85L734.87,212.862L734.871,212.874L734.871,212.883L734.871,212.898L734.871,212.91L734.871,212.922L734.872,212.938L734.873,212.95L734.875,212.962L734.877,212.977L734.879,212.989L734.881,213.001L734.884,213.013L734.887,213.028L734.891,213.04L734.894,213.051L734.898,213.063L734.902,213.074L734.907,213.086L734.912,213.097L734.917,213.108L734.922,213.119L734.929,213.133L734.935,213.143L734.941,213.154L734.948,213.164L734.955,213.174L734.962,213.184L734.969,213.194L734.976,213.204L734.984,213.213L734.992,213.222L735,213.231L735.009,213.24L735.026,213.257L735.034,213.266L735.043,213.274L735.055,213.284L735.064,213.291L735.074,213.299L735.084,213.306L735.094,213.313L735.104,213.32L735.114,213.326L735.125,213.332L735.138,213.34L735.149,213.345L735.157,213.349L735.17,213.355L735.176,213.358L735.184,213.362L735.195,213.367L735.207,213.371L735.218,213.376L735.229,213.38L735.241,213.384L735.253,213.387L735.267,213.391L735.279,213.394L735.291,213.396L735.303,213.399L735.315,213.4L735.327,213.402L735.339,213.403L735.351,213.404L735.366,213.405L735.378,213.405L735.39,213.405L735.403,213.405L735.415,213.404L735.427,213.403L735.436,213.403L735.448,213.401L735.46,213.399L735.472,213.397L735.484,213.395L735.493,213.393L735.505,213.39L735.516,213.387L735.528,213.383L735.539,213.379L735.551,213.375L735.559,213.372L735.571,213.367L735.582,213.362L735.593,213.357L735.604,213.352L735.612,213.348L735.622,213.342L735.633,213.335L735.641,213.33L735.653,213.325L735.664,213.32L735.674,213.314L735.685,213.308L735.696,213.302L735.706,213.296L735.716,213.289L735.726,213.282L735.736,213.275L735.748,213.266L735.76,213.256L735.771,213.246L735.782,213.236L735.793,213.225L735.804,213.214L735.814,213.203L735.822,213.193L735.829,213.184L735.836,213.174L735.844,213.164L735.85,213.154L735.857,213.144L735.863,213.133L735.871,213.12L735.876,213.109L735.882,213.098L735.888,213.085L735.893,213.074L735.897,213.063L735.902,213.051L735.906,213.04L735.909,213.028L735.913,213.017L735.915,213.008L735.918,212.996L735.92,212.987L735.922,212.975L735.924,212.963L735.926,212.951L735.927,212.942L735.928,212.926L735.929,212.911L735.93,212.902L735.93,212.89L735.93,212.881L735.93,212.871L735.931,212.857L735.932,212.841L735.933,212.826L735.933,212.811L735.933,212.808L735.933,212.795L735.932,212.78L735.931,212.765L735.929,212.753L735.927,212.738L735.925,212.726L735.922,212.711L735.919,212.696L735.916,212.684L735.911,212.669L735.907,212.657L735.902,212.643L735.897,212.629L735.891,212.615L735.884,212.601L735.879,212.59L735.873,212.579L735.867,212.568L735.859,212.555L735.852,212.545L735.845,212.535L735.838,212.525L735.831,212.515L735.821,212.503L735.815,212.496L735.809,212.49L735.798,212.478L735.792,212.472L735.783,212.463L735.774,212.455L735.765,212.447L735.755,212.435L735.749,212.428L735.743,212.421L735.737,212.415L735.73,212.408L735.724,212.402L735.717,212.396L735.708,212.387L735.699,212.379L735.689,212.372L735.679,212.364L735.669,212.357L735.659,212.35L735.646,212.342L735.636,212.335L735.625,212.329L735.614,212.323L735.603,212.318L735.592,212.312L735.581,212.307L735.569,212.303L735.556,212.298L735.544,212.293L735.532,212.29L735.52,212.286L735.508,212.283L735.496,212.28L735.484,212.278L735.472,212.276L735.458,212.273L735.445,212.272L735.433,212.271L735.421,212.27L735.409,212.269L735.396,212.269L735.384,212.269L735.371,212.269L735.359,212.27L735.346,212.271L735.331,212.273L735.316,212.275L735.301,212.277L735.289,212.28L735.277,212.283L735.262,212.287L735.248,212.291L735.236,212.295L735.224,212.299L735.213,212.303L735.199,212.309L735.188,212.314L735.174,212.321L735.16,212.328L735.152,212.332L735.144,212.336L735.133,212.342L735.125,212.346L735.112,212.354L735.1,212.362L735.09,212.369L735.08,212.376L735.07,212.383L735.06,212.39L735.05,212.398L735.039,212.408L735.028,212.418L735.019,212.427L735.01,212.436L735.002,212.445L734.994,212.454L734.986,212.463L734.978,212.473L734.968,212.486L734.961,212.496L734.954,212.506L734.948,212.517L734.94,212.53L734.934,212.54L734.928,212.551L734.922,212.562L734.917,212.573ZM800,0L800,12.246L800,78.668L800,145.789L800,215.835L800,261.497L800,300L800,338.503L800,384.165L800,454.211L800,600L800,600L200,600L200,600L200,454.211L200,384.165L200,338.503L200,300L200,261.497L200,215.835L200,145.789L200,78.668L200,12.246L200,0L200,0L800,0ZM757.989,203.922L757.977,203.873L757.95,203.808L757.921,203.741L757.879,203.673L757.825,203.612L757.764,203.56L757.716,203.531L757.667,203.502L757.592,203.472L757.513,203.454L757.487,203.449L757.431,203.444L757.415,203.443L757.361,203.444L757.307,203.45L757.255,203.462L757.204,203.48L757.171,203.493L757.136,203.508L757.102,203.526L757.09,203.534L757.053,203.557L757.019,203.583L757.003,203.596L756.978,203.62L756.973,203.624L756.937,203.663L756.905,203.706L756.877,203.751L756.855,203.8L756.837,203.85L756.828,203.881L756.821,203.91L756.817,203.926L756.809,203.963L756.802,204.007L756.798,204.051L756.796,204.105L756.796,204.119L756.797,204.169L756.804,204.219L756.816,204.269L756.832,204.316L756.853,204.362L756.878,204.406L756.907,204.447L756.941,204.485L756.977,204.522L757.008,204.548L757.105,204.613L757.175,204.655L757.25,204.685L757.33,204.704L757.295,204.765L757.252,204.866L757.226,204.911L757.197,204.986L757.179,205.064L757.173,205.147L757.178,205.202L757.117,205.241L757.056,205.294L757.005,205.356L756.964,205.423L756.935,205.497L756.917,205.575L756.912,205.655L756.915,205.702L756.829,205.667L756.724,205.636L756.647,205.619L756.571,205.614L756.518,205.617L756.488,205.622L756.458,205.627L756.207,205.733L756.193,205.716L756.132,205.665L756.063,205.624L756.025,205.607L755.966,205.584L755.928,205.575L755.92,205.574L755.894,205.569L755.868,205.565L755.815,205.562L755.762,205.565L755.71,205.573L755.687,205.578L755.638,205.59L755.591,205.608L755.545,205.63L755.503,205.657L755.462,205.688L755.426,205.723L755.392,205.761L755.363,205.802L755.338,205.846L755.331,205.861L755.307,205.917L755.29,205.976L755.287,205.989L755.283,206.007L755.282,206.013L755.275,206.064L755.275,206.068L755.273,206.122L755.277,206.176L755.287,206.23L755.302,206.282L755.323,206.332L755.329,206.343L755.351,206.384L755.377,206.423L755.406,206.46L755.439,206.493L755.475,206.524L755.513,206.551L755.581,206.592L755.655,206.621L755.733,206.639L755.812,206.645L755.891,206.637L755.968,206.618L756.042,206.587L756.113,206.542L756.137,206.569L756.127,206.615L756.123,206.663L756.12,206.717L756.125,206.773L756.062,206.827L756.011,206.888L755.971,206.955L755.942,207.026L755.925,207.095L755.907,207.173L755.902,207.251L755.909,207.329L755.928,207.406L755.959,207.478L756,207.545L756.052,207.604L756.113,207.655L756.173,207.692L756.217,207.713L756.262,207.729L756.309,207.74L756.356,207.747L756.404,207.75L756.452,207.748L756.5,207.741L756.547,207.73L756.592,207.714L756.636,207.694L756.677,207.67L756.717,207.642L756.753,207.61L756.786,207.575L756.827,207.528L756.856,207.491L756.881,207.451L756.897,207.422L756.926,207.347L756.944,207.27L756.95,207.194L756.988,207.17L757.062,207.112L757.122,207.059L757.173,206.998L757.201,206.952L757.265,206.911L757.324,206.86L757.352,206.827L757.384,206.788L757.397,206.772L757.432,206.72L757.457,206.675L757.5,206.576L757.53,206.502L757.555,206.384L757.615,206.377L757.691,206.358L757.863,206.284L757.882,206.274L757.918,206.252L757.953,206.228L758.015,206.172L758.068,206.109L758.11,206.041L758.129,206.006L758.158,205.931L758.175,205.853L758.179,205.809L758.219,205.791L758.288,205.748L758.351,205.703L758.411,205.651L758.444,205.613L758.474,205.571L758.5,205.526L758.521,205.478L758.546,205.413L758.563,205.361L758.59,205.234L758.595,205.154L758.588,205.074L758.569,204.994L758.616,204.914L758.647,204.841L758.69,204.662L758.704,204.612L758.713,204.562L758.717,204.511L758.717,204.508L758.717,204.46L758.711,204.413L758.693,204.331L758.661,204.256L758.617,204.185L758.563,204.124L758.501,204.073L758.432,204.031L758.349,203.998L758.3,203.969L758.225,203.939L758.147,203.921L758.066,203.916L758.024,203.919ZM800,0L800,12.246L800,78.668L800,145.789L800,215.835L800,261.497L800,300L800,338.503L800,384.165L800,454.211L800,600L800,600L200,600L200,600L200,454.211L200,384.165L200,338.503L200,300L200,261.497L200,215.835L200,145.789L200,78.668L200,12.246L200,0L200,0L800,0ZM753.529,210.16L753.509,210.167L753.443,210.196L753.378,210.236L753.321,210.286L753.277,210.335L753.242,210.377L753.212,210.423L753.174,210.487L753.159,210.509L753.146,210.53L753.138,210.543L753.115,210.584L753.109,210.596L753.091,210.623L753.045,210.684L753.019,210.72L752.988,210.737L752.925,210.776L752.877,210.817L752.626,210.962L752.573,211.004L752.563,211.012L752.512,211.058L752.511,211.059L752.48,211.094L752.453,211.133L752.435,211.16L752.412,211.201L752.392,211.243L752.377,211.288L752.366,211.334L752.359,211.38L752.359,211.386L752.357,211.432L752.359,211.477L752.366,211.522L752.376,211.567L752.391,211.61L752.41,211.651L752.431,211.692L752.438,211.711L752.457,211.756L752.481,211.798L752.483,211.801L752.518,211.851L752.529,211.864L752.563,211.902L752.575,211.914L752.604,211.94L752.619,211.953L752.666,211.988L752.716,212.017L752.726,212.021L752.769,212.04L752.787,212.047L752.854,212.067L752.87,212.071L752.914,212.078L752.937,212.082L752.983,212.085L753.029,212.085L753.075,212.08L753.12,212.07L753.164,212.057L753.207,212.039L753.233,212.026L753.27,212.007L753.306,211.985L753.339,211.96L753.37,211.932L753.376,211.926L753.406,211.894L753.406,211.894L753.45,211.843L753.458,211.834L753.495,211.789L753.526,211.768L753.604,211.713L753.636,211.693L753.671,211.669L753.695,211.649L753.729,211.617L753.76,211.582L753.782,211.554L753.823,211.487L753.86,211.461L753.918,211.411L753.967,211.352L754.006,211.287L754.054,211.169L754.088,211.146L754.143,211.097L754.192,211.038L754.232,210.973L754.26,210.901L754.281,210.831L754.291,210.791L754.325,210.78L754.381,210.755L754.449,210.714L754.499,210.683L754.541,210.649L754.575,210.618L754.624,210.559L754.664,210.493L754.693,210.421L754.724,210.341L754.735,210.298L754.781,210.292L754.856,210.274L754.927,210.243L754.993,210.202L755.028,210.173L755.046,210.156L755.049,210.153L755.052,210.15L755.081,210.119L755.108,210.086L755.131,210.05L755.193,209.928L755.222,209.856L755.244,209.769L755.333,209.705L755.396,209.654L755.462,209.58L755.488,209.542L755.511,209.502L755.524,209.475L755.543,209.432L755.557,209.389L755.573,209.322L755.592,209.191L755.597,209.11L755.591,209.033L755.573,208.965L755.627,208.95L755.7,208.919L755.766,208.877L755.825,208.827L755.874,208.767L755.92,208.69L755.937,208.648L755.948,208.613L755.972,208.541L755.985,208.491L755.994,208.44L755.997,208.388L755.989,208.3L755.97,208.224L755.939,208.152L755.892,208.076L755.927,207.99L755.943,207.914L755.949,207.835L755.942,207.758L755.931,207.71L755.917,207.661L755.886,207.588L755.845,207.522L755.792,207.463L755.733,207.413L755.664,207.372L755.592,207.343L755.516,207.325L755.458,207.316L755.411,207.315L755.393,207.315L755.345,207.318L755.299,207.325L755.253,207.337L755.208,207.353L755.165,207.374L755.125,207.398L755.086,207.426L755.051,207.458L755.019,207.492L755.012,207.501L754.983,207.538L754.958,207.579L754.936,207.622L754.911,207.692L754.893,207.769L754.887,207.847L754.894,207.925L754.901,207.953L754.865,207.996L754.824,208.064L754.795,208.137L754.778,208.212L754.774,208.261L754.772,208.291L754.773,208.317L754.778,208.368L754.779,208.396L754.786,208.474L754.805,208.55L754.833,208.616L754.784,208.638L754.717,208.679L754.659,208.73L754.624,208.769L754.591,208.817L754.589,208.82L754.551,208.879L754.538,208.9L754.529,208.917L754.513,208.948L754.502,208.971L754.484,209.012L754.471,209.055L754.461,209.098L754.456,209.169L754.443,209.234L754.439,209.294L754.35,209.364L754.293,209.414L754.243,209.473L754.204,209.54L754.171,209.623L754.076,209.616L753.998,209.623L753.928,209.639L753.88,209.658L753.834,209.681L753.829,209.684L753.786,209.712L753.765,209.727L753.734,209.751L753.73,209.754L753.693,209.79L753.672,209.811L753.643,209.845L753.617,209.881L753.594,209.92L753.576,209.958L753.55,210.03L753.532,210.105ZM800,0L800,12.246L800,78.668L800,145.789L800,215.835L800,261.497L800,300L800,338.503L800,384.165L800,454.211L800,600L800,600L200,600L200,600L200,454.211L200,384.165L200,338.503L200,300L200,261.497L200,215.835L200,145.789L200,78.668L200,12.246L200,0L200,0L800,0ZM761.338,201.696L761.184,201.48L760.975,201.259L760.819,201.062L760.7,200.855L760.639,200.709L760.579,200.733L760.548,200.75L760.515,200.759L760.447,200.783L760.37,200.815L760.3,200.859L760.238,200.914L760.192,200.963L760.139,200.955L760.055,200.95L759.972,200.957L759.935,200.962L759.899,200.888L759.855,200.818L759.8,200.755L759.738,200.702L759.712,200.682L759.673,200.658L759.661,200.652L759.642,200.642L759.622,200.632L759.619,200.631L759.59,200.619L759.584,200.617L759.569,200.611L759.548,200.604L759.532,200.599L759.432,200.57L759.39,200.56L759.346,200.553L759.325,200.551L759.325,200.551L759.261,200.545L759.217,200.544L759.174,200.546L759.13,200.551L759.108,200.555L759.088,200.559L759.024,200.572L758.975,200.585L758.928,200.602L758.882,200.624L758.839,200.65L758.83,200.656L758.79,200.686L758.753,200.718L758.72,200.755L758.69,200.794L758.664,200.835L758.642,200.879L758.624,200.925L758.597,201.004L758.583,201.054L758.573,201.106L758.569,201.158L758.569,201.161L758.571,201.22L758.571,201.226L758.578,201.28L758.591,201.333L758.609,201.384L758.618,201.406L758.64,201.47L758.652,201.502L758.653,201.505L758.677,201.557L758.707,201.605L758.742,201.65L758.781,201.691L758.833,201.736L758.848,201.753L758.912,201.805L758.982,201.847L759.059,201.878L759.14,201.897L759.16,201.901L759.128,201.982L759.058,202.012L759.02,202.035L758.939,202.053L758.886,202.071L758.836,202.092L758.795,202.112L758.759,202.136L758.667,202.176L758.609,202.186L758.559,202.202L758.501,202.226L758.452,202.251L758.375,202.3L758.315,202.354L758.265,202.411L758.21,202.417L758.132,202.437L758.056,202.469L758.005,202.5L757.977,202.516L757.937,202.545L757.893,202.584L757.861,202.621L757.833,202.659L757.813,202.689L757.789,202.734L757.772,202.773L757.76,202.809L757.748,202.857L757.74,202.905L757.736,202.955L757.738,203.014L757.747,203.072L757.762,203.132L757.794,203.206L757.817,203.249L757.86,203.317L757.913,203.379L757.976,203.431L758.046,203.473L758.122,203.503L758.201,203.522L758.216,203.523L758.248,203.6L758.291,203.669L758.345,203.73L758.406,203.782L758.477,203.824L758.552,203.854L758.604,203.868L758.672,203.924L758.741,203.966L758.817,203.996L758.896,204.014L758.978,204.02L759.053,204.013L759.1,204.003L759.146,203.989L759.19,203.971L759.233,203.949L759.273,203.923L759.309,203.897L759.339,203.875L759.368,203.849L759.399,203.82L759.435,203.782L759.468,203.74L759.509,203.673L759.54,203.598L759.551,203.554L759.573,203.539L759.676,203.531L759.756,203.51L759.809,203.491L759.859,203.47L759.9,203.451L759.939,203.428L759.976,203.401L760.011,203.372L760.167,203.227L760.2,203.193L760.23,203.156L760.257,203.117L760.28,203.075L760.284,203.066L760.32,203.002L760.338,202.967L760.383,202.876L760.387,202.867L760.388,202.868L760.408,202.833L760.46,202.771L760.496,202.709L760.53,202.706L760.61,202.686L760.686,202.654L760.731,202.632L760.8,202.588L760.862,202.535L760.915,202.471L760.957,202.4L760.987,202.325L761.006,202.244L761.04,202.214L761.076,202.179L761.107,202.141L761.135,202.1L761.159,202.057L761.23,201.913L761.265,201.849L761.281,201.818L761.293,201.792ZM800,0L800,12.246L800,78.668L800,145.789L800,215.835L800,261.497L800,300L800,338.503L800,384.165L800,454.211L800,600L800,600L200,600L200,600L200,454.211L200,384.165L200,338.503L200,300L200,261.497L200,215.835L200,145.789L200,78.668L200,12.246L200,0L200,0L800,0ZM742.506,217.916L742.485,217.943L742.475,217.952L742.424,218.007L742.411,218.021L742.401,218.047L742.345,218.132L742.327,218.151L742.308,218.174L742.276,218.208L742.238,218.258L742.202,218.3L742.196,218.311L742.174,218.334L742.15,218.36L742.127,218.392L742.113,218.421L742.088,218.478L742.083,218.512L742.076,218.567L742.074,218.592L742.072,218.67L742.072,218.676L742.086,218.707L742.089,218.732L742.093,218.747L742.107,218.792L742.124,218.812L742.153,218.846L742.186,218.876L742.21,218.896L742.218,218.902L742.248,218.926L742.299,218.962L742.306,218.967L742.344,218.992L742.383,219.014L742.388,219.027L742.399,219.05L742.406,219.064L742.422,219.096L742.433,219.115L742.519,219.252L742.552,219.306L742.751,219.246L742.821,219.223L742.824,219.23L742.947,219.396L742.958,219.412L742.989,219.453L743.024,219.486L743.036,219.493L743.045,219.526L743.047,219.534L743.058,219.564L743.064,219.58L743.069,219.593L743.071,219.598L743.071,219.599L743.073,219.604L743.078,219.616L743.086,219.624L743.097,219.647L743.108,219.694L743.132,219.762L743.164,219.833L743.164,219.86L743.193,220.121L743.219,220.131L743.289,220.147L743.361,220.152L743.432,220.146L743.502,220.128L743.568,220.1L743.629,220.062L743.683,220.015L743.712,219.98L743.744,219.972L743.81,219.944L743.871,219.906L743.925,219.858L743.971,219.803L744.009,219.753L744.05,219.684L744.07,219.634L744.215,219.599L744.28,219.571L744.341,219.532L744.396,219.485L744.442,219.43L744.479,219.368L744.5,219.317L744.605,219.29L744.656,219.269L744.837,219.186L744.854,219.178L744.885,219.162L744.89,219.159L744.925,219.138L744.958,219.113L745.136,218.968L745.173,218.934L745.205,218.897L745.234,218.857L745.248,218.834L745.27,218.796L745.288,218.756L745.302,218.715L745.312,218.672L745.319,218.633L745.326,218.584L745.327,218.535L745.323,218.485L745.313,218.437L745.299,218.389L745.291,218.367L745.27,218.319L745.243,218.273L745.227,218.248L745.178,218.191L745.122,218.145L745.006,218.053L744.944,218.016L744.876,217.989L744.806,217.973L744.774,217.968L744.702,217.964L744.63,217.97L744.558,217.987L744.513,218.002L744.136,218.178L744.076,218.216L744.034,218.25L743.98,218.297L743.933,218.353L743.896,218.415L743.869,218.482L743.861,218.515L743.847,218.515L743.775,218.521L743.705,218.539L743.639,218.567L743.578,218.606L743.531,218.646L743.506,218.662L743.454,218.708L743.408,218.763L743.395,218.784L743.326,218.812L743.26,218.84L743.223,218.862L743.16,218.901L743.098,218.956L743.069,218.96L743.049,218.965L743.071,218.787L743.177,218.739L743.239,218.701L743.294,218.653L743.34,218.597L743.562,218.316L743.719,218.117L744.324,217.782L744.373,217.761L744.434,217.723L744.49,217.674L744.556,217.614L744.59,217.574L744.712,217.622L744.783,217.638L744.842,217.647L744.915,217.652L744.988,217.645L745.059,217.627L745.145,217.591L745.213,217.548L745.268,217.5L745.317,217.448L745.364,217.391L745.401,217.329L745.408,217.313L745.565,217.266L745.627,217.226L745.683,217.177L745.759,217.109L745.791,217.077L745.821,217.041L745.846,217.003L745.848,217L745.866,216.968L745.882,216.933L745.91,216.863L745.933,216.836L746.074,216.739L746.101,216.72L746.109,216.714L746.204,216.64L746.216,216.631L746.234,216.615L746.265,216.588L746.266,216.587L746.3,216.549L746.356,216.481L746.397,216.426L746.487,216.403L746.57,216.393L746.628,216.381L746.632,216.38L746.676,216.365L746.717,216.347L746.757,216.325L746.762,216.322L746.806,216.291L746.823,216.277L746.913,216.21L746.933,216.194L746.939,216.189L746.97,216.161L746.999,216.13L747.025,216.096L747.04,216.072L747.041,216.072L747.051,216.056L747.101,216L747.191,215.918L747.26,215.869L747.348,215.808L747.386,215.782L747.417,215.755L747.491,215.736L747.573,215.715L747.646,215.696L747.714,215.667L747.777,215.628L747.833,215.579L747.868,215.539L747.957,215.547L748.035,215.541L748.106,215.523L748.203,215.495L748.245,215.48L748.286,215.462L748.325,215.439L748.361,215.414L748.395,215.384L748.426,215.352L748.427,215.35L748.455,215.315L748.48,215.277L748.49,215.259L748.518,215.205L748.546,215.137L748.548,215.134L748.569,215.088L748.576,215.064L748.599,214.972L748.603,214.897L748.6,214.846L748.606,214.827L748.622,214.757L748.677,214.82L748.735,214.868L748.799,214.906L748.868,214.934L748.941,214.951L749.014,214.951L749.02,214.952L749.148,214.956L749.198,214.957L749.246,214.956L749.293,214.95L749.34,214.94L749.385,214.924L749.428,214.904L749.503,214.866L749.524,214.854L749.592,214.814L749.599,214.812L749.619,214.802L749.644,214.79L749.686,214.767L749.727,214.739L749.736,214.732L749.769,214.704L749.8,214.673L749.831,214.637L749.881,214.586L749.899,214.565L749.936,214.528L749.961,214.5L750.03,214.428L750.109,214.367L750.179,214.332L750.206,214.323L750.251,214.303L750.294,214.278L750.335,214.249L750.372,214.216L750.436,214.152L750.497,214.106L750.54,214.069L750.579,214.027L750.594,214.009L750.664,213.936L750.696,213.898L750.725,213.857L750.727,213.853L750.893,213.593L750.919,213.56L750.984,213.512L751.017,213.485L751.022,213.48L751.078,213.429L751.128,213.387L751.168,213.358L751.248,213.311L751.28,213.293L751.306,213.275L751.363,213.226L751.411,213.168L751.45,213.103L751.478,213.033L751.495,212.96L751.502,212.86L751.562,212.842L751.632,212.813L751.696,212.772L751.753,212.722L751.801,212.665L751.841,212.599L751.862,212.547L751.902,212.499L751.918,212.472L751.937,212.437L751.963,212.386L751.982,212.341L751.998,212.294L752.008,212.245L752.013,212.196L752.013,212.147L752.009,212.097L751.999,212.049L751.984,212.001L751.98,211.991L751.965,211.954L751.946,211.918L751.909,211.861L751.86,211.804L751.794,211.749L751.737,211.715L751.729,211.628L751.708,211.543L751.681,211.48L751.658,211.439L751.65,211.426L751.627,211.393L751.602,211.362L751.574,211.333L751.569,211.328L751.534,211.298L751.496,211.271L751.456,211.248L751.414,211.229L751.37,211.214L751.337,211.204L751.287,211.192L751.236,211.186L751.185,211.185L751.134,211.19L751.084,211.199L751.035,211.215L751.033,211.215L750.991,211.233L750.952,211.254L750.914,211.279L750.879,211.307L750.847,211.339L750.832,211.355L750.802,211.39L750.776,211.427L750.753,211.467L750.734,211.509L750.72,211.552L750.709,211.597L750.706,211.615L750.698,211.668L750.697,211.722L750.697,211.729L750.702,211.778L750.711,211.827L750.72,211.867L750.75,211.937L750.769,211.969L750.79,212.002L750.81,212.03L750.87,212.098L750.836,212.179L750.816,212.271L750.81,212.355L750.817,212.435L750.758,212.44L750.728,212.434L750.653,212.429L750.578,212.435L750.513,212.437L750.44,212.444L750.407,212.451L750.365,212.462L750.325,212.48L750.294,212.493L750.233,212.524L750.172,212.555L750.111,212.585L750.05,212.616L749.985,212.669L749.919,212.722L749.854,212.775L749.788,212.828L749.723,212.881L749.657,212.934L749.598,212.991L749.538,213.048L749.478,213.106L749.418,213.163L749.358,213.22L749.298,213.278L749.238,213.335L749.179,213.392L749.119,213.45L749.059,213.507L749.037,213.54L749.016,213.574L748.994,213.607L748.972,213.64L748.944,213.684L748.915,213.723L748.893,213.76L748.876,213.789L748.849,213.854L748.757,213.933L748.727,213.962L748.699,213.994L748.684,214.015L748.632,214.101L748.6,214.146L748.562,214.21L748.522,214.306L748.397,214.191L748.34,214.143L748.275,214.104L748.257,214.096L748.209,214.078L748.16,214.065L748.11,214.057L748.086,214.055L748.06,214.051L748.033,214.046L747.996,214.043L747.942,214.041L747.931,214.04L747.929,214.04L747.885,214.041L747.841,214.047L747.798,214.056L747.637,214.099L747.585,214.115L747.536,214.138L747.489,214.166L747.485,214.169L747.44,214.205L747.316,214.314L747.276,214.354L747.235,214.401L747.19,214.445L747.141,214.503L747.092,214.564L747.042,214.645L746.995,214.567L746.94,214.503L746.883,214.455L746.824,214.414L746.747,214.369L746.716,214.355L746.674,214.341L746.631,214.33L746.587,214.324L746.543,214.322L746.499,214.324L746.455,214.33L746.448,214.331L746.408,214.341L746.368,214.354L746.33,214.371L746.293,214.391L746.263,214.409L746.217,214.44L746.174,214.477L746.166,214.485L746.141,214.512L746.118,214.541L746.09,214.577L746.061,214.617L746.053,214.631L746.033,214.665L746.016,214.701L746.005,214.728L745.989,214.756L745.964,214.806L745.838,215.056L745.675,215.117L745.665,215.12L745.625,215.139L745.587,215.161L745.551,215.187L745.537,215.198L745.504,215.227L745.473,215.258L745.439,215.301L745.415,215.338L745.394,215.377L745.377,215.417L745.365,215.459L745.353,215.51L745.348,215.585L745.353,215.656L745.35,215.66L745.277,215.691L745.236,215.717L745.208,215.735L745.067,215.792L745.034,215.802L744.974,215.828L744.938,215.848L744.905,215.871L744.9,215.875L744.857,215.912L744.818,215.954L744.807,215.967L744.779,216.006L744.755,216.047L744.729,216.094L744.641,216.307L744.624,216.324L744.607,216.342L744.56,216.396L744.532,216.43L744.494,216.493L744.448,216.603L744.433,216.649L744.367,216.637L744.298,216.633L744.229,216.64L744.162,216.657L744.098,216.683L744.039,216.718L743.945,216.637L743.865,216.573L743.826,216.551L743.785,216.533L743.743,216.518L743.699,216.508L743.654,216.502L743.648,216.502L743.594,216.501L743.541,216.506L743.489,216.517L743.451,216.527L743.436,216.531L743.422,216.535L743.374,216.553L743.328,216.576L743.322,216.579L743.286,216.602L743.252,216.628L743.246,216.633L743.212,216.665L743.202,216.675L743.175,216.699L743.139,216.736L743.126,216.75L743.087,216.801L743.077,216.816L743.047,216.868L743.014,216.949L742.963,217.009L742.926,217.073L742.899,217.141L742.885,217.202L742.838,217.244L742.812,217.27L742.766,217.324L742.723,217.394L742.72,217.405L742.708,217.49L742.693,217.526L742.683,217.554L742.648,217.651L742.638,217.673L742.629,217.69L742.595,217.749L742.579,217.784L742.555,217.828L742.535,217.866ZM800,0L800,12.246L800,78.668L800,145.789L800,215.835L800,261.497L800,300L800,338.503L800,384.165L800,454.211L800,600L800,600L200,600L200,600L200,454.211L200,384.165L200,338.503L200,300L200,261.497L200,215.835L200,145.789L200,78.668L200,12.246L200,0L200,0L800,0ZM739.439,195.988L739.444,195.939L739.444,195.889L739.439,195.839L739.43,195.791L739.419,195.743L739.416,195.704L739.416,195.696L739.413,195.645L739.41,195.621L739.406,195.588L739.402,195.564L739.398,195.541L739.395,195.525L739.39,195.492L739.385,195.444L739.382,195.423L739.379,195.396L739.377,195.381L739.373,195.351L739.371,195.345L739.368,195.317L739.366,195.297L739.362,195.27L739.361,195.259L739.36,195.25L739.358,195.223L739.356,195.206L739.35,195.156L739.347,195.125L739.345,195.103L739.343,195.093L739.341,195.074L739.337,195.051L739.334,195.026L739.331,195.005L739.326,194.964L739.323,194.937L739.321,194.923L739.318,194.903L739.317,194.896L739.314,194.881L739.309,194.855L739.303,194.829L739.301,194.812L739.299,194.797L739.296,194.777L739.293,194.76L739.283,194.71L739.278,194.688L739.263,194.626L739.239,194.524L739.233,194.496L739.224,194.462L739.22,194.445L739.203,194.385L739.177,194.3L739.17,194.276L739.167,194.267L739.16,194.246L739.151,194.221L739.143,194.199L739.135,194.172L739.129,194.154L739.123,194.136L739.104,194.081L739.096,194.058L739.087,194.035L739.083,194.024L739.074,194L739.071,193.995L739.065,193.977L739.058,193.954L739.039,193.906L739.031,193.889L739.029,193.883L739.013,193.838L738.977,193.742L738.969,193.718L738.959,193.692L738.944,193.649L738.936,193.627L738.924,193.597L738.916,193.574L738.906,193.548L738.895,193.518L738.878,193.468L738.867,193.44L738.85,193.399L738.84,193.369L738.834,193.35L738.827,193.332L738.816,193.298L738.8,193.257L738.798,193.253L738.793,193.24L738.786,193.218L738.774,193.188L738.769,193.173L738.766,193.165L738.749,193.114L738.743,193.092L738.739,193.075L738.734,193.055L738.828,192.74L738.829,192.737L738.847,192.675L738.854,192.644L738.864,192.606L738.869,192.589L738.878,192.556L738.88,192.545L738.889,192.492L738.894,192.439L738.893,192.386L738.893,192.379L738.887,192.324L738.872,192.233L738.864,192.19L738.852,192.148L738.847,192.132L738.842,192.117L738.839,192.107L738.834,192.092L738.82,192.054L738.803,192.011L738.781,191.969L738.769,191.947L738.743,191.905L738.7,191.842L738.647,191.747L738.641,191.736L738.604,191.68L738.58,191.648L738.501,191.488L738.489,191.448L738.475,191.41L738.408,191.24L738.393,191.205L738.392,191.203L738.366,191.154L738.335,191.108L738.299,191.065L738.26,191.025L738.217,190.99L738.171,190.959L738.122,190.932L738.089,190.916L738.042,190.896L737.993,190.881L737.944,190.87L737.892,190.863L737.831,190.86L737.77,190.865L737.744,190.868L737.717,190.872L737.664,190.884L737.612,190.901L737.562,190.922L737.515,190.948L737.47,190.979L737.467,190.981L737.461,190.986L737.407,191.031L737.344,191.094L737.288,191.166L737.27,191.197L737.186,191.184L737.092,191.182L737.005,191.196L736.919,191.221L736.883,191.236L736.833,191.26L736.83,191.262L736.795,191.283L736.741,191.323L736.738,191.325L736.696,191.363L736.658,191.406L736.625,191.452L736.621,191.458L736.59,191.511L736.565,191.567L736.546,191.626L736.545,191.631L736.534,191.68L736.528,191.729L736.526,191.779L736.526,191.786L736.53,191.847L736.54,191.907L736.556,191.966L736.56,191.976L736.582,192.032L736.611,192.086L736.645,192.137L736.662,192.159L736.664,192.161L736.704,192.204L736.716,192.215L736.822,192.394L736.839,192.437L736.852,192.466L736.883,192.523L736.917,192.58L736.96,192.641L736.968,192.651L737.015,192.702L737.034,192.721L737.085,192.786L737.09,192.794L737.115,192.831L737.143,192.866L737.16,192.887L737.183,192.916L737.247,192.984L737.19,193.086L736.81,193.428L736.729,193.468L736.721,193.472L736.681,193.49L736.639,193.51L736.619,193.521L736.609,193.526L736.525,193.57L736.508,193.578L736.468,193.599L736.42,193.625L736.409,193.631L736.388,193.643L736.373,193.651L736.358,193.659L736.34,193.669L736.325,193.677L736.296,193.691L736.265,193.706L736.172,193.737L736.149,193.742L736.096,193.758L736.078,193.765L736.062,193.771L736.039,193.78L735.958,193.815L735.89,193.855L735.82,193.9L735.824,193.921L735.897,194.205L735.986,194.511L736.181,194.789L736.061,194.998L736.038,195.242L736.02,195.444L735.978,195.895L735.957,196.112L735.948,196.213L735.938,196.314L735.905,196.674L735.872,197.024L735.932,197.334L735.959,197.475L735.986,197.615L735.983,197.846L735.893,198.271L735.872,198.37L735.842,198.512L735.818,198.626L735.795,198.734L735.745,198.973L735.695,199.209L735.693,199.213L735.739,199.265L735.799,199.328L735.866,199.379L735.932,199.416L735.957,199.465L736.002,199.532L736.07,199.63L736.124,199.688L736.141,199.708L736.178,199.746L736.251,199.82L736.282,199.92L736.292,199.953L736.309,200.005L736.331,200.055L736.359,200.102L736.382,200.138L736.395,200.158L736.426,200.267L736.431,200.289L736.443,200.339L736.462,200.404L736.463,200.408L736.475,200.447L736.49,200.485L736.499,200.503L736.552,200.66L736.54,200.698L736.439,200.833L736.398,200.897L736.263,201.146L736.257,201.157L736.235,201.204L736.218,201.254L736.206,201.305L736.199,201.356L736.197,201.408L736.2,201.461L736.209,201.512L736.214,201.532L736.239,201.788L736.237,201.819L736.231,201.868L736.227,201.917L736.227,201.925L736.22,201.999L736.218,202.026L736.217,202.045L736.216,202.075L736.217,202.118L736.221,202.162L736.229,202.213L736.237,202.257L736.241,202.272L736.241,202.272L736.259,202.342L736.272,202.385L736.289,202.427L736.321,202.497L736.323,202.505L736.366,202.793L736.372,202.828L736.407,203L736.409,203.014L736.414,203.056L736.416,203.064L736.423,203.116L736.425,203.127L736.428,203.148L736.39,203.324L736.382,203.378L736.381,203.403L736.38,203.403L736.375,203.487L736.369,203.584L736.37,203.657L736.379,203.772L736.379,203.785L736.379,203.83L736.383,203.875L736.391,203.92L736.407,203.993L736.412,204.084L736.412,204.102L736.411,204.109L736.41,204.134L736.409,204.176L736.408,204.189L736.407,204.263L736.4,204.4L736.398,204.411L736.395,204.474L736.395,204.505L736.392,204.62L736.386,204.685L736.348,204.808L736.349,204.808L736.34,204.837L736.34,204.837L736.324,204.893L736.32,204.909L736.29,205.033L736.279,205.095L736.275,205.126L736.272,205.164L736.272,205.202L736.275,205.287L736.275,205.326L736.274,205.337L736.275,205.34L736.223,205.565L736.212,205.635L736.208,205.678L736.207,205.717L736.188,205.904L736.187,205.909L736.131,206.051L736.03,206.265L736.007,206.301L735.983,206.34L735.964,206.382L735.952,206.41L735.932,206.467L735.918,206.526L735.916,206.544L735.914,206.556L735.91,206.604L735.909,206.623L735.909,206.645L735.909,206.646L735.913,206.712L735.921,206.769L735.929,206.812L735.945,206.88L735.955,206.945L735.955,206.945L735.963,206.985L735.975,207.031L735.976,207.033L735.988,207.065L736.023,207.149L736.038,207.183L736.073,207.254L736.078,207.267L736.087,207.285L736.099,207.309L736.115,207.339L736.124,207.36L736.15,207.41L736.16,207.429L736.17,207.445L736.179,207.462L736.2,207.495L736.227,207.538L736.264,207.596L736.269,207.604L736.282,207.625L736.295,207.646L736.314,207.676L736.325,207.695L736.362,207.769L736.372,207.788L736.385,207.811L736.399,207.843L736.419,207.935L736.419,207.962L736.421,208.001L736.426,208.04L736.445,208.162L736.446,208.234L736.448,208.275L736.457,208.366L736.457,208.374L736.461,208.41L736.46,208.41L736.463,208.438L736.405,208.628L736.4,208.636L736.373,208.683L736.35,208.732L736.333,208.784L736.333,208.787L736.323,208.829L736.318,208.872L736.316,208.894L736.311,208.918L736.295,208.954L736.237,209.076L736.223,209.109L736.218,209.121L736.208,209.149L736.204,209.16L736.138,209.345L736.125,209.389L736.116,209.434L736.111,209.479L736.11,209.493L736.105,209.597L736.105,209.611L736.099,209.713L736.099,209.754L736.1,209.778L736.1,209.952L736.101,209.978L736.106,210.07L736.107,210.095L736.108,210.12L736.11,210.135L736.114,210.176L736.118,210.292L736.118,210.297L736.118,210.3L736.12,210.34L736.125,210.38L736.133,210.419L736.136,210.431L736.152,210.48L736.172,210.528L736.197,210.572L736.263,210.716L736.264,210.721L736.24,210.841L736.206,210.992L736.199,211.02L736.195,211.041L736.171,211.108L736.16,211.132L736.146,211.165L736.122,211.222L736.096,211.281L736.089,211.299L736.082,211.317L736.073,211.345L736.072,211.345L736.059,211.386L736.053,211.402L736.044,211.427L736.031,211.469L736.027,211.484L736.019,211.511L736.001,211.552L735.993,211.569L735.979,211.602L735.967,211.637L735.963,211.649L735.954,211.684L735.952,211.691L735.898,211.836L735.884,211.878L735.874,211.921L735.868,211.966L735.866,212.01L735.867,212.144L735.867,212.161L735.868,212.184L735.875,212.248L735.879,212.27L735.882,212.291L735.884,212.307L735.887,212.322L735.895,212.372L735.903,212.415L735.924,212.495L735.924,212.495L735.935,212.537L735.954,212.594L735.956,212.602L735.984,212.714L735.996,212.764L736.001,212.792L736.008,212.857L736.01,212.875L736.012,212.896L736.013,212.907L736.018,212.948L736.027,212.989L736.031,213.051L736.035,213.087L736.054,213.219L736.059,213.369L736.064,213.418L736.073,213.466L736.087,213.513L736.105,213.558L736.129,213.601L736.156,213.642L736.17,213.66L736.251,213.773L736.271,213.809L736.313,213.887L736.368,213.956L736.458,214.048L736.525,214.105L736.541,214.113L736.613,214.136L736.672,214.175L737.022,214.424L737.04,214.432L737.072,214.431L737.109,214.427L737.144,214.421L737.182,214.411L737.213,214.4L737.252,214.383L737.316,214.345L737.374,214.297L737.423,214.241L737.463,214.178L737.493,214.109L737.512,214.036L737.519,213.962L737.514,213.887L737.497,213.814L737.47,213.744L737.432,213.68L737.385,213.624L737.398,213.597L737.418,213.549L737.421,213.541L737.43,213.512L737.436,213.491L737.446,213.44L737.446,213.44L737.45,213.42L737.482,213.334L737.489,213.31L737.521,213.204L737.534,213.153L737.548,213.079L737.551,213.057L737.555,213.033L737.559,212.983L737.559,212.961L737.561,212.905L737.567,212.874L737.58,212.846L737.588,212.828L737.606,212.775L737.611,212.758L737.63,212.691L737.64,212.664L737.691,212.547L737.714,212.458L737.909,212.473L737.952,212.479L738.04,212.477L738.087,212.47L738.143,212.452L738.177,212.462L738.305,212.483L738.407,212.498L738.419,212.594L738.441,212.677L738.454,212.718L738.456,212.725L738.504,212.852L738.51,212.867L738.516,212.884L738.524,212.903L738.53,212.918L738.532,213.06L738.52,213.158L738.516,213.201L738.517,213.244L738.521,213.286L738.529,213.342L738.529,213.352L738.531,213.37L738.533,213.396L738.537,213.427L738.542,213.453L738.546,213.478L738.55,213.496L738.564,213.549L738.585,213.6L738.588,213.607L738.609,213.647L738.634,213.685L738.662,213.72L738.693,213.753L738.727,213.782L738.732,213.786L738.769,213.812L738.809,213.835L738.851,213.854L738.894,213.868L738.939,213.879L738.984,213.885L739.03,213.887L739.075,213.884L739.121,213.877L739.165,213.866L739.208,213.851L739.249,213.831L739.289,213.808L739.326,213.781L739.36,213.75L739.391,213.717L739.419,213.68L739.443,213.641L739.464,213.6L739.471,213.583L739.476,213.57L739.534,213.445L739.54,213.43L739.556,213.392L739.561,213.379L739.573,213.344L739.581,213.308L739.621,213.112L739.694,212.987L739.716,212.946L739.799,212.76L739.818,212.713L739.831,212.664L739.839,212.614L739.842,212.563L739.842,212.553L739.838,212.491L739.829,212.429L739.803,212.346L739.775,212.29L739.718,212.177L739.71,212.141L739.701,212.052L739.683,211.897L739.668,211.727L739.668,211.726L739.666,211.68L739.659,211.634L739.657,211.624L739.653,211.607L739.625,211.485L739.619,211.434L739.61,211.378L739.606,211.362L739.604,211.352L739.589,211.304L739.57,211.259L739.564,211.246L739.528,211.184L739.522,211.175L739.501,211.146L739.492,211.135L739.477,211.117L739.475,211.115L739.428,211.067L739.414,211.054L739.377,211.024L739.337,210.998L739.335,210.997L739.271,210.965L739.242,210.954L739.201,210.939L739.126,210.923L739.049,210.917L738.974,210.924L738.935,210.933L738.886,210.825L738.892,210.771L738.89,210.754L738.892,210.737L738.893,210.692L738.891,210.633L738.883,210.575L738.881,210.566L738.866,210.469L738.861,210.44L738.85,210.357L738.841,210.307L738.827,210.257L738.807,210.21L738.783,210.165L738.754,210.122L738.746,210.111L738.709,210.044L738.703,210.026L738.688,209.984L738.67,209.944L738.648,209.906L738.641,209.895L738.614,209.856L738.583,209.82L738.549,209.788L738.513,209.756L738.504,209.748L738.397,209.656L738.358,209.626L738.344,209.617L738.215,209.514L738.204,209.497L738.189,209.472L738.172,209.443L738.158,209.417L738.156,209.414L738.148,209.398L738.141,209.384L738.127,209.354L738.121,209.341L738.115,209.325L738.105,209.3L738.095,209.273L738.089,209.256L738.08,209.231L738.076,209.221L738.069,209.195L738.057,209.154L738.049,209.119L738.042,209.091L738.039,209.076L738.046,208.944L738.046,208.911L738.043,208.745L738.045,208.731L738.067,208.626L738.072,208.597L738.075,208.577L738.079,208.533L738.115,208.341L738.13,208.292L738.14,208.255L738.147,208.227L738.157,208.185L738.164,208.159L738.173,208.126L738.183,208.095L738.188,208.078L738.192,208.059L738.197,208.042L738.224,207.978L738.234,207.955L738.236,207.949L738.256,207.881L738.277,207.785L738.28,207.774L738.301,207.717L738.309,207.693L738.312,207.683L738.326,207.637L738.334,207.613L738.344,207.571L738.347,207.561L738.352,207.529L738.362,207.462L738.364,207.454L738.368,207.436L738.376,207.408L738.379,207.396L738.385,207.372L738.386,207.367L738.404,207.316L738.418,207.273L738.428,207.248L738.43,207.243L738.439,207.221L738.447,207.201L738.456,207.177L738.475,207.117L738.488,207.059L738.489,207.057L738.503,207.022L738.511,207.003L738.514,206.997L738.527,206.97L738.545,206.931L738.553,206.911L738.558,206.896L738.577,206.86L738.603,206.816L738.623,206.78L738.624,206.778L738.674,206.683L738.681,206.669L738.688,206.654L738.707,206.623L738.725,206.589L738.737,206.565L738.744,206.554L738.762,206.515L738.777,206.476L738.778,206.471L738.791,206.428L738.799,206.384L738.811,206.299L738.817,206.228L738.817,206.224L738.815,206.184L738.811,206.145L738.81,206.137L738.8,206.036L738.783,205.969L738.775,205.944L738.851,205.884L738.899,205.848L738.932,205.83L738.96,205.817L738.965,205.815L739.007,205.799L739.039,205.789L739.074,205.78L739.094,205.777L739.137,205.77L739.16,205.767L739.175,205.765L739.207,205.76L739.235,205.758L739.274,205.756L739.33,205.758L739.346,205.761L739.394,205.768L739.414,205.77L739.447,205.776L739.458,205.778L739.489,205.783L739.526,205.789L739.546,205.794L739.581,205.8L739.599,205.803L739.661,205.817L739.666,205.818L739.691,205.824L739.722,205.83L739.763,205.84L739.78,205.845L739.818,205.856L739.825,205.858L739.923,205.955L740.015,206.08L740.03,206.103L740.048,206.13L740.053,206.138L740.081,206.174L740.113,206.208L740.157,206.267L740.193,206.311L740.234,206.351L740.237,206.354L740.248,206.363L740.422,206.506L740.434,206.519L740.482,206.575L740.532,206.666L740.536,206.676L740.562,206.718L740.565,206.723L740.621,207.036L740.62,207.038L740.619,207.041L740.617,207.043L740.616,207.046L740.615,207.049L740.613,207.052L740.612,207.055L740.61,207.058L740.609,207.061L740.608,207.064L740.607,207.065L740.606,207.066L740.606,207.067L740.606,207.067L740.606,207.067L740.606,207.067L740.605,207.068L740.605,207.069L740.604,207.069L740.604,207.069L740.604,207.069L740.604,207.07L740.604,207.071L740.603,207.071L740.603,207.072L740.603,207.072L740.603,207.072L740.603,207.073L740.602,207.073L740.602,207.074L740.601,207.075L740.601,207.075L740.601,207.075L740.601,207.076L740.601,207.076L740.6,207.077L740.6,207.078L740.6,207.078L740.6,207.078L740.6,207.079L740.599,207.079L740.599,207.08L740.599,207.081L740.599,207.081L740.599,207.081L740.598,207.081L740.598,207.082L740.598,207.083L740.597,207.084L740.597,207.084L740.597,207.084L740.597,207.084L740.597,207.085L740.596,207.086L740.596,207.086L740.596,207.086L740.596,207.086L740.595,207.087L740.595,207.088L740.595,207.088L740.594,207.089L740.594,207.089L740.594,207.089L740.594,207.09L740.594,207.091L740.593,207.091L740.593,207.092L740.593,207.092L740.593,207.092L740.593,207.093L740.592,207.093L740.592,207.094L740.592,207.095L740.592,207.095L740.592,207.095L740.591,207.096L740.591,207.096L740.591,207.097L740.59,207.098L740.59,207.098L740.59,207.098L740.59,207.099L740.59,207.099L740.589,207.1L740.589,207.101L740.589,207.101L740.589,207.101L740.589,207.102L740.588,207.102L740.588,207.103L740.588,207.104L740.588,207.104L740.588,207.104L740.587,207.104L740.587,207.105L740.587,207.106L740.586,207.107L740.586,207.107L740.586,207.107L740.586,207.107L740.586,207.108L740.585,207.109L740.585,207.11L740.585,207.11L740.585,207.11L740.585,207.11L740.585,207.111L740.584,207.112L740.584,207.113L740.584,207.113L740.584,207.113L740.584,207.113L740.583,207.114L740.583,207.115L740.583,207.116L740.583,207.116L740.583,207.116L740.582,207.116L740.582,207.117L740.582,207.118L740.581,207.119L740.581,207.119L740.581,207.119L740.581,207.119L740.581,207.12L740.581,207.121L740.58,207.121L740.58,207.121L740.58,207.122L740.58,207.122L740.58,207.123L740.579,207.124L740.579,207.124L740.579,207.124L740.579,207.124L740.579,207.125L740.579,207.126L740.578,207.127L740.578,207.127L740.578,207.127L740.578,207.127L740.578,207.128L740.577,207.129L740.577,207.13L740.577,207.13L740.577,207.13L740.577,207.13L740.577,207.131L740.576,207.132L740.576,207.133L740.576,207.133L740.576,207.133L740.576,207.133L740.575,207.134L740.575,207.135L740.575,207.136L740.575,207.136L740.575,207.136L740.575,207.136L740.574,207.137L740.574,207.138L740.574,207.139L740.573,207.139L740.573,207.139L740.573,207.139L740.573,207.14L740.573,207.141L740.573,207.142L740.572,207.142L740.572,207.142L740.572,207.142L740.572,207.143L740.572,207.144L740.572,207.145L740.571,207.145L740.571,207.145L740.571,207.145L740.571,207.146L740.571,207.147L740.571,207.148L740.57,207.148L740.57,207.148L740.57,207.149L740.57,207.149L740.57,207.15L740.57,207.151L740.569,207.151L740.569,207.152L740.569,207.152L740.569,207.152L740.568,207.157L740.567,207.158L740.566,207.161L740.565,207.164L740.564,207.168L740.563,207.171L740.562,207.174L740.562,207.177L740.561,207.18L740.56,207.183L740.559,207.186L740.558,207.189L740.557,207.192L740.557,207.195L740.556,207.198L740.555,207.201L740.555,207.205L740.554,207.208L740.553,207.211L740.553,207.214L740.552,207.217L740.551,207.22L740.551,207.223L740.55,207.227L740.55,207.23L740.549,207.233L740.549,207.236L740.548,207.239L740.548,207.242L740.547,207.245L740.547,207.249L740.546,207.252L740.546,207.255L740.546,207.258L740.545,207.261L740.545,207.264L740.545,207.268L740.545,207.271L740.544,207.274L740.544,207.277L740.544,207.28L740.544,207.284L740.543,207.287L740.543,207.29L740.543,207.293L740.543,207.296L740.543,207.3L740.543,207.303L740.543,207.306L740.543,207.309L740.543,207.312L740.543,207.315L740.543,207.319L740.543,207.322L740.543,207.325L740.543,207.328L740.543,207.331L740.543,207.335L740.543,207.338L740.544,207.341L740.544,207.344L740.544,207.347L740.544,207.351L740.544,207.354L740.545,207.357L740.545,207.36L740.545,207.363L740.546,207.366L740.546,207.37L740.546,207.373L740.547,207.376L740.547,207.379L740.547,207.382L740.548,207.385L740.548,207.389L740.549,207.392L740.549,207.395L740.55,207.398L740.55,207.401L740.551,207.404L740.552,207.407L740.552,207.411L740.553,207.414L740.554,207.417L740.554,207.42L740.555,207.423L740.556,207.426L740.556,207.429L740.557,207.432L740.558,207.435L740.559,207.438L740.559,207.442L740.56,207.445L740.561,207.448L740.562,207.451L740.563,207.454L740.564,207.457L740.565,207.46L740.566,207.463L740.566,207.466L740.567,207.469L740.568,207.472L740.569,207.475L740.571,207.478L740.572,207.481L740.573,207.484L740.574,207.487L740.575,207.49L740.576,207.493L740.577,207.496L740.578,207.499L740.579,207.502L740.581,207.505L740.582,207.508L740.583,207.511L740.584,207.514L740.586,207.517L740.587,207.52L740.588,207.522L740.59,207.525L740.591,207.528L740.592,207.531L740.594,207.534L740.595,207.537L740.597,207.54L740.598,207.543L740.599,207.545L740.601,207.548L740.602,207.551L740.604,207.554L740.605,207.557L740.607,207.559L740.609,207.562L740.61,207.565L740.612,207.568L740.613,207.57L740.615,207.573L740.617,207.576L740.618,207.579L740.62,207.581L740.622,207.584L740.623,207.587L740.625,207.589L740.627,207.592L740.629,207.595L740.63,207.597L740.632,207.6L740.634,207.602L740.636,207.605L740.638,207.608L740.64,207.61L740.641,207.613L740.643,207.615L740.645,207.618L740.647,207.62L740.649,207.623L740.651,207.625L740.653,207.628L740.655,207.63L740.657,207.633L740.659,207.635L740.661,207.638L740.663,207.64L740.665,207.643L740.667,207.645L740.669,207.647L740.672,207.65L740.674,207.652L740.676,207.654L740.678,207.657L740.68,207.659L740.682,207.661L740.685,207.664L740.687,207.666L740.689,207.668L740.691,207.67L740.694,207.673L740.696,207.675L740.698,207.677L740.7,207.679L740.703,207.681L740.705,207.684L740.707,207.686L740.71,207.688L740.712,207.69L740.715,207.692L740.717,207.694L740.719,207.696L740.722,207.698L740.724,207.7L740.727,207.702L740.729,207.704L740.732,207.706L740.734,207.708L740.737,207.71L740.739,207.712L740.742,207.714L740.744,207.716L740.747,207.718L740.749,207.72L740.752,207.722L740.754,207.724L740.757,207.725L740.76,207.727L740.762,207.729L740.765,207.731L740.767,207.732L740.77,207.734L740.773,207.736L740.775,207.738L740.778,207.739L740.781,207.741L740.784,207.743L740.786,207.744L740.789,207.746L740.792,207.748L740.794,207.749L740.797,207.751L740.8,207.752L740.803,207.754L740.806,207.755L740.808,207.757L740.811,207.758L740.814,207.76L740.817,207.761L740.82,207.763L740.822,207.764L740.825,207.766L740.828,207.767L740.831,207.768L740.834,207.77L740.837,207.771L740.84,207.772L740.843,207.774L740.845,207.775L740.848,207.776L740.851,207.777L740.854,207.778L740.857,207.78L740.86,207.781L740.863,207.782L740.866,207.783L740.869,207.784L740.872,207.785L740.875,207.786L740.878,207.788L740.881,207.789L740.884,207.79L740.887,207.791L740.89,207.792L740.893,207.793L740.896,207.793L740.899,207.794L740.902,207.795L740.905,207.796L740.908,207.797L740.911,207.798L740.914,207.799L740.917,207.8L740.92,207.8L740.923,207.801L740.923,207.801L740.926,207.802L740.927,207.802L740.93,207.803L740.933,207.803L740.936,207.804L740.939,207.805L740.942,207.805L740.945,207.806L740.948,207.807L740.951,207.807L740.955,207.808L740.958,207.809L740.961,207.809L740.964,207.81L740.967,207.81L740.97,207.811L740.973,207.811L740.976,207.812L740.98,207.812L740.983,207.812L740.986,207.813L740.989,207.813L740.992,207.814L740.995,207.814L740.998,207.814L741.002,207.814L741.005,207.815L741.008,207.815L741.011,207.815L741.014,207.815L741.017,207.816L741.021,207.816L741.024,207.816L741.027,207.816L741.03,207.816L741.033,207.816L741.036,207.816L741.04,207.816L741.043,207.816L741.046,207.816L741.049,207.816L741.052,207.816L741.055,207.816L741.059,207.816L741.062,207.816L741.065,207.816L741.068,207.816L741.071,207.816L741.074,207.816L741.078,207.816L741.081,207.815L741.084,207.815L741.087,207.815L741.09,207.815L741.093,207.814L741.097,207.814L741.1,207.814L741.103,207.813L741.106,207.813L741.109,207.813L741.112,207.812L741.115,207.812L741.119,207.811L741.122,207.811L741.125,207.81L741.128,207.81L741.131,207.809L741.134,207.809L741.137,207.808L741.14,207.808L741.143,207.807L741.147,207.806L741.15,207.806L741.153,207.805L741.156,207.804L741.159,207.804L741.162,207.803L741.165,207.802L741.168,207.801L741.171,207.801L741.174,207.8L741.177,207.799L741.18,207.798L741.184,207.797L741.187,207.796L741.19,207.796L741.193,207.795L741.196,207.794L741.199,207.793L741.202,207.792L741.205,207.791L741.208,207.79L741.211,207.789L741.214,207.788L741.217,207.787L741.22,207.785L741.223,207.784L741.226,207.783L741.229,207.782L741.232,207.781L741.234,207.78L741.237,207.779L741.24,207.777L741.243,207.776L741.246,207.775L741.249,207.774L741.252,207.772L741.255,207.771L741.258,207.77L741.261,207.768L741.263,207.767L741.266,207.765L741.269,207.764L741.272,207.763L741.275,207.761L741.278,207.76L741.28,207.758L741.283,207.757L741.286,207.755L741.289,207.754L741.292,207.752L741.294,207.751L741.297,207.749L741.3,207.747L741.303,207.746L741.305,207.744L741.308,207.743L741.311,207.741L741.313,207.739L741.316,207.737L741.319,207.736L741.321,207.734L741.324,207.732L741.327,207.731L741.329,207.729L741.332,207.727L741.334,207.725L741.337,207.723L741.34,207.721L741.342,207.72L741.345,207.718L741.347,207.716L741.35,207.714L741.352,207.712L741.355,207.71L741.357,207.708L741.36,207.706L741.362,207.704L741.365,207.702L741.367,207.7L741.37,207.698L741.372,207.696L741.374,207.694L741.377,207.692L741.379,207.69L741.382,207.687L741.384,207.685L741.386,207.683L741.389,207.681L741.391,207.679L741.393,207.677L741.395,207.674L741.398,207.672L741.4,207.67L741.402,207.668L741.404,207.665L741.407,207.663L741.409,207.661L741.411,207.659L741.413,207.656L741.415,207.654L741.418,207.652L741.42,207.649L741.422,207.647L741.424,207.644L741.426,207.642L741.428,207.64L741.43,207.637L741.432,207.635L741.434,207.632L741.436,207.63L741.438,207.627L741.44,207.625L741.442,207.622L741.444,207.62L741.446,207.617L741.448,207.615L741.45,207.612L741.452,207.61L741.453,207.607L741.455,207.604L741.457,207.602L741.459,207.599L741.461,207.597L741.462,207.594L741.464,207.591L741.466,207.589L741.468,207.586L741.469,207.583L741.471,207.581L741.473,207.578L741.474,207.575L741.476,207.572L741.478,207.57L741.479,207.567L741.481,207.564L741.482,207.561L741.484,207.559L741.486,207.556L741.487,207.553L741.489,207.55L741.49,207.547L741.492,207.545L741.493,207.542L741.494,207.539L741.496,207.536L741.497,207.533L741.499,207.53L741.5,207.528L741.501,207.525L741.503,207.522L741.504,207.519L741.505,207.516L741.507,207.513L741.508,207.51L741.509,207.507L741.509,207.507L741.515,207.493L741.515,207.493L741.515,207.493L741.516,207.49L741.518,207.487L741.519,207.484L741.52,207.481L741.522,207.478L741.523,207.475L741.524,207.472L741.525,207.47L741.527,207.467L741.528,207.464L741.529,207.461L741.53,207.458L741.53,207.457L741.53,207.457L741.531,207.456L741.531,207.455L741.531,207.454L741.531,207.454L741.532,207.453L741.532,207.452L741.532,207.452L741.532,207.451L741.534,207.448L741.535,207.445L741.536,207.442L741.537,207.439L741.538,207.436L741.539,207.433L741.54,207.43L741.541,207.427L741.542,207.424L741.543,207.421L741.543,207.418L741.544,207.415L741.545,207.412L741.546,207.409L741.547,207.406L741.548,207.403L741.549,207.399L741.549,207.396L741.55,207.393L741.551,207.39L741.551,207.387L741.552,207.384L741.553,207.381L741.553,207.378L741.554,207.375L741.555,207.371L741.555,207.368L741.556,207.365L741.556,207.362L741.557,207.359L741.557,207.356L741.558,207.353L741.558,207.351L741.566,207.344L741.6,207.314L741.631,207.28L741.633,207.278L741.667,207.231L741.696,207.181L741.697,207.178L741.718,207.132L741.733,207.084L741.744,207.034L741.75,206.984L741.75,206.933L741.746,206.882L741.738,206.842L741.738,206.842L741.673,206.535L741.655,206.372L741.654,206.353L741.647,206.305L741.635,206.258L741.619,206.212L741.598,206.169L741.574,206.127L741.545,206.088L741.493,206.023L741.444,205.97L741.343,205.877L741.296,205.838L741.279,205.826L741.245,205.799L741.215,205.77L741.215,205.77L741.098,205.634L741.061,205.524L741.052,205.496L741.046,205.477L741.039,205.455L741.015,205.392L741.001,205.363L740.992,205.34L740.979,205.312L740.978,205.31L740.954,205.208L740.94,205.139L740.939,205.133L740.92,205.035L740.911,204.758L740.906,204.704L740.896,204.65L740.891,204.632L740.876,204.582L740.856,204.534L740.855,204.531L740.83,204.486L740.801,204.443L740.771,204.404L740.749,204.368L740.722,204.294L740.722,204.224L740.725,204.179L740.724,204.134L740.723,204.116L740.716,204.06L740.704,204.006L740.695,203.976L740.681,203.934L740.663,203.894L740.65,203.867L740.64,203.848L740.628,203.825L740.616,203.801L740.611,203.786L740.601,203.762L740.585,203.725L740.572,203.688L740.568,203.673L740.563,203.659L740.553,203.632L740.546,203.613L740.537,203.588L740.535,203.582L740.528,203.561L740.525,203.552L740.519,203.487L740.511,203.393L740.503,203.336L740.489,203.28L740.468,203.226L740.465,203.219L740.46,203.208L740.406,203.095L740.39,203.064L740.374,203.035L740.37,203.026L740.367,203.018L740.333,202.952L740.314,202.92L740.291,202.874L740.27,202.826L740.27,202.825L740.251,202.78L740.23,202.736L740.227,202.728L740.218,202.704L740.209,202.681L740.206,202.67L740.186,202.613L740.178,202.589L740.174,202.575L740.17,202.562L740.158,202.528L740.153,202.508L740.149,202.496L740.147,202.488L740.141,202.46L740.136,202.441L740.123,202.395L740.106,202.336L740.102,202.319L740.099,202.303L740.094,202.277L740.09,202.257L740.083,202.227L740.069,202.164L740.062,202.133L740.059,202.124L740.051,202.078L740.049,202.067L740.046,202.043L740.044,202.033L740.042,202.019L740.04,202.008L740.036,201.987L740.029,201.957L740.022,201.89L740.023,201.782L740.023,201.782L740.023,201.754L740.02,201.706L740.012,201.658L740.006,201.63L740,201.598L739.993,201.572L739.984,201.537L739.977,201.504L739.977,201.503L739.976,201.451L739.976,201.388L739.974,201.334L739.966,201.281L739.953,201.233L739.954,201.233L739.925,201.136L739.921,201.117L739.919,201.11L739.912,201.077L739.907,201.051L739.903,201.024L739.897,200.983L739.892,200.951L739.89,200.933L739.882,200.89L739.878,200.867L739.875,200.855L739.873,200.841L739.867,200.812L739.859,200.777L739.857,200.764L739.852,200.736L739.843,200.69L739.838,200.673L739.833,200.648L739.831,200.635L739.828,200.623L739.824,200.604L739.82,200.586L739.813,200.556L739.794,200.461L739.782,200.409L739.776,200.375L739.775,200.371L739.768,200.332L739.763,200.309L739.758,200.289L739.754,200.27L739.748,200.243L739.746,200.232L739.743,200.214L739.741,200.206L739.737,200.19L739.728,200.157L739.722,200.132L739.716,200.11L739.706,200.077L739.699,200.053L739.688,200.018L739.683,200.002L739.682,200L739.674,199.97L739.671,199.96L739.667,199.943L739.662,199.925L739.657,199.895L739.654,199.87L739.652,199.855L739.647,199.81L739.645,199.796L739.642,199.772L739.63,199.704L739.629,199.7L739.625,199.674L739.617,199.63L739.609,199.583L739.602,199.543L739.596,199.501L739.591,199.476L739.583,199.438L739.578,199.414L739.574,199.398L739.568,199.378L739.56,199.346L739.556,199.329L739.546,199.291L739.544,199.283L739.53,199.24L739.531,199.24L739.512,199.181L739.507,199.161L739.498,199.128L739.494,199.114L739.491,199.1L739.487,199.084L739.482,199.063L739.473,199.028L739.461,198.991L739.458,198.979L739.454,198.963L739.452,198.953L739.436,198.896L739.432,198.882L739.415,198.826L739.407,198.801L739.398,198.776L739.383,198.737L739.38,198.73L739.373,198.715L739.358,198.682L739.312,198.579L739.299,198.545L739.286,198.513L739.281,198.5L739.273,198.48L739.255,198.429L739.242,198.39L739.23,198.351L739.213,198.299L739.206,198.277L739.191,198.23L739.186,198.214L739.178,198.191L739.172,198.171L739.159,198.109L739.146,198.059L739.145,198.056L739.132,198.004L739.128,197.981L739.126,197.968L739.125,197.957L739.124,197.941L739.122,197.922L739.119,197.889L739.118,197.881L739.114,197.849L739.11,197.822L739.109,197.812L739.108,197.795L739.108,197.775L739.109,197.751L739.109,197.731L739.111,197.682L739.111,197.665L739.112,197.649L739.112,197.64L739.113,197.632L739.144,197.54L739.187,197.442L739.202,197.418L739.219,197.389L739.246,197.333L739.256,197.311L739.269,197.279L739.294,197.207L739.314,197.154L739.319,197.138L739.322,197.131L739.336,197.078L739.344,197.044L739.347,197.034L739.351,197.012L739.362,196.941L739.364,196.934L739.366,196.918L739.369,196.905L739.373,196.885L739.382,196.833L739.391,196.773L739.394,196.752L739.398,196.717L739.4,196.699L739.402,196.685L739.404,196.669L739.406,196.642L739.406,196.634L739.407,196.619L739.407,196.619L739.408,196.582L739.409,196.564L739.409,196.549L739.409,196.539L739.41,196.523L739.41,196.509L739.411,196.484L739.411,196.472L739.412,196.46L739.413,196.441L739.413,196.419L739.414,196.391L739.415,196.356L739.416,196.321L739.417,196.305L739.416,196.265L739.416,196.259L739.419,196.227L739.421,196.188L739.422,196.152L739.422,196.117ZM800,0L800,12.246L800,78.668L800,145.789L800,215.835L800,261.497L800,300L800,338.503L800,384.165L800,454.211L800,600L800,600L200,600L200,600L200,454.211L200,384.165L200,338.503L200,300L200,261.497L200,215.835L200,145.789L200,78.668L200,12.246L200,0L200,0L800,0Z"/>
<path d="M737.879,211.14m0,4.5a4.5,4.5 0 1,1 0,-9a4.5,4.5 0 1,1 0,9z"/>
<path d="M739.081,204.206m0,4.5a4.5,4.5 0 1,1 0,-9a4.5,4.5 0 1,1 0,9z"/>
</svg>