<?xml version="1.0" encoding="UTF-8"?>
<svg xmlns="http://www.w3.org/2000/svg" viewBox="0 0 1000 600" stroke="#000" stroke-width="0.3" fill="#ccc">
<path d="M550.108,175.34L550.122,175.343L550.138,175.314L550.14,175.3L550.121,175.302L550.109,175.308L550.109,175.313ZM800,0L800,12.246L800,78.668L800,145.789L800,215.835L800,261.497L800,300L800,338.503L800,384.165L800,454.211L800,600L800,600L200,600L200,600L200,454.211L200,384.165L200,338.503L200,300L200,261.497L200,215.835L200,145.789L200,78.668L200,12.246L200,0L200,0L800,0ZM549.919,173.648L549.919,173.648L549.913,173.644L549.903,173.64L549.894,173.632L549.89,173.633L549.887,173.631L549.879,173.627L549.878,173.627L549.876,173.632L549.876,173.632L549.873,173.63L549.849,173.621L549.849,173.621L549.842,173.619L549.842,173.616L549.821,173.608L549.824,173.597L549.823,173.597L549.821,173.588L549.821,173.588L549.808,173.587L549.786,173.592L549.781,173.586L549.78,173.587L549.778,173.587L549.776,173.587L549.772,173.582L549.77,173.583L549.768,173.583L549.768,173.582L549.767,173.582L549.766,173.583L549.765,173.582L549.764,173.582L549.758,173.584L549.756,173.584L549.754,173.583L549.749,173.58L549.739,173.57L549.728,173.559L549.726,173.56L549.723,173.56L549.723,173.561L549.721,173.562L549.719,173.559L549.71,173.55L549.712,173.548L549.714,173.55L549.717,173.548L549.67,173.5L549.668,173.499L549.667,173.499L549.667,173.499L549.665,173.499L549.663,173.499L549.661,173.498L549.659,173.497L549.657,173.496L549.656,173.496L549.655,173.495L549.654,173.496L549.652,173.496L549.651,173.497L549.65,173.497L549.648,173.497L549.644,173.497L549.644,173.497L549.643,173.497L549.642,173.496L549.642,173.495L549.642,173.494L549.642,173.493L549.64,173.489L549.639,173.489L549.639,173.488L549.638,173.488L549.636,173.487L549.634,173.487L549.633,173.487L549.633,173.487L549.631,173.486L549.63,173.485L549.628,173.484L549.627,173.482L549.626,173.48L549.625,173.479L549.624,173.478L549.622,173.476L549.621,173.475L549.619,173.472L549.619,173.471L549.618,173.47L549.618,173.469L549.617,173.468L549.617,173.468L549.618,173.467L549.618,173.46L549.6,173.447L549.599,173.445L549.599,173.441L549.599,173.44L549.598,173.439L549.597,173.428L549.59,173.429L549.58,173.43L549.576,173.43L549.558,173.438L549.551,173.438L549.549,173.438L549.543,173.436L549.541,173.434L549.536,173.431L549.532,173.432L549.525,173.431L549.522,173.432L549.52,173.434L549.516,173.438L549.521,173.438L549.522,173.442L549.524,173.446L549.523,173.448L549.524,173.449L549.525,173.45L549.529,173.453L549.527,173.454L549.529,173.457L549.524,173.462L549.525,173.464L549.526,173.468L549.53,173.471L549.534,173.476L549.533,173.479L549.533,173.484L549.52,173.481L549.514,173.477L549.508,173.471L549.509,173.469L549.501,173.462L549.498,173.461L549.497,173.46L549.495,173.458L549.492,173.455L549.494,173.451L549.496,173.448L549.499,173.449L549.502,173.446L549.505,173.446L549.509,173.442L549.51,173.441L549.51,173.44L549.511,173.44L549.514,173.438L549.514,173.433L549.513,173.432L549.511,173.428L549.511,173.424L549.505,173.422L549.504,173.422L549.5,173.421L549.493,173.434L549.492,173.437L549.491,173.437L549.488,173.437L549.472,173.435L549.471,173.437L549.47,173.439L549.468,173.443L549.467,173.443L549.467,173.444L549.467,173.444L549.466,173.444L549.466,173.444L549.465,173.444L549.465,173.445L549.465,173.445L549.465,173.445L549.464,173.446L549.464,173.446L549.464,173.447L549.463,173.447L549.463,173.447L549.461,173.447L549.46,173.447L549.457,173.447L549.448,173.444L549.439,173.439L549.428,173.435L549.422,173.433L549.413,173.432L549.407,173.43L549.406,173.431L549.404,173.435L549.401,173.439L549.4,173.44L549.403,173.443L549.406,173.445L549.406,173.446L549.406,173.447L549.405,173.447L549.402,173.447L549.4,173.449L549.395,173.458L549.386,173.455L549.377,173.449L549.373,173.445L549.369,173.446L549.366,173.456L549.359,173.458L549.355,173.46L549.352,173.463L549.346,173.467L549.338,173.458L549.335,173.456L549.335,173.456L549.334,173.456L549.334,173.456L549.334,173.456L549.334,173.457L549.334,173.459L549.334,173.462L549.333,173.464L549.332,173.467L549.332,173.47L549.331,173.471L549.33,173.473L549.33,173.474L549.329,173.474L549.328,173.474L549.327,173.473L549.325,173.473L549.322,173.473L549.32,173.474L549.315,173.478L549.314,173.48L549.314,173.481L549.314,173.482L549.313,173.484L549.312,173.489L549.31,173.492L549.309,173.494L549.308,173.497L549.307,173.498L549.307,173.498L549.306,173.498L549.306,173.498L549.304,173.5L549.302,173.501L549.301,173.502L549.3,173.504L549.299,173.505L549.279,173.496L549.264,173.491L549.26,173.49L549.256,173.489L549.256,173.488L549.252,173.487L549.249,173.488L549.241,173.49L549.231,173.492L549.228,173.501L549.223,173.498L549.202,173.485L549.203,173.484L549.205,173.476L549.205,173.47L549.202,173.459L549.202,173.46L549.201,173.46L549.201,173.462L549.201,173.462L549.196,173.467L549.196,173.467L549.192,173.471L549.19,173.473L549.186,173.477L549.185,173.479L549.176,173.485L549.166,173.495L549.162,173.5L549.161,173.499L549.161,173.499L549.16,173.498L549.159,173.497L549.158,173.497L549.158,173.497L549.158,173.498L549.157,173.498L549.157,173.498L549.157,173.498L549.157,173.497L549.156,173.496L549.155,173.496L549.154,173.495L549.154,173.495L549.154,173.495L549.154,173.494L549.154,173.493L549.153,173.492L549.153,173.491L549.153,173.491L549.153,173.49L549.152,173.49L549.151,173.489L549.151,173.487L549.15,173.487L549.15,173.487L549.15,173.487L549.15,173.489L549.15,173.489L549.15,173.489L549.149,173.49L549.149,173.489L549.137,173.501L549.136,173.502L549.125,173.512L549.093,173.546L549.087,173.553L549.054,173.586L549.045,173.596L549.043,173.602L549.045,173.603L549.08,173.608L549.081,173.609L549.083,173.609L549.083,173.611L549.084,173.613L549.085,173.615L549.085,173.618L549.091,173.622L549.094,173.621L549.098,173.622L549.1,173.626L549.114,173.621L549.117,173.626L549.114,173.627L549.115,173.633L549.111,173.634L549.106,173.634L549.105,173.634L549.095,173.634L549.095,173.635L549.092,173.635L549.09,173.635L549.088,173.636L549.082,173.638L549.079,173.64L549.079,173.64L549.075,173.642L549.074,173.642L549.071,173.645L549.068,173.647L549.066,173.649L549.065,173.65L549.065,173.651L549.066,173.651L549.066,173.652L549.065,173.652L549.064,173.652L549.064,173.653L549.064,173.653L549.064,173.654L549.065,173.654L549.065,173.653L549.065,173.653L549.066,173.654L549.066,173.653L549.067,173.652L549.067,173.653L549.068,173.654L549.068,173.655L549.068,173.656L549.069,173.655L549.07,173.655L549.07,173.655L549.071,173.655L549.071,173.656L549.07,173.656L549.07,173.656L549.069,173.656L549.069,173.656L549.069,173.657L549.07,173.657L549.07,173.657L549.07,173.658L549.07,173.659L549.07,173.659L549.071,173.66L549.071,173.66L549.071,173.66L549.072,173.659L549.071,173.658L549.071,173.657L549.071,173.657L549.072,173.657L549.072,173.658L549.072,173.658L549.072,173.658L549.073,173.659L549.073,173.659L549.073,173.659L549.073,173.66L549.075,173.661L549.076,173.661L549.077,173.661L549.077,173.66L549.077,173.66L549.077,173.66L549.078,173.66L549.078,173.659L549.079,173.659L549.079,173.659L549.079,173.66L549.079,173.661L549.08,173.663L549.08,173.663L549.081,173.663L549.082,173.663L549.082,173.663L549.083,173.663L549.083,173.663L549.084,173.664L549.084,173.665L549.083,173.665L549.083,173.666L549.083,173.666L549.083,173.667L549.082,173.666L549.082,173.667L549.081,173.667L549.082,173.668L549.082,173.668L549.083,173.668L549.086,173.666L549.086,173.666L549.086,173.665L549.087,173.665L549.087,173.665L549.088,173.665L549.089,173.665L549.089,173.666L549.09,173.666L549.091,173.666L549.091,173.665L549.092,173.664L549.093,173.664L549.093,173.665L549.093,173.665L549.094,173.666L549.095,173.666L549.096,173.666L549.097,173.665L549.101,173.664L549.102,173.665L549.103,173.665L549.103,173.665L549.108,173.673L549.236,174.098L549.295,174.22L549.408,174.466L549.413,174.473L549.413,174.479L549.413,174.479L549.418,174.479L549.423,174.48L549.426,174.481L549.433,174.483L549.436,174.49L549.429,174.509L549.427,174.517L549.432,174.522L549.433,174.521L549.439,174.523L549.44,174.523L549.44,174.524L549.444,174.525L549.449,174.526L549.46,174.528L549.467,174.53L549.47,174.531L549.49,174.539L549.495,174.541L549.498,174.543L549.498,174.543L549.501,174.544L549.501,174.545L549.505,174.546L549.505,174.547L549.509,174.549L549.51,174.55L549.511,174.551L549.512,174.552L549.512,174.553L549.513,174.554L549.512,174.555L549.512,174.555L549.515,174.556L549.516,174.554L549.526,174.56L549.528,174.561L549.529,174.561L549.529,174.562L549.53,174.562L549.531,174.562L549.532,174.563L549.533,174.563L549.537,174.568L549.54,174.576L549.545,174.592L549.544,174.594L549.525,174.608L549.524,174.615L549.527,174.659L549.541,174.669L549.555,174.667L549.559,174.669L549.561,174.664L549.584,174.666L549.584,174.676L549.607,174.675L549.619,174.665L549.645,174.686L549.666,174.71L549.667,174.709L549.683,174.695L549.683,174.695L549.693,174.686L549.706,174.676L549.706,174.676L549.706,174.676L549.706,174.676L549.711,174.678L549.711,174.679L549.712,174.684L549.715,174.686L549.718,174.687L549.725,174.685L549.725,174.678L549.729,174.679L549.731,174.681L549.74,174.686L549.753,174.692L549.765,174.699L549.763,174.702L549.764,174.704L549.766,174.71L549.766,174.71L549.767,174.71L549.769,174.712L549.77,174.713L549.771,174.721L549.771,174.721L549.779,174.726L549.779,174.726L549.782,174.725L549.782,174.723L549.785,174.72L549.787,174.717L549.786,174.709L549.786,174.709L549.788,174.709L549.789,174.709L549.79,174.71L549.791,174.716L549.801,174.732L549.799,174.734L549.799,174.737L549.798,174.74L549.798,174.741L549.796,174.743L549.794,174.742L549.794,174.745L549.8,174.746L549.801,174.753L549.802,174.76L549.805,174.761L549.806,174.761L549.807,174.761L549.81,174.762L549.81,174.763L549.811,174.761L549.812,174.758L549.813,174.754L549.813,174.753L549.816,174.743L549.817,174.742L549.818,174.739L549.819,174.733L549.821,174.726L549.825,174.727L549.825,174.725L549.825,174.725L549.825,174.725L549.825,174.725L549.826,174.723L549.826,174.723L549.84,174.726L549.84,174.726L549.837,174.738L549.837,174.738L549.837,174.738L549.849,174.742L549.85,174.734L549.859,174.737L549.875,174.743L549.875,174.746L549.909,174.756L549.907,174.762L549.907,174.763L549.906,174.764L549.907,174.764L549.905,174.77L549.903,174.774L549.903,174.776L549.903,174.777L549.902,174.778L549.901,174.781L549.9,174.784L549.9,174.786L549.899,174.787L549.899,174.79L549.898,174.791L549.898,174.792L549.898,174.793L549.897,174.795L549.897,174.796L549.896,174.799L549.895,174.801L549.895,174.803L549.895,174.804L549.896,174.804L549.897,174.804L549.897,174.804L549.897,174.804L549.898,174.804L549.898,174.804L549.899,174.802L549.899,174.802L549.902,174.802L549.907,174.809L549.963,174.791L549.964,174.788L549.964,174.788L549.965,174.788L549.965,174.788L549.966,174.789L549.967,174.789L549.968,174.789L549.968,174.789L549.969,174.789L549.97,174.79L549.971,174.79L549.972,174.79L549.973,174.79L549.973,174.79L549.974,174.791L549.974,174.791L549.975,174.791L549.975,174.791L549.975,174.791L549.975,174.791L549.976,174.791L549.976,174.791L549.977,174.792L549.979,174.792L549.979,174.792L549.98,174.792L549.981,174.793L549.981,174.792L549.982,174.793L549.982,174.793L549.983,174.793L549.983,174.793L549.983,174.793L549.984,174.793L549.984,174.793L549.984,174.793L549.985,174.793L549.985,174.793L549.985,174.793L549.985,174.793L549.986,174.793L549.986,174.793L549.986,174.793L549.986,174.793L549.986,174.794L549.987,174.794L549.987,174.794L549.987,174.794L549.988,174.794L549.988,174.793L549.988,174.793L549.988,174.793L549.988,174.793L549.989,174.792L549.99,174.792L549.99,174.792L549.991,174.791L549.991,174.791L549.991,174.79L549.991,174.79L549.991,174.79L549.991,174.789L549.992,174.788L549.992,174.788L549.993,174.787L549.993,174.787L549.994,174.787L549.994,174.787L549.994,174.788L549.994,174.788L549.995,174.788L549.996,174.787L549.996,174.787L549.997,174.786L549.997,174.786L549.998,174.785L549.998,174.784L549.999,174.784L549.999,174.783L550,174.783L550,174.783L550.001,174.783L550.001,174.784L550.001,174.784L550.002,174.784L550.002,174.785L550.003,174.785L550.003,174.785L550.004,174.784L550.004,174.784L550.004,174.783L550.005,174.783L550.005,174.782L550.006,174.782L550.006,174.781L550.007,174.782L550.007,174.782L550.008,174.782L550.008,174.782L550.008,174.783L550.009,174.783L550.009,174.783L550.01,174.784L550.011,174.784L550.012,174.784L550.014,174.784L550.015,174.784L550.015,174.784L550.016,174.784L550.017,174.784L550.017,174.785L550.018,174.785L550.019,174.785L550.019,174.785L550.02,174.785L550.021,174.784L550.021,174.784L550.022,174.784L550.022,174.784L550.022,174.785L550.023,174.785L550.023,174.786L550.023,174.787L550.023,174.787L550.024,174.788L550.025,174.788L550.026,174.788L550.026,174.788L550.027,174.786L550.027,174.785L550.027,174.785L550.028,174.784L550.029,174.784L550.029,174.784L550.03,174.785L550.03,174.785L550.031,174.786L550.031,174.786L550.031,174.786L550.031,174.786L550.031,174.787L550.03,174.787L550.03,174.787L550.03,174.788L550.029,174.788L550.029,174.789L550.03,174.789L550.03,174.789L550.031,174.789L550.031,174.789L550.032,174.789L550.034,174.794L550.046,174.783L550.047,174.784L550.051,174.78L550.051,174.78L550.074,174.781L550.074,174.781L550.074,174.782L550.073,174.784L550.073,174.785L550.073,174.785L550.072,174.785L550.072,174.787L550.072,174.788L550.071,174.788L550.071,174.789L550.071,174.789L550.07,174.79L550.07,174.79L550.069,174.791L550.069,174.792L550.07,174.793L550.07,174.794L550.07,174.794L550.071,174.794L550.071,174.794L550.071,174.795L550.07,174.795L550.07,174.795L550.07,174.796L550.071,174.796L550.071,174.797L550.071,174.797L550.07,174.797L550.07,174.797L550.07,174.797L550.069,174.798L550.067,174.798L550.067,174.799L550.067,174.799L550.067,174.799L550.067,174.8L550.067,174.8L550.067,174.8L550.067,174.8L550.067,174.8L550.067,174.8L550.067,174.801L550.067,174.802L550.067,174.802L550.067,174.803L550.067,174.803L550.067,174.803L550.066,174.803L550.066,174.802L550.066,174.802L550.065,174.803L550.065,174.804L550.065,174.804L550.065,174.804L550.065,174.805L550.065,174.805L550.065,174.805L550.065,174.806L550.065,174.807L550.065,174.807L550.065,174.808L550.065,174.808L550.064,174.808L550.064,174.808L550.064,174.809L550.065,174.809L550.065,174.81L550.065,174.811L550.065,174.812L550.065,174.812L550.065,174.813L550.066,174.813L550.066,174.814L550.066,174.815L550.066,174.815L550.065,174.816L550.065,174.816L550.066,174.817L550.066,174.817L550.066,174.818L550.067,174.818L550.067,174.819L550.067,174.82L550.067,174.82L550.068,174.821L550.068,174.821L550.068,174.821L550.067,174.822L550.067,174.822L550.067,174.822L550.068,174.822L550.068,174.822L550.068,174.822L550.068,174.823L550.068,174.823L550.068,174.824L550.068,174.824L550.067,174.824L550.067,174.824L550.067,174.824L550.067,174.824L550.067,174.824L550.067,174.824L550.067,174.824L550.066,174.824L550.067,174.824L550.067,174.824L550.066,174.825L550.066,174.824L550.066,174.824L550.066,174.825L550.066,174.825L550.066,174.825L550.066,174.826L550.065,174.826L550.065,174.826L550.065,174.827L550.065,174.827L550.065,174.827L550.065,174.828L550.064,174.828L550.064,174.829L550.064,174.829L550.064,174.829L550.064,174.829L550.065,174.83L550.065,174.83L550.065,174.83L550.065,174.831L550.065,174.831L550.065,174.831L550.064,174.832L550.064,174.832L550.064,174.832L550.065,174.833L550.065,174.832L550.066,174.833L550.067,174.833L550.067,174.833L550.068,174.834L550.068,174.834L550.069,174.834L550.069,174.834L550.069,174.835L550.07,174.836L550.07,174.837L550.071,174.838L550.073,174.839L550.074,174.839L550.075,174.84L550.076,174.84L550.076,174.841L550.076,174.842L550.076,174.843L550.077,174.844L550.078,174.844L550.078,174.846L550.079,174.846L550.082,174.847L550.083,174.847L550.083,174.848L550.084,174.848L550.085,174.848L550.087,174.848L550.088,174.848L550.088,174.849L550.089,174.849L550.089,174.849L550.089,174.849L550.09,174.849L550.09,174.849L550.091,174.849L550.091,174.848L550.091,174.848L550.092,174.848L550.092,174.848L550.093,174.848L550.094,174.847L550.094,174.847L550.095,174.847L550.095,174.847L550.096,174.847L550.096,174.847L550.097,174.847L550.097,174.847L550.097,174.847L550.097,174.847L550.098,174.848L550.098,174.848L550.099,174.848L550.1,174.849L550.105,174.851L550.106,174.851L550.109,174.851L550.109,174.851L550.11,174.852L550.111,174.853L550.111,174.853L550.112,174.853L550.113,174.852L550.114,174.852L550.116,174.852L550.117,174.852L550.122,174.853L550.125,174.854L550.125,174.854L550.143,174.851L550.152,174.855L550.174,174.847L550.213,174.874L550.209,174.883L550.206,174.89L550.187,174.893L550.183,174.894L550.183,174.893L550.183,174.894L550.181,174.894L550.175,174.895L550.176,174.913L550.175,174.915L550.165,174.917L550.165,174.917L550.165,174.919L550.164,174.92L550.164,174.921L550.164,174.922L550.164,174.936L550.164,174.937L550.164,174.94L550.164,174.947L550.165,174.95L550.165,174.951L550.164,174.953L550.163,174.956L550.163,174.958L550.162,174.959L550.16,174.96L550.161,174.961L550.162,174.962L550.16,174.963L550.16,174.963L550.16,174.962L550.158,174.962L550.157,174.963L550.152,174.964L550.151,174.966L550.151,174.966L550.14,174.975L550.14,174.975L550.141,174.985L550.13,174.993L550.129,174.994L550.12,175L550.105,175.01L550.102,175.011L550.094,175.017L550.087,175.018L550.076,175.019L550.076,175.019L550.072,175.023L550.073,175.029L550.093,175.026L550.094,175.031L550.097,175.03L550.101,175.03L550.102,175.033L550.103,175.041L550.103,175.045L550.103,175.047L550.116,175.047L550.117,175.05L550.12,175.05L550.12,175.05L550.12,175.053L550.111,175.053L550.114,175.061L550.104,175.063L550.105,175.066L550.107,175.07L550.118,175.071L550.127,175.077L550.12,175.084L550.11,175.094L550.109,175.094L550.108,175.095L550.103,175.1L550.092,175.119L550.094,175.123L550.093,175.124L550.091,175.125L550.092,175.126L550.09,175.129L550.089,175.129L550.089,175.13L550.089,175.13L550.086,175.135L550.085,175.136L550.083,175.136L550.084,175.142L550.079,175.151L550.079,175.154L550.076,175.171L550.064,175.167L550.058,175.176L550.067,175.184L550.068,175.185L550.083,175.178L550.084,175.179L550.086,175.182L550.093,175.192L550.12,175.18L550.123,175.181L550.124,175.182L550.13,175.181L550.131,175.182L550.134,175.183L550.135,175.183L550.137,175.188L550.138,175.19L550.138,175.192L550.142,175.199L550.168,175.238L550.168,175.238L550.171,175.238L550.176,175.238L550.178,175.238L550.178,175.237L550.179,175.236L550.179,175.236L550.181,175.234L550.182,175.233L550.182,175.233L550.182,175.234L550.182,175.234L550.183,175.234L550.183,175.234L550.183,175.234L550.183,175.234L550.183,175.235L550.183,175.235L550.183,175.235L550.183,175.235L550.184,175.236L550.184,175.236L550.184,175.237L550.184,175.237L550.184,175.237L550.184,175.237L550.184,175.237L550.184,175.237L550.185,175.238L550.185,175.238L550.185,175.238L550.186,175.238L550.186,175.238L550.186,175.238L550.187,175.238L550.187,175.238L550.187,175.238L550.187,175.238L550.188,175.239L550.188,175.239L550.188,175.239L550.188,175.24L550.188,175.24L550.189,175.24L550.189,175.239L550.189,175.239L550.189,175.239L550.189,175.239L550.189,175.239L550.19,175.238L550.189,175.238L550.189,175.238L550.189,175.237L550.189,175.237L550.19,175.237L550.191,175.238L550.193,175.238L550.193,175.238L550.192,175.241L550.189,175.244L550.19,175.245L550.191,175.245L550.19,175.247L550.19,175.25L550.19,175.252L550.188,175.252L550.188,175.255L550.194,175.254L550.195,175.254L550.196,175.254L550.196,175.254L550.196,175.255L550.195,175.256L550.195,175.256L550.195,175.257L550.199,175.257L550.2,175.257L550.2,175.258L550.2,175.259L550.2,175.26L550.2,175.261L550.2,175.261L550.201,175.261L550.202,175.261L550.203,175.262L550.205,175.261L550.205,175.261L550.207,175.261L550.208,175.26L550.209,175.259L550.212,175.258L550.214,175.256L550.216,175.254L550.218,175.256L550.218,175.256L550.22,175.255L550.22,175.255L550.221,175.254L550.222,175.254L550.223,175.253L550.224,175.251L550.225,175.249L550.226,175.248L550.226,175.247L550.227,175.247L550.227,175.247L550.227,175.246L550.227,175.245L550.227,175.243L550.227,175.241L550.227,175.239L550.227,175.238L550.227,175.237L550.226,175.235L550.226,175.234L550.227,175.234L550.228,175.234L550.229,175.234L550.222,175.218L550.222,175.217L550.221,175.216L550.221,175.215L550.221,175.213L550.221,175.213L550.219,175.213L550.219,175.213L550.217,175.214L550.217,175.213L550.216,175.212L550.209,175.212L550.209,175.213L550.207,175.213L550.206,175.213L550.205,175.209L550.205,175.208L550.205,175.208L550.204,175.206L550.203,175.206L550.203,175.207L550.202,175.207L550.203,175.208L550.201,175.209L550.201,175.209L550.2,175.208L550.198,175.206L550.199,175.206L550.197,175.204L550.195,175.201L550.194,175.2L550.193,175.198L550.192,175.197L550.192,175.196L550.192,175.196L550.192,175.196L550.192,175.196L550.192,175.196L550.189,175.191L550.188,175.19L550.182,175.181L550.181,175.178L550.183,175.177L550.183,175.177L550.183,175.176L550.183,175.175L550.181,175.176L550.181,175.174L550.184,175.174L550.185,175.174L550.183,175.158L550.183,175.157L550.181,175.156L550.18,175.155L550.179,175.155L550.178,175.155L550.178,175.154L550.178,175.151L550.177,175.149L550.177,175.149L550.177,175.148L550.177,175.148L550.178,175.148L550.177,175.146L550.178,175.145L550.178,175.14L550.177,175.139L550.175,175.139L550.175,175.139L550.175,175.138L550.176,175.136L550.176,175.135L550.176,175.135L550.177,175.134L550.181,175.133L550.181,175.133L550.185,175.122L550.185,175.122L550.187,175.118L550.184,175.116L550.182,175.115L550.182,175.113L550.183,175.112L550.183,175.111L550.181,175.11L550.183,175.107L550.185,175.107L550.192,175.099L550.193,175.098L550.196,175.092L550.199,175.084L550.2,175.079L550.199,175.074L550.197,175.06L550.196,175.058L550.196,175.056L550.195,175.046L550.197,175.036L550.197,175.032L550.197,175.031L550.194,175.031L550.194,175.03L550.2,175.03L550.204,175.03L550.205,175.03L550.236,175.033L550.238,175.029L550.24,175.026L550.255,174.998L550.243,174.989L550.244,174.988L550.244,174.988L550.248,174.98L550.247,174.98L550.248,174.978L550.246,174.977L550.25,174.969L550.255,174.96L550.258,174.954L550.259,174.954L550.259,174.951L550.257,174.95L550.257,174.949L550.257,174.949L550.257,174.948L550.258,174.948L550.258,174.948L550.259,174.947L550.26,174.947L550.261,174.947L550.262,174.946L550.263,174.946L550.263,174.946L550.264,174.946L550.264,174.945L550.264,174.945L550.265,174.945L550.265,174.944L550.265,174.944L550.265,174.944L550.265,174.944L550.265,174.943L550.265,174.942L550.265,174.941L550.265,174.941L550.265,174.94L550.265,174.939L550.265,174.939L550.265,174.938L550.264,174.938L550.265,174.937L550.265,174.937L550.265,174.936L550.265,174.936L550.265,174.935L550.265,174.935L550.266,174.935L550.266,174.934L550.266,174.933L550.266,174.933L550.266,174.932L550.266,174.932L550.266,174.932L550.266,174.931L550.266,174.93L550.266,174.93L550.266,174.93L550.265,174.929L550.266,174.928L550.266,174.927L550.267,174.926L550.267,174.926L550.271,174.917L550.271,174.917L550.27,174.916L550.269,174.915L550.267,174.915L550.265,174.915L550.262,174.915L550.259,174.915L550.256,174.915L550.261,174.908L550.266,174.901L550.294,174.918L550.3,174.926L550.296,174.933L550.298,174.934L550.299,174.935L550.299,174.935L550.299,174.935L550.3,174.935L550.301,174.934L550.302,174.934L550.303,174.934L550.305,174.934L550.306,174.934L550.308,174.934L550.31,174.934L550.314,174.933L550.315,174.933L550.315,174.933L550.316,174.932L550.317,174.931L550.321,174.928L550.321,174.928L550.323,174.927L550.326,174.925L550.328,174.924L550.33,174.922L550.331,174.922L550.332,174.921L550.335,174.919L550.339,174.917L550.341,174.917L550.342,174.916L550.344,174.915L550.346,174.914L550.349,174.913L550.35,174.913L550.35,174.913L550.351,174.913L550.351,174.913L550.352,174.913L550.352,174.912L550.359,174.913L550.364,174.914L550.369,174.914L550.373,174.916L550.376,174.916L550.38,174.918L550.382,174.918L550.385,174.919L550.395,174.922L550.398,174.923L550.4,174.923L550.407,174.925L550.409,174.926L550.428,174.932L550.434,174.933L550.445,174.936L550.451,174.938L550.457,174.94L550.462,174.941L550.467,174.943L550.469,174.943L550.473,174.945L550.452,174.975L550.456,174.978L550.456,174.979L550.448,174.988L550.451,174.99L550.441,175.001L550.431,175.028L550.431,175.028L550.501,175.079L550.49,175.1L550.489,175.103L550.487,175.114L550.487,175.116L550.466,175.105L550.471,175.129L550.471,175.131L550.473,175.139L550.465,175.147L550.454,175.158L550.454,175.162L550.454,175.162L550.453,175.164L550.453,175.165L550.452,175.165L550.452,175.165L550.451,175.167L550.46,175.171L550.462,175.172L550.466,175.174L550.46,175.185L550.449,175.18L550.447,175.189L550.447,175.189L550.447,175.189L550.446,175.19L550.437,175.207L550.433,175.21L550.431,175.219L550.426,175.23L550.42,175.232L550.413,175.237L550.4,175.25L550.401,175.251L550.401,175.252L550.393,175.26L550.395,175.262L550.386,175.27L550.394,175.281L550.388,175.285L550.382,175.288L550.377,175.296L550.367,175.32L550.365,175.322L550.364,175.324L550.371,175.332L550.379,175.336L550.38,175.332L550.381,175.33L550.383,175.323L550.392,175.325L550.393,175.326L550.404,175.332L550.415,175.33L550.416,175.331L550.411,175.338L550.407,175.344L550.404,175.348L550.4,175.357L550.398,175.361L550.403,175.363L550.403,175.363L550.403,175.362L550.405,175.363L550.405,175.364L550.405,175.364L550.405,175.364L550.405,175.364L550.404,175.365L550.404,175.371L550.404,175.373L550.407,175.383L550.407,175.386L550.409,175.389L550.411,175.389L550.413,175.39L550.415,175.39L550.421,175.391L550.422,175.392L550.436,175.405L550.436,175.405L550.426,175.415L550.421,175.419L550.405,175.438L550.41,175.443L550.41,175.443L550.411,175.442L550.424,175.454L550.431,175.446L550.501,175.373L550.502,175.372L550.505,175.368L550.506,175.368L550.511,175.36L550.544,175.378L550.544,175.378L550.576,175.374L550.576,175.375L550.576,175.374L550.586,175.373L550.586,175.382L550.596,175.39L550.611,175.399L550.611,175.4L550.611,175.4L550.622,175.4L550.632,175.401L550.639,175.406L550.639,175.406L550.643,175.408L550.645,175.407L550.645,175.407L550.646,175.406L550.646,175.406L550.653,175.401L550.656,175.398L550.656,175.397L550.659,175.395L550.661,175.395L550.666,175.398L550.666,175.398L550.667,175.398L550.668,175.396L550.67,175.397L550.672,175.398L550.672,175.397L550.674,175.399L550.677,175.402L550.678,175.402L550.679,175.403L550.681,175.404L550.687,175.399L550.689,175.394L550.69,175.394L550.691,175.392L550.691,175.392L550.691,175.392L550.691,175.392L550.692,175.392L550.692,175.391L550.692,175.391L550.692,175.391L550.692,175.391L550.693,175.39L550.693,175.39L550.693,175.39L550.693,175.39L550.693,175.389L550.693,175.389L550.694,175.389L550.694,175.389L550.694,175.389L550.694,175.388L550.694,175.388L550.695,175.388L550.695,175.388L550.695,175.388L550.695,175.387L550.695,175.387L550.695,175.387L550.695,175.387L550.695,175.387L550.695,175.387L550.696,175.387L550.695,175.387L550.695,175.387L550.695,175.387L550.695,175.387L550.695,175.386L550.695,175.386L550.696,175.386L550.696,175.386L550.695,175.386L550.695,175.386L550.696,175.386L550.696,175.386L550.696,175.386L550.696,175.386L550.696,175.386L550.697,175.385L550.697,175.385L550.697,175.385L550.697,175.384L550.698,175.384L550.698,175.383L550.699,175.383L550.699,175.383L550.699,175.383L550.699,175.383L550.699,175.382L550.7,175.382L550.7,175.382L550.7,175.382L550.7,175.382L550.7,175.381L550.7,175.381L550.7,175.381L550.701,175.381L550.701,175.381L550.701,175.38L550.701,175.38L550.702,175.38L550.702,175.38L550.702,175.38L550.702,175.379L550.702,175.379L550.702,175.379L550.703,175.379L550.703,175.378L550.703,175.378L550.703,175.378L550.703,175.378L550.703,175.377L550.703,175.377L550.703,175.377L550.704,175.376L550.704,175.376L550.704,175.375L550.704,175.375L550.704,175.374L550.704,175.373L550.704,175.373L550.704,175.373L550.704,175.373L550.704,175.372L550.704,175.372L550.704,175.371L550.704,175.371L550.704,175.371L550.704,175.371L550.704,175.371L550.705,175.371L550.705,175.371L550.705,175.371L550.705,175.37L550.705,175.37L550.705,175.37L550.705,175.369L550.705,175.369L550.705,175.369L550.705,175.368L550.705,175.368L550.705,175.367L550.706,175.367L550.706,175.367L550.706,175.367L550.706,175.367L550.706,175.367L550.706,175.366L550.706,175.366L550.706,175.366L550.706,175.366L550.706,175.366L550.706,175.365L550.706,175.365L550.707,175.365L550.707,175.365L550.707,175.365L550.707,175.365L550.707,175.364L550.707,175.364L550.707,175.364L550.707,175.364L550.707,175.364L550.707,175.364L550.707,175.364L550.707,175.364L550.707,175.364L550.707,175.364L550.707,175.363L550.707,175.363L550.707,175.363L550.707,175.363L550.707,175.362L550.707,175.362L550.707,175.362L550.707,175.361L550.707,175.361L550.707,175.361L550.707,175.36L550.707,175.36L550.706,175.36L550.706,175.359L550.706,175.359L550.707,175.359L550.707,175.359L550.707,175.359L550.707,175.359L550.707,175.359L550.716,175.358L550.727,175.358L550.73,175.362L550.733,175.365L550.741,175.378L550.745,175.384L550.76,175.406L550.779,175.435L550.78,175.435L550.78,175.435L550.781,175.435L550.781,175.435L550.782,175.435L550.782,175.434L550.782,175.434L550.782,175.434L550.782,175.433L550.782,175.433L550.783,175.433L550.783,175.433L550.783,175.433L550.784,175.433L550.784,175.433L550.784,175.434L550.784,175.434L550.785,175.434L550.785,175.434L550.785,175.434L550.785,175.434L550.786,175.433L550.786,175.433L550.787,175.433L550.787,175.433L550.787,175.433L550.788,175.433L550.788,175.434L550.788,175.434L550.788,175.434L550.789,175.434L550.789,175.434L550.789,175.435L550.79,175.435L550.79,175.435L550.791,175.435L550.791,175.435L550.791,175.435L550.792,175.435L550.792,175.435L550.793,175.435L550.794,175.436L550.794,175.436L550.794,175.436L550.794,175.437L550.795,175.437L550.795,175.438L550.796,175.439L550.797,175.439L550.797,175.44L550.798,175.44L550.798,175.441L550.798,175.441L550.799,175.441L550.799,175.441L550.799,175.441L550.8,175.441L550.801,175.441L550.801,175.441L550.802,175.441L550.803,175.441L550.803,175.44L550.804,175.44L550.804,175.439L550.804,175.439L550.804,175.439L550.804,175.438L550.804,175.438L550.804,175.437L550.805,175.436L550.805,175.436L550.805,175.436L550.805,175.436L550.806,175.436L550.806,175.436L550.807,175.436L550.808,175.436L550.808,175.436L550.808,175.436L550.808,175.436L550.809,175.435L550.809,175.435L550.809,175.434L550.81,175.433L550.81,175.433L550.81,175.432L550.809,175.432L550.809,175.431L550.809,175.431L550.809,175.43L550.809,175.43L550.81,175.429L550.81,175.429L550.811,175.428L550.811,175.428L550.813,175.428L550.814,175.427L550.814,175.427L550.814,175.427L550.814,175.427L550.815,175.427L550.815,175.427L550.814,175.427L550.814,175.425L550.814,175.424L550.814,175.424L550.814,175.424L550.814,175.423L550.814,175.423L550.814,175.423L550.815,175.423L550.815,175.422L550.816,175.422L550.816,175.423L550.817,175.423L550.818,175.422L550.818,175.422L550.819,175.422L550.819,175.422L550.819,175.421L550.819,175.421L550.82,175.421L550.82,175.421L550.821,175.42L550.822,175.42L550.823,175.419L550.823,175.419L550.824,175.419L550.825,175.419L550.825,175.419L550.826,175.419L550.826,175.419L550.826,175.419L550.827,175.419L550.827,175.419L550.828,175.419L550.828,175.419L550.828,175.419L550.829,175.419L550.83,175.419L550.831,175.418L550.831,175.418L550.832,175.418L550.833,175.417L550.833,175.417L550.834,175.417L550.835,175.416L550.835,175.416L550.836,175.416L550.836,175.415L550.837,175.415L550.837,175.415L550.838,175.414L550.839,175.414L550.839,175.414L550.84,175.414L550.84,175.414L550.84,175.414L550.841,175.413L550.842,175.413L550.842,175.413L550.842,175.413L550.842,175.413L550.843,175.413L550.843,175.413L550.838,175.372L550.837,175.351L550.837,175.339L550.825,175.336L550.824,175.334L550.816,175.334L550.818,175.321L550.815,175.321L550.816,175.314L550.815,175.311L550.815,175.308L550.814,175.308L550.814,175.309L550.812,175.309L550.812,175.308L550.812,175.308L550.812,175.307L550.811,175.307L550.807,175.309L550.806,175.307L550.801,175.309L550.798,175.309L550.796,175.308L550.795,175.299L550.796,175.298L550.808,175.287L550.809,175.286L550.81,175.286L550.81,175.285L550.81,175.285L550.81,175.285L550.81,175.284L550.811,175.283L550.811,175.282L550.811,175.282L550.811,175.281L550.811,175.281L550.812,175.279L550.812,175.278L550.812,175.278L550.813,175.275L550.813,175.274L550.813,175.274L550.813,175.274L550.813,175.274L550.813,175.274L550.813,175.274L550.813,175.274L550.813,175.274L550.813,175.273L550.813,175.273L550.813,175.273L550.814,175.273L550.814,175.273L550.814,175.273L550.814,175.273L550.83,175.271L550.831,175.271L550.853,175.267L550.854,175.267L550.868,175.265L550.87,175.261L550.872,175.256L550.871,175.251L550.87,175.249L550.867,175.248L550.866,175.247L550.867,175.244L550.868,175.243L550.87,175.237L550.874,175.235L550.874,175.234L550.874,175.227L550.875,175.226L550.874,175.221L550.884,175.22L550.885,175.211L550.941,175.219L550.961,175.136L550.97,175.138L550.971,175.138L550.973,175.138L550.974,175.137L550.981,175.137L550.986,175.139L550.988,175.139L550.988,175.138L550.987,175.136L551.001,175.136L551.005,175.136L551.011,175.134L551.015,175.134L551.016,175.134L551.02,175.134L551.029,175.133L551.029,175.13L551.028,175.125L551.028,175.118L551.03,175.117L551.03,175.118L551.033,175.118L551.033,175.118L551.034,175.118L551.036,175.117L551.036,175.117L551.036,175.117L551.037,175.118L551.037,175.118L551.042,175.117L551.042,175.117L551.043,175.117L551.045,175.117L551.046,175.117L551.048,175.117L551.05,175.117L551.068,175.144L551.068,175.144L551.068,175.145L551.071,175.151L551.072,175.151L551.072,175.151L551.076,175.157L551.08,175.162L551.08,175.165L551.084,175.163L551.138,175.153L551.134,175.136L551.16,175.091L551.172,175.086L551.229,175.087L551.258,175.09L551.262,175.091L551.261,175.088L551.258,175.084L551.255,175.081L551.251,175.077L551.25,175.075L551.248,175.071L551.248,175.066L551.249,175.064L551.251,175.061L551.255,175.06L551.261,175.06L551.263,175.06L551.265,175.059L551.266,175.058L551.266,175.056L551.266,175.054L551.265,175.053L551.263,175.049L551.255,175.052L551.251,175.052L551.248,175.052L551.244,175.051L551.24,175.049L551.229,175.038L551.233,175.02L551.224,175.006L551.216,175.003L551.213,175.002L551.211,175.001L551.213,174.995L551.222,174.98L551.225,174.973L551.217,174.967L551.208,174.966L551.196,174.965L551.184,174.966L551.176,174.966L551.169,174.965L551.158,174.962L551.145,174.955L551.139,174.954L551.131,174.953L551.127,174.953L551.123,174.952L551.117,174.949L551.1,174.939L551.089,174.935L551.074,174.933L551.059,174.929L551.05,174.925L551.043,174.919L551.038,174.913L551.025,174.896L551.007,174.877L550.996,174.865L550.993,174.859L550.99,174.854L550.982,174.847L550.965,174.836L550.955,174.83L550.945,174.825L550.943,174.824L550.939,174.82L550.937,174.817L550.935,174.813L550.935,174.809L550.936,174.806L550.937,174.799L550.938,174.793L550.938,174.79L550.936,174.787L550.934,174.785L550.931,174.783L550.927,174.783L550.92,174.784L550.901,174.793L550.895,174.793L550.891,174.793L550.888,174.792L550.88,174.788L550.871,174.782L550.866,174.776L550.856,174.766L550.849,174.762L550.843,174.758L550.834,174.755L550.826,174.752L550.822,174.748L550.821,174.743L550.82,174.739L550.821,174.733L550.822,174.724L550.823,174.717L550.822,174.711L550.828,174.709L550.829,174.709L550.829,174.709L550.831,174.709L550.831,174.709L550.84,174.707L550.842,174.708L550.847,174.706L550.848,174.701L550.861,174.697L550.867,174.695L550.862,174.686L550.853,174.663L550.847,174.647L550.835,174.618L550.835,174.616L550.833,174.609L550.829,174.604L550.829,174.601L550.826,174.601L550.826,174.599L550.833,174.537L550.839,174.489L550.841,174.465L550.843,174.453L550.844,174.443L550.845,174.428L550.846,174.421L550.846,174.421L550.846,174.421L550.846,174.421L550.852,174.365L550.853,174.354L550.854,174.348L550.854,174.347L550.855,174.338L550.855,174.338L550.856,174.337L550.857,174.337L550.861,174.335L550.861,174.335L550.862,174.335L550.862,174.335L550.875,174.328L550.878,174.326L550.88,174.329L550.88,174.33L550.88,174.33L550.881,174.33L550.881,174.33L550.882,174.329L550.886,174.328L550.888,174.327L550.895,174.323L550.906,174.315L550.907,174.319L550.908,174.321L550.921,174.343L550.924,174.341L550.926,174.34L550.932,174.341L550.934,174.34L550.935,174.339L550.937,174.339L550.938,174.339L550.94,174.338L550.94,174.338L550.941,174.337L550.942,174.337L550.943,174.337L550.932,174.329L550.928,174.331L550.927,174.329L550.929,174.328L550.93,174.327L550.926,174.322L550.926,174.321L550.925,174.319L550.924,174.318L550.924,174.317L550.924,174.317L550.923,174.316L550.923,174.313L550.923,174.313L550.923,174.313L550.923,174.309L550.92,174.308L550.92,174.309L550.919,174.31L550.919,174.312L550.919,174.312L550.918,174.312L550.914,174.311L550.914,174.308L550.918,174.304L550.919,174.302L550.919,174.302L550.918,174.302L550.918,174.302L550.917,174.302L550.917,174.302L550.917,174.302L550.917,174.302L550.917,174.302L550.917,174.302L550.916,174.303L550.916,174.302L550.916,174.303L550.916,174.303L550.916,174.303L550.916,174.303L550.916,174.303L550.916,174.303L550.915,174.304L550.915,174.304L550.915,174.304L550.915,174.304L550.915,174.304L550.914,174.304L550.914,174.304L550.914,174.304L550.914,174.305L550.914,174.305L550.914,174.305L550.913,174.305L550.913,174.305L550.913,174.305L550.912,174.304L550.911,174.305L550.91,174.305L550.908,174.305L550.908,174.305L550.907,174.305L550.907,174.304L550.907,174.304L550.907,174.304L550.907,174.304L550.907,174.304L550.907,174.303L550.907,174.303L550.906,174.303L550.905,174.303L550.904,174.303L550.904,174.303L550.904,174.303L550.904,174.303L550.903,174.303L550.903,174.303L550.903,174.303L550.902,174.303L550.902,174.303L550.902,174.302L550.901,174.302L550.901,174.302L550.901,174.302L550.901,174.302L550.901,174.301L550.901,174.301L550.901,174.301L550.901,174.301L550.901,174.3L550.9,174.3L550.9,174.3L550.899,174.3L550.9,174.3L550.899,174.3L550.899,174.3L550.899,174.3L550.899,174.3L550.899,174.299L550.898,174.299L550.898,174.299L550.898,174.299L550.898,174.299L550.897,174.299L550.897,174.299L550.897,174.299L550.897,174.298L550.897,174.299L550.896,174.299L550.896,174.299L550.896,174.299L550.896,174.298L550.896,174.298L550.896,174.298L550.895,174.298L550.895,174.298L550.896,174.298L550.896,174.298L550.895,174.298L550.895,174.298L550.895,174.298L550.895,174.298L550.894,174.298L550.894,174.298L550.894,174.298L550.894,174.298L550.894,174.297L550.894,174.297L550.894,174.297L550.894,174.297L550.893,174.297L550.893,174.297L550.894,174.297L550.893,174.297L550.893,174.297L550.893,174.297L550.893,174.297L550.893,174.297L550.892,174.297L550.892,174.298L550.892,174.298L550.892,174.298L550.892,174.298L550.891,174.298L550.891,174.298L550.891,174.298L550.891,174.297L550.891,174.297L550.888,174.297L550.888,174.297L550.887,174.298L550.888,174.298L550.887,174.298L550.887,174.298L550.887,174.299L550.887,174.299L550.886,174.3L550.886,174.3L550.886,174.3L550.886,174.301L550.885,174.3L550.885,174.3L550.885,174.3L550.885,174.3L550.884,174.3L550.882,174.3L550.881,174.3L550.88,174.3L550.88,174.299L550.881,174.298L550.883,174.297L550.883,174.297L550.884,174.296L550.885,174.296L550.885,174.295L550.885,174.295L550.885,174.293L550.884,174.292L550.885,174.291L550.885,174.291L550.886,174.291L550.886,174.292L550.887,174.293L550.887,174.293L550.888,174.292L550.889,174.291L550.889,174.291L550.888,174.29L550.888,174.289L550.888,174.289L550.887,174.288L550.887,174.287L550.887,174.287L550.887,174.286L550.888,174.286L550.888,174.286L550.889,174.285L550.889,174.284L550.888,174.283L550.889,174.283L550.889,174.283L550.89,174.283L550.89,174.283L550.891,174.284L550.891,174.284L550.892,174.284L550.892,174.284L550.893,174.284L550.894,174.284L550.894,174.284L550.894,174.284L550.894,174.283L550.894,174.283L550.894,174.282L550.895,174.28L550.896,174.28L550.896,174.28L550.896,174.279L550.896,174.279L550.897,174.278L550.896,174.278L550.896,174.277L550.895,174.277L550.894,174.276L550.894,174.276L550.893,174.276L550.892,174.276L550.892,174.276L550.891,174.277L550.891,174.277L550.891,174.277L550.891,174.278L550.89,174.277L550.89,174.277L550.89,174.277L550.89,174.276L550.891,174.275L550.89,174.275L550.89,174.274L550.89,174.273L550.89,174.273L550.89,174.271L550.89,174.271L550.891,174.271L550.891,174.271L550.891,174.271L550.891,174.272L550.891,174.273L550.891,174.274L550.891,174.274L550.892,174.274L550.893,174.272L550.893,174.272L550.893,174.271L550.893,174.271L550.894,174.271L550.894,174.271L550.894,174.27L550.894,174.27L550.894,174.269L550.894,174.268L550.893,174.267L550.894,174.267L550.893,174.266L550.893,174.266L550.893,174.265L550.891,174.264L550.874,174.279L550.867,174.285L550.862,174.289L550.857,174.287L550.854,174.287L550.854,174.286L550.853,174.285L550.851,174.284L550.848,174.282L550.847,174.283L550.846,174.281L550.847,174.28L550.848,174.278L550.848,174.278L550.848,174.277L550.846,174.274L550.844,174.271L550.845,174.264L550.844,174.261L550.842,174.26L550.84,174.258L550.84,174.257L550.839,174.254L550.84,174.252L550.84,174.251L550.838,174.248L550.838,174.246L550.839,174.244L550.839,174.242L550.838,174.241L550.837,174.24L550.836,174.239L550.834,174.239L550.833,174.239L550.832,174.238L550.833,174.236L550.834,174.236L550.834,174.235L550.837,174.231L550.838,174.228L550.839,174.226L550.839,174.225L550.84,174.221L550.84,174.219L550.84,174.218L550.84,174.218L550.833,174.215L550.832,174.214L550.832,174.213L550.832,174.212L550.826,174.214L550.825,174.212L550.824,174.209L550.823,174.208L550.821,174.208L550.821,174.21L550.818,174.212L550.817,174.212L550.816,174.211L550.816,174.21L550.816,174.209L550.816,174.209L550.815,174.208L550.816,174.208L550.815,174.207L550.815,174.206L550.814,174.206L550.814,174.206L550.813,174.206L550.813,174.206L550.813,174.205L550.814,174.205L550.814,174.205L550.814,174.205L550.814,174.204L550.813,174.203L550.813,174.202L550.813,174.2L550.813,174.199L550.812,174.196L550.812,174.196L550.811,174.197L550.811,174.196L550.811,174.196L550.812,174.196L550.812,174.196L550.812,174.194L550.811,174.193L550.811,174.192L550.81,174.191L550.81,174.191L550.81,174.191L550.81,174.191L550.81,174.19L550.81,174.19L550.81,174.19L550.81,174.189L550.81,174.187L550.811,174.187L550.811,174.186L550.811,174.186L550.811,174.186L550.811,174.186L550.811,174.185L550.812,174.185L550.812,174.185L550.813,174.184L550.813,174.183L550.814,174.181L550.814,174.181L550.815,174.181L550.815,174.181L550.815,174.181L550.816,174.18L550.816,174.178L550.816,174.178L550.816,174.177L550.816,174.177L550.816,174.176L550.816,174.171L550.816,174.169L550.816,174.169L550.816,174.168L550.816,174.165L550.816,174.164L550.815,174.163L550.815,174.162L550.814,174.162L550.814,174.162L550.813,174.162L550.813,174.163L550.812,174.164L550.811,174.167L550.807,174.171L550.806,174.172L550.805,174.172L550.804,174.172L550.802,174.171L550.801,174.169L550.8,174.167L550.8,174.165L550.799,174.164L550.799,174.164L550.797,174.164L550.795,174.165L550.794,174.165L550.793,174.164L550.793,174.163L550.793,174.161L550.793,174.16L550.793,174.158L550.793,174.157L550.793,174.156L550.792,174.156L550.791,174.156L550.788,174.157L550.786,174.157L550.785,174.158L550.785,174.158L550.784,174.16L550.784,174.162L550.783,174.163L550.782,174.164L550.781,174.164L550.78,174.164L550.779,174.164L550.779,174.163L550.779,174.163L550.779,174.162L550.778,174.16L550.778,174.159L550.778,174.158L550.777,174.157L550.776,174.157L550.775,174.156L550.774,174.155L550.774,174.155L550.774,174.154L550.774,174.154L550.774,174.153L550.774,174.153L550.775,174.151L550.775,174.15L550.776,174.15L550.777,174.15L550.779,174.15L550.779,174.15L550.78,174.15L550.781,174.149L550.781,174.149L550.781,174.149L550.78,174.148L550.78,174.148L550.777,174.147L550.775,174.147L550.774,174.147L550.774,174.147L550.772,174.147L550.771,174.146L550.771,174.146L550.77,174.145L550.77,174.144L550.771,174.142L550.772,174.141L550.773,174.139L550.773,174.139L550.773,174.138L550.773,174.137L550.774,174.136L550.774,174.136L550.775,174.135L550.777,174.135L550.777,174.135L550.778,174.135L550.779,174.134L550.779,174.133L550.78,174.132L550.78,174.132L550.78,174.131L550.78,174.131L550.78,174.13L550.781,174.129L550.781,174.128L550.78,174.128L550.78,174.127L550.778,174.127L550.775,174.128L550.773,174.127L550.771,174.126L550.769,174.125L550.769,174.124L550.769,174.123L550.769,174.122L550.768,174.121L550.768,174.119L550.766,174.118L550.765,174.116L550.764,174.115L550.751,174.109L550.749,174.108L550.742,174.105L550.737,174.103L550.73,174.109L550.729,174.109L550.73,174.106L550.729,174.104L550.729,174.103L550.728,174.102L550.727,174.101L550.726,174.1L550.725,174.099L550.723,174.098L550.718,174.096L550.709,174.092L550.708,174.09L550.698,174.086L550.693,174.084L550.695,174.079L550.697,174.075L550.688,174.07L550.678,174.065L550.67,174.061L550.661,174.056L550.647,174.049L550.648,174.047L550.647,174.046L550.648,174.044L550.646,174.042L550.642,174.04L550.643,174.037L550.638,174.017L550.631,173.993L550.629,173.982L550.628,173.978L550.628,173.977L550.625,173.973L550.623,173.972L550.623,173.971L550.618,173.947L550.614,173.938L550.612,173.937L550.605,173.933L550.602,173.932L550.599,173.933L550.568,173.937L550.555,173.94L550.552,173.938L550.515,173.92L550.514,173.92L550.505,173.936L550.486,173.926L550.486,173.919L550.482,173.918L550.481,173.919L550.479,173.919L550.471,173.91L550.468,173.907L550.459,173.896L550.458,173.88L550.458,173.879L550.455,173.879L550.455,173.874L550.452,173.872L550.452,173.869L550.452,173.869L550.453,173.869L550.453,173.868L550.453,173.867L550.452,173.866L550.452,173.866L550.452,173.861L550.451,173.851L550.452,173.851L550.452,173.851L550.451,173.85L550.45,173.848L550.448,173.846L550.446,173.843L550.445,173.842L550.444,173.841L550.444,173.841L550.443,173.84L550.444,173.839L550.444,173.838L550.444,173.837L550.443,173.836L550.443,173.835L550.443,173.833L550.443,173.831L550.443,173.83L550.443,173.83L550.442,173.828L550.441,173.827L550.438,173.825L550.436,173.823L550.433,173.822L550.433,173.821L550.432,173.82L550.432,173.82L550.42,173.83L550.396,173.842L550.393,173.844L550.393,173.844L550.392,173.844L550.392,173.844L550.39,173.845L550.39,173.844L550.39,173.844L550.389,173.844L550.385,173.844L550.382,173.844L550.376,173.845L550.375,173.845L550.373,173.847L550.372,173.849L550.369,173.85L550.366,173.85L550.365,173.851L550.367,173.854L550.367,173.854L550.365,173.855L550.356,173.852L550.348,173.849L550.345,173.849L550.326,173.848L550.326,173.846L550.324,173.845L550.316,173.845L550.316,173.845L550.316,173.844L550.316,173.843L550.317,173.842L550.317,173.841L550.318,173.839L550.319,173.838L550.32,173.837L550.325,173.834L550.322,173.813L550.306,173.814L550.306,173.809L550.306,173.808L550.304,173.808L550.304,173.808L550.303,173.808L550.302,173.808L550.302,173.808L550.302,173.808L550.301,173.808L550.301,173.808L550.301,173.808L550.301,173.808L550.3,173.808L550.3,173.808L550.3,173.808L550.299,173.808L550.298,173.808L550.298,173.808L550.298,173.808L550.297,173.808L550.297,173.808L550.297,173.808L550.296,173.808L550.296,173.808L550.295,173.808L550.295,173.808L550.294,173.808L550.294,173.808L550.294,173.808L550.294,173.808L550.294,173.808L550.293,173.808L550.293,173.808L550.293,173.808L550.293,173.808L550.292,173.808L550.292,173.808L550.292,173.808L550.292,173.808L550.292,173.808L550.292,173.808L550.292,173.808L550.291,173.808L550.291,173.808L550.291,173.808L550.29,173.808L550.29,173.809L550.289,173.809L550.289,173.809L550.288,173.809L550.288,173.809L550.288,173.81L550.287,173.809L550.287,173.81L550.286,173.81L550.286,173.81L550.287,173.808L550.288,173.806L550.288,173.805L550.288,173.801L550.288,173.801L550.288,173.801L550.288,173.8L550.288,173.8L550.288,173.8L550.288,173.796L550.288,173.794L550.289,173.792L550.289,173.791L550.289,173.791L550.289,173.79L550.29,173.79L550.29,173.79L550.291,173.791L550.291,173.791L550.292,173.791L550.292,173.791L550.292,173.791L550.293,173.79L550.293,173.789L550.294,173.787L550.294,173.786L550.293,173.785L550.293,173.785L550.293,173.785L550.293,173.786L550.291,173.784L550.288,173.789L550.286,173.793L550.286,173.796L550.282,173.799L550.282,173.798L550.282,173.797L550.282,173.797L550.282,173.797L550.279,173.799L550.278,173.798L550.277,173.8L550.277,173.8L550.277,173.8L550.278,173.802L550.277,173.803L550.276,173.804L550.274,173.805L550.274,173.805L550.273,173.805L550.273,173.806L550.273,173.806L550.273,173.806L550.272,173.806L550.272,173.806L550.272,173.806L550.271,173.806L550.271,173.806L550.27,173.806L550.27,173.806L550.27,173.807L550.27,173.807L550.27,173.807L550.27,173.806L550.269,173.806L550.269,173.806L550.269,173.807L550.269,173.807L550.269,173.807L550.269,173.807L550.268,173.807L550.268,173.807L550.257,173.799L550.246,173.791L550.22,173.789L550.173,173.788L550.148,173.787L550.113,173.786L550.099,173.785L550.03,173.758L550.034,173.735L550.035,173.733L550.035,173.731L550.031,173.724L550.024,173.719L550.021,173.717L550.021,173.715L550.02,173.709L550.017,173.707L550.013,173.698L550.012,173.697L550.012,173.697L550.015,173.691L550.014,173.69L550.012,173.688L550.011,173.688L550.011,173.688L550.006,173.687L550.006,173.687L550.005,173.686L550.004,173.688L550.004,173.69L550.004,173.691L550.004,173.692L550.003,173.696L550.003,173.697L550.002,173.699L550.002,173.699L550.002,173.699L550.002,173.7L550.002,173.701L550.001,173.7L550.001,173.7L550.001,173.7L549.999,173.699L549.999,173.699L549.999,173.699L549.999,173.699L549.999,173.699L549.999,173.7L549.999,173.701L549.999,173.701L549.999,173.701L549.999,173.701L549.998,173.701L549.998,173.701L549.997,173.701L549.997,173.7L549.997,173.7L549.997,173.699L549.997,173.699L549.996,173.698L549.995,173.697L549.994,173.697L549.993,173.697L549.992,173.697L549.992,173.697L549.991,173.697L549.991,173.696L549.992,173.696L549.992,173.695L549.992,173.695L549.991,173.695L549.991,173.694L549.99,173.694L549.99,173.695L549.989,173.695L549.988,173.695L549.987,173.695L549.987,173.695L549.987,173.695L549.987,173.694L549.988,173.694L549.988,173.693L549.987,173.693L549.987,173.693L549.986,173.693L549.985,173.693L549.984,173.693L549.984,173.693L549.983,173.693L549.983,173.693L549.983,173.692L549.984,173.692L549.984,173.691L549.983,173.691L549.982,173.691L549.982,173.691L549.981,173.69L549.981,173.69L549.98,173.689L549.98,173.689L549.98,173.688L549.98,173.687L549.979,173.687L549.978,173.687L549.978,173.687L549.977,173.687L549.977,173.686L549.977,173.686L549.978,173.685L549.979,173.684L549.979,173.683L549.979,173.683L549.979,173.683L549.978,173.683L549.978,173.684L549.977,173.684L549.975,173.684L549.975,173.683L549.975,173.683L549.975,173.682L549.975,173.682L549.976,173.681L549.977,173.681L549.977,173.68L549.977,173.68L549.978,173.679L549.978,173.679L549.978,173.678L549.978,173.678L549.978,173.677L549.977,173.677L549.977,173.677L549.976,173.678L549.976,173.68L549.976,173.68L549.976,173.68L549.975,173.68L549.974,173.68L549.974,173.679L549.974,173.679L549.973,173.679L549.973,173.68L549.972,173.68L549.972,173.681L549.971,173.681L549.97,173.681L549.97,173.681L549.97,173.68L549.971,173.679L549.971,173.678L549.971,173.677L549.971,173.677L549.972,173.676L549.972,173.676L549.973,173.676L549.973,173.677L549.973,173.677L549.973,173.678L549.974,173.678L549.974,173.677L549.974,173.677L549.974,173.676L549.974,173.675L549.974,173.675L549.975,173.675L549.975,173.674L549.975,173.673L549.974,173.673L549.974,173.672L549.974,173.672L549.974,173.671L549.973,173.671L549.973,173.671L549.973,173.671L549.973,173.671L549.973,173.672L549.973,173.672L549.973,173.673L549.973,173.673L549.973,173.673L549.972,173.674L549.972,173.674L549.972,173.674L549.972,173.673L549.971,173.672L549.971,173.672L549.971,173.672L549.97,173.672L549.97,173.672L549.97,173.672L549.969,173.671L549.969,173.671L549.969,173.671L549.969,173.67L549.97,173.67L549.97,173.669L549.971,173.668L549.971,173.667L549.971,173.667L549.97,173.667L549.97,173.667L549.97,173.667L549.969,173.668L549.969,173.668L549.968,173.668L549.968,173.667L549.969,173.667L549.969,173.666L549.969,173.666L549.969,173.665L549.969,173.665L549.968,173.664L549.968,173.663L549.968,173.663L549.968,173.663L549.968,173.663L549.967,173.663L549.967,173.663L549.967,173.663L549.967,173.664L549.968,173.664L549.967,173.664L549.965,173.664L549.965,173.665L549.963,173.665L549.963,173.666L549.962,173.666L549.961,173.665L549.96,173.665L549.959,173.665L549.959,173.664L549.959,173.664L549.959,173.663L549.96,173.662L549.96,173.662L549.96,173.661L549.96,173.661L549.959,173.661L549.958,173.661L549.957,173.66L549.957,173.66L549.958,173.659L549.957,173.659L549.957,173.659L549.956,173.66L549.955,173.662L549.954,173.662L549.954,173.661L549.954,173.661L549.955,173.66L549.955,173.66L549.955,173.659L549.954,173.659L549.953,173.659L549.953,173.66L549.953,173.66L549.953,173.66L549.951,173.66L549.95,173.659L549.95,173.659L549.949,173.66L549.949,173.66L549.949,173.66L549.949,173.659L549.95,173.659L549.95,173.658L549.949,173.657L549.949,173.656L549.948,173.657L549.948,173.657L549.947,173.656L549.947,173.655L549.946,173.655L549.946,173.655L549.945,173.656L549.945,173.657L549.944,173.656L549.944,173.656L549.943,173.654L549.943,173.653L549.943,173.652L549.943,173.652L549.941,173.654L549.94,173.654L549.94,173.654L549.941,173.653L549.941,173.653L549.941,173.651L549.941,173.651L549.94,173.651L549.94,173.651L549.939,173.651L549.939,173.651L549.938,173.65L549.937,173.649L549.937,173.649L549.937,173.649L549.936,173.649L549.936,173.649L549.935,173.65L549.933,173.65L549.932,173.65L549.931,173.65L549.93,173.65L549.93,173.651L549.93,173.651L549.931,173.651L549.931,173.651L549.932,173.651L549.932,173.652L549.932,173.653L549.932,173.653L549.931,173.654L549.93,173.654L549.93,173.654L549.929,173.654L549.929,173.654L549.928,173.654L549.928,173.654L549.928,173.652L549.927,173.652L549.927,173.651L549.926,173.652L549.927,173.653L549.927,173.653L549.927,173.653L549.926,173.653L549.924,173.652L549.924,173.652L549.925,173.652L549.925,173.652L549.925,173.652L549.926,173.652L549.926,173.651L549.925,173.65L549.925,173.65L549.925,173.649L549.925,173.649L549.925,173.649L549.925,173.648L549.924,173.648L549.923,173.648L549.923,173.648L549.922,173.649L549.921,173.649L549.92,173.649L549.919,173.649ZM550.259,174.907L550.254,174.914L550.251,174.921L550.247,174.927L550.243,174.934L550.243,174.934L550.238,174.941L550.232,174.952L550.23,174.951L550.222,174.964L550.216,174.963L550.216,174.962L550.25,174.901ZM800,0L800,12.246L800,78.668L800,145.789L800,215.835L800,261.497L800,300L800,338.503L800,384.165L800,454.211L800,600L800,600L200,600L200,600L200,454.211L200,384.165L200,338.503L200,300L200,261.497L200,215.835L200,145.789L200,78.668L200,12.246L200,0L200,0L800,0Z"/>
<path d="M550.527,174.444m0,4.5a4.5,4.5 0 1,1 0,-9a4.5,4.5 0 1,1 0,9z"/>
<path d="M550.264,174.371m0,4.5a4.5,4.5 0 1,1 0,-9a4.5,4.5 0 1,1 0,9z"/>
</svg>