<?xml version="1.0" encoding="UTF-8"?>
<svg xmlns="http://www.w3.org/2000/svg" viewBox="0 0 1000 600" stroke="#000" stroke-width="0.3" fill="#ccc">
<path d="M572.31,218.539L572.314,218.537L572.32,218.533L572.326,218.532L572.334,218.529L572.337,218.522L572.346,218.51L572.353,218.5L572.356,218.497L572.359,218.496L572.369,218.498L572.371,218.499L572.374,218.5L572.377,218.497L572.382,218.494L572.391,218.49L572.402,218.488L572.412,218.488L572.419,218.489L572.423,218.489L572.436,218.485L572.451,218.484L572.456,218.483L572.477,218.49L572.493,218.493L572.498,218.493L572.508,218.495L572.521,218.508L572.536,218.516L572.544,218.519L572.55,218.521L572.559,218.524L572.565,218.526L572.576,218.535L572.583,218.535L572.594,218.529L572.603,218.527L572.612,218.526L572.619,218.52L572.626,218.52L572.629,218.522L572.633,218.524L572.636,218.524L572.641,218.526L572.645,218.526L572.649,218.524L572.653,218.525L572.656,218.527L572.661,218.528L572.665,218.529L572.67,218.531L572.676,218.535L572.679,218.537L572.684,218.541L572.686,218.542L572.691,218.54L572.695,218.54L572.702,218.542L572.708,218.545L572.713,218.548L572.723,218.55L572.728,218.549L572.731,218.55L572.737,218.55L572.741,218.55L572.748,218.552L572.755,218.556L572.76,218.556L572.762,218.56L572.764,218.556L572.766,218.555L572.771,218.558L572.771,218.56L572.777,218.557L572.783,218.556L572.785,218.559L572.789,218.558L572.793,218.562L572.803,218.561L572.806,218.558L572.809,218.559L572.813,218.562L572.811,218.566L572.818,218.565L572.823,218.569L572.828,218.568L572.834,218.565L572.838,218.563L572.846,218.564L572.853,218.564L572.861,218.567L572.869,218.573L572.869,218.578L572.872,218.582L572.881,218.586L572.888,218.592L572.89,218.59L572.891,218.583L572.891,218.582L572.892,218.58L572.895,218.583L572.9,218.587L572.904,218.589L572.906,218.59L572.908,218.591L572.909,218.593L572.909,218.579L572.911,218.563L572.918,218.556L572.92,218.549L572.925,218.535L572.919,218.521L572.919,218.519L572.917,218.511L572.917,218.51L572.918,218.509L572.919,218.508L572.927,218.512L572.932,218.497L572.943,218.466L572.944,218.466L572.951,218.466L572.951,218.399L572.951,218.391L572.951,218.34L572.955,218.34L572.957,218.338L572.962,218.337L572.965,218.331L572.968,218.328L572.969,218.319L572.969,218.316L572.972,218.312L572.975,218.31L572.977,218.31L572.979,218.312L572.979,218.312L572.981,218.311L572.982,218.31L572.989,218.306L572.99,218.302L572.992,218.298L572.994,218.297L572.997,218.294L572.998,218.29L573.003,218.287L573.005,218.287L573.008,218.286L573.011,218.283L573.016,218.278L573.022,218.275L573.028,218.269L573.033,218.265L573.073,218.264L573.097,218.264L573.096,218.26L573.095,218.255L573.094,218.246L573.098,218.24L573.097,218.23L573.098,218.229L573.105,218.225L573.106,218.224L573.106,218.221L573.105,218.201L573.109,218.201L573.113,218.199L573.117,218.197L573.123,218.194L573.126,218.192L573.128,218.192L573.128,218.19L573.13,218.187L573.133,218.185L573.139,218.179L573.141,218.177L573.141,218.174L573.143,218.172L573.145,218.172L573.15,218.166L573.154,218.164L573.157,218.159L573.158,218.158L573.159,218.151L573.16,218.148L573.163,218.149L573.165,218.147L573.171,218.146L573.174,218.148L573.176,218.147L573.179,218.147L573.181,218.146L573.182,218.142L573.183,218.141L573.186,218.141L573.188,218.14L573.189,218.137L573.19,218.136L573.193,218.138L573.195,218.136L573.195,218.133L573.195,218.131L573.199,218.131L573.201,218.127L573.204,218.125L573.209,218.125L573.211,218.13L573.213,218.13L573.218,218.129L573.22,218.129L573.22,218.149L573.241,218.149L573.241,218.203L573.312,218.204L573.312,218.24L573.354,218.24L573.361,218.24L573.407,218.24L573.49,218.24L573.521,218.241L573.573,218.241L573.573,218.337L573.708,218.338L573.709,218.361L573.732,218.36L573.743,218.361L573.781,218.361L573.782,218.255L573.823,218.255L573.823,218.255L573.864,218.255L573.864,218.234L573.906,218.235L573.907,218.235L573.948,218.235L573.949,218.161L573.952,218.16L573.959,218.161L573.969,218.157L573.969,218.15L573.977,218.148L573.982,218.149L573.984,218.15L573.991,218.149L573.992,218.151L573.997,218.151L574,218.152L574.006,218.149L574.01,218.147L574.016,218.146L574.021,218.145L574.022,218.139L574.023,218.135L574.022,218.132L574.032,218.134L574.032,218.257L574.032,218.298L573.906,218.297L573.906,218.339L573.906,218.393L573.896,218.397L573.893,218.399L573.881,218.409L573.874,218.415L573.869,218.416L573.865,218.419L573.855,218.419L573.844,218.421L573.84,218.422L573.833,218.421L573.83,218.423L573.822,218.422L573.822,218.445L573.822,218.471L573.821,218.509L573.821,218.612L573.823,218.613L573.828,218.614L573.831,218.615L573.835,218.616L573.841,218.618L573.842,218.618L573.843,218.618L573.851,218.618L573.852,218.618L573.858,218.619L573.868,218.618L573.872,218.618L573.872,218.618L573.888,218.618L573.905,218.617L573.914,218.616L573.919,218.616L573.925,218.615L573.925,218.615L573.922,218.61L573.923,218.61L573.924,218.61L573.932,218.608L573.932,218.608L573.932,218.607L573.966,218.603L573.966,218.631L574.003,218.631L574.016,218.631L574.121,218.632L574.121,218.627L574.121,218.617L574.152,218.617L574.152,218.617L574.159,218.618L574.174,218.618L574.174,218.601L574.174,218.601L574.21,218.601L574.233,218.602L574.234,218.602L574.256,218.602L574.256,218.59L574.256,218.589L574.267,218.589L574.276,218.59L574.277,218.59L574.278,218.59L574.279,218.59L574.283,218.589L574.285,218.588L574.293,218.586L574.303,218.585L574.307,218.583L574.318,218.574L574.328,218.568L574.329,218.569L574.331,218.57L574.335,218.571L574.339,218.571L574.339,218.577L574.35,218.577L574.36,218.577L574.361,218.575L574.361,218.571L574.361,218.571L574.432,218.573L574.444,218.573L574.444,218.561L574.444,218.56L574.444,218.553L574.505,218.555L574.505,218.56L574.505,218.561L574.505,218.57L574.504,218.577L574.504,218.594L574.514,218.594L574.656,218.595L574.657,218.607L574.661,218.614L574.667,218.616L574.672,218.618L574.673,218.694L574.672,218.764L574.672,218.766L574.672,218.793L574.672,218.82L574.685,218.832L574.693,218.835L574.696,218.837L574.701,218.845L574.704,218.846L574.707,218.848L574.71,218.85L574.713,218.85L574.714,218.85L574.718,218.849L574.722,218.841L574.726,218.834L574.732,218.832L574.737,218.832L574.741,218.834L574.743,218.837L574.746,218.842L574.748,218.848L574.746,218.854L574.741,218.86L574.734,218.866L574.731,218.871L574.731,218.879L574.727,218.886L574.713,218.893L574.709,218.894L574.708,218.898L574.712,218.903L574.72,218.906L574.726,218.907L574.73,218.909L574.734,218.91L574.736,218.91L574.738,218.908L574.74,218.906L574.742,218.902L574.742,218.898L574.744,218.896L574.745,218.895L574.749,218.893L574.75,218.891L574.751,218.886L574.753,218.881L574.754,218.878L574.756,218.874L574.759,218.873L574.763,218.873L574.767,218.876L574.769,218.878L574.77,218.88L574.771,218.884L574.77,218.888L574.768,218.891L574.768,218.895L574.769,218.9L574.768,218.903L574.765,218.909L574.762,218.914L574.761,218.917L574.757,218.921L574.754,218.927L574.752,218.933L574.752,218.938L574.755,218.942L574.761,218.944L574.765,218.947L574.771,218.95L574.78,218.952L574.785,218.953L574.79,218.955L574.795,218.959L574.798,218.961L574.8,218.961L574.807,218.961L574.813,218.961L574.815,218.961L574.818,218.961L574.821,218.958L574.828,218.954L574.83,218.949L574.834,218.947L574.837,218.947L574.841,218.945L574.845,218.944L574.848,218.942L574.85,218.938L574.851,218.936L574.851,218.935L574.852,218.932L574.852,218.931L574.853,218.928L574.853,218.927L574.853,218.924L574.853,218.923L574.853,218.922L574.852,218.92L574.852,218.919L574.852,218.917L574.851,218.912L574.852,218.909L574.853,218.908L574.853,218.907L574.854,218.905L574.858,218.905L574.861,218.906L574.864,218.908L574.867,218.91L574.868,218.911L574.871,218.913L574.877,218.919L574.88,218.923L574.884,218.928L574.887,218.93L574.89,218.93L574.893,218.931L574.9,218.932L574.908,218.931L574.924,218.913L574.934,218.902L574.938,218.891L574.938,218.883L574.939,218.876L574.943,218.87L574.958,218.867L574.965,218.863L574.966,218.847L574.969,218.835L574.977,218.826L574.984,218.819L574.993,218.817L575,218.813L575.007,218.809L575.015,218.807L575.016,218.807L575.025,218.802L575.037,218.803L575.042,218.806L575.047,218.821L575.053,218.823L575.059,218.822L575.064,218.817L575.067,218.816L575.071,218.816L575.074,218.817L575.076,218.82L575.075,218.825L575.074,218.83L575.068,218.836L575.067,218.838L575.067,218.84L575.067,218.842L575.068,218.844L575.068,218.846L575.072,218.849L575.077,218.848L575.081,218.844L575.085,218.838L575.092,218.833L575.096,218.828L575.102,218.823L575.106,218.82L575.106,218.82L575.106,218.819L575.106,218.805L575.106,218.791L575.106,218.791L575.106,218.791L575.106,218.788L575.106,218.788L575.106,218.78L575.106,218.76L575.107,218.723L575.107,218.723L575.107,218.723L575.107,218.719L575.107,218.718L575.107,218.718L575.107,218.704L575.107,218.684L575.107,218.668L575.107,218.655L575.107,218.639L575.107,218.629L575.107,218.62L575.107,218.615L575.107,218.615L575.107,218.595L575.108,218.577L575.108,218.56L575.108,218.549L575.108,218.542L575.108,218.523L575.108,218.523L575.108,218.517L575.108,218.48L575.108,218.48L575.108,218.48L575.108,218.472L575.108,218.472L575.108,218.452L575.108,218.438L575.108,218.43L575.107,218.43L575.107,218.43L575.105,218.43L575.105,218.43L575.1,218.43L575.099,218.43L575.098,218.43L575.087,218.43L575.087,218.422L575.087,218.405L575.088,218.396L575.088,218.391L575.088,218.383L575.088,218.383L575.088,218.381L575.088,218.373L575.088,218.365L575.088,218.361L575.088,218.353L575.088,218.34L575.088,218.333L575.088,218.329L575.089,218.322L575.089,218.319L575.089,218.307L575.089,218.298L575.089,218.287L575.089,218.283L575.089,218.28L575.089,218.269L575.097,218.269L575.123,218.269L575.171,218.27L575.207,218.27L575.227,218.271L575.243,218.271L575.277,218.271L575.338,218.27L575.338,218.272L575.337,218.314L575.337,218.333L575.337,218.352L575.337,218.371L575.337,218.403L575.337,218.433L575.336,218.448L575.337,218.457L575.358,218.457L575.363,218.457L575.377,218.457L575.557,218.458L575.626,218.458L575.637,218.458L575.646,218.459L575.711,218.46L575.73,218.46L575.73,218.422L575.731,218.393L575.731,218.392L575.731,218.383L575.732,218.37L575.731,218.349L575.731,218.334L575.731,218.316L575.731,218.307L575.731,218.304L575.731,218.286L575.731,218.286L575.732,218.231L575.732,218.231L575.732,218.198L575.732,218.195L575.733,218.15L575.815,218.149L575.818,217.961L575.817,217.871L575.838,217.871L575.838,217.764L575.815,217.763L575.793,217.765L575.769,217.766L575.658,217.761L575.627,217.755L575.612,217.752L575.518,217.746L575.518,217.753L575.484,217.753L575.485,217.745L575.313,217.732L575.278,217.727L575.246,217.726L575.191,217.725L575.172,217.729L575.198,217.66L575.228,217.583L575.361,217.559L575.363,217.543L575.411,217.533L575.511,217.516L575.514,217.515L575.514,217.517L575.572,217.506L575.619,217.498L575.71,217.256L575.714,217.184L575.709,217.182L575.658,217.163L575.643,217.124L575.626,217.124L575.613,217.12L575.587,217.097L575.498,217.097L575.435,217.093L575.376,217.085L575.379,216.991L575.404,217L575.437,217.003L575.444,216.975L575.427,216.948L575.401,216.894L575.394,216.878L575.406,216.866L575.414,216.849L575.421,216.828L575.435,216.8L575.523,216.793L575.559,216.783L575.571,216.79L575.579,216.769L575.641,216.759L575.687,216.788L575.83,216.628L575.87,216.589L575.932,216.507L576.094,216.311L576.033,216.153L576.022,216.132L576.175,215.888L576.181,215.87L576.193,215.845L576.099,215.719L575.99,215.567L575.977,215.549L575.983,215.538L575.9,215.49L575.773,215.423L575.757,215.414L575.587,215.317L575.545,215.291L575.323,215.164L575.227,215.112L575.094,215.046L574.945,214.977L574.903,214.957L574.891,214.951L574.825,214.919L574.822,214.881L574.81,214.875L574.799,214.878L574.796,214.876L574.794,214.871L574.787,214.866L574.786,214.861L574.779,214.859L574.742,214.831L574.729,214.822L574.721,214.811L574.718,214.8L574.716,214.8L574.708,214.803L574.698,214.808L574.687,214.813L574.676,214.815L574.669,214.819L574.666,214.826L574.662,214.828L574.659,214.825L574.656,214.819L574.647,214.817L574.632,214.817L574.626,214.814L574.622,214.815L574.609,214.816L574.602,214.816L574.594,214.81L574.584,214.81L574.571,214.806L574.565,214.801L574.56,214.797L574.554,214.794L574.551,214.789L574.544,214.787L574.539,214.782L574.534,214.78L574.53,214.777L574.525,214.773L574.519,214.772L574.501,214.772L574.5,214.769L574.487,214.766L574.452,214.759L574.439,214.754L574.43,214.75L574.418,214.746L574.403,214.74L574.388,214.737L574.377,214.73L574.358,214.716L574.353,214.713L574.348,214.711L574.337,214.704L574.331,214.703L574.331,214.703L574.323,214.693L574.317,214.682L574.315,214.671L574.311,214.663L574.304,214.651L574.295,214.639L574.292,214.637L574.286,214.636L574.273,214.644L574.264,214.647L574.26,214.648L574.257,214.653L574.254,214.653L574.251,214.649L574.249,214.645L574.247,214.644L574.246,214.644L574.246,214.649L574.241,214.651L574.236,214.651L574.235,214.651L574.228,214.654L574.228,214.654L574.223,214.654L574.226,214.648L574.227,214.644L574.227,214.644L574.223,214.64L574.215,214.637L574.199,214.632L574.195,214.63L574.191,214.626L574.188,214.627L574.185,214.631L574.163,214.647L574.163,214.647L574.156,214.646L574.156,214.646L574.146,214.646L574.138,214.647L574.126,214.644L574.118,214.643L574.114,214.641L574.104,214.638L574.094,214.635L574.086,214.634L574.076,214.626L574.068,214.622L574.068,214.622L574.064,214.618L574.064,214.618L574.057,214.617L574.05,214.611L574.047,214.612L574.043,214.611L574.035,214.605L574.022,214.597L574.016,214.594L574.016,214.594L573.991,214.575L573.972,214.562L573.97,214.557L573.965,214.557L573.954,214.551L573.948,214.549L573.943,214.545L573.943,214.538L573.943,214.531L573.94,214.528L573.932,214.525L573.927,214.525L573.922,214.525L573.914,214.53L573.907,214.532L573.899,214.531L573.891,214.533L573.879,214.528L573.874,214.526L573.873,214.526L573.869,214.527L573.865,214.529L573.86,214.526L573.858,214.519L573.85,214.511L573.841,214.502L573.835,214.493L573.829,214.486L573.812,214.479L573.803,214.479L573.797,214.473L573.796,214.469L573.796,214.468L573.798,214.462L573.798,214.459L573.783,214.447L573.754,214.437L573.749,214.427L573.724,214.415L573.716,214.405L573.705,214.397L573.699,214.388L573.697,214.385L573.69,214.378L573.684,214.375L573.679,214.375L573.668,214.364L573.668,214.358L573.664,214.355L573.647,214.338L573.643,214.333L573.635,214.329L573.619,214.308L573.62,214.302L573.619,214.299L573.604,214.278L573.594,214.271L573.582,214.262L573.574,214.25L573.565,214.237L573.557,214.223L573.541,214.198L573.538,214.169L573.537,214.164L573.537,214.162L573.537,214.154L573.538,214.131L573.536,214.101L573.534,214.095L573.532,214.092L573.525,214.094L573.514,214.089L573.51,214.084L573.506,214.059L573.502,214.055L573.497,214.05L573.498,214.046L573.493,214.032L573.491,214.022L573.489,214.014L573.489,213.995L573.487,213.987L573.485,213.977L573.481,213.969L573.481,213.966L573.482,213.961L573.484,213.958L573.486,213.952L573.485,213.945L573.482,213.941L573.469,213.936L573.453,213.934L573.448,213.93L573.445,213.92L573.444,213.914L573.44,213.911L573.435,213.912L573.434,213.917L573.434,213.923L573.432,213.925L573.429,213.922L573.421,213.912L573.416,213.905L573.412,213.897L573.404,213.889L573.4,213.879L573.395,213.868L573.391,213.851L573.388,213.839L573.389,213.831L573.393,213.818L573.387,213.812L573.382,213.805L573.38,213.795L573.377,213.788L573.361,213.767L573.336,213.743L573.322,213.733L573.313,213.729L573.305,213.72L573.301,213.72L573.289,213.723L573.283,213.72L573.274,213.717L573.263,213.714L573.251,213.712L573.242,213.709L573.23,213.705L573.224,213.703L573.215,213.695L573.205,213.69L573.212,213.683L573.219,213.677L573.219,213.671L573.215,213.657L573.212,213.636L573.208,213.629L573.201,213.622L573.2,213.612L573.197,213.606L573.197,213.598L573.198,213.595L573.199,213.591L573.197,213.589L573.192,213.585L573.181,213.585L573.178,213.584L573.172,213.581L573.168,213.583L573.165,213.585L573.161,213.586L573.158,213.588L573.155,213.591L573.15,213.587L573.144,213.586L573.141,213.581L573.137,213.579L573.13,213.579L573.124,213.58L573.122,213.579L573.117,213.574L573.106,213.568L573.09,213.563L573.078,213.559L573.077,213.561L573.067,213.558L573.066,213.558L573.065,213.559L573.063,213.56L573.06,213.56L573.058,213.56L573.055,213.559L573.048,213.559L573.044,213.559L573.043,213.557L573.041,213.555L573.038,213.557L573.037,213.561L573.03,213.561L573.024,213.555L573.019,213.559L573.017,213.562L573.014,213.557L573.005,213.557L572.998,213.552L572.989,213.55L572.987,213.549L572.987,213.548L572.986,213.545L572.986,213.545L572.985,213.544L572.984,213.544L572.982,213.544L572.98,213.546L572.979,213.546L572.979,213.546L572.978,213.545L572.976,213.542L572.975,213.54L572.974,213.538L572.973,213.538L572.973,213.537L572.974,213.537L572.976,213.537L572.976,213.536L572.976,213.535L572.976,213.534L572.975,213.534L572.974,213.534L572.973,213.534L572.972,213.534L572.97,213.533L572.968,213.532L572.966,213.533L572.965,213.532L572.965,213.531L572.965,213.53L572.966,213.53L572.967,213.529L572.966,213.527L572.966,213.526L572.965,213.525L572.963,213.525L572.961,213.522L572.96,213.522L572.956,213.521L572.955,213.521L572.954,213.52L572.953,213.52L572.952,213.52L572.95,213.523L572.944,213.526L572.936,213.522L572.926,213.514L572.914,213.508L572.91,213.508L572.904,213.508L572.897,213.506L572.888,213.509L572.881,213.506L572.872,213.499L572.863,213.499L572.853,213.499L572.842,213.5L572.832,213.503L572.825,213.503L572.82,213.507L572.814,213.504L572.809,213.502L572.801,213.502L572.795,213.497L572.792,213.498L572.788,213.501L572.784,213.501L572.78,213.498L572.776,213.498L572.77,213.499L572.763,213.502L572.758,213.504L572.748,213.504L572.745,213.503L572.742,213.503L572.742,213.505L572.742,213.506L572.736,213.503L572.731,213.503L572.732,213.496L572.728,213.499L572.725,213.5L572.726,213.493L572.727,213.486L572.721,213.489L572.717,213.49L572.715,213.495L572.711,213.495L572.705,213.491L572.703,213.488L572.706,213.483L572.708,213.481L572.704,213.478L572.699,213.48L572.696,213.486L572.695,213.491L572.692,213.492L572.691,213.499L572.678,213.501L572.678,213.503L572.678,213.508L572.673,213.508L572.666,213.496L572.664,213.489L572.657,213.484L572.652,213.484L572.649,213.489L572.65,213.496L572.648,213.499L572.641,213.5L572.631,213.498L572.619,213.497L572.607,213.495L572.58,213.489L572.568,213.49L572.561,213.482L572.522,213.469L572.52,213.47L572.509,213.472L572.507,213.472L572.498,213.468L572.488,213.465L572.477,213.468L572.469,213.472L572.456,213.474L572.437,213.475L572.425,213.474L572.422,213.472L572.42,213.464L572.417,213.46L572.408,213.454L572.403,213.453L572.4,213.454L572.398,213.456L572.394,213.456L572.392,213.456L572.389,213.457L572.389,213.454L572.387,213.452L572.383,213.451L572.381,213.449L572.378,213.447L572.37,213.448L572.364,213.445L572.356,213.442L572.348,213.439L572.342,213.436L572.336,213.43L572.328,213.417L572.319,213.408L572.306,213.391L572.249,213.337L572.216,213.285L572.184,213.241L572.165,213.224L572.136,213.207L572.105,213.194L572.096,213.192L572.031,213.188L572.019,213.184L572.008,213.177L571.988,213.175L571.963,213.158L571.958,213.156L571.941,213.148L571.915,213.14L571.859,213.121L571.783,213.093L571.722,213.064L571.684,213.051L571.67,213.05L571.631,213.018L571.613,212.996L571.603,212.985L571.579,212.94L571.571,212.924L571.553,212.889L571.553,212.889L571.545,212.888L571.523,212.889L571.469,212.956L571.466,212.954L571.463,212.953L571.46,212.954L571.459,212.955L571.458,212.956L571.459,212.959L571.461,212.962L571.461,212.963L571.46,212.964L571.459,212.965L571.459,212.965L571.458,212.964L571.456,212.96L571.456,212.96L571.455,212.958L571.454,212.957L571.453,212.957L571.451,212.957L571.449,212.958L571.448,212.96L571.448,212.963L571.448,212.965L571.448,212.966L571.448,212.966L571.447,212.967L571.446,212.967L571.446,212.966L571.446,212.964L571.446,212.964L571.446,212.963L571.445,212.964L571.444,212.964L571.444,212.964L571.44,212.967L571.437,212.97L571.436,212.972L571.435,212.972L571.434,212.973L571.432,212.972L571.431,212.973L571.43,212.973L571.429,212.975L571.429,212.976L571.429,212.977L571.428,212.978L571.428,212.978L571.427,212.978L571.425,212.975L571.424,212.974L571.422,212.974L571.422,212.974L571.422,212.973L571.421,212.972L571.42,212.971L571.419,212.971L571.418,212.971L571.416,212.972L571.415,212.974L571.414,212.975L571.415,212.977L571.415,212.977L571.416,212.978L571.414,212.979L571.412,212.981L571.411,212.982L571.411,212.982L571.411,212.983L571.412,212.985L571.413,212.985L571.412,212.985L571.412,212.986L571.411,212.986L571.409,212.986L571.409,212.986L571.408,212.988L571.408,212.989L571.409,212.99L571.41,212.992L571.41,212.993L571.409,212.994L571.408,212.995L571.407,212.997L571.405,212.997L571.404,212.996L571.401,212.997L571.401,212.997L571.4,212.997L571.399,212.998L571.399,212.999L571.4,212.999L571.401,212.999L571.402,212.999L571.403,213L571.405,213.001L571.412,213.004L571.414,213.003L571.414,213.004L571.415,213.006L571.417,213.006L571.42,213.006L571.422,213.009L571.425,213.012L571.426,213.014L571.426,213.014L571.428,213.014L571.428,213.014L571.429,213.015L571.428,213.018L571.43,213.02L571.43,213.021L571.429,213.021L571.427,213.021L571.427,213.022L571.425,213.023L571.425,213.024L571.425,213.024L571.424,213.023L571.424,213.023L571.423,213.024L571.423,213.025L571.423,213.025L571.424,213.026L571.425,213.028L571.425,213.029L571.426,213.029L571.427,213.029L571.428,213.028L571.429,213.028L571.429,213.028L571.429,213.029L571.429,213.03L571.43,213.031L571.43,213.031L571.431,213.03L571.434,213.029L571.438,213.03L571.438,213.03L571.422,213.045L571.37,213.093L571.348,213.115L571.342,213.122L571.334,213.13L571.308,213.156L571.286,213.18L571.252,213.216L571.246,213.221L571.231,213.237L571.23,213.238L571.228,213.239L571.228,213.239L571.213,213.24L571.182,213.24L571.12,213.241L571.112,213.249L571.071,213.291L571.01,213.355L571.001,213.364L570.995,213.37L570.992,213.373L570.97,213.396L570.969,213.396L570.953,213.413L570.929,213.437L570.928,213.438L570.924,213.439L570.922,213.439L570.92,213.439L570.915,213.441L570.886,213.448L570.884,213.448L570.882,213.448L570.874,213.45L570.837,213.459L570.821,213.462L570.811,213.465L570.747,213.481L570.693,213.492L570.662,213.499L570.645,213.503L570.635,213.505L570.583,213.517L570.53,213.53L570.533,213.458L570.533,213.441L570.533,213.439L570.532,213.4L570.532,213.379L570.533,213.357L570.534,213.344L570.542,213.253L570.543,213.244L570.553,213.132L570.535,213.13L570.526,213.132L570.458,213.148L570.42,213.157L570.377,213.167L570.367,213.169L570.347,213.173L570.337,213.175L570.323,213.179L570.284,213.189L570.279,213.289L570.287,213.29L570.3,213.286L570.295,213.345L570.294,213.36L570.273,213.364L570.272,213.372L570.272,213.373L570.264,213.47L570.261,213.503L570.254,213.575L570.253,213.594L570.172,213.613L570.139,213.62L570.133,213.616L570.137,213.562L570.137,213.555L570.138,213.538L570.122,213.537L570.076,213.533L570.07,213.533L570.003,213.527L569.934,213.523L569.902,213.519L569.879,213.518L569.875,213.519L569.866,213.522L569.841,213.534L569.838,213.534L569.826,213.529L569.825,213.529L569.823,213.529L569.808,213.528L569.803,213.528L569.793,213.526L569.777,213.525L569.761,213.522L569.756,213.524L569.75,213.523L569.736,213.519L569.724,213.518L569.712,213.516L569.699,213.516L569.699,213.514L569.699,213.513L569.697,213.512L569.692,213.513L569.689,213.513L569.687,213.511L569.686,213.51L569.685,213.509L569.684,213.508L569.683,213.508L569.679,213.509L569.678,213.509L569.677,213.507L569.676,213.507L569.672,213.509L569.665,213.51L569.663,213.51L569.661,213.512L569.659,213.512L569.659,213.512L569.658,213.513L569.654,213.512L569.65,213.511L569.648,213.511L569.646,213.511L569.642,213.51L569.64,213.509L569.635,213.508L569.629,213.507L569.624,213.507L569.617,213.509L569.612,213.508L569.608,213.507L569.591,213.503L569.584,213.501L569.579,213.502L569.573,213.502L569.568,213.501L569.566,213.502L569.565,213.503L569.564,213.504L569.563,213.503L569.562,213.502L569.561,213.501L569.56,213.501L569.559,213.501L569.555,213.503L569.555,213.503L569.55,213.501L569.547,213.5L569.543,213.499L569.54,213.5L569.536,213.5L569.53,213.499L569.527,213.498L569.524,213.499L569.521,213.5L569.516,213.503L569.51,213.505L569.503,213.506L569.499,213.503L569.496,213.5L569.489,213.498L569.484,213.499L569.481,213.504L569.477,213.506L569.471,213.505L569.467,213.505L569.464,213.507L569.46,213.511L569.453,213.516L569.449,213.517L569.445,213.517L569.44,213.516L569.437,213.514L569.436,213.513L569.432,213.509L569.431,213.508L569.429,213.508L569.427,213.508L569.425,213.508L569.423,213.507L569.422,213.507L569.42,213.508L569.418,213.508L569.416,213.509L569.414,213.509L569.412,213.509L569.41,213.508L569.407,213.507L569.406,213.506L569.404,213.506L569.402,213.507L569.399,213.507L569.394,213.506L569.39,213.506L569.387,213.508L569.385,213.509L569.382,213.511L569.38,213.512L569.377,213.513L569.373,213.513L569.371,213.512L569.368,213.509L569.366,213.508L569.364,213.507L569.361,213.507L569.36,213.508L569.359,213.507L569.356,213.506L569.354,213.507L569.352,213.507L569.35,213.505L569.347,213.504L569.342,213.504L569.34,213.505L569.338,213.504L569.336,213.504L569.333,213.503L569.33,213.501L569.327,213.501L569.325,213.501L569.322,213.502L569.319,213.501L569.312,213.499L569.304,213.497L569.301,213.497L569.298,213.498L569.291,213.497L569.284,213.495L569.279,213.495L569.275,213.495L569.27,213.497L569.267,213.497L569.264,213.496L569.264,213.496L569.259,213.494L569.251,213.492L569.244,213.492L569.235,213.491L569.234,213.49L569.232,213.489L569.231,213.488L569.23,213.488L569.229,213.487L569.222,213.483L569.216,213.481L569.212,213.48L569.21,213.478L569.208,213.477L569.206,213.477L569.203,213.478L569.199,213.479L569.196,213.48L569.195,213.482L569.194,213.482L569.194,213.482L569.193,213.482L569.192,213.481L569.191,213.481L569.189,213.481L569.188,213.48L569.187,213.48L569.185,213.48L569.184,213.479L569.183,213.479L569.181,213.478L569.18,213.479L569.178,213.479L569.177,213.478L569.174,213.477L569.171,213.476L569.166,213.473L569.158,213.469L569.16,213.464L569.16,213.463L569.16,213.461L569.16,213.442L569.119,213.443L569.119,213.462L569.116,213.461L569.114,213.461L569.111,213.46L569.108,213.46L569.104,213.46L569.097,213.461L569.092,213.463L569.088,213.463L569.084,213.463L569.081,213.463L569.074,213.462L569.069,213.463L569.067,213.463L569.065,213.463L569.06,213.461L569.056,213.46L569.051,213.46L569.047,213.46L569.043,213.459L569.038,213.459L569.034,213.46L569.033,213.461L569.03,213.462L569.027,213.463L569.022,213.463L569.016,213.461L569.012,213.46L569.007,213.46L569.003,213.46L569,213.462L568.996,213.463L568.991,213.462L568.99,213.462L568.99,213.463L568.989,213.463L568.988,213.463L568.988,213.463L568.988,213.464L568.988,213.465L568.988,213.467L568.988,213.473L568.988,213.473L568.988,213.571L568.841,213.572L568.828,213.573L568.804,213.572L568.762,213.572L568.665,213.572L568.601,213.573L568.602,213.615L568.602,213.63L568.602,213.719L568.602,213.745L568.748,213.745L568.748,213.78L568.75,213.78L568.751,213.778L568.751,213.775L568.75,213.772L568.751,213.77L568.754,213.769L568.757,213.769L568.759,213.771L568.76,213.773L568.76,213.775L568.758,213.78L568.759,213.782L568.763,213.783L568.765,213.785L568.766,213.79L568.767,213.793L568.77,213.795L568.771,213.799L568.768,213.803L568.757,213.81L568.751,213.818L568.749,213.819L568.745,213.82L568.741,213.821L568.735,213.822L568.732,213.823L568.731,213.825L568.732,213.827L568.734,213.83L568.738,213.833L568.739,213.836L568.738,213.838L568.737,213.84L568.733,213.842L568.732,213.844L568.732,213.846L568.734,213.849L568.734,213.852L568.732,213.853L568.725,213.856L568.723,213.858L568.722,213.861L568.725,213.869L568.73,213.875L568.732,213.882L568.734,213.883L568.738,213.881L568.745,213.883L568.756,213.889L568.762,213.893L568.763,213.895L568.761,213.899L568.761,213.901L568.765,213.908L568.766,213.913L568.766,213.917L568.765,213.92L568.763,213.922L568.763,213.925L568.767,213.926L568.767,213.948L568.788,213.948L568.787,214.034L568.764,214.034L568.746,214.034L568.737,214.034L568.616,214.032L568.612,214.236L568.55,214.235L568.538,214.235L568.439,214.234L568.422,214.235L568.422,214.191L568.385,214.191L568.382,214.191L568.384,214.188L568.388,214.184L568.389,214.181L568.388,214.179L568.382,214.173L568.376,214.172L568.372,214.17L568.369,214.168L568.368,214.167L568.365,214.162L568.362,214.16L568.358,214.158L568.35,214.157L568.349,214.154L568.349,214.149L568.349,214.146L568.346,214.144L568.342,214.143L568.339,214.145L568.337,214.15L568.334,214.151L568.332,214.151L568.324,214.147L568.32,214.144L568.317,214.144L568.313,214.147L568.311,214.146L568.306,214.143L568.302,214.143L568.302,214.143L568.298,214.142L568.292,214.146L568.291,214.15L568.289,214.152L568.284,214.153L568.279,214.157L568.274,214.158L568.272,214.161L568.272,214.19L568.23,214.19L568.186,214.189L568.08,214.189L568.078,214.483L568.077,214.524L568.077,214.611L568.079,214.611L568.084,214.611L568.091,214.611L568.096,214.61L568.101,214.611L568.106,214.61L568.119,214.612L568.125,214.612L568.137,214.616L568.152,214.614L568.164,214.613L568.173,214.611L568.179,214.612L568.185,214.611L568.205,214.611L568.205,214.674L568.205,214.683L568.205,214.725L568.204,214.777L568.21,214.777L568.213,214.777L568.215,214.778L568.219,214.779L568.219,214.783L568.221,214.785L568.224,214.787L568.224,214.789L568.226,214.79L568.227,214.793L568.233,214.797L568.234,214.804L568.24,214.804L568.246,214.805L568.25,214.806L568.252,214.809L568.252,214.812L568.257,214.812L568.262,214.815L568.264,214.816L568.269,214.822L568.279,214.822L568.286,214.824L568.288,214.826L568.288,214.828L568.294,214.828L568.297,214.831L568.301,214.836L568.301,214.84L568.299,214.847L568.298,214.852L568.299,214.856L568.297,214.859L568.295,214.86L568.292,214.861L568.291,214.854L568.289,214.855L568.289,214.862L568.299,214.872L568.303,214.884L568.293,214.885L568.296,214.895L568.29,214.907L568.299,214.911L568.308,214.901L568.316,214.899L568.324,214.904L568.326,214.905L568.324,214.914L568.324,214.929L568.319,214.937L568.318,214.943L568.326,214.943L568.341,214.937L568.345,214.941L568.345,214.952L568.333,214.947L568.336,214.956L568.335,214.965L568.331,214.967L568.32,214.967L568.316,214.975L568.321,214.979L568.33,214.976L568.334,214.992L568.342,215.001L568.345,215.009L568.335,215.016L568.337,215.023L568.333,215.027L568.324,215.03L568.324,215.034L568.331,215.041L568.339,215.047L568.338,215.056L568.329,215.062L568.322,215.072L568.324,215.074L568.327,215.076L568.333,215.073L568.341,215.068L568.344,215.07L568.344,215.075L568.338,215.08L568.338,215.085L568.344,215.084L568.35,215.08L568.358,215.083L568.36,215.087L568.358,215.096L568.358,215.099L568.358,215.1L568.36,215.104L568.37,215.108L568.374,215.112L568.371,215.117L568.366,215.122L568.368,215.128L568.369,215.132L568.367,215.137L568.366,215.138L568.366,215.141L568.367,215.144L568.367,215.146L568.37,215.145L568.373,215.147L568.372,215.153L568.376,215.148L568.379,215.149L568.379,215.151L568.378,215.156L568.384,215.167L568.386,215.169L568.387,215.172L568.385,215.172L568.382,215.17L568.379,215.171L568.377,215.172L568.373,215.173L568.367,215.169L568.369,215.172L568.372,215.174L568.377,215.174L568.379,215.176L568.382,215.175L568.386,215.174L568.388,215.173L568.391,215.176L568.392,215.178L568.389,215.181L568.383,215.184L568.378,215.187L568.37,215.186L568.359,215.18L568.358,215.179L568.357,215.18L568.352,215.182L568.352,215.184L568.356,215.183L568.356,215.187L568.355,215.189L568.355,215.192L568.359,215.194L568.362,215.193L568.363,215.191L568.366,215.19L568.37,215.194L568.372,215.194L568.373,215.192L568.38,215.194L568.379,215.199L568.379,215.205L568.375,215.211L568.373,215.211L568.37,215.209L568.368,215.209L568.364,215.212L568.361,215.213L568.363,215.214L568.362,215.219L568.362,215.223L568.364,215.225L568.367,215.226L568.37,215.23L568.375,215.226L568.379,215.226L568.383,215.223L568.386,215.223L568.388,215.224L568.392,215.225L568.398,215.231L568.397,215.231L568.396,215.234L568.395,215.239L568.392,215.243L568.392,215.248L568.387,215.253L568.383,215.259L568.38,215.264L568.379,215.27L568.385,215.28L568.395,215.293L568.396,215.296L568.395,215.297L568.392,215.302L568.394,215.303L568.434,215.303L568.562,215.305L568.721,215.306L568.721,215.285L568.764,215.285L568.764,215.243L568.775,215.243L568.775,215.226L568.798,215.212L568.799,215.216L568.8,215.218L568.801,215.221L568.803,215.223L568.805,215.225L568.805,215.227L568.806,215.227L568.806,215.227L568.806,215.229L568.807,215.232L568.81,215.237L568.81,215.237L568.81,215.238L568.813,215.242L568.814,215.246L568.815,215.25L568.814,215.255L568.814,215.257L568.817,215.261L568.817,215.263L568.817,215.264L568.816,215.267L568.816,215.269L568.817,215.272L568.817,215.272L568.818,215.273L568.818,215.276L568.818,215.277L568.818,215.278L568.818,215.279L568.82,215.282L568.822,215.284L568.824,215.285L568.824,215.286L568.823,215.288L568.822,215.289L568.822,215.289L568.822,215.292L568.822,215.294L568.822,215.294L568.822,215.295L568.825,215.302L568.829,215.307L568.907,215.308L568.922,215.308L568.922,215.329L568.922,215.394L568.943,215.394L568.943,215.415L568.922,215.415L568.921,215.455L568.921,215.479L568.919,215.619L568.919,215.62L568.92,215.62L568.92,215.62L568.92,215.621L568.92,215.622L568.92,215.622L568.92,215.623L568.922,215.622L568.923,215.621L568.923,215.622L568.923,215.622L568.924,215.622L568.923,215.623L568.922,215.625L568.922,215.625L568.922,215.626L568.923,215.626L568.924,215.624L568.924,215.624L568.925,215.624L568.925,215.625L568.925,215.626L568.926,215.626L568.927,215.626L568.928,215.626L568.929,215.628L568.929,215.629L568.929,215.629L568.93,215.629L568.93,215.628L568.931,215.627L568.932,215.627L568.933,215.626L568.935,215.626L568.934,215.629L568.935,215.628L568.937,215.629L568.939,215.63L568.94,215.631L568.943,215.629L568.944,215.629L568.945,215.63L568.945,215.631L568.946,215.631L568.946,215.631L568.947,215.632L568.948,215.632L568.951,215.634L568.951,215.634L568.952,215.635L568.954,215.635L568.954,215.637L568.955,215.638L568.956,215.638L568.956,215.638L568.956,215.639L568.956,215.639L568.956,215.639L568.957,215.64L568.957,215.639L568.958,215.639L568.959,215.639L568.96,215.64L568.96,215.641L568.961,215.642L568.962,215.642L568.962,215.643L568.963,215.643L568.965,215.643L568.966,215.643L568.966,215.643L568.967,215.645L568.967,215.646L568.968,215.647L568.969,215.647L568.97,215.647L568.971,215.647L568.971,215.647L568.972,215.648L568.972,215.649L568.973,215.65L568.974,215.651L568.977,215.65L568.978,215.65L568.98,215.65L568.98,215.652L568.981,215.653L568.982,215.653L568.983,215.653L568.983,215.653L568.985,215.656L568.987,215.658L568.989,215.66L568.99,215.663L568.99,215.663L568.99,215.663L568.992,215.664L568.992,215.664L568.992,215.664L568.992,215.665L568.992,215.666L568.992,215.667L568.992,215.667L568.994,215.668L568.995,215.668L568.995,215.67L568.994,215.671L568.994,215.672L568.995,215.672L568.997,215.671L568.997,215.672L568.998,215.672L568.998,215.674L568.998,215.675L568.999,215.675L568.999,215.675L569,215.675L569,215.675L569,215.676L569.001,215.676L569.001,215.676L569.002,215.677L569.004,215.678L569.005,215.681L569.006,215.682L569.007,215.682L569.009,215.683L569.011,215.684L569.013,215.687L569.012,215.687L569.014,215.692L569.014,215.696L569.015,215.697L569.016,215.698L569.017,215.696L569.018,215.696L569.02,215.698L569.02,215.7L569.018,215.701L569.017,215.702L569.016,215.704L569.017,215.705L569.017,215.706L569.017,215.708L569.015,215.709L569.015,215.71L569.017,215.71L569.017,215.712L569.017,215.713L569.019,215.713L569.019,215.714L569.018,215.715L569.018,215.716L569.02,215.717L569.021,215.722L569.022,215.722L569.023,215.723L569.025,215.724L569.025,215.726L569.024,215.727L569.024,215.727L569.025,215.728L569.028,215.729L569.028,215.73L569.027,215.732L569.028,215.733L569.027,215.734L569.027,215.736L569.027,215.737L569.028,215.738L569.029,215.738L569.028,215.739L569.028,215.741L569.029,215.742L569.028,215.745L569.029,215.748L569.029,215.748L569.03,215.751L569.031,215.754L569.033,215.757L569.034,215.758L569.034,215.76L569.037,215.763L569.035,215.764L569.036,215.766L569.037,215.769L569.038,215.772L569.038,215.773L569.04,215.773L569.041,215.774L569.041,215.775L569.041,215.776L569.042,215.778L569.045,215.778L569.046,215.782L569.047,215.783L569.046,215.785L569.048,215.788L569.049,215.789L569.052,215.793L569.055,215.794L569.056,215.797L569.058,215.798L569.06,215.799L569.061,215.801L569.063,215.802L569.063,215.803L569.065,215.806L569.065,215.81L569.065,215.812L569.065,215.814L569.067,215.815L569.068,215.816L569.067,215.817L569.069,215.818L569.069,215.82L569.07,215.823L569.071,215.823L569.072,215.825L569.072,215.828L569.074,215.83L569.074,215.833L569.074,215.835L569.075,215.838L569.075,215.841L569.076,215.843L569.077,215.846L569.079,215.847L569.082,215.849L569.084,215.852L569.086,215.852L569.088,215.853L569.089,215.855L569.089,215.857L569.09,215.858L569.093,215.86L569.094,215.863L569.214,215.864L569.239,215.865L569.294,215.865L569.423,215.867L569.42,216.058L569.399,216.058L569.398,216.128L569.398,216.155L569.394,216.156L569.387,216.179L569.384,216.187L569.383,216.186L569.381,216.186L569.379,216.185L569.378,216.184L569.376,216.184L569.375,216.185L569.375,216.187L569.374,216.189L569.374,216.191L569.373,216.193L569.371,216.194L569.362,216.191L569.36,216.195L569.36,216.197L569.356,216.211L569.357,216.215L569.358,216.225L569.357,216.225L569.356,216.224L569.355,216.223L569.353,216.224L569.352,216.222L569.352,216.222L569.349,216.224L569.353,216.241L569.353,216.242L569.343,216.245L569.348,216.262L569.359,216.306L569.307,216.319L569.32,216.368L569.324,216.38L569.322,216.379L569.322,216.377L569.319,216.375L569.317,216.375L569.317,216.374L569.314,216.372L569.313,216.371L569.311,216.37L569.31,216.371L569.307,216.382L569.307,216.382L569.299,216.405L569.298,216.405L569.298,216.406L569.273,216.396L569.278,216.414L569.259,216.42L569.266,216.45L569.225,216.462L569.208,216.466L569.199,216.468L569.195,216.469L569.201,216.478L569.066,216.515L569.045,216.52L569.074,216.627L569.081,216.638L569.08,216.641L569.093,216.649L569.095,216.656L569.098,216.656L569.101,216.655L569.103,216.655L569.106,216.657L569.108,216.657L569.111,216.656L569.112,216.656L569.121,216.661L569.124,216.661L569.127,216.663L569.127,216.668L569.132,216.684L569.143,216.725L569.147,216.742L569.155,216.77L569.158,216.785L569.219,216.769L569.212,216.742L569.253,216.732L569.275,216.813L569.3,216.91L569.308,216.94L569.316,216.971L569.397,216.95L569.419,217.031L569.49,217.012L569.5,217.009L569.506,217.033L569.515,217.035L569.524,217.037L569.528,217.038L569.538,217.042L569.543,217.043L569.549,217.046L569.549,217.046L569.561,217.047L569.56,217.07L569.571,217.074L569.575,217.074L569.588,217.076L569.6,217.075L569.606,217.073L569.609,217.073L569.613,217.073L569.615,217.076L569.623,217.073L569.647,217.073L569.654,217.076L569.653,217.071L569.657,217.064L569.662,217.06L569.666,217.06L569.67,217.058L569.674,217.052L569.673,217.049L569.673,217.046L569.727,217.042L569.771,217.039L569.774,217.038L569.776,217.014L569.828,217.016L569.83,217.016L569.874,217.018L569.88,217.022L569.88,217.025L569.878,217.028L569.876,217.032L569.872,217.034L569.869,217.039L569.873,217.052L569.874,217.061L569.877,217.065L569.882,217.07L569.882,217.071L569.879,217.076L569.875,217.083L569.874,217.09L569.871,217.093L569.872,217.097L569.874,217.099L569.875,217.101L569.875,217.105L569.873,217.113L569.87,217.119L569.871,217.121L569.873,217.124L569.874,217.126L569.873,217.129L569.872,217.13L569.87,217.132L569.871,217.136L569.874,217.14L569.875,217.143L569.877,217.152L569.878,217.16L569.877,217.167L569.875,217.173L569.873,217.179L569.874,217.185L569.873,217.194L569.868,217.206L569.868,217.207L569.867,217.212L569.868,217.216L569.871,217.221L569.874,217.225L569.877,217.228L569.879,217.231L569.882,217.234L569.888,217.238L569.89,217.239L569.891,217.241L569.893,217.242L569.894,217.242L569.899,217.242L569.904,217.244L569.909,217.246L569.911,217.246L569.915,217.249L569.915,217.25L569.917,217.251L569.918,217.253L569.92,217.254L569.922,217.255L569.927,217.257L569.932,217.259L569.935,217.262L569.938,217.263L569.944,217.262L569.949,217.262L569.96,217.267L569.964,217.269L569.966,217.271L569.969,217.274L569.971,217.275L569.972,217.275L569.972,217.276L569.975,217.279L569.977,217.28L569.98,217.283L569.982,217.288L569.987,217.289L569.99,217.29L569.994,217.291L569.997,217.291L570.004,217.297L570.007,217.3L570.009,217.304L570.014,217.306L570.02,217.306L570.025,217.306L570.029,217.312L570.034,217.317L570.036,217.32L570.035,217.324L570.035,217.325L570.034,217.328L570.035,217.334L570.036,217.339L570.039,217.345L570.045,217.346L570.046,217.348L570.05,217.352L570.079,217.351L570.106,217.351L570.136,217.351L570.158,217.351L570.195,217.352L570.204,217.352L570.203,217.361L570.226,217.36L570.245,217.362L570.268,217.362L570.338,217.363L570.367,217.362L570.371,217.367L570.381,217.374L570.39,217.38L570.398,217.386L570.399,217.388L570.402,217.387L570.404,217.388L570.408,217.391L570.414,217.393L570.417,217.393L570.424,217.395L570.429,217.397L570.437,217.4L570.442,217.403L570.451,217.405L570.464,217.408L570.478,217.411L570.481,217.411L570.483,217.409L570.49,217.408L570.496,217.407L570.502,217.408L570.504,217.411L570.508,217.414L570.518,217.418L570.537,217.43L570.547,217.435L570.557,217.438L570.566,217.442L570.568,217.444L570.569,217.448L570.569,217.45L570.57,217.45L570.573,217.447L570.574,217.448L570.575,217.45L570.579,217.45L570.588,217.451L570.641,217.453L570.646,217.454L570.649,217.452L570.652,217.451L570.681,217.456L570.68,217.447L570.68,217.416L570.726,217.417L570.798,217.417L570.804,217.414L570.805,217.41L570.805,217.406L570.805,217.404L570.806,217.404L570.806,217.403L570.806,217.402L570.806,217.401L570.809,217.4L570.809,217.399L570.808,217.397L570.808,217.394L570.81,217.386L570.814,217.379L570.82,217.373L570.822,217.372L570.822,217.37L570.821,217.368L570.822,217.366L570.825,217.365L570.825,217.364L570.826,217.358L570.825,217.352L570.825,217.348L570.824,217.346L570.823,217.343L570.822,217.339L570.823,217.335L570.824,217.332L570.824,217.327L570.824,217.325L570.828,217.323L570.831,217.323L570.833,217.32L570.835,217.319L570.842,217.318L570.845,217.317L570.85,217.316L570.922,217.316L570.923,217.354L570.933,217.356L570.949,217.361L570.957,217.366L570.963,217.371L570.968,217.373L570.97,217.374L570.969,217.377L570.968,217.385L570.967,217.393L570.967,217.424L570.968,217.429L571.014,217.447L571.016,217.498L571.016,217.507L571.017,217.546L570.922,217.547L570.921,217.6L570.92,217.652L570.884,217.652L570.88,217.651L570.848,217.651L570.839,217.651L570.839,217.673L570.832,217.673L570.814,217.672L570.81,217.672L570.805,217.671L570.802,217.671L570.8,217.671L570.796,217.673L570.794,217.675L570.793,217.678L570.791,217.684L570.788,217.689L570.787,217.691L570.781,217.694L570.78,217.695L570.779,217.698L570.779,217.7L570.779,217.702L570.78,217.705L570.78,217.707L570.78,217.711L570.781,217.712L570.782,217.714L570.783,217.715L570.783,217.716L570.783,217.718L570.783,217.72L570.786,217.723L570.776,217.719L570.76,217.715L570.748,217.714L570.742,217.707L570.735,217.703L570.735,217.74L570.735,217.777L570.657,217.778L570.633,217.782L570.631,217.785L570.63,217.793L570.631,217.819L570.602,217.835L570.597,217.836L570.558,217.861L570.587,217.907L570.581,217.912L570.565,217.924L570.562,217.929L570.558,217.934L570.553,217.938L570.552,217.938L570.548,217.943L570.546,217.943L570.547,217.944L570.548,217.945L570.548,217.946L570.546,217.946L570.544,217.947L570.543,217.948L570.54,217.949L570.539,217.95L570.539,217.952L570.539,217.954L570.541,217.959L570.54,217.964L570.538,217.97L570.537,217.981L570.537,217.986L570.538,217.993L570.54,217.999L570.539,218.004L570.534,218.021L570.531,218.024L570.526,218.028L570.511,218.036L570.502,218.043L570.499,218.045L570.498,218.047L570.498,218.049L570.498,218.051L570.498,218.054L570.497,218.057L570.492,218.061L570.489,218.076L570.488,218.079L570.489,218.081L570.494,218.09L570.5,218.099L570.504,218.103L570.504,218.104L570.506,218.104L570.509,218.104L570.518,218.102L570.526,218.1L570.528,218.101L570.531,218.103L570.533,218.108L570.535,218.11L570.537,218.111L570.542,218.112L570.547,218.11L570.55,218.109L570.55,218.109L570.558,218.114L570.564,218.117L570.572,218.116L570.576,218.113L570.581,218.106L570.584,218.1L570.585,218.094L570.584,218.089L570.584,218.086L570.59,218.084L570.597,218.084L570.607,218.12L570.617,218.162L570.617,218.164L570.616,218.165L570.614,218.168L570.613,218.169L570.613,218.171L570.614,218.173L570.618,218.174L570.622,218.175L570.626,218.176L570.63,218.176L570.633,218.177L570.635,218.178L570.636,218.179L570.636,218.181L570.634,218.182L570.631,218.183L570.631,218.183L570.631,218.186L570.63,218.188L570.629,218.189L570.625,218.192L570.622,218.193L570.617,218.195L570.616,218.196L570.616,218.197L570.616,218.198L570.617,218.199L570.618,218.201L570.618,218.202L570.618,218.203L570.617,218.204L570.614,218.206L570.613,218.208L570.613,218.209L570.613,218.21L570.614,218.211L570.616,218.211L570.617,218.213L570.618,218.215L570.618,218.218L570.617,218.222L570.617,218.223L570.618,218.227L570.621,218.23L570.623,218.233L570.627,218.236L570.629,218.236L570.63,218.236L570.634,218.236L570.639,218.236L570.646,218.235L570.648,218.235L570.651,218.235L570.655,218.235L570.661,218.235L570.663,218.234L570.667,218.231L570.668,218.23L570.67,218.227L570.672,218.225L570.674,218.223L570.678,218.222L570.68,218.221L570.685,218.221L570.687,218.221L570.688,218.221L570.689,218.223L570.69,218.224L570.692,218.224L570.695,218.224L570.696,218.224L570.697,218.224L570.699,218.227L570.7,218.23L570.701,218.23L570.701,218.23L570.702,218.229L570.704,218.226L570.706,218.224L570.709,218.224L570.712,218.224L570.714,218.225L570.714,218.226L570.714,218.228L570.713,218.229L570.709,218.231L570.708,218.232L570.708,218.233L570.709,218.234L570.713,218.235L570.718,218.235L570.721,218.235L570.725,218.235L570.727,218.234L570.728,218.233L570.73,218.232L570.731,218.231L570.732,218.232L570.736,218.237L570.738,218.238L570.739,218.238L570.74,218.237L570.74,218.236L570.739,218.234L570.739,218.233L570.739,218.232L570.741,218.23L570.743,218.23L570.746,218.23L570.749,218.233L570.754,218.241L570.755,218.242L570.756,218.242L570.757,218.241L570.757,218.239L570.756,218.235L570.756,218.231L570.756,218.229L570.757,218.227L570.758,218.226L570.762,218.228L570.766,218.233L570.768,218.236L570.77,218.238L570.769,218.24L570.769,218.243L570.769,218.244L570.771,218.246L570.772,218.246L570.775,218.245L570.777,218.244L570.779,218.242L570.779,218.239L570.777,218.23L570.778,218.228L570.779,218.227L570.782,218.227L570.791,218.233L570.798,218.236L570.798,218.238L570.798,218.242L570.797,218.246L570.798,218.248L570.799,218.249L570.8,218.25L570.802,218.248L570.806,218.246L570.81,218.246L570.816,218.248L570.818,218.248L570.819,218.246L570.82,218.243L570.82,218.239L570.824,218.232L570.826,218.226L570.826,218.222L570.825,218.22L570.81,218.219L570.802,218.217L570.802,218.215L570.8,218.211L570.799,218.205L570.798,218.201L570.796,218.196L570.795,218.192L570.795,218.189L570.797,218.184L570.8,218.175L570.8,218.171L570.8,218.157L570.799,218.151L570.799,218.145L570.801,218.138L570.803,218.135L570.806,218.133L570.809,218.131L570.813,218.129L570.826,218.124L570.829,218.122L570.834,218.117L570.836,218.114L570.838,218.111L570.873,218.111L570.895,218.111L570.899,218.111L570.974,218.111L570.972,218.116L570.968,218.125L570.967,218.128L570.968,218.136L570.964,218.167L570.964,218.178L570.964,218.22L570.964,218.231L570.965,218.234L570.968,218.235L570.974,218.238L571.016,218.238L571.042,218.233L571.045,218.283L571.033,218.28L571.031,218.291L571.032,218.292L571.03,218.299L571.038,218.3L571.041,218.3L571.044,218.301L571.052,218.303L571.056,218.304L571.064,218.304L571.067,218.305L571.071,218.309L571.073,218.31L571.076,218.309L571.077,218.31L571.08,218.312L571.083,218.314L571.087,218.315L571.091,218.316L571.096,218.316L571.1,218.317L571.102,218.32L571.102,218.324L571.101,218.327L571.095,218.332L571.089,218.337L571.086,218.341L571.079,218.366L571.072,218.364L571.067,218.363L571.065,218.42L571.058,218.423L571.054,218.424L571.047,218.422L571.081,218.483L571.085,218.488L571.092,218.505L571.089,218.507L571.087,218.509L571.078,218.519L571.076,218.521L571.073,218.522L571.071,218.522L571.069,218.525L571.067,218.527L571.066,218.528L571.068,218.533L571.07,218.537L571.071,218.541L571.07,218.543L571.069,218.545L571.075,218.554L571.077,218.558L571.076,218.563L571.076,218.567L571.078,218.572L571.079,218.575L571.082,218.579L571.088,218.584L571.094,218.591L571.099,218.597L571.101,218.599L571.104,218.599L571.105,218.597L571.106,218.597L571.109,218.597L571.111,218.598L571.118,218.597L571.12,218.597L571.123,218.6L571.125,218.604L571.128,218.608L571.13,218.612L571.135,218.61L571.142,218.609L571.154,218.605L571.163,218.604L571.169,218.6L571.177,218.599L571.194,218.591L571.199,218.592L571.201,218.593L571.209,218.592L571.214,218.592L571.22,218.59L571.239,218.598L571.246,218.6L571.253,218.604L571.259,218.605L571.267,218.609L571.272,218.611L571.28,218.609L571.288,218.61L571.296,218.612L571.302,218.612L571.31,218.618L571.32,218.619L571.331,218.619L571.332,218.618L571.335,218.618L571.339,218.62L571.347,218.622L571.355,218.628L571.362,218.631L571.37,218.631L571.374,218.633L571.386,218.631L571.39,218.631L571.392,218.632L571.393,218.631L571.395,218.628L571.398,218.629L571.4,218.632L571.404,218.631L571.409,218.631L571.413,218.632L571.425,218.63L571.426,218.616L571.425,218.612L571.426,218.607L571.425,218.589L571.424,218.541L571.433,218.537L571.443,218.534L571.45,218.529L571.453,218.524L571.453,218.513L571.454,218.511L571.45,218.504L571.45,218.498L571.449,218.494L571.445,218.489L571.444,218.478L571.501,218.482L571.531,218.484L571.538,218.475L571.541,218.471L571.558,218.465L571.562,218.461L571.565,218.453L571.567,218.451L571.572,218.448L571.577,218.444L571.584,218.435L571.591,218.427L571.598,218.421L571.607,218.417L571.611,218.415L571.615,218.411L571.622,218.408L571.628,218.408L571.636,218.406L571.644,218.407L571.649,218.409L571.654,218.409L571.661,218.411L571.665,218.409L571.68,218.409L571.691,218.405L571.699,218.403L571.704,218.403L571.706,218.404L571.71,218.405L571.712,218.407L571.715,218.409L571.722,218.409L571.729,218.41L571.735,218.409L571.74,218.408L571.747,218.411L571.755,218.409L571.763,218.404L571.767,218.404L571.777,218.405L571.78,218.406L571.783,218.406L571.785,218.407L571.787,218.411L571.792,218.411L571.793,218.41L571.796,218.412L571.798,218.412L571.801,218.41L571.804,218.409L571.806,218.409L571.808,218.408L571.815,218.408L571.819,218.41L571.821,218.412L571.825,218.412L571.828,218.413L571.831,218.414L571.833,218.414L571.834,218.414L571.836,218.415L571.84,218.415L571.844,218.416L571.847,218.416L571.851,218.414L571.855,218.413L571.86,218.412L571.867,218.412L571.869,218.413L571.872,218.413L571.873,218.414L571.883,218.416L571.885,218.418L571.887,218.418L571.891,218.414L571.895,218.414L571.903,218.413L571.908,218.414L571.913,218.413L571.908,218.384L571.903,218.361L571.903,218.356L571.903,218.349L571.903,218.348L571.904,218.348L571.904,218.347L571.904,218.346L571.903,218.344L571.903,218.342L571.903,218.341L571.904,218.341L571.905,218.339L571.905,218.339L571.906,218.338L571.907,218.338L571.907,218.337L571.907,218.335L571.907,218.334L571.906,218.334L571.906,218.333L571.906,218.332L571.906,218.331L571.906,218.331L571.906,218.33L571.907,218.33L571.908,218.329L571.909,218.329L571.909,218.329L571.91,218.329L571.911,218.328L571.912,218.328L571.913,218.327L571.914,218.327L571.914,218.326L571.915,218.326L571.916,218.326L571.916,218.325L571.916,218.325L571.917,218.324L571.917,218.324L571.918,218.323L571.918,218.323L571.919,218.322L571.919,218.322L571.921,218.32L571.921,218.319L571.921,218.318L571.921,218.317L571.921,218.317L571.922,218.316L571.922,218.315L571.923,218.314L571.923,218.314L571.925,218.314L571.926,218.313L571.928,218.312L571.929,218.311L571.908,218.292L571.908,218.285L571.91,218.266L571.94,218.261L571.966,218.261L571.982,218.274L571.983,218.274L572.042,218.267L572.045,218.281L572.046,218.287L572.057,218.307L572.063,218.32L572.081,218.363L572.096,218.399L572.101,218.413L572.127,218.479L572.138,218.506L572.151,218.536L572.154,218.543L572.157,218.549L572.167,218.573L572.182,218.607L572.187,218.623L572.188,218.625L572.193,218.619L572.196,218.622L572.193,218.626L572.192,218.628L572.188,218.632L572.193,218.637L572.194,218.637L572.194,218.637L572.195,218.637L572.195,218.637L572.196,218.636L572.196,218.636L572.197,218.635L572.198,218.634L572.198,218.634L572.198,218.633L572.198,218.633L572.197,218.632L572.197,218.632L572.197,218.631L572.198,218.631L572.198,218.63L572.198,218.63L572.199,218.63L572.199,218.63L572.2,218.629L572.2,218.629L572.2,218.629L572.2,218.629L572.201,218.628L572.201,218.628L572.202,218.628L572.202,218.627L572.203,218.627L572.203,218.626L572.204,218.626L572.205,218.625L572.205,218.625L572.205,218.625L572.205,218.624L572.206,218.624L572.206,218.623L572.206,218.623L572.206,218.622L572.207,218.622L572.207,218.621L572.208,218.621L572.209,218.62L572.209,218.62L572.209,218.619L572.21,218.619L572.21,218.619L572.211,218.619L572.212,218.619L572.212,218.618L572.212,218.618L572.213,218.618L572.213,218.618L572.214,218.617L572.215,218.616L572.215,218.616L572.216,218.616L572.217,218.616L572.217,218.616L572.218,218.616L572.218,218.615L572.218,218.615L572.218,218.614L572.218,218.614L572.218,218.613L572.219,218.613L572.219,218.612L572.219,218.612L572.22,218.611L572.221,218.61L572.221,218.61L572.222,218.61L572.222,218.61L572.223,218.61L572.223,218.609L572.223,218.609L572.223,218.608L572.223,218.606L572.223,218.605L572.224,218.605L572.225,218.605L572.226,218.604L572.226,218.604L572.227,218.604L572.228,218.604L572.228,218.604L572.229,218.604L572.229,218.603L572.229,218.603L572.229,218.603L572.23,218.603L572.23,218.603L572.231,218.603L572.232,218.603L572.232,218.603L572.232,218.603L572.234,218.603L572.234,218.603L572.235,218.603L572.235,218.603L572.236,218.603L572.237,218.602L572.237,218.602L572.239,218.602L572.241,218.601L572.241,218.601L572.242,218.601L572.242,218.6L572.243,218.6L572.243,218.6L572.244,218.599L572.244,218.599L572.245,218.599L572.246,218.599L572.246,218.599L572.247,218.598L572.248,218.597L572.248,218.597L572.248,218.596L572.248,218.596L572.248,218.595L572.248,218.595L572.248,218.595L572.248,218.594L572.248,218.594L572.25,218.594L572.25,218.594L572.25,218.593L572.251,218.593L572.251,218.593L572.252,218.592L572.252,218.592L572.252,218.592L572.252,218.592L572.253,218.592L572.254,218.592L572.254,218.592L572.255,218.592L572.255,218.591L572.255,218.591L572.256,218.591L572.256,218.591L572.257,218.59L572.257,218.589L572.257,218.589L572.257,218.587L572.258,218.587L572.258,218.586L572.258,218.586L572.259,218.586L572.259,218.585L572.26,218.585L572.26,218.585L572.261,218.585L572.261,218.584L572.261,218.583L572.262,218.582L572.262,218.582L572.262,218.581L572.262,218.58L572.262,218.58L572.262,218.579L572.263,218.578L572.263,218.578L572.264,218.577L572.264,218.577L572.264,218.576L572.265,218.575L572.266,218.574L572.272,218.566L572.281,218.56L572.286,218.555L572.287,218.551L572.29,218.547L572.293,218.545ZM800,0L800,12.246L800,78.668L800,145.789L800,215.835L800,261.497L800,300L800,338.503L800,384.165L800,454.211L800,600L800,600L200,600L200,600L200,454.211L200,384.165L200,338.503L200,300L200,261.497L200,215.835L200,145.789L200,78.668L200,12.246L200,0L200,0L800,0Z"/>
<path d="M569.948,215.733m0,4.5a4.5,4.5 0 1,1 0,-9a4.5,4.5 0 1,1 0,9z"/>
<path d="M572.401,216.157m0,4.5a4.5,4.5 0 1,1 0,-9a4.5,4.5 0 1,1 0,9z"/>
</svg>