<?xml version="1.0" encoding="UTF-8"?>
<svg xmlns="http://www.w3.org/2000/svg" viewBox="0 0 1000 600" stroke="#000" stroke-width="0.3" fill="#ccc">
<path d="M571.834,195.987L571.82,195.976L571.813,195.962L571.808,195.953L571.767,195.909L571.73,195.868L571.729,195.86L571.725,195.86L571.683,195.81L571.681,195.806L571.657,195.757L571.654,195.753L571.651,195.746L571.647,195.741L571.641,195.746L571.634,195.747L571.611,195.72L571.607,195.717L571.603,195.713L571.597,195.704L571.588,195.695L571.588,195.69L571.588,195.688L571.589,195.687L571.59,195.684L571.592,195.681L571.592,195.68L571.592,195.678L571.592,195.671L571.592,195.67L571.594,195.664L571.594,195.663L571.594,195.661L571.595,195.656L571.595,195.65L571.595,195.649L571.595,195.648L571.595,195.647L571.593,195.644L571.593,195.643L571.588,195.635L571.587,195.634L571.587,195.634L571.587,195.634L571.586,195.633L571.578,195.627L571.578,195.627L571.576,195.625L571.574,195.624L571.573,195.623L571.571,195.622L571.57,195.621L571.564,195.617L571.562,195.615L571.562,195.615L571.554,195.61L571.55,195.607L571.545,195.604L571.541,195.601L571.539,195.599L571.537,195.598L571.535,195.597L571.534,195.596L571.533,195.595L571.53,195.594L571.529,195.593L571.529,195.593L571.528,195.592L571.527,195.592L571.526,195.591L571.525,195.59L571.523,195.589L571.522,195.589L571.521,195.588L571.52,195.587L571.519,195.586L571.518,195.586L571.518,195.586L571.518,195.585L571.514,195.583L571.513,195.582L571.512,195.581L571.45,195.546L571.399,195.51L571.389,195.505L571.378,195.499L571.351,195.484L571.34,195.475L571.298,195.44L571.295,195.437L571.294,195.436L571.291,195.433L571.283,195.425L571.283,195.425L571.283,195.425L571.283,195.425L571.283,195.424L571.282,195.424L571.282,195.424L571.282,195.424L571.282,195.424L571.281,195.423L571.281,195.423L571.281,195.423L571.281,195.422L571.28,195.422L571.28,195.422L571.279,195.421L571.277,195.418L571.272,195.413L571.271,195.413L571.265,195.405L571.258,195.396L571.248,195.383L571.231,195.361L571.225,195.353L571.224,195.352L571.223,195.351L571.222,195.35L571.218,195.344L571.216,195.34L571.212,195.336L571.211,195.334L571.211,195.333L571.211,195.333L571.211,195.333L571.211,195.333L571.21,195.333L571.21,195.332L571.21,195.332L571.21,195.332L571.21,195.332L571.21,195.331L571.196,195.305L571.195,195.304L571.195,195.303L571.194,195.302L571.193,195.3L571.19,195.296L571.185,195.288L571.184,195.285L571.183,195.284L571.183,195.284L571.182,195.282L571.181,195.28L571.177,195.275L571.171,195.268L571.168,195.265L571.159,195.256L571.158,195.255L571.158,195.255L571.158,195.254L571.157,195.253L571.156,195.252L571.155,195.251L571.154,195.25L571.143,195.237L571.143,195.237L571.143,195.237L571.142,195.237L571.142,195.236L571.142,195.236L571.141,195.235L571.141,195.235L571.141,195.235L571.141,195.235L571.141,195.235L571.141,195.234L571.14,195.234L571.139,195.233L571.139,195.232L571.138,195.232L571.138,195.231L571.137,195.231L571.128,195.22L571.114,195.201L571.111,195.197L571.109,195.194L571.107,195.193L571.106,195.19L571.101,195.183L571.098,195.179L571.089,195.166L571.085,195.161L571.074,195.143L571.046,195.096L571.026,195.098L571.019,195.098L571.018,195.098L571.017,195.099L571.015,195.099L571.013,195.099L571.012,195.099L571.011,195.099L571.01,195.1L571,195.101L570.99,195.103L570.986,195.103L570.985,195.103L570.984,195.104L570.977,195.104L570.975,195.105L570.972,195.105L570.97,195.106L570.962,195.107L570.944,195.108L570.913,195.112L570.907,195.076L570.877,195.05L570.867,195.025L570.863,195.015L570.848,194.979L570.87,194.967L570.892,194.962L570.907,194.959L570.913,194.961L570.924,194.944L570.952,194.952L570.947,194.945L570.942,194.927L570.93,194.908L570.893,194.861L570.873,194.837L570.84,194.8L570.821,194.789L570.782,194.754L570.738,194.72L570.708,194.7L570.702,194.696L570.72,194.665L570.698,194.651L570.695,194.606L570.695,194.603L570.687,194.511L570.681,194.511L570.664,194.531L570.633,194.541L570.631,194.53L570.625,194.525L570.614,194.524L570.605,194.532L570.601,194.538L570.594,194.539L570.592,194.517L570.588,194.51L570.584,194.51L570.58,194.508L570.565,194.499L570.545,194.488L570.539,194.484L570.528,194.475L570.509,194.458L570.494,194.431L570.487,194.414L570.467,194.439L570.454,194.413L570.433,194.425L570.421,194.425L570.417,194.437L570.414,194.445L570.401,194.458L570.395,194.452L570.398,194.429L570.399,194.405L570.407,194.385L570.407,194.381L570.41,194.356L570.425,194.349L570.429,194.347L570.433,194.343L570.434,194.34L570.433,194.336L570.428,194.335L570.427,194.318L570.433,194.297L570.454,194.303L570.466,194.296L570.464,194.291L570.466,194.282L570.47,194.277L570.469,194.264L570.475,194.258L570.489,194.26L570.503,194.266L570.519,194.264L570.534,194.255L570.53,194.25L570.499,194.247L570.496,194.233L570.492,194.208L570.497,194.206L570.495,194.195L570.467,194.183L570.452,194.175L570.438,194.162L570.428,194.142L570.427,194.12L570.426,194.099L570.403,194.1L570.397,194.108L570.399,194.115L570.379,194.115L570.375,194.089L570.357,194.093L570.344,194.093L570.335,194.081L570.333,194.074L570.329,194.069L570.324,194.07L570.31,194.075L570.302,194.075L570.292,194.071L570.274,194.075L570.26,194.076L570.245,194.069L570.238,194.062L570.235,194.062L570.236,194.059L570.249,194.047L570.255,194.04L570.264,194.037L570.271,194.03L570.279,194.015L570.284,193.998L570.289,193.987L570.286,193.966L570.271,193.969L570.241,193.981L570.218,193.992L570.207,194.004L570.193,194.018L570.183,194.015L570.2,193.962L570.209,193.937L570.234,193.864L570.211,193.854L570.203,193.865L570.205,193.824L570.205,193.813L570.205,193.785L570.206,193.728L570.209,193.688L570.212,193.628L570.219,193.626L570.212,193.613L570.205,193.596L570.201,193.587L570.196,193.578L570.201,193.547L570.215,193.545L570.209,193.516L570.24,193.463L570.228,193.463L570.232,193.447L570.221,193.447L570.211,193.473L570.149,193.472L570.141,193.405L570.142,193.398L570.136,193.361L570.184,193.336L570.171,193.312L570.178,193.305L570.228,193.308L570.229,193.303L570.254,193.298L570.257,193.297L570.248,193.257L570.239,193.207L570.231,193.207L570.224,193.207L570.212,193.208L570.201,193.208L570.19,193.208L570.181,193.209L570.173,193.209L570.166,193.21L570.155,193.21L570.154,193.21L570.15,193.21L570.139,193.208L570.139,193.21L570.135,193.208L570.135,193.208L570.135,193.207L570.135,193.206L570.134,193.206L570.133,193.206L570.133,193.206L570.132,193.205L570.131,193.204L570.131,193.203L570.13,193.203L570.118,193.201L570.115,193.201L570.112,193.201L570.108,193.202L570.105,193.203L570.103,193.203L570.102,193.204L570.1,193.205L570.098,193.206L570.096,193.203L570.092,193.197L570.085,193.184L570.079,193.174L570.077,193.171L570.076,193.171L570.074,193.171L570.073,193.171L570.073,193.171L570.072,193.171L570.072,193.172L570.072,193.172L570.072,193.172L570.071,193.172L570.071,193.172L570.07,193.172L570.07,193.173L570.069,193.174L570.068,193.174L570.066,193.175L570.064,193.175L570.063,193.175L570.062,193.174L570.061,193.173L570.061,193.172L570.061,193.172L570.059,193.173L570.057,193.172L570.056,193.172L570.054,193.17L570.054,193.168L570.053,193.167L570.052,193.166L570.05,193.165L570.05,193.165L570.048,193.155L570.041,193.151L570.036,193.171L570.023,193.172L570.01,193.173L570.003,193.179L569.992,193.189L569.981,193.197L569.972,193.205L569.962,193.204L569.952,193.2L569.939,193.196L569.93,193.193L569.926,193.188L569.925,193.187L569.921,193.186L569.914,193.183L569.907,193.18L569.887,193.183L569.884,193.183L569.877,193.183L569.864,193.184L569.859,193.183L569.855,193.177L569.852,193.173L569.85,193.172L569.843,193.171L569.835,193.166L569.83,193.165L569.808,193.162L569.8,193.161L569.791,193.161L569.781,193.152L569.773,193.156L569.767,193.159L569.75,193.16L569.737,193.158L569.735,193.158L569.734,193.159L569.733,193.159L569.732,193.159L569.731,193.16L569.731,193.16L569.73,193.161L569.729,193.161L569.728,193.162L569.728,193.163L569.728,193.163L569.727,193.163L569.726,193.163L569.725,193.163L569.724,193.164L569.724,193.165L569.724,193.166L569.722,193.166L569.722,193.167L569.722,193.168L569.723,193.168L569.723,193.169L569.722,193.169L569.722,193.171L569.721,193.172L569.721,193.173L569.719,193.174L569.719,193.174L569.718,193.175L569.717,193.175L569.717,193.175L569.716,193.174L569.716,193.174L569.716,193.173L569.716,193.172L569.716,193.172L569.715,193.171L569.711,193.171L569.702,193.169L569.702,193.175L569.699,193.179L569.694,193.181L569.694,193.183L569.682,193.189L569.679,193.19L569.677,193.189L569.675,193.189L569.673,193.189L569.672,193.19L569.671,193.192L569.673,193.198L569.673,193.2L569.673,193.201L569.672,193.202L569.67,193.201L569.668,193.2L569.666,193.198L569.665,193.193L569.665,193.19L569.664,193.186L569.663,193.183L569.661,193.182L569.657,193.181L569.655,193.184L569.647,193.191L569.646,193.192L569.646,193.193L569.644,193.194L569.643,193.195L569.641,193.195L569.641,193.195L569.639,193.196L569.638,193.197L569.637,193.197L569.636,193.197L569.636,193.197L569.635,193.196L569.634,193.195L569.634,193.194L569.634,193.195L569.633,193.195L569.632,193.195L569.632,193.195L569.632,193.195L569.631,193.195L569.63,193.195L569.629,193.196L569.627,193.196L569.624,193.196L569.621,193.196L569.62,193.196L569.618,193.196L569.617,193.196L569.616,193.196L569.614,193.196L569.613,193.196L569.612,193.197L569.611,193.197L569.608,193.198L569.604,193.199L569.602,193.198L569.601,193.198L569.6,193.198L569.598,193.197L569.597,193.197L569.595,193.197L569.594,193.198L569.593,193.197L569.591,193.197L569.59,193.196L569.587,193.179L569.553,193.182L569.539,193.183L569.526,193.184L569.518,193.184L569.505,193.183L569.49,193.182L569.481,193.18L569.478,193.18L569.477,193.199L569.476,193.204L569.474,193.206L569.468,193.21L569.459,193.215L569.452,193.215L569.434,193.213L569.427,193.212L569.415,193.209L569.421,193.23L569.422,193.231L569.425,193.243L569.427,193.25L569.428,193.252L569.428,193.253L569.428,193.254L569.428,193.255L569.428,193.256L569.429,193.259L569.429,193.26L569.428,193.26L569.425,193.26L569.418,193.259L569.417,193.263L569.409,193.262L569.408,193.269L569.407,193.275L569.404,193.275L569.403,193.283L569.399,193.284L569.398,193.284L569.397,193.284L569.395,193.284L569.394,193.285L569.392,193.285L569.391,193.286L569.388,193.287L569.387,193.287L569.384,193.287L569.383,193.287L569.381,193.287L569.38,193.286L569.377,193.286L569.376,193.284L569.375,193.283L569.374,193.283L569.373,193.282L569.372,193.282L569.371,193.282L569.37,193.283L569.369,193.285L569.368,193.287L569.367,193.288L569.368,193.289L569.367,193.29L569.366,193.29L569.366,193.288L569.365,193.287L569.365,193.287L569.364,193.287L569.363,193.287L569.362,193.286L569.361,193.285L569.36,193.285L569.358,193.285L569.356,193.285L569.355,193.284L569.354,193.283L569.353,193.283L569.352,193.283L569.352,193.284L569.351,193.284L569.35,193.283L569.35,193.281L569.349,193.281L569.349,193.281L569.347,193.281L569.347,193.281L569.345,193.281L569.344,193.28L569.344,193.279L569.344,193.278L569.345,193.278L569.346,193.277L569.346,193.276L569.347,193.275L569.347,193.273L569.347,193.273L569.346,193.272L569.345,193.272L569.344,193.27L569.344,193.27L569.344,193.269L569.345,193.268L569.346,193.268L569.347,193.266L569.35,193.265L569.352,193.265L569.353,193.265L569.354,193.265L569.355,193.264L569.355,193.263L569.354,193.262L569.354,193.261L569.354,193.26L569.355,193.259L569.356,193.259L569.356,193.258L569.357,193.257L569.357,193.256L569.357,193.255L569.356,193.254L569.356,193.252L569.356,193.252L569.355,193.252L569.354,193.252L569.352,193.252L569.351,193.251L569.35,193.25L569.349,193.249L569.349,193.248L569.35,193.247L569.35,193.247L569.352,193.247L569.353,193.246L569.354,193.244L569.354,193.244L569.354,193.242L569.354,193.241L569.356,193.24L569.356,193.239L569.356,193.239L569.356,193.238L569.356,193.237L569.353,193.236L569.351,193.235L569.351,193.236L569.349,193.235L569.348,193.235L569.347,193.235L569.346,193.236L569.346,193.236L569.345,193.237L569.344,193.238L569.343,193.239L569.343,193.238L569.342,193.237L569.342,193.236L569.342,193.235L569.341,193.234L569.341,193.234L569.339,193.233L569.338,193.233L569.336,193.233L569.335,193.234L569.334,193.234L569.333,193.234L569.333,193.233L569.333,193.233L569.333,193.232L569.333,193.23L569.333,193.23L569.333,193.229L569.333,193.228L569.333,193.227L569.333,193.227L569.332,193.226L569.331,193.226L569.33,193.226L569.329,193.226L569.329,193.226L569.329,193.225L569.33,193.224L569.331,193.223L569.333,193.223L569.334,193.223L569.335,193.224L569.336,193.225L569.336,193.225L569.337,193.225L569.338,193.224L569.339,193.223L569.339,193.222L569.34,193.222L569.341,193.222L569.342,193.222L569.343,193.221L569.344,193.217L569.344,193.216L569.343,193.215L569.343,193.215L569.343,193.213L569.343,193.213L569.342,193.212L569.341,193.213L569.341,193.212L569.34,193.212L569.341,193.21L569.341,193.209L569.34,193.208L569.34,193.207L569.339,193.207L569.338,193.206L569.337,193.206L569.336,193.206L569.335,193.206L569.335,193.206L569.336,193.204L569.332,193.207L569.328,193.21L569.319,193.198L569.3,193.213L569.298,193.213L569.297,193.212L569.295,193.212L569.295,193.212L569.294,193.213L569.293,193.213L569.293,193.213L569.292,193.213L569.29,193.213L569.29,193.213L569.29,193.212L569.289,193.211L569.289,193.211L569.288,193.211L569.287,193.21L569.285,193.21L569.285,193.209L569.283,193.208L569.283,193.208L569.283,193.207L569.282,193.206L569.282,193.205L569.282,193.204L569.282,193.203L569.282,193.202L569.282,193.201L569.282,193.2L569.283,193.199L569.283,193.198L569.283,193.197L569.283,193.197L569.284,193.195L569.284,193.194L569.282,193.193L569.281,193.193L569.281,193.193L569.279,193.193L569.277,193.194L569.277,193.194L569.276,193.193L569.275,193.193L569.273,193.193L569.272,193.193L569.272,193.193L569.271,193.192L569.271,193.191L569.271,193.19L569.271,193.188L569.271,193.188L569.269,193.187L569.268,193.187L569.267,193.187L569.267,193.186L569.267,193.185L569.266,193.184L569.264,193.182L569.263,193.182L569.262,193.182L569.261,193.182L569.257,193.181L569.256,193.181L569.254,193.182L569.253,193.182L569.252,193.182L569.251,193.182L569.25,193.183L569.249,193.183L569.248,193.183L569.247,193.183L569.247,193.183L569.246,193.183L569.245,193.184L569.245,193.185L569.244,193.186L569.243,193.187L569.24,193.189L569.24,193.19L569.239,193.191L569.238,193.192L569.238,193.192L569.238,193.193L569.237,193.194L569.235,193.197L569.234,193.198L569.233,193.198L569.233,193.199L569.232,193.2L569.231,193.201L569.231,193.201L569.231,193.202L569.232,193.204L569.232,193.205L569.232,193.206L569.232,193.208L569.232,193.209L569.232,193.213L569.232,193.216L569.23,193.219L569.222,193.228L569.212,193.244L569.208,193.256L569.19,193.256L569.189,193.263L569.184,193.263L569.184,193.27L569.184,193.272L569.184,193.273L569.182,193.273L569.181,193.273L569.181,193.273L569.18,193.273L569.178,193.274L569.178,193.274L569.177,193.274L569.176,193.274L569.173,193.274L569.168,193.284L569.163,193.292L569.155,193.291L569.148,193.291L569.139,193.291L569.136,193.289L569.13,193.285L569.125,193.283L569.115,193.278L569.102,193.273L569.09,193.268L569.077,193.273L569.048,193.286L569.046,193.276L569.041,193.267L569.037,193.259L569.02,193.258L569.009,193.258L569,193.261L568.998,193.266L568.997,193.273L568.999,193.279L568.999,193.281L568.994,193.297L568.996,193.301L568.989,193.303L568.978,193.307L568.977,193.3L568.96,193.309L568.939,193.31L568.939,193.315L568.939,193.323L568.94,193.336L568.941,193.344L568.943,193.353L568.947,193.37L568.949,193.38L568.948,193.392L568.948,193.402L568.948,193.408L568.947,193.416L568.948,193.427L568.948,193.435L568.948,193.45L568.948,193.468L568.948,193.479L568.948,193.531L568.947,193.539L568.946,193.547L568.945,193.587L568.945,193.599L568.945,193.607L568.945,193.612L568.945,193.627L568.944,193.631L568.944,193.634L568.944,193.64L568.944,193.658L568.944,193.663L568.942,193.68L568.941,193.698L568.94,193.701L568.938,193.719L568.937,193.73L568.936,193.739L568.935,193.751L568.933,193.773L568.932,193.787L568.931,193.798L568.93,193.803L568.93,193.815L568.929,193.836L568.929,193.84L568.929,193.851L568.929,193.88L568.928,193.894L568.927,193.9L568.927,193.913L568.927,193.936L568.929,193.951L568.928,193.959L568.924,193.982L568.924,193.983L568.924,193.985L568.923,193.987L568.914,193.984L568.913,193.99L568.899,193.989L568.888,193.987L568.883,193.988L568.881,193.989L568.88,193.988L568.879,193.988L568.879,193.988L568.878,193.988L568.877,193.987L568.876,193.987L568.876,193.987L568.874,193.987L568.873,193.987L568.872,193.987L568.871,193.987L568.869,193.987L568.868,193.987L568.867,193.986L568.867,193.986L568.866,193.985L568.866,193.985L568.865,193.985L568.865,193.985L568.864,193.985L568.863,193.986L568.863,193.986L568.862,193.987L568.862,193.988L568.861,193.988L568.86,193.989L568.86,193.989L568.859,193.99L568.859,193.99L568.859,193.991L568.859,193.991L568.859,193.992L568.858,193.992L568.858,193.992L568.858,193.993L568.857,193.994L568.857,193.994L568.856,193.995L568.856,193.996L568.856,193.996L568.855,193.996L568.854,193.996L568.853,193.996L568.853,193.996L568.852,193.996L568.851,193.997L568.85,193.997L568.85,193.997L568.849,193.996L568.848,193.996L568.847,193.996L568.847,193.996L568.846,193.996L568.845,193.996L568.845,193.997L568.844,193.997L568.843,193.997L568.843,193.997L568.843,193.997L568.842,193.998L568.842,193.998L568.841,193.998L568.841,193.998L568.84,193.998L568.84,193.999L568.839,193.999L568.839,193.999L568.838,193.999L568.837,194L568.836,194L568.835,194.001L568.834,194.001L568.833,194.002L568.833,194.002L568.832,194.002L568.832,194.003L568.832,194.003L568.832,194.004L568.831,194.004L568.83,194.005L568.83,194.005L568.829,194.007L568.829,194.008L568.828,194.008L568.828,194.009L568.827,194.01L568.826,194.011L568.825,194.011L568.824,194.011L568.823,194.013L568.822,194.013L568.821,194.014L568.82,194.014L568.819,194.014L568.818,194.015L568.817,194.015L568.817,194.016L568.817,194.017L568.817,194.018L568.817,194.018L568.816,194.018L568.815,194.017L568.814,194.017L568.814,194.018L568.814,194.019L568.811,194.02L568.809,194.021L568.808,194.022L568.806,194.023L568.805,194.023L568.804,194.024L568.804,194.024L568.803,194.024L568.802,194.024L568.802,194.025L568.801,194.026L568.801,194.027L568.801,194.028L568.8,194.028L568.8,194.028L568.799,194.028L568.798,194.028L568.794,194.028L568.794,194.027L568.79,194.027L568.789,194.027L568.787,194.027L568.785,194.027L568.784,194.028L568.783,194.027L568.781,194.027L568.779,194.026L568.777,194.025L568.775,194.025L568.774,194.025L568.772,194.024L568.771,194.024L568.769,194.024L568.768,194.024L568.767,194.024L568.767,194.024L568.764,194.023L568.763,194.022L568.762,194.022L568.762,194.022L568.76,194.022L568.76,194.022L568.759,194.02L568.758,194.019L568.757,194.017L568.756,194.015L568.756,194.013L568.755,194.011L568.755,194.011L568.755,194.01L568.755,194.009L568.754,194.009L568.753,194.009L568.753,194.009L568.752,194.009L568.751,194.009L568.751,194.01L568.75,194.01L568.75,194.011L568.749,194.011L568.748,194.011L568.748,194.011L568.747,194.012L568.746,194.012L568.745,194.012L568.745,194.013L568.744,194.015L568.743,194.016L568.743,194.017L568.743,194.018L568.742,194.018L568.742,194.019L568.743,194.02L568.743,194.02L568.744,194.021L568.744,194.021L568.745,194.022L568.745,194.022L568.744,194.023L568.744,194.024L568.743,194.024L568.743,194.024L568.743,194.025L568.743,194.026L568.743,194.027L568.743,194.028L568.743,194.029L568.743,194.03L568.743,194.031L568.743,194.032L568.742,194.033L568.742,194.034L568.742,194.034L568.743,194.035L568.744,194.036L568.744,194.036L568.744,194.036L568.743,194.037L568.743,194.037L568.743,194.038L568.744,194.039L568.745,194.04L568.745,194.04L568.746,194.041L568.746,194.041L568.746,194.042L568.746,194.043L568.747,194.044L568.747,194.044L568.747,194.045L568.747,194.046L568.747,194.047L568.748,194.047L568.748,194.048L568.749,194.048L568.75,194.049L568.75,194.049L568.75,194.05L568.75,194.05L568.75,194.051L568.75,194.051L568.75,194.051L568.75,194.052L568.75,194.053L568.75,194.053L568.751,194.054L568.752,194.054L568.752,194.055L568.752,194.056L568.752,194.056L568.752,194.056L568.752,194.057L568.752,194.057L568.752,194.058L568.753,194.059L568.753,194.059L568.754,194.059L568.755,194.059L568.755,194.059L568.756,194.059L568.756,194.058L568.757,194.058L568.758,194.058L568.758,194.058L568.758,194.058L568.759,194.06L568.759,194.06L568.76,194.061L568.76,194.061L568.761,194.063L568.761,194.064L568.762,194.066L568.762,194.067L568.763,194.068L568.763,194.069L568.763,194.069L568.763,194.07L568.764,194.07L568.764,194.071L568.764,194.071L568.765,194.071L568.765,194.071L568.765,194.071L568.766,194.071L568.766,194.071L568.767,194.072L568.768,194.073L568.769,194.073L568.769,194.074L568.769,194.075L568.769,194.076L568.768,194.078L568.768,194.078L568.768,194.079L568.768,194.08L568.768,194.08L568.768,194.081L568.768,194.082L568.768,194.083L568.768,194.083L568.768,194.084L568.767,194.085L568.767,194.086L568.767,194.086L568.767,194.087L568.766,194.088L568.766,194.088L568.766,194.089L568.766,194.09L568.766,194.091L568.766,194.091L568.766,194.092L568.765,194.092L568.765,194.093L568.764,194.093L568.764,194.094L568.764,194.095L568.764,194.096L568.763,194.096L568.762,194.098L568.761,194.099L568.761,194.099L568.76,194.099L568.76,194.099L568.759,194.1L568.759,194.101L568.757,194.102L568.757,194.103L568.757,194.104L568.758,194.104L568.758,194.105L568.759,194.105L568.76,194.106L568.76,194.107L568.761,194.108L568.761,194.108L568.761,194.109L568.76,194.109L568.759,194.108L568.759,194.109L568.758,194.111L568.758,194.111L568.759,194.112L568.759,194.114L568.76,194.115L568.761,194.115L568.761,194.116L568.762,194.116L568.762,194.117L568.763,194.119L568.764,194.121L568.764,194.122L568.764,194.124L568.764,194.125L568.763,194.125L568.762,194.126L568.762,194.126L568.762,194.127L568.762,194.127L568.761,194.128L568.761,194.128L568.761,194.129L568.761,194.13L568.761,194.131L568.76,194.132L568.76,194.133L568.76,194.133L568.761,194.134L568.761,194.135L568.762,194.135L568.763,194.136L568.764,194.136L568.765,194.137L568.765,194.137L568.766,194.137L568.766,194.138L568.767,194.139L568.766,194.139L568.751,194.136L568.746,194.136L568.739,194.137L568.724,194.138L568.709,194.14L568.697,194.141L568.686,194.142L568.678,194.129L568.665,194.133L568.643,194.134L568.643,194.134L568.643,194.138L568.643,194.141L568.643,194.145L568.643,194.159L568.643,194.173L568.643,194.185L568.643,194.186L568.644,194.188L568.645,194.19L568.644,194.191L568.644,194.195L568.645,194.197L568.645,194.199L568.645,194.2L568.646,194.203L568.645,194.205L568.646,194.209L568.647,194.213L568.647,194.218L568.645,194.227L568.633,194.222L568.629,194.225L568.624,194.229L568.619,194.232L568.617,194.234L568.605,194.246L568.604,194.248L568.597,194.254L568.591,194.258L568.585,194.263L568.579,194.281L568.576,194.289L568.575,194.292L568.575,194.292L568.562,194.287L568.562,194.287L568.559,194.286L568.557,194.284L568.549,194.278L568.542,194.274L568.531,194.269L568.512,194.264L568.501,194.261L568.486,194.26L568.471,194.26L568.466,194.26L568.448,194.258L568.435,194.257L568.421,194.255L568.409,194.255L568.4,194.255L568.4,194.254L568.4,194.253L568.4,194.253L568.401,194.252L568.401,194.252L568.401,194.25L568.401,194.249L568.401,194.248L568.401,194.248L568.402,194.247L568.401,194.246L568.401,194.246L568.402,194.244L568.403,194.242L568.406,194.239L568.407,194.238L568.407,194.237L568.407,194.236L568.407,194.234L568.407,194.231L568.406,194.229L568.406,194.228L568.406,194.228L568.406,194.227L568.408,194.226L568.408,194.225L568.408,194.224L568.409,194.222L568.409,194.222L568.409,194.221L568.409,194.221L568.409,194.22L568.409,194.22L568.41,194.219L568.411,194.218L568.411,194.217L568.411,194.215L568.411,194.215L568.412,194.214L568.412,194.213L568.413,194.212L568.413,194.211L568.413,194.209L568.413,194.207L568.415,194.206L568.415,194.206L568.416,194.206L568.415,194.205L568.416,194.205L568.415,194.204L568.415,194.203L568.415,194.202L568.415,194.201L568.416,194.199L568.417,194.199L568.418,194.198L568.419,194.197L568.419,194.195L568.419,194.194L568.42,194.193L568.42,194.192L568.42,194.191L568.419,194.19L568.419,194.19L568.42,194.189L568.42,194.189L568.419,194.186L568.418,194.185L568.417,194.185L568.415,194.184L568.415,194.182L568.414,194.181L568.414,194.18L568.414,194.179L568.414,194.176L568.414,194.175L568.414,194.174L568.414,194.174L568.415,194.173L568.416,194.172L568.417,194.171L568.417,194.17L568.417,194.169L568.416,194.168L568.415,194.167L568.413,194.165L568.412,194.164L568.411,194.162L568.41,194.158L568.409,194.154L568.409,194.152L568.409,194.149L568.409,194.148L568.408,194.146L568.406,194.142L568.406,194.141L568.405,194.14L568.406,194.136L568.406,194.134L568.405,194.132L568.404,194.131L568.405,194.124L568.401,194.123L568.396,194.12L568.389,194.115L568.383,194.109L568.38,194.107L568.369,194.097L568.365,194.093L568.359,194.088L568.349,194.083L568.344,194.08L568.337,194.076L568.322,194.073L568.316,194.072L568.301,194.069L568.281,194.065L568.272,194.062L568.263,194.058L568.248,194.055L568.234,194.053L568.228,194.052L568.216,194.05L568.203,194.048L568.192,194.047L568.181,194.046L568.17,194.044L568.16,194.043L568.152,194.057L568.147,194.066L568.142,194.075L568.136,194.083L568.127,194.099L568.124,194.105L568.123,194.106L568.121,194.109L568.118,194.114L568.115,194.119L568.098,194.123L568.096,194.126L568.094,194.128L568.094,194.129L568.086,194.138L568.087,194.153L568.089,194.168L568.088,194.168L568.087,194.169L568.087,194.169L568.086,194.168L568.085,194.169L568.083,194.169L568.082,194.17L568.081,194.17L568.08,194.171L568.079,194.171L568.078,194.171L568.076,194.171L568.075,194.172L568.074,194.174L568.073,194.174L568.072,194.174L568.07,194.175L568.07,194.176L568.068,194.176L568.066,194.177L568.065,194.175L568.055,194.164L568.053,194.153L568.049,194.135L568.04,194.124L568.034,194.116L568.031,194.112L568.031,194.112L568.024,194.104L568.032,194.097L568.029,194.091L568.025,194.08L568.019,194.068L568.007,194.04L568.014,194.032L568.003,194.026L568.004,194.014L568.005,194.002L567.983,193.993L567.982,193.993L567.952,193.988L567.954,193.964L567.954,193.962L567.956,193.949L567.957,193.946L567.961,193.936L567.966,193.923L567.948,193.92L567.926,193.916L567.927,193.909L567.913,193.907L567.909,193.906L567.899,193.905L567.886,193.903L567.869,193.901L567.855,193.9L567.849,193.9L567.835,193.901L567.826,193.914L567.821,193.921L567.801,193.95L567.789,193.944L567.778,193.938L567.764,193.945L567.76,193.947L567.754,193.952L567.748,193.965L567.748,193.965L567.74,193.981L567.733,193.996L567.731,194.007L567.731,194.009L567.734,194.011L567.735,194.012L567.736,194.013L567.736,194.014L567.737,194.015L567.737,194.016L567.737,194.016L567.738,194.017L567.738,194.017L567.738,194.018L567.739,194.018L567.739,194.019L567.74,194.019L567.74,194.019L567.741,194.019L567.741,194.02L567.742,194.022L567.743,194.023L567.743,194.024L567.744,194.024L567.744,194.024L567.744,194.025L567.745,194.026L567.745,194.026L567.746,194.027L567.746,194.027L567.746,194.028L567.746,194.028L567.746,194.03L567.746,194.03L567.746,194.031L567.746,194.031L567.746,194.032L567.746,194.032L567.745,194.033L567.743,194.035L567.742,194.035L567.741,194.035L567.74,194.035L567.74,194.035L567.739,194.036L567.739,194.036L567.738,194.037L567.738,194.038L567.738,194.038L567.738,194.038L567.739,194.039L567.739,194.039L567.739,194.039L567.739,194.04L567.739,194.04L567.739,194.041L567.739,194.041L567.738,194.042L567.738,194.042L567.738,194.043L567.738,194.043L567.738,194.044L567.737,194.044L567.737,194.045L567.737,194.045L567.738,194.046L567.738,194.046L567.738,194.046L567.738,194.047L567.738,194.048L567.737,194.049L567.737,194.049L567.737,194.05L567.737,194.051L567.737,194.052L567.737,194.053L567.737,194.055L567.737,194.055L567.737,194.055L567.736,194.056L567.736,194.056L567.736,194.055L567.735,194.055L567.735,194.055L567.735,194.055L567.734,194.054L567.734,194.054L567.733,194.054L567.732,194.054L567.732,194.055L567.731,194.055L567.731,194.055L567.73,194.055L567.72,194.048L567.713,194.043L567.711,194.042L567.711,194.042L567.709,194.041L567.706,194.041L567.703,194.042L567.701,194.043L567.699,194.043L567.698,194.043L567.697,194.043L567.696,194.043L567.696,194.043L567.695,194.042L567.694,194.042L567.694,194.041L567.694,194.041L567.694,194.04L567.694,194.039L567.694,194.039L567.693,194.038L567.693,194.037L567.692,194.037L567.692,194.036L567.691,194.036L567.69,194.036L567.689,194.035L567.689,194.035L567.688,194.035L567.687,194.036L567.687,194.036L567.686,194.036L567.686,194.036L567.686,194.036L567.685,194.037L567.685,194.037L567.685,194.038L567.684,194.038L567.684,194.039L567.683,194.039L567.683,194.04L567.682,194.04L567.681,194.04L567.681,194.04L567.68,194.04L567.68,194.04L567.679,194.04L567.678,194.04L567.678,194.039L567.677,194.04L567.677,194.04L567.676,194.04L567.674,194.041L567.674,194.041L567.672,194.041L567.672,194.042L567.671,194.042L567.67,194.042L567.669,194.042L567.668,194.041L567.667,194.041L567.666,194.041L567.666,194.04L567.665,194.04L567.665,194.04L567.665,194.039L567.665,194.039L567.665,194.038L567.665,194.038L567.665,194.037L567.663,194.038L567.663,194.039L567.658,194.043L567.652,194.049L567.64,194.072L567.624,194.076L567.607,194.081L567.592,194.079L567.591,194.079L567.591,194.084L567.587,194.09L567.585,194.104L567.584,194.111L567.579,194.115L567.573,194.117L567.572,194.118L567.569,194.12L567.572,194.132L567.574,194.144L567.578,194.15L567.567,194.154L567.553,194.159L567.552,194.159L567.54,194.163L567.534,194.166L567.52,194.171L567.505,194.177L567.499,194.189L567.494,194.198L567.485,194.201L567.475,194.205L567.467,194.208L567.463,194.209L567.452,194.213L567.445,194.202L567.449,194.19L567.452,194.179L567.458,194.16L567.452,194.154L567.444,194.149L567.438,194.133L567.438,194.118L567.438,194.105L567.425,194.096L567.412,194.088L567.396,194.077L567.395,194.077L567.388,194.075L567.387,194.074L567.386,194.074L567.37,194.068L567.374,194.095L567.381,194.125L567.37,194.14L567.359,194.152L567.347,194.165L567.35,194.168L567.351,194.18L567.352,194.193L567.352,194.197L567.353,194.206L567.353,194.206L567.353,194.207L567.356,194.223L567.36,194.251L567.361,194.254L567.367,194.281L567.367,194.296L567.367,194.301L567.367,194.305L567.368,194.326L567.37,194.34L567.371,194.345L567.371,194.346L567.373,194.359L567.374,194.365L567.376,194.371L567.37,194.374L567.369,194.373L567.365,194.374L567.363,194.374L567.361,194.374L567.36,194.374L567.358,194.374L567.355,194.375L567.354,194.376L567.352,194.376L567.351,194.375L567.349,194.374L567.348,194.373L567.347,194.373L567.346,194.373L567.345,194.372L567.344,194.371L567.342,194.371L567.34,194.37L567.338,194.37L567.338,194.371L567.338,194.373L567.338,194.374L567.338,194.375L567.338,194.376L567.338,194.376L567.338,194.377L567.337,194.378L567.337,194.379L567.336,194.379L567.335,194.381L567.333,194.383L567.333,194.385L567.332,194.387L567.332,194.388L567.333,194.389L567.333,194.389L567.332,194.39L567.332,194.392L567.332,194.393L567.332,194.393L567.331,194.394L567.33,194.395L567.329,194.395L567.329,194.396L567.328,194.396L567.328,194.396L567.328,194.396L567.327,194.396L567.325,194.397L567.324,194.398L567.323,194.4L567.323,194.401L567.322,194.404L567.322,194.405L567.322,194.407L567.322,194.408L567.322,194.409L567.322,194.41L567.321,194.411L567.321,194.412L567.321,194.414L567.32,194.414L567.32,194.415L567.32,194.415L567.319,194.416L567.318,194.417L567.318,194.418L567.317,194.419L567.317,194.42L567.317,194.421L567.316,194.421L567.315,194.422L567.315,194.424L567.315,194.425L567.315,194.427L567.314,194.429L567.314,194.431L567.314,194.433L567.321,194.442L567.322,194.444L567.321,194.447L567.318,194.451L567.31,194.462L567.308,194.466L567.307,194.475L567.307,194.475L567.306,194.476L567.306,194.476L567.304,194.477L567.303,194.478L567.303,194.479L567.302,194.479L567.302,194.479L567.302,194.479L567.302,194.48L567.301,194.48L567.301,194.481L567.299,194.481L567.298,194.482L567.296,194.484L567.294,194.486L567.292,194.489L567.289,194.493L567.288,194.496L567.286,194.5L567.286,194.501L567.284,194.506L567.284,194.507L567.283,194.506L567.278,194.504L567.275,194.504L567.274,194.503L567.272,194.502L567.272,194.502L567.271,194.501L567.271,194.5L567.27,194.499L567.268,194.499L567.267,194.499L567.267,194.498L567.266,194.498L567.264,194.497L567.262,194.496L567.261,194.496L567.258,194.496L567.258,194.496L567.255,194.496L567.254,194.496L567.253,194.496L567.252,194.496L567.25,194.496L567.25,194.497L567.249,194.497L567.248,194.497L567.247,194.497L567.245,194.497L567.244,194.497L567.242,194.497L567.241,194.497L567.24,194.496L567.238,194.494L567.238,194.494L567.236,194.494L567.235,194.493L567.234,194.493L567.234,194.493L567.233,194.493L567.233,194.493L567.232,194.493L567.232,194.493L567.231,194.493L567.23,194.493L567.229,194.493L567.228,194.493L567.226,194.489L567.224,194.486L567.224,194.483L567.223,194.482L567.223,194.48L567.224,194.48L567.224,194.479L567.223,194.479L567.223,194.478L567.223,194.477L567.223,194.476L567.221,194.474L567.219,194.472L567.218,194.471L567.215,194.468L567.213,194.467L567.208,194.465L567.202,194.464L567.194,194.461L567.194,194.453L567.181,194.448L567.17,194.443L567.169,194.443L567.171,194.434L567.171,194.426L567.17,194.414L567.169,194.405L567.169,194.401L567.168,194.389L567.159,194.391L567.136,194.398L567.122,194.403L567.12,194.415L567.118,194.428L567.116,194.439L567.115,194.452L567.114,194.461L567.114,194.462L567.114,194.463L567.114,194.465L567.114,194.469L567.114,194.472L567.114,194.482L567.114,194.485L567.106,194.502L567.103,194.509L567.102,194.51L567.102,194.51L567.103,194.517L567.102,194.517L567.101,194.517L567.076,194.513L567.078,194.505L567.078,194.504L567.08,194.497L567.082,194.486L567.084,194.474L567.069,194.472L567.056,194.47L567.056,194.478L567.055,194.489L567.055,194.49L567.055,194.501L567.055,194.503L567.05,194.514L567.044,194.527L567.039,194.54L567.036,194.55L567.032,194.562L567.031,194.562L567.031,194.562L567.031,194.563L567.03,194.565L567.03,194.565L567.029,194.569L567.023,194.586L567.022,194.588L567.02,194.588L567.013,194.589L567.004,194.589L566.998,194.59L566.98,194.59L566.966,194.591L566.953,194.592L566.952,194.592L566.951,194.582L566.93,194.582L566.92,194.63L566.916,194.631L566.898,194.626L566.873,194.632L566.864,194.664L566.859,194.681L566.855,194.688L566.852,194.685L566.846,194.683L566.843,194.684L566.841,194.683L566.842,194.682L566.842,194.681L566.841,194.681L566.84,194.68L566.838,194.681L566.836,194.682L566.832,194.681L566.828,194.685L566.836,194.773L566.838,194.789L566.839,194.835L566.812,194.858L566.817,194.867L566.847,194.865L566.848,194.884L566.857,194.885L566.86,194.907L566.861,194.913L566.868,194.936L566.877,194.969L566.883,194.983L566.862,194.973L566.864,195L566.865,195.007L566.88,195.027L566.884,195.029L566.868,195.05L566.886,195.055L566.887,195.071L566.9,195.069L566.9,195.09L566.9,195.091L566.9,195.1L566.901,195.114L566.894,195.127L566.892,195.137L566.891,195.157L566.892,195.163L566.893,195.164L566.894,195.171L566.895,195.178L566.896,195.182L566.898,195.19L566.898,195.191L566.901,195.205L566.901,195.206L566.903,195.212L566.904,195.221L566.904,195.227L566.906,195.23L566.908,195.234L566.914,195.247L566.912,195.25L566.911,195.252L566.911,195.253L566.91,195.257L566.911,195.26L566.914,195.265L566.924,195.282L566.92,195.286L566.92,195.287L566.918,195.289L566.919,195.29L566.929,195.303L566.927,195.312L566.926,195.318L566.926,195.322L566.926,195.323L566.925,195.324L566.922,195.328L566.917,195.334L566.914,195.339L566.914,195.339L566.913,195.34L566.911,195.343L566.909,195.346L566.905,195.351L566.903,195.354L566.902,195.355L566.892,195.37L566.89,195.372L566.889,195.372L566.881,195.381L566.874,195.39L566.865,195.394L566.864,195.395L566.853,195.4L566.852,195.4L566.84,195.406L566.828,195.411L566.827,195.412L566.817,195.422L566.816,195.424L566.812,195.426L566.799,195.428L566.796,195.431L566.791,195.439L566.803,195.444L566.817,195.451L566.818,195.452L566.82,195.453L566.825,195.456L566.829,195.459L566.847,195.47L566.855,195.475L566.86,195.478L566.86,195.479L566.866,195.492L566.869,195.496L566.872,195.501L566.874,195.504L566.875,195.505L566.871,195.514L566.869,195.518L566.867,195.52L566.859,195.527L566.859,195.532L566.856,195.539L566.854,195.545L566.855,195.552L566.857,195.559L566.858,195.562L566.871,195.566L566.875,195.57L566.875,195.575L566.875,195.583L566.874,195.591L566.873,195.596L566.869,195.616L566.866,195.616L566.86,195.616L566.857,195.615L566.853,195.615L566.85,195.615L566.846,195.613L566.84,195.61L566.839,195.61L566.833,195.607L566.829,195.605L566.827,195.605L566.819,195.602L566.807,195.599L566.806,195.598L566.799,195.596L566.784,195.609L566.79,195.62L566.793,195.626L566.789,195.637L566.786,195.647L566.785,195.648L566.785,195.655L566.785,195.659L566.779,195.664L566.771,195.67L566.767,195.674L566.765,195.675L566.753,195.685L566.752,195.685L566.74,195.689L566.736,195.69L566.729,195.692L566.729,195.7L566.727,195.719L566.727,195.727L566.729,195.744L566.732,195.745L566.741,195.749L566.754,195.753L566.768,195.758L566.781,195.763L566.783,195.763L566.794,195.769L566.801,195.772L566.82,195.781L566.826,195.784L566.827,195.789L566.823,195.795L566.824,195.8L566.823,195.803L566.816,195.806L566.816,195.811L566.815,195.811L566.816,195.819L566.824,195.819L566.823,195.823L566.828,195.825L566.826,195.829L566.827,195.831L566.825,195.833L566.82,195.842L566.821,195.851L566.823,195.861L566.823,195.886L566.825,195.918L566.824,195.963L566.831,195.966L566.832,195.972L566.83,195.998L566.83,196.003L566.819,196.004L566.819,196.015L566.818,196.042L566.817,196.05L566.812,196.049L566.804,196.043L566.774,196.045L566.79,196.096L566.804,196.096L566.805,196.129L566.763,196.134L566.763,196.129L566.761,196.127L566.752,196.084L566.721,196.07L566.706,196.08L566.715,196.092L566.724,196.102L566.75,196.138L566.707,196.175L566.7,196.179L566.694,196.174L566.69,196.172L566.676,196.164L566.671,196.168L566.664,196.168L566.657,196.166L566.653,196.167L566.651,196.175L566.646,196.169L566.643,196.164L566.639,196.147L566.634,196.134L566.603,196.148L566.617,196.178L566.62,196.19L566.622,196.195L566.616,196.198L566.612,196.199L566.61,196.201L566.601,196.204L566.595,196.201L566.573,196.189L566.567,196.198L566.571,196.211L566.549,196.223L566.541,196.231L566.531,196.249L566.526,196.255L566.536,196.256L566.565,196.256L566.556,196.274L566.552,196.281L566.568,196.29L566.569,196.289L566.579,196.297L566.604,196.308L566.612,196.331L566.646,196.342L566.652,196.365L566.653,196.37L566.64,196.374L566.638,196.384L566.638,196.393L566.637,196.4L566.611,196.373L566.6,196.365L566.597,196.368L566.593,196.371L566.591,196.373L566.589,196.375L566.587,196.376L566.586,196.378L566.586,196.379L566.586,196.38L566.584,196.381L566.584,196.382L566.583,196.384L566.578,196.39L566.577,196.391L566.576,196.394L566.576,196.396L566.576,196.397L566.577,196.397L566.578,196.398L566.579,196.399L566.58,196.401L566.58,196.402L566.581,196.403L566.583,196.404L566.584,196.405L566.585,196.405L566.585,196.406L566.585,196.408L566.586,196.409L566.586,196.41L566.586,196.411L566.587,196.411L566.587,196.412L566.588,196.413L566.589,196.414L566.593,196.416L566.583,196.462L566.608,196.473L566.605,196.48L566.619,196.487L566.623,196.525L566.624,196.525L566.624,196.533L566.626,196.545L566.628,196.563L566.648,196.564L566.66,196.566L566.739,196.581L566.741,196.582L566.741,196.582L566.742,196.583L566.742,196.584L566.739,196.584L566.738,196.585L566.734,196.593L566.723,196.617L566.718,196.623L566.712,196.632L566.7,196.647L566.699,196.65L566.744,196.702L566.744,196.701L566.746,196.7L566.747,196.699L566.747,196.699L566.748,196.699L566.748,196.7L566.749,196.7L566.75,196.7L566.751,196.699L566.751,196.698L566.752,196.697L566.753,196.696L566.754,196.694L566.755,196.693L566.756,196.692L566.757,196.691L566.756,196.69L566.755,196.689L566.755,196.687L566.755,196.685L566.755,196.683L566.755,196.682L566.757,196.681L566.758,196.679L566.759,196.678L566.761,196.678L566.762,196.678L566.762,196.676L566.762,196.673L566.763,196.672L566.764,196.672L566.766,196.671L566.766,196.671L566.766,196.671L566.766,196.668L566.766,196.668L566.766,196.667L566.767,196.667L566.768,196.667L566.769,196.666L566.769,196.665L566.769,196.665L566.768,196.664L566.768,196.664L566.769,196.663L566.77,196.662L566.771,196.661L566.771,196.66L566.771,196.659L566.771,196.658L566.772,196.657L566.772,196.657L566.776,196.659L566.779,196.66L566.8,196.67L566.807,196.676L566.807,196.677L566.808,196.678L566.82,196.691L566.825,196.694L566.834,196.7L566.841,196.705L566.846,196.709L566.854,196.715L566.858,196.718L566.858,196.718L566.859,196.717L566.86,196.715L566.86,196.712L566.862,196.708L566.871,196.695L566.874,196.687L566.874,196.687L566.909,196.732L566.91,196.733L566.897,196.743L566.9,196.751L566.902,196.754L566.908,196.76L566.915,196.758L566.926,196.761L566.925,196.77L566.925,196.777L566.925,196.78L566.955,196.822L566.983,196.823L567.044,196.825L567.035,196.863L567.024,196.918L567.085,196.924L567.082,196.935L567.082,196.936L567.09,196.94L567.12,196.956L567.16,196.952L567.159,196.942L567.21,196.941L567.21,196.951L567.211,196.962L567.217,196.986L567.161,196.988L567.159,197.001L567.158,197.013L567.157,197.021L567.157,197.032L567.137,197.058L567.147,197.094L567.151,197.106L567.151,197.107L567.151,197.108L567.155,197.123L567.156,197.123L567.182,197.139L567.259,197.145L567.258,197.194L567.276,197.195L567.286,197.202L567.291,197.207L567.293,197.208L567.293,197.208L567.297,197.206L567.302,197.204L567.303,197.204L567.304,197.203L567.306,197.202L567.309,197.2L567.311,197.198L567.318,197.192L567.32,197.195L567.321,197.197L567.325,197.195L567.332,197.191L567.333,197.191L567.341,197.194L567.35,197.197L567.358,197.198L567.365,197.199L567.372,197.201L567.379,197.203L567.385,197.203L567.385,197.203L567.385,197.203L567.411,197.203L567.453,197.211L567.454,197.211L567.455,197.211L567.457,197.211L567.459,197.212L567.459,197.212L567.47,197.214L567.473,197.215L567.474,197.215L567.478,197.216L567.519,197.224L567.521,197.224L567.513,197.235L567.51,197.238L567.506,197.249L567.506,197.252L567.506,197.255L567.502,197.285L567.509,197.296L567.531,197.283L567.548,197.274L567.552,197.272L567.558,197.272L567.566,197.272L567.572,197.273L567.575,197.273L567.584,197.277L567.606,197.286L567.606,197.287L567.602,197.293L567.602,197.298L567.604,197.301L567.611,197.306L567.612,197.306L567.613,197.306L567.62,197.332L567.62,197.378L567.62,197.381L567.62,197.381L567.62,197.435L567.63,197.454L567.651,197.49L567.663,197.485L567.666,197.481L567.67,197.477L567.674,197.456L567.685,197.426L567.693,197.421L567.704,197.418L567.721,197.417L567.734,197.416L567.745,197.415L567.754,197.415L567.758,197.417L567.762,197.416L567.767,197.413L567.772,197.414L567.784,197.417L567.794,197.434L567.796,197.437L567.814,197.451L567.829,197.462L567.832,197.464L567.841,197.471L567.872,197.495L567.884,197.504L567.89,197.509L567.899,197.557L567.902,197.578L567.898,197.578L567.897,197.577L567.893,197.578L567.889,197.581L567.915,197.613L567.921,197.618L567.941,197.642L567.921,197.654L567.907,197.664L567.862,197.601L567.863,197.599L567.858,197.596L567.854,197.592L567.853,197.588L567.85,197.584L567.851,197.578L567.851,197.575L567.853,197.568L567.834,197.566L567.83,197.566L567.827,197.566L567.815,197.612L567.808,197.638L567.809,197.644L567.811,197.645L567.815,197.644L567.819,197.645L567.822,197.646L567.825,197.645L567.834,197.671L567.836,197.677L567.826,197.684L567.824,197.68L567.822,197.677L567.818,197.674L567.813,197.671L567.803,197.67L567.799,197.669L567.797,197.668L567.796,197.667L567.792,197.67L567.789,197.67L567.785,197.671L567.782,197.672L567.775,197.672L567.77,197.673L567.763,197.679L567.736,197.703L567.735,197.706L567.736,197.708L567.736,197.71L567.734,197.712L567.73,197.714L567.728,197.715L567.728,197.717L567.731,197.721L567.733,197.73L567.732,197.732L567.734,197.736L567.738,197.738L567.741,197.738L567.743,197.736L567.749,197.737L567.756,197.741L567.759,197.743L567.759,197.746L567.756,197.751L567.755,197.753L567.754,197.753L567.75,197.756L567.746,197.755L567.742,197.755L567.738,197.759L567.74,197.764L567.745,197.767L567.748,197.767L567.749,197.769L567.749,197.771L567.747,197.773L567.742,197.779L567.739,197.779L567.738,197.782L567.735,197.788L567.751,197.795L567.746,197.804L567.751,197.812L567.745,197.821L567.726,197.796L567.717,197.796L567.713,197.794L567.71,197.797L567.71,197.803L567.709,197.808L567.708,197.818L567.707,197.826L567.705,197.834L567.704,197.843L567.7,197.843L567.697,197.843L567.692,197.845L567.688,197.846L567.686,197.846L567.683,197.846L567.683,197.848L567.684,197.85L567.687,197.852L567.692,197.855L567.695,197.858L567.696,197.862L567.693,197.867L567.69,197.869L567.684,197.87L567.682,197.872L567.681,197.877L567.682,197.884L567.684,197.889L567.683,197.891L567.68,197.891L567.678,197.89L567.673,197.887L567.669,197.883L567.666,197.882L567.661,197.882L567.658,197.88L567.655,197.88L567.653,197.881L567.651,197.884L567.651,197.886L567.655,197.889L567.655,197.893L567.656,197.896L567.658,197.896L567.665,197.893L567.666,197.893L567.67,197.893L567.673,197.895L567.674,197.897L567.675,197.9L567.677,197.901L567.679,197.902L567.681,197.904L567.681,197.905L567.684,197.906L567.685,197.907L567.687,197.909L567.687,197.913L567.686,197.915L567.684,197.916L567.682,197.916L567.681,197.916L567.677,197.924L567.675,197.926L567.672,197.927L567.67,197.926L567.669,197.922L567.663,197.923L567.658,197.926L567.659,197.933L567.658,197.935L567.651,197.94L567.661,197.943L567.673,197.945L567.68,197.947L567.685,197.948L567.69,197.949L567.696,197.944L567.702,197.94L567.707,197.944L567.712,197.947L567.705,197.96L567.702,197.965L567.704,197.968L567.708,197.971L567.698,198.009L567.689,198.03L567.688,198.034L567.689,198.039L567.689,198.041L567.69,198.048L567.726,198.042L567.732,198.043L567.74,198.045L567.739,198.064L567.736,198.091L567.734,198.092L567.733,198.093L567.731,198.094L567.729,198.094L567.727,198.093L567.725,198.092L567.725,198.09L567.722,198.089L567.722,198.089L567.721,198.09L567.719,198.092L567.718,198.095L567.719,198.098L567.718,198.101L567.717,198.103L567.715,198.104L567.713,198.105L567.711,198.105L567.708,198.105L567.706,198.104L567.706,198.102L567.704,198.099L567.701,198.098L567.699,198.097L567.698,198.098L567.695,198.099L567.693,198.1L567.693,198.099L567.692,198.099L567.692,198.1L567.69,198.1L567.689,198.1L567.688,198.1L567.687,198.1L567.686,198.101L567.685,198.1L567.683,198.099L567.683,198.098L567.681,198.098L567.679,198.098L567.679,198.098L567.678,198.099L567.678,198.099L567.678,198.1L567.678,198.101L567.677,198.102L567.677,198.103L567.678,198.104L567.677,198.105L567.675,198.106L567.674,198.106L567.674,198.107L567.675,198.108L567.675,198.11L567.675,198.111L567.674,198.112L567.673,198.113L567.671,198.114L567.671,198.113L567.67,198.113L567.669,198.113L567.668,198.114L567.667,198.114L567.666,198.114L567.666,198.114L567.665,198.115L567.657,198.123L567.655,198.124L567.654,198.126L567.644,198.13L567.629,198.137L567.616,198.143L567.594,198.152L567.581,198.17L567.571,198.167L567.561,198.165L567.562,198.168L567.56,198.171L567.564,198.176L567.563,198.179L567.565,198.181L567.564,198.185L567.569,198.185L567.572,198.189L567.573,198.194L567.574,198.196L567.575,198.197L567.574,198.199L567.575,198.2L567.574,198.208L567.576,198.21L567.576,198.213L567.574,198.22L567.569,198.221L567.567,198.227L567.566,198.231L567.563,198.234L567.56,198.239L567.559,198.247L567.557,198.249L567.556,198.25L567.557,198.253L567.557,198.254L567.556,198.255L567.556,198.26L567.558,198.262L567.558,198.264L567.56,198.265L567.561,198.263L567.563,198.266L567.561,198.268L567.558,198.269L567.553,198.278L567.555,198.281L567.56,198.281L567.562,198.284L567.568,198.285L567.569,198.293L567.561,198.295L567.565,198.312L567.563,198.325L567.557,198.336L567.559,198.335L567.56,198.334L567.562,198.333L567.564,198.333L567.566,198.332L567.572,198.332L567.574,198.331L567.578,198.33L567.581,198.328L567.582,198.326L567.583,198.325L567.582,198.324L567.581,198.322L567.582,198.321L567.582,198.321L567.61,198.329L567.628,198.335L567.646,198.339L567.679,198.356L567.69,198.338L567.733,198.342L567.764,198.345L567.766,198.347L567.773,198.344L567.778,198.347L567.784,198.35L567.79,198.354L567.79,198.354L567.791,198.353L567.792,198.353L567.793,198.353L567.794,198.353L567.794,198.353L567.795,198.353L567.795,198.354L567.795,198.354L567.795,198.354L567.795,198.354L567.796,198.354L567.796,198.354L567.797,198.354L567.798,198.353L567.799,198.354L567.799,198.354L567.799,198.354L567.8,198.355L567.8,198.355L567.802,198.355L567.802,198.355L567.803,198.355L567.803,198.355L567.803,198.355L567.804,198.355L567.804,198.356L567.804,198.356L567.805,198.356L567.805,198.356L567.806,198.356L567.806,198.356L567.806,198.356L567.806,198.356L567.807,198.356L567.808,198.355L567.808,198.356L567.808,198.356L567.808,198.356L567.808,198.357L567.809,198.357L567.81,198.357L567.811,198.358L567.811,198.358L567.812,198.358L567.813,198.359L567.814,198.359L567.815,198.359L567.816,198.359L567.816,198.359L567.817,198.359L567.817,198.359L567.817,198.358L567.817,198.358L567.817,198.357L567.817,198.357L567.817,198.356L567.817,198.355L567.817,198.354L567.818,198.354L567.819,198.353L567.819,198.353L567.82,198.353L567.82,198.354L567.82,198.354L567.82,198.355L567.82,198.355L567.823,198.356L567.826,198.357L567.829,198.359L567.836,198.364L567.838,198.365L567.843,198.369L567.845,198.369L567.849,198.369L567.85,198.369L567.851,198.369L567.853,198.365L567.854,198.362L567.855,198.359L567.859,198.356L567.861,198.354L567.864,198.355L567.922,198.359L567.948,198.393L567.975,198.427L567.985,198.431L567.989,198.436L568.007,198.474L568.02,198.477L568.024,198.434L568.04,198.436L568.041,198.413L568.056,198.413L568.076,198.4L568.083,198.408L568.1,198.433L568.103,198.434L568.104,198.432L568.103,198.43L568.103,198.428L568.105,198.428L568.107,198.427L568.106,198.425L568.106,198.424L568.108,198.426L568.112,198.426L568.115,198.425L568.119,198.425L568.122,198.424L568.128,198.426L568.132,198.43L568.135,198.434L568.138,198.437L568.142,198.438L568.144,198.441L568.15,198.444L568.155,198.45L568.16,198.452L568.162,198.455L568.16,198.459L568.209,198.492L568.211,198.49L568.213,198.49L568.215,198.49L568.217,198.489L568.219,198.489L568.221,198.488L568.225,198.487L568.229,198.486L568.232,198.486L568.235,198.486L568.239,198.486L568.241,198.485L568.242,198.483L568.242,198.485L568.243,198.487L568.244,198.489L568.243,198.494L568.242,198.498L568.24,198.501L568.24,198.506L568.24,198.511L568.24,198.514L568.247,198.527L568.247,198.544L568.247,198.554L568.242,198.562L568.247,198.566L568.243,198.573L568.21,198.623L568.196,198.653L568.204,198.665L568.21,198.673L568.211,198.676L568.212,198.679L568.214,198.68L568.215,198.682L568.163,198.808L568.15,198.868L568.14,198.888L568.137,198.894L568.17,198.895L568.174,198.893L568.212,198.891L568.212,198.867L568.221,198.867L568.229,198.867L568.23,198.867L568.231,198.869L568.232,198.871L568.232,198.872L568.233,198.873L568.233,198.874L568.232,198.876L568.232,198.877L568.232,198.878L568.232,198.878L568.233,198.88L568.233,198.881L568.234,198.882L568.235,198.882L568.236,198.881L568.24,198.88L568.247,198.879L568.254,198.878L568.267,198.876L568.273,198.875L568.279,198.874L568.282,198.874L568.282,198.874L568.283,198.878L568.287,198.877L568.288,198.876L568.291,198.877L568.291,198.878L568.292,198.883L568.293,198.886L568.293,198.888L568.295,198.891L568.297,198.893L568.302,198.893L568.303,198.893L568.305,198.893L568.308,198.894L568.309,198.895L568.309,198.896L568.31,198.897L568.311,198.898L568.311,198.9L568.311,198.901L568.311,198.901L568.31,198.903L568.308,198.905L568.308,198.907L568.308,198.908L568.309,198.91L568.311,198.911L568.314,198.911L568.315,198.911L568.316,198.91L568.318,198.908L568.32,198.908L568.322,198.905L568.324,198.904L568.324,198.902L568.326,198.902L568.327,198.902L568.329,198.903L568.331,198.904L568.331,198.905L568.332,198.907L568.331,198.909L568.331,198.91L568.33,198.912L568.33,198.913L568.327,198.916L568.323,198.918L568.321,198.919L568.318,198.921L568.318,198.921L568.316,198.924L568.316,198.925L568.318,198.929L568.319,198.931L568.321,198.931L568.322,198.932L568.324,198.931L568.325,198.931L568.326,198.93L568.327,198.929L568.328,198.929L568.329,198.928L568.33,198.927L568.33,198.927L568.331,198.927L568.332,198.927L568.334,198.927L568.336,198.926L568.338,198.926L568.34,198.926L568.342,198.926L568.346,198.926L568.346,198.927L568.347,198.927L568.347,198.927L568.349,198.928L568.349,198.928L568.35,198.929L568.35,198.93L568.35,198.93L568.349,198.931L568.349,198.93L568.348,198.93L568.348,198.931L568.348,198.931L568.349,198.932L568.35,198.932L568.35,198.933L568.35,198.933L568.35,198.934L568.35,198.935L568.35,198.935L568.348,198.937L568.347,198.937L568.347,198.938L568.346,198.937L568.345,198.938L568.345,198.939L568.346,198.941L568.346,198.942L568.345,198.943L568.344,198.944L568.344,198.944L568.342,198.944L568.341,198.944L568.34,198.944L568.34,198.944L568.34,198.946L568.339,198.946L568.339,198.946L568.338,198.945L568.337,198.944L568.337,198.945L568.336,198.945L568.335,198.944L568.334,198.944L568.333,198.945L568.333,198.946L568.334,198.946L568.334,198.946L568.334,198.947L568.335,198.947L568.335,198.948L568.335,198.948L568.335,198.948L568.336,198.948L568.336,198.948L568.336,198.948L568.336,198.948L568.337,198.949L568.337,198.949L568.337,198.95L568.337,198.952L568.336,198.952L568.336,198.952L568.335,198.952L568.335,198.953L568.335,198.953L568.336,198.954L568.337,198.955L568.338,198.955L568.34,198.955L568.342,198.955L568.344,198.954L568.345,198.955L568.345,198.955L568.345,198.956L568.346,198.956L568.347,198.955L568.347,198.955L568.348,198.954L568.348,198.953L568.348,198.952L568.349,198.953L568.35,198.952L568.351,198.953L568.352,198.953L568.353,198.953L568.353,198.953L568.354,198.953L568.355,198.953L568.355,198.952L568.356,198.952L568.358,198.953L568.358,198.954L568.359,198.954L568.361,198.954L568.362,198.953L568.366,198.951L568.372,198.949L568.375,198.948L568.378,198.946L568.384,198.944L568.388,198.942L568.39,198.941L568.391,198.941L568.39,198.94L568.389,198.938L568.388,198.937L568.386,198.935L568.382,198.931L568.38,198.93L568.379,198.929L568.378,198.929L568.379,198.927L568.379,198.926L568.38,198.925L568.382,198.924L568.382,198.923L568.382,198.922L568.383,198.921L568.384,198.921L568.386,198.921L568.387,198.921L568.389,198.919L568.391,198.919L568.392,198.919L568.394,198.918L568.398,198.918L568.4,198.918L568.401,198.917L568.403,198.917L568.405,198.917L568.406,198.917L568.407,198.916L568.408,198.915L568.409,198.913L568.409,198.913L568.41,198.911L568.409,198.911L568.409,198.911L568.41,198.911L568.411,198.911L568.412,198.91L568.413,198.909L568.414,198.908L568.414,198.908L568.415,198.908L568.415,198.907L568.416,198.906L568.418,198.905L568.419,198.905L568.419,198.904L568.422,198.903L568.423,198.902L568.424,198.902L568.425,198.902L568.426,198.901L568.427,198.901L568.427,198.902L568.428,198.903L568.429,198.904L568.431,198.907L568.432,198.908L568.432,198.908L568.433,198.911L568.433,198.914L568.438,198.944L568.444,198.944L568.519,198.946L568.532,198.947L568.527,198.917L568.572,198.912L568.6,198.909L568.635,198.907L568.718,198.899L568.722,198.899L568.725,198.898L568.726,198.898L568.728,198.898L568.732,198.897L568.735,198.897L568.739,198.897L568.74,198.897L568.742,198.897L568.744,198.897L568.746,198.897L568.75,198.897L568.752,198.897L568.754,198.897L568.755,198.897L568.757,198.897L568.758,198.897L568.758,198.897L568.769,198.896L568.773,198.896L568.827,198.895L568.824,198.877L568.819,198.868L568.814,198.855L568.812,198.85L568.807,198.845L568.804,198.826L568.801,198.751L568.805,198.75L568.809,198.75L568.812,198.752L568.814,198.754L568.817,198.756L568.821,198.758L568.826,198.758L568.83,198.759L568.834,198.758L568.838,198.759L568.845,198.725L568.85,198.728L568.853,198.73L568.856,198.731L568.862,198.728L568.865,198.729L568.867,198.727L568.869,198.726L568.87,198.725L568.871,198.721L568.872,198.721L568.874,198.721L568.875,198.72L568.877,198.72L568.88,198.721L568.882,198.722L568.885,198.722L568.887,198.724L568.888,198.724L568.891,198.727L568.891,198.728L568.892,198.728L568.893,198.729L568.893,198.73L568.894,198.732L568.896,198.733L568.898,198.733L568.9,198.73L568.903,198.73L568.905,198.73L568.906,198.73L568.9,198.76L568.965,198.769L568.963,198.775L568.994,198.786L569.005,198.79L569.048,198.804L569.052,198.805L569.056,198.803L569.065,198.802L569.067,198.803L569.067,198.809L569.066,198.81L569.067,198.81L569.067,198.811L569.068,198.812L569.068,198.81L569.069,198.802L569.069,198.802L569.072,198.803L569.086,198.806L569.089,198.807L569.094,198.81L569.095,198.809L569.096,198.808L569.097,198.808L569.097,198.807L569.098,198.806L569.101,198.804L569.102,198.804L569.102,198.804L569.103,198.803L569.103,198.803L569.104,198.803L569.105,198.803L569.105,198.802L569.106,198.801L569.106,198.801L569.106,198.8L569.105,198.799L569.105,198.798L569.104,198.797L569.104,198.797L569.104,198.796L569.104,198.796L569.104,198.794L569.123,198.806L569.136,198.811L569.136,198.809L569.136,198.809L569.135,198.808L569.134,198.808L569.134,198.808L569.133,198.808L569.133,198.807L569.132,198.807L569.132,198.807L569.13,198.808L569.13,198.808L569.129,198.807L569.129,198.807L569.129,198.807L569.128,198.806L569.128,198.806L569.127,198.805L569.127,198.805L569.127,198.805L569.128,198.805L569.128,198.804L569.129,198.804L569.129,198.803L569.129,198.803L569.13,198.802L569.13,198.801L569.129,198.8L569.129,198.799L569.128,198.798L569.128,198.797L569.127,198.797L569.126,198.796L569.126,198.796L569.125,198.796L569.125,198.796L569.122,198.796L569.122,198.795L569.122,198.795L569.121,198.795L569.121,198.795L569.121,198.794L569.121,198.793L569.121,198.793L569.121,198.793L569.122,198.793L569.122,198.792L569.122,198.792L569.123,198.791L569.123,198.789L569.124,198.789L569.124,198.788L569.124,198.788L569.123,198.787L569.123,198.787L569.123,198.786L569.123,198.786L569.122,198.786L569.122,198.786L569.122,198.786L569.121,198.786L569.121,198.786L569.121,198.787L569.121,198.788L569.12,198.788L569.12,198.788L569.12,198.789L569.119,198.788L569.118,198.788L569.117,198.787L569.114,198.787L569.114,198.787L569.114,198.786L569.113,198.784L569.113,198.784L569.113,198.783L569.113,198.783L569.112,198.783L569.112,198.782L569.112,198.782L569.112,198.781L569.112,198.78L569.112,198.775L569.113,198.771L569.114,198.769L569.116,198.767L569.116,198.767L569.118,198.765L569.118,198.764L569.12,198.761L569.12,198.76L569.121,198.76L569.122,198.76L569.122,198.759L569.123,198.758L569.123,198.757L569.123,198.757L569.123,198.755L569.123,198.755L569.122,198.754L569.122,198.753L569.122,198.752L569.121,198.751L569.121,198.75L569.12,198.75L569.119,198.749L569.119,198.749L569.118,198.749L569.117,198.749L569.116,198.749L569.116,198.749L569.115,198.749L569.115,198.749L569.114,198.749L569.113,198.749L569.112,198.748L569.11,198.747L569.109,198.745L569.108,198.744L569.109,198.743L569.111,198.742L569.112,198.741L569.113,198.74L569.113,198.738L569.113,198.738L569.113,198.737L569.113,198.736L569.113,198.735L569.113,198.734L569.112,198.734L569.111,198.734L569.11,198.734L569.107,198.735L569.105,198.734L569.105,198.734L569.105,198.733L569.104,198.732L569.104,198.732L569.104,198.732L569.103,198.732L569.103,198.732L569.103,198.732L569.103,198.731L569.103,198.731L569.103,198.731L569.103,198.729L569.103,198.725L569.103,198.723L569.103,198.721L569.103,198.719L569.104,198.717L569.104,198.716L569.104,198.715L569.12,198.716L569.122,198.717L569.134,198.718L569.137,198.717L569.14,198.727L569.142,198.733L569.146,198.736L569.15,198.735L569.178,198.73L569.178,198.731L569.178,198.731L569.181,198.744L569.183,198.752L569.185,198.759L569.186,198.773L569.187,198.777L569.187,198.779L569.188,198.783L569.188,198.792L569.192,198.793L569.213,198.805L569.244,198.804L569.244,198.809L569.251,198.809L569.257,198.81L569.265,198.811L569.268,198.811L569.291,198.812L569.31,198.813L569.32,198.817L569.323,198.818L569.327,198.82L569.329,198.82L569.333,198.822L569.333,198.823L569.333,198.823L569.333,198.828L569.332,198.831L569.331,198.838L569.336,198.838L569.341,198.839L569.347,198.843L569.352,198.843L569.354,198.847L569.365,198.855L569.376,198.888L569.381,198.9L569.387,198.9L569.393,198.91L569.405,198.908L569.428,198.904L569.433,198.905L569.441,198.906L569.441,198.899L569.442,198.897L569.435,198.89L569.453,198.891L569.466,198.889L569.471,198.911L569.494,198.905L569.508,198.898L569.511,198.899L569.514,198.901L569.517,198.903L569.521,198.902L569.525,198.904L569.529,198.903L569.532,198.902L569.535,198.901L569.538,198.902L569.538,198.902L569.541,198.929L569.553,198.975L569.555,198.983L569.592,198.97L569.589,198.964L569.639,198.95L569.641,198.949L569.642,198.95L569.643,198.951L569.643,198.953L569.643,198.954L569.644,198.955L569.647,198.955L569.649,198.955L569.651,198.956L569.652,198.958L569.651,198.96L569.65,198.962L569.649,198.964L569.65,198.965L569.651,198.966L569.653,198.968L569.652,198.97L569.652,198.971L569.651,198.973L569.652,198.975L569.653,198.976L569.686,198.972L569.688,198.966L569.739,198.975L569.743,198.967L569.745,198.963L569.747,198.959L569.751,198.96L569.756,198.961L569.758,198.963L569.76,198.965L569.76,198.969L569.762,198.974L569.762,198.977L569.761,198.981L569.762,198.984L569.759,198.984L569.759,198.985L569.758,198.987L569.756,198.988L569.755,198.991L569.754,198.995L569.755,198.999L569.756,199.002L569.756,199.005L569.756,199.008L569.757,199.011L569.759,199.016L569.737,199.014L569.731,199.068L569.735,199.068L569.739,199.066L569.748,199.064L569.752,199.063L569.756,199.061L569.76,199.06L569.764,199.059L569.773,199.061L569.784,199.062L569.795,199.061L569.806,199.062L569.811,199.06L569.816,199.057L569.82,199.053L569.821,199.053L569.823,199.051L569.828,199.052L569.833,199.055L569.842,199.06L569.85,199.065L569.854,199.07L569.859,199.074L569.861,199.079L569.864,199.084L569.887,199.097L569.889,199.095L569.89,199.093L569.89,199.092L569.891,199.091L569.894,199.087L569.895,199.085L569.897,199.087L569.902,199.09L569.902,199.09L569.902,199.09L569.909,199.095L569.91,199.096L569.92,199.104L569.925,199.107L569.927,199.108L569.929,199.109L569.934,199.116L569.947,199.115L569.956,199.115L569.971,199.114L569.972,199.114L569.978,199.113L569.98,199.113L569.982,199.113L569.983,199.114L569.984,199.115L569.985,199.115L569.986,199.116L569.987,199.116L569.988,199.116L569.988,199.117L569.99,199.118L569.991,199.119L569.993,199.119L569.996,199.121L569.996,199.121L569.997,199.122L569.998,199.122L570,199.122L570.001,199.122L570.002,199.122L570.003,199.122L570.005,199.121L570.007,199.121L570.008,199.12L570.01,199.12L570.012,199.12L570.013,199.12L570.016,199.12L570.018,199.121L570.019,199.12L570.02,199.116L570.024,199.105L570.025,199.102L570.026,199.097L570.029,199.088L570.031,199.083L570.035,199.084L570.044,199.088L570.053,199.091L570.063,199.094L570.063,199.094L570.079,199.099L570.1,199.107L570.104,199.108L570.117,199.113L570.151,199.186L570.151,199.188L570.153,199.188L570.154,199.188L570.156,199.188L570.157,199.19L570.157,199.191L570.158,199.191L570.16,199.19L570.161,199.19L570.162,199.191L570.163,199.191L570.164,199.191L570.165,199.193L570.166,199.192L570.167,199.192L570.168,199.191L570.169,199.192L570.17,199.191L570.171,199.192L570.173,199.192L570.174,199.191L570.176,199.19L570.176,199.19L570.177,199.189L570.178,199.188L570.179,199.188L570.18,199.187L570.181,199.188L570.181,199.187L570.182,199.186L570.182,199.185L570.183,199.184L570.184,199.184L570.186,199.185L570.187,199.185L570.187,199.186L570.187,199.186L570.188,199.187L570.19,199.186L570.193,199.186L570.194,199.186L570.194,199.186L570.195,199.186L570.197,199.185L570.198,199.185L570.2,199.185L570.202,199.185L570.203,199.185L570.206,199.186L570.208,199.186L570.216,199.185L570.218,199.184L570.219,199.184L570.22,199.183L570.222,199.182L570.223,199.183L570.225,199.182L570.226,199.181L570.228,199.182L570.229,199.182L570.23,199.183L570.231,199.185L570.232,199.185L570.232,199.184L570.23,199.18L570.229,199.179L570.228,199.178L570.228,199.177L570.227,199.173L570.228,199.172L570.227,199.17L570.228,199.167L570.228,199.165L570.229,199.162L570.228,199.161L570.227,199.16L570.226,199.161L570.225,199.159L570.227,199.158L570.228,199.156L570.228,199.156L570.227,199.155L570.224,199.154L570.224,199.153L570.223,199.151L570.221,199.149L570.218,199.15L570.217,199.148L570.217,199.147L570.22,199.145L570.221,199.142L570.222,199.14L570.221,199.139L570.22,199.137L570.219,199.133L570.219,199.133L570.217,199.133L570.216,199.133L570.215,199.132L570.216,199.131L570.217,199.13L570.217,199.126L570.217,199.124L570.218,199.123L570.217,199.121L570.216,199.118L570.217,199.116L570.217,199.115L570.215,199.113L570.214,199.112L570.215,199.11L570.217,199.108L570.213,199.104L570.21,199.102L570.21,199.1L570.208,199.098L570.209,199.096L570.21,199.094L570.208,199.091L570.211,199.089L570.21,199.087L570.212,199.085L570.211,199.083L570.211,199.081L570.21,199.076L570.209,199.072L570.206,199.07L570.204,199.069L570.204,199.064L570.203,199.062L570.2,199.06L570.198,199.057L570.197,199.054L570.196,199.05L570.194,199.048L570.188,199.045L570.187,199.042L570.187,199.04L570.188,199.038L570.185,199.036L570.186,199.034L570.182,199.031L570.18,199.029L570.181,199.027L570.183,199.023L570.183,199.021L570.18,199.018L570.179,199.018L570.189,199.011L570.199,199.003L570.21,198.993L570.209,198.992L570.205,198.986L570.197,198.976L570.177,198.951L570.179,198.947L570.18,198.942L570.182,198.941L570.183,198.939L570.184,198.939L570.186,198.941L570.187,198.94L570.188,198.938L570.188,198.935L570.189,198.934L570.19,198.931L570.19,198.928L570.192,198.928L570.192,198.926L570.194,198.925L570.196,198.923L570.198,198.922L570.198,198.922L570.199,198.921L570.199,198.919L570.199,198.917L570.204,198.92L570.228,198.936L570.23,198.938L570.242,198.947L570.256,198.956L570.283,198.972L570.302,198.974L570.308,198.975L570.317,198.978L570.318,198.978L570.319,198.978L570.32,198.979L570.321,198.979L570.323,198.979L570.323,198.979L570.323,198.979L570.323,198.979L570.324,198.979L570.325,198.98L570.325,198.979L570.326,198.979L570.326,198.978L570.326,198.978L570.326,198.977L570.325,198.976L570.325,198.975L570.325,198.974L570.324,198.973L570.324,198.972L570.324,198.971L570.325,198.97L570.325,198.97L570.325,198.969L570.326,198.969L570.326,198.969L570.327,198.969L570.327,198.968L570.328,198.966L570.329,198.965L570.329,198.965L570.329,198.964L570.329,198.963L570.329,198.962L570.329,198.961L570.328,198.96L570.328,198.96L570.327,198.958L570.326,198.957L570.325,198.957L570.324,198.957L570.32,198.956L570.319,198.956L570.317,198.955L570.317,198.954L570.317,198.954L570.317,198.953L570.318,198.951L570.319,198.95L570.32,198.95L570.32,198.948L570.321,198.947L570.321,198.947L570.32,198.946L570.32,198.946L570.319,198.945L570.318,198.945L570.316,198.944L570.316,198.944L570.316,198.944L570.315,198.943L570.316,198.939L570.316,198.938L570.317,198.937L570.317,198.936L570.317,198.935L570.342,198.936L570.357,198.944L570.366,198.95L570.37,198.964L570.372,198.961L570.382,198.947L570.39,198.955L570.393,198.957L570.398,198.96L570.414,198.973L570.411,198.977L570.4,198.99L570.413,199.003L570.415,199.005L570.427,198.994L570.44,199.009L570.442,199.011L570.446,199.012L570.453,199.012L570.461,199.017L570.454,199.023L570.461,199.027L570.467,199.027L570.463,199.032L570.458,199.037L570.462,199.036L570.465,199.036L570.467,199.033L570.474,199.03L570.477,199.03L570.481,199.037L570.484,199.032L570.493,199.039L570.509,199.028L570.51,199.027L570.513,199.026L570.512,199.027L570.511,199.029L570.51,199.03L570.51,199.032L570.511,199.034L570.513,199.037L570.514,199.04L570.514,199.042L570.514,199.044L570.512,199.046L570.512,199.048L570.512,199.05L570.513,199.051L570.513,199.053L570.513,199.056L570.512,199.058L570.511,199.06L570.512,199.062L570.513,199.063L570.515,199.065L570.516,199.067L570.517,199.068L570.517,199.07L570.517,199.071L570.515,199.071L570.511,199.071L570.509,199.071L570.505,199.069L570.504,199.068L570.502,199.069L570.501,199.07L570.5,199.071L570.5,199.073L570.501,199.074L570.502,199.075L570.502,199.076L570.502,199.077L570.501,199.079L570.499,199.079L570.499,199.079L570.498,199.078L570.497,199.078L570.496,199.079L570.496,199.08L570.496,199.081L570.497,199.082L570.498,199.084L570.499,199.085L570.499,199.087L570.499,199.088L570.498,199.088L570.496,199.088L570.495,199.089L570.493,199.091L570.492,199.092L570.491,199.092L570.49,199.092L570.487,199.093L570.486,199.093L570.485,199.093L570.485,199.093L570.483,199.093L570.481,199.094L570.479,199.095L570.478,199.095L570.477,199.096L570.476,199.095L570.475,199.095L570.474,199.095L570.473,199.095L570.472,199.095L570.469,199.092L570.468,199.092L570.467,199.092L570.464,199.094L570.46,199.095L570.458,199.095L570.456,199.096L570.452,199.095L570.45,199.096L570.449,199.096L570.448,199.097L570.448,199.098L570.447,199.099L570.448,199.1L570.448,199.102L570.449,199.105L570.45,199.106L570.451,199.107L570.453,199.108L570.454,199.109L570.455,199.11L570.455,199.11L570.455,199.111L570.455,199.111L570.455,199.112L570.454,199.113L570.454,199.114L570.452,199.114L570.45,199.115L570.449,199.116L570.448,199.118L570.448,199.119L570.448,199.12L570.449,199.122L570.449,199.125L570.45,199.127L570.452,199.131L570.453,199.132L570.454,199.134L570.455,199.136L570.455,199.136L570.456,199.138L570.457,199.14L570.46,199.144L570.461,199.147L570.464,199.151L570.467,199.154L570.469,199.156L570.47,199.158L570.47,199.159L570.47,199.16L570.47,199.161L570.47,199.161L570.469,199.162L570.468,199.163L570.468,199.164L570.465,199.165L570.464,199.166L570.463,199.167L570.463,199.168L570.462,199.17L570.462,199.17L570.461,199.17L570.46,199.171L570.459,199.171L570.458,199.172L570.457,199.173L570.457,199.178L570.457,199.18L570.457,199.184L570.457,199.185L570.457,199.187L570.458,199.188L570.459,199.19L570.46,199.192L570.463,199.194L570.464,199.195L570.465,199.197L570.465,199.198L570.464,199.199L570.463,199.2L570.462,199.2L570.458,199.202L570.457,199.202L570.456,199.202L570.454,199.201L570.452,199.201L570.452,199.202L570.451,199.203L570.451,199.204L570.452,199.204L570.452,199.205L570.453,199.206L570.455,199.207L570.456,199.207L570.456,199.208L570.457,199.209L570.457,199.21L570.456,199.212L570.455,199.213L570.456,199.215L570.457,199.217L570.457,199.22L570.456,199.223L570.454,199.227L570.453,199.227L570.452,199.228L570.45,199.228L570.449,199.228L570.446,199.228L570.444,199.229L570.443,199.23L570.442,199.232L570.442,199.233L570.442,199.234L570.442,199.235L570.443,199.236L570.446,199.238L570.448,199.239L570.449,199.24L570.449,199.24L570.449,199.242L570.448,199.242L570.446,199.243L570.445,199.244L570.443,199.245L570.442,199.249L570.441,199.252L570.441,199.253L570.441,199.257L570.442,199.262L570.442,199.263L570.442,199.262L570.443,199.261L570.443,199.26L570.444,199.258L570.444,199.256L570.444,199.256L570.445,199.254L570.447,199.252L570.448,199.25L570.447,199.247L570.448,199.245L570.449,199.244L570.45,199.242L570.452,199.244L570.455,199.242L570.457,199.242L570.46,199.242L570.463,199.242L570.464,199.241L570.464,199.243L570.465,199.245L570.466,199.247L570.471,199.248L570.477,199.251L570.479,199.251L570.485,199.244L570.488,199.241L570.491,199.238L570.491,199.235L570.491,199.234L570.491,199.23L570.491,199.227L570.49,199.225L570.492,199.223L570.494,199.218L570.489,199.218L570.49,199.217L570.493,199.216L570.495,199.216L570.496,199.216L570.497,199.215L570.498,199.217L570.499,199.218L570.507,199.231L570.571,199.296L570.574,199.299L570.586,199.284L570.594,199.281L570.603,199.272L570.628,199.287L570.69,199.22L570.709,199.203L570.805,199.183L570.832,199.286L570.836,199.286L570.868,199.277L570.867,199.272L570.865,199.198L570.862,199.185L570.86,199.178L570.846,199.122L570.845,199.119L570.844,199.117L570.842,199.111L570.842,199.108L570.841,199.105L570.841,199.101L570.84,199.098L570.84,199.092L570.843,199.072L570.845,199.064L570.848,199.052L570.85,199.041L570.853,199.028L570.855,199.022L570.856,199.017L570.857,199.012L570.859,198.99L570.86,198.985L570.862,198.963L570.869,198.947L570.874,198.942L570.892,198.925L570.897,198.92L570.903,198.914L570.907,198.912L570.91,198.909L570.917,198.904L570.92,198.901L570.927,198.896L570.935,198.891L570.948,198.871L571.013,198.812L571.045,198.784L571.071,198.755L571.083,198.754L571.113,198.711L571.111,198.708L571.111,198.706L571.114,198.685L571.117,198.668L571.137,198.597L571.137,198.595L571.188,198.498L571.186,198.491L571.179,198.486L571.178,198.478L571.181,198.473L571.177,198.465L571.184,198.449L571.183,198.429L571.184,198.415L571.181,198.409L571.181,198.386L571.181,198.374L571.181,198.369L571.181,198.352L571.184,198.325L571.192,198.309L571.206,198.287L571.208,198.283L571.218,198.283L571.219,198.281L571.218,198.278L571.218,198.274L571.214,198.273L571.213,198.275L571.21,198.275L571.209,198.273L571.208,198.272L571.206,198.273L571.204,198.274L571.203,198.273L571.203,198.271L571.201,198.27L571.199,198.271L571.197,198.272L571.195,198.269L571.195,198.266L571.198,198.262L571.197,198.259L571.199,198.252L571.202,198.252L571.202,198.249L571.2,198.247L571.198,198.241L571.199,198.239L571.201,198.236L571.198,198.232L571.198,198.228L571.193,198.223L571.189,198.2L571.193,198.196L571.2,198.188L571.205,198.178L571.213,198.172L571.262,198.148L571.274,198.14L571.304,198.141L571.311,198.142L571.336,198.148L571.339,198.137L571.342,198.137L571.343,198.137L571.345,198.136L571.346,198.137L571.347,198.137L571.348,198.137L571.349,198.135L571.349,198.134L571.349,198.133L571.349,198.132L571.349,198.131L571.351,198.13L571.356,198.129L571.356,198.127L571.355,198.127L571.353,198.127L571.351,198.127L571.35,198.127L571.349,198.125L571.346,198.122L571.343,198.122L571.339,198.124L571.338,198.125L571.336,198.125L571.335,198.124L571.334,198.123L571.332,198.124L571.331,198.125L571.329,198.125L571.328,198.125L571.328,198.124L571.329,198.122L571.331,198.121L571.331,198.12L571.331,198.119L571.332,198.116L571.332,198.114L571.331,198.112L571.329,198.111L571.328,198.11L571.329,198.106L571.329,198.104L571.329,198.102L571.329,198.101L571.326,198.1L571.325,198.101L571.325,198.102L571.324,198.103L571.322,198.104L571.321,198.103L571.319,198.102L571.319,198.101L571.321,198.099L571.324,198.098L571.324,198.094L571.323,198.093L571.324,198.089L571.323,198.087L571.321,198.085L571.321,198.082L571.32,198.081L571.318,198.081L571.317,198.081L571.316,198.079L571.315,198.078L571.314,198.078L571.312,198.079L571.311,198.08L571.309,198.08L571.308,198.081L571.306,198.082L571.304,198.082L571.302,198.081L571.302,198.08L571.302,198.078L571.299,198.077L571.297,198.078L571.295,198.078L571.294,198.076L571.294,198.074L571.296,198.071L571.297,198.067L571.298,198.065L571.296,198.063L571.295,198.06L571.294,198.058L571.293,198.055L571.294,198.054L571.295,198.053L571.296,198.054L571.298,198.056L571.3,198.057L571.3,198.056L571.301,198.055L571.302,198.053L571.302,198.051L571.301,198.049L571.295,198.049L571.294,198.048L571.294,198.047L571.293,198.046L571.293,198.045L571.293,198.044L571.295,198.044L571.297,198.043L571.3,198.041L571.3,198.04L571.299,198.036L571.299,198.034L571.3,198.034L571.303,198.033L571.305,198.033L571.307,198.035L571.309,198.038L571.31,198.039L571.311,198.038L571.311,198.036L571.311,198.033L571.311,198.032L571.314,198.032L571.317,198.029L571.318,198.026L571.317,198.023L571.314,198.02L571.31,198.017L571.307,198.016L571.305,198.018L571.304,198.019L571.304,198.021L571.303,198.023L571.298,198.022L571.297,198.023L571.295,198.024L571.293,198.021L571.294,198.019L571.296,198.017L571.297,198.015L571.3,198.009L571.305,198.007L571.305,198.002L571.306,198L571.307,197.998L571.308,197.997L571.31,197.994L571.309,197.991L571.305,197.988L571.303,197.987L571.302,197.987L571.301,197.987L571.298,197.987L571.296,197.986L571.292,197.984L571.29,197.983L571.289,197.984L571.287,197.984L571.286,197.982L571.285,197.98L571.286,197.979L571.287,197.978L571.288,197.977L571.289,197.975L571.288,197.972L571.287,197.97L571.285,197.968L571.284,197.967L571.282,197.968L571.281,197.968L571.28,197.966L571.278,197.966L571.274,197.965L571.272,197.966L571.27,197.967L571.268,197.966L571.268,197.965L571.267,197.964L571.268,197.963L571.267,197.961L571.266,197.96L571.261,197.957L571.261,197.954L571.263,197.952L571.264,197.95L571.265,197.949L571.267,197.948L571.269,197.948L571.27,197.946L571.271,197.945L571.271,197.942L571.269,197.94L571.268,197.935L571.27,197.931L571.272,197.928L571.272,197.926L571.267,197.922L571.267,197.919L571.268,197.916L571.269,197.915L571.27,197.915L571.272,197.917L571.274,197.918L571.275,197.917L571.277,197.915L571.276,197.913L571.273,197.912L571.271,197.91L571.27,197.905L571.271,197.903L571.272,197.902L571.275,197.9L571.276,197.898L571.276,197.896L571.273,197.896L571.27,197.895L571.271,197.894L571.271,197.891L571.268,197.888L571.267,197.886L571.267,197.884L571.267,197.883L571.269,197.883L571.271,197.885L571.273,197.886L571.276,197.884L571.277,197.883L571.276,197.881L571.277,197.88L571.28,197.879L571.281,197.879L571.282,197.88L571.284,197.88L571.285,197.879L571.285,197.878L571.284,197.876L571.284,197.875L571.284,197.874L571.284,197.872L571.284,197.87L571.284,197.868L571.282,197.866L571.279,197.867L571.277,197.866L571.277,197.865L571.277,197.864L571.278,197.861L571.279,197.858L571.278,197.856L571.276,197.853L571.275,197.849L571.276,197.848L571.278,197.848L571.28,197.849L571.283,197.85L571.285,197.849L571.288,197.846L571.29,197.844L571.289,197.841L571.286,197.839L571.28,197.831L571.28,197.828L571.28,197.823L571.275,197.824L571.273,197.82L571.278,197.818L571.28,197.805L571.278,197.799L571.278,197.794L571.284,197.79L571.285,197.784L571.285,197.784L571.287,197.781L571.288,197.777L571.285,197.773L571.281,197.773L571.279,197.768L571.283,197.751L571.292,197.731L571.298,197.725L571.293,197.721L571.294,197.696L571.294,197.696L571.293,197.695L571.293,197.695L571.293,197.695L571.293,197.694L571.292,197.694L571.292,197.693L571.291,197.693L571.29,197.692L571.288,197.691L571.287,197.69L571.286,197.688L571.286,197.687L571.287,197.687L571.289,197.687L571.292,197.687L571.295,197.687L571.295,197.687L571.298,197.686L571.301,197.686L571.304,197.686L571.306,197.686L571.307,197.688L571.307,197.691L571.31,197.693L571.315,197.694L571.317,197.69L571.319,197.69L571.318,197.688L571.315,197.68L571.314,197.675L571.316,197.672L571.318,197.671L571.325,197.67L571.327,197.671L571.328,197.674L571.329,197.675L571.331,197.675L571.334,197.675L571.337,197.675L571.34,197.672L571.342,197.671L571.345,197.671L571.346,197.668L571.346,197.664L571.35,197.657L571.353,197.655L571.356,197.656L571.357,197.659L571.361,197.662L571.362,197.665L571.364,197.665L571.365,197.664L571.368,197.662L571.371,197.66L571.372,197.659L571.372,197.657L571.371,197.654L571.368,197.653L571.367,197.651L571.366,197.648L571.367,197.647L571.368,197.647L571.37,197.644L571.372,197.642L571.374,197.643L571.376,197.644L571.378,197.643L571.38,197.642L571.383,197.643L571.386,197.643L571.388,197.641L571.39,197.641L571.392,197.642L571.394,197.644L571.394,197.644L571.396,197.642L571.398,197.642L571.4,197.643L571.401,197.644L571.406,197.645L571.408,197.644L571.409,197.639L571.413,197.632L571.413,197.629L571.407,197.628L571.408,197.623L571.407,197.62L571.408,197.618L571.411,197.619L571.412,197.623L571.414,197.625L571.419,197.626L571.421,197.617L571.423,197.615L571.427,197.615L571.43,197.618L571.432,197.617L571.435,197.613L571.438,197.61L571.446,197.61L571.449,197.611L571.453,197.619L571.456,197.622L571.459,197.622L571.46,197.621L571.46,197.618L571.463,197.615L571.467,197.615L571.47,197.618L571.473,197.618L571.475,197.617L571.479,197.615L571.481,197.614L571.486,197.599L571.488,197.525L571.49,197.52L571.483,197.518L571.489,197.51L571.491,197.501L571.493,197.482L571.497,197.477L571.513,197.456L571.538,197.399L571.548,197.37L571.553,197.343L571.555,197.335L571.557,197.324L571.559,197.313L571.562,197.303L571.57,197.277L571.57,197.276L571.57,197.275L571.568,197.271L571.558,197.254L571.552,197.245L571.544,197.23L571.535,197.21L571.543,197.214L571.55,197.217L571.57,197.223L571.621,197.239L571.627,197.241L571.632,197.242L571.647,197.241L571.658,197.239L571.668,197.236L571.694,197.23L571.689,197.223L571.688,197.22L571.69,197.218L571.699,197.211L571.704,197.208L571.706,197.211L571.713,197.219L571.72,197.216L571.722,197.217L571.724,197.218L571.724,197.217L571.725,197.216L571.725,197.213L571.722,197.209L571.718,197.202L571.72,197.201L571.725,197.194L571.733,197.182L571.738,197.173L571.738,197.166L571.732,197.134L571.787,197.124L571.778,197.095L571.802,197.089L571.804,197.074L571.802,197.067L571.79,197.053L571.788,197.037L571.781,197.031L571.779,197.017L571.745,196.989L571.739,196.96L571.733,196.942L571.729,196.927L571.726,196.918L571.722,196.907L571.717,196.894L571.715,196.886L571.711,196.875L571.707,196.862L571.732,196.853L571.739,196.851L571.743,196.85L571.743,196.844L571.751,196.844L571.76,196.85L571.782,196.841L571.798,196.833L571.809,196.828L571.816,196.825L571.818,196.824L571.836,196.817L571.844,196.814L571.872,196.797L571.823,196.783L571.802,196.778L571.79,196.783L571.774,196.778L571.758,196.762L571.757,196.761L571.757,196.753L571.748,196.743L571.749,196.735L571.752,196.719L571.755,196.703L571.757,196.687L571.757,196.68L571.761,196.675L571.764,196.673L571.764,196.672L571.764,196.665L571.768,196.661L571.769,196.664L571.777,196.658L571.782,196.66L571.785,196.66L571.786,196.656L571.791,196.654L571.79,196.647L571.792,196.647L571.802,196.648L571.806,196.646L571.808,196.638L571.809,196.632L571.813,196.624L571.821,196.62L571.828,196.626L571.837,196.624L571.841,196.621L571.845,196.622L571.85,196.629L571.854,196.635L571.876,196.613L571.907,196.581L571.948,196.541L571.97,196.519L571.981,196.507L572.034,196.453L572.041,196.453L572.047,196.461L572.059,196.463L572.077,196.46L572.08,196.454L572.074,196.438L572.063,196.41L572.02,196.303L572.011,196.283L572.015,196.278L572.009,196.278L572.003,196.262L572.005,196.256L572.005,196.255L572,196.255L571.989,196.232L571.946,196.151L571.914,196.095L571.899,196.062L571.868,196.003L571.864,195.995L571.843,195.994ZM800,0L800,12.246L800,78.668L800,145.789L800,215.835L800,261.497L800,300L800,338.503L800,384.165L800,454.211L800,600L800,600L200,600L200,600L200,454.211L200,384.165L200,338.503L200,300L200,261.497L200,215.835L200,145.789L200,78.668L200,12.246L200,0L200,0L800,0Z"/>
<path d="M569.087,196.22m0,4.5a4.5,4.5 0 1,1 0,-9a4.5,4.5 0 1,1 0,9z"/>
<path d="M568.93,195.722m0,4.5a4.5,4.5 0 1,1 0,-9a4.5,4.5 0 1,1 0,9z"/>
</svg>