<?xml version="1.0" encoding="UTF-8"?>
<svg xmlns="http://www.w3.org/2000/svg" viewBox="0 0 1000 600" stroke="#000" stroke-width="0.3" fill="#ccc">
<path d="M568.329,198.903L568.327,198.902L568.326,198.902L568.324,198.902L568.324,198.904L568.322,198.905L568.32,198.908L568.318,198.908L568.316,198.91L568.315,198.911L568.314,198.911L568.311,198.911L568.309,198.91L568.308,198.908L568.308,198.907L568.308,198.905L568.31,198.903L568.311,198.901L568.311,198.901L568.311,198.9L568.311,198.898L568.31,198.897L568.309,198.896L568.309,198.895L568.308,198.894L568.305,198.893L568.303,198.893L568.302,198.893L568.297,198.893L568.295,198.891L568.293,198.888L568.293,198.886L568.292,198.883L568.291,198.878L568.291,198.877L568.288,198.876L568.287,198.877L568.283,198.878L568.282,198.874L568.282,198.874L568.279,198.874L568.273,198.875L568.267,198.876L568.254,198.878L568.247,198.879L568.24,198.88L568.236,198.881L568.235,198.882L568.234,198.882L568.233,198.881L568.233,198.88L568.232,198.878L568.232,198.878L568.232,198.877L568.232,198.876L568.233,198.874L568.233,198.873L568.232,198.872L568.232,198.871L568.231,198.869L568.23,198.867L568.229,198.867L568.221,198.867L568.212,198.867L568.212,198.891L568.174,198.893L568.17,198.895L568.137,198.894L568.14,198.888L568.15,198.868L568.163,198.808L568.215,198.682L568.214,198.68L568.212,198.679L568.211,198.676L568.21,198.673L568.204,198.665L568.196,198.653L568.21,198.623L568.243,198.573L568.247,198.566L568.242,198.562L568.247,198.554L568.247,198.544L568.247,198.527L568.24,198.514L568.24,198.511L568.24,198.506L568.24,198.501L568.242,198.498L568.243,198.494L568.244,198.489L568.243,198.487L568.242,198.485L568.242,198.483L568.241,198.485L568.239,198.486L568.235,198.486L568.232,198.486L568.229,198.486L568.225,198.487L568.221,198.488L568.219,198.489L568.217,198.489L568.215,198.49L568.213,198.49L568.211,198.49L568.209,198.492L568.16,198.459L568.162,198.455L568.16,198.452L568.155,198.45L568.15,198.444L568.144,198.441L568.142,198.438L568.138,198.437L568.135,198.434L568.132,198.43L568.128,198.426L568.122,198.424L568.119,198.425L568.115,198.425L568.112,198.426L568.108,198.426L568.106,198.424L568.106,198.425L568.107,198.427L568.105,198.428L568.103,198.428L568.103,198.43L568.104,198.432L568.103,198.434L568.1,198.433L568.083,198.408L568.076,198.4L568.056,198.413L568.041,198.413L568.04,198.436L568.024,198.434L568.02,198.477L568.007,198.474L567.989,198.436L567.985,198.431L567.975,198.427L567.948,198.393L567.922,198.359L567.864,198.355L567.861,198.354L567.859,198.356L567.855,198.359L567.854,198.362L567.853,198.365L567.851,198.369L567.85,198.369L567.849,198.369L567.845,198.369L567.843,198.369L567.838,198.365L567.836,198.364L567.829,198.359L567.826,198.357L567.823,198.356L567.82,198.355L567.82,198.355L567.82,198.354L567.82,198.354L567.82,198.353L567.819,198.353L567.819,198.353L567.818,198.354L567.817,198.354L567.817,198.355L567.817,198.356L567.817,198.357L567.817,198.357L567.817,198.358L567.817,198.358L567.817,198.359L567.817,198.359L567.816,198.359L567.816,198.359L567.815,198.359L567.814,198.359L567.813,198.359L567.812,198.358L567.811,198.358L567.811,198.358L567.81,198.357L567.809,198.357L567.808,198.357L567.808,198.356L567.808,198.356L567.808,198.356L567.808,198.355L567.807,198.356L567.806,198.356L567.806,198.356L567.806,198.356L567.806,198.356L567.805,198.356L567.805,198.356L567.804,198.356L567.804,198.356L567.804,198.355L567.803,198.355L567.803,198.355L567.803,198.355L567.802,198.355L567.802,198.355L567.8,198.355L567.8,198.355L567.799,198.354L567.799,198.354L567.799,198.354L567.798,198.353L567.797,198.354L567.796,198.354L567.796,198.354L567.795,198.354L567.795,198.354L567.795,198.354L567.795,198.354L567.795,198.353L567.794,198.353L567.794,198.353L567.793,198.353L567.792,198.353L567.791,198.353L567.79,198.354L567.79,198.354L567.784,198.35L567.778,198.347L567.773,198.344L567.766,198.347L567.764,198.345L567.733,198.342L567.69,198.338L567.679,198.356L567.646,198.339L567.628,198.335L567.61,198.329L567.582,198.321L567.582,198.321L567.581,198.322L567.582,198.324L567.583,198.325L567.582,198.326L567.581,198.328L567.578,198.33L567.574,198.331L567.572,198.332L567.566,198.332L567.564,198.333L567.562,198.333L567.56,198.334L567.559,198.335L567.557,198.336L567.555,198.337L567.551,198.338L567.549,198.339L567.547,198.341L567.545,198.341L567.542,198.343L567.54,198.344L567.538,198.345L567.536,198.346L567.535,198.348L567.534,198.351L567.533,198.351L567.532,198.352L567.531,198.352L567.53,198.353L567.529,198.354L567.528,198.357L567.529,198.359L567.528,198.36L567.527,198.36L567.526,198.36L567.525,198.36L567.524,198.359L567.524,198.358L567.524,198.357L567.523,198.357L567.521,198.357L567.52,198.356L567.519,198.356L567.518,198.357L567.517,198.358L567.517,198.359L567.517,198.36L567.517,198.362L567.516,198.362L567.516,198.363L567.515,198.364L567.515,198.364L567.514,198.364L567.498,198.353L567.483,198.346L567.436,198.322L567.435,198.296L567.402,198.297L567.402,198.299L567.4,198.3L567.399,198.301L567.398,198.303L567.397,198.303L567.397,198.304L567.396,198.305L567.396,198.308L567.398,198.308L567.399,198.309L567.4,198.311L567.4,198.314L567.401,198.315L567.402,198.316L567.401,198.317L567.399,198.319L567.397,198.32L567.395,198.322L567.393,198.325L567.389,198.326L567.385,198.325L567.384,198.325L567.381,198.325L567.379,198.325L567.377,198.325L567.375,198.325L567.372,198.325L567.371,198.325L567.363,198.326L567.359,198.327L567.358,198.326L567.355,198.326L567.352,198.326L567.348,198.326L567.346,198.326L567.343,198.327L567.343,198.327L567.341,198.328L567.337,198.329L567.335,198.329L567.332,198.33L567.327,198.331L567.31,198.304L567.291,198.296L567.285,198.294L567.257,198.282L567.214,198.292L567.211,198.317L567.208,198.322L567.186,198.358L567.167,198.364L567.169,198.363L567.172,198.362L567.172,198.361L567.173,198.36L567.173,198.359L567.174,198.358L567.176,198.357L567.179,198.356L567.18,198.354L567.181,198.353L567.182,198.352L567.183,198.351L567.184,198.35L567.183,198.348L567.182,198.346L567.182,198.345L567.183,198.343L567.183,198.341L567.182,198.339L567.168,198.331L567.132,198.329L567.127,198.327L567.123,198.327L567.119,198.324L567.113,198.318L567.106,198.311L567.101,198.306L567.082,198.274L567.075,198.27L567.065,198.264L567.036,198.254L567.031,198.255L567.014,198.259L566.986,198.263L566.972,198.267L566.961,198.275L566.955,198.28L566.937,198.298L566.931,198.296L566.926,198.293L566.902,198.273L566.879,198.228L566.89,198.206L566.887,198.19L566.793,198.211L566.799,198.238L566.802,198.265L566.784,198.28L566.764,198.296L566.737,198.318L566.704,198.316L566.698,198.315L566.663,198.298L566.595,198.28L566.596,198.276L566.59,198.273L566.584,198.271L566.583,198.27L566.579,198.268L566.577,198.266L566.577,198.265L566.576,198.264L566.575,198.262L566.572,198.261L566.572,198.263L566.569,198.264L566.567,198.264L566.564,198.265L566.563,198.265L566.548,198.269L566.545,198.277L566.522,198.236L566.487,198.295L566.485,198.298L566.478,198.302L566.496,198.322L566.463,198.339L566.466,198.351L566.455,198.354L566.459,198.366L566.459,198.367L566.458,198.367L566.457,198.369L566.455,198.37L566.454,198.37L566.451,198.368L566.45,198.368L566.448,198.368L566.447,198.369L566.446,198.371L566.444,198.372L566.443,198.372L566.441,198.371L566.439,198.371L566.437,198.372L566.436,198.374L566.435,198.375L566.436,198.377L566.435,198.378L566.434,198.379L566.432,198.381L566.432,198.383L566.432,198.385L566.432,198.387L566.432,198.389L566.431,198.39L566.43,198.391L566.428,198.391L566.426,198.391L566.424,198.385L566.401,198.403L566.388,198.384L566.381,198.391L566.372,198.399L566.36,198.405L566.342,198.383L566.331,198.39L566.315,198.366L566.308,198.357L566.301,198.351L566.299,198.349L566.297,198.344L566.296,198.347L566.288,198.363L566.277,198.378L566.274,198.386L566.257,198.381L566.236,198.375L566.216,198.369L566.11,198.338L566.109,198.338L566.081,198.33L566.078,198.329L566.036,198.317L565.96,198.294L565.96,198.294L565.959,198.294L565.956,198.293L565.955,198.293L565.954,198.292L565.946,198.29L565.944,198.289L565.875,198.269L565.841,198.26L565.839,198.259L565.815,198.249L565.813,198.249L565.812,198.242L565.812,198.235L565.812,198.231L565.813,198.225L565.818,198.221L565.819,198.219L565.82,198.219L565.821,198.217L565.821,198.215L565.822,198.214L565.82,198.204L565.822,198.198L565.82,198.195L565.82,198.189L565.825,198.188L565.827,198.186L565.828,198.182L565.83,198.181L565.83,198.177L565.83,198.174L565.829,198.173L565.827,198.171L565.827,198.17L565.83,198.165L565.831,198.162L565.83,198.157L565.829,198.155L565.834,198.144L565.837,198.143L565.84,198.144L565.84,198.141L565.841,198.139L565.846,198.138L565.848,198.139L565.85,198.137L565.853,198.136L565.856,198.138L565.858,198.138L565.86,198.138L565.861,198.134L565.862,198.133L565.862,198.133L565.86,198.131L565.86,198.129L565.859,198.128L565.838,198.094L565.825,198.074L565.836,198.066L565.789,197.99L565.77,198.003L565.748,197.974L565.698,197.988L565.679,197.976L565.642,197.961L565.641,197.952L565.64,197.95L565.639,197.947L565.638,197.947L565.637,197.949L565.637,197.951L565.636,197.952L565.635,197.953L565.633,197.952L565.631,197.952L565.63,197.952L565.629,197.953L565.628,197.955L565.628,197.955L565.628,197.955L565.627,197.955L565.627,197.955L565.626,197.956L565.626,197.956L565.626,197.956L565.625,197.957L565.624,197.957L565.624,197.958L565.624,197.958L565.623,197.959L565.623,197.96L565.623,197.961L565.623,197.961L565.623,197.961L565.623,197.962L565.623,197.962L565.622,197.962L565.622,197.962L565.622,197.962L565.622,197.962L565.621,197.963L565.621,197.963L565.621,197.962L565.621,197.962L565.62,197.962L565.619,197.962L565.619,197.962L565.619,197.962L565.619,197.962L565.619,197.962L565.618,197.963L565.618,197.963L565.616,197.963L565.614,197.964L565.612,197.966L565.61,197.966L565.608,197.965L565.597,197.958L565.595,197.958L565.593,197.96L565.595,197.966L565.597,197.969L565.595,197.973L565.595,197.975L565.594,197.975L565.592,197.974L565.592,197.973L565.592,197.972L565.593,197.972L565.592,197.971L565.59,197.967L565.59,197.961L565.587,197.958L565.585,197.955L565.584,197.951L565.585,197.949L565.587,197.947L565.588,197.944L565.588,197.942L565.584,197.941L565.581,197.944L565.58,197.951L565.581,197.961L565.584,197.964L565.583,197.967L565.581,197.968L565.58,197.967L565.578,197.968L565.578,197.969L565.578,197.97L565.576,197.972L565.572,197.966L565.57,197.963L565.567,197.96L565.564,197.958L565.561,197.955L565.56,197.955L565.56,197.953L565.56,197.952L565.561,197.95L565.562,197.948L565.562,197.946L565.562,197.945L565.562,197.943L565.561,197.94L565.56,197.938L565.56,197.936L565.56,197.935L565.561,197.933L565.562,197.931L565.564,197.929L565.565,197.927L565.566,197.926L565.568,197.924L565.57,197.923L565.572,197.922L565.572,197.922L565.52,197.913L565.499,197.91L565.49,197.91L565.488,197.914L565.48,197.913L565.479,197.921L565.475,197.927L565.477,197.913L565.443,197.912L565.44,197.93L565.417,197.952L565.389,197.974L565.394,197.981L565.403,197.984L565.402,197.986L565.386,197.99L565.359,197.983L565.359,197.965L565.301,197.946L565.298,197.945L565.242,197.965L565.243,197.966L565.261,197.986L565.271,197.992L565.283,198.001L565.293,198.013L565.277,198.02L565.279,198.032L565.277,198.038L565.263,198.041L565.256,198.04L565.256,198.045L565.251,198.045L565.227,198.049L565.193,198.05L565.179,198.05L565.173,198.052L565.166,198.056L565.161,198.061L565.155,198.067L565.151,198.074L565.147,198.083L565.146,198.089L565.145,198.096L565.146,198.106L565.153,198.126L565.159,198.151L565.161,198.154L565.159,198.157L565.165,198.169L565.173,198.207L565.144,198.219L565.137,198.224L565.137,198.224L565.123,198.235L565.101,198.232L565.091,198.232L565.08,198.232L565.078,198.233L565.066,198.233L565.054,198.234L565.025,198.23L565.024,198.222L565.013,198.196L565.001,198.173L564.993,198.163L564.993,198.162L564.982,198.147L564.966,198.125L564.962,198.12L564.954,198.111L564.917,198.068L564.91,198.053L564.898,198.038L564.888,198.026L564.876,198.014L564.848,197.983L564.836,197.953L564.797,197.928L564.795,197.927L564.789,197.93L564.777,197.936L564.748,197.931L564.712,197.937L564.706,197.94L564.703,197.946L564.699,197.95L564.692,197.957L564.688,197.959L564.685,197.961L564.678,197.973L564.667,197.986L564.651,198.019L564.644,198.033L564.642,198.036L564.641,198.042L564.64,198.047L564.67,198.057L564.683,198.064L564.684,198.065L564.683,198.072L564.678,198.082L564.673,198.086L564.67,198.093L564.665,198.096L564.661,198.1L564.657,198.103L564.654,198.107L564.65,198.108L564.645,198.11L564.611,198.093L564.597,198.088L564.591,198.084L564.589,198.082L564.587,198.078L564.576,198.074L564.57,198.076L564.552,198.043L564.553,198.04L564.539,198.014L564.54,197.975L564.533,197.955L564.527,197.947L564.524,197.941L564.511,197.923L564.504,197.925L564.488,197.933L564.483,197.936L564.467,197.948L564.467,197.956L564.468,197.963L564.465,197.961L564.462,197.962L564.459,197.96L564.457,197.962L564.456,197.965L564.456,197.965L564.455,197.966L564.454,197.966L564.453,197.965L564.451,197.964L564.45,197.964L564.464,198.015L564.411,198.056L564.404,198.065L564.398,198.063L564.393,198.062L564.388,198.065L564.387,198.065L564.387,198.067L564.388,198.068L564.39,198.069L564.392,198.071L564.39,198.074L564.388,198.074L564.388,198.077L564.391,198.079L564.392,198.084L564.389,198.084L564.374,198.083L564.334,198.043L564.309,198.047L564.289,198.05L564.28,198.049L564.259,198.039L564.246,198.059L564.234,198.06L564.227,198.063L564.212,198.069L564.209,198.073L564.201,198.076L564.197,198.081L564.168,198.099L564.163,198.111L564.163,198.115L564.161,198.121L564.156,198.126L564.147,198.133L564.146,198.134L564.136,198.14L564.135,198.141L564.135,198.141L564.131,198.142L564.13,198.143L564.118,198.147L564.111,198.149L564.096,198.153L564.088,198.156L564.086,198.157L564.075,198.164L564.071,198.165L564.071,198.168L564.069,198.172L564.066,198.173L564.06,198.175L564.06,198.176L564.056,198.177L564.048,198.178L564.04,198.177L564.034,198.177L564.03,198.177L564.023,198.179L563.991,198.185L563.999,198.223L563.979,198.227L563.927,198.229L563.902,198.231L563.897,198.231L563.868,198.233L563.831,198.258L563.825,198.272L563.821,198.281L563.863,198.306L563.864,198.366L563.864,198.407L563.9,198.408L563.901,198.408L563.901,198.401L563.903,198.354L563.933,198.359L563.954,198.363L564.002,198.357L564.049,198.339L564.062,198.369L564.081,198.4L564.06,198.406L564.044,198.411L564.028,198.442L564.057,198.445L564.071,198.48L564.03,198.537L564.024,198.542L564.017,198.549L564.017,198.55L564.017,198.552L564.017,198.555L564.019,198.556L564.023,198.558L564.026,198.557L564.028,198.562L564.028,198.568L564.029,198.571L564.028,198.575L564.03,198.577L564.03,198.577L564.034,198.578L564.037,198.585L564.036,198.588L564.037,198.59L564.037,198.592L564.037,198.593L564.041,198.593L564.045,198.594L564.045,198.595L564.046,198.596L564.051,198.599L564.049,198.603L564.049,198.606L564.051,198.606L564.052,198.607L564.053,198.61L564.058,198.609L564.061,198.612L564.066,198.609L564.073,198.611L564.077,198.609L564.076,198.643L564.064,198.668L564.054,198.683L564.046,198.688L564.043,198.692L564.036,198.703L564.005,198.727L564.008,198.733L564.008,198.733L563.998,198.778L564.013,198.786L564.008,198.788L564.015,198.795L564.018,198.794L564.022,198.79L564.025,198.793L564.028,198.805L564.038,198.813L564.046,198.822L564.055,198.829L564.064,198.836L564.077,198.847L564.08,198.853L564.08,198.856L564.079,198.86L564.076,198.863L564.078,198.868L564.082,198.87L564.086,198.872L564.09,198.877L564.098,198.88L564.101,198.886L564.105,198.89L564.107,198.89L564.109,198.89L564.11,198.888L564.115,198.886L564.119,198.884L564.119,198.882L564.119,198.882L564.124,198.88L564.128,198.882L564.135,198.881L564.142,198.883L564.146,198.884L564.148,198.884L564.148,198.885L564.149,198.885L564.15,198.886L564.152,198.865L564.173,198.858L564.183,198.856L564.194,198.854L564.198,198.864L564.198,198.867L564.199,198.869L564.196,198.872L564.195,198.875L564.194,198.876L564.192,198.877L564.192,198.879L564.189,198.879L564.185,198.878L564.181,198.878L564.176,198.88L564.174,198.883L564.173,198.885L564.167,198.886L564.164,198.888L564.158,198.892L564.157,198.893L564.151,198.9L564.142,198.907L564.14,198.91L564.141,198.916L564.141,198.919L564.136,198.924L564.138,198.926L564.138,198.929L564.138,198.931L564.137,198.932L564.136,198.935L564.085,199.012L564.083,199.012L564.075,199.021L563.993,199.036L563.977,199.042L563.955,199.039L563.934,199.036L563.921,199.034L563.911,199.032L563.911,199.031L563.898,199.028L563.887,199.031L563.884,199.027L563.883,199.022L563.883,199.02L563.888,199.014L563.882,199.011L563.819,198.994L563.815,199.018L563.778,199.008L563.729,198.995L563.725,198.998L563.707,198.999L563.725,199.109L563.657,199.088L563.654,199.086L563.646,199.085L563.602,199.078L563.597,199.095L563.596,199.099L563.596,199.103L563.596,199.111L563.596,199.121L563.587,199.132L563.586,199.137L563.583,199.137L563.582,199.14L563.58,199.143L563.576,199.149L563.573,199.153L563.569,199.158L563.565,199.162L563.566,199.163L563.568,199.164L563.568,199.166L563.567,199.168L563.567,199.168L563.566,199.169L563.567,199.173L563.566,199.175L563.563,199.178L563.563,199.18L563.565,199.183L563.566,199.186L563.565,199.187L563.565,199.189L563.567,199.191L563.569,199.19L563.571,199.19L563.572,199.191L563.572,199.193L563.574,199.194L563.576,199.196L563.578,199.196L563.579,199.197L563.581,199.197L563.584,199.2L563.585,199.199L563.589,199.201L563.592,199.203L563.599,199.213L563.599,199.215L563.603,199.217L563.605,199.217L563.606,199.218L563.61,199.218L563.613,199.217L563.618,199.217L563.619,199.218L563.621,199.219L563.623,199.22L563.623,199.222L563.62,199.224L563.62,199.225L563.622,199.226L563.623,199.227L563.626,199.227L563.628,199.227L563.629,199.229L563.631,199.232L563.632,199.23L563.639,199.231L563.64,199.233L563.645,199.237L563.649,199.242L563.649,199.247L563.65,199.249L563.652,199.25L563.653,199.253L563.654,199.254L563.655,199.256L563.658,199.258L563.659,199.26L563.657,199.265L563.657,199.266L563.66,199.268L563.661,199.269L563.665,199.275L563.667,199.276L563.668,199.276L563.67,199.278L563.67,199.282L563.671,199.283L563.672,199.286L563.671,199.288L563.672,199.289L563.674,199.291L563.675,199.29L563.676,199.29L563.677,199.293L563.678,199.293L563.678,199.292L563.679,199.292L563.681,199.293L563.682,199.294L563.682,199.297L563.682,199.298L563.683,199.299L563.685,199.298L563.687,199.299L563.687,199.303L563.689,199.304L563.69,199.304L563.69,199.305L563.69,199.306L563.691,199.307L563.693,199.307L563.695,199.307L563.695,199.31L563.694,199.312L563.695,199.314L563.696,199.314L563.697,199.317L563.698,199.318L563.699,199.319L563.7,199.32L563.698,199.323L563.698,199.324L563.7,199.327L563.699,199.329L563.699,199.331L563.699,199.332L563.701,199.333L563.701,199.336L563.703,199.336L563.705,199.335L563.706,199.335L563.707,199.335L563.707,199.335L563.708,199.336L563.709,199.337L563.709,199.336L563.71,199.335L563.711,199.335L563.711,199.334L563.712,199.334L563.713,199.335L563.713,199.335L563.711,199.338L563.711,199.341L563.71,199.343L563.709,199.346L563.708,199.349L563.708,199.352L563.708,199.353L563.707,199.354L563.707,199.356L563.708,199.358L563.709,199.358L563.71,199.361L563.71,199.362L563.712,199.364L563.714,199.367L563.715,199.369L563.716,199.37L563.715,199.372L563.716,199.373L563.719,199.374L563.721,199.376L563.724,199.379L563.725,199.38L563.728,199.381L563.73,199.382L563.729,199.384L563.728,199.386L563.729,199.387L563.733,199.388L563.735,199.387L563.736,199.388L563.737,199.388L563.74,199.388L563.741,199.388L563.741,199.39L563.743,199.39L563.744,199.39L563.745,199.39L563.746,199.391L563.746,199.391L563.748,199.391L563.751,199.394L563.753,199.397L563.764,199.404L563.772,199.412L563.78,199.418L563.789,199.426L563.789,199.433L563.811,199.453L563.812,199.463L563.812,199.467L563.813,199.472L563.827,199.476L563.83,199.478L563.821,199.493L563.815,199.507L563.814,199.51L563.805,199.533L563.801,199.554L563.807,199.559L563.811,199.559L563.839,199.574L563.85,199.581L563.843,199.609L563.84,199.622L563.838,199.631L563.84,199.632L563.846,199.634L563.853,199.638L563.855,199.642L563.852,199.646L563.85,199.647L563.846,199.65L563.846,199.651L563.85,199.659L563.854,199.665L563.857,199.666L563.862,199.678L563.864,199.683L563.853,199.686L563.851,199.694L563.849,199.694L563.844,199.688L563.837,199.685L563.837,199.698L563.831,199.699L563.824,199.701L563.824,199.697L563.817,199.699L563.817,199.702L563.809,199.706L563.801,199.709L563.843,199.774L563.826,199.776L563.823,199.787L563.828,199.797L563.833,199.798L563.837,199.806L563.839,199.808L563.84,199.812L563.822,199.818L563.831,199.832L563.841,199.848L563.853,199.865L563.859,199.865L563.865,199.872L563.896,199.856L563.905,199.854L563.96,199.835L563.96,199.842L563.959,199.86L563.955,199.874L563.955,199.879L563.957,199.888L563.959,199.893L563.961,199.901L563.96,199.902L563.959,199.902L563.958,199.909L563.926,199.911L563.914,199.912L563.901,199.913L563.887,199.915L563.886,199.921L563.885,199.932L563.884,199.942L563.884,199.946L563.883,199.95L563.883,199.97L563.885,199.978L563.881,199.986L563.894,200.007L563.917,200.007L563.931,200.006L563.937,200.006L563.94,200.017L563.941,200.019L563.942,200.022L563.943,200.026L563.943,200.027L563.941,200.033L563.939,200.037L563.941,200.039L563.941,200.039L563.94,200.045L563.936,200.05L563.933,200.054L563.933,200.057L563.931,200.06L563.931,200.061L563.929,200.063L563.928,200.065L563.925,200.066L563.922,200.067L563.92,200.068L563.919,200.069L563.917,200.07L563.912,200.073L563.895,200.058L563.883,200.061L563.836,200.074L563.828,200.076L563.815,200.079L563.82,200.085L563.832,200.086L563.838,200.096L563.84,200.096L563.842,200.093L563.85,200.091L563.852,200.108L563.853,200.119L563.861,200.117L563.867,200.128L563.873,200.141L563.866,200.146L563.892,200.186L563.91,200.182L563.919,200.174L563.921,200.17L563.925,200.167L563.931,200.167L563.936,200.168L563.939,200.168L563.939,200.162L563.959,200.147L563.969,200.141L563.985,200.124L563.999,200.104L564.002,200.104L564.014,200.105L564.029,200.105L564.057,200.107L564.056,200.156L564.077,200.158L564.078,200.162L564.076,200.166L564.076,200.171L564.079,200.175L564.081,200.177L564.081,200.18L564.08,200.185L564.081,200.189L564.08,200.192L564.08,200.196L564.082,200.199L564.084,200.202L564.082,200.206L564.083,200.209L564.087,200.212L564.09,200.217L564.089,200.222L564.092,200.225L564.094,200.226L564.099,200.229L564.099,200.237L564.102,200.239L564.104,200.243L564.104,200.246L564.109,200.255L564.112,200.259L564.114,200.262L564.115,200.265L564.117,200.267L564.119,200.27L564.121,200.273L564.111,200.274L564.109,200.275L564.096,200.275L564.093,200.291L564.109,200.299L564.109,200.3L564.118,200.303L564.122,200.305L564.126,200.306L564.127,200.306L564.128,200.305L564.129,200.303L564.129,200.302L564.131,200.302L564.134,200.302L564.138,200.301L564.14,200.3L564.143,200.305L564.152,200.305L564.158,200.305L564.171,200.305L564.199,200.306L564.203,200.327L564.207,200.348L564.207,200.353L564.208,200.354L564.209,200.37L564.181,200.379L564.177,200.397L564.184,200.404L564.186,200.405L564.188,200.407L564.196,200.414L564.201,200.416L564.201,200.417L564.204,200.433L564.187,200.427L564.186,200.426L564.183,200.425L564.171,200.42L564.149,200.417L564.14,200.436L564.114,200.435L564.094,200.432L564.052,200.429L564.034,200.429L564.023,200.427L564.019,200.426L564.02,200.43L564.019,200.435L563.994,200.434L563.994,200.448L563.994,200.463L563.967,200.468L563.967,200.491L563.968,200.505L563.969,200.523L564.012,200.522L564.012,200.527L564.012,200.532L564.012,200.536L564.01,200.548L564.01,200.556L564.011,200.59L564.01,200.603L564.01,200.604L564.008,200.603L564.007,200.604L564.006,200.602L564.004,200.602L564.002,200.602L564.002,200.602L564.001,200.602L564,200.602L563.999,200.602L563.997,200.603L563.996,200.603L563.995,200.603L563.995,200.603L563.994,200.604L563.994,200.605L563.993,200.606L563.994,200.607L563.993,200.607L563.993,200.608L563.992,200.608L563.992,200.608L563.992,200.609L563.993,200.61L563.993,200.611L563.993,200.612L563.992,200.612L563.991,200.612L563.99,200.612L563.989,200.611L563.988,200.612L563.987,200.613L563.987,200.613L563.985,200.614L563.984,200.621L563.984,200.624L563.983,200.625L563.983,200.625L563.979,200.662L563.98,200.663L564.025,200.681L564.045,200.689L564.061,200.695L564.073,200.693L564.09,200.682L564.096,200.632L564.099,200.633L564.099,200.638L564.101,200.64L564.1,200.647L564.109,200.669L564.14,200.662L564.164,200.67L564.187,200.672L564.197,200.678L564.185,200.695L564.173,200.712L564.172,200.728L564.17,200.736L564.171,200.737L564.172,200.736L564.178,200.735L564.18,200.735L564.181,200.736L564.186,200.737L564.19,200.735L564.193,200.732L564.195,200.729L564.196,200.729L564.218,200.74L564.246,200.798L564.313,200.834L564.341,200.83L564.363,200.818L564.379,200.849L564.385,200.86L564.385,200.861L564.389,200.871L564.39,200.869L564.396,200.861L564.409,200.847L564.416,200.842L564.425,200.835L564.434,200.833L564.436,200.838L564.441,200.842L564.452,200.85L564.457,200.852L564.46,200.829L564.496,200.81L564.499,200.808L564.493,200.798L564.488,200.773L564.484,200.752L564.48,200.742L564.481,200.736L564.482,200.727L564.479,200.715L564.479,200.713L564.479,200.712L564.481,200.709L564.482,200.708L564.484,200.708L564.486,200.708L564.487,200.708L564.488,200.707L564.488,200.707L564.488,200.706L564.488,200.705L564.49,200.705L564.491,200.705L564.492,200.706L564.496,200.705L564.498,200.705L564.499,200.706L564.499,200.707L564.5,200.709L564.501,200.714L564.502,200.716L564.504,200.719L564.506,200.721L564.508,200.721L564.508,200.724L564.506,200.726L564.507,200.728L564.508,200.73L564.509,200.731L564.511,200.73L564.513,200.728L564.513,200.727L564.514,200.727L564.515,200.729L564.516,200.731L564.521,200.733L564.523,200.733L564.524,200.733L564.524,200.732L564.525,200.731L564.528,200.732L564.531,200.736L564.532,200.736L564.533,200.735L564.533,200.734L564.534,200.734L564.526,200.728L564.524,200.722L564.525,200.72L564.526,200.72L564.528,200.717L564.528,200.716L564.533,200.71L564.537,200.707L564.54,200.705L564.542,200.704L564.546,200.7L564.556,200.686L564.558,200.684L564.571,200.677L564.578,200.676L564.601,200.669L564.606,200.669L564.609,200.668L564.619,200.667L564.635,200.667L564.653,200.67L564.656,200.67L564.669,200.665L564.67,200.664L564.672,200.663L564.673,200.67L564.675,200.698L564.675,200.7L564.676,200.704L564.678,200.734L564.679,200.738L564.68,200.739L564.683,200.74L564.686,200.742L564.696,200.743L564.716,200.735L564.717,200.751L564.719,200.755L564.726,200.758L564.726,200.757L564.729,200.755L564.729,200.755L564.73,200.755L564.732,200.755L564.733,200.756L564.733,200.757L564.733,200.758L564.734,200.758L564.734,200.758L564.735,200.757L564.735,200.757L564.736,200.757L564.736,200.758L564.735,200.76L564.735,200.761L564.735,200.761L564.736,200.762L564.737,200.762L564.737,200.763L564.736,200.764L564.736,200.764L564.738,200.764L564.738,200.764L564.738,200.765L564.737,200.766L564.737,200.767L564.738,200.767L564.739,200.766L564.74,200.766L564.74,200.766L564.74,200.767L564.741,200.769L564.741,200.771L564.742,200.772L564.742,200.773L564.743,200.772L564.744,200.771L564.744,200.77L564.745,200.77L564.746,200.77L564.747,200.771L564.748,200.771L564.75,200.772L564.751,200.772L564.752,200.772L564.754,200.771L564.755,200.77L564.761,200.771L564.763,200.789L564.767,200.821L564.77,200.84L564.77,200.844L564.774,200.851L564.772,200.852L564.765,200.856L564.682,200.905L564.675,200.909L564.718,200.951L564.744,200.976L564.749,201.031L564.774,201.035L564.819,201.033L564.82,201.044L564.811,201.045L564.81,201.043L564.805,201.046L564.802,201.048L564.8,201.048L564.797,201.051L564.794,201.05L564.791,201.059L564.794,201.074L564.78,201.077L564.781,201.09L564.784,201.092L564.79,201.094L564.793,201.098L564.793,201.102L564.797,201.105L564.798,201.109L564.797,201.116L564.8,201.123L564.802,201.13L564.801,201.137L564.802,201.142L564.811,201.152L564.815,201.151L564.816,201.152L564.814,201.158L564.801,201.148L564.799,201.141L564.799,201.129L564.795,201.123L564.792,201.112L564.781,201.114L564.781,201.118L564.784,201.119L564.783,201.122L564.78,201.122L564.775,201.124L564.769,201.127L564.765,201.128L564.762,201.126L564.76,201.127L564.759,201.129L564.754,201.135L564.747,201.121L564.744,201.121L564.74,201.123L564.729,201.148L564.729,201.148L564.702,201.144L564.696,201.133L564.699,201.127L564.691,201.119L564.679,201.108L564.673,201.106L564.671,201.1L564.654,201.089L564.624,201.084L564.62,201.095L564.618,201.099L564.616,201.106L564.613,201.113L564.604,201.113L564.588,201.116L564.567,201.118L564.555,201.125L564.544,201.131L564.561,201.138L564.577,201.135L564.577,201.137L564.574,201.143L564.577,201.152L564.579,201.153L564.58,201.154L564.575,201.174L564.572,201.175L564.569,201.185L564.584,201.197L564.581,201.222L564.535,201.191L564.542,201.243L564.561,201.247L564.559,201.253L564.561,201.253L564.561,201.252L564.563,201.254L564.567,201.254L564.568,201.255L564.566,201.257L564.569,201.258L564.563,201.279L564.561,201.285L564.554,201.283L564.553,201.295L564.549,201.294L564.548,201.294L564.547,201.297L564.543,201.295L564.54,201.299L564.515,201.318L564.519,201.344L564.516,201.365L564.511,201.395L564.513,201.396L564.517,201.399L564.518,201.4L564.519,201.407L564.52,201.409L564.519,201.416L564.522,201.419L564.525,201.42L564.528,201.423L564.535,201.426L564.537,201.427L564.54,201.428L564.542,201.428L564.546,201.43L564.55,201.431L564.551,201.431L564.554,201.431L564.556,201.431L564.558,201.431L564.56,201.432L564.561,201.434L564.562,201.434L564.566,201.436L564.568,201.436L564.571,201.44L564.583,201.443L564.592,201.443L564.593,201.443L564.597,201.44L564.599,201.439L564.6,201.439L564.601,201.439L564.604,201.439L564.61,201.437L564.614,201.43L564.615,201.428L564.618,201.423L564.623,201.418L564.633,201.411L564.635,201.409L564.64,201.407L564.642,201.406L564.663,201.404L564.667,201.404L564.671,201.404L564.672,201.404L564.674,201.406L564.676,201.407L564.678,201.407L564.68,201.405L564.68,201.405L564.68,201.404L564.681,201.405L564.683,201.406L564.684,201.407L564.683,201.408L564.682,201.409L564.682,201.409L564.682,201.41L564.682,201.41L564.682,201.411L564.682,201.412L564.683,201.412L564.684,201.412L564.685,201.411L564.686,201.411L564.689,201.413L564.691,201.413L564.691,201.414L564.691,201.414L564.69,201.416L564.69,201.416L564.691,201.417L564.691,201.418L564.692,201.42L564.693,201.42L564.693,201.42L564.694,201.42L564.694,201.419L564.696,201.42L564.697,201.42L564.698,201.422L564.7,201.421L564.703,201.423L564.704,201.423L564.704,201.423L564.706,201.414L564.744,201.423L564.74,201.429L564.749,201.437L564.749,201.437L564.748,201.437L564.748,201.438L564.748,201.438L564.747,201.438L564.746,201.438L564.745,201.438L564.745,201.438L564.745,201.438L564.745,201.438L564.744,201.438L564.744,201.438L564.744,201.441L564.744,201.444L564.746,201.447L564.743,201.449L564.741,201.451L564.737,201.456L564.734,201.461L564.733,201.463L564.732,201.462L564.72,201.458L564.694,201.454L564.676,201.45L564.667,201.449L564.664,201.449L564.661,201.45L564.657,201.452L564.656,201.455L564.646,201.483L564.658,201.49L564.66,201.486L564.666,201.487L564.666,201.491L564.661,201.497L564.664,201.499L564.673,201.494L564.655,201.542L564.645,201.545L564.646,201.548L564.649,201.55L564.652,201.55L564.632,201.609L564.677,201.618L564.684,201.606L564.694,201.596L564.703,201.601L564.706,201.6L564.709,201.601L564.71,201.603L564.711,201.604L564.713,201.624L564.737,201.622L564.758,201.617L564.775,201.623L564.787,201.627L564.795,201.633L564.8,201.638L564.803,201.646L564.801,201.654L564.795,201.658L564.79,201.659L564.789,201.659L564.785,201.656L564.781,201.656L564.78,201.655L564.774,201.657L564.815,201.676L564.818,201.676L564.828,201.647L564.878,201.655L564.924,201.664L564.943,201.661L564.981,201.663L564.982,201.672L564.968,201.674L564.968,201.694L564.963,201.698L564.954,201.703L564.937,201.704L564.943,201.734L564.943,201.743L564.939,201.768L564.939,201.776L564.941,201.781L564.994,201.782L564.994,201.789L565.015,201.783L565.038,201.776L565.042,201.787L565.044,201.801L565.082,201.786L565.094,201.81L565.118,201.821L565.162,201.841L565.199,201.857L565.197,201.861L565.195,201.866L565.164,201.88L565.157,201.886L565.152,201.891L565.09,201.853L565.076,201.872L565.104,201.886L565.139,201.905L565.138,201.917L565.139,201.928L565.137,201.934L565.134,201.939L565.126,201.94L565.155,201.975L565.147,202.006L565.139,202.051L565.136,202.086L565.136,202.086L565.136,202.087L565.135,202.103L565.155,202.142L565.161,202.139L565.169,202.123L565.209,202.093L565.212,202.165L565.195,202.17L565.172,202.178L565.135,202.169L565.139,202.179L565.135,202.186L565.105,202.204L565.092,202.206L565.079,202.204L565.074,202.216L565.083,202.22L565.087,202.238L565.088,202.246L565.087,202.254L565.077,202.253L565.073,202.25L565.068,202.258L565.058,202.249L565.049,202.251L565.035,202.267L565.029,202.275L565.024,202.286L565.034,202.298L565.025,202.3L564.997,202.33L564.984,202.336L564.979,202.343L564.972,202.344L564.969,202.344L564.992,202.381L564.989,202.394L565.01,202.395L565.015,202.411L565.017,202.41L565.016,202.406L565.02,202.405L565.021,202.409L565.048,202.41L565.056,202.418L565.057,202.425L565.057,202.441L565.063,202.447L565.066,202.453L565.065,202.46L565.062,202.464L565.059,202.472L565.059,202.481L565.062,202.489L565.061,202.499L565.065,202.504L565.094,202.546L565.107,202.568L565.127,202.571L565.15,202.571L565.153,202.586L565.169,202.603L565.118,202.651L565.074,202.664L565.068,202.679L565.065,202.685L565.063,202.703L565.059,202.725L565.057,202.739L565.065,202.754L565.078,202.766L565.088,202.768L565.112,202.77L565.145,202.771L565.152,202.773L565.182,202.783L565.195,202.789L565.196,202.79L565.189,202.8L565.183,202.81L565.18,202.821L565.17,202.825L565.171,202.84L565.173,202.848L565.174,202.855L565.175,202.861L565.172,202.866L565.181,202.868L565.184,202.883L565.199,202.889L565.199,202.898L565.21,202.902L565.214,202.897L565.23,202.902L565.232,202.961L565.233,202.997L565.225,202.997L565.223,202.997L565.215,203.004L565.217,203.007L565.219,203.011L565.22,203.014L565.222,203.019L565.221,203.022L565.211,203.029L565.205,203.03L565.199,203.03L565.198,203.034L565.199,203.036L565.201,203.037L565.205,203.036L565.208,203.036L565.198,203.064L565.194,203.081L565.234,203.091L565.239,203.092L565.247,203.101L565.257,203.109L565.263,203.112L565.265,203.114L565.265,203.115L565.266,203.117L565.266,203.12L565.266,203.121L565.262,203.135L565.26,203.148L565.254,203.171L565.268,203.178L565.282,203.185L565.294,203.207L565.311,203.238L565.32,203.251L565.323,203.254L565.325,203.255L565.329,203.254L565.331,203.253L565.336,203.249L565.337,203.247L565.331,203.244L565.33,203.245L565.33,203.245L565.329,203.245L565.329,203.246L565.329,203.246L565.329,203.246L565.329,203.246L565.329,203.245L565.328,203.244L565.328,203.243L565.328,203.243L565.344,203.244L565.344,203.247L565.345,203.247L565.346,203.247L565.346,203.247L565.347,203.246L565.351,203.25L565.357,203.245L565.364,203.239L565.369,203.232L565.374,203.227L565.382,203.227L565.385,203.227L565.398,203.222L565.393,203.24L565.408,203.243L565.402,203.271L565.369,203.279L565.365,203.28L565.364,203.28L565.362,203.28L565.361,203.28L565.36,203.28L565.359,203.28L565.356,203.281L565.354,203.282L565.349,203.283L565.349,203.283L565.349,203.283L565.348,203.286L565.347,203.288L565.346,203.29L565.345,203.291L565.347,203.291L565.348,203.291L565.349,203.291L565.351,203.291L565.352,203.291L565.361,203.309L565.379,203.317L565.371,203.349L565.363,203.362L565.364,203.364L565.364,203.366L565.365,203.367L565.372,203.368L565.388,203.363L565.388,203.367L565.385,203.382L565.39,203.387L565.393,203.389L565.398,203.392L565.411,203.396L565.421,203.399L565.424,203.39L565.426,203.381L565.426,203.381L565.468,203.395L565.455,203.434L565.443,203.468L565.441,203.473L565.439,203.48L565.438,203.494L565.438,203.497L565.437,203.5L565.435,203.505L565.421,203.522L565.39,203.534L565.369,203.542L565.357,203.553L565.343,203.565L565.345,203.59L565.348,203.621L565.312,203.634L565.315,203.651L565.318,203.649L565.324,203.646L565.331,203.646L565.336,203.647L565.344,203.649L565.345,203.654L565.345,203.655L565.344,203.659L565.344,203.663L565.347,203.664L565.348,203.667L565.351,203.668L565.353,203.67L565.352,203.677L565.32,203.682L565.296,203.751L565.298,203.767L565.3,203.775L565.314,203.784L565.326,203.816L565.337,203.823L565.348,203.851L565.377,203.901L565.38,203.962L565.384,203.971L565.384,203.976L565.383,203.981L565.382,203.982L565.379,203.985L565.398,204.008L565.402,204.024L565.406,204.038L565.415,204.052L565.419,204.065L565.434,204.08L565.443,204.088L565.457,204.086L565.462,204.095L565.476,204.12L565.515,204.126L565.52,204.128L565.523,204.129L565.525,204.13L565.527,204.131L565.527,204.131L565.528,204.131L565.528,204.131L565.529,204.131L565.529,204.131L565.532,204.132L565.533,204.133L565.534,204.133L565.535,204.133L565.536,204.133L565.541,204.135L565.543,204.136L565.544,204.136L565.544,204.136L565.545,204.137L565.547,204.137L565.552,204.139L565.555,204.14L565.559,204.141L565.562,204.142L565.567,204.145L565.569,204.145L565.57,204.145L565.573,204.147L565.576,204.148L565.577,204.148L565.577,204.148L565.579,204.149L565.58,204.149L565.583,204.15L565.584,204.151L565.585,204.151L565.588,204.152L565.591,204.153L565.594,204.154L565.597,204.155L565.601,204.157L565.603,204.157L565.606,204.158L565.607,204.158L565.609,204.159L565.611,204.159L565.611,204.159L565.612,204.159L565.613,204.159L565.614,204.159L565.615,204.159L565.617,204.159L565.619,204.159L565.619,204.159L565.621,204.16L565.624,204.16L565.627,204.161L565.628,204.161L565.629,204.162L565.63,204.162L565.63,204.162L565.63,204.162L565.631,204.162L565.631,204.162L565.631,204.162L565.631,204.162L565.632,204.162L565.632,204.162L565.632,204.162L565.635,204.16L565.637,204.159L565.638,204.158L565.639,204.157L565.64,204.156L565.641,204.156L565.642,204.155L565.644,204.154L565.646,204.152L565.649,204.15L565.65,204.149L565.654,204.147L565.655,204.146L565.658,204.144L565.661,204.141L565.665,204.139L565.667,204.137L565.671,204.135L565.671,204.135L565.671,204.135L565.671,204.134L565.671,204.134L565.672,204.134L565.672,204.134L565.672,204.133L565.674,204.132L565.676,204.131L565.678,204.13L565.679,204.129L565.68,204.128L565.68,204.128L565.681,204.127L565.682,204.127L565.684,204.126L565.685,204.125L565.685,204.125L565.685,204.125L565.685,204.125L565.686,204.124L565.686,204.124L565.686,204.124L565.687,204.123L565.688,204.123L565.69,204.122L565.691,204.122L565.692,204.121L565.693,204.121L565.695,204.12L565.697,204.119L565.699,204.118L565.701,204.118L565.702,204.117L565.703,204.117L565.704,204.116L565.705,204.116L565.706,204.116L565.707,204.116L565.707,204.115L565.708,204.115L565.708,204.115L565.708,204.115L565.708,204.115L565.708,204.115L565.708,204.115L565.709,204.115L565.709,204.116L565.709,204.116L565.709,204.116L565.709,204.116L565.709,204.116L565.709,204.116L565.71,204.115L565.71,204.115L565.71,204.115L565.71,204.114L565.71,204.114L565.71,204.114L565.711,204.114L565.711,204.114L565.711,204.114L565.711,204.114L565.712,204.114L565.712,204.114L565.712,204.113L565.713,204.113L565.713,204.113L565.713,204.113L565.713,204.113L565.714,204.112L565.714,204.112L565.715,204.112L565.715,204.111L565.716,204.111L565.716,204.111L565.717,204.111L565.718,204.11L565.719,204.11L565.72,204.11L565.722,204.109L565.723,204.108L565.725,204.108L565.726,204.108L565.727,204.107L565.728,204.107L565.729,204.107L565.73,204.107L565.731,204.107L565.732,204.107L565.732,204.107L565.733,204.107L565.734,204.107L565.735,204.107L565.736,204.107L565.736,204.107L565.737,204.107L565.738,204.107L565.738,204.107L565.738,204.107L565.738,204.107L565.738,204.107L565.738,204.107L565.739,204.107L565.739,204.107L565.739,204.107L565.741,204.108L565.749,204.108L565.778,204.114L565.779,204.115L565.78,204.115L565.782,204.115L565.784,204.115L565.785,204.115L565.787,204.115L565.787,204.115L565.788,204.115L565.791,204.116L565.794,204.116L565.796,204.116L565.798,204.117L565.799,204.117L565.8,204.117L565.801,204.118L565.802,204.118L565.804,204.119L565.805,204.119L565.806,204.12L565.807,204.12L565.808,204.12L565.808,204.121L565.809,204.121L565.811,204.122L565.813,204.123L565.815,204.123L565.817,204.124L565.819,204.125L565.821,204.126L565.821,204.126L565.824,204.127L565.827,204.129L565.83,204.13L565.832,204.131L565.832,204.131L565.833,204.132L565.834,204.132L565.834,204.132L565.836,204.133L565.841,204.135L565.843,204.136L565.846,204.137L565.847,204.138L565.85,204.139L565.85,204.139L565.852,204.14L565.854,204.141L565.856,204.142L565.858,204.142L565.861,204.144L565.865,204.146L565.867,204.147L565.868,204.147L565.869,204.148L565.872,204.149L565.873,204.149L565.873,204.149L565.879,204.152L565.882,204.154L565.885,204.155L565.886,204.156L565.888,204.156L565.889,204.156L565.89,204.157L565.894,204.158L565.897,204.159L565.9,204.159L565.902,204.16L565.902,204.16L565.904,204.16L565.908,204.161L565.909,204.161L565.913,204.162L565.918,204.163L565.919,204.163L565.92,204.163L565.921,204.164L565.924,204.164L565.931,204.166L565.933,204.166L565.934,204.166L565.936,204.167L565.938,204.167L565.939,204.167L565.94,204.167L565.942,204.168L565.942,204.168L565.943,204.168L565.943,204.168L565.944,204.167L565.944,204.167L565.945,204.167L565.945,204.167L565.946,204.167L565.947,204.168L565.949,204.168L565.951,204.168L565.954,204.169L565.955,204.169L565.956,204.169L566.018,204.176L566.018,204.176L566.017,204.176L566.017,204.176L566.016,204.177L566.015,204.177L566.015,204.178L566.014,204.179L566.013,204.18L566.012,204.182L566.01,204.183L566.01,204.184L566.01,204.184L566.009,204.185L566.009,204.185L566.009,204.186L566.008,204.187L566.008,204.187L566.007,204.188L566.007,204.189L566.006,204.19L566.004,204.192L566.003,204.193L566.002,204.194L566.002,204.194L566.001,204.196L566,204.196L565.999,204.198L565.998,204.199L565.997,204.2L565.996,204.202L565.995,204.202L565.995,204.202L565.995,204.203L565.995,204.203L565.993,204.204L565.992,204.206L565.991,204.207L565.99,204.208L565.989,204.21L565.987,204.212L565.986,204.213L565.986,204.213L565.986,204.213L565.986,204.213L565.986,204.214L565.986,204.214L565.987,204.215L565.987,204.217L565.989,204.219L565.99,204.221L565.992,204.225L565.993,204.227L565.993,204.229L565.994,204.229L565.994,204.23L565.995,204.23L565.995,204.231L565.995,204.232L565.996,204.233L565.997,204.235L565.997,204.236L565.998,204.237L565.998,204.237L565.998,204.237L565.998,204.237L565.998,204.237L565.999,204.238L565.999,204.24L566,204.242L566.002,204.245L566.003,204.248L566.005,204.251L566.007,204.256L566.008,204.256L566.008,204.258L566.009,204.259L566.01,204.261L566.011,204.262L566.011,204.263L566.012,204.265L566.013,204.267L566.015,204.269L566.016,204.271L566.016,204.272L566.018,204.275L566.019,204.277L566.019,204.277L566.019,204.277L566.019,204.277L566.019,204.278L566.019,204.278L566.019,204.278L566.021,204.281L566.022,204.283L566.022,204.284L566.022,204.285L566.023,204.286L566.023,204.286L566.023,204.287L566.023,204.288L566.023,204.288L566.023,204.288L566.023,204.289L566.024,204.289L566.024,204.289L566.024,204.29L566.024,204.291L566.024,204.292L566.025,204.293L566.025,204.295L566.025,204.295L566.026,204.296L566.026,204.296L566.026,204.296L566.026,204.296L566.026,204.297L566.026,204.297L566.026,204.297L566.026,204.298L566.027,204.299L566.027,204.3L566.027,204.301L566.028,204.302L566.028,204.304L566.029,204.305L566.029,204.307L566.03,204.308L566.03,204.309L566.03,204.31L566.03,204.311L566.031,204.311L566.031,204.312L566.031,204.314L566.032,204.316L566.032,204.316L566.032,204.317L566.033,204.318L566.033,204.318L566.033,204.319L566.033,204.321L566.034,204.322L566.034,204.323L566.035,204.325L566.035,204.326L566.036,204.328L566.036,204.33L566.036,204.331L566.037,204.332L566.037,204.334L566.038,204.335L566.038,204.337L566.039,204.339L566.039,204.341L566.04,204.342L566.04,204.343L566.04,204.344L566.041,204.345L566.041,204.346L566.041,204.348L566.042,204.35L566.043,204.351L566.043,204.353L566.044,204.354L566.044,204.356L566.044,204.357L566.045,204.358L566.045,204.361L566.048,204.369L566.049,204.372L566.049,204.372L566.049,204.373L566.049,204.373L566.049,204.373L566.05,204.374L566.05,204.375L566.05,204.375L566.05,204.376L566.05,204.377L566.051,204.378L566.051,204.378L566.051,204.378L566.051,204.378L566.051,204.379L566.051,204.379L566.052,204.38L566.052,204.38L566.052,204.381L566.052,204.381L566.052,204.381L566.052,204.382L566.052,204.384L566.053,204.385L566.053,204.386L566.054,204.39L566.054,204.39L566.054,204.391L566.055,204.393L566.056,204.394L566.056,204.395L566.056,204.396L566.056,204.397L566.057,204.398L566.057,204.399L566.057,204.399L566.057,204.4L566.058,204.401L566.058,204.401L566.058,204.402L566.058,204.402L566.058,204.403L566.058,204.403L566.058,204.403L566.059,204.403L566.059,204.403L566.059,204.403L566.059,204.404L566.059,204.404L566.059,204.405L566.059,204.405L566.059,204.406L566.059,204.407L566.06,204.408L566.06,204.41L566.06,204.41L566.06,204.41L566.06,204.411L566.061,204.414L566.062,204.416L566.062,204.417L566.062,204.418L566.062,204.418L566.062,204.418L566.063,204.419L566.063,204.419L566.063,204.419L566.063,204.42L566.063,204.42L566.063,204.42L566.063,204.421L566.063,204.422L566.063,204.422L566.063,204.423L566.064,204.425L566.064,204.426L566.064,204.428L566.065,204.429L566.065,204.43L566.065,204.431L566.066,204.432L566.067,204.433L566.068,204.435L566.069,204.436L566.07,204.438L566.07,204.439L566.071,204.439L566.071,204.44L566.073,204.442L566.074,204.444L566.074,204.444L566.075,204.445L566.075,204.445L566.075,204.445L566.076,204.447L566.077,204.448L566.077,204.448L566.078,204.449L566.079,204.45L566.079,204.45L566.079,204.451L566.079,204.451L566.08,204.452L566.08,204.453L566.081,204.453L566.081,204.454L566.081,204.454L566.082,204.455L566.083,204.456L566.083,204.457L566.084,204.457L566.084,204.458L566.084,204.459L566.085,204.459L566.086,204.46L566.086,204.461L566.086,204.461L566.087,204.463L566.088,204.464L566.089,204.466L566.09,204.467L566.09,204.467L566.091,204.469L566.092,204.47L566.093,204.472L566.094,204.473L566.095,204.474L566.096,204.475L566.097,204.477L566.097,204.477L566.098,204.478L566.099,204.48L566.1,204.481L566.1,204.481L566.1,204.481L566.1,204.481L566.126,204.485L566.129,204.486L566.133,204.487L566.137,204.487L566.141,204.488L566.144,204.488L566.144,204.488L566.144,204.489L566.145,204.489L566.145,204.49L566.147,204.492L566.15,204.494L566.151,204.496L566.151,204.496L566.151,204.496L566.153,204.499L566.155,204.501L566.156,204.502L566.158,204.504L566.158,204.504L566.159,204.505L566.16,204.506L566.16,204.506L566.161,204.507L566.161,204.507L566.162,204.507L566.162,204.507L566.163,204.507L566.164,204.507L566.165,204.507L566.165,204.507L566.166,204.507L566.169,204.506L566.172,204.506L566.175,204.505L566.176,204.505L566.177,204.505L566.177,204.505L566.178,204.505L566.178,204.505L566.178,204.505L566.179,204.505L566.179,204.505L566.179,204.505L566.18,204.505L566.18,204.505L566.181,204.505L566.182,204.505L566.182,204.505L566.182,204.505L566.182,204.504L566.183,204.504L566.184,204.504L566.188,204.503L566.19,204.503L566.191,204.503L566.191,204.503L566.193,204.504L566.194,204.504L566.195,204.504L566.196,204.505L566.197,204.505L566.198,204.505L566.2,204.506L566.202,204.507L566.204,204.507L566.206,204.508L566.208,204.509L566.209,204.51L566.212,204.51L566.215,204.512L566.217,204.512L566.218,204.513L566.218,204.513L566.218,204.513L566.218,204.513L566.218,204.513L566.219,204.514L566.221,204.514L566.222,204.515L566.222,204.515L566.223,204.515L566.224,204.516L566.226,204.517L566.227,204.517L566.228,204.517L566.229,204.518L566.23,204.518L566.234,204.52L566.236,204.521L566.237,204.521L566.237,204.521L566.238,204.521L566.239,204.521L566.242,204.523L566.245,204.524L566.247,204.525L566.248,204.525L566.249,204.526L566.249,204.526L566.249,204.526L566.25,204.526L566.25,204.526L566.251,204.526L566.251,204.527L566.255,204.531L566.256,204.533L566.258,204.536L566.259,204.537L566.261,204.538L566.262,204.54L566.264,204.542L566.266,204.544L566.267,204.545L566.268,204.546L566.269,204.547L566.269,204.547L566.27,204.549L566.271,204.55L566.272,204.551L566.273,204.552L566.274,204.553L566.275,204.554L566.276,204.554L566.277,204.555L566.278,204.556L566.278,204.556L566.278,204.556L566.279,204.557L566.279,204.557L566.279,204.557L566.28,204.559L566.28,204.559L566.28,204.56L566.28,204.56L566.28,204.561L566.281,204.561L566.281,204.562L566.282,204.563L566.283,204.564L566.285,204.566L566.286,204.568L566.287,204.569L566.287,204.569L566.288,204.569L566.288,204.57L566.288,204.571L566.289,204.571L566.291,204.573L566.292,204.575L566.293,204.576L566.294,204.577L566.294,204.578L566.296,204.579L566.297,204.58L566.299,204.582L566.3,204.583L566.3,204.584L566.301,204.584L566.301,204.585L566.303,204.587L566.304,204.588L566.306,204.589L566.307,204.591L566.309,204.593L566.31,204.594L566.31,204.594L566.31,204.594L566.311,204.595L566.312,204.596L566.313,204.597L566.314,204.598L566.316,204.6L566.317,204.601L566.317,204.602L566.319,204.603L566.32,204.603L566.32,204.604L566.321,204.604L566.321,204.604L566.323,204.606L566.324,204.607L566.325,204.608L566.328,204.611L566.33,204.614L566.333,204.616L566.335,204.619L566.338,204.621L566.344,204.627L566.348,204.626L566.348,204.626L566.349,204.626L566.349,204.626L566.349,204.626L566.35,204.625L566.35,204.625L566.35,204.625L566.351,204.625L566.351,204.625L566.352,204.625L566.352,204.625L566.354,204.625L566.358,204.624L566.359,204.623L566.36,204.623L566.361,204.622L566.361,204.622L566.362,204.622L566.363,204.622L566.363,204.621L566.365,204.621L566.367,204.62L566.367,204.62L566.367,204.62L566.369,204.62L566.371,204.619L566.372,204.619L566.373,204.618L566.375,204.618L566.377,204.617L566.379,204.617L566.38,204.617L566.383,204.616L566.383,204.616L566.384,204.616L566.384,204.615L566.385,204.615L566.387,204.614L566.39,204.614L566.391,204.613L566.392,204.613L566.392,204.613L566.392,204.613L566.393,204.613L566.394,204.613L566.395,204.612L566.396,204.612L566.398,204.612L566.398,204.612L566.398,204.612L566.399,204.612L566.401,204.612L566.402,204.612L566.403,204.613L566.404,204.613L566.405,204.613L566.409,204.614L566.415,204.615L566.416,204.616L566.417,204.616L566.418,204.616L566.42,204.617L566.422,204.617L566.424,204.617L566.426,204.618L566.429,204.618L566.432,204.619L566.434,204.62L566.436,204.62L566.437,204.62L566.439,204.621L566.442,204.621L566.443,204.621L566.445,204.622L566.448,204.622L566.449,204.623L566.449,204.623L566.451,204.623L566.453,204.623L566.455,204.623L566.456,204.623L566.458,204.623L566.464,204.624L566.467,204.624L566.468,204.624L566.471,204.624L566.474,204.625L566.477,204.625L566.481,204.625L566.484,204.626L566.485,204.626L566.486,204.626L566.486,204.626L566.487,204.625L566.491,204.623L566.494,204.622L566.496,204.621L566.496,204.62L566.496,204.62L566.497,204.62L566.498,204.619L566.5,204.618L566.502,204.617L566.506,204.615L566.508,204.614L566.511,204.612L566.513,204.611L566.517,204.609L566.521,204.607L566.524,204.605L566.527,204.604L566.527,204.603L566.528,204.603L566.528,204.603L566.528,204.602L566.529,204.602L566.529,204.601L566.529,204.601L566.529,204.601L566.529,204.601L566.53,204.6L566.53,204.6L566.53,204.6L566.53,204.6L566.531,204.601L566.532,204.601L566.532,204.601L566.532,204.601L566.533,204.6L566.534,204.6L566.536,204.598L566.538,204.597L566.541,204.596L566.543,204.595L566.546,204.593L566.549,204.592L566.553,204.589L566.554,204.589L566.554,204.589L566.555,204.589L566.555,204.589L566.555,204.588L566.556,204.588L566.556,204.587L566.557,204.587L566.558,204.586L566.558,204.586L566.558,204.585L566.559,204.584L566.56,204.582L566.561,204.581L566.562,204.578L566.564,204.574L566.565,204.57L566.566,204.569L566.566,204.569L566.566,204.569L566.566,204.568L566.566,204.568L566.566,204.568L566.567,204.568L566.567,204.567L566.567,204.567L566.568,204.565L566.569,204.564L566.569,204.564L566.569,204.563L566.569,204.563L566.569,204.563L566.569,204.563L566.569,204.563L566.569,204.562L566.569,204.562L566.569,204.562L566.569,204.562L566.57,204.561L566.57,204.559L566.571,204.557L566.572,204.555L566.573,204.554L566.573,204.553L566.574,204.552L566.575,204.549L566.576,204.547L566.576,204.546L566.577,204.546L566.577,204.545L566.577,204.544L566.578,204.542L566.579,204.54L566.58,204.54L566.58,204.538L566.581,204.538L566.581,204.536L566.582,204.534L566.582,204.534L566.583,204.533L566.583,204.533L566.583,204.533L566.583,204.532L566.583,204.532L566.583,204.532L566.583,204.532L566.584,204.531L566.585,204.529L566.585,204.528L566.586,204.527L566.586,204.526L566.586,204.526L566.651,204.517L566.651,204.517L566.691,204.511L566.763,204.502L566.775,204.522L566.892,204.476L566.903,204.471L566.918,204.44L566.933,204.412L566.934,204.409L566.971,204.423L567.021,204.442L567.041,204.443L567.041,204.443L567.129,204.447L567.164,204.469L567.231,204.512L567.239,204.518L567.246,204.522L567.279,204.544L567.281,204.545L567.282,204.546L567.283,204.546L567.285,204.548L567.286,204.549L567.288,204.55L567.291,204.552L567.293,204.552L567.296,204.553L567.298,204.553L567.299,204.553L567.364,204.563L567.384,204.566L567.436,204.573L567.492,204.561L567.492,204.561L567.514,204.558L567.56,204.577L567.582,204.569L567.602,204.507L567.601,204.507L567.613,204.485L567.624,204.466L567.627,204.462L567.655,204.433L567.66,204.43L567.68,204.428L567.691,204.428L567.733,204.424L567.737,204.406L567.728,204.404L567.722,204.41L567.693,204.408L567.7,204.391L567.728,204.332L567.763,204.336L567.77,204.337L567.801,204.341L567.867,204.35L567.867,204.35L567.867,204.347L567.965,204.347L567.965,204.301L567.993,204.301L567.993,204.272L567.993,204.267L567.993,204.259L568.088,204.26L568.115,204.26L568.137,204.26L568.202,204.261L568.229,204.224L568.24,204.207L568.268,204.168L568.275,204.158L568.316,204.09L568.34,204.05L568.345,204.037L568.351,204.02L568.354,204.008L568.357,204.008L568.361,204.009L568.364,204.011L568.367,204.012L568.371,204.012L568.375,204.011L568.389,204.008L568.397,204.006L568.401,204.005L568.41,203.986L568.412,203.981L568.411,203.963L568.402,203.831L568.444,203.71L568.47,203.634L568.473,203.629L568.482,203.621L568.513,203.589L568.571,203.534L568.574,203.531L568.575,203.531L568.577,203.528L568.652,203.458L568.654,203.457L568.655,203.456L568.686,203.452L568.727,203.446L568.754,203.442L568.782,203.438L568.83,203.431L568.844,203.376L568.875,203.363L568.897,203.309L568.919,203.3L568.974,203.276L568.973,203.191L568.955,203.155L568.936,203.136L568.913,203.113L568.909,203.11L568.9,203.105L568.898,203.104L568.815,203.063L568.832,203.038L568.833,203.036L568.845,203.02L568.841,203.018L568.844,203.013L568.847,203.016L568.856,203.004L568.856,203.004L568.869,202.985L568.871,202.982L568.887,202.959L568.898,202.944L568.901,202.942L568.918,202.93L568.955,202.963L568.958,202.959L568.965,202.968L568.982,202.968L568.991,202.964L569.002,202.96L568.97,202.896L568.975,202.891L568.983,202.885L568.988,202.883L569.021,202.861L569.027,202.856L569.029,202.854L569.036,202.841L569.048,202.82L569.052,202.812L569.062,202.794L569.066,202.787L569.069,202.783L569.075,202.769L569.081,202.762L569.151,202.638L569.16,202.623L569.181,202.584L569.189,202.569L569.204,202.543L569.187,202.484L569.179,202.456L569.161,202.393L569.127,202.339L569.126,202.338L569.116,202.321L569.109,202.31L569.095,202.286L569.078,202.258L569.05,202.213L569.034,202.187L569.05,202.162L569.065,202.14L569.065,202.14L569.083,202.112L569.084,202.112L569.099,202.088L569.146,202.017L569.232,201.989L569.206,201.923L569.196,201.898L569.182,201.899L569.147,201.901L569.145,201.901L569.08,201.905L569.036,201.834L569.026,201.817L569.022,201.812L569.022,201.811L568.922,201.647L568.911,201.628L568.81,201.543L568.805,201.539L568.804,201.538L568.793,201.529L568.792,201.528L568.792,201.528L568.781,201.524L568.78,201.524L568.747,201.51L568.727,201.502L568.726,201.501L568.716,201.497L568.715,201.497L568.708,201.494L568.694,201.489L568.675,201.483L568.676,201.477L568.643,201.469L568.631,201.466L568.614,201.462L568.615,201.457L568.742,201.4L568.759,201.392L568.775,201.385L568.813,201.368L568.827,201.361L568.835,201.357L568.849,201.351L568.86,201.346L568.874,201.34L568.883,201.337L568.894,201.334L568.906,201.33L568.917,201.327L568.921,201.326L568.926,201.324L568.933,201.32L568.936,201.318L568.939,201.315L568.955,201.305L568.955,201.305L568.96,201.302L568.971,201.294L568.987,201.283L568.989,201.284L568.991,201.284L569.02,201.301L569.034,201.31L569.035,201.305L569.037,201.286L569.037,201.284L569.039,201.268L569.04,201.26L569.042,201.217L569.034,201.197L569.031,201.158L569.039,201.146L569.045,201.134L569.047,201.11L569.046,201.108L569.046,201.107L569.047,201.105L569.047,201.104L569.047,201.091L569.047,201.089L569.048,201.087L569.049,201.087L569.049,201.086L569.05,201.086L569.05,201.085L569.05,201.085L569.05,201.084L569.05,201.084L569.051,201.084L569.051,201.083L569.051,201.083L569.051,201.082L569.051,201.082L569.052,201.081L569.052,201.081L569.052,201.081L569.053,201.081L569.054,201.081L569.054,201.081L569.055,201.08L569.055,201.08L569.056,201.079L569.057,201.078L569.057,201.078L569.058,201.077L569.058,201.077L569.058,201.076L569.059,201.076L569.06,201.075L569.06,201.075L569.06,201.074L569.059,201.073L569.059,201.073L569.059,201.072L569.06,201.072L569.06,201.071L569.061,201.071L569.061,201.07L569.061,201.068L569.063,201.066L569.063,201.065L569.064,201.064L569.064,201.063L569.065,201.063L569.066,201.064L569.066,201.064L569.067,201.064L569.068,201.063L569.069,201.061L569.07,201.061L569.07,201.061L569.071,201.061L569.071,201.061L569.072,201.061L569.072,201.06L569.073,201.059L569.075,201.058L569.078,201.058L569.079,201.058L569.08,201.057L569.08,201.056L569.079,201.055L569.08,201.054L569.08,201.053L569.08,201.053L569.081,201.052L569.082,201.051L569.083,201.051L569.084,201.05L569.084,201.049L569.088,201.046L569.088,201.045L569.089,201.045L569.089,201.044L569.089,201.044L569.09,201.043L569.09,201.043L569.091,201.042L569.091,201.042L569.091,201.039L569.091,201.036L569.091,201.036L569.092,201.034L569.093,201.032L569.093,201.031L569.094,201.031L569.094,201.029L569.094,201.028L569.094,201.028L569.095,201.028L569.096,201.027L569.097,201.026L569.097,201.025L569.097,201.024L569.097,201.024L569.098,201.022L569.1,201.021L569.102,201.02L569.104,201.019L569.107,201.018L569.109,201.018L569.111,201.016L569.116,201.009L569.118,201.006L569.121,201.001L569.121,201L569.121,200.999L569.121,200.995L569.131,200.993L569.139,200.991L569.147,200.988L569.152,200.987L569.178,200.986L569.181,200.986L569.197,201.003L569.208,201.009L569.223,201.002L569.228,200.988L569.229,200.976L569.235,200.973L569.243,200.969L569.307,200.935L569.346,200.914L569.35,200.913L569.357,200.912L569.357,200.909L569.362,200.907L569.376,200.906L569.392,200.903L569.42,200.898L569.436,200.896L569.472,200.887L569.474,200.886L569.476,200.881L569.479,200.87L569.494,200.865L569.507,200.86L569.51,200.856L569.516,200.851L569.528,200.854L569.543,200.858L569.555,200.859L569.568,200.855L569.58,200.849L569.585,200.846L569.596,200.835L569.614,200.827L569.621,200.825L569.624,200.824L569.623,200.822L569.623,200.821L569.625,200.82L569.627,200.819L569.627,200.818L569.623,200.812L569.62,200.811L569.609,200.807L569.627,200.789L569.624,200.787L569.629,200.78L569.641,200.78L569.646,200.777L569.647,200.772L569.649,200.766L569.652,200.762L569.654,200.758L569.652,200.752L569.647,200.75L569.646,200.744L569.647,200.739L569.649,200.733L569.651,200.726L569.661,200.654L569.7,200.553L569.763,200.445L569.773,200.437L569.8,200.414L569.816,200.401L569.88,200.351L569.906,200.344L569.907,200.347L569.909,200.348L569.91,200.348L569.911,200.349L569.915,200.35L569.918,200.35L569.92,200.349L569.921,200.347L569.923,200.347L569.928,200.348L569.933,200.348L569.935,200.348L569.938,200.347L569.942,200.348L569.944,200.349L569.947,200.353L569.95,200.357L569.952,200.359L569.953,200.36L569.96,200.36L569.962,200.362L569.962,200.364L569.961,200.365L569.959,200.366L569.959,200.368L569.959,200.37L569.96,200.37L569.961,200.37L569.963,200.369L569.964,200.37L569.964,200.372L569.965,200.375L569.965,200.376L569.964,200.376L569.965,200.379L569.967,200.383L569.971,200.385L569.972,200.388L569.972,200.39L569.971,200.392L569.971,200.394L569.972,200.396L569.974,200.397L569.975,200.397L569.976,200.396L569.979,200.396L569.982,200.396L569.985,200.399L569.987,200.401L569.993,200.404L569.998,200.404L570.001,200.404L570.001,200.405L570.002,200.406L570.001,200.407L570.001,200.408L570.003,200.411L570.004,200.411L570.005,200.412L570.007,200.411L570.009,200.407L570.011,200.406L570.014,200.405L570.018,200.406L570.023,200.41L570.024,200.412L570.026,200.414L570.027,200.415L570.028,200.414L570.029,200.414L570.031,200.415L570.032,200.414L570.033,200.414L570.034,200.413L570.035,200.413L570.035,200.413L570.036,200.414L570.037,200.415L570.038,200.415L570.039,200.414L570.04,200.413L570.041,200.414L570.042,200.415L570.042,200.415L570.045,200.417L570.045,200.418L570.044,200.419L570.044,200.421L570.045,200.422L570.046,200.423L570.046,200.423L570.047,200.421L570.048,200.42L570.049,200.42L570.05,200.42L570.051,200.421L570.053,200.422L570.055,200.423L570.058,200.425L570.058,200.424L570.059,200.423L570.061,200.423L570.062,200.424L570.086,200.439L570.088,200.44L570.146,200.474L570.291,200.506L570.355,200.497L570.399,200.499L570.461,200.502L570.468,200.502L570.468,200.502L570.49,200.503L570.632,200.461L570.693,200.443L570.694,200.443L570.705,200.44L570.712,200.461L570.713,200.463L570.724,200.481L570.767,200.483L570.796,200.484L570.798,200.483L570.804,200.484L570.808,200.486L570.819,200.486L570.863,200.484L570.894,200.484L570.922,200.483L570.993,200.46L571.021,200.404L571.037,200.371L571.045,200.354L571.05,200.343L571.062,200.323L571.08,200.286L571.097,200.265L571.117,200.248L571.123,200.241L571.124,200.24L571.129,200.236L571.146,200.227L571.181,200.209L571.2,200.213L571.248,200.238L571.25,200.239L571.26,200.237L571.426,200.217L571.468,200.248L571.476,200.24L571.478,200.231L571.482,200.22L571.484,200.2L571.502,200.202L571.508,200.204L571.51,200.212L571.522,200.215L571.553,200.196L571.556,200.193L571.563,200.19L571.569,200.186L571.579,200.157L571.577,200.154L571.574,200.152L571.572,200.148L571.569,200.146L571.567,200.145L571.565,200.146L571.562,200.146L571.56,200.146L571.548,200.135L571.541,200.129L571.533,200.124L571.526,200.12L571.508,200.105L571.47,200.068L571.43,200.025L571.422,200.004L571.406,199.966L571.413,199.927L571.415,199.914L571.423,199.914L571.434,199.81L571.416,199.796L571.391,199.825L571.388,199.823L571.383,199.813L571.377,199.804L571.34,199.739L571.339,199.737L571.331,199.723L571.331,199.717L571.322,199.711L571.319,199.704L571.306,199.682L571.299,199.669L571.266,199.613L571.253,199.587L571.251,199.555L571.052,199.453L571.03,199.445L571.008,199.442L570.961,199.433L570.949,199.433L570.944,199.433L570.943,199.432L570.944,199.43L570.945,199.427L570.946,199.423L570.945,199.422L570.945,199.42L570.945,199.42L570.944,199.42L570.944,199.419L570.943,199.419L570.942,199.418L570.94,199.415L570.94,199.409L570.94,199.404L570.938,199.401L570.938,199.393L570.931,199.381L570.93,199.376L570.931,199.37L570.925,199.367L570.92,199.361L570.916,199.354L570.917,199.349L570.918,199.345L570.918,199.341L570.915,199.338L570.913,199.335L570.912,199.331L570.911,199.325L570.905,199.327L570.898,199.327L570.892,199.327L570.881,199.31L570.87,199.283L570.868,199.278L570.868,199.277L570.836,199.286L570.832,199.286L570.805,199.183L570.709,199.203L570.69,199.22L570.628,199.287L570.603,199.272L570.594,199.281L570.586,199.284L570.574,199.299L570.571,199.296L570.507,199.231L570.499,199.218L570.498,199.217L570.497,199.215L570.496,199.216L570.495,199.216L570.493,199.216L570.49,199.217L570.489,199.218L570.494,199.218L570.492,199.223L570.49,199.225L570.491,199.227L570.491,199.23L570.491,199.234L570.491,199.235L570.491,199.238L570.488,199.241L570.485,199.244L570.479,199.251L570.477,199.251L570.471,199.248L570.466,199.247L570.465,199.245L570.464,199.243L570.464,199.241L570.463,199.242L570.46,199.242L570.457,199.242L570.455,199.242L570.452,199.244L570.45,199.242L570.449,199.244L570.448,199.245L570.447,199.247L570.448,199.25L570.447,199.252L570.445,199.254L570.444,199.256L570.444,199.256L570.444,199.258L570.443,199.26L570.443,199.261L570.442,199.262L570.442,199.263L570.442,199.262L570.441,199.257L570.441,199.253L570.441,199.252L570.442,199.249L570.443,199.245L570.445,199.244L570.446,199.243L570.448,199.242L570.449,199.242L570.449,199.24L570.449,199.24L570.448,199.239L570.446,199.238L570.443,199.236L570.442,199.235L570.442,199.234L570.442,199.233L570.442,199.232L570.443,199.23L570.444,199.229L570.446,199.228L570.449,199.228L570.45,199.228L570.452,199.228L570.453,199.227L570.454,199.227L570.456,199.223L570.457,199.22L570.457,199.217L570.456,199.215L570.455,199.213L570.456,199.212L570.457,199.21L570.457,199.209L570.456,199.208L570.456,199.207L570.455,199.207L570.453,199.206L570.452,199.205L570.452,199.204L570.451,199.204L570.451,199.203L570.452,199.202L570.452,199.201L570.454,199.201L570.456,199.202L570.457,199.202L570.458,199.202L570.462,199.2L570.463,199.2L570.464,199.199L570.465,199.198L570.465,199.197L570.464,199.195L570.463,199.194L570.46,199.192L570.459,199.19L570.458,199.188L570.457,199.187L570.457,199.185L570.457,199.184L570.457,199.18L570.457,199.178L570.457,199.173L570.458,199.172L570.459,199.171L570.46,199.171L570.461,199.17L570.462,199.17L570.462,199.17L570.463,199.168L570.463,199.167L570.464,199.166L570.465,199.165L570.468,199.164L570.468,199.163L570.469,199.162L570.47,199.161L570.47,199.161L570.47,199.16L570.47,199.159L570.47,199.158L570.469,199.156L570.467,199.154L570.464,199.151L570.461,199.147L570.46,199.144L570.457,199.14L570.456,199.138L570.455,199.136L570.455,199.136L570.454,199.134L570.453,199.132L570.452,199.131L570.45,199.127L570.449,199.125L570.449,199.122L570.448,199.12L570.448,199.119L570.448,199.118L570.449,199.116L570.45,199.115L570.452,199.114L570.454,199.114L570.454,199.113L570.455,199.112L570.455,199.111L570.455,199.111L570.455,199.11L570.455,199.11L570.454,199.109L570.453,199.108L570.451,199.107L570.45,199.106L570.449,199.105L570.448,199.102L570.448,199.1L570.447,199.099L570.448,199.098L570.448,199.097L570.449,199.096L570.45,199.096L570.452,199.095L570.456,199.096L570.458,199.095L570.46,199.095L570.464,199.094L570.467,199.092L570.468,199.092L570.469,199.092L570.472,199.095L570.473,199.095L570.474,199.095L570.475,199.095L570.476,199.095L570.477,199.096L570.478,199.095L570.479,199.095L570.481,199.094L570.483,199.093L570.485,199.093L570.485,199.093L570.486,199.093L570.487,199.093L570.49,199.092L570.491,199.092L570.492,199.092L570.493,199.091L570.495,199.089L570.496,199.088L570.498,199.088L570.499,199.088L570.499,199.087L570.499,199.085L570.498,199.084L570.497,199.082L570.496,199.081L570.496,199.08L570.496,199.079L570.497,199.078L570.498,199.078L570.499,199.079L570.499,199.079L570.501,199.079L570.502,199.077L570.502,199.076L570.502,199.075L570.501,199.074L570.5,199.073L570.5,199.071L570.501,199.07L570.502,199.069L570.504,199.068L570.505,199.069L570.509,199.071L570.511,199.071L570.515,199.071L570.517,199.071L570.517,199.07L570.517,199.068L570.516,199.067L570.515,199.065L570.513,199.063L570.512,199.062L570.511,199.06L570.512,199.058L570.513,199.056L570.513,199.053L570.513,199.051L570.512,199.05L570.512,199.048L570.512,199.046L570.514,199.044L570.514,199.042L570.514,199.04L570.513,199.037L570.511,199.034L570.51,199.032L570.51,199.03L570.511,199.029L570.512,199.027L570.513,199.026L570.51,199.027L570.509,199.028L570.493,199.039L570.484,199.032L570.481,199.037L570.477,199.03L570.474,199.03L570.467,199.033L570.465,199.036L570.462,199.036L570.458,199.037L570.463,199.032L570.467,199.027L570.461,199.027L570.454,199.023L570.461,199.017L570.453,199.012L570.446,199.012L570.442,199.011L570.44,199.009L570.427,198.994L570.415,199.005L570.413,199.003L570.4,198.99L570.411,198.977L570.414,198.973L570.398,198.96L570.393,198.957L570.39,198.955L570.382,198.947L570.372,198.961L570.37,198.964L570.366,198.95L570.357,198.944L570.342,198.936L570.317,198.935L570.317,198.936L570.317,198.937L570.316,198.938L570.316,198.939L570.315,198.943L570.316,198.944L570.316,198.944L570.316,198.944L570.318,198.945L570.319,198.945L570.32,198.946L570.32,198.946L570.321,198.947L570.321,198.947L570.32,198.948L570.32,198.95L570.319,198.95L570.318,198.951L570.317,198.953L570.317,198.954L570.317,198.954L570.317,198.955L570.319,198.956L570.32,198.956L570.324,198.957L570.325,198.957L570.326,198.957L570.327,198.958L570.328,198.96L570.328,198.96L570.329,198.961L570.329,198.962L570.329,198.963L570.329,198.964L570.329,198.965L570.329,198.965L570.328,198.966L570.327,198.968L570.327,198.969L570.326,198.969L570.326,198.969L570.325,198.969L570.325,198.97L570.325,198.97L570.324,198.971L570.324,198.972L570.324,198.973L570.325,198.974L570.325,198.975L570.325,198.976L570.326,198.977L570.326,198.978L570.326,198.978L570.326,198.979L570.325,198.979L570.325,198.98L570.324,198.979L570.323,198.979L570.323,198.979L570.323,198.979L570.323,198.979L570.321,198.979L570.32,198.979L570.319,198.978L570.318,198.978L570.317,198.978L570.308,198.975L570.302,198.974L570.283,198.972L570.256,198.956L570.242,198.947L570.23,198.938L570.228,198.936L570.204,198.92L570.199,198.917L570.199,198.919L570.199,198.921L570.198,198.922L570.198,198.922L570.196,198.923L570.194,198.925L570.192,198.926L570.192,198.928L570.19,198.928L570.19,198.931L570.189,198.934L570.188,198.935L570.188,198.938L570.187,198.94L570.186,198.941L570.184,198.939L570.183,198.939L570.182,198.941L570.18,198.942L570.179,198.947L570.177,198.951L570.197,198.976L570.205,198.986L570.209,198.992L570.21,198.993L570.199,199.003L570.189,199.011L570.179,199.018L570.18,199.018L570.183,199.021L570.183,199.023L570.181,199.027L570.18,199.029L570.182,199.031L570.186,199.034L570.185,199.036L570.188,199.038L570.187,199.04L570.187,199.042L570.188,199.045L570.194,199.048L570.196,199.05L570.197,199.054L570.198,199.057L570.2,199.06L570.203,199.062L570.204,199.064L570.204,199.069L570.206,199.07L570.209,199.072L570.21,199.076L570.211,199.081L570.211,199.083L570.212,199.085L570.21,199.087L570.211,199.089L570.208,199.091L570.21,199.094L570.209,199.096L570.208,199.098L570.21,199.1L570.21,199.102L570.213,199.104L570.217,199.108L570.215,199.11L570.214,199.112L570.215,199.113L570.217,199.115L570.217,199.116L570.216,199.118L570.217,199.121L570.218,199.123L570.217,199.124L570.217,199.126L570.217,199.13L570.216,199.131L570.215,199.132L570.216,199.133L570.217,199.133L570.219,199.133L570.219,199.133L570.22,199.137L570.221,199.139L570.222,199.14L570.221,199.142L570.22,199.145L570.217,199.147L570.217,199.148L570.218,199.15L570.221,199.149L570.223,199.151L570.224,199.153L570.224,199.154L570.227,199.155L570.228,199.156L570.228,199.156L570.227,199.158L570.225,199.159L570.226,199.161L570.227,199.16L570.228,199.161L570.229,199.162L570.228,199.165L570.228,199.167L570.227,199.17L570.228,199.172L570.227,199.173L570.228,199.177L570.228,199.178L570.229,199.179L570.23,199.18L570.232,199.184L570.232,199.185L570.231,199.185L570.23,199.183L570.229,199.182L570.228,199.182L570.226,199.181L570.225,199.182L570.223,199.183L570.222,199.182L570.22,199.183L570.219,199.184L570.218,199.184L570.216,199.185L570.208,199.186L570.206,199.186L570.203,199.185L570.202,199.185L570.2,199.185L570.198,199.185L570.197,199.185L570.195,199.186L570.194,199.186L570.194,199.186L570.193,199.186L570.19,199.186L570.188,199.187L570.187,199.186L570.187,199.186L570.187,199.185L570.186,199.185L570.184,199.184L570.183,199.184L570.182,199.185L570.182,199.186L570.181,199.187L570.181,199.188L570.18,199.187L570.179,199.188L570.178,199.188L570.177,199.189L570.176,199.19L570.176,199.19L570.174,199.191L570.173,199.192L570.171,199.192L570.17,199.191L570.169,199.192L570.168,199.191L570.167,199.192L570.166,199.192L570.165,199.193L570.164,199.191L570.163,199.191L570.162,199.191L570.161,199.19L570.16,199.19L570.158,199.191L570.157,199.191L570.157,199.19L570.156,199.188L570.154,199.188L570.153,199.188L570.151,199.188L570.151,199.186L570.117,199.113L570.104,199.108L570.1,199.107L570.079,199.099L570.063,199.094L570.063,199.094L570.053,199.091L570.044,199.088L570.035,199.084L570.031,199.083L570.029,199.088L570.026,199.097L570.025,199.102L570.024,199.105L570.02,199.116L570.019,199.12L570.018,199.121L570.016,199.12L570.013,199.12L570.012,199.12L570.01,199.12L570.008,199.12L570.007,199.121L570.005,199.121L570.003,199.122L570.002,199.122L570.001,199.122L570,199.122L569.998,199.122L569.997,199.122L569.996,199.121L569.996,199.121L569.993,199.119L569.991,199.119L569.99,199.118L569.988,199.117L569.988,199.116L569.987,199.116L569.986,199.116L569.985,199.115L569.984,199.115L569.983,199.114L569.982,199.113L569.98,199.113L569.978,199.113L569.972,199.114L569.971,199.114L569.956,199.115L569.947,199.115L569.934,199.116L569.929,199.109L569.927,199.108L569.925,199.107L569.92,199.104L569.91,199.096L569.909,199.095L569.902,199.09L569.902,199.09L569.902,199.09L569.897,199.087L569.895,199.085L569.894,199.087L569.891,199.091L569.89,199.092L569.89,199.093L569.889,199.095L569.887,199.097L569.864,199.084L569.861,199.079L569.859,199.074L569.854,199.07L569.85,199.065L569.842,199.06L569.833,199.055L569.828,199.052L569.823,199.051L569.821,199.053L569.82,199.053L569.816,199.057L569.811,199.06L569.806,199.062L569.795,199.061L569.784,199.062L569.773,199.061L569.764,199.059L569.76,199.06L569.756,199.061L569.752,199.063L569.748,199.064L569.739,199.066L569.735,199.068L569.731,199.068L569.737,199.014L569.759,199.016L569.757,199.011L569.756,199.008L569.756,199.005L569.756,199.002L569.755,198.999L569.754,198.995L569.755,198.991L569.756,198.988L569.758,198.987L569.759,198.985L569.759,198.984L569.762,198.984L569.761,198.981L569.762,198.977L569.762,198.974L569.76,198.969L569.76,198.965L569.758,198.963L569.756,198.961L569.751,198.96L569.747,198.959L569.745,198.963L569.743,198.967L569.739,198.975L569.688,198.966L569.686,198.972L569.653,198.976L569.652,198.975L569.651,198.973L569.652,198.971L569.652,198.97L569.653,198.968L569.651,198.966L569.65,198.965L569.649,198.964L569.65,198.962L569.651,198.96L569.652,198.958L569.651,198.956L569.649,198.955L569.647,198.955L569.644,198.955L569.643,198.954L569.643,198.953L569.643,198.951L569.642,198.95L569.641,198.949L569.639,198.95L569.589,198.964L569.592,198.97L569.555,198.983L569.553,198.975L569.541,198.929L569.538,198.902L569.538,198.902L569.535,198.901L569.532,198.902L569.529,198.903L569.525,198.904L569.521,198.902L569.517,198.903L569.514,198.901L569.511,198.899L569.508,198.898L569.494,198.905L569.471,198.911L569.466,198.889L569.453,198.891L569.435,198.89L569.442,198.897L569.441,198.899L569.441,198.906L569.433,198.905L569.428,198.904L569.405,198.908L569.393,198.91L569.387,198.9L569.381,198.9L569.376,198.888L569.365,198.855L569.354,198.847L569.352,198.843L569.347,198.843L569.341,198.839L569.336,198.838L569.331,198.838L569.332,198.831L569.333,198.828L569.333,198.823L569.333,198.823L569.333,198.822L569.329,198.82L569.327,198.82L569.323,198.818L569.32,198.817L569.31,198.813L569.291,198.812L569.268,198.811L569.265,198.811L569.257,198.81L569.251,198.809L569.244,198.809L569.244,198.804L569.213,198.805L569.192,198.793L569.188,198.792L569.188,198.783L569.187,198.779L569.187,198.777L569.186,198.773L569.185,198.759L569.183,198.752L569.181,198.744L569.178,198.731L569.178,198.731L569.178,198.73L569.15,198.735L569.146,198.736L569.142,198.733L569.14,198.727L569.137,198.717L569.134,198.718L569.122,198.717L569.12,198.716L569.104,198.715L569.104,198.716L569.104,198.717L569.103,198.719L569.103,198.721L569.103,198.723L569.103,198.725L569.103,198.729L569.103,198.731L569.103,198.731L569.103,198.731L569.103,198.732L569.103,198.732L569.103,198.732L569.104,198.732L569.104,198.732L569.104,198.732L569.105,198.733L569.105,198.734L569.105,198.734L569.107,198.735L569.11,198.734L569.111,198.734L569.112,198.734L569.113,198.734L569.113,198.735L569.113,198.736L569.113,198.737L569.113,198.738L569.113,198.738L569.113,198.74L569.112,198.741L569.111,198.742L569.109,198.743L569.108,198.744L569.109,198.745L569.11,198.747L569.112,198.748L569.113,198.749L569.114,198.749L569.115,198.749L569.115,198.749L569.116,198.749L569.116,198.749L569.117,198.749L569.118,198.749L569.119,198.749L569.119,198.749L569.12,198.75L569.121,198.75L569.121,198.751L569.122,198.752L569.122,198.753L569.122,198.754L569.123,198.755L569.123,198.755L569.123,198.757L569.123,198.757L569.123,198.758L569.122,198.759L569.122,198.76L569.121,198.76L569.12,198.76L569.12,198.761L569.118,198.764L569.118,198.765L569.116,198.767L569.116,198.767L569.114,198.769L569.113,198.771L569.112,198.775L569.112,198.78L569.112,198.781L569.112,198.782L569.112,198.782L569.112,198.783L569.113,198.783L569.113,198.783L569.113,198.784L569.113,198.784L569.114,198.786L569.114,198.787L569.114,198.787L569.117,198.787L569.118,198.788L569.119,198.788L569.12,198.789L569.12,198.788L569.12,198.788L569.121,198.788L569.121,198.787L569.121,198.786L569.121,198.786L569.122,198.786L569.122,198.786L569.122,198.786L569.123,198.786L569.123,198.786L569.123,198.787L569.123,198.787L569.124,198.788L569.124,198.788L569.124,198.789L569.123,198.789L569.123,198.791L569.122,198.792L569.122,198.792L569.122,198.793L569.121,198.793L569.121,198.793L569.121,198.793L569.121,198.794L569.121,198.795L569.121,198.795L569.122,198.795L569.122,198.795L569.122,198.796L569.125,198.796L569.125,198.796L569.126,198.796L569.126,198.796L569.127,198.797L569.128,198.797L569.128,198.798L569.129,198.799L569.129,198.8L569.13,198.801L569.13,198.802L569.129,198.803L569.129,198.803L569.129,198.804L569.128,198.804L569.128,198.805L569.127,198.805L569.127,198.805L569.127,198.805L569.128,198.806L569.128,198.806L569.129,198.807L569.129,198.807L569.129,198.807L569.13,198.808L569.13,198.808L569.132,198.807L569.132,198.807L569.133,198.807L569.133,198.808L569.134,198.808L569.134,198.808L569.135,198.808L569.136,198.809L569.136,198.809L569.136,198.811L569.123,198.806L569.104,198.794L569.104,198.796L569.104,198.796L569.104,198.797L569.104,198.797L569.105,198.798L569.105,198.799L569.106,198.8L569.106,198.801L569.106,198.801L569.105,198.802L569.105,198.803L569.104,198.803L569.103,198.803L569.103,198.803L569.102,198.804L569.102,198.804L569.101,198.804L569.098,198.806L569.097,198.807L569.097,198.808L569.096,198.808L569.095,198.809L569.094,198.81L569.089,198.807L569.086,198.806L569.072,198.803L569.069,198.802L569.069,198.802L569.068,198.81L569.068,198.812L569.067,198.811L569.067,198.81L569.066,198.81L569.067,198.809L569.067,198.803L569.065,198.802L569.056,198.803L569.052,198.805L569.048,198.804L569.005,198.79L568.994,198.786L568.963,198.775L568.965,198.769L568.9,198.76L568.906,198.73L568.905,198.73L568.903,198.73L568.9,198.73L568.898,198.733L568.896,198.733L568.894,198.732L568.893,198.73L568.893,198.729L568.892,198.728L568.891,198.728L568.891,198.727L568.888,198.724L568.887,198.724L568.885,198.722L568.882,198.722L568.88,198.721L568.877,198.72L568.875,198.72L568.874,198.721L568.872,198.721L568.871,198.721L568.87,198.725L568.869,198.726L568.867,198.727L568.865,198.729L568.862,198.728L568.856,198.731L568.853,198.73L568.85,198.728L568.845,198.725L568.838,198.759L568.834,198.758L568.83,198.759L568.826,198.758L568.821,198.758L568.817,198.756L568.814,198.754L568.812,198.752L568.809,198.75L568.805,198.75L568.801,198.751L568.804,198.826L568.807,198.845L568.812,198.85L568.814,198.855L568.819,198.868L568.824,198.877L568.827,198.895L568.773,198.896L568.769,198.896L568.758,198.897L568.758,198.897L568.757,198.897L568.755,198.897L568.754,198.897L568.752,198.897L568.75,198.897L568.746,198.897L568.744,198.897L568.742,198.897L568.74,198.897L568.739,198.897L568.735,198.897L568.732,198.897L568.728,198.898L568.726,198.898L568.725,198.898L568.722,198.899L568.718,198.899L568.635,198.907L568.6,198.909L568.572,198.912L568.527,198.917L568.532,198.947L568.519,198.946L568.444,198.944L568.438,198.944L568.433,198.914L568.433,198.911L568.432,198.908L568.432,198.908L568.431,198.907L568.429,198.904L568.428,198.903L568.427,198.902L568.427,198.901L568.426,198.901L568.425,198.902L568.424,198.902L568.423,198.902L568.422,198.903L568.419,198.904L568.419,198.905L568.418,198.905L568.416,198.906L568.415,198.907L568.415,198.908L568.414,198.908L568.414,198.908L568.413,198.909L568.412,198.91L568.411,198.911L568.41,198.911L568.409,198.911L568.409,198.911L568.41,198.911L568.409,198.913L568.409,198.913L568.408,198.915L568.407,198.916L568.406,198.917L568.405,198.917L568.403,198.917L568.401,198.917L568.4,198.918L568.398,198.918L568.394,198.918L568.392,198.919L568.391,198.919L568.389,198.919L568.387,198.921L568.386,198.921L568.384,198.921L568.383,198.921L568.382,198.922L568.382,198.923L568.382,198.924L568.38,198.925L568.379,198.926L568.379,198.927L568.378,198.929L568.379,198.929L568.38,198.93L568.382,198.931L568.386,198.935L568.388,198.937L568.389,198.938L568.39,198.94L568.391,198.941L568.39,198.941L568.388,198.942L568.384,198.944L568.378,198.946L568.375,198.948L568.372,198.949L568.366,198.951L568.362,198.953L568.361,198.954L568.359,198.954L568.358,198.954L568.358,198.953L568.356,198.952L568.355,198.952L568.355,198.953L568.354,198.953L568.353,198.953L568.353,198.953L568.352,198.953L568.351,198.953L568.35,198.952L568.349,198.953L568.348,198.952L568.348,198.953L568.348,198.954L568.347,198.955L568.347,198.955L568.346,198.956L568.345,198.956L568.345,198.955L568.345,198.955L568.344,198.954L568.342,198.955L568.34,198.955L568.338,198.955L568.337,198.955L568.336,198.954L568.335,198.953L568.335,198.953L568.335,198.952L568.336,198.952L568.336,198.952L568.337,198.952L568.337,198.95L568.337,198.949L568.337,198.949L568.336,198.948L568.336,198.948L568.336,198.948L568.336,198.948L568.335,198.948L568.335,198.948L568.335,198.948L568.335,198.947L568.334,198.947L568.334,198.946L568.334,198.946L568.333,198.946L568.333,198.945L568.334,198.944L568.335,198.944L568.336,198.945L568.337,198.945L568.337,198.944L568.338,198.945L568.339,198.946L568.339,198.946L568.34,198.946L568.34,198.944L568.34,198.944L568.341,198.944L568.342,198.944L568.344,198.944L568.344,198.944L568.345,198.943L568.346,198.942L568.346,198.941L568.345,198.939L568.345,198.938L568.346,198.937L568.347,198.938L568.347,198.937L568.348,198.937L568.35,198.935L568.35,198.935L568.35,198.934L568.35,198.933L568.35,198.933L568.35,198.932L568.349,198.932L568.348,198.931L568.348,198.931L568.348,198.93L568.349,198.93L568.349,198.931L568.35,198.93L568.35,198.93L568.35,198.929L568.349,198.928L568.349,198.928L568.347,198.927L568.347,198.927L568.346,198.927L568.346,198.926L568.342,198.926L568.34,198.926L568.338,198.926L568.336,198.926L568.334,198.927L568.332,198.927L568.331,198.927L568.33,198.927L568.33,198.927L568.329,198.928L568.328,198.929L568.327,198.929L568.326,198.93L568.325,198.931L568.324,198.931L568.322,198.932L568.321,198.931L568.319,198.931L568.318,198.929L568.316,198.925L568.316,198.924L568.318,198.921L568.318,198.921L568.321,198.919L568.323,198.918L568.327,198.916L568.33,198.913L568.33,198.912L568.331,198.91L568.331,198.909L568.332,198.907L568.331,198.905L568.331,198.904ZM800,0L800,12.246L800,78.668L800,145.789L800,215.835L800,261.497L800,300L800,338.503L800,384.165L800,454.211L800,600L800,600L200,600L200,600L200,454.211L200,384.165L200,338.503L200,300L200,261.497L200,215.835L200,145.789L200,78.668L200,12.246L200,0L200,0L800,0Z"/>
<path d="M565.334,199.104m0,4.5a4.5,4.5 0 1,1 0,-9a4.5,4.5 0 1,1 0,9z"/>
<path d="M566.918,200.919m0,4.5a4.5,4.5 0 1,1 0,-9a4.5,4.5 0 1,1 0,9z"/>
</svg>